<svg width="314" height="261" viewBox="0 0 314 261" fill="none" xmlns="http://www.w3.org/2000/svg">
<path d="M46.6896 189.543C56.5381 191.139 52.4567 159.704 81.3048 151.283C93.5859 147.699 104.089 151.11 113.487 155.339C127.2 161.512 136.011 163.811 149.797 148.508C169.02 127.17 194.048 126.497 208.477 129.901C221.146 132.46 245.415 138.868 262.766 177.977C266.251 185.832 271.262 193.287 282.006 191.293C304.349 187.152 319.364 201.526 312.193 215.275H0C0 215.275 5.41614 182.85 46.6896 189.543Z" fill="#B59B00"/>
<path d="M100.06 213.72L93.6221 229.87H116.071L121.944 216.708L100.06 213.72Z" fill="#A0505A"/>
<path d="M121.122 218.463L121.944 216.708L100.06 213.72L97.166 221.219L121.122 218.463Z" fill="#423C52"/>
<path d="M93.9985 229.869L89.6707 240.536C89.4932 240.973 89.4308 241.444 89.4888 241.909C89.5467 242.374 89.7233 242.818 90.0033 243.204C90.2833 243.59 90.6583 243.906 91.0959 244.124C91.5335 244.342 92.0206 244.456 92.5151 244.456H128.328V242.867C128.328 242.191 128.182 241.522 127.897 240.902C127.613 240.281 127.197 239.723 126.675 239.262L116.071 229.869H93.9985Z" fill="white" stroke="#423C52" stroke-width="5" stroke-miterlimit="10" stroke-linecap="round"/>
<path d="M90.4234 238.576C90.2463 239.013 90.1842 239.484 90.2423 239.949C90.3005 240.413 90.4771 240.858 90.7571 241.243C91.0371 241.629 91.4119 241.944 91.8493 242.162C92.2867 242.38 92.7735 242.494 93.2678 242.494H128.139" stroke="#423C52" stroke-width="5" stroke-miterlimit="10" stroke-linecap="round"/>
<path d="M101.53 229.869L96.5581 242.494" stroke="#423C52" stroke-width="5" stroke-miterlimit="10" stroke-linecap="round"/>
<path d="M103.79 229.869L98.8179 242.494" stroke="#423C52" stroke-width="5" stroke-miterlimit="10" stroke-linecap="round"/>
<path d="M106.049 229.869L101.077 242.494" stroke="#423C52" stroke-width="5" stroke-miterlimit="10" stroke-linecap="round"/>
<path d="M122.357 235.165V233.949C122.354 233.409 122.126 232.893 121.722 232.512C121.318 232.131 120.771 231.918 120.2 231.918H115.001C114.718 231.918 114.438 231.971 114.176 232.073C113.915 232.176 113.677 232.326 113.477 232.515C113.277 232.705 113.118 232.93 113.01 233.177C112.902 233.425 112.846 233.69 112.847 233.958" stroke="#423C52" stroke-width="5" stroke-miterlimit="10" stroke-linecap="round"/>
<path d="M126.013 238.003V236.785C126.012 236.244 125.785 235.725 125.381 235.343C124.977 234.961 124.43 234.746 123.859 234.745H118.657C118.086 234.746 117.538 234.961 117.134 235.343C116.731 235.725 116.503 236.244 116.503 236.785" stroke="#423C52" stroke-width="5" stroke-miterlimit="10" stroke-linecap="round"/>
<path d="M184.305 217.591V230.44H161.858V219.069C169.371 219.189 176.882 218.694 184.305 217.591Z" fill="#A0505A"/>
<path d="M184.305 217.591V219.562L161.858 224.909V219.069C169.371 219.189 176.882 218.694 184.305 217.591Z" fill="#423C52"/>
<path d="M162.232 229.723L158.792 241.095C158.666 241.484 158.639 241.895 158.712 242.296C158.786 242.697 158.957 243.076 159.213 243.403C159.468 243.729 159.801 243.995 160.185 244.178C160.569 244.361 160.992 244.456 161.422 244.456H203.039V242.414C203.038 241.677 202.819 240.955 202.405 240.331C201.991 239.707 201.4 239.206 200.699 238.885L184.298 229.724L162.232 229.723Z" fill="white" stroke="#423C52" stroke-width="5" stroke-miterlimit="10" stroke-linecap="round"/>
<path d="M159.428 239.134C159.302 239.523 159.275 239.934 159.347 240.335C159.42 240.736 159.591 241.115 159.847 241.441C160.102 241.768 160.435 242.034 160.819 242.217C161.203 242.4 161.626 242.495 162.056 242.494H202.919" stroke="#423C52" stroke-width="5" stroke-miterlimit="10" stroke-linecap="round"/>
<path d="M168.936 229.87L165.847 242.494" stroke="#423C52" stroke-width="5" stroke-miterlimit="10" stroke-linecap="round"/>
<path d="M171.195 229.87L168.106 242.494" stroke="#423C52" stroke-width="5" stroke-miterlimit="10" stroke-linecap="round"/>
<path d="M173.455 229.87L170.366 242.494" stroke="#423C52" stroke-width="5" stroke-miterlimit="10" stroke-linecap="round"/>
<path d="M194.268 235.266V234.048C194.268 233.507 194.041 232.988 193.637 232.606C193.233 232.223 192.685 232.008 192.114 232.008H188.231C187.66 232.009 187.113 232.224 186.709 232.606C186.305 232.989 186.078 233.507 186.077 234.048" stroke="#423C52" stroke-width="5" stroke-miterlimit="10" stroke-linecap="round"/>
<path d="M198.304 236.886C198.304 236.618 198.248 236.353 198.14 236.105C198.031 235.858 197.873 235.633 197.672 235.443C197.472 235.254 197.234 235.104 196.973 235.001C196.711 234.899 196.431 234.846 196.148 234.847H191.889C191.317 234.847 190.769 235.062 190.365 235.444C189.961 235.827 189.734 236.345 189.734 236.886" stroke="#423C52" stroke-width="5" stroke-miterlimit="10" stroke-linecap="round"/>
<path d="M192.065 30.9175C198.947 31.8477 204.99 36.9583 206.309 43.4317L213.726 77.8382C214.139 79.4602 214.348 81.1229 214.349 82.7915V84.2809C214.349 89.8759 212.001 95.2417 207.822 99.198C203.643 103.154 197.975 105.377 192.065 105.377V30.9175Z" fill="#A0505A"/>
<path d="M152.469 73.6776H81.7522C81.7522 72.856 80.3587 45.9073 106.452 44.883C125.592 44.132 113.396 26.3931 127.171 17.5978C137.899 10.7498 158.76 19.8075 159.794 12.2265C160.973 3.59593 164.718 -0.00361673 171.34 2.72668e-06C176.31 2.72668e-06 182.06 2.88652 182.06 4.72701C182.06 4.72701 177.424 10.4657 169.145 9.5065L168.964 14.4814C168.964 14.4814 169.384 28.9176 147.026 30.5247L152.469 73.6776Z" fill="#FF7500"/>
<path d="M112.348 36.2683C114.041 34.2753 114.306 31.8162 112.94 30.7757C111.573 29.7353 109.093 30.5074 107.4 32.5004C105.707 34.4935 105.442 36.9526 106.808 37.9931C108.175 39.0336 110.655 38.2614 112.348 36.2683Z" fill="#FF7500"/>
<path d="M192.066 65.1232V216.174C192.066 216.174 174.468 220.365 154.586 218.691C154.586 218.691 146.328 212.386 149.359 203.033C151.338 196.927 158.588 194.85 152.227 187.289C149.059 183.524 149.612 177.046 151.154 171.11L156.237 157.705C156.099 157.971 152.951 164.171 151.154 171.11L133.551 217.517C118.774 217.084 93.62 212.589 93.62 212.589C90.2155 205.876 90.7374 199.378 97.252 195.831C103.56 192.392 94.9428 186.299 98.4448 176.778C101.536 168.379 107.762 168.996 112.743 162.347C121.263 150.991 151.856 75.1762 151.856 75.1762L143.711 30.9085L154.488 29.3069L174.89 48.49L185.895 30.1502L192.069 30.9827V31.7627L197.37 52.8876C198.542 57.5676 196.43 62.4267 192.066 65.1232Z" fill="#FFDB00"/>
<path d="M133.553 217.348L177.312 102.47H181.866" stroke="#423C52" stroke-width="5" stroke-miterlimit="10" stroke-linecap="round"/>
<path d="M196.435 61.5635C194.755 64.2781 191.807 65.6897 187.833 66.1222" stroke="#423C52" stroke-width="5" stroke-miterlimit="10" stroke-linecap="round"/>
<path d="M143.705 30.9175C140.408 30.9171 137.177 31.8007 134.389 33.4661C131.6 35.1315 129.366 37.5106 127.946 40.3281L111.124 81.0758C110.195 83.0284 109.715 85.1454 109.715 87.2868C109.715 91.3037 111.401 95.156 114.401 97.9964C117.401 100.837 121.47 102.432 125.713 102.432H125.904C128.335 102.432 130.734 101.908 132.92 100.9L167.169 85.0771V71.1947L142.787 72.7963L148.096 55.1334L143.705 30.9175Z" fill="#A0505A"/>
<path d="M180.797 68.9248H164.677C162.75 68.9248 161.188 70.4035 161.188 72.2276V81.9965C161.188 83.8205 162.75 85.2992 164.677 85.2992H180.797C182.723 85.2992 184.285 83.8205 184.285 81.9965V72.2276C184.285 70.4035 182.723 68.9248 180.797 68.9248Z" fill="#A0505A"/>
<path d="M180.797 68.9248H164.677C162.75 68.9248 161.188 70.4035 161.188 72.2276V81.9965C161.188 83.8205 162.75 85.2992 164.677 85.2992H180.797C182.723 85.2992 184.285 83.8205 184.285 81.9965V72.2276C184.285 70.4035 182.723 68.9248 180.797 68.9248Z" stroke="#423C52" stroke-width="5" stroke-miterlimit="10" stroke-linecap="round"/>
<path d="M166.112 72.5264V85.209" stroke="#423C52" stroke-width="5" stroke-miterlimit="10" stroke-linecap="round"/>
<path d="M172.089 72.5249V83.6855C172.089 84.1136 171.91 84.5242 171.59 84.8269C171.27 85.1297 170.836 85.2997 170.384 85.2997H169.455" stroke="#423C52" stroke-width="5" stroke-miterlimit="10" stroke-linecap="round"/>
<path d="M178.159 72.5249V83.6855C178.159 84.1136 177.979 84.5242 177.659 84.8269C177.339 85.1297 176.906 85.2997 176.454 85.2997H175.526" stroke="#423C52" stroke-width="5" stroke-miterlimit="10" stroke-linecap="round"/>
<path d="M157.268 77.1108H235.798" stroke="#423C52" stroke-width="5" stroke-miterlimit="10" stroke-linecap="round"/>
<path d="M239.943 257.703C250.785 257.703 259.574 249.382 259.574 239.118C259.574 228.853 250.785 220.532 239.943 220.532C229.1 220.532 220.311 228.853 220.311 239.118C220.311 249.382 229.1 257.703 239.943 257.703Z" stroke="#423C52" stroke-width="5" stroke-miterlimit="10" stroke-linecap="round"/>
<path d="M255.998 240.002C255.999 242.027 255.497 244.023 254.53 245.83C253.564 247.636 252.162 249.201 250.437 250.398" stroke="#423C52" stroke-width="5" stroke-miterlimit="10" stroke-linecap="round"/>
<path d="M53.1977 257.703C64.0401 257.703 72.8296 249.382 72.8296 239.118C72.8296 228.853 64.0401 220.532 53.1977 220.532C42.3554 220.532 33.5659 228.853 33.5659 239.118C33.5659 249.382 42.3554 257.703 53.1977 257.703Z" stroke="#423C52" stroke-width="5" stroke-miterlimit="10" stroke-linecap="round"/>
<path d="M68.7022 239.393C68.7038 236.884 68.0176 234.418 66.7109 232.236C65.4041 230.053 63.5215 228.229 61.2471 226.942" stroke="#423C52" stroke-width="5" stroke-miterlimit="10" stroke-linecap="round"/>
<path d="M53.1977 242.554C55.1592 242.554 56.7494 241.049 56.7494 239.192C56.7494 237.335 55.1592 235.829 53.1977 235.829C51.2361 235.829 49.646 237.335 49.646 239.192C49.646 241.049 51.2361 242.554 53.1977 242.554Z" fill="white" stroke="#423C52" stroke-width="5" stroke-miterlimit="10" stroke-linecap="round"/>
<path d="M239.839 215.789C236.117 215.789 232.431 216.483 228.992 217.831C225.554 219.18 222.429 221.156 219.797 223.648C217.165 226.139 215.078 229.098 213.653 232.353C212.229 235.609 211.496 239.098 211.496 242.622L211.521 244.457H82.5073C82.1142 244.457 81.7249 244.383 81.3617 244.241C80.9986 244.098 80.6685 243.89 80.3906 243.626C80.1126 243.363 79.8921 243.051 79.7416 242.707C79.5912 242.363 79.5138 241.995 79.5138 241.623V238.3C79.5138 232.121 76.921 226.195 72.3058 221.825C67.6907 217.456 61.4311 215.001 54.9043 215.001" stroke="#423C52" stroke-width="5" stroke-miterlimit="10" stroke-linecap="round"/>
<path d="M184.352 77.1108C188.329 77.1108 192.191 78.3754 195.318 80.7018C198.445 83.0282 200.656 86.2816 201.596 89.94L239.942 239.117" stroke="#423C52" stroke-width="5" stroke-miterlimit="10" stroke-linecap="round"/>
<path d="M201.904 90.8865C201.49 89.2436 201.475 87.5333 201.859 85.884C202.243 84.2347 203.017 82.6893 204.123 81.3637C205.228 80.0381 206.637 78.9669 208.242 78.2303C209.847 77.4937 211.608 77.111 213.392 77.1108H213.725" stroke="#423C52" stroke-width="5" stroke-miterlimit="10" stroke-linecap="round"/>
<path d="M240.019 242.554C241.98 242.554 243.571 241.049 243.571 239.192C243.571 237.335 241.98 235.829 240.019 235.829C238.057 235.829 236.467 237.335 236.467 239.192C236.467 241.049 238.057 242.554 240.019 242.554Z" fill="white" stroke="#423C52" stroke-width="5" stroke-miterlimit="10" stroke-linecap="round"/>
<path d="M228.644 68.9868H212.988C210.953 68.9868 209.303 70.549 209.303 72.476V81.8214C209.303 83.7484 210.953 85.3105 212.988 85.3105H228.644C230.679 85.3105 232.329 83.7484 232.329 81.8214V72.476C232.329 70.549 230.679 68.9868 228.644 68.9868Z" fill="#A0505A"/>
<path d="M232.111 81.3293C232.111 82.3852 231.668 83.3979 230.879 84.1446C230.09 84.8912 229.021 85.3107 227.905 85.3107H213.293C212.178 85.3107 211.108 84.8912 210.32 84.1446C209.531 83.3979 209.088 82.3852 209.088 81.3293V72.9702C209.088 71.9142 209.531 70.9016 210.32 70.1549C211.108 69.4082 212.178 68.9888 213.293 68.9888" stroke="#423C52" stroke-width="5" stroke-miterlimit="10" stroke-linecap="round"/>
<path d="M221.356 72.5771V83.7015C221.357 83.9129 221.313 84.1223 221.228 84.3177C221.142 84.5131 221.017 84.6907 220.859 84.8403C220.702 84.9899 220.514 85.1085 220.308 85.1895C220.102 85.2705 219.88 85.3121 219.657 85.3121H218.732" stroke="#423C52" stroke-width="5" stroke-miterlimit="10" stroke-linecap="round"/>
<path d="M215.66 72.5771V83.7015C215.66 83.9129 215.617 84.1223 215.531 84.3177C215.446 84.5131 215.321 84.6907 215.163 84.8403C215.005 84.9899 214.818 85.1085 214.612 85.1895C214.405 85.2705 214.184 85.3121 213.961 85.3121H213.036" stroke="#423C52" stroke-width="5" stroke-miterlimit="10" stroke-linecap="round"/>
<path d="M226.693 72.5771V83.7015C226.694 83.9129 226.65 84.1223 226.565 84.3177C226.479 84.5131 226.354 84.6907 226.196 84.8403C226.039 84.9899 225.851 85.1085 225.645 85.1895C225.438 85.2705 225.217 85.3121 224.994 85.3121H224.069" stroke="#423C52" stroke-width="5" stroke-miterlimit="10" stroke-linecap="round"/>
<path d="M113.217 119.843C113.637 120.119 113.989 120.477 114.25 120.893C114.511 121.309 114.676 121.773 114.732 122.254C114.789 122.735 114.737 123.222 114.578 123.682C114.42 124.142 114.16 124.565 113.816 124.922L98.441 140.868C98.3338 140.977 98.1885 141.046 98.032 141.061C97.8755 141.077 97.7183 141.038 97.5895 140.953C97.4607 140.867 97.3689 140.74 97.3311 140.596C97.2933 140.451 97.3121 140.298 97.3839 140.166L107.985 121.051C108.222 120.624 108.552 120.249 108.954 119.952C109.355 119.655 109.819 119.442 110.314 119.328C110.809 119.213 111.324 119.2 111.825 119.289C112.326 119.378 112.801 119.566 113.219 119.843H113.217Z" fill="#FF7500"/>
<path d="M91.4871 139.505C95.6214 139.505 98.9728 136.332 98.9728 132.418C98.9728 128.504 95.6214 125.331 91.4871 125.331C87.3529 125.331 84.0015 128.504 84.0015 132.418C84.0015 136.332 87.3529 139.505 91.4871 139.505Z" fill="#FFDB00"/>
<path d="M79.4918 126.833C81.9823 126.833 84.0013 125.452 84.0013 123.748C84.0013 122.044 81.9823 120.662 79.4918 120.662C77.0013 120.662 74.9824 122.044 74.9824 123.748C74.9824 125.452 77.0013 126.833 79.4918 126.833Z" fill="#B59B00"/>
<path d="M90.9819 123.099C92.5407 122.247 92.795 119.901 91.5497 117.859C90.3045 115.817 88.0313 114.852 86.4725 115.704C84.9136 116.556 84.6594 118.902 85.9046 120.944C87.1498 122.986 89.423 123.951 90.9819 123.099Z" fill="#B59B00"/>
<path d="M81.776 119.248C83.6274 118.236 84.216 115.92 83.0906 114.074C81.9651 112.229 79.5519 111.553 77.7005 112.565C75.849 113.577 75.2605 115.893 76.3859 117.739C77.5113 119.584 79.9245 120.26 81.776 119.248Z" fill="#B59B00"/>
<path d="M133.704 101.213C127.342 114.161 119.925 127.284 116.624 132.376C113.311 137.202 108.138 140.613 102.207 141.881C96.2765 143.149 90.0574 142.174 84.875 139.164C79.6927 136.154 75.9568 131.347 74.4635 125.767C72.9701 120.187 73.8375 114.276 76.8807 109.293C83.6152 98.9036 135.6 68.1491 142.99 72.44" stroke="#423C52" stroke-width="5" stroke-miterlimit="10" stroke-linecap="round"/>
<path d="M77.519 108.47L82.7433 106.226L88.0747 103.938L93.3028 101.693L98.6342 99.4051L107.16 95.7422" stroke="#423C52" stroke-width="5" stroke-miterlimit="10" stroke-linecap="round"/>
<path d="M74.5386 115.477L79.4551 113.365L84.6832 111.121L90.0127 108.833L95.2389 106.589L100.57 104.3L107.767 101.21" stroke="#423C52" stroke-width="5" stroke-miterlimit="10" stroke-linecap="round"/>
<path d="M73.9077 121.187L79.2295 118.903L84.4557 116.659L89.7852 114.37L95.0133 112.126L100.345 109.838L108.213 106.458" stroke="#423C52" stroke-width="5" stroke-miterlimit="10" stroke-linecap="round"/>
<path d="M74.4521 126.305L79.0055 124.332L84.2336 122.09L89.563 119.799L94.7893 117.556L100.121 115.265L105.347 113.023L110.68 110.734L115.904 108.488L133.875 100.909" stroke="#423C52" stroke-width="5" stroke-miterlimit="10" stroke-linecap="round"/>
<path d="M76.0737 131.033L84.0067 127.626L89.3381 125.338L94.5643 123.094L99.8937 120.803L105.122 118.561L110.453 116.27L115.679 114.026L121.391 111.573L130.261 107.768" stroke="#423C52" stroke-width="5" stroke-miterlimit="10" stroke-linecap="round"/>
<path d="M126.829 114.574L79.0059 135.06" stroke="#423C52" stroke-width="5" stroke-miterlimit="10" stroke-linecap="round"/>
<path d="M122.932 121.687L83.397 138.615" stroke="#423C52" stroke-width="5" stroke-miterlimit="10" stroke-linecap="round"/>
<path d="M118.615 128.924L89.3145 141.505" stroke="#423C52" stroke-width="5" stroke-miterlimit="10" stroke-linecap="round"/>
<path d="M77.3296 108.66L80.4283 136.598" stroke="#423C52" stroke-width="5" stroke-miterlimit="10" stroke-linecap="round"/>
<path d="M81.9727 104.012L86.0119 140.424" stroke="#423C52" stroke-width="5" stroke-miterlimit="10" stroke-linecap="round"/>
<path d="M86.8091 100.167L91.4887 142.362" stroke="#423C52" stroke-width="5" stroke-miterlimit="10" stroke-linecap="round"/>
<path d="M91.5898 96.7485L96.7071 142.909" stroke="#423C52" stroke-width="5" stroke-miterlimit="10" stroke-linecap="round"/>
<path d="M96.4834 93.4365L101.908 142.359" stroke="#423C52" stroke-width="5" stroke-miterlimit="10" stroke-linecap="round"/>
<path d="M101.303 90.3657L106.886 140.716" stroke="#423C52" stroke-width="5" stroke-miterlimit="10" stroke-linecap="round"/>
<path d="M106.232 87.374L111.812 137.69" stroke="#423C52" stroke-width="5" stroke-miterlimit="10" stroke-linecap="round"/>
<path d="M116.417 132.687L115.996 128.905L115.398 123.501L114.786 117.989L113.833 109.378" stroke="#423C52" stroke-width="5" stroke-miterlimit="10" stroke-linecap="round"/>
<path d="M121.189 124.698L120.682 120.302L120.07 114.789L119.218 107.091" stroke="#423C52" stroke-width="5" stroke-miterlimit="10" stroke-linecap="round"/>
<path d="M126.091 115.54L125.56 111.463L124.837 104.934" stroke="#423C52" stroke-width="5" stroke-miterlimit="10" stroke-linecap="round"/>
<path d="M130.765 106.848L130.261 103.019" stroke="#423C52" stroke-width="5" stroke-miterlimit="10" stroke-linecap="round"/>
<path d="M183.314 29.8119L185.891 30.1594L174.89 48.4992L154.488 29.3161L154.551 29.307C157.523 28.3859 162.469 26.4929 164.392 23.1123L168.503 15.1604L178.029 19.6377V24.0407C178.028 25.4441 178.562 26.8006 179.533 27.8609C180.504 28.9212 181.847 29.614 183.314 29.8119Z" fill="#A0505A"/>
<path d="M156.409 31.5439L154.547 29.3071C157.519 28.386 162.465 26.312 164.388 22.9315L168.499 15.1677L178.028 19.6378V23.8617L156.409 31.5439Z" fill="#423C52"/>
<path d="M183.06 14.9323L182.678 14.9884C182.313 15.0423 181.981 15.2179 181.741 15.4834C181.502 15.7489 181.37 16.0868 181.37 16.4361V18.2043C181.37 18.8282 181.108 19.4266 180.642 19.8678C180.176 20.309 179.544 20.5569 178.885 20.5569H174.949C173.495 20.5568 172.087 20.0709 170.974 19.1847C169.861 18.2984 169.114 17.0687 168.865 15.7123C168.84 15.5747 168.821 15.4372 168.807 15.2978H166.829C166.018 15.2978 165.24 14.9928 164.666 14.4497C164.093 13.9067 163.771 13.1702 163.771 12.4023C163.771 11.6343 164.093 10.8978 164.666 10.3548C165.24 9.81176 166.018 9.50669 166.829 9.50669H169.155C176.953 10.017 182.068 4.729 182.068 4.729C182.37 8.98006 182.911 11.3309 183.979 13.2257C184.071 13.392 184.119 13.5765 184.12 13.7639C184.121 13.9514 184.074 14.1363 183.984 14.3032C183.894 14.4702 183.763 14.6144 183.603 14.7238C183.442 14.8332 183.256 14.9047 183.06 14.9323Z" fill="#A0505A"/>
<path d="M168.236 12.8868C168.236 12.3553 168.013 11.8455 167.616 11.4695C167.219 11.0935 166.681 10.8821 166.12 10.8816" stroke="#423C52" stroke-width="4" stroke-miterlimit="10" stroke-linecap="round"/>
<path d="M180.911 8.74268C180.911 8.74268 178.644 8.74268 177.426 10.3244" stroke="#423C52" stroke-width="4" stroke-miterlimit="10" stroke-linecap="round"/>
<path d="M179.812 12.6335C180.074 12.6335 180.286 12.2478 180.286 11.7721C180.286 11.2963 180.074 10.9106 179.812 10.9106C179.55 10.9106 179.338 11.2963 179.338 11.7721C179.338 12.2478 179.55 12.6335 179.812 12.6335Z" fill="#423C52"/>
</svg>
