<svg width="332" height="232" viewBox="0 0 332 232" fill="none" xmlns="http://www.w3.org/2000/svg">
<path d="M20.5431 171.707C11.2661 163.19 12.4062 140.489 42.5053 131.732C80.3342 120.724 52.3439 102.397 36.9214 87.128C34.5948 84.8217 31.9507 82.2831 29.2913 79.4076C9.71224 58.2387 25.1718 24.4535 54.4045 24.5309L252.66 25.0498C293.429 25.1569 310.202 76.1457 277.084 99.3359C256.675 113.627 234.933 122.887 239.357 138.301C246.289 162.45 279.961 167.021 250.521 202.04C243.159 210.798 218.802 206.579 193.215 200.063L20.5431 171.707Z" fill="#C8D9D2"/>
<path d="M193.129 161.383C193.668 161.383 194.105 160.957 194.105 160.432C194.105 159.906 193.668 159.48 193.129 159.48C192.591 159.48 192.154 159.906 192.154 160.432C192.154 160.957 192.591 161.383 193.129 161.383Z" stroke="white" stroke-width="6" stroke-miterlimit="10"/>
<path d="M186.672 158.654C188.373 158.654 189.752 157.309 189.752 155.65C189.752 153.99 188.373 152.646 186.672 152.646C184.971 152.646 183.592 153.99 183.592 155.65C183.592 157.309 184.971 158.654 186.672 158.654Z" stroke="white" stroke-width="6" stroke-miterlimit="10"/>
<path d="M250.266 144.196C251.051 144.196 251.688 143.575 251.688 142.81C251.688 142.044 251.051 141.423 250.266 141.423C249.481 141.423 248.845 142.044 248.845 142.81C248.845 143.575 249.481 144.196 250.266 144.196Z" stroke="#C8D9D2" stroke-width="6" stroke-miterlimit="10"/>
<path d="M216.907 19.8131C217.954 19.8131 218.802 18.9855 218.802 17.9647C218.802 16.9438 217.954 16.1162 216.907 16.1162C215.861 16.1162 215.012 16.9438 215.012 17.9647C215.012 18.9855 215.861 19.8131 216.907 19.8131Z" stroke="#C8D9D2" stroke-width="6" stroke-miterlimit="10"/>
<path d="M247.897 138.648C250.514 138.648 252.635 136.579 252.635 134.027C252.635 131.475 250.514 129.406 247.897 129.406C245.281 129.406 243.16 131.475 243.16 134.027C243.16 136.579 245.281 138.648 247.897 138.648Z" fill="#C8D9D2"/>
<path d="M47.3452 121.36C51.0089 121.36 53.9788 118.463 53.9788 114.89C53.9788 111.316 51.0089 108.419 47.3452 108.419C43.6816 108.419 40.7116 111.316 40.7116 114.89C40.7116 118.463 43.6816 121.36 47.3452 121.36Z" fill="#C8D9D2"/>
<path d="M18.8819 118.95C19.7135 118.95 20.3876 118.292 20.3876 117.481C20.3876 116.67 19.7135 116.012 18.8819 116.012C18.0502 116.012 17.3761 116.67 17.3761 117.481C17.3761 118.292 18.0502 118.95 18.8819 118.95Z" stroke="#C8D9D2" stroke-width="6" stroke-miterlimit="10"/>
<path d="M31.9321 151.778C32.7638 151.778 33.4379 151.121 33.4379 150.31C33.4379 149.498 32.7638 148.841 31.9321 148.841C31.1005 148.841 30.4264 149.498 30.4264 150.31C30.4264 151.121 31.1005 151.778 31.9321 151.778Z" stroke="white" stroke-width="6" stroke-miterlimit="10"/>
<path d="M211.951 168.937C212.684 168.937 213.278 168.358 213.278 167.643C213.278 166.928 212.684 166.349 211.951 166.349C211.218 166.349 210.624 166.928 210.624 167.643C210.624 168.358 211.218 168.937 211.951 168.937Z" stroke="white" stroke-width="6" stroke-miterlimit="10"/>
<path d="M220.702 139.302C221.434 139.302 222.028 138.723 222.028 138.008C222.028 137.294 221.434 136.714 220.702 136.714C219.969 136.714 219.375 137.294 219.375 138.008C219.375 138.723 219.969 139.302 220.702 139.302Z" stroke="white" stroke-width="6" stroke-miterlimit="10"/>
<path d="M101.214 60.7866C101.753 60.7866 102.189 60.3607 102.189 59.8352C102.189 59.3098 101.753 58.8838 101.214 58.8838C100.675 58.8838 100.239 59.3098 100.239 59.8352C100.239 60.3607 100.675 60.7866 101.214 60.7866Z" stroke="white" stroke-width="6" stroke-miterlimit="10"/>
<path d="M104.955 56.5897C106.656 56.5897 108.035 55.2447 108.035 53.5856C108.035 51.9265 106.656 50.5815 104.955 50.5815C103.254 50.5815 101.875 51.9265 101.875 53.5856C101.875 55.2447 103.254 56.5897 104.955 56.5897Z" stroke="white" stroke-width="6" stroke-miterlimit="10"/>
<path d="M107.306 162.199C107.306 165.669 101.702 168.483 94.7889 168.483C87.8758 168.483 82.2708 165.669 82.2708 162.199C82.2708 160.378 83.812 158.739 86.2763 157.591C87.2052 157.157 87.2821 156.139 86.4316 155.614C84.996 154.729 84.1405 153.613 84.1405 152.397C84.1405 150.997 85.284 149.719 87.141 148.784C87.9796 148.362 88.1012 147.441 87.3758 146.909C86.4409 146.222 85.8962 145.399 85.8962 144.513C85.8962 143.311 86.9012 142.222 88.5235 141.436C89.3891 141.017 89.5116 140.087 88.7768 139.541C88.0421 138.996 87.6089 138.334 87.6089 137.627C87.6089 136.586 88.5378 135.65 90.02 135.01C90.9025 134.627 91.0942 133.708 90.4042 133.137C89.6914 132.547 89.2675 131.809 89.2675 131.009C89.2675 129.075 91.7394 127.507 94.7897 127.507C97.8401 127.507 100.31 129.072 100.31 131.009C100.31 131.809 99.888 132.547 99.1744 133.136C98.4845 133.708 98.677 134.626 99.5587 135.01C101.037 135.65 101.969 136.586 101.969 137.627C101.969 138.334 101.54 138.991 100.801 139.541C100.062 140.092 100.189 141.019 101.054 141.436C102.677 142.221 103.682 143.31 103.682 144.513C103.682 145.399 103.138 146.222 102.203 146.909C101.477 147.441 101.598 148.362 102.438 148.784C104.296 149.719 105.437 150.992 105.437 152.397C105.437 153.613 104.581 154.729 103.147 155.614C102.297 156.139 102.37 157.157 103.302 157.591C105.764 158.738 107.306 160.377 107.306 162.199Z" fill="#907B00"/>
<path d="M214.358 193.802C214.358 197.886 208.753 201.197 201.84 201.197C194.927 201.197 189.322 197.886 189.322 193.802C189.322 191.66 190.864 189.73 193.327 188.379C194.256 187.868 194.334 186.67 193.483 186.053C192.048 185.012 191.192 183.696 191.192 182.264C191.192 180.612 192.336 179.112 194.193 178.012C195.031 177.518 195.153 176.432 194.427 175.805C193.493 174.997 192.948 174.028 192.948 172.985C192.948 171.57 193.953 170.288 195.575 169.361C196.441 168.867 196.562 167.772 195.828 167.128C195.095 166.484 194.661 165.707 194.661 164.875C194.661 163.649 195.589 162.55 197.072 161.794C197.953 161.345 198.146 160.263 197.456 159.591C196.743 158.897 196.319 158.026 196.319 157.086C196.319 154.81 198.791 152.968 201.841 152.968C204.89 152.968 207.362 154.813 207.362 157.086C207.362 158.029 206.94 158.898 206.226 159.59C205.535 160.262 205.728 161.344 206.61 161.794C208.089 162.549 209.021 163.649 209.021 164.875C209.021 165.706 208.592 166.48 207.853 167.128C207.114 167.775 207.24 168.867 208.106 169.361C209.728 170.285 210.733 171.566 210.733 172.985C210.733 174.028 210.189 174.997 209.254 175.805C208.528 176.432 208.65 177.515 209.488 178.012C211.346 179.112 212.489 180.612 212.489 182.264C212.489 183.694 211.633 185.009 210.198 186.053C209.347 186.67 209.422 187.865 210.354 188.379C212.816 189.73 214.358 191.659 214.358 193.802Z" fill="#907B00"/>
<path d="M249.068 155.88C234.03 155.88 221.839 167.807 221.839 182.521C221.839 197.234 234.03 209.161 249.068 209.161C264.106 209.161 276.296 197.234 276.296 182.521C276.296 167.808 264.106 155.88 249.068 155.88ZM248.934 192.312C243.353 192.312 238.828 187.886 238.828 182.428C238.828 176.97 243.353 172.544 248.934 172.544C254.514 172.544 259.038 176.969 259.038 182.428C259.038 187.886 254.514 192.312 248.934 192.312Z" fill="#423C52"/>
<path d="M251.124 156.62C237.201 156.62 225.913 168.547 225.913 183.26C225.913 197.973 237.201 209.901 251.124 209.901C265.048 209.901 276.334 197.974 276.334 183.26C276.334 168.546 265.048 156.62 251.124 156.62ZM251 193.052C245.833 193.052 241.644 188.625 241.644 183.168C241.644 177.71 245.833 173.283 251 173.283C256.168 173.283 260.356 177.71 260.356 183.168C260.356 188.625 256.167 193.052 251 193.052Z" fill="white" stroke="#423C52" stroke-width="5" stroke-miterlimit="10" stroke-linecap="round"/>
<path d="M72.5006 191.373C88.4415 191.373 101.364 188.109 101.364 184.084C101.364 180.058 88.4415 176.794 72.5006 176.794C56.5596 176.794 43.637 180.058 43.637 184.084C43.637 188.109 56.5596 191.373 72.5006 191.373Z" fill="white" stroke="#423C52" stroke-width="5" stroke-miterlimit="10" stroke-linecap="round"/>
<path d="M72.6104 183.208C78.5939 183.208 83.4446 182.339 83.4446 181.267C83.4446 180.195 78.5939 179.327 72.6104 179.327C66.6268 179.327 61.7762 180.195 61.7762 181.267C61.7762 182.339 66.6268 183.208 72.6104 183.208Z" fill="#423C52"/>
<path d="M102.293 189.215C102.293 192.675 101.449 195.565 100.315 196.299C96.9373 199.377 85.7619 201.636 72.4997 201.636C59.2376 201.636 48.0588 199.376 44.6816 196.297C43.55 195.556 42.708 192.667 42.708 189.214C42.708 185.76 43.5525 182.871 44.6816 182.13C44.0001 182.751 43.6361 183.406 43.6361 184.081C43.6361 185.454 45.1385 186.738 47.7489 187.834C49.1284 188.396 50.5489 188.857 51.9984 189.213C57.2285 190.546 64.482 191.371 72.4997 191.371C80.5175 191.371 87.7718 190.547 93.0018 189.213C94.4521 188.857 95.8732 188.396 97.2531 187.833C99.8626 186.738 101.363 185.453 101.363 184.081C101.363 183.404 100.998 182.75 100.315 182.128C101.448 182.863 102.293 185.758 102.293 189.215Z" fill="#423C52"/>
<path d="M34.2204 180.729C48.2863 173.413 57.7297 163.899 55.3129 159.478C52.8961 155.058 39.5343 157.406 25.4685 164.722C11.4026 172.038 1.95919 181.552 4.37598 185.972C6.79277 190.392 20.1546 188.045 34.2204 180.729Z" fill="white" stroke="#423C52" stroke-width="5" stroke-miterlimit="10" stroke-linecap="round"/>
<path d="M29.4163 171.715C34.696 168.969 38.4544 165.789 37.8109 164.612C37.1674 163.435 32.3657 164.707 27.086 167.453C21.8063 170.2 18.0478 173.38 18.6913 174.557C19.3348 175.734 24.1365 174.462 29.4163 171.715Z" fill="#423C52"/>
<path d="M59.2165 164.683C61.2923 168.478 62.2829 172.043 61.7247 173.37C60.5905 178.3 52.0871 185.909 40.3856 191.995C28.6841 198.081 17.4623 200.732 12.6342 198.901C11.1927 198.61 8.71318 195.822 6.63822 192.031C4.56326 188.24 3.57603 184.68 4.12919 183.349C3.90201 184.345 3.9738 185.229 4.38254 185.971C5.20678 187.478 7.30285 188.195 10.2645 188.203C11.6208 188.203 13.1604 188.058 14.8418 187.767C20.2568 186.83 27.153 184.407 34.2275 180.727C41.3019 177.046 47.2076 172.812 51.0214 168.948C52.2037 167.748 53.1909 166.582 53.9442 165.482C55.5893 163.081 56.1399 160.982 55.3191 159.476C54.9129 158.734 54.1984 158.182 53.2221 157.812C54.6587 158.099 57.1415 160.887 59.2165 164.683Z" fill="#423C52"/>
<path d="M174.011 188.512C188.23 180.027 197.456 169.481 194.619 164.958C191.781 160.434 177.954 163.646 163.735 172.131C149.516 180.617 140.289 191.163 143.127 195.686C145.964 200.209 159.792 196.998 174.011 188.512Z" fill="#C8D9D2" stroke="#423C52" stroke-width="5" stroke-miterlimit="10" stroke-linecap="round"/>
<path d="M168.355 179.28C173.692 176.095 177.406 172.537 176.651 171.332C175.895 170.128 170.956 171.733 165.619 174.918C160.282 178.103 156.568 181.661 157.323 182.866C158.079 184.07 163.018 182.465 168.355 179.28Z" fill="#423C52"/>
<path d="M199.066 170.223C201.503 174.106 202.787 177.806 202.295 179.235C201.45 184.492 193.075 192.978 181.245 200.038C169.416 207.097 157.853 210.509 152.669 208.851C151.14 208.623 148.35 205.823 145.913 201.945C143.476 198.066 142.197 194.367 142.682 192.937C142.513 193.997 142.648 194.925 143.124 195.684C144.092 197.227 146.333 197.87 149.438 197.712C150.858 197.639 152.459 197.399 154.199 196.999C159.804 195.713 166.856 192.779 174.008 188.51C181.16 184.242 187.049 179.454 190.774 175.172C191.932 173.842 192.881 172.56 193.593 171.359C195.148 168.738 195.583 166.499 194.616 164.955C194.138 164.195 193.349 163.654 192.304 163.319C193.836 163.538 196.63 166.339 199.066 170.223Z" fill="#423C52"/>
<path d="M104.895 179.364C108.159 175.795 101.597 164.892 90.2394 155.012C78.8816 145.132 67.0285 140.015 63.7648 143.584C60.501 147.154 67.0624 158.056 78.4202 167.937C89.7779 177.817 101.631 182.933 104.895 179.364Z" fill="#C8D9D2" stroke="#423C52" stroke-width="5" stroke-miterlimit="10" stroke-linecap="round"/>
<path d="M94.4111 165.762C95.2801 164.811 92.5284 161.035 88.2652 157.326C84.002 153.617 79.8415 151.381 78.9726 152.331C78.1036 153.281 80.8552 157.058 85.1184 160.767C89.3817 164.476 93.5422 166.712 94.4111 165.762Z" fill="#423C52"/>
<path d="M101.492 184.567C98.6796 187.645 95.7212 189.696 94.3135 189.645C89.3917 190.28 79.5591 185.333 70.0702 177.073C60.5813 168.813 54.4214 159.837 54.5101 154.991C54.3015 153.629 56.0505 150.529 58.8593 147.454C61.6681 144.379 64.6231 142.329 66.0376 142.376C65.0445 142.505 64.2523 142.861 63.7026 143.463C62.5853 144.686 62.6157 146.764 63.5919 149.367C64.0395 150.559 64.6847 151.861 65.5107 153.238C68.1675 157.686 72.689 162.936 78.4232 167.93C84.1574 172.924 90.0158 176.71 94.8438 178.78C96.3428 179.424 97.743 179.902 99.0081 180.199C101.766 180.848 103.885 180.64 105.004 179.418C105.555 178.816 105.826 178.006 105.844 177.03C106.053 178.386 104.304 181.488 101.492 184.567Z" fill="#423C52"/>
<path d="M245.879 195.157C246.729 190.706 234.133 184.685 217.745 181.708C201.358 178.731 187.384 179.926 186.534 184.377C185.684 188.827 198.28 194.849 214.668 197.826C231.055 200.802 245.029 199.608 245.879 195.157Z" fill="white" stroke="#423C52" stroke-width="5" stroke-miterlimit="10" stroke-linecap="round"/>
<path d="M228.052 188.697C228.278 187.512 223.475 185.645 217.324 184.528C211.173 183.41 206.003 183.465 205.777 184.651C205.551 185.836 210.354 187.702 216.505 188.82C222.656 189.937 227.826 189.882 228.052 188.697Z" fill="#423C52"/>
<path d="M245.875 200.993C245.143 204.814 243.656 207.855 242.328 208.455C238.19 211.227 226.172 211.638 212.48 209.162C198.788 206.686 187.726 202.1 184.892 198.066C183.879 197.038 183.625 193.686 184.356 189.868C185.086 186.05 186.57 183.012 187.894 182.407C187.059 182.966 186.543 183.622 186.402 184.369C186.111 185.886 187.389 187.581 189.853 189.285C190.981 190.063 192.358 190.842 193.947 191.602C199.064 194.053 206.378 196.32 214.656 197.816C222.934 199.313 230.597 199.755 236.275 199.258C238.041 199.105 239.615 198.859 240.957 198.526C243.883 197.802 245.705 196.663 245.996 195.149C246.139 194.401 245.902 193.61 245.328 192.795C246.348 193.818 246.608 197.171 245.875 200.993Z" fill="#423C52"/>
<path d="M150.105 115.706C148.313 117.362 115.515 161.612 100.647 171.043C85.7797 180.475 131.083 166.898 131.083 166.898C131.083 166.898 162.836 138.706 166.8 124.17C170.764 109.635 150.105 115.706 150.105 115.706Z" fill="#907B00" stroke="white" stroke-width="5" stroke-miterlimit="10"/>
<path d="M119.281 164.413C101.012 164.413 86.2019 178.857 86.2019 196.676C86.2019 214.495 101.012 228.94 119.281 228.94C137.551 228.94 152.36 214.495 152.36 196.676C152.36 178.857 137.551 164.413 119.281 164.413ZM119.118 208.534C116.69 208.533 114.317 207.83 112.299 206.514C110.28 205.198 108.707 203.328 107.778 201.14C106.85 198.952 106.607 196.544 107.081 194.222C107.556 191.899 108.725 189.766 110.443 188.092C112.16 186.418 114.348 185.278 116.729 184.817C119.11 184.355 121.579 184.593 123.821 185.5C126.064 186.407 127.981 187.942 129.33 189.911C130.678 191.88 131.397 194.196 131.397 196.564C131.396 198.136 131.079 199.693 130.462 201.146C129.845 202.599 128.94 203.919 127.8 205.031C126.66 206.142 125.306 207.024 123.817 207.626C122.327 208.227 120.731 208.537 119.118 208.537V208.534Z" fill="#423C52" stroke="white" stroke-width="5" stroke-miterlimit="10"/>
<path d="M307.646 39.5233C299.301 38.7944 290.899 36.3793 288.04 41.4178C284.141 48.2866 292.612 79.0877 246.215 102.618C217.91 116.974 205.306 121.982 197.425 126.561C183.277 134.78 169.293 154.179 163.028 160.103C157.763 165.079 142.179 180.683 126.038 187.042C121.964 180.732 116.749 178.429 115.886 178.08C125.201 171.993 139.304 161.58 145.86 150.665C152.172 140.155 153.103 128.646 163.957 124.169L150.107 115.705C150.107 115.705 206.932 67.2619 215.752 50.6333C224.02 35.0441 223.015 19.2993 225.047 13.624C224.837 16.8414 230.351 21.3074 255.419 17.3092C251.787 18.4887 250.292 19.889 248.869 22.3716C243.432 31.8605 251.215 65.3007 226.669 77.4971C226.846 77.4296 249.549 68.7067 259.116 54.928C264.724 46.8501 268.237 36.8628 271.125 32.2716L271.23 32.1068C288.073 25.0387 296.059 38.0819 307.646 39.5233Z" fill="#B59B00"/>
<path d="M284.382 30.3257C280.958 40.5172 276.296 74.1756 247.162 89.5868C222.164 102.809 208.506 108.071 200.361 112.424" stroke="white" stroke-width="5" stroke-miterlimit="10" stroke-linecap="round"/>
<path d="M282.337 29.7988C278.674 41.3857 273.086 73.7361 245.551 87.8311C221.623 100.08 208.249 105.719 199.999 110.005" stroke="white" stroke-width="5" stroke-miterlimit="10" stroke-linecap="round"/>
<path d="M307.657 39.525H307.645C299.3 38.7961 290.899 36.381 288.04 41.4195C284.141 48.2883 292.613 79.0836 246.214 102.62C218.816 116.519 205.306 121.984 197.425 126.563C183.277 134.782 169.293 154.18 163.028 160.104C157.792 165.051 142.066 180.475 125.67 186.927" stroke="white" stroke-width="5" stroke-miterlimit="10"/>
<path d="M256.046 17.2061C251.949 18.2966 250.482 19.5239 248.868 22.3698C243.477 31.8842 251.214 65.8506 226.667 77.4951C226.844 77.4276 249.548 68.7047 259.113 54.926C264.723 46.8481 268.234 36.8609 271.123 32.2697" stroke="white" stroke-width="5" stroke-miterlimit="10"/>
<path d="M150.105 115.706C150.105 115.706 206.708 67.1498 215.75 50.6348C225.347 33.1026 222.05 14.063 226.262 12.1348" stroke="white" stroke-width="5" stroke-miterlimit="10"/>
<path d="M115.773 178.453C125.043 172.225 139.258 161.155 145.861 150.666C151.636 141.49 152.861 131.331 160.564 126.005" stroke="white" stroke-width="5" stroke-miterlimit="10"/>
<path d="M226.666 77.4961C226.666 77.4961 222.013 79.0867 214.505 80.6772" stroke="white" stroke-width="5" stroke-miterlimit="10" stroke-linecap="round"/>
<path d="M306.276 25.2917C315.447 25.292 324.395 22.5437 331.911 17.4189L331.988 17.3662C331.911 17.4189 330.242 35.927 316.464 39.2053C313.723 39.8577 310.69 39.7819 307.656 39.5216H307.645C295.97 38.0694 287.951 24.8362 270.838 32.2666C273.519 28.0032 275.947 25.5231 278.733 25.3477L306.276 25.2917Z" fill="#423C52"/>
<path d="M292.851 10.4972C294.338 11.0161 294.091 13.133 292.523 13.3158C283.213 14.3825 266.09 16.1164 256.045 17.2061C220.737 22.9621 223.456 12.1973 227.021 11.0227L257.429 1.37895C260.579 0.379676 263.981 0.427764 267.1 1.51569L292.851 10.4972Z" fill="#423C52"/>
<path d="M126.786 125.281C127.519 125.281 128.113 124.701 128.113 123.986C128.113 123.271 127.519 122.691 126.786 122.691C126.052 122.691 125.458 123.271 125.458 123.986C125.458 124.701 126.052 125.281 126.786 125.281Z" stroke="white" stroke-width="6" stroke-miterlimit="10"/>
<path d="M137.641 126.54C138.164 126.54 138.589 126.126 138.589 125.616C138.589 125.106 138.164 124.692 137.641 124.692C137.118 124.692 136.693 125.106 136.693 125.616C136.693 126.126 137.118 126.54 137.641 126.54Z" stroke="white" stroke-width="6" stroke-miterlimit="10"/>
<path d="M123.88 120.751C125.188 120.751 126.249 119.717 126.249 118.441C126.249 117.165 125.188 116.13 123.88 116.13C122.571 116.13 121.511 117.165 121.511 118.441C121.511 119.717 122.571 120.751 123.88 120.751Z" stroke="white" stroke-width="6" stroke-miterlimit="10"/>
<path d="M121.511 110.744C124.285 110.744 126.533 108.551 126.533 105.846C126.533 103.14 124.285 100.947 121.511 100.947C118.737 100.947 116.489 103.14 116.489 105.846C116.489 108.551 118.737 110.744 121.511 110.744Z" stroke="white" stroke-width="6" stroke-miterlimit="10"/>
<path d="M126.039 187.044C120.634 189.172 115.085 190.174 109.921 189.485C109.877 189.479 109.836 189.462 109.802 189.434C109.769 189.407 109.743 189.371 109.729 189.331C109.715 189.29 109.713 189.246 109.723 189.205C109.733 189.163 109.755 189.125 109.786 189.095C110.8 188.119 113.789 185.382 113.273 184.254C112.648 182.884 110.155 185.92 106.907 183.569C106.907 183.569 110.635 181.51 115.886 178.081C116.752 178.43 121.965 180.733 126.039 187.044Z" fill="#A0505A"/>
<path d="M183.32 79.8912L152.604 106.687C149.674 109.243 149.423 113.632 152.044 116.49L153.202 117.753C155.822 120.61 160.322 120.855 163.252 118.299L193.968 91.5028C196.898 88.9468 197.149 84.5581 194.529 81.7004L193.37 80.4375C190.75 77.5798 186.25 77.3352 183.32 79.8912Z" fill="#423C52"/>
<path d="M183.321 79.799L152.604 106.595C149.674 109.151 149.423 113.54 152.044 116.397L153.202 117.66C155.823 120.518 160.322 120.763 163.252 118.207L193.969 91.4106C196.899 88.8546 197.149 84.4659 194.529 81.6082L193.371 80.3453C190.75 77.4876 186.251 77.243 183.321 79.799Z" stroke="white" stroke-width="5" stroke-miterlimit="10"/>
<path d="M194.101 88.3334C196.099 86.5908 196.021 83.3279 193.928 81.0455C191.835 78.7632 188.519 78.3257 186.522 80.0683C184.524 81.811 184.602 85.0738 186.695 87.3562C188.788 89.6385 192.104 90.076 194.101 88.3334Z" stroke="white" stroke-width="5" stroke-miterlimit="10"/>
<path d="M193.232 92.0668L189.811 95.0576C187.193 95.2825 184.278 94.1516 182.142 91.8255C179.712 89.1799 178.969 85.7303 179.975 83.0327L182.835 80.5337C180.825 83.0187 181.209 87.0292 183.886 89.9426C186.521 92.8098 190.482 93.6417 193.232 92.0668Z" fill="#FFDB00"/>
<path d="M191.639 89.8729L157.171 111.905C153.883 114.007 152.965 118.31 155.119 121.517L156.072 122.934C158.226 126.14 162.638 127.036 165.926 124.935L200.394 102.902C203.681 100.801 204.6 96.4976 202.445 93.2909L201.493 91.8738C199.338 88.6672 194.926 87.7713 191.639 89.8729Z" fill="#423C52"/>
<path d="M191.639 89.8729L157.171 111.905C153.883 114.007 152.965 118.31 155.119 121.517L156.072 122.934C158.226 126.14 162.638 127.036 165.926 124.935L200.394 102.902C203.681 100.801 204.6 96.4976 202.445 93.2909L201.493 91.8738C199.338 88.6672 194.926 87.7713 191.639 89.8729Z" stroke="white" stroke-width="5" stroke-miterlimit="10"/>
<path d="M201.074 100.157C203.386 98.6786 203.779 95.2758 201.952 92.5562C200.124 89.8365 196.768 88.8299 194.456 90.3078C192.144 91.7858 191.751 95.1886 193.579 97.9082C195.406 100.628 198.762 101.635 201.074 100.157Z" stroke="white" stroke-width="5" stroke-miterlimit="10"/>
<path d="M196.935 104.823L193.452 107.055C190.929 106.821 188.351 105.307 186.664 102.795C184.687 99.8522 184.486 96.3647 185.88 93.8698L189.062 91.8369C186.715 93.9785 186.481 97.9627 188.659 101.204C190.67 104.2 194.096 105.601 196.935 104.823Z" fill="#FFDB00"/>
<path d="M199.295 125.79C198.094 126.408 196.973 127.137 196.002 127.767C192.961 129.735 190.082 132.004 187.121 134.615C197.706 119.534 193.855 107.392 193.855 107.392L198.246 104.585C202.732 114.148 199.295 125.79 199.295 125.79Z" fill="#423C52"/>
<path d="M154.406 121.58L153.619 121.802L153.689 121.901L153.915 123.57C154.022 124.368 153.867 125.178 153.471 125.883C153.075 126.589 152.459 127.153 151.713 127.495L148.004 129.19C147 129.649 145.993 129.116 145.337 128.245C143.064 125.229 141.587 119.916 143.063 117.361L146.572 116.847C147.378 116.728 148.202 116.798 148.976 117.049C149.75 117.3 150.452 117.726 151.026 118.291L153.246 117.665C153.688 117.54 154.163 117.591 154.566 117.808C154.969 118.024 155.268 118.387 155.397 118.818L155.592 119.477C155.656 119.691 155.676 119.916 155.651 120.137C155.626 120.359 155.557 120.574 155.447 120.769C155.336 120.964 155.188 121.137 155.009 121.276C154.831 121.415 154.626 121.519 154.406 121.58Z" fill="#A0505A"/>
<path d="M143.063 117.361C142.179 119.239 139.989 120.894 137.642 120.894C134.48 120.894 131.917 118.515 131.917 115.58C131.917 112.645 134.48 110.265 137.642 110.265H137.769C138.956 110.23 140.124 110.561 141.107 111.211C144.665 113.6 146.89 112.104 150.312 112.25C152.741 112.352 153.534 116.326 153.727 117.596C153.563 117.597 153.399 117.619 153.241 117.664L151.021 118.29C150.448 117.724 149.746 117.298 148.972 117.047C148.198 116.796 147.374 116.727 146.567 116.845L143.063 117.361Z" fill="#EB7500"/>
<path d="M131.566 111.19C132.705 111.19 133.627 110.334 133.627 109.277C133.627 108.221 132.705 107.365 131.566 107.365C130.428 107.365 129.506 108.221 129.506 109.277C129.506 110.334 130.428 111.19 131.566 111.19Z" fill="#EB7500"/>
<path d="M149.946 118.945L141.084 121.087C140.977 121.113 140.876 121.159 140.788 121.224C140.7 121.288 140.625 121.369 140.569 121.461C140.513 121.554 140.477 121.657 140.462 121.763C140.447 121.87 140.454 121.978 140.483 122.082L140.745 123.035C140.952 123.786 141.454 124.428 142.143 124.821C142.831 125.214 143.65 125.327 144.423 125.135L148.215 124.195C148.605 124.098 148.972 123.927 149.294 123.691C149.616 123.455 149.886 123.158 150.089 122.819C150.292 122.48 150.424 122.105 150.477 121.716C150.53 121.326 150.504 120.931 150.398 120.552L149.946 118.945Z" stroke="#423C52" stroke-width="5" stroke-miterlimit="10" stroke-linecap="round"/>
<path d="M152.88 120.289C152.799 120.014 152.832 119.719 152.974 119.468C153.116 119.217 153.354 119.032 153.636 118.952" stroke="#423C52" stroke-width="5" stroke-miterlimit="10" stroke-linecap="round"/>
<path d="M142.676 120.748C142.676 120.748 145.108 120.748 145.668 124.783" stroke="#423C52" stroke-width="5" stroke-miterlimit="10" stroke-linecap="round"/>
<path d="M143.854 123.349C144.034 123.293 144.093 122.982 143.986 122.655C143.878 122.328 143.646 122.108 143.466 122.164C143.286 122.221 143.227 122.531 143.334 122.858C143.441 123.186 143.674 123.405 143.854 123.349Z" fill="#423C52"/>
<path d="M147.568 122.669C147.81 122.601 147.914 122.236 147.8 121.852C147.687 121.469 147.399 121.213 147.157 121.282C146.916 121.35 146.812 121.715 146.925 122.099C147.039 122.482 147.327 122.738 147.568 122.669Z" fill="#423C52"/>
<path d="M146.459 126.739C146.7 126.671 146.822 126.367 146.731 126.06C146.64 125.754 146.371 125.56 146.129 125.628C145.888 125.696 145.766 126 145.857 126.307C145.948 126.614 146.217 126.807 146.459 126.739Z" stroke="#423C52" stroke-width="5" stroke-miterlimit="10"/>
<path d="M146.26 126.124C144.703 126.667 143.868 128.036 144.366 129.574C145.568 133.281 148.859 142.414 154.718 140.524C162.6 137.981 157.019 129.67 155.332 125.49C154.931 124.496 155.452 123.468 156.484 123.111" stroke="white" stroke-width="5" stroke-miterlimit="10" stroke-linecap="round"/>
<path d="M82.0113 60.2217C82.3709 60.2217 82.6625 59.9374 82.6625 59.5867C82.6625 59.236 82.3709 58.9517 82.0113 58.9517C81.6517 58.9517 81.3602 59.236 81.3602 59.5867C81.3602 59.9374 81.6517 60.2217 82.0113 60.2217Z" fill="#EB7500"/>
<path d="M82.0113 63.5553C82.3709 63.5553 82.6625 63.271 82.6625 62.9202C82.6625 62.5695 82.3709 62.2852 82.0113 62.2852C81.6517 62.2852 81.3602 62.5695 81.3602 62.9202C81.3602 63.271 81.6517 63.5553 82.0113 63.5553Z" fill="#EB7500"/>
<path d="M82.0113 66.8884C82.3709 66.8884 82.6625 66.6041 82.6625 66.2533C82.6625 65.9025 82.3709 65.6182 82.0113 65.6182C81.6517 65.6182 81.3602 65.9025 81.3602 66.2533C81.3602 66.6041 81.6517 66.8884 82.0113 66.8884Z" fill="#EB7500"/>
<path d="M78.6951 59.1544C79.0547 59.1544 79.3462 58.8701 79.3462 58.5193C79.3462 58.1686 79.0547 57.8843 78.6951 57.8843C78.3355 57.8843 78.0439 58.1686 78.0439 58.5193C78.0439 58.8701 78.3355 59.1544 78.6951 59.1544Z" fill="#EB7500"/>
<path d="M78.6951 61.8884C79.0547 61.8884 79.3462 61.6041 79.3462 61.2533C79.3462 60.9025 79.0547 60.6182 78.6951 60.6182C78.3355 60.6182 78.0439 60.9025 78.0439 61.2533C78.0439 61.6041 78.3355 61.8884 78.6951 61.8884Z" fill="#EB7500"/>
<path d="M78.6951 65.2214C79.0547 65.2214 79.3462 64.9371 79.3462 64.5863C79.3462 64.2355 79.0547 63.9512 78.6951 63.9512C78.3355 63.9512 78.0439 64.2355 78.0439 64.5863C78.0439 64.9371 78.3355 65.2214 78.6951 65.2214Z" fill="#EB7500"/>
<path d="M78.6951 68.4552C79.0547 68.4552 79.3462 68.1709 79.3462 67.8201C79.3462 67.4694 79.0547 67.1851 78.6951 67.1851C78.3355 67.1851 78.0439 67.4694 78.0439 67.8201C78.0439 68.1709 78.3355 68.4552 78.6951 68.4552Z" fill="#EB7500"/>
<path d="M85.3269 61.8884C85.6865 61.8884 85.978 61.6041 85.978 61.2533C85.978 60.9025 85.6865 60.6182 85.3269 60.6182C84.9673 60.6182 84.6758 60.9025 84.6758 61.2533C84.6758 61.6041 84.9673 61.8884 85.3269 61.8884Z" fill="#EB7500"/>
<path d="M85.3269 65.2214C85.6865 65.2214 85.978 64.9371 85.978 64.5863C85.978 64.2355 85.6865 63.9512 85.3269 63.9512C84.9673 63.9512 84.6758 64.2355 84.6758 64.5863C84.6758 64.9371 84.9673 65.2214 85.3269 65.2214Z" fill="#EB7500"/>
<path d="M75.3787 60.2217C75.7383 60.2217 76.0298 59.9374 76.0298 59.5867C76.0298 59.236 75.7383 58.9517 75.3787 58.9517C75.0191 58.9517 74.7275 59.236 74.7275 59.5867C74.7275 59.9374 75.0191 60.2217 75.3787 60.2217Z" fill="#EB7500"/>
<path d="M75.3787 63.5553C75.7383 63.5553 76.0298 63.271 76.0298 62.9202C76.0298 62.5695 75.7383 62.2852 75.3787 62.2852C75.0191 62.2852 74.7275 62.5695 74.7275 62.9202C74.7275 63.271 75.0191 63.5553 75.3787 63.5553Z" fill="#EB7500"/>
<path d="M75.3787 66.8884C75.7383 66.8884 76.0298 66.6041 76.0298 66.2533C76.0298 65.9025 75.7383 65.6182 75.3787 65.6182C75.0191 65.6182 74.7275 65.9025 74.7275 66.2533C74.7275 66.6041 75.0191 66.8884 75.3787 66.8884Z" fill="#EB7500"/>
<path d="M72.0622 59.2537C72.4218 59.2537 72.7134 58.9693 72.7134 58.6185C72.7134 58.2678 72.4218 57.9834 72.0622 57.9834C71.7026 57.9834 71.4111 58.2678 71.4111 58.6185C71.4111 58.9693 71.7026 59.2537 72.0622 59.2537Z" fill="#EB7500"/>
<path d="M72.0622 61.8884C72.4218 61.8884 72.7134 61.6041 72.7134 61.2533C72.7134 60.9025 72.4218 60.6182 72.0622 60.6182C71.7026 60.6182 71.4111 60.9025 71.4111 61.2533C71.4111 61.6041 71.7026 61.8884 72.0622 61.8884Z" fill="#EB7500"/>
<path d="M72.0622 65.2214C72.4218 65.2214 72.7134 64.9371 72.7134 64.5863C72.7134 64.2355 72.4218 63.9512 72.0622 63.9512C71.7026 63.9512 71.4111 64.2355 71.4111 64.5863C71.4111 64.9371 71.7026 65.2214 72.0622 65.2214Z" fill="#EB7500"/>
<path d="M72.0622 68.3557C72.4218 68.3557 72.7134 68.0714 72.7134 67.7206C72.7134 67.3698 72.4218 67.0854 72.0622 67.0854C71.7026 67.0854 71.4111 67.3698 71.4111 67.7206C71.4111 68.0714 71.7026 68.3557 72.0622 68.3557Z" fill="#EB7500"/>
<path d="M68.7468 60.2217C69.1064 60.2217 69.3979 59.9374 69.3979 59.5867C69.3979 59.236 69.1064 58.9517 68.7468 58.9517C68.3872 58.9517 68.0956 59.236 68.0956 59.5867C68.0956 59.9374 68.3872 60.2217 68.7468 60.2217Z" fill="#EB7500"/>
<path d="M68.7468 63.5553C69.1064 63.5553 69.3979 63.271 69.3979 62.9202C69.3979 62.5695 69.1064 62.2852 68.7468 62.2852C68.3872 62.2852 68.0956 62.5695 68.0956 62.9202C68.0956 63.271 68.3872 63.5553 68.7468 63.5553Z" fill="#EB7500"/>
<path d="M68.7468 66.8884C69.1064 66.8884 69.3979 66.6041 69.3979 66.2533C69.3979 65.9025 69.1064 65.6182 68.7468 65.6182C68.3872 65.6182 68.0956 65.9025 68.0956 66.2533C68.0956 66.6041 68.3872 66.8884 68.7468 66.8884Z" fill="#EB7500"/>
<path d="M65.4303 61.8884C65.7899 61.8884 66.0814 61.6041 66.0814 61.2533C66.0814 60.9025 65.7899 60.6182 65.4303 60.6182C65.0707 60.6182 64.7792 60.9025 64.7792 61.2533C64.7792 61.6041 65.0707 61.8884 65.4303 61.8884Z" fill="#EB7500"/>
<path d="M65.4303 65.2214C65.7899 65.2214 66.0814 64.9371 66.0814 64.5863C66.0814 64.2355 65.7899 63.9512 65.4303 63.9512C65.0707 63.9512 64.7792 64.2355 64.7792 64.5863C64.7792 64.9371 65.0707 65.2214 65.4303 65.2214Z" fill="#EB7500"/>
<path d="M62.114 63.5553C62.4736 63.5553 62.7651 63.271 62.7651 62.9202C62.7651 62.5695 62.4736 62.2852 62.114 62.2852C61.7544 62.2852 61.4629 62.5695 61.4629 62.9202C61.4629 63.271 61.7544 63.5553 62.114 63.5553Z" fill="#EB7500"/>
<path d="M95.2651 63.1961C93.6006 64.388 91.6109 65.4159 89.3763 66.233C85.7163 67.5715 81.4017 68.345 76.778 68.345C70.6975 68.345 65.1483 67.0081 60.9257 64.8031C59.9773 64.3089 59.3668 63.7694 58.5611 63.1928C59.3997 62.5849 60.0483 62.0215 61.0397 61.505C65.2479 59.3091 70.7516 57.9805 76.778 57.9805C81.4447 57.9805 85.7999 58.7778 89.4828 60.1575C91.6734 60.982 93.6259 62.0091 95.2651 63.1961Z" stroke="#EB7500" stroke-width="6" stroke-linejoin="round"/>
<path d="M54.3429 67.2753C54.8052 67.3663 55.2757 67.4119 55.7473 67.4112C58.0613 67.4112 60.0501 66.3404 60.9258 64.8067C60.0098 64.3305 59.1291 63.7924 58.2901 63.1963C56.6222 64.4047 55.2803 65.7811 54.3429 67.2753Z" fill="#EB7500"/>
<path d="M95.2653 63.196C93.6007 64.3878 91.6111 65.4158 89.3765 66.2329C88.9639 65.8332 88.6383 65.3562 88.4194 64.8306C88.2006 64.3051 88.0929 63.7418 88.1028 63.1747C88.1127 62.6075 88.2401 62.0481 88.4773 61.5302C88.7144 61.0122 89.0565 60.5464 89.4829 60.1606C91.6736 60.9819 93.6261 62.009 95.2653 63.196Z" fill="#EB7500"/>
<path d="M58.29 63.1963C59.1625 62.5681 60.0816 62.004 61.0397 61.5086C60.2307 59.8612 58.1684 58.69 55.7472 58.69C55.2127 58.689 54.6797 58.7473 54.1587 58.8638C55.0995 60.4567 56.5098 61.9204 58.29 63.1963Z" fill="#EB7500"/>
<path d="M75.1472 58.0168L81.0225 58.2079C80.2743 57.4592 74.7275 55.6654 71.9381 56.0336L75.1472 58.0168Z" fill="#EB7500"/>
<path d="M75.9224 68.197L81.7977 68.0059C81.0503 68.7538 75.5027 70.5477 72.7133 70.1795L75.9224 68.197Z" fill="#EB7500"/>
<path d="M90.953 63.7922C91.3644 63.7922 91.6979 63.467 91.6979 63.0658C91.6979 62.6646 91.3644 62.3394 90.953 62.3394C90.5416 62.3394 90.2081 62.6646 90.2081 63.0658C90.2081 63.467 90.5416 63.7922 90.953 63.7922Z" fill="#C8D9D2"/>
<path d="M99.9808 77.6288C99.9838 77.9198 100.051 78.2068 100.177 78.4706C100.303 78.7344 100.485 78.9689 100.711 79.1584C98.6144 79.8437 96.1416 80.2399 93.495 80.2399C90.0122 80.2399 86.8335 79.5554 84.4148 78.4278C83.8718 78.1741 83.5222 77.8982 83.0636 77.6041C83.5441 77.2928 83.9157 77.0045 84.4832 76.7401C86.8934 75.6149 90.0468 74.9346 93.4983 74.9346C96.1712 74.9346 98.6659 75.3464 100.775 76.0498C100.531 76.2391 100.333 76.479 100.196 76.7521C100.058 77.0252 99.985 77.3246 99.9808 77.6288Z" fill="#EB7500"/>
<path d="M84.4774 76.7627L84.4065 78.4102C83.8618 79.2635 82.6254 79.8583 81.1864 79.8583C80.8935 79.859 80.6012 79.8336 80.3131 79.7825C80.3131 79.7825 80.319 79.7742 80.3224 79.7709C80.8849 79.6988 81.4007 79.4283 81.7726 79.0104C82.1444 78.5925 82.3464 78.0563 82.3405 77.503C82.3346 76.9497 82.1211 76.4177 81.7404 76.0075C81.3597 75.5973 80.8381 75.3374 80.2743 75.2767C80.575 75.2213 80.8804 75.1937 81.1864 75.1943C82.6913 75.196 83.9749 75.8467 84.4774 76.7627Z" fill="#EB7500"/>
<path d="M101.536 77.8746C101.743 77.8746 101.911 77.7109 101.911 77.5089C101.911 77.3068 101.743 77.1431 101.536 77.1431C101.329 77.1431 101.161 77.3068 101.161 77.5089C101.161 77.7109 101.329 77.8746 101.536 77.8746Z" fill="#EB7500"/>
<path d="M99.2469 75.5791C98.9452 75.8289 98.7028 76.1396 98.5366 76.4899C98.3704 76.8401 98.2843 77.2215 98.2843 77.6074C98.2843 77.9934 98.3704 78.3747 98.5366 78.7249C98.7028 79.0752 98.9452 79.386 99.2469 79.6357" stroke="#C8D9D2" stroke-width="4" stroke-miterlimit="10" stroke-linecap="round"/>
<path d="M97.7185 75.3833C97.0378 75.9772 96.662 76.7672 96.662 77.6074C96.662 78.4476 97.0378 79.2367 97.7185 79.8314" stroke="#C8D9D2" stroke-width="4" stroke-miterlimit="10" stroke-linecap="round"/>
<path d="M96.265 75.1875C95.5243 75.8333 95.1156 76.6932 95.1156 77.6083C95.1156 78.5234 95.5243 79.3808 96.265 80.0291" stroke="#C8D9D2" stroke-width="4" stroke-miterlimit="10" stroke-linecap="round"/>
<path d="M94.7871 75.0884C94.0161 75.7613 93.5913 76.6534 93.5913 77.6081C93.5913 78.5627 94.0136 79.4523 94.7871 80.127" stroke="#C8D9D2" stroke-width="4" stroke-miterlimit="10" stroke-linecap="round"/>
<path d="M93.2197 75.0566C92.4385 75.7378 92.0078 76.643 92.0078 77.61C92.0078 78.577 92.4385 79.479 93.2197 80.1635" stroke="#C8D9D2" stroke-width="4" stroke-miterlimit="10" stroke-linecap="round"/>
<path d="M91.7342 74.9907C90.9336 75.6892 90.4919 76.6183 90.4919 77.6084C90.4919 78.5984 90.9336 79.5251 91.7342 80.2252" stroke="#C8D9D2" stroke-width="4" stroke-miterlimit="10" stroke-linecap="round"/>
<path d="M90.1002 75.2529C89.379 75.8814 88.9821 76.7182 88.9821 77.6086C88.9821 78.4989 89.379 79.3333 90.1002 79.9634" stroke="#C8D9D2" stroke-width="4" stroke-miterlimit="10" stroke-linecap="round"/>
<path d="M88.6551 75.3833C87.9939 75.9599 87.629 76.7259 87.629 77.5422C87.629 78.3585 87.9939 79.1238 88.6551 79.702" stroke="#C8D9D2" stroke-width="4" stroke-miterlimit="10" stroke-linecap="round"/>
<path d="M87.2288 75.7754C86.9562 76.0009 86.7371 76.2817 86.5869 76.598C86.4367 76.9144 86.3589 77.2589 86.3589 77.6076C86.3589 77.9563 86.4367 78.3008 86.5869 78.6172C86.7371 78.9336 86.9562 79.2143 87.2288 79.4398" stroke="#C8D9D2" stroke-width="4" stroke-miterlimit="10" stroke-linecap="round"/>
<path d="M85.8362 76.1357C85.617 76.3169 85.4409 76.5424 85.3201 76.7967C85.1993 77.051 85.1367 77.3278 85.1367 77.608C85.1367 77.8883 85.1993 78.1651 85.3201 78.4194C85.4409 78.6736 85.617 78.8992 85.8362 79.0803" stroke="#C8D9D2" stroke-width="4" stroke-miterlimit="10" stroke-linecap="round"/>
<path d="M103.443 77.2182C103.512 77.257 103.569 77.3129 103.609 77.3801C103.649 77.4473 103.67 77.5236 103.67 77.6012C103.67 77.6788 103.649 77.7551 103.609 77.8223C103.569 77.8895 103.512 77.9454 103.443 77.9842C102.573 78.4613 101.657 78.8552 100.709 79.1604C98.6118 79.8465 96.1391 80.2427 93.4924 80.2427C90.0096 80.2427 86.8309 79.5574 84.4122 78.4306C83.8692 78.1769 83.5196 77.901 83.061 77.607C83.5416 77.2956 83.9131 77.0074 84.4807 76.7421C86.8909 75.6178 90.0443 74.9375 93.4958 74.9375C96.1686 74.9375 98.6633 75.3493 100.773 76.0519C101.699 76.3569 102.593 76.7474 103.443 77.2182V77.2182Z" stroke="#EB7500" stroke-width="6" stroke-linejoin="round"/>
<path d="M223.66 147.677C223.462 147.716 223.261 147.736 223.059 147.735C222.068 147.735 221.217 147.277 220.841 146.62C221.233 146.416 221.61 146.186 221.969 145.931C222.642 146.402 223.216 146.995 223.66 147.677Z" fill="#423C52"/>
<path d="M221.969 145.931C221.596 145.662 221.203 145.42 220.793 145.208C221.139 144.502 222.022 144.001 223.059 144.001C223.287 144.001 223.516 144.026 223.738 144.076C223.336 144.758 222.732 145.385 221.969 145.931Z" fill="#423C52"/>
<path d="M206.896 145.537C206.827 145.579 206.771 145.636 206.731 145.705C206.692 145.774 206.672 145.851 206.672 145.929C206.672 146.008 206.692 146.085 206.731 146.154C206.771 146.222 206.827 146.28 206.896 146.321C207.506 146.683 208.151 146.987 208.822 147.228C210.389 147.804 212.237 148.134 214.217 148.134C216.819 148.134 219.199 147.557 221.003 146.619C221.409 146.406 221.671 146.176 222.016 145.929C221.657 145.669 221.38 145.428 220.955 145.206C219.153 144.266 216.796 143.697 214.217 143.697C212.218 143.697 210.353 144.039 208.776 144.63C208.121 144.873 207.491 145.177 206.896 145.537Z" fill="#423C52"/>
<path d="M229.91 150.514C229.84 150.528 229.768 150.535 229.697 150.535C229.344 150.535 229.041 150.37 228.908 150.138C229.047 150.065 229.181 149.982 229.309 149.891C229.549 150.059 229.753 150.271 229.91 150.514Z" fill="#423C52"/>
<path d="M229.309 149.893C229.175 149.797 229.034 149.711 228.887 149.635C229.01 149.388 229.325 149.206 229.693 149.206C229.775 149.206 229.856 149.215 229.935 149.232C229.776 149.492 229.562 149.717 229.309 149.893Z" fill="#423C52"/>
<path d="M223.946 149.75C223.922 149.765 223.902 149.786 223.889 149.81C223.875 149.835 223.868 149.862 223.868 149.89C223.868 149.917 223.875 149.945 223.889 149.969C223.902 149.994 223.922 150.014 223.946 150.029C224.163 150.158 224.393 150.267 224.631 150.353C225.246 150.571 225.896 150.68 226.551 150.675C227.48 150.675 228.324 150.471 228.966 150.135C229.092 150.062 229.213 149.98 229.326 149.888C229.207 149.792 229.081 149.706 228.948 149.63C228.307 149.296 227.469 149.094 226.551 149.094C225.89 149.088 225.234 149.2 224.615 149.423C224.382 149.511 224.158 149.621 223.946 149.75Z" fill="#423C52"/>
<path d="M198.73 144.761C198.66 144.776 198.588 144.783 198.516 144.783C198.163 144.783 197.86 144.618 197.727 144.386C197.866 144.312 198.001 144.23 198.129 144.139C198.368 144.307 198.572 144.518 198.73 144.761Z" fill="#423C52"/>
<path d="M198.129 144.14C197.995 144.044 197.853 143.958 197.706 143.883C197.83 143.636 198.144 143.453 198.513 143.453C198.594 143.453 198.675 143.462 198.755 143.48C198.594 143.74 198.381 143.964 198.129 144.14Z" fill="#423C52"/>
<path d="M192.766 144C192.742 144.015 192.722 144.035 192.708 144.06C192.694 144.084 192.687 144.112 192.687 144.14C192.687 144.168 192.694 144.195 192.708 144.22C192.722 144.244 192.742 144.265 192.766 144.279C192.983 144.408 193.213 144.517 193.452 144.603C194.067 144.82 194.716 144.929 195.37 144.924C196.299 144.924 197.144 144.721 197.786 144.386C197.912 144.312 198.033 144.229 198.146 144.138C198.028 144.043 197.901 143.957 197.769 143.881C197.127 143.547 196.288 143.344 195.37 143.344C194.71 143.339 194.054 143.451 193.435 143.674C193.202 143.762 192.978 143.871 192.766 144Z" fill="#423C52"/>
<path d="M208.472 142.31C208.385 142.327 208.297 142.335 208.209 142.335C207.775 142.335 207.402 142.134 207.239 141.847C207.41 141.758 207.575 141.657 207.732 141.545C208.026 141.752 208.277 142.011 208.472 142.31Z" fill="#423C52"/>
<path d="M207.732 141.546C207.568 141.428 207.397 141.322 207.217 141.229C207.368 140.921 207.755 140.701 208.209 140.701C208.309 140.701 208.409 140.712 208.506 140.734C208.308 141.054 208.044 141.33 207.732 141.546Z" fill="#423C52"/>
<path d="M201.139 141.373C201.109 141.391 201.084 141.417 201.067 141.447C201.049 141.477 201.04 141.511 201.04 141.545C201.04 141.579 201.049 141.613 201.067 141.643C201.084 141.673 201.109 141.699 201.139 141.717C201.406 141.875 201.689 142.009 201.983 142.115C202.74 142.382 203.539 142.516 204.343 142.51C205.482 142.51 206.521 142.263 207.313 141.851C207.468 141.762 207.617 141.661 207.756 141.549C207.61 141.432 207.455 141.326 207.292 141.233C206.503 140.821 205.472 140.574 204.343 140.574C203.531 140.569 202.725 140.709 201.964 140.986C201.677 141.089 201.4 141.219 201.139 141.373Z" fill="#423C52"/>
<path d="M236.16 145.685C236.077 145.701 235.992 145.709 235.907 145.708C235.494 145.708 235.139 145.517 234.983 145.244C235.147 145.159 235.304 145.063 235.453 144.957C235.735 145.153 235.974 145.4 236.16 145.685Z" fill="#423C52"/>
<path d="M235.456 144.957C235.3 144.845 235.136 144.745 234.965 144.656C235.11 144.362 235.478 144.153 235.909 144.153C236.005 144.153 236.1 144.163 236.193 144.184C236.005 144.489 235.754 144.752 235.456 144.957Z" fill="#423C52"/>
<path d="M229.176 144.793C229.147 144.81 229.123 144.834 229.106 144.863C229.089 144.892 229.08 144.924 229.08 144.957C229.08 144.991 229.089 145.023 229.106 145.052C229.123 145.081 229.147 145.105 229.176 145.122C229.431 145.273 229.699 145.4 229.979 145.501C230.7 145.757 231.463 145.885 232.231 145.879C233.316 145.879 234.306 145.64 235.059 145.247C235.207 145.162 235.348 145.066 235.481 144.96C235.342 144.848 235.194 144.748 235.039 144.659C234.288 144.267 233.306 144.03 232.231 144.03C231.457 144.024 230.689 144.156 229.964 144.419C229.69 144.519 229.426 144.644 229.176 144.793Z" fill="#423C52"/>
<path d="M203.602 50.6127C203.334 50.6664 203.061 50.694 202.788 50.6951C201.48 50.6951 200.351 50.1045 199.825 49.2503C197.393 50.485 194.228 51.2371 190.766 51.2371C188.086 51.2371 185.583 50.789 183.461 50.0122C182.246 49.5801 181.097 48.9879 180.047 48.252C181.078 47.5201 182.206 46.9279 183.4 46.4918C185.53 45.6879 188.057 45.2241 190.766 45.2241C194.195 45.2241 197.334 45.9654 199.756 47.201C200.248 46.2809 201.421 45.636 202.79 45.636C203.1 45.6356 203.409 45.6696 203.711 45.7373C203.166 46.6598 202.351 47.5066 201.321 48.2454L201.327 48.2495H201.321C202.284 48.9521 203.059 49.7478 203.602 50.6127Z" fill="#E5F1EF"/>
<path d="M83.784 134.039C83.0192 134.575 82.1831 135.006 81.2986 135.322C79.754 135.886 77.9324 136.213 75.9825 136.213C73.4489 136.213 71.1384 135.663 69.3649 134.756C68.9849 135.384 68.1598 135.819 67.2021 135.819C67.0036 135.819 66.8056 135.8 66.611 135.761C67.0486 135.089 67.6142 134.504 68.2772 134.039C67.5256 133.501 66.926 132.886 66.5333 132.211C66.7532 132.162 66.9781 132.137 67.2038 132.137C68.2062 132.137 69.0617 132.614 69.4181 133.29C71.1831 132.384 73.4768 131.841 75.9841 131.841C77.9535 131.841 79.792 132.177 81.3451 132.76C82.2134 133.077 83.0338 133.507 83.784 134.039Z" fill="#E5F1EF"/>
<path d="M28.7432 100.948C29.1828 101.376 29.5315 101.885 29.7694 102.445C30.0073 103.005 30.1298 103.605 30.1298 104.211C30.1298 104.817 30.0073 105.417 29.7694 105.977C29.5315 106.537 29.1828 107.045 28.7432 107.474L28.5844 107.629C28.145 108.057 27.7964 108.566 27.5585 109.126C27.3207 109.685 27.1982 110.285 27.1982 110.891C27.1982 111.497 27.3207 112.097 27.5585 112.657C27.7964 113.217 28.145 113.726 28.5844 114.154C29.024 114.582 29.3727 115.091 29.6106 115.651C29.8486 116.211 29.971 116.811 29.971 117.417C29.971 118.023 29.8486 118.623 29.6106 119.183C29.3727 119.743 29.024 120.252 28.5844 120.68L28.4265 120.835C27.987 121.263 27.6384 121.772 27.4006 122.332C27.1627 122.892 27.0403 123.492 27.0403 124.098C27.0403 124.704 27.1627 125.304 27.4006 125.863C27.6384 126.423 27.987 126.932 28.4265 127.36C28.866 127.789 29.2146 128.297 29.4524 128.857C29.6903 129.417 29.8127 130.017 29.8127 130.623C29.8127 131.229 29.6903 131.829 29.4524 132.389C29.2146 132.949 28.866 133.457 28.4265 133.886L28.2677 134.04C27.8282 134.469 27.4794 134.977 27.2415 135.537C27.0036 136.097 26.8811 136.697 26.8811 137.303C26.8811 137.909 27.0036 138.51 27.2415 139.07C27.4794 139.629 27.8282 140.138 28.2677 140.566V140.566C28.7072 140.995 29.0558 141.503 29.2936 142.063C29.5315 142.623 29.6539 143.223 29.6539 143.829C29.6539 144.435 29.5315 145.035 29.2936 145.595C29.0558 146.155 28.7072 146.663 28.2677 147.092L28.109 147.247C27.6694 147.675 27.3207 148.184 27.0827 148.744C26.8448 149.303 26.7224 149.904 26.7224 150.51C26.7224 151.116 26.8448 151.716 27.0827 152.276C27.3207 152.836 27.6694 153.344 28.109 153.773V153.773C28.5484 154.201 28.897 154.71 29.1349 155.269C29.3727 155.829 29.4951 156.429 29.4951 157.035C29.4951 157.641 29.3727 158.241 29.1349 158.801C28.897 159.361 28.5484 159.87 28.109 160.298L27.9502 160.453C27.5106 160.881 27.1619 161.39 26.924 161.95C26.6861 162.51 26.5636 163.11 26.5636 163.716C26.5636 164.322 26.6861 164.922 26.924 165.482C27.1619 166.042 27.5106 166.551 27.9502 166.979V166.979C28.39 167.407 28.7387 167.916 28.9764 168.476C29.2141 169.035 29.336 169.636 29.3352 170.242" stroke="#907B00" stroke-width="6" stroke-miterlimit="10" stroke-linecap="round"/>
<path d="M24.051 100.948C24.4906 101.376 24.8393 101.885 25.0773 102.445C25.3152 103.005 25.4376 103.605 25.4376 104.211C25.4376 104.817 25.3152 105.417 25.0773 105.977C24.8393 106.537 24.4906 107.045 24.051 107.474L23.8923 107.629C23.4528 108.057 23.1042 108.566 22.8664 109.126C22.6285 109.685 22.5061 110.285 22.5061 110.891C22.5061 111.497 22.6285 112.097 22.8664 112.657C23.1042 113.217 23.4528 113.726 23.8923 114.154V114.154C24.3319 114.582 24.6806 115.091 24.9185 115.651C25.1564 116.211 25.2789 116.811 25.2789 117.417C25.2789 118.023 25.1564 118.623 24.9185 119.183C24.6806 119.743 24.3319 120.252 23.8923 120.68L23.7335 120.835C23.2941 121.263 22.9454 121.772 22.7076 122.332C22.4698 122.892 22.3473 123.492 22.3473 124.098C22.3473 124.704 22.4698 125.304 22.7076 125.863C22.9454 126.423 23.2941 126.932 23.7335 127.36V127.36C24.173 127.789 24.5216 128.297 24.7594 128.857C24.9973 129.417 25.1197 130.017 25.1197 130.623C25.1197 131.229 24.9973 131.829 24.7594 132.389C24.5216 132.948 24.173 133.457 23.7335 133.885L23.5747 134.04C23.1352 134.469 22.7864 134.977 22.5485 135.537C22.3106 136.097 22.1881 136.697 22.1881 137.303C22.1881 137.909 22.3106 138.51 22.5485 139.069C22.7864 139.629 23.1352 140.138 23.5747 140.566V140.566C24.0142 140.995 24.3628 141.503 24.6007 142.063C24.8385 142.623 24.9609 143.223 24.9609 143.829C24.9609 144.435 24.8385 145.035 24.6007 145.595C24.3628 146.155 24.0142 146.663 23.5747 147.092L23.416 147.247C22.9764 147.675 22.6277 148.184 22.3898 148.743C22.1518 149.303 22.0294 149.904 22.0294 150.51C22.0294 151.116 22.1518 151.716 22.3898 152.276C22.6277 152.836 22.9764 153.344 23.416 153.773V153.773C23.8554 154.201 24.204 154.71 24.4419 155.269C24.6797 155.829 24.8022 156.429 24.8022 157.035C24.8022 157.641 24.6797 158.241 24.4419 158.801C24.204 159.361 23.8554 159.87 23.416 160.298L23.2572 160.453C22.8176 160.881 22.4689 161.39 22.231 161.95C21.9931 162.51 21.8706 163.11 21.8706 163.716C21.8706 164.322 21.9931 164.922 22.231 165.482C22.4689 166.042 22.8176 166.55 23.2572 166.979V166.979C23.6967 167.407 24.0453 167.916 24.2831 168.476C24.521 169.035 24.6434 169.636 24.6434 170.242C24.6434 170.847 24.521 171.448 24.2831 172.007C24.0453 172.567 23.6967 173.076 23.2572 173.504" stroke="#907B00" stroke-width="6" stroke-miterlimit="10" stroke-linecap="round"/>
<path d="M32.611 124.566H33.3643V127.819C33.3643 128.532 33.0739 129.216 32.557 129.72C32.04 130.225 31.3389 130.508 30.6079 130.508H29.8546V127.255C29.8546 126.542 30.145 125.858 30.6619 125.354C31.1788 124.85 31.88 124.566 32.611 124.566Z" fill="#907B00"/>
<path d="M22.6425 111.008H21.9593C21.2961 111.008 20.6601 110.751 20.1911 110.294C19.7222 109.837 19.4587 109.216 19.4587 108.57V105.619H20.1419C20.4706 105.619 20.796 105.682 21.0996 105.805C21.4032 105.928 21.6791 106.108 21.9113 106.335C22.1435 106.562 22.3277 106.831 22.4531 107.127C22.5786 107.423 22.643 107.741 22.6425 108.061V111.012V111.008Z" fill="#907B00"/>
<path d="M21.8715 163.191H21.1883C20.8599 163.191 20.5347 163.128 20.2313 163.006C19.9279 162.883 19.6523 162.704 19.4201 162.477C19.1879 162.251 19.0037 161.982 18.878 161.686C18.7524 161.39 18.6877 161.073 18.6877 160.752V157.802H19.3717C20.0349 157.802 20.671 158.059 21.1399 158.516C21.6089 158.974 21.8723 159.594 21.8723 160.241V163.191H21.8715Z" fill="#907B00"/>
<path d="M27.1345 139.468H26.5298C25.9432 139.468 25.3806 139.24 24.9658 138.836C24.5511 138.431 24.318 137.883 24.318 137.311V135.278H24.9227C25.5087 135.278 26.0708 135.505 26.4855 135.909C26.9001 136.313 27.1336 136.861 27.1345 137.432V139.464V139.468Z" fill="#907B00"/>
<path d="M214.796 111.709L214.656 111.845C214.269 112.223 213.961 112.671 213.752 113.165C213.542 113.658 213.435 114.187 213.435 114.721C213.435 115.255 213.542 115.784 213.752 116.277C213.961 116.77 214.269 117.219 214.656 117.596V117.596C215.043 117.974 215.35 118.422 215.56 118.915C215.769 119.409 215.877 119.938 215.877 120.471C215.877 121.005 215.769 121.534 215.56 122.027C215.35 122.521 215.043 122.969 214.656 123.347L214.516 123.483C213.734 124.246 213.295 125.28 213.295 126.358C213.295 127.437 213.734 128.471 214.516 129.233V129.233C214.903 129.611 215.21 130.059 215.419 130.553C215.629 131.046 215.737 131.575 215.737 132.109C215.737 132.643 215.629 133.171 215.419 133.665C215.21 134.158 214.903 134.606 214.516 134.984L214.376 135.12C213.989 135.498 213.682 135.946 213.472 136.439C213.263 136.933 213.155 137.461 213.155 137.995C213.155 138.529 213.263 139.058 213.472 139.551C213.682 140.045 213.989 140.493 214.376 140.871V140.871C214.763 141.248 215.07 141.696 215.28 142.19C215.49 142.683 215.597 143.212 215.597 143.746C215.597 144.28 215.49 144.809 215.28 145.302C215.07 145.796 214.763 146.244 214.376 146.622L214.236 146.757C213.849 147.135 213.542 147.583 213.332 148.077C213.123 148.57 213.015 149.099 213.015 149.633C213.015 150.167 213.123 150.696 213.332 151.189C213.542 151.683 213.849 152.131 214.236 152.508V152.508C214.623 152.886 214.93 153.334 215.14 153.828C215.349 154.321 215.457 154.85 215.457 155.384C215.457 155.917 215.349 156.446 215.14 156.94C214.93 157.433 214.623 157.881 214.236 158.259L214.096 158.395C213.314 159.158 212.875 160.192 212.875 161.27C212.875 162.349 213.314 163.383 214.096 164.146V164.146C214.483 164.523 214.79 164.971 215 165.465C215.209 165.958 215.317 166.487 215.317 167.021C215.317 167.555 215.209 168.084 215 168.577C214.79 169.071 214.483 169.519 214.096 169.897L213.956 170.032C213.569 170.41 213.262 170.858 213.053 171.352C212.843 171.845 212.735 172.374 212.735 172.908C212.735 173.441 212.843 173.97 213.053 174.464C213.262 174.957 213.569 175.405 213.956 175.783V175.783C214.344 176.16 214.651 176.608 214.86 177.102C215.07 177.595 215.178 178.124 215.178 178.658C215.178 179.192 215.07 179.72 214.86 180.214C214.651 180.707 214.344 181.155 213.956 181.533L213.816 181.669C213.429 182.046 213.122 182.495 212.912 182.988C212.703 183.481 212.595 184.01 212.595 184.544C212.595 185.078 212.703 185.607 212.912 186.1C213.122 186.594 213.429 187.042 213.816 187.42V187.42" stroke="#907B00" stroke-width="6" stroke-miterlimit="10" stroke-linecap="round"/>
<path d="M214.715 100.269C214.328 100.647 214.021 101.095 213.811 101.588C213.602 102.082 213.494 102.611 213.494 103.145C213.494 103.679 213.602 104.207 213.811 104.701C214.021 105.194 214.328 105.643 214.715 106.02C215.496 106.783 215.935 107.817 215.935 108.895C215.935 109.974 215.496 111.008 214.715 111.77" stroke="#907B00" stroke-width="6" stroke-miterlimit="10" stroke-linecap="round"/>
<path d="M216.139 96.2929L216.477 96.2738L216.627 98.8166C216.669 99.5285 216.419 100.228 215.933 100.76C215.447 101.293 214.763 101.615 214.034 101.657L213.696 101.676L213.546 99.1329C213.504 98.421 213.754 97.7219 214.24 97.1893C214.726 96.6567 215.409 96.3343 216.139 96.2929Z" fill="#907B00"/>
<path d="M213.423 138.376H213.117C212.454 138.376 211.818 138.12 211.349 137.662C210.88 137.205 210.617 136.584 210.617 135.938V133.631H210.922C211.585 133.631 212.222 133.888 212.69 134.346C213.159 134.803 213.423 135.423 213.423 136.07V138.376Z" fill="#907B00"/>
<path d="M218.651 129.233C219.432 129.996 219.871 131.03 219.871 132.108C219.871 133.186 219.432 134.22 218.651 134.983L218.511 135.12C218.124 135.497 217.817 135.946 217.607 136.439C217.398 136.932 217.29 137.461 217.29 137.995C217.29 138.529 217.398 139.058 217.607 139.551C217.817 140.044 218.124 140.492 218.511 140.87V140.87C218.898 141.248 219.205 141.696 219.415 142.189C219.624 142.683 219.732 143.211 219.732 143.745C219.732 144.28 219.624 144.808 219.415 145.302C219.205 145.795 218.898 146.243 218.511 146.621L218.371 146.757C217.983 147.135 217.676 147.583 217.467 148.076C217.257 148.57 217.149 149.098 217.149 149.632C217.149 150.166 217.257 150.695 217.467 151.189C217.676 151.682 217.983 152.13 218.371 152.508V152.508C218.758 152.885 219.065 153.334 219.274 153.827C219.484 154.32 219.592 154.849 219.592 155.383C219.592 155.917 219.484 156.446 219.274 156.939C219.065 157.432 218.758 157.881 218.371 158.258L218.231 158.395C217.844 158.772 217.537 159.221 217.328 159.714C217.118 160.207 217.01 160.736 217.01 161.27C217.01 161.804 217.118 162.333 217.328 162.826C217.537 163.319 217.844 163.767 218.231 164.145V164.145C219.013 164.908 219.452 165.942 219.452 167.021C219.452 168.099 219.013 169.133 218.231 169.896L218.091 170.032C217.704 170.409 217.397 170.858 217.187 171.351C216.978 171.844 216.87 172.373 216.87 172.907C216.87 173.441 216.978 173.97 217.187 174.463C217.397 174.956 217.704 175.405 218.091 175.782V175.782C218.478 176.16 218.785 176.608 218.995 177.101C219.204 177.594 219.312 178.123 219.312 178.657C219.312 179.191 219.204 179.72 218.995 180.213C218.785 180.706 218.478 181.155 218.091 181.532L217.951 181.668C217.169 182.431 216.73 183.465 216.73 184.544C216.73 185.622 217.169 186.656 217.951 187.419" stroke="#907B00" stroke-width="6" stroke-miterlimit="10" stroke-linecap="round"/>
<path d="M222.152 161.799H222.49V164.346C222.49 165.059 222.2 165.743 221.683 166.247C221.166 166.751 220.465 167.034 219.734 167.034H219.396V164.487C219.396 163.774 219.686 163.09 220.203 162.586C220.72 162.082 221.421 161.799 222.152 161.799Z" fill="#907B00"/>
<path d="M216.125 115.193C216.649 115.193 217.073 114.779 217.073 114.269C217.073 113.759 216.649 113.345 216.125 113.345C215.602 113.345 215.178 113.759 215.178 114.269C215.178 114.779 215.602 115.193 216.125 115.193Z" stroke="white" stroke-width="5" stroke-miterlimit="10"/>
</svg>
