<svg width="333" height="333" viewBox="0 0 333 333" fill="none" xmlns="http://www.w3.org/2000/svg">
<path d="M222.364 91.0489L280.712 90.9623C280.712 90.9623 277.809 87.1861 274.605 86.7199C274.605 86.7199 268.358 68.2117 257.955 68.0719C248.272 67.9587 244.409 79.4805 244.409 79.4805C244.409 79.4805 239.913 74.319 235.631 76.6899C231.348 79.0609 228.931 85.8208 228.931 85.8208C228.931 85.8208 224.109 88.4515 222.364 91.0489Z" fill="#EBEBEB"/>
<path d="M129.977 115.884L56.1904 115.997C56.1904 115.997 56.1904 111.282 66.3469 110.343C66.3469 110.343 75.5977 89.6968 89.7701 92.4741C98.5946 94.179 103.123 106.287 103.123 106.287C103.123 106.287 109.783 96.7431 115.111 98.5813C120.439 100.419 123.63 110.569 123.63 110.569C123.63 110.569 129.137 113.22 129.977 115.884Z" fill="#EBEBEB"/>
<path d="M214.532 51.4617L164.362 51.535C164.362 51.535 169.091 47.1194 171.195 47.1194C173.3 47.1194 179.42 32.3142 187.266 32.927C195.111 33.5397 199.294 44.5553 199.294 44.5553C199.294 44.5553 208.831 41.5517 214.532 51.4617Z" fill="#EBEBEB"/>
<path d="M74.7719 79.507L31.8682 79.5736C31.8682 79.5736 33.9927 76.7897 36.3437 76.4434C36.3437 76.4434 40.8991 62.817 48.5581 62.7105C55.6777 62.6039 58.5481 71.0688 58.5481 71.0688C58.5481 71.0688 61.8448 67.2659 64.995 68.9975C68.1452 70.7291 69.9301 75.6975 69.9301 75.6975C69.9301 75.6975 73.4798 77.5956 74.7719 79.507Z" fill="#EBEBEB"/>
<path d="M248.018 134.286C247.606 138.108 248.045 141.975 249.304 145.608C251.915 153.207 258.941 158.308 261.638 165.767C261.638 166.72 261.638 167.686 261.558 168.665C261.558 168.665 261.558 168.665 261.558 168.711C261.558 168.758 261.558 168.711 261.558 168.711C261.566 168.729 261.578 168.745 261.593 168.757C261.608 168.77 261.626 168.779 261.645 168.784C261.685 168.665 261.711 168.551 261.738 168.438C261.765 168.325 261.845 168.019 261.885 167.812C261.924 167.606 262.018 167.219 262.064 166.92C262.064 166.92 262.104 166.78 262.064 166.74C263.47 158.308 259.214 150.03 256.397 142.258C254.785 137.809 254.252 133.12 252.72 128.685C252.354 127.626 251.981 125.554 250.489 126.26C248.838 127.086 248.192 132.734 248.018 134.286Z" fill="#EBEBEB"/>
<path d="M250.416 140.812C251.681 150.409 261.984 157.103 261.705 166.973C261.705 167.259 261.671 167.532 261.651 167.812C261.631 168.092 261.618 168.198 261.592 168.391C261.592 168.464 261.592 168.544 261.592 168.631C261.592 168.718 261.592 168.631 261.592 168.678C261.592 168.724 261.592 168.678 261.592 168.678C261.6 168.695 261.612 168.711 261.627 168.724C261.642 168.737 261.659 168.746 261.678 168.751H261.718C261.734 168.745 261.749 168.735 261.76 168.722C261.772 168.71 261.78 168.694 261.785 168.678C261.845 168.378 261.885 168.072 261.918 167.779C262.017 167.053 262.05 166.319 262.018 165.587C262.164 161.238 261.172 157.129 259.474 152.9C257.389 147.705 255.045 142.73 253.053 137.456C252.807 136.79 252.314 134.126 251.295 134.698C249.97 135.438 250.276 139.7 250.416 140.812ZM250.623 139.314C250.623 138.761 250.622 135.058 251.595 135.271C252.168 135.391 252.734 138.082 252.887 138.448C253.473 139.866 254.059 141.265 254.645 142.684C255.891 145.647 257.156 148.604 258.395 151.568C259.978 155.144 261.045 158.927 261.565 162.803C259.54 154.572 250.836 148.198 250.623 139.314Z" fill="white"/>
<path d="M262.624 225.98C262.624 226.107 262.784 226.26 262.93 226.12C269.277 220.126 278.954 222.264 285.647 216.75C288.266 214.441 290.562 211.791 292.474 208.871C294.014 206.801 295.291 204.548 296.277 202.164C296.397 201.845 297.089 200.499 296.836 199.94C294.872 195.711 284.728 205.361 282.99 206.773C276.21 212.287 270.003 217.316 264.342 223.816C263.749 224.482 263.17 225.148 262.597 225.887C262.604 225.907 262.61 225.94 262.624 225.98Z" fill="#EBEBEB"/>
<path d="M262.624 225.98L263.29 225.314C267.799 222.024 273.16 220.166 278.228 217.822C283.296 215.478 287.519 212.367 290.789 207.732C291.368 206.913 293.806 203.736 292.694 202.564C291.701 201.518 289.184 204.362 288.538 204.902C283.736 208.898 279.061 212.894 273.952 216.53C270.682 218.841 267.372 221.159 264.342 223.789C263.749 224.455 263.17 225.121 262.597 225.861C262.604 225.907 262.61 225.941 262.624 225.98ZM265.614 223.35C269.144 220.419 272.94 217.815 276.683 215.111C279.254 213.26 281.742 211.306 284.149 209.251C285.481 208.118 286.773 206.966 288.105 205.847C288.771 205.288 289.437 204.728 290.103 204.189C290.443 203.909 291.548 202.97 291.968 203.523C293.1 204.908 286.28 214.286 276.397 218.215C272.653 219.594 269.044 221.313 265.614 223.35Z" fill="white"/>
<path d="M272.081 210.129C272.074 210.135 272.069 210.142 272.065 210.15C272.061 210.158 272.059 210.167 272.059 210.176C272.059 210.185 272.061 210.194 272.065 210.202C272.069 210.21 272.074 210.217 272.081 210.223C272.096 210.236 272.115 210.243 272.134 210.243C272.154 210.243 272.173 210.236 272.188 210.223L272.554 209.703C273 209.037 273.426 208.424 273.839 207.772L274.059 207.419C274.09 207.411 274.118 207.395 274.139 207.372C278.801 200.426 287.186 197.016 290.836 189.283C292.363 185.806 293.29 182.095 293.58 178.308C293.746 176.683 295.085 171.568 292.914 170.702C291.222 170.036 289.244 172.534 288.418 173.593C285.801 176.956 284.296 181.258 282.77 185.188C281.245 189.117 279.98 192.953 278.588 196.836C277.281 200.358 275.686 203.766 273.819 207.026C273.273 208.038 272.68 209.077 272.081 210.129Z" fill="#EBEBEB"/>
<path d="M272.081 210.13C272.074 210.135 272.069 210.142 272.065 210.151C272.061 210.159 272.059 210.167 272.059 210.176C272.059 210.185 272.061 210.194 272.065 210.202C272.069 210.21 272.074 210.217 272.081 210.223C272.461 209.637 272.84 209.057 273.227 208.485L272.561 209.677C273.007 209.011 273.433 208.398 273.846 207.745C274.039 207.406 274.239 207.079 274.445 206.733C277.165 202.928 280.166 199.333 283.423 195.977C285.041 194.345 286.362 192.443 287.326 190.356C289.097 186.453 291.322 177.622 290.383 176.53C289.444 175.438 288.385 178.308 288.098 178.948C285.594 184.136 283.796 189.604 281.005 194.659C279.127 198.062 277.216 201.445 275.305 204.835C274.798 205.541 274.299 206.267 273.833 207C273.273 208.038 272.68 209.077 272.081 210.13ZM276.81 202.804C278.734 199.594 280.626 196.364 282.344 193.053C283.763 190.303 284.908 187.439 286.087 184.582C286.673 183.15 287.266 181.725 287.905 180.326C288.078 179.94 289.297 176.776 289.903 176.91C290.509 177.043 290.023 179.414 289.903 180.04C289.215 183.076 288.372 186.074 287.379 189.024C286.313 192.128 284.395 194.399 282.131 196.71C280.239 198.642 278.462 200.683 276.81 202.824V202.804Z" fill="white"/>
<path d="M235.911 254.359C235.911 254.367 235.914 254.375 235.918 254.383C235.922 254.39 235.928 254.397 235.935 254.402C235.942 254.407 235.95 254.411 235.958 254.412C235.967 254.414 235.975 254.414 235.984 254.412C236.017 254.412 236.044 254.412 236.05 254.345C236.05 254.152 236.05 253.966 236.05 253.779C236.05 253.08 236.05 252.394 236.017 251.708C236.017 251.581 236.017 251.461 236.017 251.335C236.036 251.315 236.048 251.289 236.05 251.262C235.984 243.796 240.433 237.063 239.221 229.537C238.593 226.206 237.404 223.006 235.704 220.073C235.038 218.794 233.42 214.352 231.388 214.812C229.81 215.164 229.61 218.008 229.537 219.2C229.304 222.997 230.369 226.919 231.222 230.582C232.074 234.245 233.087 237.702 234.019 241.238C234.834 244.491 235.38 247.806 235.651 251.148C235.764 252.221 235.831 253.286 235.911 254.359Z" fill="#EBEBEB"/>
<path d="M235.911 254.359C235.911 254.367 235.914 254.376 235.918 254.383C235.922 254.391 235.928 254.397 235.935 254.402C235.942 254.407 235.95 254.411 235.958 254.412C235.967 254.414 235.975 254.414 235.984 254.412C235.984 253.793 235.984 253.173 235.951 252.56C235.984 252.967 236.017 253.373 236.057 253.779C236.057 253.08 236.057 252.394 236.024 251.708C236.024 251.362 235.977 251.009 235.957 250.656C236.043 246.487 236.439 242.331 237.143 238.222C237.507 236.203 237.518 234.137 237.176 232.114C236.51 228.345 233.713 220.726 232.461 220.393C231.209 220.06 231.901 222.697 231.995 223.33C232.767 228.405 234.199 233.32 234.698 238.468C235.031 241.918 235.364 245.374 235.631 248.831C235.631 249.61 235.631 250.389 235.631 251.169C235.764 252.221 235.831 253.286 235.911 254.359ZM235.711 246.6C235.511 243.27 235.278 239.94 234.872 236.61C234.525 233.873 233.926 231.182 233.353 228.485C233.06 227.153 232.78 225.821 232.547 224.435C232.481 224.069 231.781 221.105 232.294 220.912C232.807 220.719 233.626 222.697 233.859 223.23C234.852 225.794 235.804 228.451 236.523 231.109C237.303 233.932 237.036 236.577 236.523 239.414C236.112 241.791 235.84 244.191 235.711 246.6Z" fill="white"/>
<path d="M236.19 260.512C236.388 260.463 236.568 260.359 236.71 260.213C243.556 256.03 251.588 254.418 258.475 250.223C261.541 248.45 264.132 245.962 266.027 242.97C266.806 241.638 269.517 237.169 268.425 235.517C265.175 230.549 243.456 252.114 236.41 259.726C236.283 259.815 236.173 259.926 236.084 260.053C235.877 260.332 235.957 260.539 236.19 260.512Z" fill="#EBEBEB"/>
<path d="M236.19 260.512C236.677 260.113 237.169 259.7 237.669 259.307C239.327 258.255 240.999 257.236 242.737 256.317C245.481 254.858 248.385 253.759 251.209 252.46C255.635 250.477 259.487 247.405 262.404 243.529C263.037 242.69 264.962 240.393 264.229 239.174C263.563 238.062 261.911 239.58 261.312 240.013C252.794 246.207 244.662 253.013 236.517 259.727L236.084 260.06C235.877 260.333 235.957 260.539 236.19 260.512ZM240.086 257.336C243.283 254.747 246.482 252.172 249.683 249.61C252.197 247.603 254.716 245.605 257.243 243.616C258.495 242.637 259.727 241.618 260.999 240.679C261.498 240.299 263.423 238.821 263.769 239.553C264.116 240.286 262.904 241.991 262.684 242.311C259.287 247.406 254.312 250.629 248.771 252.967C245.777 254.217 242.875 255.677 240.086 257.336Z" fill="white"/>
<path d="M259.966 191.748C259.945 191.792 259.933 191.841 259.933 191.891C259.933 191.94 259.945 191.989 259.966 192.034C260.004 192.093 260.058 192.141 260.122 192.17C260.186 192.2 260.256 192.21 260.326 192.201C260.402 192.203 260.476 192.182 260.539 192.141C260.563 192.141 260.587 192.135 260.608 192.123C260.629 192.111 260.647 192.094 260.659 192.074C263.51 188.031 268.231 183.882 271.209 179.953C273.454 176.902 275.236 173.535 276.497 169.963C277.989 166.012 278.995 161.895 279.494 157.702C279.707 155.704 280.506 150.955 278.628 149.39C274.778 146.153 270.989 161.205 270.363 162.93C266.88 172.527 263.376 182.117 259.966 191.748Z" fill="#EBEBEB"/>
<path d="M259.986 192.034C260.024 192.094 260.078 192.141 260.142 192.17C260.206 192.2 260.276 192.21 260.346 192.201C260.499 191.874 260.646 191.535 260.799 191.208C261.865 189.357 262.93 187.505 264.129 185.714C266.034 182.79 268.331 180.146 270.123 177.162C273.266 171.968 278.082 156.39 275.684 155.364C274.432 154.831 273.593 158.028 273.313 158.781C272.221 161.811 271.515 164.961 270.376 167.985C269.197 171.162 267.825 174.259 266.467 177.362C264.362 182.131 262.244 186.893 260.193 191.695C260.106 191.808 260.053 191.921 259.986 192.034ZM262.204 188.038C264.082 183.816 265.914 179.58 267.765 175.351C269.037 172.421 270.283 169.477 271.348 166.466C271.934 164.781 272.427 163.063 272.92 161.345C273.16 160.512 273.4 159.673 273.699 158.854C273.959 158.148 274.858 155.238 275.697 156.09C276.537 156.943 275.391 161.458 275.125 162.51C274.692 164.229 274.239 165.934 273.726 167.625C272.757 170.981 271.367 174.202 269.59 177.209C267.759 180.179 265.468 182.83 263.596 185.78C263.117 186.553 262.65 187.299 262.204 188.065V188.038Z" fill="white"/>
<path d="M219.547 206.373C227.226 212.148 237.909 212.168 243.929 223.656C243.929 223.703 244.009 223.689 244.022 223.656C244.036 223.623 244.022 223.623 244.022 223.609C243.578 222.424 243.072 221.252 242.504 220.093C239.535 213.811 235.386 208.158 230.283 203.443C227.247 200.651 223.804 198.336 220.073 196.577C218.168 195.691 213.953 193.32 211.935 194.186C207.592 196.057 218.142 205.328 219.547 206.373Z" fill="#EBEBEB"/>
<path d="M219.114 202.025C222.624 206.6 228.345 208.931 232.98 212.148C236.213 214.316 239.162 216.88 241.758 219.78C242.537 221.052 243.297 222.338 244.042 223.65C244.042 223.65 244.042 223.616 244.042 223.603C243.598 222.418 243.092 221.245 242.524 220.087C242.471 220.033 242.431 219.967 242.377 219.913C240.296 216.452 237.856 213.22 235.098 210.27C231.326 206.165 226.994 202.611 222.231 199.714C221.412 199.207 218.575 196.883 217.502 197.809C216.43 198.735 218.641 201.385 219.114 202.025ZM217.955 198.182C218.774 197.689 223.636 201.006 225.548 202.371C229.681 205.312 233.42 208.772 236.67 212.667C238.071 214.349 239.368 216.115 240.553 217.955C238.79 216.16 236.886 214.509 234.858 213.02C230.629 209.89 225.654 207.692 221.711 204.209C220.668 203.309 219.742 202.282 218.954 201.152C218.661 200.699 217.229 198.628 217.975 198.182H217.955Z" fill="white"/>
<path d="M220.446 166.966C220.647 170.442 221.258 173.883 222.264 177.216C224.25 183.657 227.71 189.547 232.368 194.419C232.447 194.505 232.527 194.599 232.614 194.685C232.734 194.998 232.854 195.311 232.994 195.611C232.994 195.684 233.047 195.751 233.08 195.824V195.871C233.095 195.881 233.112 195.886 233.13 195.886C233.147 195.886 233.165 195.881 233.179 195.871C233.194 195.86 233.205 195.846 233.211 195.829C233.217 195.813 233.218 195.795 233.213 195.777C233.14 195.378 233.067 194.978 233 194.572C231.608 186.314 231.668 177.969 229.004 169.93C228.425 168.178 225.075 156.61 221.325 159.381C219.647 160.666 220.353 165.208 220.446 166.966Z" fill="#EBEBEB"/>
<path d="M222.444 168.318C223.11 173.446 225.441 178.648 227.399 183.403C228.884 187.158 230.56 190.835 232.421 194.419C232.567 194.712 232.727 195.005 232.887 195.291C232.936 195.398 232.989 195.504 233.047 195.611C233.075 195.701 233.113 195.788 233.16 195.87C233.175 195.881 233.192 195.886 233.21 195.886C233.227 195.886 233.245 195.881 233.259 195.87C233.274 195.86 233.285 195.846 233.291 195.829C233.297 195.813 233.298 195.794 233.293 195.777C233.22 195.378 233.147 194.978 233.08 194.572C232.947 194.285 232.807 193.999 232.667 193.713C231.35 189.311 230.344 184.822 229.657 180.279C229.224 177.822 228.738 175.384 228.072 172.987C227.406 170.589 226.853 168.165 225.707 166.04C225.201 165.115 224.182 163.296 222.93 164.269C221.851 165.095 222.278 167.232 222.444 168.318ZM225.155 166.047C226.52 168.551 227.226 171.661 227.932 174.419C228.598 177.049 229.077 179.747 229.544 182.411C230.043 185.248 230.549 188.138 231.329 190.929C229.697 187.539 228.092 184.136 226.72 180.599C225.648 177.829 224.635 175.038 223.769 172.207C223.288 170.754 222.96 169.254 222.79 167.732C222.727 167.193 222.701 166.65 222.71 166.107C222.73 164.402 224.509 164.915 225.108 166.047H225.155Z" fill="white"/>
<path d="M267.066 136.223C267.066 136.363 267.066 136.497 267.066 136.63C267.066 136.672 267.077 136.714 267.097 136.751C267.118 136.788 267.148 136.819 267.184 136.841C267.22 136.863 267.261 136.875 267.304 136.877C267.346 136.878 267.388 136.869 267.426 136.85C267.468 136.828 267.503 136.796 267.528 136.756C267.552 136.716 267.566 136.67 267.566 136.623C267.566 136.377 267.566 136.124 267.599 135.877C267.599 135.677 267.599 135.484 267.599 135.278C267.712 134.924 267.846 134.577 267.998 134.239C269.57 130.529 272.84 127.033 274.885 123.736C276.806 120.766 278.426 117.611 279.72 114.319C281.06 110.982 281.693 107.403 281.578 103.809C281.525 102.837 281.532 100.373 280.246 99.9931C278.614 99.5202 276.863 102.804 276.197 103.696C273.925 106.834 272.082 110.261 270.716 113.886C267.925 121.092 267.186 128.538 267.066 136.223Z" fill="#EBEBEB"/>
<path d="M267.439 134.459C267.285 135.04 267.163 135.629 267.073 136.224C267.073 136.363 267.073 136.497 267.073 136.63C267.073 136.672 267.083 136.714 267.104 136.751C267.125 136.788 267.155 136.819 267.191 136.841C267.227 136.863 267.268 136.875 267.31 136.877C267.353 136.879 267.395 136.869 267.432 136.85C267.432 136.75 267.432 136.65 267.432 136.55C267.486 136.323 267.526 136.104 267.572 135.884C267.692 135.331 267.839 134.792 267.998 134.246C268.577 132.285 269.333 130.382 270.256 128.558C271.835 125.374 273.533 122.244 274.991 119.001C275.724 117.376 281.345 104.848 278.128 104.349C277.522 104.249 277.116 105.115 276.87 105.481C276.043 106.819 275.351 108.235 274.805 109.71C273.433 113.04 272.194 116.503 271.062 119.953C269.492 124.691 268.281 129.539 267.439 134.459ZM270.809 121.978C271.755 118.928 272.807 115.917 273.933 112.934C274.485 111.482 275.025 110.01 275.658 108.585C275.964 107.879 277.602 104.662 278.262 104.928C279.227 105.308 277.989 110.076 277.596 111.368C277.123 112.854 276.59 114.305 276.017 115.744C274.852 118.641 273.5 121.458 272.088 124.242C270.849 126.706 269.304 129.357 268.232 132.128C268.914 128.702 269.774 125.314 270.809 121.978Z" fill="white"/>
<path d="M247.845 179.74L248.045 180.1C248.066 180.136 248.097 180.165 248.133 180.186C248.169 180.207 248.21 180.217 248.252 180.217C248.293 180.217 248.334 180.207 248.37 180.186C248.407 180.165 248.437 180.136 248.458 180.1C248.484 180.06 248.498 180.014 248.498 179.966C248.498 179.919 248.484 179.873 248.458 179.833C248.345 179.613 248.232 179.394 248.112 179.167C248.018 178.987 247.932 178.814 247.832 178.634C247.759 178.268 247.699 177.902 247.659 177.529C247.153 173.533 248.232 168.871 248.325 164.995C248.495 161.464 248.308 157.925 247.765 154.432C247.247 150.885 246 147.484 244.102 144.442C243.57 143.636 242.338 141.498 241.032 141.818C239.38 142.224 239.514 145.941 239.387 147.053C238.992 150.899 239.11 154.78 239.74 158.594C240.986 166.227 244.096 173.047 247.845 179.74Z" fill="#EBEBEB"/>
<path d="M247.273 178.035C247.428 178.615 247.62 179.184 247.845 179.74L248.045 180.1C248.066 180.136 248.097 180.165 248.133 180.186C248.169 180.207 248.21 180.218 248.252 180.218C248.293 180.218 248.334 180.207 248.37 180.186C248.407 180.165 248.437 180.136 248.458 180.1C248.418 180.007 248.378 179.913 248.345 179.82L248.125 179.154C247.952 178.608 247.805 178.068 247.672 177.516C247.19 175.531 246.889 173.507 246.773 171.468C246.54 167.919 246.44 164.362 246.107 160.812C245.921 159.041 244.502 145.388 241.445 146.567C240.872 146.786 240.952 147.739 240.926 148.178C240.883 149.751 240.994 151.323 241.259 152.874C241.765 156.47 242.411 160.06 243.163 163.61C244.172 168.514 245.546 173.336 247.273 178.035ZM243.943 165.548C243.237 162.44 242.626 159.307 242.111 156.15C241.858 154.619 241.592 153.073 241.445 151.528C241.358 150.762 241.165 147.159 241.865 147.053C242.89 146.9 244.209 151.648 244.529 152.974C244.868 154.485 245.135 156.017 245.354 157.549C245.807 160.633 246.02 163.749 246.227 166.873C246.387 169.63 246.387 172.694 246.84 175.631C245.694 172.322 244.72 168.957 243.923 165.548H243.943Z" fill="white"/>
<path d="M230.896 188.591C233.258 195.521 236.011 202.312 239.141 208.931C241.598 214.045 244.082 219.24 245.328 224.808C246.813 231.468 246.254 239.267 244.042 246.32C245.601 243.762 247.133 241.176 248.638 238.561C251.708 233.233 254.732 227.792 256.517 221.911C256.69 221.325 256.843 220.739 256.989 220.153C256.959 220.117 256.943 220.073 256.943 220.026C257.177 212.611 256.297 205.202 254.332 198.048C252.423 194.504 250.168 191.157 247.599 188.058C244.968 184.848 242.444 181.725 240.666 177.948C240.566 177.729 240.859 177.535 240.992 177.748C243.963 182.63 249.024 186.979 252.454 191.974C252.148 191.102 251.835 190.229 251.502 189.357C248.331 181.032 243.749 172.927 245.308 163.723C245.361 163.416 245.807 163.536 245.774 163.836C244.575 173.986 251.209 183.689 254.352 192.973C256.696 199.873 258.455 207.445 258.048 214.831C258.586 210.682 258.904 206.507 259.001 202.324C259.947 177.136 261.771 151.921 269.464 127.765C269.544 127.532 269.917 127.612 269.843 127.858C262.218 153.939 262.244 180.745 260.726 207.612C260.726 207.918 260.686 208.225 260.666 208.524C262.188 204.788 264.158 201.25 266.533 197.988C266.557 197.96 266.59 197.942 266.627 197.936C266.663 197.929 266.7 197.936 266.732 197.954C266.764 197.972 266.789 198 266.803 198.034C266.816 198.069 266.817 198.106 266.806 198.141C264.176 203.196 262.437 208.518 260.186 213.706C259.747 217.518 258.881 221.269 257.602 224.888C255.954 229.19 253.949 233.347 251.608 237.316C255.757 232.294 259.96 227.326 263.749 221.998C269.519 213.943 274.745 205.513 279.394 196.763C279.46 196.636 279.647 196.763 279.587 196.869C275.281 206.244 270.202 215.244 264.402 223.776C259.414 230.982 254.012 238.388 247.539 244.422C242.024 253.792 236.024 263.29 228.225 270.842C228.153 270.917 228.053 270.96 227.949 270.962C227.845 270.964 227.744 270.924 227.669 270.852C227.594 270.78 227.551 270.68 227.549 270.576C227.547 270.472 227.586 270.371 227.659 270.296C228.991 268.544 230.323 266.779 231.655 265.001C232.554 261.298 234.092 257.775 234.798 253.979C235.624 249.541 235.917 245.02 235.671 240.512C235.671 240.179 236.144 240.173 236.184 240.512C236.93 246.606 236.95 254.265 234.798 260.612C236.632 257.975 238.408 255.311 240.126 252.62C244.262 242.757 246.08 231.601 242.87 221.318C241.225 216.03 238.701 211.088 236.457 206.04C234.035 200.429 232.049 194.64 230.516 188.724C230.511 188.678 230.522 188.631 230.546 188.592C230.571 188.552 230.609 188.522 230.653 188.507C230.697 188.491 230.745 188.491 230.789 188.506C230.833 188.522 230.871 188.552 230.896 188.591Z" fill="#EBEBEB"/>
<path d="M117.882 163.956C118.388 167.372 117.356 171.248 116.55 174.532C115.598 178.294 114.387 181.986 112.927 185.581C111.595 188.911 110.09 192.241 108.531 195.471L108.485 195.564L108.178 196.23C108.085 196.503 107.992 196.776 107.885 197.049C107.873 197.084 107.849 197.114 107.818 197.135C107.786 197.155 107.749 197.165 107.712 197.163C107.688 197.166 107.663 197.162 107.64 197.153C107.618 197.143 107.598 197.128 107.583 197.108C107.568 197.089 107.559 197.066 107.556 197.041C107.553 197.017 107.556 196.992 107.566 196.969C107.612 196.823 107.666 196.67 107.706 196.523C109.57 190.203 107.04 183.576 108.118 177.156C108.705 173.639 110.256 170.309 111.602 167.033C112.348 165.215 112.934 162.79 114.026 161.159C114.319 160.726 114.465 160.233 115.045 160.086C116.836 159.62 117.716 162.764 117.882 163.956Z" fill="#EBEBEB"/>
<path d="M115.884 166.034C115.045 164.995 113.979 167.179 113.653 167.772C111.469 171.768 109.697 176.656 109.564 181.205C109.411 186.207 109.304 191.195 107.952 196.043L107.712 196.496C107.672 196.643 107.619 196.796 107.572 196.943C107.563 196.965 107.559 196.99 107.562 197.014C107.566 197.039 107.575 197.062 107.59 197.081C107.605 197.101 107.624 197.116 107.647 197.126C107.67 197.135 107.695 197.139 107.719 197.136C107.719 197.042 107.792 196.949 107.819 196.856C108.052 196.43 108.278 195.997 108.485 195.564L108.531 195.471C109.949 192.315 111.194 189.085 112.261 185.794C113.976 181.26 115.191 176.552 115.884 171.754C116.031 170.594 116.117 169.427 116.144 168.258C116.177 167.672 116.297 166.54 115.884 166.034ZM115.884 169.011C115.825 170.244 115.703 171.473 115.518 172.693C114.826 176.892 113.738 181.015 112.268 185.008C111.156 188.523 109.839 191.97 108.325 195.331C109.083 192.577 109.53 189.746 109.657 186.893C109.797 184.748 109.77 182.604 109.883 180.452C110.092 178.059 110.658 175.711 111.562 173.486C112.237 171.319 113.153 169.235 114.292 167.272C114.539 166.886 115.191 166.067 115.538 166.207C116.144 166.446 115.884 168.498 115.884 169.011Z" fill="white"/>
<path d="M95.7576 256.89C95.787 256.914 95.8066 256.949 95.8127 256.987C95.8188 257.025 95.8111 257.063 95.7909 257.096C95.7767 257.126 95.7541 257.152 95.7257 257.17C95.6974 257.187 95.6645 257.197 95.631 257.196C95.5859 257.195 95.5419 257.181 95.5045 257.156C91.9747 254.366 88.8445 250.436 84.3423 249.277C80.8125 248.365 77.6823 248.185 74.5655 246.034C71.4314 243.821 68.7934 240.979 66.8199 237.689C65.9225 236.193 65.1667 234.617 64.5621 232.98C64.2691 232.194 63.2301 230.17 63.5964 229.317C65.368 225.321 76.2504 235.311 77.7156 236.643C84.1159 242.564 90.5295 249.071 95.3979 256.337C95.4044 256.348 95.4077 256.361 95.4077 256.374C95.4077 256.386 95.4044 256.399 95.3979 256.41C95.3941 256.424 95.3874 256.438 95.3782 256.449C95.3691 256.46 95.3576 256.47 95.3447 256.477L95.7576 256.89Z" fill="#EBEBEB"/>
<path d="M95.7576 256.89L95.3447 256.463C95.3576 256.457 95.3691 256.447 95.3782 256.436C95.3874 256.424 95.3941 256.411 95.3979 256.397C91.988 252.521 88.2717 248.871 84.5155 245.321C80.4795 241.518 76.3503 237.622 71.8615 234.372C71.2421 233.926 68.7646 231.668 67.9521 232.641C67.1396 233.613 69.5638 236.717 70.07 237.403C73.0869 241.445 77.5824 243.929 81.9514 246.234C84.7886 247.732 87.5791 249.184 89.9434 251.395C91.9414 253.253 93.6863 255.331 95.651 257.203C95.6845 257.203 95.7174 257.194 95.7457 257.176C95.7741 257.159 95.7967 257.133 95.8109 257.103C94.8052 256.137 93.8595 255.105 92.9071 254.086C93.8795 255.085 94.8474 256.088 95.8109 257.096C95.8289 257.061 95.8335 257.021 95.8237 256.983C95.8138 256.945 95.7903 256.912 95.7576 256.89ZM86.8465 248.611C82.6907 245.947 77.9954 244.169 74.0926 241.059C72.1917 239.588 70.5756 237.783 69.324 235.731C69.0843 235.331 67.9121 233.56 68.365 233.067C68.6647 232.714 69.7703 233.313 69.9234 233.42C71.1111 234.162 72.2522 234.976 73.34 235.857C77.1562 238.888 80.7859 242.184 84.329 245.521C86.327 247.379 88.2051 249.277 90.0899 251.209C89.0919 250.244 88.0061 249.374 86.8465 248.611Z" fill="white"/>
<path d="M95.3913 166.64C95.1116 170.509 93.5532 174.299 91.7883 177.722C87.6924 185.634 81.4986 192.507 78.2818 200.872C78.1552 201.205 78.0354 201.538 77.9155 201.864C77.9155 202.324 77.8689 202.204 77.8289 201.651C77.6624 199.22 77.5359 188.618 80.02 181.531C81.5718 177.109 84.016 173.133 86.4536 169.164C87.8522 166.899 89.2242 164.622 90.6361 162.371C91.089 161.645 91.9681 159.494 93.1802 159.567C95.5379 159.68 95.4979 165.121 95.3913 166.64Z" fill="#EBEBEB"/>
<path d="M91.242 166.586C91.089 166.458 90.8931 166.393 90.694 166.405C90.4949 166.416 90.3075 166.502 90.1697 166.646C89.8127 167.049 89.5409 167.521 89.3705 168.032C88.9576 168.884 88.5447 169.723 88.1318 170.569C85.2946 176.396 81.8781 182.244 79.9933 188.471C78.7964 192.627 78.101 196.911 77.922 201.232C77.922 201.365 77.8754 201.505 77.8488 201.645C77.8887 202.197 77.922 202.311 77.9353 201.858C78.0552 201.525 78.1751 201.192 78.3016 200.865C78.3949 200.392 78.5081 199.926 78.6346 199.453C79.6045 196.257 80.9787 193.197 82.7239 190.349C85.8341 184.821 88.7179 179.14 90.7159 173.1C91.1928 171.761 91.5233 170.374 91.7015 168.964C91.7615 168.325 91.8614 167.059 91.242 166.586ZM91.3885 168.684C91.3809 168.999 91.3497 169.313 91.2953 169.623C91.1829 170.284 91.034 170.937 90.8491 171.581C90.3984 173.133 89.8671 174.66 89.2573 176.157C87.1461 181.531 84.4155 186.52 81.645 191.568C80.2263 194.034 79.1083 196.661 78.315 199.393C78.551 197.015 78.9089 194.649 79.3872 192.307C80.626 186.313 83.4498 180.985 86.0938 175.524C86.7598 174.192 87.4258 172.82 88.0918 171.475C88.4182 170.809 88.7578 170.143 89.0775 169.443L89.5637 168.431C89.89 167.765 89.8501 167.432 90.6892 167.372C91.7149 167.299 91.4485 167.832 91.4152 168.684H91.3885Z" fill="white"/>
<path d="M94.2391 202.976C94.7084 205.98 94.889 209.022 94.7786 212.061C94.5654 218.155 92.2744 224.781 92.6274 230.968C92.6873 231.381 92.7339 231.801 92.7606 232.214C92.7606 232.367 92.7606 232.527 92.7606 232.68C92.7606 232.833 92.6274 232.78 92.6074 232.68C92.5408 232.407 92.4675 232.134 92.3876 231.854L92.2677 231.421C90.5361 225.108 87.8455 219.114 87.9121 212.454C87.9521 208.351 88.9377 197.209 91.715 196.916C92.9404 196.776 93.9461 201.132 94.2391 202.976Z" fill="#EBEBEB"/>
<path d="M91.7483 203.07C91.0823 203.236 90.8425 204.462 90.7026 204.961C90.3671 206.306 90.1444 207.676 90.0366 209.057C89.7969 211.618 89.7969 214.195 90.0366 216.756C90.3601 221.7 91.1314 226.604 92.341 231.408L92.4609 231.841C92.5408 232.121 92.6141 232.394 92.6807 232.667C92.6807 232.747 92.8405 232.733 92.8338 232.667C92.8272 232.6 92.8338 232.354 92.8338 232.201C91.9347 226.773 92.2078 221.318 92.6274 215.817C92.654 214.605 94.0992 202.464 91.7483 203.07ZM92.714 208.298C92.674 209.463 92.6007 210.616 92.5208 211.781C92.341 214.485 92.1012 217.196 91.9481 219.9C91.7571 222.857 91.7794 225.824 92.0147 228.777C91.3021 225.326 90.7663 221.841 90.4096 218.334C90.1743 216.023 90.0854 213.698 90.1432 211.375C90.182 210.114 90.3044 208.857 90.5095 207.612C90.6094 207.019 91.049 203.556 91.8415 203.409C92.7672 203.223 92.7406 207.792 92.714 208.298Z" fill="white"/>
<path d="M121.512 196.403C122.591 198.461 121.192 201.858 120.033 203.563C118.382 206.001 115.917 207.672 113.32 208.991C109.557 210.896 105.528 212.141 102.151 214.752C98.7746 217.362 99.8668 216.577 97.1495 220.213C97.0962 220.286 97.023 220.266 96.9764 220.213C96.9253 220.109 96.8987 219.995 96.8987 219.88C96.8987 219.764 96.9253 219.651 96.9764 219.547C96.9854 219.511 96.9965 219.475 97.0097 219.44C100.107 213.187 104.555 208.665 110.103 204.415C113.247 202.011 115.544 198.615 118.761 196.337C119.987 195.464 120.766 194.978 121.512 196.403Z" fill="#EBEBEB"/>
<path d="M119.274 199.567C118.395 198.901 116.77 200.639 116.131 201.252C114.333 203.081 112.374 204.744 110.276 206.22C108.351 207.404 106.507 208.715 104.755 210.143C102.126 212.405 99.8571 215.055 98.0286 218.002C97.6623 218.481 97.316 218.994 96.9897 219.52C96.9386 219.624 96.912 219.738 96.912 219.853C96.912 219.969 96.9386 220.083 96.9897 220.186C96.9897 220.12 97.0629 220.053 97.1029 219.987C99.5538 216.057 102.917 213.327 107.219 211.275C111.522 209.224 115.618 206.806 118.475 202.904C118.968 202.211 120.087 200.18 119.274 199.567ZM118.548 202.351C118.077 203.027 117.563 203.672 117.01 204.282C115.998 205.384 114.883 206.385 113.68 207.273C111.517 208.782 109.216 210.082 106.807 211.155C104.027 212.456 101.507 214.25 99.3673 216.45C101.116 214.001 103.176 211.789 105.494 209.87C107.579 208.165 109.963 206.92 112.081 205.281C113.06 204.522 113.959 203.676 114.858 202.837C115.345 202.378 115.824 201.911 116.31 201.458C116.797 201.006 118.142 199.58 118.821 199.867C119.707 200.186 118.741 202.078 118.548 202.351Z" fill="white"/>
<path d="M64.3024 167.399C68.8112 175.191 72.8405 183.236 76.5635 191.428C76.5875 191.473 76.5953 191.524 76.5855 191.574C76.5758 191.624 76.5492 191.669 76.5102 191.701C76.5133 191.717 76.5133 191.733 76.5102 191.748C76.5364 191.797 76.5586 191.848 76.5768 191.901C76.5857 191.927 76.5844 191.955 76.5732 191.98C76.5621 192.004 76.5419 192.024 76.5169 192.034H76.4702C76.4508 192.033 76.4319 192.027 76.4147 192.018C76.3975 192.009 76.3824 191.996 76.3703 191.981C73.4533 187.672 70.7027 183.629 66.5935 180.333C62.8306 177.316 59.061 174.678 56.0374 170.869C53.4599 167.612 47.2595 152.847 49.3241 150.05C50.6827 148.165 60.7127 161.205 64.3024 167.399Z" fill="#EBEBEB"/>
<path d="M57.9421 161.518C57.3294 160.626 55.6844 157.269 54.1326 157.569C52.5808 157.868 54.2658 161.265 54.5655 161.971C55.6153 164.588 56.9203 167.095 58.4616 169.457C60.04 171.781 62.1246 173.533 64.1026 175.497C68.9511 180.346 72.9205 186.153 76.4236 192.041H76.4703C76.4953 192.03 76.5155 192.011 76.5266 191.986C76.5378 191.961 76.5391 191.933 76.5302 191.908C76.512 191.855 76.4898 191.804 76.4636 191.754C76.4666 191.739 76.4666 191.723 76.4636 191.708C71.3154 181.085 64.6021 171.248 57.9421 161.518ZM76.0573 191.315C73.6862 187.222 71.0149 183.311 68.0653 179.613C64.6487 175.324 60.1199 172.087 57.4093 167.259C55.994 164.927 54.8754 162.428 54.0793 159.82C53.9861 159.473 53.6198 158.301 54.0793 157.968C54.5389 157.635 55.4113 158.335 56.4436 159.74C57.2894 160.912 58.0753 162.131 58.8878 163.33C62.0846 168.032 65.2548 172.753 68.2651 177.589C71.0357 182.064 73.6375 186.64 76.0707 191.315H76.0573Z" fill="white"/>
<path d="M78.8078 220.745C78.8073 220.78 78.793 220.814 78.7679 220.839C78.747 220.874 78.7131 220.9 78.6734 220.911C78.6337 220.923 78.5911 220.918 78.5548 220.899L78.0286 220.605C78.0218 220.61 78.0137 220.613 78.0053 220.613C77.9969 220.613 77.9888 220.61 77.982 220.605C73.9061 219.22 70.363 219.234 66.1339 219.447C63.0099 219.591 59.8993 218.954 57.0829 217.595C54.0125 216.063 51.2138 214.038 48.7979 211.601C47.7989 210.629 44.4556 208.238 45.4679 206.34C47.1262 203.23 57.3959 209.81 59.2008 210.822C62.3857 212.677 65.682 214.334 69.0709 215.784C72.4342 217.169 75.8108 218.448 78.7612 220.632C78.779 220.645 78.7929 220.662 78.8012 220.682C78.8094 220.702 78.8117 220.724 78.8078 220.745Z" fill="#EBEBEB"/>
<path d="M76.69 219.78C74.7586 218.907 72.8605 217.955 70.8958 217.183C68.6914 216.323 66.3471 215.897 64.1359 215.038C60.0001 213.426 56.2372 211.042 52.1946 209.237C51.6617 209.004 50.6161 208.571 50.716 209.563C50.756 209.996 51.2821 210.449 51.5419 210.736C52.3586 211.599 53.2501 212.387 54.2059 213.093C57.396 215.498 61.2388 217.555 65.2215 218.182C69.8435 218.901 74.4656 218.947 78.7879 220.846C78.813 220.821 78.8274 220.787 78.8279 220.752C78.1423 220.372 77.4274 220.047 76.69 219.78ZM66.7 218.048C61.6044 217.363 56.832 215.163 53.0004 211.735C52.4418 211.228 51.9105 210.692 51.4087 210.13C51.1156 209.763 50.7427 209.024 52.0747 209.464C52.3812 209.581 52.6793 209.719 52.9671 209.877C54.0061 210.376 55.0317 210.895 56.0573 211.428C58.2418 212.56 60.4196 213.726 62.6774 214.705C64.6909 215.539 66.7634 216.222 68.8778 216.75C71.4083 217.517 73.8773 218.475 76.2638 219.613C73.2135 218.614 69.9301 218.448 66.7267 218.055L66.7 218.048Z" fill="white"/>
<path d="M68.598 209.231C68.6175 209.294 68.6175 209.361 68.598 209.424C68.5843 209.457 68.5664 209.488 68.5448 209.517C68.5188 209.551 68.4872 209.58 68.4515 209.604H68.4116C68.3662 209.631 68.3145 209.645 68.2617 209.645C68.209 209.645 68.1572 209.631 68.1118 209.604C67.5322 209.262 66.978 208.879 66.4535 208.458C60.0599 204.409 53.5265 200.173 48.8844 194.139C46.5379 191.035 44.5891 187.65 43.0836 184.062C42.3377 182.311 40.0666 178.495 41.4719 176.537C42.8771 174.579 44.4888 176.35 45.6077 177.489C48.5359 180.424 51.2785 183.538 53.8195 186.813C56.3105 190.057 58.4326 193.569 60.1465 197.283C62.1911 201.731 64.0959 206.294 68.4182 208.998C68.464 209.02 68.5041 209.053 68.5353 209.093C68.5665 209.134 68.5879 209.181 68.598 209.231Z" fill="#EBEBEB"/>
<path d="M57.7889 196.836C54.6891 191.912 51.2345 187.219 47.4526 182.797C46.973 182.218 45.5411 180.692 45.0083 181.971C44.389 183.476 46.3403 185.794 47.0063 186.906C49.6171 191.155 52.573 195.183 55.8442 198.947C59.463 203.132 63.7365 206.701 68.4981 209.517C68.5198 209.488 68.5377 209.457 68.5514 209.424C60.8058 204.608 54.6121 197.675 49.5505 190.176C48.325 188.365 47.0863 186.533 46.014 184.628C45.8475 184.322 44.9151 182.311 45.5145 181.964C46.1139 181.618 47.5525 183.43 47.7323 183.656C48.5714 184.695 49.4039 185.741 50.2431 186.793C53.3263 190.751 56.1963 194.87 58.8412 199.134C61.3373 203.196 64.6453 206.699 68.5581 209.424C68.5776 209.361 68.5776 209.293 68.5581 209.23C63.9694 205.96 60.7592 201.645 57.7889 196.836Z" fill="white"/>
<path d="M70.4895 134.579C72.1745 138.248 73.5198 142.018 73.8195 146.074C74.3257 152.261 72.9803 158.368 72.6074 164.522C72.6044 164.546 72.6044 164.571 72.6074 164.595C72.5041 166.268 72.5041 167.945 72.6074 169.617C72.6074 169.977 72.634 170.336 72.6873 170.696C72.6929 170.733 72.6885 170.771 72.6744 170.807C72.6604 170.842 72.6372 170.872 72.6074 170.896C72.564 170.925 72.5132 170.941 72.4609 170.942C72.409 170.945 72.3578 170.931 72.3143 170.902C72.2785 170.883 72.2478 170.855 72.2247 170.822C72.2016 170.788 72.1866 170.75 72.1811 170.709C72.1079 170.19 72.0613 169.677 72.0146 169.164C71.9989 169.157 71.9852 169.145 71.9747 169.132C71.9643 169.118 71.9574 169.101 71.9547 169.084C69.8968 160.886 67.366 152.507 64.8085 144.289C63.6127 140.656 62.7609 136.919 62.2644 133.127C62.0113 130.882 61.8315 127.466 63.7629 125.834C63.8204 125.772 63.8932 125.727 63.9739 125.702C64.0546 125.678 64.1403 125.675 64.2224 125.694C67.4792 126.96 69.1575 131.675 70.4895 134.579Z" fill="#EBEBEB"/>
<path d="M66.6599 134.292C65.1481 133.439 65.0882 135.424 65.1548 136.443C65.434 139.178 65.8789 141.894 66.4868 144.575C67.0551 147.59 67.6656 150.598 68.3183 153.599C69.5637 159.26 71.7149 165.081 72.3143 170.875C72.3577 170.904 72.409 170.918 72.4608 170.915C72.5131 170.914 72.5639 170.898 72.6073 170.869V169.59C72.6073 167.918 72.6073 166.26 72.6073 164.568C72.6043 164.544 72.6043 164.519 72.6073 164.495C72.6473 156.43 72.5274 148.404 69.8967 140.466C69.3106 138.648 68.5181 135.338 66.6599 134.292ZM70.1231 142.058C71.5574 147.015 72.3169 152.142 72.3809 157.302C72.4741 161.405 72.2676 165.501 72.281 169.603C71.8014 166.213 70.7625 162.877 69.9633 159.527C68.7068 154.27 67.5968 148.986 66.6333 143.676C66.3935 142.397 66.1715 141.116 65.9673 139.833C65.7742 138.701 65.2347 136.883 65.4678 135.731C65.9074 133.493 67.4658 135.391 67.9387 136.17C68.3234 136.87 68.6486 137.6 68.911 138.355C69.3306 139.573 69.7502 140.812 70.1231 142.058Z" fill="white"/>
<path d="M111.728 184.935C109.266 192.022 106.325 198.933 102.924 205.621C99.7868 211.788 96.57 217.875 94.3256 224.442C91.3419 233.1 90.1631 243.05 93.1335 251.748C87.3529 241.302 83.3574 229.964 81.312 218.202C77.7289 198.328 74.9317 178.082 69.6437 158.561C69.5571 158.242 69.0975 158.388 69.1508 158.701C70.8291 169.111 73.1934 179.414 74.965 189.81C76.7366 200.206 78.1884 210.536 80.1265 220.826C80.3396 221.945 80.5727 223.044 80.7925 224.156C76.5501 215.971 69.2774 209.097 61.7183 204.435C61.625 204.376 61.5518 204.522 61.6383 204.589C66.8966 208.338 71.4986 212.931 75.258 218.182C78.588 222.757 80.7792 227.726 83.1568 232.78C87.8483 247.491 96.2313 260.753 107.506 271.302C107.53 271.326 107.562 271.339 107.596 271.339C107.629 271.339 107.662 271.326 107.686 271.302C107.709 271.278 107.723 271.246 107.723 271.212C107.723 271.178 107.709 271.146 107.686 271.122C103.222 266.586 99.248 261.592 95.8308 256.224C90.5028 245.068 92.7672 232.094 97.3293 220.806C99.7202 214.885 102.571 209.177 105.268 203.39C107.965 197.602 110.916 191.435 112.055 185.022C112.051 184.985 112.037 184.95 112.013 184.922C111.989 184.894 111.957 184.874 111.922 184.864C111.886 184.855 111.848 184.857 111.814 184.869C111.779 184.882 111.749 184.905 111.728 184.935Z" fill="#EBEBEB"/>
<path d="M166.5 309.563C199.633 309.563 226.493 305.32 226.493 300.086C226.493 294.852 199.633 290.609 166.5 290.609C133.367 290.609 106.507 294.852 106.507 300.086C106.507 305.32 133.367 309.563 166.5 309.563Z" fill="#EBEBEB"/>
<path d="M123.61 270.722H65.4478C65.4478 270.722 65.581 262.064 71.3019 259.773C72.8528 259.099 74.5812 258.947 76.226 259.341C77.8707 259.735 79.3427 260.654 80.4194 261.958C80.4194 261.958 82.7504 246.041 93.4064 246.041C104.062 246.041 109.157 259.773 109.157 259.773C109.157 259.773 111.542 255.624 117.456 256.397C123.37 257.169 123.61 270.722 123.61 270.722Z" fill="#37474F"/>
<path d="M310.756 270.723C310.756 270.723 308.971 262.404 305.428 261.125C301.884 259.847 299.7 263.576 299.7 263.576C299.7 263.576 298.861 255.624 293.813 253.247C288.764 250.869 284.961 255.744 284.961 255.744C284.961 255.744 281.085 245.654 274.166 245.654C267.246 245.654 263.736 260.406 263.736 260.406C263.736 260.406 259.653 256.004 255.464 258.488C251.275 260.972 251.275 270.716 251.275 270.716L310.756 270.723Z" fill="#37474F"/>
<path d="M75.8707 270.723H22.2444C22.2444 270.723 24.0093 263.164 27.5724 262.631C31.1355 262.098 32.7872 265.601 32.7872 265.601C32.7872 265.601 32.634 255.078 39.294 253.26C45.954 251.442 51.5018 260.779 51.5018 260.779C51.5018 260.779 55.6643 255.451 61.3386 255.804C67.0129 256.157 68.4581 264.922 68.4581 264.922C68.4581 264.922 73.593 261.878 75.8707 270.723Z" fill="#455A64"/>
<path d="M255.138 270.723H222.184C222.184 270.723 222.264 265.821 225.514 264.522C226.393 264.139 227.372 264.052 228.304 264.274C229.237 264.496 230.071 265.016 230.682 265.754C230.682 265.754 232.014 256.743 238.008 256.743C244.002 256.743 246.933 264.522 246.933 264.522C246.933 264.522 248.265 262.171 251.642 262.604C255.018 263.037 255.138 270.723 255.138 270.723Z" fill="#455A64"/>
<path d="M14.4388 270.722L52.4541 270.562L90.4694 270.502L166.5 270.389L242.531 270.502L280.546 270.562L318.561 270.722L280.546 270.889L242.531 270.942L166.5 271.055L90.4694 270.942L52.4541 270.889L14.4388 270.722Z" fill="#263238"/>
<path d="M251.542 212.84C251.569 230.805 245.88 248.313 235.298 262.83C226.745 274.604 215.314 283.987 202.099 290.081C188.883 296.174 174.326 298.775 159.818 297.633C145.31 296.492 131.338 291.647 119.238 283.562C107.138 275.477 97.3144 264.423 90.708 251.456C84.1015 238.49 80.9328 224.045 81.505 209.503C82.0771 194.962 86.371 180.811 93.9757 168.403C101.581 155.996 112.242 145.747 124.94 138.638C137.638 131.529 151.947 127.797 166.5 127.799C168.831 127.799 171.14 127.892 173.426 128.079C186.601 129.134 199.345 133.263 210.636 140.133C222.006 147.057 231.601 156.542 238.654 167.832C247.096 181.325 251.562 196.924 251.542 212.84Z" fill="#A3CE00"/>
<g opacity="0.2">
<path opacity="0.2" d="M184.862 252.974C183.789 255.837 185.581 255.957 185.694 257.143C185.807 258.328 185.694 260.599 182.244 264.056C178.794 267.512 173.073 266.793 171.881 268.225C170.689 269.657 168.664 275.724 165.834 277.722C163.003 279.72 162.504 278.555 158.448 279.394C154.392 280.233 151.302 285.468 150.11 287.965C148.918 290.463 150.349 294.625 147.492 294.758C144.635 294.892 143.323 288.678 140.706 285.348C138.088 282.018 137.196 279.054 136.39 275.131C135.584 271.209 136.863 262.984 136.39 259.767C135.917 256.55 127.339 250.836 124.242 246.9C121.145 242.964 116.856 235.111 117.096 232.487C117.459 229.946 118.726 227.622 120.666 225.941C122.098 224.868 121.498 224.276 121.738 223.317C121.978 222.358 123.17 222.131 123.403 220.939C123.636 219.747 122.69 216.17 121.498 215.578C120.306 214.985 119.5 217.01 118.761 216.65C118.022 216.29 115.904 213.793 115.071 213.553C114.239 213.313 114.472 215.105 113.28 212.84C112.088 210.576 111.495 204.848 110.543 203.903C109.59 202.957 108.878 205.574 106.613 203.903C104.349 202.231 103.396 199.021 102.444 198.575C101.492 198.129 100.18 198.695 99.2007 196.783C98.2217 194.872 100.06 191.455 99.2007 191.782C98.3415 192.108 96.4901 194.878 96.0105 192.261C95.531 189.644 98.3948 180.826 97.9153 176.064C97.5378 171.04 99.1662 166.071 102.444 162.244C102.444 162.244 102.917 159.627 103.396 157.955C103.876 156.284 114.119 149.624 115.305 147.719C115.801 146.653 116.088 145.503 116.15 144.329C130.73 133.568 148.379 127.773 166.5 127.799C168.831 127.799 171.14 127.892 173.426 128.079L173.666 128.392C174.698 129.724 175.811 130.536 178.828 131.648C181.845 132.761 182.557 134.193 181.925 135.378C181.292 136.563 180.26 136.81 179.067 136.89C177.875 136.97 176.763 136.33 175.498 137.13C174.232 137.929 172.954 142.211 171.289 142.458C169.624 142.704 166.68 138.641 166.047 137.456C165.414 136.27 167.472 133.72 166.5 132.528C165.528 131.335 163.836 131.575 161.119 131.335C158.401 131.096 152.148 132.135 152.387 133.167C152.627 134.199 161.598 133.007 161.838 135.072C162.078 137.136 155.245 140.626 154.059 140.313C152.874 140 151.275 137.929 149.53 137.689C147.785 137.449 146.353 138.881 145.255 139.021C144.156 139.161 142.864 137.829 141.192 138.149C139.52 138.468 139.127 139.893 138.255 140.453C137.382 141.012 135.318 141.006 135.078 142.278C134.838 143.55 137.695 144.276 138.408 145.055C139.121 145.834 137.529 148.551 138.248 149.104C138.968 149.657 143.41 145.774 144.522 144.815C145.634 143.856 146.587 139.734 148.964 139.814C151.342 139.893 152.141 143.943 152.96 144.342C153.779 144.742 155.498 143.39 158.122 143.943C160.746 144.496 162.564 150.216 163.043 151.935C163.523 153.653 164.629 155.431 163.709 156.144C162.79 156.856 158.468 155.671 157.915 154.559C157.362 153.447 160.772 151.775 160.533 151.382C160.293 150.989 158.308 150.43 157.276 151.049C156.244 151.668 155.771 152.967 154.658 153.287C153.546 153.606 150.609 150.27 149.817 151.222C149.024 152.175 150.609 155.218 151.402 155.884C152.194 156.55 155.131 156.99 155.398 157.789C155.664 158.588 153.4 160.326 150.736 160.167C148.072 160.007 145.814 157.942 144.775 158.835C143.736 159.727 144.302 162.005 143.59 162.831C142.877 163.656 138.981 163.07 137.076 165.128C135.171 167.186 134.299 170.29 132.414 172.041C130.529 173.793 129.637 171.562 127.086 174.039C124.535 176.517 124.149 181.978 124.069 183.883C123.989 185.788 124.069 187.299 123.436 187.06C122.804 186.82 121.925 185.155 121.685 184.123C121.445 183.09 122.244 181.339 122.244 180.706C122.244 180.073 118.588 176.817 116.443 176.497C114.299 176.177 112.394 177.929 110.809 179.201C109.224 180.473 106.36 180.233 105.328 181.265C104.296 182.298 103.503 191.429 104.296 193.573C105.088 195.718 106.12 195.718 108.665 194.605C111.209 193.493 109.777 191.349 111.289 191.821C111.965 192.077 112.548 192.532 112.958 193.127C113.369 193.722 113.588 194.428 113.586 195.151C113.586 196.424 110.569 199.441 110.969 200.313C111.368 201.185 113.986 200.153 115.251 200.553C116.517 200.952 117.163 201.745 116.763 204.995C116.363 208.245 116.603 210.796 118.508 211.868C120.413 212.94 121.485 210.316 122.324 210.676C123.163 211.036 124.322 212.94 125.534 212.82C126.746 212.701 126.134 211.628 128.398 210.916C130.663 210.203 129.823 209.724 130.303 208.292C130.782 206.86 132.208 205.674 133.753 206.387C135.298 207.1 134.232 208.172 134.352 209.364C134.472 210.556 137.209 210.696 139.354 211.362C141.498 212.028 142.684 211.362 146.973 212.794C151.262 214.226 151.502 218.508 153.287 219.221C155.071 219.933 161.032 218.748 165.321 221.845C169.61 224.942 168.411 230.656 170.556 232.328C172.7 233.999 180.679 236.257 183.776 236.85C186.873 237.442 187.352 235.305 189.85 235.897C192.347 236.49 193.786 237.229 194.618 240.659C195.245 243.756 185.934 250.116 184.862 252.974Z" fill="black"/>
<path opacity="0.2" d="M120.866 192.075C120.946 192.741 122.93 193.027 125.315 194.379C127.699 195.731 128.565 199.707 129.837 199.62C131.109 199.534 130.709 197.716 131.169 197.236C131.628 196.757 132.441 195.724 131.169 194.692C129.897 193.66 128.658 191.442 126.34 191.122C124.023 190.803 123.623 189.85 122.591 189.93C122.328 189.936 122.071 189.999 121.836 190.115C121.6 190.231 121.393 190.396 121.229 190.601C121.065 190.805 120.947 191.043 120.884 191.297C120.821 191.552 120.815 191.817 120.866 192.075Z" fill="black"/>
<path opacity="0.2" d="M133.966 198.748C133.613 199.72 133.966 200.413 136.51 201.046C139.054 201.678 141.432 200.413 140.639 199.894C139.847 199.374 138.641 199.621 139.127 198.748C139.614 197.876 139.44 196.604 137.376 196.837C135.311 197.07 134.286 197.869 133.966 198.748Z" fill="black"/>
<path opacity="0.2" d="M142.857 199.014C141.991 199.141 141.525 200.653 142.384 201.605C143.243 202.557 143.257 202.398 144.289 201.605C145.321 200.812 146.906 200.413 146.513 199.607C146.12 198.801 143.736 198.888 142.857 199.014Z" fill="black"/>
<path opacity="0.2" d="M149.77 202.257C150.156 201.072 152.148 202.257 153.02 203.51C153.893 204.762 153.5 206.606 153.02 207.958C152.541 209.31 152.228 210.895 151.115 210.256C150.003 209.617 151.195 207.719 151.035 206.606C150.876 205.494 149.45 203.236 149.77 202.257Z" fill="black"/>
<path opacity="0.2" d="M183.989 136.018C183.576 137.017 185.501 137.35 186.613 138.016C187.725 138.682 188.611 139.048 189.231 138.016C189.85 136.983 188.991 135.791 188.118 135.551C187.246 135.312 184.389 135.065 183.989 136.018Z" fill="black"/>
<path opacity="0.2" d="M198.994 145.308C199.733 146.081 200.992 145.941 201.858 147.053C202.724 148.165 202.411 150.07 203.523 150.629C204.635 151.189 205.428 150.629 205.521 149.83C205.614 149.031 203.936 147.053 204.089 146.66C204.242 146.267 206.393 147.213 206.873 148.405C207.352 149.597 206.393 151.262 207.506 151.582C208.618 151.902 208.378 150.47 208.838 150.15C209.297 149.83 210.343 149.99 210.263 149.038C210.183 148.085 208.931 146.021 207.885 145.308C206.84 144.595 206.06 143.796 204.309 143.403C202.557 143.01 200.899 143.323 200.02 144.069C199.141 144.815 198.548 144.829 198.994 145.308Z" fill="black"/>
<path opacity="0.2" d="M233.353 160.273C233.301 160.594 233.141 160.887 232.9 161.105C231.235 162.298 229.25 158.168 226.946 157.376C224.642 156.583 223.616 153.646 223.137 154.279C222.657 154.912 222.817 155.791 222.104 156.816C221.392 157.842 220.359 157.616 219.88 159.6C219.4 161.585 222.104 165.235 221.472 166.427C220.839 167.619 220.04 167.219 218.768 167.146C217.496 167.073 217.735 168.172 216.07 167.699C214.405 167.226 215.831 165.155 213.213 162.697C210.596 160.24 209.717 159.76 210.276 158.648C210.836 157.536 210.036 155.951 211.229 155.791C212.421 155.631 213.366 157.376 214.166 157.855C214.965 158.335 215.99 156.903 216.07 155.631C216.15 154.359 213.286 152.614 212.254 151.635C211.222 150.656 211.142 147.06 211.542 146.347C211.941 145.634 213.133 145.867 213.446 144.122C213.633 143.097 212.008 141.379 210.636 140.126C219.349 145.434 227.043 152.256 233.353 160.273Z" fill="black"/>
<path opacity="0.2" d="M245.208 231.462C245.448 228.918 244.176 228.758 245.448 224.076C246.72 219.394 244.116 214.385 243.143 213.353C242.171 212.321 240.126 212.641 238.481 213.673C236.836 214.705 238.002 215.498 236.889 215.897C235.777 216.297 234.672 215.658 233.639 215.737C232.607 215.817 231.641 218.435 229.43 218.355C227.219 218.275 225.774 215.105 224.102 212.84C222.431 210.576 219.021 209.144 217.908 206.367C216.796 203.59 218.941 199.301 218.461 196.044C217.982 192.787 215.844 193.506 215.444 191.682C215.045 189.857 215.764 190.729 216.317 188.978C216.87 187.226 215.684 186.28 216.796 183.263C217.908 180.246 219.893 178.734 219.414 177.389C218.934 176.044 217.416 173.813 217.349 172.228C217.282 170.643 218.861 170.716 221.878 168.491C224.895 166.267 225.687 166.427 227.992 167.219C229.645 167.83 231.344 168.309 233.073 168.651C234.405 168.891 236.25 172.381 236.803 172.221C237.356 172.061 237.469 171.036 237.682 169.557C237.834 168.901 238.177 168.306 238.668 167.845C247.635 182.215 252.108 198.935 251.515 215.863C250.922 232.791 245.289 249.157 235.338 262.864C243.396 250.469 244.968 233.999 245.208 231.462Z" fill="black"/>
</g>
<path opacity="0.1" d="M232.381 266.613C223.309 277.729 211.571 286.369 198.261 291.728C184.951 297.087 170.502 298.991 156.258 297.263C142.014 295.535 128.439 290.232 116.797 281.846C105.154 273.46 95.8223 262.265 89.6703 249.303C83.5184 236.34 80.7462 222.032 81.6118 207.71C82.4775 193.388 86.9528 179.518 94.6211 167.39C102.289 155.263 112.902 145.273 125.469 138.351C138.037 131.428 152.152 127.798 166.501 127.799C168.832 127.799 171.143 127.892 173.434 128.079C174.066 128.125 174.699 128.185 175.325 128.252C163.307 129.562 151.759 133.65 141.594 140.193C131.429 146.735 122.925 155.554 116.756 165.95C110.587 176.346 106.921 188.035 106.049 200.093C105.177 212.15 107.122 224.245 111.731 235.421C116.339 246.597 123.485 256.547 132.603 264.485C141.72 272.423 152.56 278.131 164.264 281.157C175.968 284.182 188.216 284.444 200.038 281.919C211.861 279.395 222.934 274.155 232.381 266.613Z" fill="black"/>
<path opacity="0.3" d="M251.542 212.84C251.573 230.806 245.884 248.315 235.298 262.83C227.322 273.789 216.853 282.692 204.755 288.804C215.292 282.779 224.433 274.589 231.575 264.775C241.587 250.992 247.257 234.534 247.858 217.509C248.46 200.483 243.966 183.666 234.952 169.211C227.851 157.862 218.2 148.328 206.766 141.365C195.417 134.441 182.602 130.275 169.351 129.204C167.053 129.018 164.722 128.924 162.384 128.924C155.466 128.929 148.573 129.772 141.858 131.435C149.848 129.018 158.152 127.792 166.5 127.799C168.831 127.799 171.142 127.892 173.433 128.079C186.606 129.131 199.349 133.259 210.636 140.133C219.349 145.438 227.042 152.259 233.353 160.273C245.145 175.257 251.552 193.773 251.542 212.84Z" fill="white"/>
<path d="M204.069 181.885H247.026C247.026 181.885 244.888 179.101 242.531 178.754C242.531 178.754 237.955 165.121 230.29 165.028C223.157 164.935 220.3 173.413 220.3 173.413C220.3 173.413 217.003 169.61 213.846 171.348C210.689 173.087 208.904 178.062 208.904 178.062C208.904 178.062 205.354 179.973 204.069 181.885Z" fill="white"/>
<path d="M164.842 222.857H110.556C110.556 222.857 110.556 219.387 118.042 218.708C118.042 218.708 124.875 203.536 135.305 205.574C141.798 206.846 145.121 215.764 145.121 215.764C145.121 215.764 150.03 208.744 153.959 210.103C157.889 211.462 160.213 218.934 160.213 218.934C160.213 218.934 164.229 220.892 164.842 222.857Z" fill="white"/>
<path d="M216.363 161.672H179.427C179.427 161.672 182.91 158.428 184.462 158.428C186.014 158.428 190.529 147.539 196.31 148.005C202.091 148.471 205.128 156.577 205.128 156.577C205.128 156.577 212.174 154.372 216.363 161.672Z" fill="white"/>
<path d="M117.562 238.268H85.9739C85.9739 238.268 87.5456 236.224 89.3039 235.971C89.3039 235.971 92.6738 225.947 98.3082 225.874C103.55 225.807 105.634 232.035 105.634 232.035C105.634 232.035 108.058 229.244 110.383 230.523C112.707 231.801 114.012 235.458 114.012 235.458C114.012 235.458 116.617 236.863 117.562 238.268Z" fill="white"/>
<path d="M184.136 264.176H227.106C227.106 264.176 224.968 261.399 222.611 261.052C222.611 261.052 218.035 247.419 210.369 247.32C203.243 247.233 200.379 255.704 200.379 255.704C200.379 255.704 197.049 251.902 193.919 253.64C190.789 255.378 188.978 260.353 188.978 260.353C188.978 260.353 185.421 262.265 184.136 264.176Z" fill="white"/>
<path d="M161.212 27.3061C172.141 32.4676 178.974 53.6464 173.466 70.8625C167.512 89.4705 148.465 93.0203 137.502 89.0443C125.874 84.8019 122.371 71.9281 127.652 64.2758C132.76 56.8499 141.145 54.652 143.423 47.8722C144.522 44.6221 144.362 38.6281 145.767 33.7596C147.333 28.3317 154.605 24.1626 161.212 27.3061Z" fill="#263238"/>
<path d="M165.428 30.2366C169.718 34.8347 173.028 40.2569 175.158 46.174C176.225 49.1419 176.916 52.2317 177.216 55.3714C177.35 56.9439 177.381 58.5235 177.309 60.1C177.227 61.6733 177.058 63.2408 176.803 64.7953C175.751 70.9825 173.22 77.0697 168.858 81.6784C166.691 83.9749 164.133 85.869 161.305 87.2728C158.489 88.6627 155.454 89.555 152.334 89.9102C158.548 88.995 164.257 85.9654 168.498 81.3321C172.694 76.7434 175.158 70.7893 176.157 64.6821C176.417 63.1521 176.595 61.6092 176.69 60.0601C176.768 58.5062 176.746 56.949 176.623 55.3981C176.339 52.304 175.688 49.2546 174.685 46.3138C173.683 43.3671 172.387 40.5289 170.816 37.8423C169.27 35.1385 167.466 32.5913 165.428 30.2366Z" fill="#263238"/>
<path d="M144.642 39.9602C144.553 41.697 144.308 43.4223 143.909 45.115C143.487 46.8256 142.795 48.4579 141.858 49.9502C140.9 51.4398 139.668 52.7347 138.228 53.7664C136.803 54.7654 135.398 55.7644 134.052 56.8233C131.292 58.8541 128.965 61.4148 127.206 64.3558C125.504 67.3707 124.868 70.8715 125.401 74.2925C125.02 72.5881 124.936 70.8305 125.155 69.0977C125.267 68.2283 125.463 67.3718 125.741 66.5403C126.014 65.7057 126.355 64.895 126.76 64.116C128.391 60.9792 130.956 58.4617 133.66 56.2905C135.025 55.2049 136.477 54.2326 137.889 53.2536C139.281 52.2732 140.486 51.0505 141.445 49.6438C143.376 46.8333 144.162 43.3701 144.642 39.9602Z" fill="#263238"/>
<path d="M158.848 64.7685C155.731 72.6873 138.082 102.91 120.293 100.639C114.252 99.8667 116.297 75.631 129.617 52.4475C130.01 51.7815 147.952 55.7775 147.526 60.1664C147.479 60.6326 142.817 70.5893 143.337 70.7159C143.416 70.7159 145.614 68.7179 155.238 60.3463C160.033 56.1438 160.626 60.2597 158.848 64.7685Z" fill="#EB9481"/>
<path d="M143.33 70.6294C141.358 76.4014 139.258 82.1468 137.029 87.8655C136.403 89.4506 135.791 91.0423 135.178 92.6274C135.178 92.6874 135.245 92.7207 135.271 92.6674C136.683 89.9515 137.953 87.1638 139.074 84.3157C140.193 81.4986 141.259 78.6214 142.091 75.711C142.571 74.0327 143.023 72.381 143.423 70.6561C143.42 70.6472 143.415 70.6392 143.408 70.6328C143.401 70.6263 143.392 70.6216 143.383 70.619C143.374 70.6164 143.365 70.616 143.355 70.6178C143.346 70.6196 143.337 70.6236 143.33 70.6294Z" fill="#263238"/>
<path d="M144.236 68.738C144.236 68.738 142.904 69.9901 143.703 70.8959C144.502 71.8016 146.26 70.8959 146.26 70.8959C146.26 70.8959 145.394 72.4144 146.333 73.2202C147.273 74.0261 148.838 72.7873 148.838 72.7873C148.838 72.7873 147.985 74.3391 148.911 75.1516C149.837 75.9641 151.342 74.6455 151.342 74.6455C151.342 74.6455 150.563 76.2505 151.342 76.9964C152.121 77.7424 153.513 76.3837 153.513 76.3837C153.513 76.3837 152.747 77.9755 153.593 78.6015C154.439 79.2275 155.824 77.6491 155.824 77.6491L144.236 68.738Z" fill="white"/>
<path d="M143.59 69.0311L155.764 78.3551C155.764 78.3551 160.932 67.1796 161.518 62.5109C162.104 57.8423 160.852 55.5113 154.079 60.2665C150.311 62.8462 146.798 65.7812 143.59 69.0311Z" fill="#A3CE00"/>
<path d="M161.518 62.4975C160.932 67.1595 155.764 78.3417 155.764 78.3417L147.139 71.7483L158.888 57.7622C161.438 57.1695 161.918 59.2741 161.518 62.4975Z" fill="#263238"/>
<path d="M127.546 56.7766C127.546 56.7766 130.396 49.4506 134.778 45.4546C137.815 42.684 142.104 38.2085 153.806 41.8049C156.59 42.6574 161.132 47.3727 159.36 49.0044C157.589 50.6361 154.032 45.6743 149.91 45.2148C149.91 45.2148 153.706 49.5438 152.747 52.2944C151.902 54.689 150.889 57.0213 149.717 59.2741C149.253 59.1507 148.797 58.9994 148.352 58.8212C148.352 58.8212 147.372 61.372 143.556 63.0236L127.546 56.7766Z" fill="#EB9481"/>
<path d="M138.095 43.2502C140.253 43.2035 144.815 43.1769 148.558 44.449C152.707 45.8675 160.333 49.7237 159.254 52.7806C158.461 55.0184 155.424 53.8063 155.424 53.8063C155.424 53.8063 158.242 56.0573 157.083 57.9288C156.03 59.6338 153.753 58.5482 153.753 58.5482C153.753 58.5482 155.225 60.2132 153.893 61.6584C152.294 63.3967 148.445 58.8146 145.301 59.1676C144.575 59.2741 138.095 43.2502 138.095 43.2502Z" fill="#EB9481"/>
<path d="M146.327 48.6182C149.805 49.3614 152.975 51.1481 155.411 53.7397C155.464 53.8063 155.444 53.8929 155.411 53.8396C152.603 51.7351 149.547 49.9817 146.314 48.6182C146.314 48.6182 146.3 48.6182 146.327 48.6182Z" fill="#263238"/>
<path d="M148.331 44.0359C151.81 44.7791 154.979 46.5658 157.416 49.1574C157.469 49.224 157.456 49.3039 157.382 49.2573C154.582 47.1692 151.538 45.4292 148.318 44.0758C148.318 44.0758 148.305 44.0359 148.331 44.0359Z" fill="#263238"/>
<path d="M145.015 52.8271C146.74 53.2534 151.242 55.3513 153.779 58.4815C153.833 58.5547 153.779 58.6347 153.746 58.5814C151.055 56.3546 148.121 54.4378 145.001 52.8671L145.015 52.8271Z" fill="#263238"/>
<path d="M148.052 59.727C146.591 58.7625 144.865 58.2804 143.117 58.3484C143.103 58.3484 143.089 58.354 143.079 58.364C143.069 58.374 143.063 58.3875 143.063 58.4016C143.063 58.4158 143.069 58.4293 143.079 58.4393C143.089 58.4493 143.103 58.4549 143.117 58.4549C144.529 58.7679 145.681 59.1209 145.701 59.1209C143.903 61.2921 140.719 62.1779 139.354 62.4509C139.267 62.4509 139.301 62.5974 139.354 62.5974C141.858 62.5974 144.629 61.4586 145.854 59.1942C146.557 59.4539 147.272 59.6762 147.999 59.8602C148.052 59.7936 148.078 59.7536 148.052 59.727Z" fill="#263238"/>
<path d="M97.1693 148.731C97.6422 147.193 123.809 110.909 125.661 110.177C125.874 110.083 138.135 118.402 138.135 118.402C138.648 119.068 161.478 113.686 161.478 113.686L162.337 141.359L120.526 141.412C120.526 141.412 114.952 144.862 109.87 147.679C107.702 148.959 105.46 150.111 103.157 151.129C101.039 151.715 96.6898 150.256 97.1693 148.731Z" fill="#EB9481"/>
<path d="M103.117 151.136C105.422 150.122 107.664 148.97 109.83 147.686C114.932 144.868 120.486 141.419 120.486 141.419H129.81L143.856 117.576C140.672 118.242 138.295 118.608 138.135 118.395C138.135 118.395 125.874 110.083 125.661 110.177C123.836 110.909 97.6422 147.193 97.1693 148.731C96.6964 150.27 101.032 151.722 103.117 151.136Z" fill="#EBEBEB"/>
<path d="M96.923 148.784C97.4225 147.206 123.736 110.936 125.614 110.156C126.327 109.87 132.314 113.38 138.135 118.368L121.139 141.732C121.139 141.732 105.155 150.656 103.03 151.255C100.906 151.855 96.4301 150.356 96.923 148.784Z" fill="#455A64"/>
<path d="M98.7545 149.317C103.317 143.323 121.145 118.828 125.201 112.581C125.201 112.527 125.201 112.501 125.161 112.581C120.499 118.395 102.877 143.057 98.6546 149.271C98.568 149.377 98.6546 149.444 98.7545 149.317Z" fill="#263238"/>
<path d="M106.027 149.903C106.535 149.24 106.899 148.478 107.098 147.666C107.296 146.855 107.324 146.011 107.179 145.188C106.934 143.705 106.125 142.373 104.922 141.472C104.882 141.472 104.835 141.512 104.868 141.545C105.923 142.626 106.599 144.02 106.793 145.517C106.988 147.015 106.691 148.536 105.947 149.85C105.894 149.897 105.987 149.95 106.027 149.903Z" fill="#263238"/>
<path d="M119.147 143.23C120.946 140.819 122.138 137.376 121.245 134.419C121.205 134.306 121.045 134.353 121.032 134.419C120.601 137.356 119.857 140.238 118.814 143.017C118.8 143.039 118.791 143.063 118.786 143.089C118.782 143.115 118.782 143.141 118.788 143.166C118.793 143.192 118.804 143.216 118.819 143.237C118.834 143.258 118.852 143.276 118.874 143.29C118.896 143.304 118.921 143.314 118.946 143.318C118.972 143.323 118.998 143.322 119.023 143.317C119.049 143.311 119.073 143.301 119.094 143.286C119.115 143.271 119.133 143.252 119.147 143.23Z" fill="#263238"/>
<path d="M117.049 144.575C118.854 142.164 120.04 138.721 119.147 135.764C119.114 135.651 118.948 135.698 118.934 135.798C118.508 138.735 117.767 141.617 116.723 144.396C116.702 144.439 116.698 144.488 116.712 144.534C116.727 144.58 116.758 144.618 116.8 144.642C116.842 144.665 116.892 144.671 116.938 144.659C116.985 144.646 117.024 144.616 117.049 144.575Z" fill="#263238"/>
<path d="M114.958 145.921C116.756 143.51 117.942 140.067 117.049 137.11C117.016 136.996 116.856 137.05 116.836 137.149C116.41 140.086 115.668 142.969 114.625 145.748C114.615 145.79 114.619 145.834 114.637 145.873C114.655 145.913 114.685 145.945 114.724 145.965C114.762 145.985 114.806 145.991 114.849 145.983C114.891 145.975 114.93 145.953 114.958 145.921Z" fill="#263238"/>
<path d="M112.86 147.266C114.659 144.862 115.851 141.412 114.958 138.461C114.918 138.342 114.758 138.395 114.745 138.461C114.322 141.408 113.587 144.301 112.554 147.093C112.547 147.131 112.552 147.17 112.569 147.205C112.585 147.24 112.612 147.269 112.646 147.288C112.679 147.307 112.718 147.315 112.757 147.311C112.795 147.307 112.831 147.291 112.86 147.266Z" fill="#263238"/>
<path d="M129.87 118.315C131.868 115.584 127.592 112.507 125.621 115.251C123.65 117.995 127.872 121.059 129.87 118.315Z" fill="#263238"/>
<path d="M123.729 150.57C125.648 150.077 125.774 147.799 125.268 146.274C124.343 143.665 122.749 141.346 120.646 139.547C120.639 139.538 120.63 139.53 120.62 139.524C120.609 139.519 120.598 139.516 120.586 139.516C120.574 139.516 120.563 139.519 120.552 139.524C120.542 139.53 120.533 139.538 120.526 139.547C120.473 139.522 120.415 139.511 120.357 139.513C120.299 139.515 120.242 139.531 120.191 139.56C120.14 139.589 120.097 139.629 120.065 139.678C120.033 139.727 120.013 139.782 120.006 139.84C119.953 142.444 119.567 145.215 120.306 147.759C120.739 149.271 121.925 151.029 123.729 150.57ZM120.726 143.856C120.726 142.578 120.786 141.305 120.726 140.02C121.625 141.352 122.577 142.604 123.343 144.016C123.721 144.688 124.052 145.384 124.335 146.101C124.755 147.206 125.055 151.076 122.238 149.431C120.686 148.438 120.732 145.355 120.726 143.856Z" fill="#263238"/>
<path d="M124.136 132.847C122.271 134.725 121.285 137.349 120.1 139.667C120.077 139.721 120.068 139.779 120.073 139.837C120.077 139.895 120.096 139.951 120.126 140C120.157 140.05 120.199 140.091 120.249 140.121C120.298 140.151 120.355 140.169 120.413 140.173C120.411 140.185 120.413 140.198 120.417 140.209C120.421 140.22 120.428 140.23 120.438 140.238C120.447 140.246 120.458 140.252 120.47 140.254C120.482 140.257 120.494 140.257 120.506 140.253C123.213 139.672 125.719 138.388 127.772 136.53C128.951 135.431 129.923 133.367 128.471 132.021C127.019 130.676 125.208 131.748 124.136 132.847ZM126.586 132.381C129.863 132.248 127.759 135.505 126.86 136.284C126.27 136.771 125.647 137.216 124.995 137.616C123.635 138.441 122.235 139.197 120.799 139.88C121.465 138.775 122.004 137.629 122.617 136.504C123.35 135.198 124.775 132.454 126.586 132.381Z" fill="#263238"/>
<path d="M162.551 107.046L181.312 104.742C181.312 104.742 208.158 95.6842 224.049 99.1274C242.264 103.07 245.721 124.009 227.779 133.24C210.023 142.371 130.123 142.764 130.123 142.764L146.107 116.697C146.107 116.697 172.081 109.371 195.145 109.637L162.757 114.798L162.551 107.046Z" fill="#263238"/>
<path d="M162.977 112.394C165.754 111.815 168.578 111.462 171.395 111.062C174.212 110.663 177.076 110.343 179.926 110.037C185.609 109.414 191.32 109.081 197.036 109.038C197.569 109.038 198.102 109.038 198.641 109.038C198.754 108.998 198.874 108.971 198.987 108.938L199.807 108.738C200.319 108.625 200.839 108.538 201.358 108.445C202.431 108.258 203.516 108.119 204.582 107.892C204.648 107.892 204.675 107.979 204.615 107.992C203.536 108.258 202.484 108.591 201.405 108.851C201.092 108.931 200.786 109.004 200.473 109.071C202.571 109.138 204.662 109.251 206.76 109.391C206.826 109.391 206.826 109.497 206.76 109.497C203.916 109.391 201.045 109.437 198.202 109.55C195.358 109.664 192.547 109.79 189.723 110.017C184.022 110.47 178.321 111.116 172.647 111.835C169.464 112.241 166.267 112.714 163.063 112.92C162.75 112.967 162.664 112.461 162.977 112.394Z" fill="#455A64"/>
<path d="M136.643 141.858C137.629 140.2 138.461 138.435 139.354 136.73L142.058 131.595C143.863 128.178 150.349 116.697 150.996 115.884C151.035 115.837 151.122 115.884 151.102 115.951C150.809 116.836 146.766 124.436 145.841 126.127C143.976 129.517 142.018 132.847 140.086 136.197C139.534 137.149 138.961 138.095 138.401 139.048C137.842 140 137.243 140.932 136.73 141.911C136.703 141.938 136.61 141.858 136.643 141.858Z" fill="#455A64"/>
<path d="M229.344 149.117C228.837 147.592 201.831 111.908 199.986 111.222C199.773 111.129 187.705 119.72 187.705 119.72C187.206 120.386 164.256 115.538 164.256 115.538L164.029 143.223L205.834 142.331C205.834 142.331 211.475 145.661 216.643 148.325C218.838 149.572 221.106 150.684 223.436 151.655C225.547 152.188 229.856 150.636 229.344 149.117Z" fill="#EB9481"/>
<path d="M223.456 151.655C222.65 151.449 219.84 150.037 216.663 148.325C211.502 145.621 205.854 142.331 205.854 142.331L196.53 142.531L181.964 119.028C185.161 119.594 187.546 119.933 187.705 119.694C187.705 119.694 199.773 111.102 199.986 111.196C201.831 111.862 228.838 147.566 229.344 149.091C229.85 150.616 225.548 152.195 223.456 151.655Z" fill="#EBEBEB"/>
<path d="M229.59 149.184C229.057 147.619 201.931 111.955 200.033 111.222C199.32 110.949 193.413 114.599 187.705 119.714L205.221 142.684C205.221 142.684 221.385 151.249 223.543 151.801C225.701 152.354 230.123 150.729 229.59 149.184Z" fill="#455A64"/>
<path d="M227.772 149.737C223.11 143.869 204.702 119.767 200.506 113.606C200.473 113.56 200.506 113.533 200.539 113.606C205.321 119.321 223.51 143.576 227.845 149.69C227.965 149.79 227.872 149.85 227.772 149.737Z" fill="#263238"/>
<path d="M220.519 150.516C219.999 149.868 219.618 149.119 219.4 148.317C219.183 147.515 219.133 146.677 219.254 145.854C219.469 144.366 220.249 143.019 221.432 142.091C221.432 142.091 221.518 142.131 221.485 142.165C220.456 143.267 219.812 144.675 219.651 146.175C219.49 147.675 219.82 149.187 220.593 150.483C220.626 150.516 220.553 150.516 220.519 150.516Z" fill="#263238"/>
<path d="M207.246 144.116C205.394 141.745 204.129 138.328 204.955 135.351C204.988 135.238 205.148 135.285 205.168 135.384C205.665 138.31 206.471 141.174 207.572 143.929C207.584 143.971 207.582 144.016 207.566 144.056C207.55 144.096 207.521 144.13 207.483 144.152C207.445 144.173 207.401 144.181 207.358 144.175C207.315 144.168 207.276 144.147 207.246 144.116Z" fill="#263238"/>
<path d="M209.37 145.415C207.519 143.044 206.253 139.627 207.079 136.65C207.113 136.537 207.272 136.583 207.292 136.65C207.789 139.575 208.595 142.44 209.697 145.195C209.711 145.216 209.721 145.24 209.726 145.266C209.731 145.291 209.732 145.317 209.727 145.342C209.722 145.368 209.712 145.392 209.697 145.413C209.683 145.435 209.665 145.453 209.643 145.468C209.622 145.482 209.598 145.492 209.573 145.498C209.547 145.503 209.521 145.503 209.496 145.498C209.47 145.493 209.446 145.483 209.425 145.469C209.403 145.454 209.385 145.436 209.37 145.415Z" fill="#263238"/>
<path d="M211.502 146.713C209.643 144.342 208.378 140.926 209.204 137.949C209.237 137.836 209.404 137.882 209.417 137.982C209.914 140.905 210.72 143.767 211.821 146.52C211.834 146.541 211.842 146.565 211.846 146.589C211.85 146.613 211.849 146.638 211.843 146.662C211.837 146.685 211.826 146.708 211.812 146.728C211.797 146.747 211.779 146.764 211.758 146.777C211.737 146.789 211.714 146.798 211.689 146.801C211.665 146.805 211.64 146.804 211.617 146.798C211.593 146.792 211.57 146.782 211.551 146.767C211.531 146.753 211.514 146.734 211.502 146.713Z" fill="#263238"/>
<path d="M213.626 148.012C211.768 145.641 210.503 142.224 211.328 139.254C211.362 139.134 211.528 139.181 211.541 139.254C212.034 142.198 212.842 145.081 213.952 147.852C213.957 147.892 213.949 147.932 213.93 147.966C213.91 148.001 213.881 148.029 213.845 148.047C213.81 148.064 213.769 148.07 213.73 148.064C213.691 148.058 213.655 148.04 213.626 148.012Z" fill="#263238"/>
<path d="M195.984 119.454C193.986 116.79 198.128 113.593 200.166 116.29C202.204 118.988 198.022 122.145 195.984 119.454Z" fill="#263238"/>
<path d="M206.194 148.698C206.86 146.141 206.427 143.37 206.307 140.773C206.307 140.506 206 140.413 205.787 140.493C205.781 140.483 205.772 140.476 205.761 140.47C205.751 140.465 205.739 140.462 205.727 140.462C205.716 140.462 205.704 140.465 205.694 140.47C205.683 140.476 205.674 140.483 205.667 140.493C203.605 142.34 202.063 144.696 201.199 147.326C200.726 148.865 200.906 151.136 202.83 151.582C204.648 151.982 205.794 150.19 206.194 148.698ZM204.295 150.317C201.512 152.061 201.725 148.192 202.118 147.066C202.385 146.347 202.701 145.646 203.063 144.969C203.835 143.577 204.678 142.225 205.588 140.919C205.588 142.198 205.654 143.47 205.681 144.749C205.714 146.281 205.827 149.358 204.295 150.317Z" fill="#263238"/>
<path d="M197.675 133.133C196.257 134.505 197.269 136.543 198.475 137.622C200.56 139.432 203.084 140.663 205.794 141.192C205.854 141.192 205.887 141.159 205.887 141.105C206.107 141.065 206.32 140.832 206.187 140.599C204.948 138.308 203.909 135.704 202.004 133.866C200.919 132.774 199.014 131.828 197.675 133.133ZM203.623 137.489C204.289 138.601 204.842 139.74 205.521 140.819C204.089 140.153 202.637 139.487 201.272 138.648C200.611 138.248 199.979 137.803 199.38 137.316C198.461 136.563 196.283 133.353 199.567 133.413C201.378 133.473 202.864 136.164 203.623 137.489Z" fill="#263238"/>
<path d="M162.99 107.046H144.229C144.229 107.046 124.602 97.6158 108.791 101.412C90.6692 105.774 88.3515 128.538 101.898 136.583C119.061 146.78 195.438 144.809 195.438 144.809L178.928 116.837C178.928 116.837 153.526 111.509 130.496 112.268L162.99 116.697V107.046Z" fill="#263238"/>
<path d="M180.026 118.628C180.009 118.583 179.998 118.536 179.993 118.488C179.993 118.448 179.993 118.408 179.993 118.368L179.92 118.095C179.865 117.91 179.801 117.728 179.727 117.549C179.653 117.369 179.58 117.196 179.494 117.016C179.39 116.854 179.277 116.698 179.154 116.55C179.154 116.55 179.121 116.55 179.107 116.517H179.067C179.067 116.517 179.067 116.517 179.021 116.517C176.23 115.997 157.249 113.28 154.425 112.96C151.602 112.641 148.731 112.368 145.874 112.128C140.178 111.637 134.461 111.433 128.744 111.515C128.212 111.515 127.679 111.515 127.139 111.562L126.793 111.475C126.513 111.409 126.247 111.342 125.967 111.289C125.454 111.189 124.935 111.116 124.415 111.036C123.33 110.869 122.251 110.756 121.172 110.556C121.105 110.556 121.079 110.643 121.172 110.656C122.258 110.896 123.317 111.209 124.402 111.442C124.715 111.515 125.022 111.582 125.335 111.642C123.243 111.755 121.152 111.915 119.061 112.101C118.994 112.101 118.994 112.214 119.061 112.208C121.905 112.041 124.768 112.021 127.619 112.068C130.469 112.115 133.28 112.181 136.104 112.341C141.818 112.667 147.526 113.18 153.22 113.773C156.41 114.113 175.764 116.936 178.974 117.07H179.014C179.014 117.143 179.067 117.216 179.101 117.289C179.187 117.463 179.281 117.636 179.374 117.802C179.467 117.969 179.554 118.129 179.66 118.288L179.813 118.522L179.893 118.635C179.926 118.671 179.956 118.712 179.98 118.755C179.953 118.741 180.066 118.695 180.026 118.628Z" fill="#455A64"/>
<path d="M189.484 143.11C188.465 141.472 187.592 139.727 186.653 138.042L183.816 132.967C181.938 129.597 175.191 118.262 174.525 117.469C174.485 117.416 174.399 117.469 174.419 117.529C174.738 118.408 178.948 125.914 179.913 127.592C181.851 130.922 183.909 134.219 185.907 137.522C186.48 138.468 187.073 139.401 187.659 140.34C188.245 141.279 188.858 142.198 189.39 143.163C189.43 143.223 189.517 143.19 189.484 143.11Z" fill="#455A64"/>
<path d="M148.192 86.427L144.362 108.865C144.362 108.865 164.395 116.683 188.638 108.765C188.638 108.765 181.458 69.4041 171.988 59.1277C167.252 53.9862 161.691 54.3724 158.148 57.9622C157.249 58.8746 147.885 71.6818 146.76 77.083C145.774 81.8516 148.192 86.427 148.192 86.427Z" fill="#A3CE00"/>
<path d="M174.658 59.0542C193.919 71.8281 211.002 90.1165 209.83 96.2969C208.591 102.83 195.384 111.615 185.334 114.359C183.09 114.972 174.432 98.4281 176.75 97.5157C178.555 96.8031 185.694 93.0469 186.627 91.8414C187.293 91.0022 173.54 73.3599 168.751 64.0759C163.736 54.3523 169.497 55.6376 174.658 59.0542Z" fill="#EB9481"/>
<path d="M181.005 96.8032C181.005 96.8032 174.012 97.9221 169.47 98.8745C166.933 99.4073 162.677 100.699 160.992 101.938C158.475 103.796 149.131 113.167 151.355 115.478C153.353 117.576 156.017 113.913 156.017 113.913C156.017 113.913 152.767 117.642 155.398 119.108C158.028 120.573 161.025 115.485 161.025 115.485C161.025 115.485 157.296 119.201 160.26 120.499C162.824 121.625 166.88 116.124 166.88 116.124C166.88 116.124 162.537 119.594 165.061 121.006C167.845 122.564 174.958 115.078 174.958 115.078C181.025 115.391 184.708 114.765 188.884 113.32C189.63 113.06 181.005 96.8032 181.005 96.8032Z" fill="#EB9481"/>
<path d="M160.013 116.723C160.266 116.337 160.526 115.951 160.779 115.558C161.257 114.792 161.777 114.054 162.338 113.347C162.897 112.681 163.49 112.015 164.096 111.382C164.702 110.749 165.428 110.103 166.094 109.384C166.147 109.331 166.227 109.384 166.174 109.457C165.544 110.128 164.955 110.835 164.409 111.575C163.849 112.281 163.297 112.994 162.75 113.7C162.204 114.406 161.625 115.032 161.065 115.698C160.792 116.037 160.526 116.364 160.266 116.743C160.035 117.091 159.777 117.421 159.494 117.729C159.487 117.734 159.478 117.736 159.47 117.736C159.462 117.735 159.453 117.732 159.447 117.727C159.44 117.722 159.435 117.715 159.433 117.707C159.431 117.699 159.431 117.69 159.434 117.682C159.594 117.344 159.789 117.023 160.013 116.723Z" fill="#263238"/>
<path d="M155.338 114.705C156.173 113.251 157.11 111.858 158.142 110.536C159.189 109.221 160.365 108.014 161.651 106.933C161.698 106.893 161.765 106.933 161.731 107C160.686 108.332 159.614 109.624 158.555 110.929C158.028 111.562 155.757 114.532 155.478 114.812C155.411 114.878 155.305 114.785 155.338 114.705Z" fill="#263238"/>
<path d="M164.362 118.741C165.179 117.391 166.085 116.096 167.073 114.865C168.191 113.704 169.393 112.627 170.669 111.642C170.722 111.642 170.789 111.675 170.749 111.715C169.63 112.874 168.505 114.013 167.419 115.232C166.9 115.818 164.981 118.295 164.442 118.815C164.422 118.868 164.335 118.801 164.362 118.741Z" fill="#263238"/>
<path d="M174.086 75.318C174.086 75.318 175.011 76.9031 176.084 76.3104C177.156 75.7176 176.663 73.8195 176.663 73.8195C176.663 73.8195 177.948 75.005 178.947 74.2658C179.946 73.5265 179.074 71.7283 179.074 71.7283C179.074 71.7283 180.406 72.9005 181.398 72.1812C182.391 71.4619 181.445 69.697 181.445 69.697C181.445 69.697 182.837 70.8159 183.743 70.2098C184.648 69.6038 183.623 67.9521 183.623 67.9521C183.623 67.9521 185.001 69.051 185.801 68.365C186.6 67.679 185.368 65.9807 185.368 65.9807L174.086 75.318Z" fill="white"/>
<path d="M174.232 76.0107L186.007 66.2005C186.007 66.2005 176.257 58.688 171.828 57.083C167.399 55.4779 164.848 56.1972 167.985 63.8362C169.676 68.0837 171.768 72.1603 174.232 76.0107Z" fill="#A3CE00"/>
<path d="M168.944 66.6002C168.936 66.5928 168.925 66.5883 168.914 66.5873C168.902 66.5864 168.891 66.5891 168.881 66.5951C168.872 66.601 168.864 66.6099 168.86 66.6204C168.856 66.6309 168.855 66.6425 168.858 66.6535C169.031 67.0864 170.363 69.6105 170.649 70.1633C170.549 70.0634 169.104 68.7847 168.884 68.5383C168.838 68.485 168.764 68.5383 168.811 68.6115C169.044 68.8579 171.035 70.9891 171.142 71.0691C171.375 71.502 173.626 75.3847 174.086 75.9775C174.212 76.1373 174.272 75.9775 174.226 75.7977C174.046 75.1183 169.344 67.093 168.944 66.6002Z" fill="#263238"/>
<path d="M162.81 54.3323C158.248 54.8718 155.618 62.3243 156.716 63.4099C157.815 64.4955 160.439 62.0779 160.439 62.0779C160.439 62.0779 162.138 65.2481 164.402 64.329C168.238 62.7706 168.958 53.5997 162.81 54.3323Z" fill="white"/>
<path d="M166.007 55.751C165.861 56.8033 163.55 61.6318 160.359 61.6384C158.721 61.6384 158.488 55.9042 158.488 55.9042L158.388 55.4846L157.056 49.6171L164.935 44.5688C164.935 44.5688 166.054 55.4513 166.007 55.751Z" fill="#EB9481"/>
<path d="M165.341 48.6183C164.722 50.1812 163.784 51.598 162.587 52.778C161.39 53.958 159.96 54.8753 158.388 55.4714L157.056 49.6039L164.935 44.5557C164.935 44.5557 165.121 46.4271 165.341 48.6183Z" fill="#263238"/>
<path d="M147.699 43.1969C149.564 53.5931 156.004 53.6464 158.242 53.2401C160.28 52.8738 167.159 51.362 166.373 40.8326C165.588 30.3031 160.166 27.8789 155.471 28.4783C150.776 29.0777 145.854 32.8006 147.699 43.1969Z" fill="#EB9481"/>
<path d="M150.669 40.1467C150.902 40.0601 151.109 39.9402 151.335 39.8337C151.584 39.7578 151.799 39.6007 151.948 39.3874C151.981 39.3116 151.989 39.227 151.97 39.1464C151.95 39.0658 151.905 38.9938 151.841 38.9412C151.698 38.8576 151.535 38.8135 151.368 38.8135C151.202 38.8135 151.039 38.8576 150.896 38.9412C150.58 39.0637 150.323 39.3019 150.176 39.6072C150.145 39.6781 150.135 39.7564 150.148 39.8328C150.16 39.9091 150.195 39.9802 150.247 40.0373C150.299 40.0944 150.367 40.1352 150.442 40.1546C150.517 40.174 150.596 40.1713 150.669 40.1467Z" fill="#263238"/>
<path d="M157.695 38.4683C157.454 38.4849 157.211 38.4849 156.97 38.4683C156.714 38.5133 156.452 38.4711 156.224 38.3484C156.158 38.2973 156.111 38.2252 156.092 38.1441C156.072 38.0629 156.081 37.9776 156.117 37.9022C156.206 37.7626 156.331 37.6494 156.478 37.5745C156.626 37.4995 156.791 37.4655 156.956 37.476C157.294 37.4462 157.632 37.5436 157.902 37.749C157.967 37.7975 158.016 37.8647 158.042 37.9418C158.068 38.0188 158.07 38.102 158.048 38.1802C158.025 38.2584 157.98 38.3279 157.917 38.3793C157.854 38.4308 157.777 38.4619 157.695 38.4683Z" fill="#263238"/>
<path d="M156.956 41.3918C156.956 41.3918 157.016 41.3918 157.023 41.4385C157.149 42.1511 157.416 42.937 158.108 43.0302V43.0702C157.309 43.1301 156.963 42.0778 156.956 41.3918Z" fill="#263238"/>
<path d="M157.422 40.5196C158.535 40.1933 159.114 42.4377 158.088 42.7441C157.063 43.0504 156.51 40.7994 157.422 40.5196Z" fill="#263238"/>
<path d="M157.895 40.5262C158.122 40.5995 158.375 40.7793 158.615 40.7394C158.854 40.6994 159.047 40.4064 159.167 40.1333C159.167 40.1333 159.167 40.1333 159.207 40.1333C159.296 40.3293 159.306 40.552 159.236 40.7552C159.165 40.9585 159.019 41.1269 158.828 41.2255C158.421 41.392 158.022 41.0923 157.802 40.6861C157.762 40.6261 157.802 40.4929 157.895 40.5262Z" fill="#263238"/>
<path d="M152.64 42.3777C152.64 42.3777 152.594 42.4243 152.607 42.4576C152.814 43.1236 152.934 43.9694 152.367 44.369C152.367 44.369 152.367 44.4156 152.367 44.369C153.12 44.0893 152.947 42.9971 152.64 42.3777Z" fill="#263238"/>
<path d="M151.848 41.8182C150.709 42.0314 151.215 44.2958 152.274 44.1026C153.333 43.9095 152.78 41.6384 151.848 41.8182Z" fill="#263238"/>
<path d="M151.388 42.0712C151.235 42.231 151.109 42.4908 150.896 42.5574C150.682 42.624 150.416 42.4242 150.23 42.2244C150.23 42.2244 150.196 42.2244 150.23 42.2577C150.316 42.6906 150.556 43.1102 150.995 43.0968C151.435 43.0835 151.582 42.6573 151.588 42.2044C151.542 42.1178 151.448 42.0113 151.388 42.0712Z" fill="#263238"/>
<path d="M154.246 45.2881C154.246 45.2881 154.359 46.367 154.479 46.8599C154.967 46.8574 155.446 46.7238 155.866 46.4731C156.285 46.2224 156.629 45.8638 156.863 45.4346C156.863 45.3814 156.81 45.3414 156.77 45.3814C156.247 45.9702 155.545 46.3705 154.772 46.5202C154.705 46.3937 154.645 44.6687 154.565 44.6821C154.19 44.8084 153.834 44.9854 153.506 45.2082C153.213 42.9638 153.273 40.6994 152.947 38.4683C152.947 38.395 152.814 38.395 152.814 38.4683C152.667 40.8984 152.765 43.3371 153.107 45.7477C153.18 46.034 154.072 45.4147 154.246 45.2881Z" fill="#263238"/>
<path d="M155.138 46.6201C155.494 46.8922 155.913 47.0688 156.357 47.1329C156.601 47.1624 156.848 47.1134 157.063 46.993C157.529 46.7333 157.416 46.2671 157.223 45.9008C157.119 45.7062 156.991 45.525 156.843 45.3613C156.421 45.95 155.825 46.3906 155.138 46.6201Z" fill="#263238"/>
<path d="M156.357 47.1528C156.601 47.1822 156.848 47.1333 157.063 47.0129C157.529 46.7532 157.416 46.287 157.223 45.9207C156.962 46.0004 156.735 46.1649 156.578 46.388C156.421 46.6112 156.343 46.8803 156.357 47.1528Z" fill="#FF9BBC"/>
<path d="M164.868 41.9582C164.868 41.9582 166.2 38.1753 167.892 38.5816C169.584 38.9878 169.124 44.0494 167.599 45.135C167.413 45.289 167.198 45.4037 166.967 45.4722C166.735 45.5407 166.492 45.5615 166.253 45.5335C166.013 45.5055 165.782 45.4292 165.572 45.3092C165.363 45.1892 165.18 45.028 165.035 44.8353L164.868 41.9582Z" fill="#EB9481"/>
<path d="M167.732 39.9934C167.732 39.9934 167.772 39.9934 167.732 40.04C166.673 40.8392 166.347 42.1113 166.22 43.37C166.254 43.2326 166.318 43.1042 166.406 42.9937C166.495 42.8832 166.606 42.7932 166.733 42.7299C166.859 42.6666 166.998 42.6315 167.14 42.627C167.281 42.6226 167.422 42.6488 167.552 42.704C167.561 42.704 167.57 42.7075 167.576 42.7138C167.582 42.72 167.586 42.7285 167.586 42.7373C167.586 42.7462 167.582 42.7546 167.576 42.7609C167.57 42.7671 167.561 42.7706 167.552 42.7706C167.327 42.759 167.103 42.8165 166.912 42.9356C166.72 43.0546 166.569 43.2295 166.48 43.4366C166.343 43.7918 166.242 44.16 166.18 44.5355C166.18 44.6554 165.947 44.6488 165.954 44.5355C165.541 43.0237 166.147 40.5861 167.732 39.9934Z" fill="#263238"/>
<path d="M167.306 44.7754C167.307 44.8666 167.281 44.9561 167.232 45.0325C167.182 45.109 167.111 45.1689 167.027 45.2047C166.943 45.2405 166.85 45.2506 166.761 45.2336C166.671 45.2166 166.589 45.1734 166.524 45.1094C166.459 45.0454 166.414 44.9635 166.396 44.8742C166.378 44.7849 166.387 44.6922 166.421 44.6078C166.456 44.5235 166.515 44.4513 166.59 44.4005C166.666 44.3497 166.755 44.3226 166.846 44.3226C166.906 44.3217 166.966 44.3327 167.022 44.3551C167.077 44.3775 167.128 44.4107 167.171 44.4528C167.214 44.495 167.248 44.5452 167.271 44.6006C167.294 44.656 167.306 44.7154 167.306 44.7754Z" fill="#455A64"/>
<path d="M167.066 44.7752C167.067 44.819 167.056 44.8621 167.032 44.8991C167.009 44.9361 166.975 44.9653 166.935 44.983C166.895 45.0006 166.851 45.0059 166.808 44.9982C166.765 44.9905 166.725 44.9701 166.693 44.9397C166.662 44.9092 166.64 44.8701 166.631 44.8273C166.622 44.7845 166.626 44.7399 166.643 44.6994C166.659 44.6589 166.687 44.6241 166.723 44.5997C166.76 44.5752 166.803 44.5621 166.846 44.5621C166.875 44.5612 166.903 44.5661 166.93 44.5764C166.957 44.5867 166.981 44.6023 167.001 44.6221C167.022 44.642 167.038 44.6658 167.049 44.6921C167.06 44.7184 167.066 44.7467 167.066 44.7752Z" fill="#263238"/>
<path d="M167.606 44.3557C167.782 44.3557 167.925 44.2125 167.925 44.036C167.925 43.8594 167.782 43.7163 167.606 43.7163C167.429 43.7163 167.286 43.8594 167.286 44.036C167.286 44.2125 167.429 44.3557 167.606 44.3557Z" fill="#455A64"/>
<path d="M157.429 53.3333C156.115 53.3974 154.807 53.1253 153.627 52.5426C152.448 51.9599 151.437 51.0859 150.689 50.0033C149.197 47.8655 148.445 45.2081 147.905 42.6773C147.732 41.8781 147.592 41.0656 147.479 40.2531C147.345 39.4814 147.287 38.6984 147.306 37.9154C147.306 37.8488 147.199 37.8488 147.206 37.9154C147.273 38.668 147.239 39.4272 147.273 40.1798C147.306 40.9324 147.386 41.6783 147.499 42.4242C147.709 43.8511 148.05 45.2556 148.518 46.62C149.364 49.0509 150.702 51.4086 153.033 52.6806C154.384 53.3854 155.931 53.6198 157.429 53.3466C157.469 53.3799 157.462 53.3267 157.429 53.3333Z" fill="#263238"/>
<path d="M166.314 40.899C165.121 41.1321 161.252 38.6745 159.727 33.0402C159.727 33.0402 161.452 38.0085 162.018 38.6546C162.584 39.3006 159.84 37.2959 158.561 32.7471C157.392 34.1386 156.028 35.3544 154.512 36.3569C152.514 37.509 151.182 37.8221 150.996 37.6889C150.809 37.5557 153.719 35.7641 154.326 34.5587C154.326 34.5587 149.271 38.6745 146.673 39.547C146.373 39.6469 144.422 33.4531 147.832 29.7501C151.242 26.0472 158.441 27.2926 160.606 28.5314C160.606 28.5314 162.724 28.3049 165.707 30.7691C168.691 33.2333 167.592 40.6592 166.314 40.899Z" fill="#263238"/>
</svg>
