<svg width="282" height="161" viewBox="0 0 282 161" fill="none" xmlns="http://www.w3.org/2000/svg">
<path d="M121.056 157.403C152.607 157.403 178.185 155.652 178.185 153.491C178.185 151.331 152.607 149.58 121.056 149.58C89.5039 149.58 63.9263 151.331 63.9263 153.491C63.9263 155.652 89.5039 157.403 121.056 157.403Z" fill="#B59B00"/>
<path d="M176.047 126.68C196.049 125.316 197.428 117.39 197.428 117.39C197.428 117.39 152.821 116.278 106.012 116.223C53.7704 116.162 2.95244 119.048 0.133105 122.278C-3.41687 126.342 65.2044 129.223 67.1339 127.243C68.6373 125.701 63.6255 124.641 58.6142 123.337C55.4676 122.518 61.8067 116.567 119.91 121.535C143.899 123.587 160.511 127.74 176.047 126.68Z" fill="#907B00"/>
<path d="M72.9119 123.756C77.3058 123.756 80.8677 123.215 80.8677 122.547C80.8677 121.88 77.3058 121.339 72.9119 121.339C68.518 121.339 64.9561 121.88 64.9561 122.547C64.9561 123.215 68.518 123.756 72.9119 123.756Z" fill="#907B00"/>
<path d="M180.441 107.434C180.445 110.645 180.153 113.85 179.568 117.01C168.845 116.806 154.109 116.565 137.656 116.404C137.144 113.44 136.889 110.44 136.893 107.434C136.893 88.6235 146.641 73.3745 158.667 73.3745C170.694 73.3745 180.441 88.6235 180.441 107.434Z" fill="#C8D9D2"/>
<path d="M55.8966 117.053C32.5577 117.871 13.57 119.222 4.97607 120.767C7.98358 116.104 18.3711 107.926 31.4476 106.006C45.8307 103.894 54.0439 108.54 55.8966 117.053Z" fill="#C8D9D2"/>
<path d="M198.26 112.279C198.261 114.015 197.972 115.74 197.404 117.386H197.227H197.217C193.862 117.303 150.951 116.277 106.012 116.226C86.5199 116.203 67.2257 116.594 50.5488 117.254C51.6552 115.495 54.1208 114.27 56.9855 114.27C58.3844 114.27 59.6915 114.562 60.7853 115.068C60.4821 113.284 60.7882 111.452 61.6564 109.853C62.5245 108.255 63.9068 106.98 65.5905 106.223C67.2742 105.466 69.1661 105.269 70.9752 105.664C72.7844 106.059 74.4106 107.022 75.6038 108.407C75.6598 108.472 75.7146 108.537 75.768 108.604C75.8014 108.538 75.8354 108.472 75.87 108.407C79.1557 102.143 87.1977 97.7137 96.5978 97.7137C106.85 97.7137 115.487 102.98 118.098 110.154C119.616 108.765 121.606 107.971 123.687 107.923C125.767 107.876 127.793 108.578 129.376 109.897C133.19 106.095 138.983 103.67 145.469 103.67C152.616 103.67 158.921 106.617 162.665 111.1C163.315 102.471 171.024 95.6592 180.44 95.6592C190.282 95.6543 198.26 103.096 198.26 112.279Z" fill="#B59B00"/>
<path d="M190.764 22.4257H120.092C120.092 20.2619 122.431 16.7766 133.791 21.0196C133.791 21.0196 134.082 16.1104 139.854 17.7382C146.657 19.6564 141.478 12.3095 147.348 11.2037C150.394 10.6301 152.068 12.2475 153.274 13.58C153.853 5.99174 160.799 0 169.284 0C178.147 0 185.331 6.54068 185.331 14.6097C185.331 15.1046 185.304 15.5992 185.25 16.0914C186.157 15.0094 188.164 14.0417 190.902 14.1043C190.965 14.1043 191.028 14.1068 191.091 14.1117C196.638 14.4224 196.322 22.4257 190.764 22.4257Z" fill="#E5F1EF"/>
<path d="M50.344 75.9042C62.6411 75.9042 72.6098 59.5576 72.6098 39.393C72.6098 19.2285 62.6411 2.88184 50.344 2.88184C38.0469 2.88184 28.0781 19.2285 28.0781 39.393C28.0781 59.5576 38.0469 75.9042 50.344 75.9042Z" fill="#907B00"/>
<path d="M57.7531 13.5945C58.1622 15.269 57.6506 16.863 56.5977 17.439C56.1172 16.8782 55.7803 16.2139 55.6147 15.5011C55.2063 13.8266 55.7167 12.2338 56.7708 11.6572C57.2506 12.2181 57.5872 12.8821 57.7531 13.5945Z" fill="#B59B00"/>
<path d="M60.0802 17.8542C59.3653 18.8029 58.2866 19.2475 57.5132 18.9656C57.6008 18.4732 57.807 18.0081 58.1148 17.6086C58.8297 16.6605 59.9077 16.2159 60.6818 16.4978C60.594 16.99 60.3879 17.4549 60.0802 17.8542Z" fill="#B59B00"/>
<path d="M65.3037 28.459C65.0651 29.902 64.1319 30.9894 63.1136 31.1067C62.9236 30.5143 62.8804 29.8863 62.9878 29.2744C63.2263 27.8314 64.1589 26.7446 65.1778 26.6279C65.3675 27.22 65.4106 27.8475 65.3037 28.459Z" fill="#B59B00"/>
<path d="M65.9608 32.1477C65.0363 32.5395 64.0666 32.4179 63.6323 31.8972C63.908 31.578 64.2571 31.327 64.6512 31.1646C65.5756 30.7735 66.5448 30.8951 66.9796 31.4158C66.7041 31.7349 66.3549 31.9857 65.9608 32.1477Z" fill="#B59B00"/>
<path d="M46.6693 19.2932C46.6693 20.6681 46.1312 21.8445 45.3678 22.3321C44.6045 21.8452 44.0664 20.6681 44.0664 19.2932C44.0664 17.9184 44.6045 16.7419 45.3678 16.2544C46.1312 16.7426 46.6693 17.9197 46.6693 19.2932Z" fill="#B59B00"/>
<path d="M43.4507 22.4511C44.1279 23.4041 44.3318 24.4725 44.0455 25.1689C43.2758 25.1891 42.323 24.6248 41.6459 23.6718C40.9687 22.7189 40.7648 21.6498 41.0512 20.9541C41.8208 20.9345 42.7742 21.4981 43.4507 22.4511Z" fill="#B59B00"/>
<path d="M37.9791 53.766C38.9992 53.4669 39.9891 53.591 40.5171 54.0245C40.3221 54.6692 39.5656 55.306 38.5455 55.605C37.5254 55.9041 36.5348 55.78 36.0068 55.3465C36.2026 54.7012 36.9596 54.065 37.9791 53.766Z" fill="#B59B00"/>
<path d="M42.6351 48.1183C42.6036 49.3525 42.0933 49.7836 41.396 50.206C40.722 49.7522 40.2632 49.2966 40.2972 48.0624C40.3312 46.8282 41.194 45.0186 41.5363 44.7466C41.8579 45.0272 42.6647 46.8841 42.6351 48.1183Z" fill="#B59B00"/>
<path d="M46.5369 43.2057C46.5055 44.4399 45.9951 44.8709 45.2978 45.2934C44.6238 44.8396 44.1651 44.384 44.199 43.1498C44.233 41.9156 45.0958 40.106 45.4382 39.834C45.7597 40.1146 46.5665 41.9714 46.5369 43.2057Z" fill="#B59B00"/>
<path d="M54.9394 81.3263C54.9073 82.5605 54.3969 82.9915 53.7002 83.414C53.0256 82.9596 52.5675 82.5046 52.6008 81.2704C52.6342 80.0362 53.4982 78.2266 53.8406 77.9546C54.1622 78.2346 54.9708 80.0914 54.9394 81.3263Z" fill="#B59B00"/>
<path d="M47.1559 96.0139C47.7978 97.078 47.5964 97.7074 47.2352 98.424C46.4171 98.3872 45.7827 98.2361 45.1402 97.172C44.4976 96.1078 44.2516 94.1257 44.3951 93.7192C44.8205 93.7917 46.5133 94.9498 47.1559 96.0139Z" fill="#B59B00"/>
<path d="M28.1538 56.342C28.7887 57.4098 28.5842 58.038 28.2167 58.7528C27.3986 58.7098 26.7655 58.5544 26.1311 57.4866C25.4968 56.4188 25.2633 54.4342 25.41 54.0283C25.8341 54.1038 27.5188 55.2736 28.1538 56.342Z" fill="#B59B00"/>
<path d="M56.0752 84.9621C55.4805 85.4963 55.0507 85.4595 54.5428 85.3342C54.4566 84.8307 54.468 84.4236 55.0633 83.8894C55.6586 83.3552 56.8934 82.9382 57.1734 82.9683C57.1841 83.2397 56.6699 84.4291 56.0752 84.9621Z" fill="#B59B00"/>
<path d="M48.0775 92.7993C48.1833 93.6197 47.8535 94.3553 47.3224 94.5764C47.1229 94.2843 46.9975 93.95 46.9567 93.6013C46.851 92.7809 47.1801 92.0459 47.7119 91.8242C47.9111 92.1165 48.0364 92.4507 48.0775 92.7993Z" fill="#B59B00"/>
<path d="M49.9282 117.283V9.81738" stroke="#B59B00" stroke-width="6" stroke-miterlimit="10"/>
<path d="M45.4185 21.2505V31.4686C45.4185 31.8788 45.5013 32.285 45.6622 32.6639C45.823 33.0428 46.0589 33.3871 46.3561 33.6771C46.6534 33.9671 47.0063 34.1972 47.3947 34.3541C47.7831 34.511 48.1994 34.5917 48.6198 34.5916V34.5916C48.9669 34.5918 49.2998 34.7264 49.5452 34.9659C49.7906 35.2054 49.9286 35.5301 49.9288 35.8688" stroke="#B59B00" stroke-width="6" stroke-miterlimit="10"/>
<path d="M45.4185 46.2104V59.4736C45.4185 60.1387 45.6892 60.7766 46.1712 61.2468C46.6532 61.7171 47.3069 61.9813 47.9886 61.9813C48.503 61.9813 48.9964 62.1807 49.3603 62.5356C49.7241 62.8905 49.9286 63.3718 49.9288 63.8738" stroke="#B59B00" stroke-width="6" stroke-miterlimit="10"/>
<path d="M45.9194 78.5688C45.9194 79.9535 46.9421 81.0765 48.2045 81.0765C49.1566 81.0765 49.9288 81.9239 49.9288 82.969" stroke="#B59B00" stroke-width="6" stroke-miterlimit="10"/>
<path d="M41.4058 49.2808V52.9515C41.4058 53.475 41.6189 53.9772 41.9984 54.3474C42.3778 54.7176 42.8924 54.9256 43.429 54.9256H44.0489C44.4117 54.9257 44.7596 55.0664 45.0161 55.3168C45.2727 55.5671 45.4168 55.9065 45.417 56.2605" stroke="#B59B00" stroke-width="6" stroke-miterlimit="10"/>
<path d="M56.6097 16.1514V22.1793C56.6097 23.2848 56.1596 24.3449 55.3585 25.1266C54.5574 25.9083 53.4708 26.3474 52.3379 26.3474V26.3474C52.0214 26.3474 51.708 26.4082 51.4156 26.5264C51.1232 26.6446 50.8575 26.8179 50.6338 27.0362C50.41 27.2546 50.2325 27.5139 50.1115 27.7992C49.9904 28.0845 49.9281 28.3903 49.9282 28.6991" stroke="#B59B00" stroke-width="6" stroke-miterlimit="10"/>
<path d="M44.0449 25.1689L44.8083 26.3872C45.2071 27.0226 45.4181 27.7532 45.4181 28.4982" stroke="#B59B00" stroke-width="6" stroke-miterlimit="10"/>
<path d="M53.7702 81.4507V86.6663C53.7701 87.4316 53.5979 88.1876 53.2657 88.881C52.9335 89.5743 52.4494 90.1881 51.8476 90.679L51.2435 91.1702C50.8317 91.5062 50.5004 91.9264 50.2732 92.4009C50.0459 92.8755 49.9282 93.3929 49.9282 93.9168" stroke="#B59B00" stroke-width="6" stroke-miterlimit="10"/>
<path d="M57.5385 88.0098C57.5385 88.5718 57.3097 89.1107 56.9024 89.5081C56.4951 89.9055 55.9427 90.1288 55.3667 90.1288H52.4775" stroke="#B59B00" stroke-width="6" stroke-miterlimit="10" stroke-linecap="round"/>
<path d="M47.1328 97.71V112.319C47.1328 112.83 47.3412 113.321 47.7121 113.683C48.0831 114.045 48.5862 114.248 49.1108 114.248V114.248C49.3277 114.248 49.5358 114.333 49.6892 114.482C49.8427 114.632 49.9289 114.835 49.9289 115.047" stroke="#B59B00" stroke-width="6" stroke-miterlimit="10"/>
<path d="M30.867 99.037C39.5386 99.037 46.5684 90.512 46.5684 79.9958C46.5684 69.4796 39.5386 60.9546 30.867 60.9546C22.1953 60.9546 15.1655 69.4796 15.1655 79.9958C15.1655 90.512 22.1953 99.037 30.867 99.037Z" fill="#B59B00"/>
<path d="M35.9342 72.5486C36.2627 73.8921 35.9971 75.1846 35.3357 75.9405C35.2737 76.0092 35.196 76.0626 35.1088 76.0964C35.0216 76.1302 34.9275 76.1434 34.8341 76.1349C34.7406 76.1264 34.6506 76.0964 34.5714 76.0475C34.4921 75.9986 34.4258 75.932 34.3779 75.8533C34.1104 75.4197 33.9139 74.948 33.7958 74.4552C33.3874 72.7807 33.8984 71.1879 34.9518 70.6113C35.4319 71.1721 35.7686 71.8361 35.9342 72.5486Z" fill="#907B00"/>
<path d="M21.4094 98.6801C22.5484 99.7043 22.9764 101.11 22.4981 102.033C21.8667 101.854 21.2878 101.532 20.809 101.092C19.6706 100.067 19.2426 98.6623 19.7209 97.7388C20.3521 97.9179 20.9307 98.2405 21.4094 98.6801Z" fill="#907B00"/>
<path d="M19.7094 101.94C20.5559 101.984 21.2393 102.431 21.3677 102.984C21.0374 103.123 20.6778 103.184 20.3186 103.162C19.4728 103.118 18.79 102.671 18.6616 102.118C18.9916 101.979 19.3507 101.918 19.7094 101.94Z" fill="#B59B00"/>
<path d="M38.8258 76.8671C38.3852 77.9625 37.4583 78.6613 36.6364 78.5827C36.5916 78.0848 36.6688 77.5837 36.8617 77.1207C37.3022 76.0252 38.2292 75.3258 39.0511 75.405C39.0955 75.9029 39.0183 76.404 38.8258 76.8671Z" fill="#907B00"/>
<path d="M26.3518 70.5036C27.0126 71.5573 26.8238 72.1898 26.4733 72.9125C25.6552 72.8885 25.0177 72.7485 24.3569 71.6954C23.6961 70.6424 23.4129 68.6639 23.5514 68.2568C23.9781 68.3207 25.6911 69.4505 26.3518 70.5036Z" fill="#907B00"/>
<path d="M28.9756 70.3351C28.7025 71.2562 28.233 71.4785 27.6257 71.6602C27.2122 71.1905 26.9624 70.7613 27.2355 69.8427C27.5087 68.9241 28.5225 67.7347 28.834 67.5972C29.0177 67.8698 29.2487 69.4166 28.9756 70.3351Z" fill="#907B00"/>
<path d="M30.3877 78.313V118.205" stroke="#907B00" stroke-width="6" stroke-miterlimit="10" stroke-linecap="round"/>
<path d="M34.8351 77.0845V81.5798C34.8352 83.1762 34.2351 84.7172 33.1485 85.9106L31.6759 87.528C30.846 88.4398 30.3876 89.617 30.3877 90.8364" stroke="#907B00" stroke-width="6" stroke-miterlimit="10" stroke-linecap="round"/>
<path d="M21.9751 101.271C22.5581 102.105 23.3414 102.789 24.2568 103.261C25.1722 103.733 26.1919 103.98 27.2274 103.98H28.1455C28.7398 103.98 29.3097 104.21 29.7302 104.62C30.1506 105.03 30.3871 105.586 30.3878 106.166" stroke="#907B00" stroke-width="6" stroke-miterlimit="10" stroke-linecap="round"/>
<path d="M36.7738 79.2939V80.3378C36.7739 80.4465 36.752 80.5541 36.7095 80.6545C36.6669 80.755 36.6045 80.8462 36.5258 80.9231C36.447 80.9999 36.3536 81.0609 36.2507 81.1025C36.1478 81.1441 36.0375 81.1655 35.9261 81.1655H35.5007C35.3323 81.1655 35.1708 81.2308 35.0517 81.347C34.9326 81.4632 34.8657 81.6208 34.8657 81.7851" stroke="#907B00" stroke-width="6" stroke-miterlimit="10" stroke-linecap="round"/>
<path d="M27.2935 72.8784V81.4964C27.2935 81.941 27.4744 82.3675 27.7966 82.6819C28.1188 82.9964 28.5558 83.1731 29.0115 83.1733C29.3762 83.1733 29.7261 83.3146 29.984 83.5662C30.242 83.8178 30.387 84.1591 30.3872 84.515" stroke="#907B00" stroke-width="6" stroke-miterlimit="10" stroke-linecap="round"/>
<path d="M34.3093 98.689V99.3104C34.3093 99.7952 34.1119 100.26 33.7606 100.603C33.4092 100.946 32.9327 101.138 32.4358 101.138H31.4629C31.178 101.138 30.9048 101.249 30.7033 101.445C30.5019 101.642 30.3887 101.909 30.3887 102.187" stroke="#907B00" stroke-width="6" stroke-miterlimit="10" stroke-linecap="round"/>
<path d="M26.1812 102.226C26.1812 102.693 26.3713 103.141 26.7098 103.471C27.0483 103.801 27.5073 103.987 27.986 103.987" stroke="#907B00" stroke-width="6" stroke-miterlimit="10" stroke-linecap="round"/>
<path d="M25.3677 74.585V76.4719C25.3677 76.7813 25.4936 77.078 25.7179 77.2968C25.9421 77.5156 26.2463 77.6385 26.5634 77.6385V77.6385C26.6594 77.6382 26.7545 77.6564 26.8432 77.6921C26.932 77.7278 27.0126 77.7802 27.0805 77.8464C27.1484 77.9126 27.2023 77.9912 27.2389 78.0778C27.2755 78.1644 27.2943 78.2572 27.294 78.3508" stroke="#907B00" stroke-width="6" stroke-miterlimit="10" stroke-linecap="round"/>
<path d="M102.068 98.457C114.365 98.457 124.333 82.1103 124.333 61.9458C124.333 41.7812 114.365 25.4346 102.068 25.4346C89.7705 25.4346 79.8018 41.7812 79.8018 61.9458C79.8018 82.1103 89.7705 98.457 102.068 98.457Z" fill="#907B00"/>
<path d="M109.477 36.1472C109.886 37.8217 109.375 39.4157 108.322 39.9917C107.841 39.4309 107.504 38.7667 107.339 38.0538C106.93 36.3793 107.441 34.7865 108.495 34.21C108.975 34.7709 109.311 35.4348 109.477 36.1472Z" fill="#B59B00"/>
<path d="M111.805 40.4074C111.09 41.3561 110.011 41.8007 109.238 41.5189C109.325 41.0264 109.532 40.5613 109.839 40.1618C110.554 39.2137 111.632 38.7692 112.406 39.051C112.319 39.5432 112.112 40.0081 111.805 40.4074Z" fill="#B59B00"/>
<path d="M117.028 51.0117C116.79 52.4547 115.856 53.5422 114.838 53.6594C114.648 53.067 114.605 52.439 114.712 51.8272C114.951 50.3842 115.884 49.2973 116.902 49.1807C117.092 49.7727 117.135 50.4002 117.028 51.0117Z" fill="#B59B00"/>
<path d="M117.685 54.7005C116.76 55.0922 115.791 54.9706 115.356 54.4499C115.632 54.1307 115.981 53.8797 116.375 53.7174C117.3 53.3262 118.269 53.4478 118.704 53.9685C118.428 54.2876 118.079 54.5385 117.685 54.7005Z" fill="#B59B00"/>
<path d="M98.3939 41.8465C98.3939 43.2213 97.8558 44.3978 97.0924 44.8853C96.3291 44.3984 95.791 43.2213 95.791 41.8465C95.791 40.4716 96.3291 39.2952 97.0924 38.8076C97.8558 39.2958 98.3939 40.4729 98.3939 41.8465Z" fill="#B59B00"/>
<path d="M95.1744 45.0044C95.8515 45.9573 96.0554 47.0258 95.7691 47.7221C94.9994 47.7423 94.0466 47.178 93.3695 46.2251C92.6923 45.2721 92.4884 44.203 92.7748 43.5073C93.5444 43.4877 94.4979 44.0514 95.1744 45.0044Z" fill="#B59B00"/>
<path d="M89.7037 76.3187C90.7238 76.0197 91.7138 76.1437 92.2417 76.5772C92.0467 77.222 91.2902 77.8587 90.2701 78.1578C89.25 78.4568 88.2594 78.3328 87.7314 77.8993C87.9272 77.2539 88.6842 76.6178 89.7037 76.3187Z" fill="#B59B00"/>
<path d="M94.3592 70.671C94.3278 71.9052 93.8174 72.3363 93.1201 72.7588C92.4461 72.305 91.9873 71.8494 92.0213 70.6151C92.0553 69.3809 92.9181 67.5713 93.2604 67.2993C93.582 67.5799 94.3888 69.4368 94.3592 70.671Z" fill="#B59B00"/>
<path d="M98.2616 65.7584C98.2301 66.9926 97.7197 67.4237 97.0224 67.8461C96.3484 67.3923 95.8897 66.9367 95.9236 65.7025C95.9576 64.4683 96.8204 62.6587 97.1628 62.3867C97.4843 62.6673 98.2911 64.5242 98.2616 65.7584Z" fill="#B59B00"/>
<path d="M106.663 103.879C106.631 105.114 106.121 105.545 105.424 105.967C104.75 105.513 104.292 105.058 104.325 103.824C104.358 102.589 105.222 100.78 105.565 100.508C105.886 100.788 106.695 102.645 106.663 103.879Z" fill="#B59B00"/>
<path d="M98.8805 118.567C99.5224 119.631 99.321 120.261 98.9598 120.977C98.1417 120.94 97.5073 120.789 96.8648 119.725C96.2222 118.661 95.9762 116.679 96.1197 116.272C96.5451 116.345 98.2379 117.503 98.8805 118.567Z" fill="#B59B00"/>
<path d="M79.8779 78.8948C80.5129 79.9626 80.3083 80.5907 79.9408 81.3055C79.1227 81.2625 78.4896 81.1071 77.8553 80.0393C77.2209 78.9715 76.9874 76.9869 77.1341 76.5811C77.5582 76.6566 79.2429 77.8263 79.8779 78.8948Z" fill="#B59B00"/>
<path d="M107.8 107.515C107.205 108.049 106.775 108.012 106.267 107.887C106.181 107.383 106.193 106.976 106.788 106.442C107.383 105.908 108.618 105.491 108.898 105.521C108.909 105.792 108.395 106.982 107.8 107.515Z" fill="#B59B00"/>
<path d="M99.8012 115.352C99.9069 116.172 99.5771 116.908 99.046 117.129C98.8465 116.837 98.7212 116.503 98.6804 116.154C98.5746 115.334 98.9038 114.599 99.4355 114.377C99.6347 114.669 99.76 115.003 99.8012 115.352Z" fill="#B59B00"/>
<path d="M101.653 139.836V32.3701" stroke="#B59B00" stroke-width="6" stroke-miterlimit="10"/>
<path d="M97.1426 43.8032V54.0214C97.1426 54.4315 97.2254 54.8377 97.3863 55.2166C97.5472 55.5956 97.783 55.9399 98.0803 56.2299C98.3775 56.5199 98.7305 56.7499 99.1189 56.9068C99.5073 57.0637 99.9235 57.1444 100.344 57.1443V57.1443C100.691 57.1445 101.024 57.2791 101.269 57.5186C101.515 57.7581 101.653 58.0829 101.653 58.4215" stroke="#B59B00" stroke-width="6" stroke-miterlimit="10"/>
<path d="M97.1426 68.7632V82.0263C97.1426 82.6914 97.4134 83.3293 97.8954 83.7996C98.3773 84.2699 99.0311 84.5341 99.7127 84.5341C100.227 84.5341 100.721 84.7334 101.084 85.0883C101.448 85.4432 101.653 85.9246 101.653 86.4265" stroke="#B59B00" stroke-width="6" stroke-miterlimit="10"/>
<path d="M97.6431 101.122C97.6431 102.507 98.6657 103.63 99.9281 103.63C100.88 103.63 101.652 104.477 101.652 105.522" stroke="#B59B00" stroke-width="6" stroke-miterlimit="10"/>
<path d="M93.1304 71.8335V75.5042C93.1304 76.0278 93.3435 76.5299 93.723 76.9001C94.1024 77.2703 94.617 77.4783 95.1536 77.4783H95.7735C96.1363 77.4785 96.4842 77.6192 96.7407 77.8695C96.9973 78.1198 97.1415 78.4592 97.1416 78.8132" stroke="#B59B00" stroke-width="6" stroke-miterlimit="10"/>
<path d="M108.334 38.7041V44.7321C108.334 45.8375 107.884 46.8977 107.083 47.6793C106.282 48.461 105.195 48.9001 104.062 48.9001V48.9001C103.746 48.9001 103.433 48.961 103.14 49.0792C102.848 49.1974 102.582 49.3706 102.358 49.589C102.135 49.8074 101.957 50.0666 101.836 50.3519C101.715 50.6373 101.653 50.9431 101.653 51.2519" stroke="#B59B00" stroke-width="6" stroke-miterlimit="10"/>
<path d="M95.769 47.7217L96.5324 48.9399C96.9312 49.5753 97.1422 50.3059 97.1422 51.051" stroke="#B59B00" stroke-width="6" stroke-miterlimit="10"/>
<path d="M105.495 104.003V109.219C105.495 109.984 105.323 110.74 104.99 111.434C104.658 112.127 104.174 112.741 103.572 113.232L102.968 113.723C102.556 114.059 102.225 114.479 101.998 114.954C101.771 115.428 101.653 115.946 101.653 116.469" stroke="#B59B00" stroke-width="6" stroke-miterlimit="10"/>
<path d="M109.263 110.562C109.263 111.124 109.034 111.663 108.627 112.06C108.219 112.458 107.667 112.681 107.091 112.681H104.202" stroke="#B59B00" stroke-width="6" stroke-miterlimit="10" stroke-linecap="round"/>
<path d="M98.8574 120.263V134.871C98.8574 135.383 99.0658 135.874 99.4367 136.236C99.8077 136.598 100.311 136.801 100.835 136.801V136.801C101.052 136.801 101.26 136.885 101.414 137.035C101.567 137.185 101.653 137.388 101.653 137.599" stroke="#B59B00" stroke-width="6" stroke-miterlimit="10"/>
<path d="M82.5916 121.59C91.2632 121.59 98.293 113.065 98.293 102.549C98.293 92.0324 91.2632 83.5073 82.5916 83.5073C73.9199 83.5073 66.8901 92.0324 66.8901 102.549C66.8901 113.065 73.9199 121.59 82.5916 121.59Z" fill="#B59B00"/>
<path d="M87.6588 95.1013C87.9873 96.4448 87.7217 97.7374 87.0603 98.4932C86.9983 98.5619 86.9206 98.6154 86.8334 98.6492C86.7462 98.6829 86.6521 98.6961 86.5587 98.6876C86.4653 98.6791 86.3752 98.6492 86.296 98.6002C86.2167 98.5513 86.1504 98.4848 86.1025 98.406C85.835 97.9724 85.6386 97.5007 85.5204 97.0079C85.112 95.3334 85.623 93.7406 86.6764 93.1641C87.1565 93.7248 87.4932 94.3888 87.6588 95.1013Z" fill="#907B00"/>
<path d="M73.134 121.232C74.273 122.257 74.701 123.663 74.2227 124.586C73.5913 124.407 73.0124 124.084 72.5336 123.644C71.3952 122.619 70.9672 121.215 71.4455 120.291C72.0767 120.47 72.6553 120.793 73.134 121.232Z" fill="#907B00"/>
<path d="M71.434 124.492C72.2805 124.536 72.9639 124.983 73.0923 125.536C72.762 125.676 72.4024 125.737 72.0432 125.714C71.1974 125.67 70.5146 125.223 70.3862 124.67C70.7162 124.531 71.0753 124.47 71.434 124.492Z" fill="#B59B00"/>
<path d="M90.5504 99.4193C90.1099 100.515 89.1829 101.214 88.361 101.135C88.3162 100.637 88.3934 100.136 88.5863 99.6729C89.0268 98.5775 89.9538 97.8781 90.7757 97.9573C90.8201 98.4551 90.7429 98.9562 90.5504 99.4193Z" fill="#907B00"/>
<path d="M78.076 93.0558C78.7367 94.1095 78.5479 94.742 78.1974 95.4647C77.3793 95.4408 76.7418 95.3008 76.081 94.2477C75.4202 93.1946 75.1371 91.2162 75.2755 90.8091C75.7022 90.8729 77.4152 92.0028 78.076 93.0558Z" fill="#907B00"/>
<path d="M80.7002 92.8879C80.4271 93.8089 79.9576 94.0312 79.3503 94.213C78.9369 93.7432 78.687 93.314 78.9601 92.3954C79.2333 91.4768 80.2471 90.2874 80.5586 90.1499C80.7424 90.4225 80.9733 91.9693 80.7002 92.8879Z" fill="#907B00"/>
<path d="M82.1118 100.866V140.757" stroke="#907B00" stroke-width="6" stroke-miterlimit="10" stroke-linecap="round"/>
<path d="M86.5592 99.6372V104.133C86.5594 105.729 85.9593 107.27 84.8726 108.463L83.4 110.081C82.5701 110.993 82.1117 112.17 82.1118 113.389" stroke="#907B00" stroke-width="6" stroke-miterlimit="10" stroke-linecap="round"/>
<path d="M73.6992 123.823C74.2823 124.658 75.0655 125.341 75.9809 125.814C76.8963 126.286 77.916 126.533 78.9515 126.533H79.8697C80.4639 126.533 81.0339 126.763 81.4543 127.173C81.8747 127.583 82.1113 128.138 82.1119 128.718" stroke="#907B00" stroke-width="6" stroke-miterlimit="10" stroke-linecap="round"/>
<path d="M88.4974 101.846V102.89C88.4975 102.998 88.4757 103.106 88.4331 103.206C88.3905 103.307 88.3281 103.398 88.2494 103.475C88.1707 103.552 88.0772 103.613 87.9743 103.654C87.8714 103.696 87.7611 103.717 87.6498 103.717H87.2243C87.0559 103.717 86.8944 103.783 86.7753 103.899C86.6563 104.015 86.5894 104.173 86.5894 104.337" stroke="#907B00" stroke-width="6" stroke-miterlimit="10" stroke-linecap="round"/>
<path d="M79.0181 95.4307V104.049C79.0181 104.493 79.1991 104.92 79.5212 105.234C79.8434 105.549 80.2804 105.725 80.7361 105.726C81.1008 105.726 81.4507 105.867 81.7086 106.118C81.9666 106.37 82.1116 106.711 82.1118 107.067" stroke="#907B00" stroke-width="6" stroke-miterlimit="10" stroke-linecap="round"/>
<path d="M86.0339 121.242V121.863C86.0339 122.348 85.8365 122.813 85.4852 123.156C85.1339 123.499 84.6573 123.691 84.1605 123.691H83.1875C82.9026 123.691 82.6294 123.802 82.4279 123.998C82.2265 124.195 82.1133 124.461 82.1133 124.739" stroke="#907B00" stroke-width="6" stroke-miterlimit="10" stroke-linecap="round"/>
<path d="M77.9058 124.778C77.9058 125.245 78.0959 125.693 78.4344 126.024C78.7729 126.354 79.232 126.539 79.7106 126.539" stroke="#907B00" stroke-width="6" stroke-miterlimit="10" stroke-linecap="round"/>
<path d="M77.0923 97.1367V99.0236C77.0923 99.3331 77.2183 99.6298 77.4425 99.8486C77.6667 100.067 77.9709 100.19 78.288 100.19C78.384 100.19 78.4791 100.208 78.5678 100.244C78.6566 100.28 78.7372 100.332 78.8051 100.398C78.873 100.464 78.9269 100.543 78.9635 100.63C79.0001 100.716 79.0189 100.809 79.0186 100.903" stroke="#907B00" stroke-width="6" stroke-miterlimit="10" stroke-linecap="round"/>
<path d="M148.598 115.329C157.27 115.329 164.299 106.804 164.299 96.2878C164.299 85.7716 157.27 77.2466 148.598 77.2466C139.926 77.2466 132.896 85.7716 132.896 96.2878C132.896 106.804 139.926 115.329 148.598 115.329Z" fill="#B59B00"/>
<path d="M153.666 88.8406C153.994 90.1841 153.729 91.4766 153.067 92.2325C153.005 92.3012 152.927 92.3546 152.84 92.3884C152.753 92.4222 152.659 92.4354 152.566 92.4269C152.472 92.4184 152.382 92.3884 152.303 92.3395C152.224 92.2906 152.157 92.224 152.109 92.1453C151.842 91.7117 151.645 91.24 151.527 90.7471C151.119 89.0727 151.63 87.4799 152.683 86.9033C153.163 87.4641 153.5 88.128 153.666 88.8406Z" fill="#907B00"/>
<path d="M139.14 114.972C140.279 115.996 140.707 117.402 140.229 118.325C139.598 118.146 139.019 117.824 138.54 117.384C137.402 116.359 136.974 114.954 137.452 114.031C138.083 114.21 138.662 114.533 139.14 114.972Z" fill="#907B00"/>
<path d="M137.44 118.231C138.287 118.276 138.97 118.723 139.099 119.275C138.768 119.415 138.409 119.476 138.05 119.453C137.204 119.409 136.521 118.962 136.393 118.41C136.723 118.27 137.082 118.209 137.44 118.231Z" fill="#B59B00"/>
<path d="M156.557 93.1586C156.117 94.254 155.19 94.9528 154.368 94.8742C154.323 94.3763 154.4 93.8752 154.593 93.4122C155.034 92.3167 155.961 91.6173 156.783 91.6965C156.827 92.1944 156.75 92.6955 156.557 93.1586Z" fill="#907B00"/>
<path d="M144.082 86.7951C144.743 87.8488 144.554 88.4813 144.204 89.204C143.386 89.18 142.748 89.04 142.087 87.987C141.427 86.9339 141.143 84.9554 141.282 84.5483C141.709 84.6122 143.422 85.742 144.082 86.7951Z" fill="#907B00"/>
<path d="M146.707 86.6271C146.433 87.5482 145.964 87.7705 145.357 87.9522C144.943 87.4825 144.693 87.0533 144.966 86.1347C145.24 85.2161 146.253 84.0267 146.565 83.8892C146.749 84.1618 146.98 85.7085 146.707 86.6271Z" fill="#907B00"/>
<path d="M148.118 94.605V134.497" stroke="#907B00" stroke-width="6" stroke-miterlimit="10" stroke-linecap="round"/>
<path d="M152.566 93.3765V97.8718C152.566 99.4682 151.966 101.009 150.879 102.203L149.406 103.82C148.576 104.732 148.118 105.909 148.118 107.128" stroke="#907B00" stroke-width="6" stroke-miterlimit="10" stroke-linecap="round"/>
<path d="M139.706 117.562C140.289 118.397 141.072 119.081 141.988 119.553C142.903 120.025 143.923 120.272 144.958 120.272H145.877C146.471 120.272 147.041 120.502 147.461 120.912C147.882 121.322 148.118 121.878 148.119 122.458" stroke="#907B00" stroke-width="6" stroke-miterlimit="10" stroke-linecap="round"/>
<path d="M154.505 95.5859V96.6298C154.505 96.7385 154.483 96.8461 154.44 96.9465C154.398 97.0469 154.335 97.1382 154.257 97.2151C154.178 97.2919 154.085 97.3529 153.982 97.3945C153.879 97.4361 153.768 97.4575 153.657 97.4575H153.232C153.063 97.4575 152.902 97.5228 152.783 97.639C152.664 97.7552 152.597 97.9128 152.597 98.0771" stroke="#907B00" stroke-width="6" stroke-miterlimit="10" stroke-linecap="round"/>
<path d="M145.024 89.1704V97.7884C145.024 98.233 145.205 98.6595 145.528 98.9739C145.85 99.2884 146.287 99.4651 146.742 99.4653C147.107 99.4653 147.457 99.6066 147.715 99.8582C147.973 100.11 148.118 100.451 148.118 100.807" stroke="#907B00" stroke-width="6" stroke-miterlimit="10" stroke-linecap="round"/>
<path d="M152.04 114.981V115.602C152.04 116.087 151.843 116.552 151.492 116.895C151.14 117.238 150.664 117.43 150.167 117.43H149.194C148.909 117.43 148.636 117.541 148.434 117.737C148.233 117.934 148.12 118.201 148.12 118.479" stroke="#907B00" stroke-width="6" stroke-miterlimit="10" stroke-linecap="round"/>
<path d="M143.912 118.518C143.912 118.985 144.102 119.433 144.441 119.763C144.779 120.093 145.238 120.279 145.717 120.279" stroke="#907B00" stroke-width="6" stroke-miterlimit="10" stroke-linecap="round"/>
<path d="M143.099 90.877V92.7639C143.099 93.0733 143.225 93.37 143.449 93.5888C143.673 93.8076 143.977 93.9305 144.294 93.9305C144.39 93.9302 144.485 93.9484 144.574 93.9841C144.663 94.0198 144.744 94.0722 144.811 94.1384C144.879 94.2046 144.933 94.2832 144.97 94.3698C145.006 94.4564 145.025 94.5492 145.025 94.6428" stroke="#907B00" stroke-width="6" stroke-miterlimit="10" stroke-linecap="round"/>
<path d="M123.315 127.638C132.526 127.638 139.994 119.059 139.994 108.475C139.994 97.8917 132.526 89.312 123.315 89.312C114.103 89.312 106.636 97.8917 106.636 108.475C106.636 119.059 114.103 127.638 123.315 127.638Z" fill="#B59B00"/>
<path d="M128.824 105.874C129.153 107.218 128.887 108.51 128.226 109.266C128.164 109.335 128.086 109.388 127.999 109.422C127.912 109.456 127.818 109.469 127.724 109.461C127.631 109.452 127.541 109.422 127.461 109.373C127.382 109.324 127.316 109.258 127.268 109.179C127 108.745 126.804 108.274 126.686 107.781C126.277 106.106 126.789 104.514 127.842 103.937C128.322 104.498 128.659 105.162 128.824 105.874Z" fill="#907B00"/>
<path d="M114.299 132.006C115.438 133.03 115.866 134.437 115.388 135.36C114.756 135.18 114.177 134.858 113.699 134.418C112.56 133.393 112.132 131.988 112.611 131.065C113.242 131.244 113.82 131.567 114.299 132.006Z" fill="#907B00"/>
<path d="M112.599 135.266C113.446 135.31 114.129 135.757 114.257 136.31C113.927 136.449 113.567 136.51 113.208 136.488C112.362 136.443 111.68 135.996 111.551 135.444C111.881 135.305 112.24 135.244 112.599 135.266Z" fill="#B59B00"/>
<path d="M131.716 110.193C131.275 111.288 130.348 111.987 129.527 111.908C129.482 111.411 129.559 110.909 129.752 110.446C130.192 109.351 131.119 108.651 131.941 108.731C131.986 109.229 131.908 109.73 131.716 110.193Z" fill="#907B00"/>
<path d="M119.241 103.829C119.902 104.883 119.713 105.515 119.363 106.238C118.545 106.214 117.907 106.074 117.247 105.021C116.586 103.968 116.303 101.99 116.441 101.583C116.868 101.646 118.581 102.776 119.241 103.829Z" fill="#907B00"/>
<path d="M121.865 103.661C121.592 104.582 121.123 104.804 120.515 104.986C120.102 104.516 119.852 104.087 120.125 103.168C120.398 102.25 121.412 101.06 121.724 100.923C121.907 101.195 122.138 102.742 121.865 103.661Z" fill="#907B00"/>
<path d="M123.278 111.639V151.531" stroke="#907B00" stroke-width="6" stroke-miterlimit="10" stroke-linecap="round"/>
<path d="M127.725 110.411V114.906C127.725 116.502 127.125 118.043 126.039 119.237L124.566 120.854C123.736 121.766 123.278 122.943 123.278 124.163" stroke="#907B00" stroke-width="6" stroke-miterlimit="10" stroke-linecap="round"/>
<path d="M114.865 134.596C115.448 135.431 116.231 136.114 117.146 136.587C118.062 137.059 119.082 137.306 120.117 137.306H121.035C121.629 137.306 122.199 137.536 122.62 137.946C123.04 138.356 123.277 138.911 123.277 139.491" stroke="#907B00" stroke-width="6" stroke-miterlimit="10" stroke-linecap="round"/>
<path d="M129.663 112.62V113.664C129.664 113.772 129.642 113.88 129.599 113.98C129.557 114.081 129.494 114.172 129.415 114.249C129.337 114.326 129.243 114.387 129.14 114.428C129.037 114.47 128.927 114.491 128.816 114.491H128.39C128.222 114.491 128.06 114.557 127.941 114.673C127.822 114.789 127.755 114.946 127.755 115.111" stroke="#907B00" stroke-width="6" stroke-miterlimit="10" stroke-linecap="round"/>
<path d="M120.183 106.204V114.822C120.183 115.267 120.364 115.693 120.686 116.008C121.008 116.322 121.445 116.499 121.901 116.499C122.266 116.499 122.616 116.64 122.874 116.892C123.132 117.144 123.277 117.485 123.277 117.841" stroke="#907B00" stroke-width="6" stroke-miterlimit="10" stroke-linecap="round"/>
<path d="M127.199 132.015V132.636C127.199 133.121 127.002 133.586 126.65 133.929C126.299 134.271 125.822 134.464 125.325 134.464H124.353C124.068 134.464 123.794 134.574 123.593 134.771C123.391 134.968 123.278 135.234 123.278 135.512" stroke="#907B00" stroke-width="6" stroke-miterlimit="10" stroke-linecap="round"/>
<path d="M119.071 135.551C119.071 136.018 119.261 136.466 119.599 136.797C119.938 137.127 120.397 137.312 120.876 137.312" stroke="#907B00" stroke-width="6" stroke-miterlimit="10" stroke-linecap="round"/>
<path d="M118.257 107.91V109.797C118.257 110.106 118.383 110.403 118.608 110.622C118.832 110.841 119.136 110.964 119.453 110.964C119.549 110.963 119.644 110.982 119.733 111.017C119.822 111.053 119.902 111.105 119.97 111.172C120.038 111.238 120.092 111.316 120.129 111.403C120.165 111.49 120.184 111.582 120.184 111.676" stroke="#907B00" stroke-width="6" stroke-miterlimit="10" stroke-linecap="round"/>
<path d="M47.8137 130.233C56.4854 130.233 63.5152 121.708 63.5152 111.192C63.5152 100.676 56.4854 92.1509 47.8137 92.1509C39.1421 92.1509 32.1123 100.676 32.1123 111.192C32.1123 121.708 39.1421 130.233 47.8137 130.233Z" fill="#907B00"/>
<path d="M52.8815 103.745C53.21 105.088 52.9444 106.381 52.283 107.137C52.221 107.205 52.1432 107.259 52.0561 107.293C51.9689 107.326 51.8747 107.34 51.7813 107.331C51.6879 107.323 51.5979 107.293 51.5186 107.244C51.4393 107.195 51.3731 107.128 51.3252 107.05C51.0576 106.616 50.8612 106.144 50.7431 105.651C50.3346 103.977 50.8456 102.384 51.8991 101.808C52.3791 102.368 52.7158 103.032 52.8815 103.745Z" fill="#B59B00"/>
<path d="M38.3561 129.876C39.4952 130.901 39.9231 132.307 39.4449 133.23C38.8135 133.051 38.2346 132.728 37.7558 132.288C36.6173 131.263 36.1894 129.859 36.6677 128.935C37.2988 129.114 37.8775 129.437 38.3561 129.876Z" fill="#B59B00"/>
<path d="M36.6562 133.137C37.5026 133.181 38.1861 133.628 38.3145 134.181C37.9841 134.32 37.6246 134.381 37.2654 134.359C36.4196 134.314 35.7368 133.867 35.6084 133.315C35.9384 133.176 36.2974 133.115 36.6562 133.137Z" fill="#907B00"/>
<path d="M55.773 108.064C55.3325 109.159 54.4055 109.858 53.5836 109.779C53.5389 109.282 53.6161 108.78 53.8089 108.317C54.2495 107.222 55.1764 106.523 55.9983 106.602C56.0428 107.1 55.9656 107.601 55.773 108.064Z" fill="#B59B00"/>
<path d="M43.2981 101.7C43.9589 102.754 43.7701 103.386 43.4196 104.109C42.6015 104.085 41.964 103.945 41.3032 102.892C40.6424 101.839 40.3592 99.8602 40.4977 99.4531C40.9243 99.517 42.6373 100.647 43.2981 101.7Z" fill="#B59B00"/>
<path d="M45.9224 101.532C45.6492 102.453 45.1798 102.675 44.5725 102.857C44.159 102.387 43.9092 101.958 44.1823 101.039C44.4554 100.121 45.4693 98.9315 45.7808 98.7939C45.9645 99.0666 46.1955 100.613 45.9224 101.532Z" fill="#B59B00"/>
<path d="M47.334 109.509V149.401" stroke="#B59B00" stroke-width="6" stroke-miterlimit="10" stroke-linecap="round"/>
<path d="M51.7814 108.281V112.777C51.7815 114.373 51.1814 115.914 50.0948 117.107L48.6222 118.725C47.7923 119.637 47.3339 120.814 47.334 122.033" stroke="#B59B00" stroke-width="6" stroke-miterlimit="10" stroke-linecap="round"/>
<path d="M38.9219 132.467C39.5049 133.302 40.2882 133.985 41.2036 134.457C42.1189 134.93 43.1387 135.176 44.1741 135.177H45.0923C45.6866 135.177 46.2565 135.407 46.6769 135.816C47.0974 136.226 47.3339 136.782 47.3346 137.362" stroke="#B59B00" stroke-width="6" stroke-miterlimit="10" stroke-linecap="round"/>
<path d="M53.7206 110.49V111.534C53.7207 111.643 53.6988 111.75 53.6562 111.851C53.6137 111.951 53.5513 112.042 53.4725 112.119C53.3938 112.196 53.3003 112.257 53.1974 112.299C53.0946 112.34 52.9843 112.362 52.8729 112.362H52.4475C52.2791 112.362 52.1176 112.427 51.9985 112.543C51.8794 112.659 51.8125 112.817 51.8125 112.981" stroke="#B59B00" stroke-width="6" stroke-miterlimit="10" stroke-linecap="round"/>
<path d="M44.2402 104.075V112.693C44.2402 113.137 44.4212 113.564 44.7434 113.878C45.0656 114.193 45.5026 114.369 45.9583 114.37C46.323 114.37 46.6728 114.511 46.9308 114.763C47.1888 115.014 47.3338 115.355 47.334 115.711" stroke="#B59B00" stroke-width="6" stroke-miterlimit="10" stroke-linecap="round"/>
<path d="M51.2561 129.886V130.507C51.2561 130.992 51.0587 131.457 50.7074 131.8C50.356 132.143 49.8795 132.335 49.3826 132.335H48.4097C48.1248 132.335 47.8515 132.446 47.6501 132.642C47.4486 132.839 47.3354 133.105 47.3354 133.383" stroke="#B59B00" stroke-width="6" stroke-miterlimit="10" stroke-linecap="round"/>
<path d="M43.1279 133.422C43.1279 133.889 43.3181 134.337 43.6566 134.668C43.995 134.998 44.4541 135.183 44.9328 135.183" stroke="#B59B00" stroke-width="6" stroke-miterlimit="10" stroke-linecap="round"/>
<path d="M42.3145 105.781V107.668C42.3145 107.978 42.4404 108.274 42.6647 108.493C42.8889 108.712 43.193 108.835 43.5102 108.835C43.6061 108.835 43.7012 108.853 43.79 108.888C43.8788 108.924 43.9594 108.976 44.0273 109.043C44.0952 109.109 44.149 109.188 44.1857 109.274C44.2223 109.361 44.241 109.453 44.2408 109.547" stroke="#B59B00" stroke-width="6" stroke-miterlimit="10" stroke-linecap="round"/>
<path d="M180.094 117.88C193.226 117.88 203.871 104.971 203.871 89.0464C203.871 73.1218 193.226 60.2124 180.094 60.2124C166.963 60.2124 156.318 73.1218 156.318 89.0464C156.318 104.971 166.963 117.88 180.094 117.88Z" fill="#907B00"/>
<path d="M187.768 77.769C188.265 79.8035 187.863 81.7608 186.862 82.9054C186.768 83.0094 186.65 83.0903 186.518 83.1415C186.386 83.1926 186.243 83.2126 186.102 83.1997C185.96 83.1868 185.824 83.1415 185.704 83.0674C185.584 82.9933 185.484 82.8925 185.411 82.7733C185.006 82.1167 184.709 81.4024 184.53 80.6561C183.911 78.1205 184.685 75.7086 186.28 74.8354C187.007 75.6846 187.517 76.69 187.768 77.769Z" fill="#B59B00"/>
<path d="M165.772 117.339C167.497 118.89 168.145 121.02 167.421 122.417C166.465 122.146 165.588 121.658 164.863 120.992C163.139 119.44 162.491 117.313 163.215 115.914C164.171 116.185 165.047 116.674 165.772 117.339Z" fill="#B59B00"/>
<path d="M163.199 122.276C164.48 122.343 165.515 123.02 165.71 123.856C165.209 124.068 164.665 124.16 164.121 124.126C162.84 124.059 161.806 123.382 161.612 122.545C162.112 122.335 162.655 122.242 163.199 122.276Z" fill="#907B00"/>
<path d="M192.147 84.3077C191.48 85.9665 190.076 87.0247 188.832 86.9056C188.764 86.1517 188.881 85.3928 189.173 84.6917C189.84 83.0328 191.244 81.9738 192.488 82.0937C192.556 82.8476 192.439 83.6064 192.147 84.3077Z" fill="#B59B00"/>
<path d="M173.257 74.6718C174.258 76.2674 173.972 77.2251 173.441 78.3195C172.202 78.2833 171.237 78.0713 170.236 76.4766C169.235 74.8819 168.807 71.886 169.016 71.2695C169.662 71.3662 172.256 73.0771 173.257 74.6718Z" fill="#B59B00"/>
<path d="M177.23 74.4176C176.816 75.8123 176.105 76.1489 175.186 76.4242C174.559 75.7128 174.181 75.0629 174.595 73.6719C175.008 72.2808 176.543 70.4798 177.015 70.2715C177.293 70.6843 177.643 73.0266 177.23 74.4176Z" fill="#B59B00"/>
<path d="M179.369 86.498V146.905" stroke="#B59B00" stroke-width="6" stroke-miterlimit="10" stroke-linecap="round"/>
<path d="M186.104 84.6382V91.4455C186.104 93.8629 185.195 96.1963 183.55 98.0036L181.32 100.453C180.063 101.833 179.369 103.616 179.369 105.463" stroke="#B59B00" stroke-width="6" stroke-miterlimit="10" stroke-linecap="round"/>
<path d="M166.629 121.262C167.512 122.527 168.698 123.561 170.085 124.276C171.471 124.992 173.015 125.365 174.583 125.366H175.973C176.873 125.366 177.736 125.714 178.373 126.335C179.009 126.955 179.368 127.797 179.369 128.675" stroke="#B59B00" stroke-width="6" stroke-miterlimit="10" stroke-linecap="round"/>
<path d="M189.038 87.9829V89.5636C189.038 89.7282 189.005 89.8912 188.941 90.0432C188.876 90.1953 188.782 90.3335 188.663 90.4499C188.543 90.5663 188.402 90.6586 188.246 90.7216C188.09 90.7846 187.923 90.8171 187.755 90.8171H187.11C186.855 90.8171 186.611 90.9159 186.431 91.0919C186.25 91.2678 186.149 91.5065 186.149 91.7553" stroke="#B59B00" stroke-width="6" stroke-miterlimit="10" stroke-linecap="round"/>
<path d="M174.683 78.2686V91.3187C174.683 91.992 174.957 92.6377 175.445 93.1139C175.933 93.5901 176.595 93.8578 177.285 93.858C177.837 93.858 178.367 94.072 178.757 94.453C179.148 94.834 179.368 95.3508 179.368 95.8897" stroke="#B59B00" stroke-width="6" stroke-miterlimit="10" stroke-linecap="round"/>
<path d="M185.307 117.354V118.295C185.307 119.029 185.008 119.733 184.476 120.252C183.944 120.771 183.222 121.063 182.47 121.063H180.996C180.565 121.063 180.151 121.23 179.846 121.528C179.541 121.825 179.37 122.229 179.37 122.65" stroke="#B59B00" stroke-width="6" stroke-miterlimit="10" stroke-linecap="round"/>
<path d="M172.998 122.708C172.998 123.416 173.286 124.094 173.799 124.594C174.311 125.094 175.006 125.375 175.731 125.375" stroke="#B59B00" stroke-width="6" stroke-miterlimit="10" stroke-linecap="round"/>
<path d="M171.767 80.8521V83.7094C171.767 84.1779 171.958 84.6273 172.297 84.9586C172.637 85.2899 173.098 85.4761 173.578 85.4761C173.723 85.4756 173.867 85.5031 174.001 85.5572C174.136 85.6112 174.258 85.6906 174.361 85.7908C174.464 85.8911 174.545 86.0102 174.601 86.1412C174.656 86.2723 174.684 86.4128 174.684 86.5547" stroke="#B59B00" stroke-width="6" stroke-miterlimit="10" stroke-linecap="round"/>
<path d="M66.0007 117.167L57.9644 109.193L67.0529 115.339L66.7578 109.506L71.0176 114.578L70.2662 96.4263L73.4399 112.623L76.4776 109.809L76.1963 114.681L79.626 113.298L76.9294 117.094L66.0007 117.167Z" fill="#907B00"/>
<path d="M152.201 117.024L148.568 114.375L151.825 114.824L151.867 112.012L153.83 114.131L154.707 100.032L157.171 113.886L158.716 110.137L159.301 115.19L162.099 113.357L160.553 117.083L152.201 117.024Z" fill="#907B00"/>
<path d="M149.759 111.98C149.76 112.255 149.708 112.529 149.607 112.786C148.621 112.636 147.863 111.748 147.863 110.675C147.863 110.4 147.914 110.127 148.015 109.869C149.002 110.018 149.759 110.906 149.759 111.98Z" fill="#907B00"/>
<path d="M187.39 105.222C187.319 105.489 187.199 105.741 187.035 105.965C186.118 105.578 185.615 104.531 185.892 103.494C185.963 103.227 186.083 102.975 186.247 102.75C187.164 103.138 187.667 104.184 187.39 105.222Z" fill="#907B00"/>
<path d="M189.514 106.637C189.134 106.825 188.728 106.958 188.309 107.031C187.978 105.888 188.8 104.48 190.292 103.744C190.672 103.555 191.078 103.422 191.498 103.35C191.829 104.492 191.007 105.9 189.514 106.637Z" fill="#907B00"/>
<path d="M59.4494 112.482C59.9032 112.928 59.8855 113.262 59.7987 113.66C59.3903 113.742 59.0586 113.746 58.603 113.299C58.1474 112.853 57.7729 111.907 57.7912 111.689C58.0121 111.672 58.9957 112.035 59.4494 112.482Z" fill="#B59B00"/>
<path d="M204.41 121.938C204.189 122.049 203.952 122.126 203.707 122.168C203.514 121.501 203.994 120.679 204.865 120.249C205.086 120.139 205.323 120.062 205.568 120.019C205.762 120.686 205.281 121.508 204.41 121.938Z" fill="#907B00"/>
<path d="M198.057 129.186H190.051L185.847 126.903L193.587 128.614L190.441 125.206L193.478 126.612L193.189 122.511L195.387 126.189C195.408 126.227 195.442 126.258 195.484 126.276C195.525 126.293 195.571 126.297 195.614 126.286C195.658 126.275 195.697 126.25 195.724 126.215C195.751 126.18 195.765 126.137 195.765 126.093L194.483 107.939L197.837 121.593L200.894 113.044L199.982 125.772L206.001 123.027L201.428 127.56C201.032 128.066 200.522 128.476 199.937 128.758C199.353 129.04 198.709 129.186 198.057 129.186Z" fill="#907B00"/>
<path d="M79.4395 111.315C78.8448 111.849 78.415 111.812 77.9071 111.687C77.8209 111.183 77.8322 110.777 78.4269 110.242C79.0216 109.708 80.2576 109.291 80.5377 109.321C80.5496 109.593 80.0342 110.78 79.4395 111.315Z" fill="#907B00"/>
<path d="M198.705 160.347C229.644 160.347 254.725 158.629 254.725 156.511C254.725 154.393 229.644 152.676 198.705 152.676C167.766 152.676 142.685 154.393 142.685 156.511C142.685 158.629 167.766 160.347 198.705 160.347Z" fill="#B59B00"/>
<path d="M252.628 130.22C272.243 128.883 273.595 121.11 273.595 121.11C273.595 121.11 229.854 120.02 183.954 119.966C132.726 119.906 82.8951 122.736 80.1305 125.904C76.6495 129.888 143.938 132.714 145.83 130.772C147.305 129.26 142.39 128.221 137.476 126.942C134.391 126.139 140.607 120.303 197.581 125.175C221.104 127.187 237.394 131.259 252.628 130.22Z" fill="#907B00"/>
<path d="M151.496 127.353C155.805 127.353 159.298 126.822 159.298 126.168C159.298 125.513 155.805 124.983 151.496 124.983C147.188 124.983 143.695 125.513 143.695 126.168C143.695 126.822 147.188 127.353 151.496 127.353Z" fill="#907B00"/>
<path d="M256.937 111.348C256.941 114.497 256.655 117.639 256.081 120.738C245.567 120.538 231.117 120.302 214.983 120.143C214.481 117.237 214.231 114.295 214.235 111.348C214.235 92.9026 223.794 77.9497 235.586 77.9497C247.379 77.9497 256.937 92.9026 256.937 111.348Z" fill="#C8D9D2"/>
<path d="M134.811 120.78C111.925 121.582 93.3065 122.907 84.8794 124.422C87.8285 119.849 98.0143 111.83 110.837 109.948C124.941 107.876 132.994 112.433 134.811 120.78Z" fill="#C8D9D2"/>
<path d="M274.41 116.099C274.411 117.802 274.128 119.493 273.57 121.106H273.397H273.387C270.097 121.026 228.02 120.019 183.953 119.969C164.84 119.947 145.92 120.33 129.567 120.977C130.652 119.252 133.07 118.051 135.879 118.051C137.25 118.051 138.532 118.338 139.605 118.834C139.307 117.084 139.607 115.287 140.459 113.72C141.31 112.153 142.665 110.902 144.316 110.16C145.967 109.418 147.823 109.225 149.597 109.612C151.371 109.999 152.965 110.944 154.135 112.302C154.19 112.365 154.244 112.43 154.296 112.495C154.329 112.43 154.362 112.366 154.396 112.302C157.618 106.16 165.504 101.816 174.722 101.816C184.775 101.816 193.244 106.98 195.805 114.015C197.293 112.653 199.244 111.874 201.285 111.828C203.325 111.781 205.311 112.47 206.863 113.763C210.603 110.035 216.284 107.657 222.644 107.657C229.652 107.657 235.835 110.547 239.506 114.942C240.144 106.481 247.703 99.8018 256.936 99.8018C266.586 99.7969 274.41 107.094 274.41 116.099Z" fill="#B59B00"/>
<path d="M267.06 27.9903H197.76C197.76 25.8684 200.054 22.4509 211.193 26.6114C211.193 26.6114 211.478 21.7976 217.138 23.3938C223.809 25.2748 218.731 18.0705 224.487 16.9861C227.474 16.4237 229.115 18.0097 230.297 19.3163C230.866 11.8754 237.677 6 245.996 6C254.688 6 261.732 12.4137 261.732 20.326C261.732 20.8113 261.706 21.2963 261.653 21.7789C262.543 20.718 264.51 19.7691 267.195 19.8305C267.257 19.8305 267.318 19.8329 267.381 19.8377C272.82 20.1424 272.51 27.9903 267.06 27.9903Z" fill="#E5F1EF"/>
<path d="M129.366 80.4306C141.425 80.4306 151.2 64.4014 151.2 44.6284C151.2 24.8554 141.425 8.82617 129.366 8.82617C117.308 8.82617 107.533 24.8554 107.533 44.6284C107.533 64.4014 117.308 80.4306 129.366 80.4306Z" fill="#907B00"/>
<path d="M136.632 19.3308C137.033 20.9728 136.531 22.5358 135.499 23.1006C135.028 22.5507 134.697 21.8994 134.535 21.2004C134.134 19.5584 134.635 17.9965 135.668 17.4312C136.139 17.9812 136.469 18.6322 136.632 19.3308Z" fill="#B59B00"/>
<path d="M138.914 23.5079C138.213 24.4382 137.155 24.8741 136.396 24.5977C136.482 24.1149 136.685 23.6588 136.986 23.267C137.687 22.3374 138.745 21.9014 139.504 22.1778C139.418 22.6605 139.215 23.1163 138.914 23.5079Z" fill="#B59B00"/>
<path d="M144.036 33.9068C143.802 35.3218 142.887 36.3881 141.888 36.5031C141.702 35.9222 141.66 35.3064 141.765 34.7064C141.999 33.2915 142.913 32.2257 143.912 32.1113C144.098 32.6919 144.141 33.3072 144.036 33.9068Z" fill="#B59B00"/>
<path d="M144.68 37.5236C143.774 37.9077 142.823 37.7885 142.397 37.2779C142.667 36.9649 143.01 36.7188 143.396 36.5596C144.303 36.176 145.253 36.2952 145.679 36.8058C145.409 37.1188 145.067 37.3647 144.68 37.5236Z" fill="#B59B00"/>
<path d="M125.763 24.9188C125.763 26.2669 125.236 27.4206 124.487 27.8986C123.739 27.4212 123.211 26.2669 123.211 24.9188C123.211 23.5707 123.739 22.417 124.487 21.939C125.236 22.4176 125.763 23.5719 125.763 24.9188Z" fill="#B59B00"/>
<path d="M122.607 28.0153C123.271 28.9498 123.471 29.9975 123.19 30.6803C122.435 30.7001 121.501 30.1468 120.837 29.2123C120.173 28.2778 119.973 27.2296 120.254 26.5474C121.009 26.5281 121.943 27.0808 122.607 28.0153Z" fill="#B59B00"/>
<path d="M117.242 58.7223C118.242 58.429 119.213 58.5507 119.731 58.9758C119.54 59.608 118.798 60.2324 117.797 60.5256C116.797 60.8189 115.826 60.6972 115.308 60.2721C115.5 59.6393 116.242 59.0155 117.242 58.7223Z" fill="#B59B00"/>
<path d="M121.807 53.1842C121.777 54.3944 121.276 54.8171 120.592 55.2314C119.931 54.7864 119.482 54.3396 119.515 53.1294C119.548 51.9191 120.394 50.1447 120.73 49.8779C121.045 50.1531 121.836 51.9739 121.807 53.1842Z" fill="#B59B00"/>
<path d="M125.634 48.3667C125.603 49.577 125.102 49.9997 124.419 50.4139C123.758 49.969 123.308 49.5222 123.341 48.312C123.374 47.1017 124.22 45.3273 124.556 45.0605C124.871 45.3357 125.663 47.1565 125.634 48.3667Z" fill="#B59B00"/>
<path d="M133.872 85.7476C133.841 86.9579 133.341 87.3805 132.657 87.7948C131.996 87.3492 131.547 86.9031 131.579 85.6928C131.612 84.4826 132.459 82.7081 132.795 82.4414C133.11 82.716 133.903 84.5368 133.872 85.7476Z" fill="#B59B00"/>
<path d="M126.241 100.15C126.87 101.193 126.673 101.811 126.318 102.513C125.516 102.477 124.894 102.329 124.264 101.286C123.634 100.242 123.393 98.2985 123.533 97.8999C123.951 97.971 125.611 99.1065 126.241 100.15Z" fill="#B59B00"/>
<path d="M107.607 61.2483C108.23 62.2954 108.029 62.9113 107.669 63.6122C106.866 63.57 106.246 63.4177 105.624 62.3706C105.002 61.3235 104.773 59.3775 104.916 58.9795C105.332 59.0536 106.984 60.2006 107.607 61.2483Z" fill="#B59B00"/>
<path d="M134.987 89.3125C134.403 89.8364 133.982 89.8002 133.484 89.6774C133.399 89.1837 133.411 88.7845 133.994 88.2606C134.578 87.7368 135.789 87.328 136.063 87.3575C136.074 87.6236 135.57 88.7899 134.987 89.3125Z" fill="#B59B00"/>
<path d="M127.144 96.9977C127.248 97.8021 126.925 98.5234 126.404 98.7402C126.208 98.4538 126.085 98.126 126.045 97.784C125.942 96.9796 126.264 96.2589 126.786 96.0415C126.981 96.3281 127.104 96.6558 127.144 96.9977Z" fill="#B59B00"/>
<path d="M128.959 121.006V15.627" stroke="#B59B00" stroke-width="6" stroke-miterlimit="10"/>
<path d="M124.537 26.8379V36.8576C124.537 37.2598 124.618 37.6581 124.776 38.0297C124.933 38.4013 125.165 38.7389 125.456 39.0232C125.748 39.3076 126.094 39.5332 126.475 39.687C126.855 39.8409 127.264 39.92 127.676 39.92V39.92C128.016 39.9201 128.343 40.0521 128.583 40.287C128.824 40.5218 128.959 40.8403 128.959 41.1724" stroke="#B59B00" stroke-width="6" stroke-miterlimit="10"/>
<path d="M124.537 51.3135V64.3191C124.537 64.9713 124.802 65.5967 125.275 66.0579C125.747 66.5191 126.388 66.7781 127.057 66.7781C127.561 66.7781 128.045 66.9736 128.402 67.3216C128.759 67.6696 128.959 68.1416 128.959 68.6338" stroke="#B59B00" stroke-width="6" stroke-miterlimit="10"/>
<path d="M125.028 83.0435C125.028 84.4012 126.031 85.5025 127.269 85.5025C128.202 85.5025 128.959 86.3334 128.959 87.3582" stroke="#B59B00" stroke-width="6" stroke-miterlimit="10"/>
<path d="M120.602 54.3237V57.9232C120.602 58.4366 120.811 58.9289 121.183 59.292C121.555 59.655 122.06 59.8589 122.586 59.8589H123.194C123.55 59.8591 123.891 59.9971 124.142 60.2425C124.394 60.488 124.535 60.8208 124.535 61.1679" stroke="#B59B00" stroke-width="6" stroke-miterlimit="10"/>
<path d="M135.511 21.8379V27.7488C135.511 28.8328 135.069 29.8724 134.284 30.6388C133.498 31.4053 132.433 31.8359 131.322 31.8359V31.8359C131.011 31.8359 130.704 31.8956 130.417 32.0115C130.131 32.1274 129.87 32.2973 129.651 32.5114C129.431 32.7256 129.257 32.9798 129.139 33.2596C129.02 33.5393 128.959 33.8392 128.959 34.142" stroke="#B59B00" stroke-width="6" stroke-miterlimit="10"/>
<path d="M123.19 30.6807L123.938 31.8752C124.33 32.4983 124.536 33.2147 124.536 33.9453" stroke="#B59B00" stroke-width="6" stroke-miterlimit="10"/>
<path d="M132.726 85.8696V90.9839C132.726 91.7344 132.557 92.4758 132.232 93.1556C131.906 93.8355 131.431 94.4374 130.841 94.9187L130.249 95.4004C129.845 95.7299 129.52 96.1419 129.297 96.6072C129.074 97.0726 128.959 97.58 128.959 98.0936" stroke="#B59B00" stroke-width="6" stroke-miterlimit="10"/>
<path d="M136.421 92.3013C136.421 92.8524 136.197 93.3809 135.797 93.7706C135.398 94.1602 134.856 94.3791 134.292 94.3791H131.458" stroke="#B59B00" stroke-width="6" stroke-miterlimit="10" stroke-linecap="round"/>
<path d="M126.218 101.813V116.138C126.218 116.64 126.422 117.121 126.786 117.476C127.15 117.831 127.643 118.03 128.157 118.03V118.03C128.37 118.03 128.574 118.113 128.725 118.26C128.875 118.406 128.96 118.606 128.96 118.813" stroke="#B59B00" stroke-width="6" stroke-miterlimit="10"/>
<path d="M110.268 103.114C118.771 103.114 125.664 94.7545 125.664 84.4425C125.664 74.1305 118.771 65.771 110.268 65.771C101.764 65.771 94.8711 74.1305 94.8711 84.4425C94.8711 94.7545 101.764 103.114 110.268 103.114Z" fill="#B59B00"/>
<path d="M115.237 77.1404C115.559 78.4578 115.298 79.7252 114.65 80.4664C114.589 80.5338 114.513 80.5862 114.427 80.6193C114.342 80.6524 114.249 80.6654 114.158 80.657C114.066 80.6487 113.978 80.6193 113.9 80.5713C113.823 80.5234 113.758 80.4581 113.711 80.3809C113.448 79.9557 113.256 79.4932 113.14 79.0099C112.739 77.368 113.24 75.8061 114.273 75.2407C114.744 75.7906 115.074 76.4417 115.237 77.1404Z" fill="#907B00"/>
<path d="M100.993 102.764C102.11 103.768 102.53 105.147 102.061 106.052C101.442 105.876 100.874 105.56 100.405 105.129C99.2884 104.124 98.8688 102.746 99.3378 101.841C99.9567 102.017 100.524 102.333 100.993 102.764Z" fill="#907B00"/>
<path d="M99.3268 105.961C100.157 106.004 100.827 106.443 100.953 106.985C100.629 107.121 100.276 107.181 99.9241 107.159C99.0948 107.116 98.4252 106.677 98.2993 106.135C98.6229 105.999 98.975 105.939 99.3268 105.961Z" fill="#B59B00"/>
<path d="M118.072 81.3747C117.64 82.4489 116.731 83.1341 115.925 83.057C115.881 82.5688 115.957 82.0774 116.146 81.6234C116.578 80.5492 117.487 79.8634 118.293 79.941C118.337 80.4292 118.261 80.9206 118.072 81.3747Z" fill="#907B00"/>
<path d="M105.84 75.1348C106.488 76.168 106.303 76.7882 105.959 77.4969C105.157 77.4734 104.532 77.3361 103.884 76.3035C103.236 75.2709 102.958 73.3308 103.094 72.9316C103.513 72.9943 105.192 74.1022 105.84 75.1348Z" fill="#907B00"/>
<path d="M108.413 74.97C108.145 75.8731 107.685 76.0911 107.089 76.2693C106.684 75.8087 106.439 75.3878 106.706 74.4871C106.974 73.5863 107.968 72.42 108.274 72.2852C108.454 72.5525 108.681 74.0692 108.413 74.97Z" fill="#907B00"/>
<path d="M109.798 82.7925V121.909" stroke="#907B00" stroke-width="6" stroke-miterlimit="10" stroke-linecap="round"/>
<path d="M114.159 81.5879V85.996C114.159 87.5614 113.571 89.0724 112.505 90.2427L111.061 91.8286C110.247 92.7227 109.798 93.877 109.798 95.0728" stroke="#907B00" stroke-width="6" stroke-miterlimit="10" stroke-linecap="round"/>
<path d="M101.548 105.304C102.12 106.123 102.888 106.793 103.786 107.256C104.683 107.719 105.683 107.961 106.699 107.961H107.599C108.182 107.961 108.741 108.187 109.153 108.589C109.565 108.991 109.797 109.536 109.798 110.104" stroke="#907B00" stroke-width="6" stroke-miterlimit="10" stroke-linecap="round"/>
<path d="M116.06 83.7544V84.778C116.06 84.8846 116.038 84.9901 115.996 85.0886C115.955 85.187 115.893 85.2765 115.816 85.3519C115.739 85.4273 115.647 85.4871 115.547 85.5279C115.446 85.5687 115.337 85.5897 115.228 85.5897H114.811C114.646 85.5897 114.488 85.6537 114.371 85.7676C114.254 85.8815 114.188 86.0361 114.188 86.1972" stroke="#907B00" stroke-width="6" stroke-miterlimit="10" stroke-linecap="round"/>
<path d="M106.764 77.4634V85.914C106.764 86.35 106.941 86.7682 107.257 87.0765C107.573 87.3849 108.001 87.5582 108.448 87.5584C108.806 87.5584 109.149 87.697 109.402 87.9437C109.655 88.1904 109.797 88.525 109.797 88.874" stroke="#907B00" stroke-width="6" stroke-miterlimit="10" stroke-linecap="round"/>
<path d="M113.643 102.773V103.382C113.643 103.858 113.449 104.314 113.105 104.65C112.76 104.986 112.293 105.175 111.806 105.175H110.852C110.572 105.175 110.304 105.283 110.107 105.476C109.909 105.669 109.798 105.93 109.798 106.203" stroke="#907B00" stroke-width="6" stroke-miterlimit="10" stroke-linecap="round"/>
<path d="M105.673 106.241C105.673 106.699 105.859 107.138 106.191 107.462C106.523 107.786 106.973 107.968 107.443 107.968" stroke="#907B00" stroke-width="6" stroke-miterlimit="10" stroke-linecap="round"/>
<path d="M104.875 79.1367V80.987C104.875 81.2904 104.999 81.5814 105.218 81.7959C105.438 82.0105 105.737 82.131 106.047 82.131V82.131C106.142 82.1307 106.235 82.1485 106.322 82.1835C106.409 82.2185 106.488 82.2699 106.555 82.3348C106.621 82.3997 106.674 82.4769 106.71 82.5617C106.746 82.6466 106.764 82.7376 106.764 82.8295" stroke="#907B00" stroke-width="6" stroke-miterlimit="10" stroke-linecap="round"/>
<path d="M180.086 102.545C192.144 102.545 201.919 86.5157 201.919 66.7427C201.919 46.9696 192.144 30.9404 180.086 30.9404C168.028 30.9404 158.252 46.9696 158.252 66.7427C158.252 86.5157 168.028 102.545 180.086 102.545Z" fill="#907B00"/>
<path d="M187.351 41.4451C187.753 43.087 187.251 44.6501 186.218 45.2149C185.747 44.665 185.417 44.0136 185.255 43.3146C184.854 41.6727 185.355 40.1108 186.388 39.5454C186.859 40.0954 187.189 40.7465 187.351 41.4451Z" fill="#B59B00"/>
<path d="M189.634 45.6226C188.933 46.5529 187.875 46.9889 187.117 46.7125C187.203 46.2296 187.405 45.7735 187.707 45.3818C188.408 44.4521 189.465 44.0162 190.224 44.2925C190.138 44.7752 189.936 45.2311 189.634 45.6226Z" fill="#B59B00"/>
<path d="M194.756 56.0211C194.522 57.436 193.607 58.5024 192.608 58.6174C192.422 58.0365 192.379 57.4207 192.485 56.8207C192.719 55.4057 193.633 54.34 194.632 54.2256C194.818 54.8062 194.861 55.4215 194.756 56.0211Z" fill="#B59B00"/>
<path d="M195.399 59.6378C194.493 60.022 193.542 59.9028 193.116 59.3922C193.387 59.0792 193.729 58.833 194.115 58.6738C195.022 58.2903 195.972 58.4095 196.399 58.9201C196.128 59.233 195.786 59.479 195.399 59.6378Z" fill="#B59B00"/>
<path d="M176.483 47.0336C176.483 48.3817 175.955 49.5353 175.207 50.0134C174.458 49.5359 173.931 48.3817 173.931 47.0336C173.931 45.6854 174.458 44.5318 175.207 44.0537C175.955 44.5324 176.483 45.6866 176.483 47.0336Z" fill="#B59B00"/>
<path d="M173.327 50.1301C173.991 51.0645 174.19 52.1122 173.91 52.795C173.155 52.8149 172.221 52.2615 171.557 51.3271C170.893 50.3926 170.693 49.3443 170.974 48.6621C171.728 48.6428 172.663 49.1956 173.327 50.1301Z" fill="#B59B00"/>
<path d="M167.962 80.8365C168.962 80.5433 169.933 80.6649 170.451 81.09C170.259 81.7223 169.518 82.3467 168.517 82.6399C167.517 82.9331 166.546 82.8115 166.028 82.3864C166.22 81.7536 166.962 81.1298 167.962 80.8365Z" fill="#B59B00"/>
<path d="M172.527 75.2984C172.496 76.5087 171.996 76.9314 171.312 77.3456C170.651 76.9007 170.201 76.4539 170.235 75.2436C170.268 74.0334 171.114 72.2589 171.45 71.9922C171.765 72.2674 172.556 74.0882 172.527 75.2984Z" fill="#B59B00"/>
<path d="M176.353 70.481C176.322 71.6913 175.822 72.1139 175.138 72.5282C174.477 72.0832 174.027 71.6365 174.061 70.4262C174.094 69.216 174.94 67.4415 175.276 67.1748C175.591 67.45 176.382 69.2708 176.353 70.481Z" fill="#B59B00"/>
<path d="M184.593 107.862C184.561 109.073 184.061 109.495 183.378 109.91C182.716 109.464 182.267 109.018 182.3 107.808C182.332 106.597 183.18 104.823 183.515 104.556C183.831 104.831 184.624 106.652 184.593 107.862Z" fill="#B59B00"/>
<path d="M176.96 122.265C177.59 123.308 177.392 123.925 177.038 124.628C176.236 124.592 175.614 124.444 174.984 123.4C174.354 122.357 174.112 120.413 174.253 120.015C174.67 120.086 176.33 121.221 176.96 122.265Z" fill="#B59B00"/>
<path d="M158.327 83.3625C158.95 84.4096 158.749 85.0256 158.389 85.7264C157.587 85.6843 156.966 85.532 156.344 84.4849C155.722 83.4378 155.493 81.4918 155.637 81.0938C156.053 81.1678 157.705 82.3148 158.327 83.3625Z" fill="#B59B00"/>
<path d="M185.707 111.427C185.124 111.951 184.702 111.915 184.204 111.792C184.12 111.298 184.131 110.899 184.715 110.375C185.298 109.851 186.509 109.442 186.784 109.472C186.794 109.738 186.29 110.904 185.707 111.427Z" fill="#B59B00"/>
<path d="M177.864 119.112C177.967 119.916 177.644 120.638 177.123 120.854C176.927 120.568 176.804 120.24 176.764 119.898C176.661 119.094 176.984 118.373 177.505 118.156C177.7 118.442 177.823 118.77 177.864 119.112Z" fill="#B59B00"/>
<path d="M179.679 143.12V37.7412" stroke="#B59B00" stroke-width="6" stroke-miterlimit="10"/>
<path d="M175.256 48.9521V58.9719C175.256 59.3741 175.338 59.7724 175.495 60.1439C175.653 60.5155 175.884 60.8531 176.176 61.1375C176.467 61.4219 176.813 61.6474 177.194 61.8013C177.575 61.9552 177.983 62.0343 178.396 62.0342V62.0342C178.736 62.0344 179.062 62.1664 179.303 62.4012C179.544 62.6361 179.679 62.9545 179.679 63.2866" stroke="#B59B00" stroke-width="6" stroke-miterlimit="10"/>
<path d="M175.256 73.4277V86.4334C175.256 87.0855 175.522 87.711 175.995 88.1722C176.467 88.6333 177.108 88.8924 177.777 88.8924C178.281 88.8924 178.765 89.0879 179.122 89.4359C179.478 89.7839 179.679 90.2559 179.679 90.7481" stroke="#B59B00" stroke-width="6" stroke-miterlimit="10"/>
<path d="M175.747 105.158C175.747 106.516 176.75 107.617 177.988 107.617C178.921 107.617 179.679 108.448 179.679 109.473" stroke="#B59B00" stroke-width="6" stroke-miterlimit="10"/>
<path d="M171.322 76.438V80.0374C171.322 80.5508 171.531 81.0432 171.903 81.4062C172.275 81.7693 172.78 81.9732 173.306 81.9732H173.914C174.269 81.9734 174.61 82.1113 174.862 82.3568C175.114 82.6022 175.255 82.9351 175.255 83.2822" stroke="#B59B00" stroke-width="6" stroke-miterlimit="10"/>
<path d="M186.231 43.9521V49.8631C186.231 50.947 185.79 51.9866 185.004 52.7531C184.218 53.5196 183.153 53.9502 182.042 53.9502V53.9502C181.732 53.9502 181.424 54.0098 181.138 54.1257C180.851 54.2416 180.59 54.4115 180.371 54.6257C180.152 54.8398 179.978 55.094 179.859 55.3738C179.74 55.6536 179.679 55.9535 179.679 56.2563" stroke="#B59B00" stroke-width="6" stroke-miterlimit="10"/>
<path d="M173.909 52.7949L174.658 53.9895C175.049 54.6126 175.256 55.329 175.256 56.0596" stroke="#B59B00" stroke-width="6" stroke-miterlimit="10"/>
<path d="M183.447 107.983V113.098C183.446 113.848 183.278 114.59 182.952 115.269C182.626 115.949 182.151 116.551 181.561 117.032L180.969 117.514C180.565 117.844 180.24 118.256 180.017 118.721C179.795 119.186 179.679 119.694 179.679 120.207" stroke="#B59B00" stroke-width="6" stroke-miterlimit="10"/>
<path d="M187.141 114.415C187.141 114.966 186.917 115.494 186.517 115.884C186.118 116.274 185.576 116.492 185.011 116.492H182.178" stroke="#B59B00" stroke-width="6" stroke-miterlimit="10" stroke-linecap="round"/>
<path d="M176.938 123.927V138.252C176.938 138.754 177.142 139.235 177.506 139.59C177.87 139.945 178.363 140.144 178.878 140.144V140.144C179.09 140.144 179.294 140.227 179.445 140.373C179.595 140.52 179.68 140.719 179.68 140.927" stroke="#B59B00" stroke-width="6" stroke-miterlimit="10"/>
<path d="M160.988 125.228C169.491 125.228 176.384 116.869 176.384 106.557C176.384 96.2448 169.491 87.8853 160.988 87.8853C152.485 87.8853 145.591 96.2448 145.591 106.557C145.591 116.869 152.485 125.228 160.988 125.228Z" fill="#B59B00"/>
<path d="M165.957 99.2541C166.279 100.572 166.019 101.839 165.37 102.58C165.309 102.648 165.233 102.7 165.147 102.733C165.062 102.766 164.97 102.779 164.878 102.771C164.786 102.762 164.698 102.733 164.62 102.685C164.543 102.637 164.478 102.572 164.431 102.495C164.168 102.07 163.976 101.607 163.86 101.124C163.459 99.4817 163.961 97.9199 164.994 97.3545C165.464 97.9044 165.794 98.5554 165.957 99.2541Z" fill="#907B00"/>
<path d="M151.714 124.878C152.831 125.882 153.25 127.261 152.781 128.166C152.162 127.991 151.594 127.674 151.125 127.243C150.009 126.238 149.589 124.861 150.058 123.955C150.677 124.131 151.244 124.447 151.714 124.878Z" fill="#907B00"/>
<path d="M150.047 128.075C150.877 128.118 151.547 128.556 151.673 129.098C151.349 129.235 150.997 129.295 150.644 129.273C149.815 129.23 149.145 128.791 149.02 128.249C149.343 128.113 149.695 128.053 150.047 128.075Z" fill="#B59B00"/>
<path d="M168.792 103.488C168.36 104.563 167.451 105.248 166.645 105.171C166.602 104.683 166.677 104.191 166.866 103.737C167.298 102.663 168.207 101.977 169.013 102.055C169.057 102.543 168.981 103.034 168.792 103.488Z" fill="#907B00"/>
<path d="M156.56 97.2481C157.208 98.2813 157.023 98.9015 156.679 99.6102C155.877 99.5867 155.252 99.4494 154.604 98.4168C153.956 97.3841 153.678 95.4441 153.814 95.0449C154.232 95.1075 155.912 96.2154 156.56 97.2481Z" fill="#907B00"/>
<path d="M159.133 97.0837C158.865 97.9869 158.405 98.2049 157.809 98.3831C157.404 97.9225 157.159 97.5016 157.427 96.6008C157.694 95.7001 158.689 94.5338 158.994 94.3989C159.174 94.6663 159.401 96.183 159.133 97.0837Z" fill="#907B00"/>
<path d="M160.518 104.907V144.024" stroke="#907B00" stroke-width="6" stroke-miterlimit="10" stroke-linecap="round"/>
<path d="M164.879 103.702V108.11C164.879 109.676 164.29 111.187 163.225 112.357L161.781 113.943C160.967 114.837 160.517 115.991 160.518 117.187" stroke="#907B00" stroke-width="6" stroke-miterlimit="10" stroke-linecap="round"/>
<path d="M152.268 127.418C152.84 128.237 153.608 128.907 154.505 129.37C155.403 129.833 156.403 130.075 157.418 130.076H158.319C158.901 130.076 159.46 130.301 159.873 130.703C160.285 131.105 160.517 131.65 160.517 132.218" stroke="#907B00" stroke-width="6" stroke-miterlimit="10" stroke-linecap="round"/>
<path d="M166.779 105.868V106.891C166.779 106.998 166.758 107.103 166.716 107.202C166.674 107.3 166.613 107.39 166.536 107.465C166.459 107.541 166.367 107.6 166.266 107.641C166.165 107.682 166.057 107.703 165.948 107.703H165.531C165.366 107.703 165.207 107.767 165.091 107.881C164.974 107.995 164.908 108.149 164.908 108.31" stroke="#907B00" stroke-width="6" stroke-miterlimit="10" stroke-linecap="round"/>
<path d="M157.484 99.5771V108.028C157.484 108.464 157.661 108.882 157.977 109.19C158.293 109.499 158.722 109.672 159.169 109.672C159.526 109.672 159.869 109.811 160.122 110.057C160.375 110.304 160.517 110.639 160.518 110.988" stroke="#907B00" stroke-width="6" stroke-miterlimit="10" stroke-linecap="round"/>
<path d="M164.363 124.887V125.497C164.363 125.972 164.17 126.428 163.825 126.764C163.48 127.1 163.013 127.289 162.526 127.289H161.572C161.293 127.289 161.025 127.397 160.827 127.59C160.63 127.783 160.519 128.044 160.519 128.317" stroke="#907B00" stroke-width="6" stroke-miterlimit="10" stroke-linecap="round"/>
<path d="M156.393 128.355C156.393 128.813 156.58 129.252 156.911 129.576C157.243 129.9 157.694 130.082 158.163 130.082" stroke="#907B00" stroke-width="6" stroke-miterlimit="10" stroke-linecap="round"/>
<path d="M155.595 101.25V103.1C155.595 103.404 155.719 103.695 155.939 103.909C156.159 104.124 156.457 104.244 156.768 104.244C156.862 104.244 156.955 104.262 157.042 104.297C157.129 104.332 157.208 104.383 157.275 104.448C157.341 104.513 157.394 104.59 157.43 104.675C157.466 104.76 157.484 104.851 157.484 104.943" stroke="#907B00" stroke-width="6" stroke-miterlimit="10" stroke-linecap="round"/>
<path d="M225.712 119.089C234.216 119.089 241.109 110.73 241.109 100.418C241.109 90.1056 234.216 81.7461 225.712 81.7461C217.209 81.7461 210.316 90.1056 210.316 100.418C210.316 110.73 217.209 119.089 225.712 119.089Z" fill="#B59B00"/>
<path d="M230.681 93.115C231.004 94.4324 230.743 95.6998 230.095 96.441C230.034 96.5084 229.958 96.5608 229.872 96.5939C229.787 96.627 229.694 96.64 229.603 96.6316C229.511 96.6233 229.423 96.5939 229.345 96.5459C229.267 96.498 229.202 96.4327 229.155 96.3555C228.893 95.9304 228.7 95.4678 228.585 94.9845C228.184 93.3426 228.685 91.7807 229.718 91.2153C230.189 91.7652 230.519 92.4163 230.681 93.115Z" fill="#907B00"/>
<path d="M216.438 118.739C217.555 119.743 217.975 121.122 217.506 122.027C216.887 121.852 216.319 121.535 215.85 121.104C214.733 120.099 214.314 118.721 214.783 117.816C215.401 117.992 215.969 118.308 216.438 118.739Z" fill="#907B00"/>
<path d="M214.772 121.935C215.602 121.979 216.272 122.417 216.398 122.959C216.074 123.096 215.721 123.156 215.369 123.134C214.54 123.09 213.87 122.652 213.744 122.11C214.068 121.974 214.42 121.914 214.772 121.935Z" fill="#B59B00"/>
<path d="M233.517 97.3493C233.085 98.4235 232.176 99.1087 231.37 99.0316C231.326 98.5434 231.402 98.052 231.591 97.598C232.023 96.5238 232.932 95.838 233.738 95.9156C233.781 96.4039 233.706 96.8952 233.517 97.3493Z" fill="#907B00"/>
<path d="M221.285 91.1089C221.933 92.1421 221.747 92.7623 221.404 93.471C220.601 93.4475 219.976 93.3102 219.328 92.2776C218.68 91.245 218.403 89.305 218.539 88.9058C218.957 88.9684 220.637 90.0763 221.285 91.1089Z" fill="#907B00"/>
<path d="M223.858 90.9446C223.59 91.8477 223.13 92.0657 222.534 92.2439C222.129 91.7833 221.884 91.3624 222.152 90.4617C222.42 89.5609 223.414 88.3946 223.719 88.2598C223.899 88.5271 224.126 90.0438 223.858 90.9446Z" fill="#907B00"/>
<path d="M225.242 98.7676V137.885" stroke="#907B00" stroke-width="6" stroke-miterlimit="10" stroke-linecap="round"/>
<path d="M229.603 97.563V101.971C229.603 103.536 229.015 105.047 227.949 106.218L226.505 107.804C225.692 108.698 225.242 109.852 225.242 111.048" stroke="#907B00" stroke-width="6" stroke-miterlimit="10" stroke-linecap="round"/>
<path d="M216.993 121.279C217.565 122.098 218.333 122.768 219.231 123.231C220.128 123.694 221.128 123.936 222.143 123.936H223.044C223.627 123.936 224.185 124.162 224.598 124.564C225.01 124.966 225.242 125.511 225.243 126.079" stroke="#907B00" stroke-width="6" stroke-miterlimit="10" stroke-linecap="round"/>
<path d="M231.504 99.7295V100.753C231.504 100.86 231.483 100.965 231.441 101.064C231.4 101.162 231.338 101.252 231.261 101.327C231.184 101.402 231.092 101.462 230.991 101.503C230.89 101.544 230.782 101.565 230.673 101.565H230.256C230.091 101.565 229.932 101.629 229.816 101.743C229.699 101.857 229.633 102.011 229.633 102.172" stroke="#907B00" stroke-width="6" stroke-miterlimit="10" stroke-linecap="round"/>
<path d="M222.208 93.4385V101.889C222.208 102.325 222.386 102.743 222.702 103.052C223.018 103.36 223.446 103.533 223.893 103.533C224.251 103.533 224.594 103.672 224.847 103.919C225.1 104.165 225.242 104.5 225.242 104.849" stroke="#907B00" stroke-width="6" stroke-miterlimit="10" stroke-linecap="round"/>
<path d="M229.088 118.748V119.357C229.088 119.833 228.895 120.289 228.55 120.625C228.206 120.961 227.738 121.15 227.251 121.15H226.297C226.018 121.15 225.75 121.258 225.552 121.451C225.355 121.644 225.244 121.905 225.244 122.178" stroke="#907B00" stroke-width="6" stroke-miterlimit="10" stroke-linecap="round"/>
<path d="M221.118 122.216C221.118 122.674 221.304 123.113 221.636 123.437C221.968 123.761 222.418 123.943 222.888 123.943" stroke="#907B00" stroke-width="6" stroke-miterlimit="10" stroke-linecap="round"/>
<path d="M220.32 95.1118V96.9621C220.32 97.2655 220.443 97.5565 220.663 97.771C220.883 97.9856 221.181 98.1061 221.492 98.1061C221.586 98.1058 221.68 98.1236 221.767 98.1586C221.854 98.1936 221.933 98.245 221.999 98.3099C222.066 98.3748 222.119 98.452 222.155 98.5368C222.191 98.6217 222.209 98.7127 222.209 98.8046" stroke="#907B00" stroke-width="6" stroke-miterlimit="10" stroke-linecap="round"/>
<path d="M200.92 131.16C209.953 131.16 217.275 122.747 217.275 112.369C217.275 101.991 209.953 93.5776 200.92 93.5776C191.887 93.5776 184.565 101.991 184.565 112.369C184.565 122.747 191.887 131.16 200.92 131.16Z" fill="#B59B00"/>
<path d="M206.323 109.818C206.645 111.136 206.384 112.403 205.736 113.144C205.675 113.212 205.599 113.264 205.513 113.297C205.428 113.33 205.335 113.343 205.244 113.335C205.152 113.326 205.064 113.297 204.986 113.249C204.908 113.201 204.843 113.136 204.796 113.059C204.534 112.633 204.342 112.171 204.226 111.688C203.825 110.046 204.326 108.484 205.359 107.918C205.83 108.468 206.16 109.119 206.323 109.818Z" fill="#907B00"/>
<path d="M192.079 135.443C193.196 136.447 193.616 137.826 193.147 138.731C192.528 138.555 191.96 138.239 191.491 137.808C190.374 136.803 189.955 135.425 190.424 134.52C191.043 134.695 191.61 135.012 192.079 135.443Z" fill="#907B00"/>
<path d="M190.413 138.639C191.243 138.682 191.913 139.121 192.039 139.663C191.715 139.8 191.362 139.859 191.01 139.837C190.181 139.794 189.511 139.356 189.385 138.814C189.709 138.677 190.061 138.617 190.413 138.639Z" fill="#B59B00"/>
<path d="M209.158 114.053C208.726 115.127 207.817 115.812 207.011 115.735C206.967 115.247 207.043 114.756 207.232 114.302C207.664 113.227 208.573 112.542 209.379 112.619C209.423 113.107 209.347 113.599 209.158 114.053Z" fill="#907B00"/>
<path d="M196.926 107.813C197.574 108.846 197.389 109.466 197.045 110.175C196.243 110.152 195.618 110.014 194.97 108.982C194.322 107.949 194.044 106.009 194.18 105.61C194.599 105.672 196.278 106.78 196.926 107.813Z" fill="#907B00"/>
<path d="M199.499 107.648C199.231 108.551 198.771 108.769 198.175 108.947C197.77 108.486 197.525 108.066 197.793 107.165C198.061 106.264 199.055 105.098 199.36 104.963C199.54 105.23 199.767 106.747 199.499 107.648Z" fill="#907B00"/>
<path d="M200.884 115.471V154.588" stroke="#907B00" stroke-width="6" stroke-miterlimit="10" stroke-linecap="round"/>
<path d="M205.245 114.267V118.675C205.245 120.24 204.657 121.751 203.591 122.921L202.147 124.507C201.333 125.401 200.884 126.556 200.884 127.752" stroke="#907B00" stroke-width="6" stroke-miterlimit="10" stroke-linecap="round"/>
<path d="M192.634 137.982C193.206 138.801 193.974 139.471 194.872 139.934C195.769 140.397 196.769 140.639 197.785 140.64H198.685C199.268 140.64 199.826 140.865 200.239 141.267C200.651 141.669 200.883 142.214 200.884 142.782" stroke="#907B00" stroke-width="6" stroke-miterlimit="10" stroke-linecap="round"/>
<path d="M207.145 116.433V117.456C207.146 117.563 207.124 117.668 207.082 117.767C207.041 117.865 206.979 117.955 206.902 118.03C206.825 118.105 206.733 118.165 206.632 118.206C206.532 118.247 206.423 118.268 206.314 118.268H205.897C205.732 118.268 205.574 118.332 205.457 118.446C205.34 118.56 205.274 118.714 205.274 118.875" stroke="#907B00" stroke-width="6" stroke-miterlimit="10" stroke-linecap="round"/>
<path d="M197.85 110.142V118.592C197.85 119.028 198.027 119.446 198.343 119.755C198.659 120.063 199.087 120.236 199.534 120.237C199.892 120.237 200.235 120.375 200.488 120.622C200.741 120.869 200.883 121.203 200.883 121.552" stroke="#907B00" stroke-width="6" stroke-miterlimit="10" stroke-linecap="round"/>
<path d="M204.729 135.451V136.061C204.729 136.536 204.536 136.992 204.191 137.328C203.847 137.664 203.379 137.853 202.892 137.853H201.938C201.659 137.853 201.391 137.961 201.193 138.154C200.996 138.347 200.885 138.608 200.885 138.881" stroke="#907B00" stroke-width="6" stroke-miterlimit="10" stroke-linecap="round"/>
<path d="M196.759 138.919C196.759 139.377 196.945 139.816 197.277 140.14C197.609 140.464 198.059 140.646 198.529 140.646" stroke="#907B00" stroke-width="6" stroke-miterlimit="10" stroke-linecap="round"/>
<path d="M195.961 111.815V113.665C195.961 113.969 196.084 114.26 196.304 114.474C196.524 114.689 196.822 114.809 197.133 114.809C197.228 114.809 197.321 114.827 197.408 114.862C197.495 114.897 197.574 114.948 197.641 115.013C197.707 115.078 197.76 115.155 197.796 115.24C197.832 115.325 197.85 115.416 197.85 115.508" stroke="#907B00" stroke-width="6" stroke-miterlimit="10" stroke-linecap="round"/>
<path d="M126.885 133.704C135.389 133.704 142.282 125.345 142.282 115.033C142.282 104.721 135.389 96.3613 126.885 96.3613C118.382 96.3613 111.489 104.721 111.489 115.033C111.489 125.345 118.382 133.704 126.885 133.704Z" fill="#907B00"/>
<path d="M131.854 107.73C132.176 109.048 131.916 110.315 131.267 111.056C131.207 111.124 131.13 111.176 131.045 111.209C130.959 111.242 130.867 111.255 130.776 111.247C130.684 111.239 130.596 111.209 130.518 111.161C130.44 111.113 130.375 111.048 130.328 110.971C130.066 110.546 129.873 110.083 129.757 109.6C129.357 107.958 129.858 106.396 130.891 105.831C131.362 106.38 131.692 107.032 131.854 107.73Z" fill="#B59B00"/>
<path d="M117.611 133.354C118.728 134.359 119.148 135.737 118.679 136.642C118.06 136.467 117.492 136.15 117.022 135.719C115.906 134.714 115.486 133.337 115.955 132.431C116.574 132.607 117.142 132.923 117.611 133.354Z" fill="#B59B00"/>
<path d="M115.944 136.551C116.774 136.595 117.445 137.033 117.571 137.575C117.247 137.712 116.894 137.771 116.542 137.749C115.712 137.706 115.043 137.268 114.917 136.726C115.241 136.589 115.593 136.53 115.944 136.551Z" fill="#907B00"/>
<path d="M134.69 111.965C134.258 113.039 133.349 113.724 132.543 113.647C132.499 113.159 132.575 112.668 132.764 112.214C133.196 111.14 134.105 110.454 134.911 110.531C134.954 111.02 134.879 111.511 134.69 111.965Z" fill="#B59B00"/>
<path d="M122.457 105.725C123.105 106.758 122.92 107.378 122.577 108.087C121.774 108.063 121.149 107.926 120.501 106.893C119.853 105.861 119.576 103.921 119.711 103.521C120.13 103.584 121.809 104.692 122.457 105.725Z" fill="#B59B00"/>
<path d="M125.031 105.56C124.763 106.463 124.303 106.681 123.707 106.859C123.302 106.399 123.057 105.978 123.325 105.077C123.592 104.176 124.587 103.01 124.892 102.875C125.072 103.142 125.299 104.659 125.031 105.56Z" fill="#B59B00"/>
<path d="M126.415 113.383V152.5" stroke="#B59B00" stroke-width="6" stroke-miterlimit="10" stroke-linecap="round"/>
<path d="M130.776 112.178V116.586C130.776 118.152 130.188 119.663 129.122 120.833L127.678 122.419C126.864 123.313 126.415 124.467 126.415 125.663" stroke="#B59B00" stroke-width="6" stroke-miterlimit="10" stroke-linecap="round"/>
<path d="M118.166 135.894C118.738 136.713 119.506 137.383 120.403 137.846C121.301 138.309 122.301 138.551 123.316 138.551H124.217C124.799 138.551 125.358 138.777 125.771 139.179C126.183 139.58 126.415 140.126 126.415 140.694" stroke="#B59B00" stroke-width="6" stroke-miterlimit="10" stroke-linecap="round"/>
<path d="M132.677 114.344V115.368C132.677 115.474 132.656 115.58 132.614 115.678C132.572 115.777 132.511 115.866 132.434 115.942C132.357 116.017 132.265 116.077 132.164 116.118C132.063 116.159 131.955 116.18 131.846 116.18H131.429C131.264 116.18 131.105 116.244 130.989 116.357C130.872 116.471 130.806 116.626 130.806 116.787" stroke="#B59B00" stroke-width="6" stroke-miterlimit="10" stroke-linecap="round"/>
<path d="M123.381 108.054V116.504C123.381 116.94 123.559 117.359 123.875 117.667C124.191 117.975 124.619 118.149 125.066 118.149C125.424 118.149 125.767 118.287 126.02 118.534C126.273 118.781 126.415 119.115 126.415 119.464" stroke="#B59B00" stroke-width="6" stroke-miterlimit="10" stroke-linecap="round"/>
<path d="M130.261 133.363V133.973C130.261 134.448 130.067 134.904 129.723 135.24C129.378 135.576 128.911 135.765 128.424 135.765H127.47C127.191 135.765 126.923 135.873 126.725 136.066C126.527 136.259 126.417 136.52 126.417 136.793" stroke="#B59B00" stroke-width="6" stroke-miterlimit="10" stroke-linecap="round"/>
<path d="M122.291 136.831C122.291 137.289 122.477 137.728 122.809 138.052C123.141 138.376 123.591 138.558 124.06 138.558" stroke="#B59B00" stroke-width="6" stroke-miterlimit="10" stroke-linecap="round"/>
<path d="M121.493 109.727V111.577C121.493 111.88 121.616 112.171 121.836 112.386C122.056 112.6 122.354 112.721 122.665 112.721C122.759 112.721 122.853 112.738 122.94 112.773C123.027 112.808 123.106 112.86 123.172 112.925C123.239 112.99 123.292 113.067 123.328 113.152C123.363 113.236 123.382 113.327 123.382 113.419" stroke="#B59B00" stroke-width="6" stroke-miterlimit="10" stroke-linecap="round"/>
<path d="M256.598 121.591C269.474 121.591 279.912 108.932 279.912 93.3171C279.912 77.7017 269.474 65.043 256.598 65.043C243.721 65.043 233.283 77.7017 233.283 93.3171C233.283 108.932 243.721 121.591 256.598 121.591Z" fill="#907B00"/>
<path d="M264.122 82.259C264.61 84.2539 264.216 86.1732 263.234 87.2955C263.142 87.3976 263.026 87.4769 262.897 87.5271C262.767 87.5772 262.627 87.5968 262.489 87.5842C262.35 87.5716 262.216 87.5271 262.099 87.4544C261.981 87.3818 261.882 87.2829 261.811 87.1661C261.414 86.5222 261.122 85.8217 260.947 85.09C260.34 82.6036 261.099 80.2385 262.664 79.3823C263.376 80.215 263.876 81.2009 264.122 82.259Z" fill="#B59B00"/>
<path d="M242.554 121.061C244.245 122.582 244.88 124.67 244.17 126.041C243.233 125.775 242.373 125.296 241.662 124.643C239.972 123.121 239.336 121.035 240.046 119.664C240.984 119.93 241.843 120.409 242.554 121.061Z" fill="#B59B00"/>
<path d="M240.03 125.902C241.287 125.967 242.302 126.631 242.492 127.452C242.002 127.659 241.468 127.749 240.935 127.716C239.679 127.65 238.665 126.987 238.474 126.166C238.964 125.959 239.497 125.869 240.03 125.902Z" fill="#907B00"/>
<path d="M268.416 88.6707C267.762 90.2974 266.386 91.335 265.165 91.2183C265.099 90.479 265.214 89.7348 265.5 89.0473C266.154 87.4207 267.53 86.3822 268.751 86.4998C268.817 87.2391 268.702 87.9831 268.416 88.6707Z" fill="#B59B00"/>
<path d="M249.893 79.2219C250.874 80.7865 250.594 81.7257 250.073 82.7988C248.858 82.7633 247.912 82.5554 246.931 80.9917C245.949 79.428 245.529 76.4903 245.735 75.8857C246.368 75.9806 248.912 77.6582 249.893 79.2219Z" fill="#B59B00"/>
<path d="M253.789 78.9728C253.383 80.3405 252.686 80.6705 251.784 80.9404C251.171 80.2429 250.8 79.6056 251.205 78.2416C251.611 76.8776 253.116 75.1115 253.579 74.9072C253.851 75.3121 254.194 77.6088 253.789 78.9728Z" fill="#B59B00"/>
<path d="M255.887 90.8184V150.053" stroke="#B59B00" stroke-width="6" stroke-miterlimit="10" stroke-linecap="round"/>
<path d="M262.491 88.9946V95.6697C262.491 98.0402 261.6 100.328 259.986 102.1L257.8 104.502C256.567 105.856 255.887 107.604 255.887 109.415" stroke="#B59B00" stroke-width="6" stroke-miterlimit="10" stroke-linecap="round"/>
<path d="M243.394 124.907C244.26 126.147 245.423 127.162 246.782 127.863C248.141 128.564 249.656 128.931 251.193 128.931H252.556C253.439 128.931 254.285 129.273 254.909 129.881C255.534 130.49 255.885 131.315 255.886 132.176" stroke="#B59B00" stroke-width="6" stroke-miterlimit="10" stroke-linecap="round"/>
<path d="M265.368 92.2744V93.8244C265.368 93.9858 265.336 94.1456 265.272 94.2947C265.209 94.4438 265.117 94.5794 265 94.6935C264.883 94.8076 264.744 94.8982 264.591 94.96C264.438 95.0217 264.275 95.0535 264.109 95.0535H263.478C263.227 95.0535 262.988 95.1505 262.811 95.323C262.634 95.4955 262.535 95.7295 262.535 95.9735" stroke="#B59B00" stroke-width="6" stroke-miterlimit="10" stroke-linecap="round"/>
<path d="M251.292 82.7485V95.5452C251.292 96.2055 251.561 96.8387 252.039 97.3056C252.518 97.7726 253.166 98.035 253.843 98.0353C254.385 98.0353 254.904 98.2451 255.287 98.6187C255.67 98.9923 255.886 99.499 255.886 100.027" stroke="#B59B00" stroke-width="6" stroke-miterlimit="10" stroke-linecap="round"/>
<path d="M261.709 121.075V121.997C261.709 122.717 261.416 123.408 260.894 123.917C260.372 124.426 259.665 124.712 258.927 124.712H257.482C257.059 124.712 256.654 124.876 256.354 125.168C256.055 125.46 255.887 125.855 255.887 126.268" stroke="#B59B00" stroke-width="6" stroke-miterlimit="10" stroke-linecap="round"/>
<path d="M249.64 126.326C249.64 127.019 249.922 127.684 250.425 128.175C250.927 128.665 251.609 128.941 252.32 128.941" stroke="#B59B00" stroke-width="6" stroke-miterlimit="10" stroke-linecap="round"/>
<path d="M248.432 85.2822V88.0841C248.432 88.5435 248.619 88.9842 248.952 89.3091C249.285 89.6339 249.737 89.8165 250.208 89.8165C250.35 89.816 250.491 89.843 250.623 89.896C250.755 89.9489 250.875 90.0268 250.976 90.1251C251.076 90.2234 251.156 90.3402 251.211 90.4687C251.265 90.5973 251.293 90.735 251.293 90.8741" stroke="#B59B00" stroke-width="6" stroke-miterlimit="10" stroke-linecap="round"/>
<path d="M144.719 120.891L136.838 113.073L145.75 119.099L145.461 113.379L149.638 118.353L148.901 100.554L152.013 116.436L154.992 113.677L154.716 118.454L158.079 117.098L155.435 120.82L144.719 120.891Z" fill="#907B00"/>
<path d="M229.246 120.751L225.683 118.155L228.877 118.594L228.919 115.837L230.843 117.915L231.703 104.09L234.119 117.675L235.634 113.999L236.208 118.954L238.951 117.156L237.436 120.81L229.246 120.751Z" fill="#907B00"/>
<path d="M226.852 115.805C226.852 116.076 226.801 116.344 226.702 116.596C225.735 116.449 224.992 115.578 224.992 114.526C224.992 114.256 225.042 113.988 225.141 113.736C226.109 113.882 226.852 114.753 226.852 115.805Z" fill="#907B00"/>
<path d="M263.751 109.179C263.682 109.441 263.564 109.687 263.403 109.907C262.505 109.528 262.011 108.502 262.282 107.485C262.352 107.223 262.47 106.976 262.631 106.755C263.53 107.135 264.023 108.161 263.751 109.179Z" fill="#907B00"/>
<path d="M265.834 110.566C265.462 110.751 265.064 110.881 264.652 110.952C264.328 109.832 265.134 108.451 266.597 107.729C266.969 107.544 267.367 107.414 267.779 107.343C268.104 108.463 267.298 109.843 265.834 110.566Z" fill="#907B00"/>
<path d="M138.295 116.298C138.74 116.735 138.723 117.063 138.638 117.453C138.237 117.533 137.912 117.537 137.465 117.099C137.018 116.661 136.651 115.733 136.669 115.52C136.886 115.503 137.85 115.86 138.295 116.298Z" fill="#B59B00"/>
<path d="M280.441 125.571C280.224 125.679 279.992 125.755 279.751 125.796C279.563 125.142 280.033 124.336 280.887 123.915C281.104 123.807 281.337 123.731 281.577 123.689C281.767 124.343 281.295 125.149 280.441 125.571Z" fill="#907B00"/>
<path d="M274.211 132.677H266.361L262.238 130.439L269.828 132.117L266.743 128.774L269.721 130.153L269.437 126.132L271.593 129.738C271.614 129.776 271.647 129.806 271.688 129.823C271.728 129.841 271.773 129.844 271.816 129.833C271.859 129.822 271.896 129.798 271.923 129.764C271.95 129.729 271.964 129.687 271.963 129.644L270.707 111.843L273.995 125.231L276.993 116.849L276.098 129.329L282 126.638L277.516 131.083C277.128 131.579 276.628 131.981 276.055 132.257C275.482 132.534 274.851 132.677 274.211 132.677Z" fill="#907B00"/>
<path d="M157.897 115.153C157.314 115.677 156.893 115.64 156.395 115.518C156.31 115.024 156.321 114.625 156.904 114.101C157.488 113.578 158.699 113.169 158.974 113.198C158.986 113.464 158.48 114.629 157.897 115.153Z" fill="#907B00"/>
</svg>
