<svg width="62" height="42" viewBox="0 0 62 42" fill="none" xmlns="http://www.w3.org/2000/svg">
<path d="M31.5 6V5.5H31C27.4139 5.5 24.5 8.41386 24.5 12C24.5 12.9594 24.7085 13.8798 25.0911 14.7018L24.3469 15.4459C23.8085 14.416 23.5 13.245 23.5 12C23.5 7.85614 26.8561 4.5 31 4.5H31.5V4V2.20711L34.2929 5L31.5 7.79289V6ZM37.6531 8.55405C38.1915 9.58397 38.5 10.755 38.5 12C38.5 16.1439 35.1439 19.5 31 19.5H30.5V20V21.7929L27.7071 19L30.5 16.2071V18V18.5H31C34.5861 18.5 37.5 15.5861 37.5 12C37.5 11.0352 37.2814 10.123 36.9061 9.30104L37.6531 8.55405Z" fill="#236348" stroke="#236348"/>
<path d="M6.04581 35.14H2.39781L1.72581 37H0.573813L3.59781 28.684H4.85781L7.86981 37H6.71781L6.04581 35.14ZM5.73381 34.252L4.22181 30.028L2.70981 34.252H5.73381ZM9.01975 33.7C9.01975 33.02 9.15575 32.428 9.42775 31.924C9.69975 31.412 10.0757 31.016 10.5557 30.736C11.0437 30.456 11.5997 30.316 12.2237 30.316C13.0317 30.316 13.6957 30.512 14.2157 30.904C14.7438 31.296 15.0918 31.84 15.2598 32.536H14.0838C13.9718 32.136 13.7518 31.82 13.4238 31.588C13.1037 31.356 12.7037 31.24 12.2237 31.24C11.5997 31.24 11.0957 31.456 10.7118 31.888C10.3277 32.312 10.1357 32.916 10.1357 33.7C10.1357 34.492 10.3277 35.104 10.7118 35.536C11.0957 35.968 11.5997 36.184 12.2237 36.184C12.7037 36.184 13.1037 36.072 13.4238 35.848C13.7438 35.624 13.9638 35.304 14.0838 34.888H15.2598C15.0838 35.56 14.7318 36.1 14.2038 36.508C13.6758 36.908 13.0157 37.108 12.2237 37.108C11.5997 37.108 11.0437 36.968 10.5557 36.688C10.0757 36.408 9.69975 36.012 9.42775 35.5C9.15575 34.988 9.01975 34.388 9.01975 33.7ZM18.2888 31.324V35.2C18.2888 35.52 18.3568 35.748 18.4928 35.884C18.6288 36.012 18.8648 36.076 19.2008 36.076H20.0048V37H19.0208C18.4128 37 17.9568 36.86 17.6528 36.58C17.3488 36.3 17.1968 35.84 17.1968 35.2V31.324H16.3448V30.424H17.1968V28.768H18.2888V30.424H20.0048V31.324H18.2888ZM27.3999 30.424V37H26.3079V36.028C26.0999 36.364 25.8079 36.628 25.4319 36.82C25.0639 37.004 24.6559 37.096 24.2079 37.096C23.6959 37.096 23.2359 36.992 22.8279 36.784C22.4199 36.568 22.0959 36.248 21.8559 35.824C21.6239 35.4 21.5079 34.884 21.5079 34.276V30.424H22.5879V34.132C22.5879 34.78 22.7519 35.28 23.0799 35.632C23.4079 35.976 23.8559 36.148 24.4239 36.148C25.0079 36.148 25.4679 35.968 25.8039 35.608C26.1399 35.248 26.3079 34.724 26.3079 34.036V30.424H27.3999ZM29.0757 33.688C29.0757 33.016 29.2117 32.428 29.4837 31.924C29.7557 31.412 30.1277 31.016 30.5997 30.736C31.0797 30.456 31.6117 30.316 32.1957 30.316C32.7717 30.316 33.2717 30.44 33.6957 30.688C34.1197 30.936 34.4357 31.248 34.6437 31.624V30.424H35.7477V37H34.6437V35.776C34.4277 36.16 34.1037 36.48 33.6717 36.736C33.2477 36.984 32.7517 37.108 32.1837 37.108C31.5997 37.108 31.0717 36.964 30.5997 36.676C30.1277 36.388 29.7557 35.984 29.4837 35.464C29.2117 34.944 29.0757 34.352 29.0757 33.688ZM34.6437 33.7C34.6437 33.204 34.5437 32.772 34.3437 32.404C34.1437 32.036 33.8717 31.756 33.5277 31.564C33.1917 31.364 32.8197 31.264 32.4117 31.264C32.0037 31.264 31.6317 31.36 31.2957 31.552C30.9597 31.744 30.6917 32.024 30.4917 32.392C30.2917 32.76 30.1917 33.192 30.1917 33.688C30.1917 34.192 30.2917 34.632 30.4917 35.008C30.6917 35.376 30.9597 35.66 31.2957 35.86C31.6317 36.052 32.0037 36.148 32.4117 36.148C32.8197 36.148 33.1917 36.052 33.5277 35.86C33.8717 35.66 34.1437 35.376 34.3437 35.008C34.5437 34.632 34.6437 34.196 34.6437 33.7ZM38.9251 28.12V37H37.8331V28.12H38.9251ZM41.5902 29.356C41.3822 29.356 41.2062 29.284 41.0622 29.14C40.9182 28.996 40.8462 28.82 40.8462 28.612C40.8462 28.404 40.9182 28.228 41.0622 28.084C41.2062 27.94 41.3822 27.868 41.5902 27.868C41.7902 27.868 41.9582 27.94 42.0942 28.084C42.2382 28.228 42.3102 28.404 42.3102 28.612C42.3102 28.82 42.2382 28.996 42.0942 29.14C41.9582 29.284 41.7902 29.356 41.5902 29.356ZM42.1182 30.424V37H41.0262V30.424H42.1182ZM45.0353 36.1H48.2633V37H43.7873V36.1L46.9793 31.312H43.8113V30.424H48.2393V31.312L45.0353 36.1ZM49.5122 33.688C49.5122 33.016 49.6482 32.428 49.9202 31.924C50.1922 31.412 50.5642 31.016 51.0362 30.736C51.5162 30.456 52.0482 30.316 52.6322 30.316C53.2082 30.316 53.7082 30.44 54.1322 30.688C54.5562 30.936 54.8722 31.248 55.0802 31.624V30.424H56.1842V37H55.0802V35.776C54.8642 36.16 54.5402 36.48 54.1082 36.736C53.6842 36.984 53.1882 37.108 52.6202 37.108C52.0362 37.108 51.5082 36.964 51.0362 36.676C50.5642 36.388 50.1922 35.984 49.9202 35.464C49.6482 34.944 49.5122 34.352 49.5122 33.688ZM55.0802 33.7C55.0802 33.204 54.9802 32.772 54.7802 32.404C54.5802 32.036 54.3082 31.756 53.9642 31.564C53.6282 31.364 53.2562 31.264 52.8482 31.264C52.4402 31.264 52.0682 31.36 51.7322 31.552C51.3962 31.744 51.1282 32.024 50.9282 32.392C50.7282 32.76 50.6282 33.192 50.6282 33.688C50.6282 34.192 50.7282 34.632 50.9282 35.008C51.1282 35.376 51.3962 35.66 51.7322 35.86C52.0682 36.052 52.4402 36.148 52.8482 36.148C53.2562 36.148 53.6282 36.052 53.9642 35.86C54.3082 35.66 54.5802 35.376 54.7802 35.008C54.9802 34.632 55.0802 34.196 55.0802 33.7ZM59.3616 31.492C59.5536 31.116 59.8256 30.824 60.1776 30.616C60.5376 30.408 60.9736 30.304 61.4856 30.304V31.432H61.1976C59.9736 31.432 59.3616 32.096 59.3616 33.424V37H58.2696V30.424H59.3616V31.492Z" fill="#236348"/>
</svg>
