<svg width="375" height="812" viewBox="0 0 375 812" fill="none" xmlns="http://www.w3.org/2000/svg">
<g clip-path="url(#clip0_352:8409)">
<rect width="375" height="812" fill="#F7FBEE"/>
<rect y="-4" width="375" height="816" fill="#F7FBEE"/>
<path d="M487.022 455.684C697.079 455.684 867.364 453.048 867.364 449.797C867.364 446.546 697.079 443.91 487.022 443.91C276.965 443.91 106.68 446.546 106.68 449.797C106.68 453.048 276.965 455.684 487.022 455.684Z" fill="#E5F1EF"/>
<path d="M68.0675 404.237C75.4084 388.157 80.4634 375.777 98.7342 375.347C131.649 374.57 127.301 404.109 139.258 402.136C151.215 400.162 135.663 341.456 194.122 336.177C247.544 331.345 246.881 385.64 262.962 385.292C271.692 385.102 276.176 356.718 303.697 363.596C327.525 369.55 317.862 406.749 344.99 398.423C372.118 390.097 367.649 408.843 367.649 408.843C420.476 393.062 422.206 416.319 422.206 416.319H3.50073C3.50073 416.319 41.4477 383.393 68.0675 404.237Z" fill="#C8D9D2"/>
<path d="M350.52 129.349H305.209C305.209 129.349 329.051 119.388 336.3 119.388C343.549 119.388 349.533 122.813 350.52 129.349Z" fill="#E5F1EF"/>
<path d="M143.924 109.36C143.355 104.512 141.244 99.9749 137.899 96.4153C134.555 92.8557 130.155 90.4619 125.346 89.586C130.717 74.1661 146.497 63 165.125 63C188.189 63 206.887 80.124 206.887 101.232C206.887 101.232 193.338 105.762 192.539 118.494C192.945 117.467 197.592 107.111 209.61 106.157C218.739 105.43 229.284 111.605 230.524 120.695C230.524 120.695 280.014 107.295 280.3 129.349H70.908C70.908 129.251 70.908 129.153 70.908 129.055C70.908 121.021 78.4769 114.512 87.8109 114.512C91.1493 114.494 94.4321 115.365 97.3207 117.037C98.0213 104.507 108.964 94.506 122.361 94.5499C137.593 94.6 143.924 109.36 143.924 109.36Z" fill="#E5F1EF"/>
<path d="M145.478 86.7019C148.236 86.7019 150.472 84.4693 150.472 81.7151C150.472 78.961 148.236 76.7283 145.478 76.7283C142.72 76.7283 140.484 78.961 140.484 81.7151C140.484 84.4693 142.72 86.7019 145.478 86.7019Z" fill="white"/>
<path d="M185.115 446.721C219.641 446.721 247.63 418.774 247.63 384.3C247.63 349.826 219.641 321.879 185.115 321.879C150.589 321.879 122.6 349.826 122.6 384.3C122.6 418.774 150.589 446.721 185.115 446.721Z" stroke="#423C52" stroke-width="5" stroke-miterlimit="10" stroke-linecap="round"/>
<path d="M148.059 443.601C128.838 432.5 115.907 411.751 115.907 387.986" stroke="#423C52" stroke-width="5" stroke-miterlimit="10" stroke-linecap="round"/>
<path d="M379.422 446.721C413.948 446.721 441.937 418.774 441.937 384.3C441.937 349.826 413.948 321.879 379.422 321.879C344.896 321.879 316.907 349.826 316.907 384.3C316.907 418.774 344.896 446.721 379.422 446.721Z" stroke="#423C52" stroke-width="5" stroke-miterlimit="10" stroke-linecap="round"/>
<path d="M379.421 384.3L342.963 274.335C342.732 273.636 342.67 272.892 342.782 272.164C342.894 271.436 343.178 270.746 343.61 270.149C344.042 269.552 344.609 269.066 345.266 268.731C345.923 268.395 346.649 268.221 347.387 268.22H381.452C383.654 268.22 385.835 268.654 387.869 269.495C389.903 270.337 391.752 271.57 393.309 273.125C394.866 274.68 396.101 276.525 396.943 278.557C397.786 280.588 398.219 282.766 398.219 284.964C398.219 289.405 396.452 293.663 393.307 296.803C390.162 299.942 385.897 301.706 381.45 301.706H375.454C374.491 301.707 373.544 301.471 372.694 301.02C371.844 300.569 371.118 299.916 370.581 299.119" stroke="#423C52" stroke-width="5" stroke-miterlimit="10" stroke-linecap="round"/>
<path d="M379.355 387.059C380.79 387.059 381.954 385.896 381.954 384.463C381.954 383.029 380.79 381.867 379.355 381.867C377.919 381.867 376.755 383.029 376.755 384.463C376.755 385.896 377.919 387.059 379.355 387.059Z" fill="white" stroke="#423C52" stroke-width="5" stroke-miterlimit="10" stroke-linecap="round"/>
<path d="M227.91 315.186L184.962 384.29H295.86L329.474 330.203C332.328 325.611 336.309 321.821 341.039 319.193C345.769 316.566 351.093 315.186 356.506 315.186H227.91Z" stroke="#423C52" stroke-width="5" stroke-miterlimit="10" stroke-linecap="round"/>
<path d="M346.103 283.248C348.957 278.655 352.938 274.866 357.668 272.238C362.398 269.61 367.722 268.231 373.135 268.231" stroke="#423C52" stroke-width="5" stroke-miterlimit="10" stroke-linecap="round"/>
<path d="M280.664 408.161H248.803V412.874H280.664V408.161Z" stroke="#423C52" stroke-width="5" stroke-miterlimit="10" stroke-linecap="round"/>
<path d="M245.131 296.479H210.449C208.709 296.479 207.299 297.887 207.299 299.624V300.226C207.299 301.963 208.709 303.371 210.449 303.371H245.131C246.87 303.371 248.28 301.963 248.28 300.226V299.624C248.28 297.887 246.87 296.479 245.131 296.479Z" stroke="#423C52" stroke-width="5" stroke-miterlimit="10" stroke-linecap="round"/>
<path d="M227.788 315.186V303.37" stroke="#423C52" stroke-width="5" stroke-miterlimit="10" stroke-linecap="round"/>
<path d="M184.962 386.885C186.398 386.885 187.562 385.723 187.562 384.29C187.562 382.856 186.398 381.694 184.962 381.694C183.526 381.694 182.363 382.856 182.363 384.29C182.363 385.723 183.526 386.885 184.962 386.885Z" fill="white" stroke="#423C52" stroke-width="5" stroke-miterlimit="10" stroke-linecap="round"/>
<path d="M279.745 384.289H244.138C242.806 384.29 241.495 383.953 240.328 383.312C239.161 382.67 238.175 381.744 237.462 380.62C236.75 379.496 236.334 378.21 236.252 376.882C236.171 375.554 236.428 374.227 236.998 373.025L273.303 296.471H223.81C220.361 296.473 216.982 295.505 214.059 293.677C211.137 291.849 208.79 289.235 207.287 286.136L247.619 255.478H305.076C325.55 255.478 338.539 277.39 328.678 295.307L279.745 384.289Z" fill="#423C52"/>
<path d="M279.746 384.29C278.596 387.096 275.034 398.889 281.355 401.564C287.336 404.095 286.761 407.534 286.761 407.534H247.54C246.638 407.534 245.749 407.318 244.947 406.906C244.145 406.493 243.454 405.895 242.93 405.161C242.407 404.427 242.066 403.579 241.937 402.688C241.808 401.796 241.894 400.887 242.188 400.035L247.626 384.3L279.746 384.29Z" fill="#907B00"/>
<path d="M271.889 388.685H278.937C279.326 388.685 279.698 388.839 279.973 389.113C280.247 389.388 280.401 389.759 280.401 390.147V390.147C280.401 390.535 280.247 390.907 279.973 391.181C279.698 391.455 279.326 391.609 278.937 391.609H277.877" stroke="white" stroke-width="4" stroke-miterlimit="10"/>
<path d="M271.889 391.609H278.937C279.326 391.609 279.698 391.763 279.973 392.037C280.247 392.311 280.401 392.683 280.401 393.071V393.071C280.401 393.458 280.247 393.83 279.973 394.104C279.698 394.378 279.326 394.532 278.937 394.532H277.877" stroke="white" stroke-width="4" stroke-miterlimit="10"/>
<path d="M286.76 407.536H247.539C246.636 407.536 245.747 407.321 244.944 406.908C244.142 406.496 243.45 405.897 242.926 405.163C242.402 404.429 242.062 403.581 241.933 402.689C241.804 401.797 241.89 400.887 242.185 400.035L242.559 398.951C242.759 400.293 243.435 401.519 244.465 402.405C245.494 403.291 246.807 403.778 248.166 403.777H284.957C287.061 405.732 286.76 407.536 286.76 407.536Z" fill="white"/>
<path d="M382.313 272.973C382.313 272.973 395.228 274.122 397.144 267.46C399.06 260.799 396.502 251.38 392.752 249.083C391.953 248.595 377.229 248.248 377.229 248.248L367.508 269.741C379.471 269.881 384.047 268.571 384.047 268.571C384.047 268.571 381.209 269.146 382.313 272.973Z" fill="#FFDB00"/>
<path d="M367.508 269.741L384.128 268.367C385.053 268.291 385.915 267.87 386.543 267.189C387.172 266.508 387.521 265.616 387.521 264.689V262.175" stroke="#423C52" stroke-width="5" stroke-linecap="round" stroke-linejoin="round"/>
<path d="M307.963 184.386L304.757 192.954L299.388 192.867L278.242 192.551L292.811 173.437L307.963 184.386Z" fill="#FFDB00"/>
<path d="M299.451 173.437L301.055 182.935C301.271 184.219 301.935 185.385 302.931 186.226C303.926 187.068 305.188 187.529 306.493 187.529H314.557C315.004 187.528 315.447 187.434 315.856 187.253C316.265 187.073 316.631 186.809 316.932 186.478C317.233 186.148 317.462 185.759 317.604 185.335C317.746 184.912 317.798 184.463 317.757 184.018L317.389 180.021H318.619C318.8 180.021 318.979 179.979 319.142 179.899C319.304 179.818 319.446 179.701 319.555 179.557C319.665 179.412 319.74 179.244 319.773 179.066C319.807 178.888 319.799 178.705 319.75 178.53L317.165 169.294L299.451 173.437Z" fill="#FFDB00"/>
<path d="M296.41 173.437H300.869V181.63H296.41C295.918 181.63 295.43 181.534 294.975 181.346C294.52 181.158 294.107 180.883 293.759 180.536C293.41 180.188 293.134 179.776 292.945 179.322C292.757 178.868 292.66 178.381 292.66 177.889V177.177C292.66 176.185 293.055 175.234 293.757 174.533C294.459 173.831 295.412 173.437 296.406 173.437H296.41Z" fill="#FFDB00"/>
<path d="M292.944 177.879C292.944 180.143 295.475 182.15 297.74 182.15H302.31" stroke="#423C52" stroke-width="5" stroke-miterlimit="10" stroke-linecap="round"/>
<path d="M298.855 178.163C298.855 177.498 298.59 176.861 298.12 176.391C297.649 175.921 297.011 175.657 296.345 175.657" stroke="#423C52" stroke-width="5" stroke-miterlimit="10" stroke-linecap="round"/>
<path d="M311.874 177.359C312.255 177.359 312.564 176.944 312.564 176.432C312.564 175.92 312.255 175.504 311.874 175.504C311.493 175.504 311.184 175.92 311.184 176.432C311.184 176.944 311.493 177.359 311.874 177.359Z" fill="#423C52"/>
<path d="M308.653 173.437C308.653 173.437 310.954 172.441 312.564 172.366" stroke="#423C52" stroke-width="5" stroke-miterlimit="10" stroke-linecap="round"/>
<path d="M291.251 174.882L291.56 173.629C292.423 170.107 294.383 166.95 297.158 164.612C299.933 162.273 303.379 160.875 307.001 160.617L310.843 160.346C312.199 160.223 313.55 160.624 314.618 161.466C315.686 162.308 316.391 163.526 316.586 164.871L317.166 168.851L291.251 174.882Z" fill="white" stroke="#423C52" stroke-width="5" stroke-linecap="round" stroke-linejoin="round"/>
<path d="M291.25 174.882L327.441 166.585" stroke="#423C52" stroke-width="5" stroke-miterlimit="10" stroke-linecap="round"/>
<path d="M304.757 172.157C302.561 177.152 305.07 180.285 305.827 180.853C307.986 182.467 315.609 180.512 317.395 180.017C317.395 180.017 318.924 190.413 317.186 190.682C313.98 191.179 302.615 187.658 301.082 184.749C300.572 183.789 301.237 180.397 301.136 178.042C301.063 176.252 300.869 173.433 299.451 173.433L304.757 172.157Z" fill="#423C52"/>
<path d="M304.757 192.954L268.608 176.135C266.992 175.384 265.153 175.264 263.453 175.801C261.753 176.338 260.316 177.491 259.427 179.034L249.681 195.949C247.706 199.86 251.145 204.315 255.436 203.406L304.757 192.954Z" fill="#FF7A63"/>
<path d="M278.647 192.551H300.446C304.735 192.557 308.94 193.741 312.599 195.974C316.259 198.208 319.232 201.404 321.193 205.213C328.463 219.279 344.826 240.661 378.434 245.498L367.508 269.931C367.508 269.931 331.521 284.672 291.263 255.501H271.971C256.18 255.501 240.825 260.673 228.26 270.223L207.298 286.159C207.298 286.159 193.476 257.288 223.778 225.231C234.382 214.013 243.168 206.605 249.992 201.733C258.351 195.763 268.37 192.552 278.647 192.551Z" fill="#FF7A63"/>
<path d="M293.45 201.623C302.971 220.041 328.377 252.22 372.362 258.552" stroke="white" stroke-width="5" stroke-miterlimit="10" stroke-linecap="round"/>
<path d="M290.338 202.634C299.501 221.489 326.51 254.889 370.992 261.289" stroke="white" stroke-width="5" stroke-miterlimit="10" stroke-linecap="round"/>
<path d="M249.995 201.502C258.354 195.537 268.373 192.333 278.647 192.336H304.349" stroke="#423C52" stroke-width="5" stroke-miterlimit="10" stroke-linecap="round"/>
<path d="M291.614 256.179C285.34 251.863 275.493 237.738 275.493 237.738" stroke="#423C52" stroke-width="5" stroke-miterlimit="10" stroke-linecap="round"/>
<path d="M378.001 245.92L367.29 270.131C367.29 270.131 331.303 284.875 291.045 255.703" stroke="#423C52" stroke-width="5" stroke-miterlimit="10" stroke-linecap="round"/>
<path d="M6.38914 488C61.2802 488 105.778 486.542 105.778 484.742C105.778 482.943 61.2802 481.485 6.38914 481.485C-48.502 481.485 -93 482.943 -93 484.742C-93 486.542 -48.502 488 6.38914 488Z" fill="#E5F1EF"/>
<path d="M16.0396 200.303L63.0215 192.146C68.4403 191.205 74.0156 192.33 78.6425 195.299C83.2695 198.269 86.6106 202.865 88.0037 208.178C91.4232 221.219 96.9258 238.458 106.86 238.458C121.768 238.458 141.452 206.298 141.452 206.298L164.636 221.434C164.636 221.434 139.286 276.532 108.151 277.768C81.4889 278.829 75.3987 257.929 75.3987 257.929V270.041L0.6968 284.741C0.6968 284.741 -7.39287 315.975 -17.7078 325.899L-45.1182 315.056C-35.462 299.783 -17.6263 250.19 -9.17686 222.545C-7.44499 216.872 -4.1712 211.789 0.280521 207.863C4.73224 203.936 10.1874 201.319 16.0396 200.303Z" fill="white" stroke="#236348" stroke-width="5" stroke-miterlimit="10"/>
<path d="M75.4007 269.92V281.372C67.7252 283.843 57.0526 286.311 45.0122 287.514C32.9383 288.717 21.8663 289.112 13.762 288.663C5.65766 288.214 0.504369 286.917 0.322414 284.739C0.0839904 281.874 5.76014 278.474 14.9311 275.598C22.4268 273.249 32.2628 271.242 43.1299 270.169C55.6408 268.905 67.1814 268.905 75.4007 269.92Z" fill="#236348"/>
<path d="M0.692627 284.555L12.7853 249.11" stroke="#236348" stroke-width="5" stroke-miterlimit="10"/>
<path d="M75.3982 257.915V230.337" stroke="#236348" stroke-width="5" stroke-miterlimit="10"/>
<path d="M139.942 207.144C141.125 204.87 154.272 189.026 158.974 189.137C163.675 189.247 155.255 195.932 160.091 196.053C164.56 196.164 178.913 179.948 181.214 186.46C185.125 197.615 171.271 218.809 163.081 223.172C156.259 226.793 135.33 216.003 139.942 207.144Z" fill="#EB7500"/>
<path d="M179.233 185.436C179.233 185.436 178.662 190.83 166.176 198.242" stroke="#423C52" stroke-width="5" stroke-miterlimit="10" stroke-linecap="round"/>
<path d="M180.977 187.514C180.977 187.514 180.753 194.639 168.268 202.051" stroke="#423C52" stroke-width="5" stroke-miterlimit="10" stroke-linecap="round"/>
<path d="M180.978 187.514C180.978 187.514 184.972 197.707 170.696 206.033" stroke="#423C52" stroke-width="5" stroke-miterlimit="10" stroke-linecap="round"/>
<path d="M154.554 204.795C154.554 204.795 155.6 211.137 152.804 216.071" stroke="#423C52" stroke-width="5" stroke-miterlimit="10" stroke-linecap="round"/>
<path d="M75.3995 269.92V442.204H39.1445V361.728C32.1194 396.393 -31.4728 427.949 -31.4728 427.949L-49.25 396.395C-49.25 396.395 -1.04243 376.364 8.77267 325.897C10.9415 314.741 12.6356 300.042 13.7524 288.663C14.2711 283.352 14.6642 278.764 14.9215 275.598C22.4172 273.249 32.2532 271.242 43.1203 270.169C55.6396 268.905 67.1802 268.905 75.3995 269.92Z" fill="#FF7A63"/>
<path d="M23.8455 387.01C20.0809 383.976 19.5434 377.786 22.737 372.662C26.144 367.195 32.5207 365.008 36.9776 367.777" stroke="#423C52" stroke-width="5" stroke-miterlimit="10" stroke-linecap="round"/>
<path d="M74.7803 388.163C69.97 387.76 66.0297 382.943 65.7871 376.918C65.5257 370.486 69.5685 365.098 74.8138 364.887" stroke="#423C52" stroke-width="5" stroke-miterlimit="10" stroke-linecap="round"/>
<path d="M75.3997 269.92V329.081C31.7285 335.943 8.78125 325.897 8.78125 325.897C10.9501 314.741 12.6441 300.042 13.761 288.663C14.2796 283.352 14.6728 278.764 14.9301 275.598C22.4258 273.249 32.2618 271.242 43.1289 270.169C55.6398 268.905 67.1804 268.905 75.3997 269.92Z" fill="#236348"/>
<path d="M39.1445 363.573C50.0012 333.256 51.484 302.938 51.484 302.938" stroke="white" stroke-width="5" stroke-miterlimit="10" stroke-linecap="round"/>
<path d="M18.2383 328.025C21.0931 313.344 23.3205 293.998 24.7907 279.023" stroke="#423C52" stroke-width="6" stroke-miterlimit="10" stroke-linecap="round"/>
<path d="M15.4172 327.471C18.272 312.789 20.4994 293.445 21.9697 278.47" stroke="#423C52" stroke-width="6" stroke-miterlimit="10" stroke-linecap="round"/>
<path d="M75.3992 269.92V281.372C67.7237 283.843 57.0511 286.311 45.0107 287.514C32.9369 288.717 21.8648 289.112 13.7605 288.663C14.2792 283.352 14.6724 278.764 14.9296 275.598C22.4253 273.249 32.2613 271.242 43.1284 270.169C55.6394 268.905 67.1799 268.905 75.3992 269.92Z" fill="#423C52"/>
<path d="M43.0071 482.445C45.1416 482.445 46.872 480.717 46.872 478.586C46.872 476.454 45.1416 474.727 43.0071 474.727C40.8725 474.727 39.1421 476.454 39.1421 478.586C39.1421 480.717 40.8725 482.445 43.0071 482.445Z" fill="white" stroke="#423C52" stroke-width="5" stroke-miterlimit="10" stroke-linecap="round"/>
<path d="M56.9922 482.445C59.1267 482.445 60.8571 480.717 60.8571 478.586C60.8571 476.454 59.1267 474.727 56.9922 474.727C54.8576 474.727 53.1272 476.454 53.1272 478.586C53.1272 480.717 54.8576 482.445 56.9922 482.445Z" fill="white" stroke="#423C52" stroke-width="5" stroke-miterlimit="10" stroke-linecap="round"/>
<path d="M70.978 482.445C73.1126 482.445 74.843 480.717 74.843 478.586C74.843 476.454 73.1126 474.727 70.978 474.727C68.8434 474.727 67.113 476.454 67.113 478.586C67.113 480.717 68.8434 482.445 70.978 482.445Z" fill="white" stroke="#423C52" stroke-width="5" stroke-miterlimit="10" stroke-linecap="round"/>
<path d="M84.9636 482.445C87.0982 482.445 88.8286 480.717 88.8286 478.586C88.8286 476.454 87.0982 474.727 84.9636 474.727C82.829 474.727 81.0986 476.454 81.0986 478.586C81.0986 480.717 82.829 482.445 84.9636 482.445Z" fill="white" stroke="#423C52" stroke-width="5" stroke-miterlimit="10" stroke-linecap="round"/>
<path d="M88.8284 470.007V472.705H46.9391C44.8716 472.704 42.8889 471.884 41.4272 470.424C39.9654 468.964 39.1443 466.984 39.1443 464.92V442.203H75.3993C75.3993 447.006 75.2341 458.995 86.2622 465.507C87.045 465.969 87.6935 466.627 88.1435 467.417C88.5936 468.206 88.8296 469.099 88.8284 470.007Z" fill="#80AE09"/>
<path d="M75.9721 446.794C77.7581 447.036 78.76 447.42 78.76 448.076C78.76 448.955 75.6228 449.3 70.1265 449.3" stroke="#423C52" stroke-width="5" stroke-miterlimit="10" stroke-linecap="round"/>
<path d="M76.8421 452.119C78.6993 452.342 79.6843 452.927 79.6843 453.614C79.6843 454.493 75.6311 454.658 70.1265 454.658" stroke="#423C52" stroke-width="5" stroke-miterlimit="10" stroke-linecap="round"/>
<path d="M70.1309 460.104C70.1309 460.104 81.8429 460.921 81.8429 458.642C81.8429 457.671 80.1405 457.325 78.7622 457.204" stroke="#423C52" stroke-width="5" stroke-miterlimit="10" stroke-linecap="round"/>
<path d="M75.4 435.131H39.145V442.204H75.4V435.131Z" fill="white"/>
<path d="M53.2163 172.621C53.2163 179.341 46.8353 184.05 40.0758 184.05C37.3814 184.054 34.761 183.17 32.6216 181.534C30.4822 179.899 28.9435 177.604 28.2446 175.005C27.5268 176.876 26.3232 178.521 24.7574 179.773C23.1915 181.025 21.32 181.838 19.3353 182.128C17.3506 182.418 15.3243 182.176 13.4646 181.425C11.605 180.674 9.97926 179.442 8.75448 177.856C8.24137 182.593 6.02782 186.984 2.52316 190.218C-0.981512 193.451 -5.54022 195.308 -10.31 195.445C-15.0798 195.582 -19.7379 193.99 -23.4231 190.963C-27.1083 187.937 -29.5712 183.68 -30.3565 178.98C-31.1417 174.281 -30.1961 169.456 -27.6946 165.399C-25.193 161.342 -21.3047 158.326 -16.7487 156.909C-12.1927 155.493 -7.2771 155.772 -2.91098 157.694C1.45514 159.617 4.97647 163.052 7.00186 167.366C7.77173 165.093 9.24771 163.125 11.2152 161.747C13.1826 160.369 15.539 159.654 17.9416 159.705C20.3442 159.756 22.6678 160.571 24.5745 162.032C26.4812 163.492 27.8717 165.522 28.5437 167.826C29.3926 165.448 30.958 163.392 33.0249 161.939C35.0917 160.486 37.5585 159.707 40.0863 159.711C46.8353 159.715 53.2163 165.9 53.2163 172.621Z" fill="#FFDB00"/>
<path d="M28.303 176.434C28.1366 176.434 27.977 176.368 27.8593 176.25C27.7416 176.133 27.6755 175.973 27.6755 175.807V167.036C27.6755 166.87 27.7416 166.711 27.8593 166.593C27.977 166.476 28.1366 166.41 28.303 166.41C28.4694 166.41 28.629 166.476 28.7466 166.593C28.8643 166.711 28.9304 166.87 28.9304 167.036V175.807C28.9304 175.973 28.8643 176.133 28.7466 176.25C28.629 176.368 28.4694 176.434 28.303 176.434Z" fill="#423C52"/>
<path d="M34.435 182.896L29.0642 197.932C29.0642 197.932 30.9465 204.384 41.9851 203.812C53.0237 203.24 51.8002 194.093 51.8002 194.093V188.455L38.3418 182.725L34.435 182.896Z" fill="#EB7500"/>
<path d="M51.8002 190.417L29.6017 199.052C29.3786 198.702 29.1982 198.326 29.0642 197.933L34.4371 182.897L38.3418 182.722L51.7876 188.391V188.462L51.8002 190.417Z" fill="#423C52"/>
<path d="M47.7198 190.503C43.6269 190.682 39.6511 187.489 38.0721 182.899H34.2635C33.7494 182.899 33.2403 182.798 32.7653 182.602C32.2903 182.405 31.8587 182.117 31.4951 181.754C31.1315 181.391 30.8432 180.96 30.6464 180.486C30.4496 180.012 30.3484 179.503 30.3484 178.99C30.3484 178.477 30.4496 177.968 30.6464 177.494C30.8432 177.02 31.1315 176.589 31.4951 176.226C31.8587 175.863 32.2903 175.575 32.7653 175.378C33.2403 175.182 33.7494 175.081 34.2635 175.081H37.819C37.819 175.081 37.819 175.081 37.819 175.068C37.9319 175.077 38.0511 175.081 38.1766 175.081C43.125 175.081 48.592 169.785 48.5982 167.354C52.664 168.436 54.3769 172.809 54.6237 178.393C54.9123 184.852 52.8418 190.277 47.7198 190.503Z" fill="#EB7500"/>
<path d="M36.6983 179.481C36.6983 178.804 36.4291 178.154 35.9499 177.676C35.4707 177.197 34.8206 176.927 34.1426 176.927" stroke="#423C52" stroke-width="5" stroke-miterlimit="10" stroke-linecap="round"/>
<path d="M44.6037 181.235C45.0126 181.235 45.344 180.74 45.344 180.128C45.344 179.517 45.0126 179.021 44.6037 179.021C44.1948 179.021 43.8633 179.517 43.8633 180.128C43.8633 180.74 44.1948 181.235 44.6037 181.235Z" fill="#423C52"/>
<path d="M52.5531 181.143C52.9274 181.143 53.2307 180.689 53.2307 180.128C53.2307 179.568 52.9274 179.113 52.5531 179.113C52.1789 179.113 51.8755 179.568 51.8755 180.128C51.8755 180.689 52.1789 181.143 52.5531 181.143Z" fill="#423C52"/>
<path d="M41.4961 177.088C41.4961 177.088 43.1295 175.4 46.5155 175.82" stroke="#423C52" stroke-width="5" stroke-miterlimit="10" stroke-linecap="round"/>
<path d="M54.5505 175.4C54.5505 175.4 49.6524 175.4 49.8155 183.682" stroke="#423C52" stroke-width="5" stroke-miterlimit="10" stroke-linecap="round"/>
<path d="M61.3843 545.04H68.1043V549H56.2543V527.94H61.3843V545.04ZM73.7312 530.52C72.8312 530.52 72.0912 530.26 71.5112 529.74C70.9512 529.2 70.6712 528.54 70.6712 527.76C70.6712 526.96 70.9512 526.3 71.5112 525.78C72.0912 525.24 72.8312 524.97 73.7312 524.97C74.6112 524.97 75.3312 525.24 75.8912 525.78C76.4712 526.3 76.7612 526.96 76.7612 527.76C76.7612 528.54 76.4712 529.2 75.8912 529.74C75.3312 530.26 74.6112 530.52 73.7312 530.52ZM76.2812 532.26V549H71.1512V532.26H76.2812ZM79.5789 540.6C79.5789 538.88 79.8989 537.37 80.5389 536.07C81.1989 534.77 82.0889 533.77 83.2089 533.07C84.3289 532.37 85.5789 532.02 86.9589 532.02C88.0589 532.02 89.0589 532.25 89.9589 532.71C90.8789 533.17 91.5989 533.79 92.1189 534.57V526.8H97.2489V549H92.1189V546.6C91.6389 547.4 90.9489 548.04 90.0489 548.52C89.1689 549 88.1389 549.24 86.9589 549.24C85.5789 549.24 84.3289 548.89 83.2089 548.19C82.0889 547.47 81.1989 546.46 80.5389 545.16C79.8989 543.84 79.5789 542.32 79.5789 540.6ZM92.1189 540.63C92.1189 539.35 91.7589 538.34 91.0389 537.6C90.3389 536.86 89.4789 536.49 88.4589 536.49C87.4389 536.49 86.5689 536.86 85.8489 537.6C85.1489 538.32 84.7989 539.32 84.7989 540.6C84.7989 541.88 85.1489 542.9 85.8489 543.66C86.5689 544.4 87.4389 544.77 88.4589 544.77C89.4789 544.77 90.3389 544.4 91.0389 543.66C91.7589 542.92 92.1189 541.91 92.1189 540.63ZM117.34 540.36C117.34 540.84 117.31 541.34 117.25 541.86H105.64C105.72 542.9 106.05 543.7 106.63 544.26C107.23 544.8 107.96 545.07 108.82 545.07C110.1 545.07 110.99 544.53 111.49 543.45H116.95C116.67 544.55 116.16 545.54 115.42 546.42C114.7 547.3 113.79 547.99 112.69 548.49C111.59 548.99 110.36 549.24 109 549.24C107.36 549.24 105.9 548.89 104.62 548.19C103.34 547.49 102.34 546.49 101.62 545.19C100.9 543.89 100.54 542.37 100.54 540.63C100.54 538.89 100.89 537.37 101.59 536.07C102.31 534.77 103.31 533.77 104.59 533.07C105.87 532.37 107.34 532.02 109 532.02C110.62 532.02 112.06 532.36 113.32 533.04C114.58 533.72 115.56 534.69 116.26 535.95C116.98 537.21 117.34 538.68 117.34 540.36ZM112.09 539.01C112.09 538.13 111.79 537.43 111.19 536.91C110.59 536.39 109.84 536.13 108.94 536.13C108.08 536.13 107.35 536.38 106.75 536.88C106.17 537.38 105.81 538.09 105.67 539.01H112.09ZM125.777 535.05C126.377 534.13 127.127 533.41 128.027 532.89C128.927 532.35 129.927 532.08 131.027 532.08V537.51H129.617C128.337 537.51 127.377 537.79 126.737 538.35C126.097 538.89 125.777 539.85 125.777 541.23V549H120.647V532.26H125.777V535.05ZM133.059 540.6C133.059 538.88 133.379 537.37 134.019 536.07C134.679 534.77 135.569 533.77 136.689 533.07C137.809 532.37 139.059 532.02 140.439 532.02C141.619 532.02 142.649 532.26 143.529 532.74C144.429 533.22 145.119 533.85 145.599 534.63V532.26H150.729V549H145.599V546.63C145.099 547.41 144.399 548.04 143.499 548.52C142.619 549 141.589 549.24 140.409 549.24C139.049 549.24 137.809 548.89 136.689 548.19C135.569 547.47 134.679 546.46 134.019 545.16C133.379 543.84 133.059 542.32 133.059 540.6ZM145.599 540.63C145.599 539.35 145.239 538.34 144.519 537.6C143.819 536.86 142.959 536.49 141.939 536.49C140.919 536.49 140.049 536.86 139.329 537.6C138.629 538.32 138.279 539.32 138.279 540.6C138.279 541.88 138.629 542.9 139.329 543.66C140.049 544.4 140.919 544.77 141.939 544.77C142.959 544.77 143.819 544.4 144.519 543.66C145.239 542.92 145.599 541.91 145.599 540.63ZM177.777 540.36C177.777 540.84 177.747 541.34 177.687 541.86H166.077C166.157 542.9 166.487 543.7 167.067 544.26C167.667 544.8 168.397 545.07 169.257 545.07C170.537 545.07 171.427 544.53 171.927 543.45H177.387C177.107 544.55 176.597 545.54 175.857 546.42C175.137 547.3 174.227 547.99 173.127 548.49C172.027 548.99 170.797 549.24 169.437 549.24C167.797 549.24 166.337 548.89 165.057 548.19C163.777 547.49 162.777 546.49 162.057 545.19C161.337 543.89 160.977 542.37 160.977 540.63C160.977 538.89 161.327 537.37 162.027 536.07C162.747 534.77 163.747 533.77 165.027 533.07C166.307 532.37 167.777 532.02 169.437 532.02C171.057 532.02 172.497 532.36 173.757 533.04C175.017 533.72 175.997 534.69 176.697 535.95C177.417 537.21 177.777 538.68 177.777 540.36ZM172.527 539.01C172.527 538.13 172.227 537.43 171.627 536.91C171.027 536.39 170.277 536.13 169.377 536.13C168.517 536.13 167.787 536.38 167.187 536.88C166.607 537.38 166.247 538.09 166.107 539.01H172.527ZM186.214 526.8V549H181.084V526.8H186.214ZM202.619 535.05C203.219 534.13 203.969 533.41 204.869 532.89C205.769 532.35 206.769 532.08 207.869 532.08V537.51H206.459C205.179 537.51 204.219 537.79 203.579 538.35C202.939 538.89 202.619 539.85 202.619 541.23V549H197.489V532.26H202.619V535.05ZM209.901 540.6C209.901 538.88 210.221 537.37 210.861 536.07C211.521 534.77 212.411 533.77 213.531 533.07C214.651 532.37 215.901 532.02 217.281 532.02C218.461 532.02 219.491 532.26 220.371 532.74C221.271 533.22 221.961 533.85 222.441 534.63V532.26H227.571V549H222.441V546.63C221.941 547.41 221.241 548.04 220.341 548.52C219.461 549 218.431 549.24 217.251 549.24C215.891 549.24 214.651 548.89 213.531 548.19C212.411 547.47 211.521 546.46 210.861 545.16C210.221 543.84 209.901 542.32 209.901 540.6ZM222.441 540.63C222.441 539.35 222.081 538.34 221.361 537.6C220.661 536.86 219.801 536.49 218.781 536.49C217.761 536.49 216.891 536.86 216.171 537.6C215.471 538.32 215.121 539.32 215.121 540.6C215.121 541.88 215.471 542.9 216.171 543.66C216.891 544.4 217.761 544.77 218.781 544.77C219.801 544.77 220.661 544.4 221.361 543.66C222.081 542.92 222.441 541.91 222.441 540.63ZM242.082 532.08C244.042 532.08 245.602 532.72 246.762 534C247.942 535.26 248.532 537 248.532 539.22V549H243.432V539.91C243.432 538.79 243.142 537.92 242.562 537.3C241.982 536.68 241.202 536.37 240.222 536.37C239.242 536.37 238.462 536.68 237.882 537.3C237.302 537.92 237.012 538.79 237.012 539.91V549H231.882V532.26H237.012V534.48C237.532 533.74 238.232 533.16 239.112 532.74C239.992 532.3 240.982 532.08 242.082 532.08ZM262.927 549L257.827 541.98V549H252.697V526.8H257.827V539.07L262.897 532.26H269.227L262.267 540.66L269.287 549H262.927ZM274.422 530.52C273.522 530.52 272.782 530.26 272.202 529.74C271.642 529.2 271.362 528.54 271.362 527.76C271.362 526.96 271.642 526.3 272.202 525.78C272.782 525.24 273.522 524.97 274.422 524.97C275.302 524.97 276.022 525.24 276.582 525.78C277.162 526.3 277.452 526.96 277.452 527.76C277.452 528.54 277.162 529.2 276.582 529.74C276.022 530.26 275.302 530.52 274.422 530.52ZM276.972 532.26V549H271.842V532.26H276.972ZM291.489 532.08C293.449 532.08 295.009 532.72 296.169 534C297.349 535.26 297.939 537 297.939 539.22V549H292.839V539.91C292.839 538.79 292.549 537.92 291.969 537.3C291.389 536.68 290.609 536.37 289.629 536.37C288.649 536.37 287.869 536.68 287.289 537.3C286.709 537.92 286.419 538.79 286.419 539.91V549H281.289V532.26H286.419V534.48C286.939 533.74 287.639 533.16 288.519 532.74C289.399 532.3 290.389 532.08 291.489 532.08ZM308.464 532.02C309.644 532.02 310.674 532.26 311.554 532.74C312.454 533.22 313.144 533.85 313.624 534.63V532.26H318.754V548.97C318.754 550.51 318.444 551.9 317.824 553.14C317.224 554.4 316.294 555.4 315.034 556.14C313.794 556.88 312.244 557.25 310.384 557.25C307.904 557.25 305.894 556.66 304.354 555.48C302.814 554.32 301.934 552.74 301.714 550.74H306.784C306.944 551.38 307.324 551.88 307.924 552.24C308.524 552.62 309.264 552.81 310.144 552.81C311.204 552.81 312.044 552.5 312.664 551.88C313.304 551.28 313.624 550.31 313.624 548.97V546.6C313.124 547.38 312.434 548.02 311.554 548.52C310.674 549 309.644 549.24 308.464 549.24C307.084 549.24 305.834 548.89 304.714 548.19C303.594 547.47 302.704 546.46 302.044 545.16C301.404 543.84 301.084 542.32 301.084 540.6C301.084 538.88 301.404 537.37 302.044 536.07C302.704 534.77 303.594 533.77 304.714 533.07C305.834 532.37 307.084 532.02 308.464 532.02ZM313.624 540.63C313.624 539.35 313.264 538.34 312.544 537.6C311.844 536.86 310.984 536.49 309.964 536.49C308.944 536.49 308.074 536.86 307.354 537.6C306.654 538.32 306.304 539.32 306.304 540.6C306.304 541.88 306.654 542.9 307.354 543.66C308.074 544.4 308.944 544.77 309.964 544.77C310.984 544.77 311.844 544.4 312.544 543.66C313.264 542.92 313.624 541.91 313.624 540.63ZM88.9023 585.6C88.9023 583.88 89.2223 582.37 89.8623 581.07C90.5223 579.77 91.4123 578.77 92.5323 578.07C93.6523 577.37 94.9023 577.02 96.2823 577.02C97.3823 577.02 98.3823 577.25 99.2823 577.71C100.202 578.17 100.922 578.79 101.442 579.57V571.8H106.572V594H101.442V591.6C100.962 592.4 100.272 593.04 99.3723 593.52C98.4923 594 97.4623 594.24 96.2823 594.24C94.9023 594.24 93.6523 593.89 92.5323 593.19C91.4123 592.47 90.5223 591.46 89.8623 590.16C89.2223 588.84 88.9023 587.32 88.9023 585.6ZM101.442 585.63C101.442 584.35 101.082 583.34 100.362 582.6C99.6623 581.86 98.8023 581.49 97.7823 581.49C96.7623 581.49 95.8923 581.86 95.1723 582.6C94.4723 583.32 94.1223 584.32 94.1223 585.6C94.1223 586.88 94.4723 587.9 95.1723 588.66C95.8923 589.4 96.7623 589.77 97.7823 589.77C98.8023 589.77 99.6623 589.4 100.362 588.66C101.082 587.92 101.442 586.91 101.442 585.63ZM126.664 585.36C126.664 585.84 126.634 586.34 126.574 586.86H114.964C115.044 587.9 115.374 588.7 115.954 589.26C116.554 589.8 117.284 590.07 118.144 590.07C119.424 590.07 120.314 589.53 120.814 588.45H126.274C125.994 589.55 125.484 590.54 124.744 591.42C124.024 592.3 123.114 592.99 122.014 593.49C120.914 593.99 119.684 594.24 118.324 594.24C116.684 594.24 115.224 593.89 113.944 593.19C112.664 592.49 111.664 591.49 110.944 590.19C110.224 588.89 109.864 587.37 109.864 585.63C109.864 583.89 110.214 582.37 110.914 581.07C111.634 579.77 112.634 578.77 113.914 578.07C115.194 577.37 116.664 577.02 118.324 577.02C119.944 577.02 121.384 577.36 122.644 578.04C123.904 578.72 124.884 579.69 125.584 580.95C126.304 582.21 126.664 583.68 126.664 585.36ZM121.414 584.01C121.414 583.13 121.114 582.43 120.514 581.91C119.914 581.39 119.164 581.13 118.264 581.13C117.404 581.13 116.674 581.38 116.074 581.88C115.494 582.38 115.134 583.09 114.994 584.01H121.414ZM146.257 589.65V594H143.647C141.787 594 140.337 593.55 139.297 592.65C138.257 591.73 137.737 590.24 137.737 588.18V581.52H135.697V577.26H137.737V573.18H142.867V577.26H146.227V581.52H142.867V588.24C142.867 588.74 142.987 589.1 143.227 589.32C143.467 589.54 143.867 589.65 144.427 589.65H146.257ZM166.245 577.26V594H161.115V591.72C160.595 592.46 159.885 593.06 158.985 593.52C158.105 593.96 157.125 594.18 156.045 594.18C154.765 594.18 153.635 593.9 152.655 593.34C151.675 592.76 150.915 591.93 150.375 590.85C149.835 589.77 149.565 588.5 149.565 587.04V577.26H154.665V586.35C154.665 587.47 154.955 588.34 155.535 588.96C156.115 589.58 156.895 589.89 157.875 589.89C158.875 589.89 159.665 589.58 160.245 588.96C160.825 588.34 161.115 587.47 161.115 586.35V577.26H166.245ZM176.467 585.63C176.467 583.89 176.817 582.37 177.517 581.07C178.237 579.77 179.227 578.77 180.487 578.07C181.767 577.37 183.227 577.02 184.867 577.02C186.967 577.02 188.717 577.57 190.117 578.67C191.537 579.77 192.467 581.32 192.907 583.32H187.447C186.987 582.04 186.097 581.4 184.777 581.4C183.837 581.4 183.087 581.77 182.527 582.51C181.967 583.23 181.687 584.27 181.687 585.63C181.687 586.99 181.967 588.04 182.527 588.78C183.087 589.5 183.837 589.86 184.777 589.86C186.097 589.86 186.987 589.22 187.447 587.94H192.907C192.467 589.9 191.537 591.44 190.117 592.56C188.697 593.68 186.947 594.24 184.867 594.24C183.227 594.24 181.767 593.89 180.487 593.19C179.227 592.49 178.237 591.49 177.517 590.19C176.817 588.89 176.467 587.37 176.467 585.63ZM198.831 575.52C197.931 575.52 197.191 575.26 196.611 574.74C196.051 574.2 195.771 573.54 195.771 572.76C195.771 571.96 196.051 571.3 196.611 570.78C197.191 570.24 197.931 569.97 198.831 569.97C199.711 569.97 200.431 570.24 200.991 570.78C201.571 571.3 201.861 571.96 201.861 572.76C201.861 573.54 201.571 574.2 200.991 574.74C200.431 575.26 199.711 575.52 198.831 575.52ZM201.381 577.26V594H196.251V577.26H201.381ZM222.229 577.26V594H217.099V591.72C216.579 592.46 215.869 593.06 214.969 593.52C214.089 593.96 213.109 594.18 212.029 594.18C210.749 594.18 209.619 593.9 208.639 593.34C207.659 592.76 206.899 591.93 206.359 590.85C205.819 589.77 205.549 588.5 205.549 587.04V577.26H210.649V586.35C210.649 587.47 210.939 588.34 211.519 588.96C212.099 589.58 212.879 589.89 213.859 589.89C214.859 589.89 215.649 589.58 216.229 588.96C216.809 588.34 217.099 587.47 217.099 586.35V577.26H222.229ZM225.494 585.6C225.494 583.88 225.814 582.37 226.454 581.07C227.114 579.77 228.004 578.77 229.124 578.07C230.244 577.37 231.494 577.02 232.874 577.02C233.974 577.02 234.974 577.25 235.874 577.71C236.794 578.17 237.514 578.79 238.034 579.57V571.8H243.164V594H238.034V591.6C237.554 592.4 236.864 593.04 235.964 593.52C235.084 594 234.054 594.24 232.874 594.24C231.494 594.24 230.244 593.89 229.124 593.19C228.004 592.47 227.114 591.46 226.454 590.16C225.814 588.84 225.494 587.32 225.494 585.6ZM238.034 585.63C238.034 584.35 237.674 583.34 236.954 582.6C236.254 581.86 235.394 581.49 234.374 581.49C233.354 581.49 232.484 581.86 231.764 582.6C231.064 583.32 230.714 584.32 230.714 585.6C230.714 586.88 231.064 587.9 231.764 588.66C232.484 589.4 233.354 589.77 234.374 589.77C235.394 589.77 236.254 589.4 236.954 588.66C237.674 587.92 238.034 586.91 238.034 585.63ZM246.455 585.6C246.455 583.88 246.775 582.37 247.415 581.07C248.075 579.77 248.965 578.77 250.085 578.07C251.205 577.37 252.455 577.02 253.835 577.02C255.015 577.02 256.045 577.26 256.925 577.74C257.825 578.22 258.515 578.85 258.995 579.63V577.26H264.125V594H258.995V591.63C258.495 592.41 257.795 593.04 256.895 593.52C256.015 594 254.985 594.24 253.805 594.24C252.445 594.24 251.205 593.89 250.085 593.19C248.965 592.47 248.075 591.46 247.415 590.16C246.775 588.84 246.455 587.32 246.455 585.6ZM258.995 585.63C258.995 584.35 258.635 583.34 257.915 582.6C257.215 581.86 256.355 581.49 255.335 581.49C254.315 581.49 253.445 581.86 252.725 582.6C252.025 583.32 251.675 584.32 251.675 585.6C251.675 586.88 252.025 587.9 252.725 588.66C253.445 589.4 254.315 589.77 255.335 589.77C256.355 589.77 257.215 589.4 257.915 588.66C258.635 587.92 258.995 586.91 258.995 585.63ZM267.416 585.6C267.416 583.88 267.736 582.37 268.376 581.07C269.036 579.77 269.926 578.77 271.046 578.07C272.166 577.37 273.416 577.02 274.796 577.02C275.896 577.02 276.896 577.25 277.796 577.71C278.716 578.17 279.436 578.79 279.956 579.57V571.8H285.086V594H279.956V591.6C279.476 592.4 278.786 593.04 277.886 593.52C277.006 594 275.976 594.24 274.796 594.24C273.416 594.24 272.166 593.89 271.046 593.19C269.926 592.47 269.036 591.46 268.376 590.16C267.736 588.84 267.416 587.32 267.416 585.6ZM279.956 585.63C279.956 584.35 279.596 583.34 278.876 582.6C278.176 581.86 277.316 581.49 276.296 581.49C275.276 581.49 274.406 581.86 273.686 582.6C272.986 583.32 272.636 584.32 272.636 585.6C272.636 586.88 272.986 587.9 273.686 588.66C274.406 589.4 275.276 589.77 276.296 589.77C277.316 589.77 278.176 589.4 278.876 588.66C279.596 587.92 279.956 586.91 279.956 585.63Z" fill="#776557"/>
<path d="M85.8585 628.848V635.904C85.8585 636.896 86.0985 637.632 86.5785 638.112C87.0692 638.592 87.7465 638.832 88.6105 638.832C89.4638 638.832 90.1305 638.592 90.6105 638.112C91.1012 637.632 91.3465 636.896 91.3465 635.904V628.848H92.8025V635.888C92.8025 636.816 92.6158 637.6 92.2425 638.24C91.8692 638.869 91.3625 639.339 90.7225 639.648C90.0932 639.957 89.3838 640.112 88.5945 640.112C87.8052 640.112 87.0905 639.957 86.4505 639.648C85.8212 639.339 85.3198 638.869 84.9465 638.24C84.5838 637.6 84.4025 636.816 84.4025 635.888V628.848H85.8585ZM90.1625 626.432L86.7545 628.256V627.168L90.1625 625.168V626.432ZM99.8234 631.072C100.89 631.072 101.754 631.397 102.415 632.048C103.077 632.688 103.407 633.616 103.407 634.832V640H101.967V635.04C101.967 634.165 101.749 633.499 101.311 633.04C100.874 632.571 100.277 632.336 99.5194 632.336C98.7514 632.336 98.138 632.576 97.6794 633.056C97.2314 633.536 97.0074 634.235 97.0074 635.152V640H95.5514V631.232H97.0074V632.48C97.2954 632.032 97.6847 631.685 98.1754 631.44C98.6767 631.195 99.226 631.072 99.8234 631.072ZM114.106 635.28C114.106 635.557 114.09 635.851 114.058 636.16H107.05C107.103 637.024 107.396 637.701 107.93 638.192C108.474 638.672 109.13 638.912 109.898 638.912C110.527 638.912 111.05 638.768 111.466 638.48C111.892 638.181 112.191 637.787 112.362 637.296H113.93C113.695 638.139 113.226 638.827 112.522 639.36C111.818 639.883 110.943 640.144 109.898 640.144C109.066 640.144 108.319 639.957 107.658 639.584C107.007 639.211 106.495 638.683 106.122 638C105.748 637.307 105.562 636.507 105.562 635.6C105.562 634.693 105.743 633.899 106.106 633.216C106.468 632.533 106.975 632.011 107.626 631.648C108.287 631.275 109.044 631.088 109.898 631.088C110.73 631.088 111.466 631.269 112.106 631.632C112.746 631.995 113.236 632.496 113.578 633.136C113.93 633.765 114.106 634.48 114.106 635.28ZM112.602 634.976C112.602 634.421 112.479 633.947 112.234 633.552C111.988 633.147 111.652 632.843 111.226 632.64C110.81 632.427 110.346 632.32 109.834 632.32C109.098 632.32 108.468 632.555 107.946 633.024C107.434 633.493 107.14 634.144 107.066 634.976H112.602ZM118.124 632.432V637.6C118.124 638.027 118.214 638.331 118.396 638.512C118.577 638.683 118.892 638.768 119.34 638.768H120.412V640H119.1C118.289 640 117.681 639.813 117.276 639.44C116.87 639.067 116.668 638.453 116.668 637.6V632.432H115.532V631.232H116.668V629.024H118.124V631.232H120.412V632.432H118.124ZM130.496 635.28C130.496 635.557 130.48 635.851 130.448 636.16H123.44C123.493 637.024 123.786 637.701 124.32 638.192C124.864 638.672 125.52 638.912 126.288 638.912C126.917 638.912 127.44 638.768 127.856 638.48C128.282 638.181 128.581 637.787 128.752 637.296H130.32C130.085 638.139 129.616 638.827 128.912 639.36C128.208 639.883 127.333 640.144 126.288 640.144C125.456 640.144 124.709 639.957 124.048 639.584C123.397 639.211 122.885 638.683 122.512 638C122.138 637.307 121.952 636.507 121.952 635.6C121.952 634.693 122.133 633.899 122.496 633.216C122.858 632.533 123.365 632.011 124.016 631.648C124.677 631.275 125.434 631.088 126.288 631.088C127.12 631.088 127.856 631.269 128.496 631.632C129.136 631.995 129.626 632.496 129.968 633.136C130.32 633.765 130.496 634.48 130.496 635.28ZM128.992 634.976C128.992 634.421 128.869 633.947 128.624 633.552C128.378 633.147 128.042 632.843 127.616 632.64C127.2 632.427 126.736 632.32 126.224 632.32C125.488 632.32 124.858 632.555 124.336 633.024C123.824 633.493 123.53 634.144 123.456 634.976H128.992ZM136.779 635.584C136.779 634.688 136.961 633.904 137.323 633.232C137.686 632.549 138.182 632.021 138.811 631.648C139.451 631.275 140.161 631.088 140.939 631.088C141.707 631.088 142.374 631.253 142.939 631.584C143.505 631.915 143.926 632.331 144.203 632.832V631.232H145.675V640H144.203V638.368C143.915 638.88 143.483 639.307 142.907 639.648C142.342 639.979 141.681 640.144 140.923 640.144C140.145 640.144 139.441 639.952 138.811 639.568C138.182 639.184 137.686 638.645 137.323 637.952C136.961 637.259 136.779 636.469 136.779 635.584ZM144.203 635.6C144.203 634.939 144.07 634.363 143.803 633.872C143.537 633.381 143.174 633.008 142.715 632.752C142.267 632.485 141.771 632.352 141.227 632.352C140.683 632.352 140.187 632.48 139.739 632.736C139.291 632.992 138.934 633.365 138.667 633.856C138.401 634.347 138.267 634.923 138.267 635.584C138.267 636.256 138.401 636.843 138.667 637.344C138.934 637.835 139.291 638.213 139.739 638.48C140.187 638.736 140.683 638.864 141.227 638.864C141.771 638.864 142.267 638.736 142.715 638.48C143.174 638.213 143.537 637.835 143.803 637.344C144.07 636.843 144.203 636.261 144.203 635.6ZM160.817 631.232V640H159.361V638.704C159.084 639.152 158.695 639.504 158.193 639.76C157.703 640.005 157.159 640.128 156.561 640.128C155.879 640.128 155.265 639.989 154.721 639.712C154.177 639.424 153.745 638.997 153.425 638.432C153.116 637.867 152.961 637.179 152.961 636.368V631.232H154.401V636.176C154.401 637.04 154.62 637.707 155.057 638.176C155.495 638.635 156.092 638.864 156.849 638.864C157.628 638.864 158.241 638.624 158.689 638.144C159.137 637.664 159.361 636.965 159.361 636.048V631.232H160.817ZM167.868 631.072C168.934 631.072 169.798 631.397 170.46 632.048C171.121 632.688 171.452 633.616 171.452 634.832V640H170.012V635.04C170.012 634.165 169.793 633.499 169.356 633.04C168.918 632.571 168.321 632.336 167.564 632.336C166.796 632.336 166.182 632.576 165.724 633.056C165.276 633.536 165.052 634.235 165.052 635.152V640H163.596V631.232H165.052V632.48C165.34 632.032 165.729 631.685 166.22 631.44C166.721 631.195 167.27 631.072 167.868 631.072ZM173.606 635.584C173.606 634.688 173.787 633.904 174.15 633.232C174.513 632.549 175.009 632.021 175.638 631.648C176.278 631.275 176.987 631.088 177.766 631.088C178.534 631.088 179.201 631.253 179.766 631.584C180.331 631.915 180.753 632.331 181.03 632.832V631.232H182.502V640H181.03V638.368C180.742 638.88 180.31 639.307 179.734 639.648C179.169 639.979 178.507 640.144 177.75 640.144C176.971 640.144 176.267 639.952 175.638 639.568C175.009 639.184 174.513 638.645 174.15 637.952C173.787 637.259 173.606 636.469 173.606 635.584ZM181.03 635.6C181.03 634.939 180.897 634.363 180.63 633.872C180.363 633.381 180.001 633.008 179.542 632.752C179.094 632.485 178.598 632.352 178.054 632.352C177.51 632.352 177.014 632.48 176.566 632.736C176.118 632.992 175.761 633.365 175.494 633.856C175.227 634.347 175.094 634.923 175.094 635.584C175.094 636.256 175.227 636.843 175.494 637.344C175.761 637.835 176.118 638.213 176.566 638.48C177.014 638.736 177.51 638.864 178.054 638.864C178.598 638.864 179.094 638.736 179.542 638.48C180.001 638.213 180.363 637.835 180.63 637.344C180.897 636.843 181.03 636.261 181.03 635.6ZM189.324 635.6C189.324 634.693 189.506 633.904 189.868 633.232C190.231 632.549 190.732 632.021 191.372 631.648C192.023 631.275 192.764 631.088 193.596 631.088C194.674 631.088 195.559 631.349 196.252 631.872C196.956 632.395 197.42 633.12 197.644 634.048H196.076C195.927 633.515 195.634 633.093 195.196 632.784C194.77 632.475 194.236 632.32 193.596 632.32C192.764 632.32 192.092 632.608 191.58 633.184C191.068 633.749 190.812 634.555 190.812 635.6C190.812 636.656 191.068 637.472 191.58 638.048C192.092 638.624 192.764 638.912 193.596 638.912C194.236 638.912 194.77 638.763 195.196 638.464C195.623 638.165 195.916 637.739 196.076 637.184H197.644C197.41 638.08 196.94 638.8 196.236 639.344C195.532 639.877 194.652 640.144 193.596 640.144C192.764 640.144 192.023 639.957 191.372 639.584C190.732 639.211 190.231 638.683 189.868 638C189.506 637.317 189.324 636.517 189.324 635.6ZM203.731 640.144C202.91 640.144 202.163 639.957 201.491 639.584C200.83 639.211 200.307 638.683 199.923 638C199.55 637.307 199.363 636.507 199.363 635.6C199.363 634.704 199.555 633.915 199.939 633.232C200.334 632.539 200.867 632.011 201.539 631.648C202.211 631.275 202.963 631.088 203.795 631.088C204.627 631.088 205.379 631.275 206.051 631.648C206.723 632.011 207.251 632.533 207.635 633.216C208.03 633.899 208.227 634.693 208.227 635.6C208.227 636.507 208.024 637.307 207.619 638C207.224 638.683 206.686 639.211 206.003 639.584C205.32 639.957 204.563 640.144 203.731 640.144ZM203.731 638.864C204.254 638.864 204.744 638.741 205.203 638.496C205.662 638.251 206.03 637.883 206.307 637.392C206.595 636.901 206.739 636.304 206.739 635.6C206.739 634.896 206.6 634.299 206.323 633.808C206.046 633.317 205.683 632.955 205.235 632.72C204.787 632.475 204.302 632.352 203.779 632.352C203.246 632.352 202.755 632.475 202.307 632.72C201.87 632.955 201.518 633.317 201.251 633.808C200.984 634.299 200.851 634.896 200.851 635.6C200.851 636.315 200.979 636.917 201.235 637.408C201.502 637.899 201.854 638.267 202.291 638.512C202.728 638.747 203.208 638.864 203.731 638.864ZM221.005 631.072C221.688 631.072 222.296 631.216 222.829 631.504C223.363 631.781 223.784 632.203 224.093 632.768C224.403 633.333 224.557 634.021 224.557 634.832V640H223.117V635.04C223.117 634.165 222.899 633.499 222.461 633.04C222.035 632.571 221.453 632.336 220.717 632.336C219.96 632.336 219.357 632.581 218.909 633.072C218.461 633.552 218.237 634.251 218.237 635.168V640H216.797V635.04C216.797 634.165 216.579 633.499 216.141 633.04C215.715 632.571 215.133 632.336 214.397 632.336C213.64 632.336 213.037 632.581 212.589 633.072C212.141 633.552 211.917 634.251 211.917 635.168V640H210.461V631.232H211.917V632.496C212.205 632.037 212.589 631.685 213.069 631.44C213.56 631.195 214.099 631.072 214.685 631.072C215.421 631.072 216.072 631.237 216.637 631.568C217.203 631.899 217.624 632.384 217.901 633.024C218.147 632.405 218.552 631.925 219.117 631.584C219.683 631.243 220.312 631.072 221.005 631.072ZM235.042 631.232V640H233.586V638.704C233.308 639.152 232.919 639.504 232.418 639.76C231.927 640.005 231.383 640.128 230.786 640.128C230.103 640.128 229.49 639.989 228.946 639.712C228.402 639.424 227.97 638.997 227.65 638.432C227.34 637.867 227.186 637.179 227.186 636.368V631.232H228.626V636.176C228.626 637.04 228.844 637.707 229.282 638.176C229.719 638.635 230.316 638.864 231.074 638.864C231.852 638.864 232.466 638.624 232.914 638.144C233.362 637.664 233.586 636.965 233.586 636.048V631.232H235.042ZM242.092 631.072C243.159 631.072 244.023 631.397 244.684 632.048C245.345 632.688 245.676 633.616 245.676 634.832V640H244.236V635.04C244.236 634.165 244.017 633.499 243.58 633.04C243.143 632.571 242.545 632.336 241.788 632.336C241.02 632.336 240.407 632.576 239.948 633.056C239.5 633.536 239.276 634.235 239.276 635.152V640H237.82V631.232H239.276V632.48C239.564 632.032 239.953 631.685 240.444 631.44C240.945 631.195 241.495 631.072 242.092 631.072ZM249.127 629.808C248.849 629.808 248.615 629.712 248.423 629.52C248.231 629.328 248.135 629.093 248.135 628.816C248.135 628.539 248.231 628.304 248.423 628.112C248.615 627.92 248.849 627.824 249.127 627.824C249.393 627.824 249.617 627.92 249.799 628.112C249.991 628.304 250.087 628.539 250.087 628.816C250.087 629.093 249.991 629.328 249.799 629.52C249.617 629.712 249.393 629.808 249.127 629.808ZM249.831 631.232V640H248.375V631.232H249.831ZM252.088 635.584C252.088 634.688 252.269 633.904 252.632 633.232C252.995 632.549 253.491 632.021 254.12 631.648C254.76 631.275 255.475 631.088 256.264 631.088C256.947 631.088 257.581 631.248 258.168 631.568C258.755 631.877 259.203 632.288 259.512 632.8V628.16H260.984V640H259.512V638.352C259.224 638.875 258.797 639.307 258.232 639.648C257.667 639.979 257.005 640.144 256.248 640.144C255.469 640.144 254.76 639.952 254.12 639.568C253.491 639.184 252.995 638.645 252.632 637.952C252.269 637.259 252.088 636.469 252.088 635.584ZM259.512 635.6C259.512 634.939 259.379 634.363 259.112 633.872C258.845 633.381 258.483 633.008 258.024 632.752C257.576 632.485 257.08 632.352 256.536 632.352C255.992 632.352 255.496 632.48 255.048 632.736C254.6 632.992 254.243 633.365 253.976 633.856C253.709 634.347 253.576 634.923 253.576 635.584C253.576 636.256 253.709 636.843 253.976 637.344C254.243 637.835 254.6 638.213 255.048 638.48C255.496 638.736 255.992 638.864 256.536 638.864C257.08 638.864 257.576 638.736 258.024 638.48C258.483 638.213 258.845 637.835 259.112 637.344C259.379 636.843 259.512 636.261 259.512 635.6ZM263.221 635.584C263.221 634.688 263.402 633.904 263.765 633.232C264.127 632.549 264.623 632.021 265.253 631.648C265.893 631.275 266.602 631.088 267.381 631.088C268.149 631.088 268.815 631.253 269.381 631.584C269.946 631.915 270.367 632.331 270.645 632.832V631.232H272.117V640H270.645V638.368C270.357 638.88 269.925 639.307 269.349 639.648C268.783 639.979 268.122 640.144 267.365 640.144C266.586 640.144 265.882 639.952 265.253 639.568C264.623 639.184 264.127 638.645 263.765 637.952C263.402 637.259 263.221 636.469 263.221 635.584ZM270.645 635.6C270.645 634.939 270.511 634.363 270.245 633.872C269.978 633.381 269.615 633.008 269.157 632.752C268.709 632.485 268.213 632.352 267.669 632.352C267.125 632.352 266.629 632.48 266.181 632.736C265.733 632.992 265.375 633.365 265.109 633.856C264.842 634.347 264.709 634.923 264.709 635.584C264.709 636.256 264.842 636.843 265.109 637.344C265.375 637.835 265.733 638.213 266.181 638.48C266.629 638.736 267.125 638.864 267.669 638.864C268.213 638.864 268.709 638.736 269.157 638.48C269.615 638.213 269.978 637.835 270.245 637.344C270.511 636.843 270.645 636.261 270.645 635.6ZM274.353 635.584C274.353 634.688 274.534 633.904 274.897 633.232C275.26 632.549 275.756 632.021 276.385 631.648C277.025 631.275 277.74 631.088 278.529 631.088C279.212 631.088 279.846 631.248 280.433 631.568C281.02 631.877 281.468 632.288 281.777 632.8V628.16H283.249V640H281.777V638.352C281.489 638.875 281.062 639.307 280.497 639.648C279.932 639.979 279.27 640.144 278.513 640.144C277.734 640.144 277.025 639.952 276.385 639.568C275.756 639.184 275.26 638.645 274.897 637.952C274.534 637.259 274.353 636.469 274.353 635.584ZM281.777 635.6C281.777 634.939 281.644 634.363 281.377 633.872C281.11 633.381 280.748 633.008 280.289 632.752C279.841 632.485 279.345 632.352 278.801 632.352C278.257 632.352 277.761 632.48 277.313 632.736C276.865 632.992 276.508 633.365 276.241 633.856C275.974 634.347 275.841 634.923 275.841 635.584C275.841 636.256 275.974 636.843 276.241 637.344C276.508 637.835 276.865 638.213 277.313 638.48C277.761 638.736 278.257 638.864 278.801 638.864C279.345 638.864 279.841 638.736 280.289 638.48C280.748 638.213 281.11 637.835 281.377 637.344C281.644 636.843 281.777 636.261 281.777 635.6ZM60.1414 659.6C60.1414 658.693 60.3228 657.904 60.6854 657.232C61.0481 656.549 61.5494 656.021 62.1894 655.648C62.8401 655.275 63.5814 655.088 64.4134 655.088C65.4908 655.088 66.3761 655.349 67.0694 655.872C67.7734 656.395 68.2374 657.12 68.4614 658.048H66.8934C66.7441 657.515 66.4508 657.093 66.0134 656.784C65.5868 656.475 65.0534 656.32 64.4134 656.32C63.5814 656.32 62.9094 656.608 62.3974 657.184C61.8854 657.749 61.6294 658.555 61.6294 659.6C61.6294 660.656 61.8854 661.472 62.3974 662.048C62.9094 662.624 63.5814 662.912 64.4134 662.912C65.0534 662.912 65.5868 662.763 66.0134 662.464C66.4401 662.165 66.7334 661.739 66.8934 661.184H68.4614C68.2268 662.08 67.7574 662.8 67.0534 663.344C66.3494 663.877 65.4694 664.144 64.4134 664.144C63.5814 664.144 62.8401 663.957 62.1894 663.584C61.5494 663.211 61.0481 662.683 60.6854 662C60.3228 661.317 60.1414 660.517 60.1414 659.6ZM74.5482 664.144C73.7269 664.144 72.9802 663.957 72.3082 663.584C71.6469 663.211 71.1242 662.683 70.7402 662C70.3669 661.307 70.1802 660.507 70.1802 659.6C70.1802 658.704 70.3722 657.915 70.7562 657.232C71.1509 656.539 71.6842 656.011 72.3562 655.648C73.0282 655.275 73.7802 655.088 74.6122 655.088C75.4442 655.088 76.1962 655.275 76.8682 655.648C77.5402 656.011 78.0682 656.533 78.4522 657.216C78.8469 657.899 79.0442 658.693 79.0442 659.6C79.0442 660.507 78.8415 661.307 78.4362 662C78.0415 662.683 77.5029 663.211 76.8202 663.584C76.1375 663.957 75.3802 664.144 74.5482 664.144ZM74.5482 662.864C75.0709 662.864 75.5615 662.741 76.0202 662.496C76.4789 662.251 76.8469 661.883 77.1242 661.392C77.4122 660.901 77.5562 660.304 77.5562 659.6C77.5562 658.896 77.4175 658.299 77.1402 657.808C76.8629 657.317 76.5002 656.955 76.0522 656.72C75.6042 656.475 75.1189 656.352 74.5962 656.352C74.0629 656.352 73.5722 656.475 73.1242 656.72C72.6869 656.955 72.3349 657.317 72.0682 657.808C71.8015 658.299 71.6682 658.896 71.6682 659.6C71.6682 660.315 71.7962 660.917 72.0522 661.408C72.3189 661.899 72.6709 662.267 73.1082 662.512C73.5455 662.747 74.0255 662.864 74.5482 662.864ZM91.8226 655.072C92.5052 655.072 93.1132 655.216 93.6466 655.504C94.1799 655.781 94.6012 656.203 94.9106 656.768C95.2199 657.333 95.3746 658.021 95.3746 658.832V664H93.9346V659.04C93.9346 658.165 93.7159 657.499 93.2786 657.04C92.8519 656.571 92.2706 656.336 91.5346 656.336C90.7772 656.336 90.1746 656.581 89.7266 657.072C89.2786 657.552 89.0546 658.251 89.0546 659.168V664H87.6146V659.04C87.6146 658.165 87.3959 657.499 86.9586 657.04C86.5319 656.571 85.9506 656.336 85.2146 656.336C84.4572 656.336 83.8546 656.581 83.4066 657.072C82.9586 657.552 82.7346 658.251 82.7346 659.168V664H81.2786V655.232H82.7346V656.496C83.0226 656.037 83.4066 655.685 83.8866 655.44C84.3772 655.195 84.9159 655.072 85.5026 655.072C86.2386 655.072 86.8892 655.237 87.4546 655.568C88.0199 655.899 88.4412 656.384 88.7186 657.024C88.9639 656.405 89.3692 655.925 89.9346 655.584C90.4999 655.243 91.1292 655.072 91.8226 655.072ZM99.5389 656.848C99.8269 656.347 100.254 655.931 100.819 655.6C101.395 655.259 102.062 655.088 102.819 655.088C103.598 655.088 104.302 655.275 104.931 655.648C105.571 656.021 106.072 656.549 106.435 657.232C106.798 657.904 106.979 658.688 106.979 659.584C106.979 660.469 106.798 661.259 106.435 661.952C106.072 662.645 105.571 663.184 104.931 663.568C104.302 663.952 103.598 664.144 102.819 664.144C102.072 664.144 101.411 663.979 100.835 663.648C100.27 663.307 99.8376 662.885 99.5389 662.384V668.16H98.0829V655.232H99.5389V656.848ZM105.491 659.584C105.491 658.923 105.358 658.347 105.091 657.856C104.824 657.365 104.462 656.992 104.003 656.736C103.555 656.48 103.059 656.352 102.515 656.352C101.982 656.352 101.486 656.485 101.027 656.752C100.579 657.008 100.216 657.387 99.9389 657.888C99.6723 658.379 99.5389 658.949 99.5389 659.6C99.5389 660.261 99.6723 660.843 99.9389 661.344C100.216 661.835 100.579 662.213 101.027 662.48C101.486 662.736 101.982 662.864 102.515 662.864C103.059 662.864 103.555 662.736 104.003 662.48C104.462 662.213 104.824 661.835 105.091 661.344C105.358 660.843 105.491 660.256 105.491 659.584ZM110.671 656.656C110.927 656.155 111.29 655.765 111.759 655.488C112.239 655.211 112.821 655.072 113.503 655.072V656.576H113.119C111.487 656.576 110.671 657.461 110.671 659.232V664H109.215V655.232H110.671V656.656ZM119.328 664.144C118.507 664.144 117.76 663.957 117.088 663.584C116.427 663.211 115.904 662.683 115.52 662C115.147 661.307 114.96 660.507 114.96 659.6C114.96 658.704 115.152 657.915 115.536 657.232C115.931 656.539 116.464 656.011 117.136 655.648C117.808 655.275 118.56 655.088 119.392 655.088C120.224 655.088 120.976 655.275 121.648 655.648C122.32 656.011 122.848 656.533 123.232 657.216C123.627 657.899 123.824 658.693 123.824 659.6C123.824 660.507 123.622 661.307 123.216 662C122.822 662.683 122.283 663.211 121.6 663.584C120.918 663.957 120.16 664.144 119.328 664.144ZM119.328 662.864C119.851 662.864 120.342 662.741 120.8 662.496C121.259 662.251 121.627 661.883 121.904 661.392C122.192 660.901 122.336 660.304 122.336 659.6C122.336 658.896 122.198 658.299 121.92 657.808C121.643 657.317 121.28 656.955 120.832 656.72C120.384 656.475 119.899 656.352 119.376 656.352C118.843 656.352 118.352 656.475 117.904 656.72C117.467 656.955 117.115 657.317 116.848 657.808C116.582 658.299 116.448 658.896 116.448 659.6C116.448 660.315 116.576 660.917 116.832 661.408C117.099 661.899 117.451 662.267 117.888 662.512C118.326 662.747 118.806 662.864 119.328 662.864ZM136.603 655.072C137.285 655.072 137.893 655.216 138.427 655.504C138.96 655.781 139.381 656.203 139.691 656.768C140 657.333 140.155 658.021 140.155 658.832V664H138.715V659.04C138.715 658.165 138.496 657.499 138.059 657.04C137.632 656.571 137.051 656.336 136.315 656.336C135.557 656.336 134.955 656.581 134.507 657.072C134.059 657.552 133.835 658.251 133.835 659.168V664H132.395V659.04C132.395 658.165 132.176 657.499 131.739 657.04C131.312 656.571 130.731 656.336 129.995 656.336C129.237 656.336 128.635 656.581 128.187 657.072C127.739 657.552 127.515 658.251 127.515 659.168V664H126.059V655.232H127.515V656.496C127.803 656.037 128.187 655.685 128.667 655.44C129.157 655.195 129.696 655.072 130.283 655.072C131.019 655.072 131.669 655.237 132.235 655.568C132.8 655.899 133.221 656.384 133.499 657.024C133.744 656.405 134.149 655.925 134.715 655.584C135.28 655.243 135.909 655.072 136.603 655.072ZM150.863 659.28C150.863 659.557 150.847 659.851 150.815 660.16H143.807C143.86 661.024 144.154 661.701 144.687 662.192C145.231 662.672 145.887 662.912 146.655 662.912C147.284 662.912 147.807 662.768 148.223 662.48C148.65 662.181 148.948 661.787 149.119 661.296H150.687C150.452 662.139 149.983 662.827 149.279 663.36C148.575 663.883 147.7 664.144 146.655 664.144C145.823 664.144 145.076 663.957 144.415 663.584C143.764 663.211 143.252 662.683 142.879 662C142.506 661.307 142.319 660.507 142.319 659.6C142.319 658.693 142.5 657.899 142.863 657.216C143.226 656.533 143.732 656.011 144.383 655.648C145.044 655.275 145.802 655.088 146.655 655.088C147.487 655.088 148.223 655.269 148.863 655.632C149.503 655.995 149.994 656.496 150.335 657.136C150.687 657.765 150.863 658.48 150.863 659.28ZM149.359 658.976C149.359 658.421 149.236 657.947 148.991 657.552C148.746 657.147 148.41 656.843 147.983 656.64C147.567 656.427 147.103 656.32 146.591 656.32C145.855 656.32 145.226 656.555 144.703 657.024C144.191 657.493 143.898 658.144 143.823 658.976H149.359ZM154.881 656.432V661.6C154.881 662.027 154.971 662.331 155.153 662.512C155.334 662.683 155.649 662.768 156.097 662.768H157.169V664H155.857C155.046 664 154.438 663.813 154.033 663.44C153.627 663.067 153.425 662.453 153.425 661.6V656.432H152.289V655.232H153.425V653.024H154.881V655.232H157.169V656.432H154.881ZM160.005 653.808C159.728 653.808 159.493 653.712 159.301 653.52C159.109 653.328 159.013 653.093 159.013 652.816C159.013 652.539 159.109 652.304 159.301 652.112C159.493 651.92 159.728 651.824 160.005 651.824C160.272 651.824 160.496 651.92 160.677 652.112C160.869 652.304 160.965 652.539 160.965 652.816C160.965 653.093 160.869 653.328 160.677 653.52C160.496 653.712 160.272 653.808 160.005 653.808ZM160.709 655.232V664H159.253V655.232H160.709ZM162.966 659.584C162.966 658.688 163.148 657.904 163.51 657.232C163.873 656.549 164.369 656.021 164.998 655.648C165.638 655.275 166.353 655.088 167.142 655.088C167.825 655.088 168.46 655.248 169.046 655.568C169.633 655.877 170.081 656.288 170.39 656.8V652.16H171.862V664H170.39V662.352C170.102 662.875 169.676 663.307 169.11 663.648C168.545 663.979 167.884 664.144 167.126 664.144C166.348 664.144 165.638 663.952 164.998 663.568C164.369 663.184 163.873 662.645 163.51 661.952C163.148 661.259 162.966 660.469 162.966 659.584ZM170.39 659.6C170.39 658.939 170.257 658.363 169.99 657.872C169.724 657.381 169.361 657.008 168.902 656.752C168.454 656.485 167.958 656.352 167.414 656.352C166.87 656.352 166.374 656.48 165.926 656.736C165.478 656.992 165.121 657.365 164.854 657.856C164.588 658.347 164.454 658.923 164.454 659.584C164.454 660.256 164.588 660.843 164.854 661.344C165.121 661.835 165.478 662.213 165.926 662.48C166.374 662.736 166.87 662.864 167.414 662.864C167.958 662.864 168.454 662.736 168.902 662.48C169.361 662.213 169.724 661.835 169.99 661.344C170.257 660.843 170.39 660.261 170.39 659.6ZM174.099 659.584C174.099 658.688 174.28 657.904 174.643 657.232C175.006 656.549 175.502 656.021 176.131 655.648C176.771 655.275 177.48 655.088 178.259 655.088C179.027 655.088 179.694 655.253 180.259 655.584C180.824 655.915 181.246 656.331 181.523 656.832V655.232H182.995V664H181.523V662.368C181.235 662.88 180.803 663.307 180.227 663.648C179.662 663.979 179 664.144 178.243 664.144C177.464 664.144 176.76 663.952 176.131 663.568C175.502 663.184 175.006 662.645 174.643 661.952C174.28 661.259 174.099 660.469 174.099 659.584ZM181.523 659.6C181.523 658.939 181.39 658.363 181.123 657.872C180.856 657.381 180.494 657.008 180.035 656.752C179.587 656.485 179.091 656.352 178.547 656.352C178.003 656.352 177.507 656.48 177.059 656.736C176.611 656.992 176.254 657.365 175.987 657.856C175.72 658.347 175.587 658.923 175.587 659.584C175.587 660.256 175.72 660.843 175.987 661.344C176.254 661.835 176.611 662.213 177.059 662.48C177.507 662.736 178.003 662.864 178.547 662.864C179.091 662.864 179.587 662.736 180.035 662.48C180.494 662.213 180.856 661.835 181.123 661.344C181.39 660.843 181.523 660.261 181.523 659.6ZM189.817 659.6C189.817 658.693 189.998 657.904 190.361 657.232C190.724 656.549 191.225 656.021 191.865 655.648C192.516 655.275 193.257 655.088 194.089 655.088C195.166 655.088 196.052 655.349 196.745 655.872C197.449 656.395 197.913 657.12 198.137 658.048H196.569C196.42 657.515 196.126 657.093 195.689 656.784C195.262 656.475 194.729 656.32 194.089 656.32C193.257 656.32 192.585 656.608 192.073 657.184C191.561 657.749 191.305 658.555 191.305 659.6C191.305 660.656 191.561 661.472 192.073 662.048C192.585 662.624 193.257 662.912 194.089 662.912C194.729 662.912 195.262 662.763 195.689 662.464C196.116 662.165 196.409 661.739 196.569 661.184H198.137C197.902 662.08 197.433 662.8 196.729 663.344C196.025 663.877 195.145 664.144 194.089 664.144C193.257 664.144 192.516 663.957 191.865 663.584C191.225 663.211 190.724 662.683 190.361 662C189.998 661.317 189.817 660.517 189.817 659.6ZM204.224 664.144C203.402 664.144 202.656 663.957 201.984 663.584C201.322 663.211 200.8 662.683 200.416 662C200.042 661.307 199.856 660.507 199.856 659.6C199.856 658.704 200.048 657.915 200.432 657.232C200.826 656.539 201.36 656.011 202.032 655.648C202.704 655.275 203.456 655.088 204.288 655.088C205.12 655.088 205.872 655.275 206.544 655.648C207.216 656.011 207.744 656.533 208.128 657.216C208.522 657.899 208.72 658.693 208.72 659.6C208.72 660.507 208.517 661.307 208.112 662C207.717 662.683 207.178 663.211 206.496 663.584C205.813 663.957 205.056 664.144 204.224 664.144ZM204.224 662.864C204.746 662.864 205.237 662.741 205.696 662.496C206.154 662.251 206.522 661.883 206.8 661.392C207.088 660.901 207.232 660.304 207.232 659.6C207.232 658.896 207.093 658.299 206.816 657.808C206.538 657.317 206.176 656.955 205.728 656.72C205.28 656.475 204.794 656.352 204.272 656.352C203.738 656.352 203.248 656.475 202.8 656.72C202.362 656.955 202.01 657.317 201.744 657.808C201.477 658.299 201.344 658.896 201.344 659.6C201.344 660.315 201.472 660.917 201.728 661.408C201.994 661.899 202.346 662.267 202.784 662.512C203.221 662.747 203.701 662.864 204.224 662.864ZM215.226 655.072C216.293 655.072 217.157 655.397 217.818 656.048C218.48 656.688 218.81 657.616 218.81 658.832V664H217.37V659.04C217.37 658.165 217.152 657.499 216.714 657.04C216.277 656.571 215.68 656.336 214.922 656.336C214.154 656.336 213.541 656.576 213.082 657.056C212.634 657.536 212.41 658.235 212.41 659.152V664H210.954V655.232H212.41V656.48C212.698 656.032 213.088 655.685 213.578 655.44C214.08 655.195 214.629 655.072 215.226 655.072ZM234.094 659.28C234.094 659.557 234.078 659.851 234.046 660.16H227.038C227.092 661.024 227.385 661.701 227.918 662.192C228.462 662.672 229.118 662.912 229.886 662.912C230.516 662.912 231.038 662.768 231.454 662.48C231.881 662.181 232.18 661.787 232.35 661.296H233.918C233.684 662.139 233.214 662.827 232.51 663.36C231.806 663.883 230.932 664.144 229.886 664.144C229.054 664.144 228.308 663.957 227.646 663.584C226.996 663.211 226.484 662.683 226.11 662C225.737 661.307 225.55 660.507 225.55 659.6C225.55 658.693 225.732 657.899 226.094 657.216C226.457 656.533 226.964 656.011 227.614 655.648C228.276 655.275 229.033 655.088 229.886 655.088C230.718 655.088 231.454 655.269 232.094 655.632C232.734 655.995 233.225 656.496 233.566 657.136C233.918 657.765 234.094 658.48 234.094 659.28ZM232.59 658.976C232.59 658.421 232.468 657.947 232.222 657.552C231.977 657.147 231.641 656.843 231.214 656.64C230.798 656.427 230.334 656.32 229.822 656.32C229.086 656.32 228.457 656.555 227.934 657.024C227.422 657.493 227.129 658.144 227.054 658.976H232.59ZM237.792 652.16V664H236.336V652.16H237.792ZM246.635 656.848C246.923 656.347 247.35 655.931 247.915 655.6C248.491 655.259 249.158 655.088 249.915 655.088C250.694 655.088 251.398 655.275 252.027 655.648C252.667 656.021 253.169 656.549 253.531 657.232C253.894 657.904 254.075 658.688 254.075 659.584C254.075 660.469 253.894 661.259 253.531 661.952C253.169 662.645 252.667 663.184 252.027 663.568C251.398 663.952 250.694 664.144 249.915 664.144C249.169 664.144 248.507 663.979 247.931 663.648C247.366 663.307 246.934 662.885 246.635 662.384V668.16H245.179V655.232H246.635V656.848ZM252.587 659.584C252.587 658.923 252.454 658.347 252.187 657.856C251.921 657.365 251.558 656.992 251.099 656.736C250.651 656.48 250.155 656.352 249.611 656.352C249.078 656.352 248.582 656.485 248.123 656.752C247.675 657.008 247.313 657.387 247.035 657.888C246.769 658.379 246.635 658.949 246.635 659.6C246.635 660.261 246.769 660.843 247.035 661.344C247.313 661.835 247.675 662.213 248.123 662.48C248.582 662.736 249.078 662.864 249.611 662.864C250.155 662.864 250.651 662.736 251.099 662.48C251.558 662.213 251.921 661.835 252.187 661.344C252.454 660.843 252.587 660.256 252.587 659.584ZM257.768 652.16V664H256.312V652.16H257.768ZM260.025 659.584C260.025 658.688 260.207 657.904 260.569 657.232C260.932 656.549 261.428 656.021 262.057 655.648C262.697 655.275 263.407 655.088 264.185 655.088C264.953 655.088 265.62 655.253 266.185 655.584C266.751 655.915 267.172 656.331 267.449 656.832V655.232H268.921V664H267.449V662.368C267.161 662.88 266.729 663.307 266.153 663.648C265.588 663.979 264.927 664.144 264.169 664.144C263.391 664.144 262.687 663.952 262.057 663.568C261.428 663.184 260.932 662.645 260.569 661.952C260.207 661.259 260.025 660.469 260.025 659.584ZM267.449 659.6C267.449 658.939 267.316 658.363 267.049 657.872C266.783 657.381 266.42 657.008 265.961 656.752C265.513 656.485 265.017 656.352 264.473 656.352C263.929 656.352 263.433 656.48 262.985 656.736C262.537 656.992 262.18 657.365 261.913 657.856C261.647 658.347 261.513 658.923 261.513 659.584C261.513 660.256 261.647 660.843 261.913 661.344C262.18 661.835 262.537 662.213 262.985 662.48C263.433 662.736 263.929 662.864 264.473 662.864C265.017 662.864 265.513 662.736 265.961 662.48C266.42 662.213 266.783 661.835 267.049 661.344C267.316 660.843 267.449 660.261 267.449 659.6ZM275.974 655.072C277.04 655.072 277.904 655.397 278.566 656.048C279.227 656.688 279.558 657.616 279.558 658.832V664H278.118V659.04C278.118 658.165 277.899 657.499 277.462 657.04C277.024 656.571 276.427 656.336 275.67 656.336C274.902 656.336 274.288 656.576 273.83 657.056C273.382 657.536 273.158 658.235 273.158 659.152V664H271.702V655.232H273.158V656.48C273.446 656.032 273.835 655.685 274.326 655.44C274.827 655.195 275.376 655.072 275.974 655.072ZM290.256 659.28C290.256 659.557 290.24 659.851 290.208 660.16H283.2C283.253 661.024 283.547 661.701 284.08 662.192C284.624 662.672 285.28 662.912 286.048 662.912C286.677 662.912 287.2 662.768 287.616 662.48C288.043 662.181 288.341 661.787 288.512 661.296H290.08C289.845 662.139 289.376 662.827 288.672 663.36C287.968 663.883 287.093 664.144 286.048 664.144C285.216 664.144 284.469 663.957 283.808 663.584C283.157 663.211 282.645 662.683 282.272 662C281.899 661.307 281.712 660.507 281.712 659.6C281.712 658.693 281.893 657.899 282.256 657.216C282.619 656.533 283.125 656.011 283.776 655.648C284.437 655.275 285.195 655.088 286.048 655.088C286.88 655.088 287.616 655.269 288.256 655.632C288.896 655.995 289.387 656.496 289.728 657.136C290.08 657.765 290.256 658.48 290.256 659.28ZM288.752 658.976C288.752 658.421 288.629 657.947 288.384 657.552C288.139 657.147 287.803 656.843 287.376 656.64C286.96 656.427 286.496 656.32 285.984 656.32C285.248 656.32 284.619 656.555 284.096 657.024C283.584 657.493 283.291 658.144 283.216 658.976H288.752ZM294.274 656.432V661.6C294.274 662.027 294.365 662.331 294.546 662.512C294.727 662.683 295.042 662.768 295.49 662.768H296.562V664H295.25C294.439 664 293.831 663.813 293.426 663.44C293.021 663.067 292.818 662.453 292.818 661.6V656.432H291.682V655.232H292.818V653.024H294.274V655.232H296.562V656.432H294.274ZM298.102 659.584C298.102 658.688 298.283 657.904 298.646 657.232C299.009 656.549 299.505 656.021 300.134 655.648C300.774 655.275 301.483 655.088 302.262 655.088C303.03 655.088 303.697 655.253 304.262 655.584C304.827 655.915 305.249 656.331 305.526 656.832V655.232H306.998V664H305.526V662.368C305.238 662.88 304.806 663.307 304.23 663.648C303.665 663.979 303.003 664.144 302.246 664.144C301.467 664.144 300.763 663.952 300.134 663.568C299.505 663.184 299.009 662.645 298.646 661.952C298.283 661.259 298.102 660.469 298.102 659.584ZM305.526 659.6C305.526 658.939 305.393 658.363 305.126 657.872C304.859 657.381 304.497 657.008 304.038 656.752C303.59 656.485 303.094 656.352 302.55 656.352C302.006 656.352 301.51 656.48 301.062 656.736C300.614 656.992 300.257 657.365 299.99 657.856C299.723 658.347 299.59 658.923 299.59 659.584C299.59 660.256 299.723 660.843 299.99 661.344C300.257 661.835 300.614 662.213 301.062 662.48C301.51 662.736 302.006 662.864 302.55 662.864C303.094 662.864 303.59 662.736 304.038 662.48C304.497 662.213 304.859 661.835 305.126 661.344C305.393 660.843 305.526 660.261 305.526 659.6ZM77.6721 683.584C77.6721 682.688 77.8534 681.904 78.2161 681.232C78.5787 680.549 79.0747 680.021 79.7041 679.648C80.3441 679.275 81.0587 679.088 81.8481 679.088C82.5307 679.088 83.1654 679.248 83.7521 679.568C84.3387 679.877 84.7867 680.288 85.0961 680.8V676.16H86.5681V688H85.0961V686.352C84.8081 686.875 84.3814 687.307 83.8161 687.648C83.2507 687.979 82.5894 688.144 81.8321 688.144C81.0534 688.144 80.3441 687.952 79.7041 687.568C79.0747 687.184 78.5787 686.645 78.2161 685.952C77.8534 685.259 77.6721 684.469 77.6721 683.584ZM85.0961 683.6C85.0961 682.939 84.9627 682.363 84.6961 681.872C84.4294 681.381 84.0667 681.008 83.6081 680.752C83.1601 680.485 82.6641 680.352 82.1201 680.352C81.5761 680.352 81.0801 680.48 80.6321 680.736C80.1841 680.992 79.8267 681.365 79.5601 681.856C79.2934 682.347 79.1601 682.923 79.1601 683.584C79.1601 684.256 79.2934 684.843 79.5601 685.344C79.8267 685.835 80.1841 686.213 80.6321 686.48C81.0801 686.736 81.5761 686.864 82.1201 686.864C82.6641 686.864 83.1601 686.736 83.6081 686.48C84.0667 686.213 84.4294 685.835 84.6961 685.344C84.9627 684.843 85.0961 684.261 85.0961 683.6ZM90.1006 677.808C89.8232 677.808 89.5886 677.712 89.3966 677.52C89.2046 677.328 89.1086 677.093 89.1086 676.816C89.1086 676.539 89.2046 676.304 89.3966 676.112C89.5886 675.92 89.8232 675.824 90.1006 675.824C90.3672 675.824 90.5912 675.92 90.7726 676.112C90.9646 676.304 91.0606 676.539 91.0606 676.816C91.0606 677.093 90.9646 677.328 90.7726 677.52C90.5912 677.712 90.3672 677.808 90.1006 677.808ZM90.8046 679.232V688H89.3486V679.232H90.8046ZM96.7101 688.144C96.0381 688.144 95.4354 688.032 94.9021 687.808C94.3687 687.573 93.9474 687.253 93.6381 686.848C93.3287 686.432 93.1581 685.957 93.1261 685.424H94.6301C94.6727 685.861 94.8754 686.219 95.2381 686.496C95.6114 686.773 96.0967 686.912 96.6941 686.912C97.2487 686.912 97.6861 686.789 98.0061 686.544C98.3261 686.299 98.4861 685.989 98.4861 685.616C98.4861 685.232 98.3154 684.949 97.9741 684.768C97.6327 684.576 97.1047 684.389 96.3901 684.208C95.7394 684.037 95.2061 683.867 94.7901 683.696C94.3847 683.515 94.0327 683.253 93.7341 682.912C93.4461 682.56 93.3021 682.101 93.3021 681.536C93.3021 681.088 93.4354 680.677 93.7021 680.304C93.9687 679.931 94.3474 679.637 94.8381 679.424C95.3287 679.2 95.8887 679.088 96.5181 679.088C97.4887 679.088 98.2727 679.333 98.8701 679.824C99.4674 680.315 99.7874 680.987 99.8301 681.84H98.3741C98.3421 681.381 98.1554 681.013 97.8141 680.736C97.4834 680.459 97.0354 680.32 96.4701 680.32C95.9474 680.32 95.5314 680.432 95.2221 680.656C94.9127 680.88 94.7581 681.173 94.7581 681.536C94.7581 681.824 94.8487 682.064 95.0301 682.256C95.2221 682.437 95.4567 682.587 95.7341 682.704C96.0221 682.811 96.4167 682.933 96.9181 683.072C97.5474 683.243 98.0594 683.413 98.4541 683.584C98.8487 683.744 99.1847 683.989 99.4621 684.32C99.7501 684.651 99.8994 685.083 99.9101 685.616C99.9101 686.096 99.7767 686.528 99.5101 686.912C99.2434 687.296 98.8647 687.6 98.3741 687.824C97.8941 688.037 97.3394 688.144 96.7101 688.144ZM103.741 680.848C104.029 680.347 104.456 679.931 105.021 679.6C105.597 679.259 106.264 679.088 107.021 679.088C107.8 679.088 108.504 679.275 109.133 679.648C109.773 680.021 110.275 680.549 110.637 681.232C111 681.904 111.181 682.688 111.181 683.584C111.181 684.469 111 685.259 110.637 685.952C110.275 686.645 109.773 687.184 109.133 687.568C108.504 687.952 107.8 688.144 107.021 688.144C106.275 688.144 105.613 687.979 105.037 687.648C104.472 687.307 104.04 686.885 103.741 686.384V692.16H102.285V679.232H103.741V680.848ZM109.693 683.584C109.693 682.923 109.56 682.347 109.293 681.856C109.027 681.365 108.664 680.992 108.205 680.736C107.757 680.48 107.261 680.352 106.717 680.352C106.184 680.352 105.688 680.485 105.229 680.752C104.781 681.008 104.419 681.387 104.141 681.888C103.875 682.379 103.741 682.949 103.741 683.6C103.741 684.261 103.875 684.843 104.141 685.344C104.419 685.835 104.781 686.213 105.229 686.48C105.688 686.736 106.184 686.864 106.717 686.864C107.261 686.864 107.757 686.736 108.205 686.48C108.664 686.213 109.027 685.835 109.293 685.344C109.56 684.843 109.693 684.256 109.693 683.584ZM121.194 679.232V688H119.738V686.704C119.461 687.152 119.071 687.504 118.57 687.76C118.079 688.005 117.535 688.128 116.938 688.128C116.255 688.128 115.642 687.989 115.098 687.712C114.554 687.424 114.122 686.997 113.802 686.432C113.493 685.867 113.338 685.179 113.338 684.368V679.232H114.778V684.176C114.778 685.04 114.997 685.707 115.434 686.176C115.871 686.635 116.469 686.864 117.226 686.864C118.005 686.864 118.618 686.624 119.066 686.144C119.514 685.664 119.738 684.965 119.738 684.048V679.232H121.194ZM131.972 683.28C131.972 683.557 131.956 683.851 131.924 684.16H124.916C124.97 685.024 125.263 685.701 125.796 686.192C126.34 686.672 126.996 686.912 127.764 686.912C128.394 686.912 128.916 686.768 129.332 686.48C129.759 686.181 130.058 685.787 130.228 685.296H131.796C131.562 686.139 131.092 686.827 130.388 687.36C129.684 687.883 128.81 688.144 127.764 688.144C126.932 688.144 126.186 687.957 125.524 687.584C124.874 687.211 124.362 686.683 123.988 686C123.615 685.307 123.428 684.507 123.428 683.6C123.428 682.693 123.61 681.899 123.972 681.216C124.335 680.533 124.842 680.011 125.492 679.648C126.154 679.275 126.911 679.088 127.764 679.088C128.596 679.088 129.332 679.269 129.972 679.632C130.612 679.995 131.103 680.496 131.444 681.136C131.796 681.765 131.972 682.48 131.972 683.28ZM130.468 682.976C130.468 682.421 130.346 681.947 130.1 681.552C129.855 681.147 129.519 680.843 129.092 680.64C128.676 680.427 128.212 680.32 127.7 680.32C126.964 680.32 126.335 680.555 125.812 681.024C125.3 681.493 125.007 682.144 124.932 682.976H130.468ZM137.318 688.144C136.646 688.144 136.044 688.032 135.51 687.808C134.977 687.573 134.556 687.253 134.246 686.848C133.937 686.432 133.766 685.957 133.734 685.424H135.238C135.281 685.861 135.484 686.219 135.846 686.496C136.22 686.773 136.705 686.912 137.302 686.912C137.857 686.912 138.294 686.789 138.614 686.544C138.934 686.299 139.094 685.989 139.094 685.616C139.094 685.232 138.924 684.949 138.582 684.768C138.241 684.576 137.713 684.389 136.998 684.208C136.348 684.037 135.814 683.867 135.398 683.696C134.993 683.515 134.641 683.253 134.342 682.912C134.054 682.56 133.91 682.101 133.91 681.536C133.91 681.088 134.044 680.677 134.31 680.304C134.577 679.931 134.956 679.637 135.446 679.424C135.937 679.2 136.497 679.088 137.126 679.088C138.097 679.088 138.881 679.333 139.478 679.824C140.076 680.315 140.396 680.987 140.438 681.84H138.982C138.95 681.381 138.764 681.013 138.422 680.736C138.092 680.459 137.644 680.32 137.078 680.32C136.556 680.32 136.14 680.432 135.83 680.656C135.521 680.88 135.366 681.173 135.366 681.536C135.366 681.824 135.457 682.064 135.638 682.256C135.83 682.437 136.065 682.587 136.342 682.704C136.63 682.811 137.025 682.933 137.526 683.072C138.156 683.243 138.668 683.413 139.062 683.584C139.457 683.744 139.793 683.989 140.07 684.32C140.358 684.651 140.508 685.083 140.518 685.616C140.518 686.096 140.385 686.528 140.118 686.912C139.852 687.296 139.473 687.6 138.982 687.824C138.502 688.037 137.948 688.144 137.318 688.144ZM144.67 680.432V685.6C144.67 686.027 144.76 686.331 144.942 686.512C145.123 686.683 145.438 686.768 145.886 686.768H146.958V688H145.646C144.835 688 144.227 687.813 143.822 687.44C143.416 687.067 143.214 686.453 143.214 685.6V680.432H142.078V679.232H143.214V677.024H144.67V679.232H146.958V680.432H144.67ZM148.498 683.584C148.498 682.688 148.679 681.904 149.042 681.232C149.404 680.549 149.9 680.021 150.53 679.648C151.17 679.275 151.879 679.088 152.658 679.088C153.426 679.088 154.092 679.253 154.658 679.584C155.223 679.915 155.644 680.331 155.922 680.832V679.232H157.394V688H155.922V686.368C155.634 686.88 155.202 687.307 154.626 687.648C154.06 687.979 153.399 688.144 152.642 688.144C151.863 688.144 151.159 687.952 150.53 687.568C149.9 687.184 149.404 686.645 149.042 685.952C148.679 685.259 148.498 684.469 148.498 683.584ZM155.922 683.6C155.922 682.939 155.788 682.363 155.522 681.872C155.255 681.381 154.892 681.008 154.434 680.752C153.986 680.485 153.49 680.352 152.946 680.352C152.402 680.352 151.906 680.48 151.458 680.736C151.01 680.992 150.652 681.365 150.386 681.856C150.119 682.347 149.986 682.923 149.986 683.584C149.986 684.256 150.119 684.843 150.386 685.344C150.652 685.835 151.01 686.213 151.458 686.48C151.906 686.736 152.402 686.864 152.946 686.864C153.49 686.864 153.986 686.736 154.434 686.48C154.892 686.213 155.255 685.835 155.522 685.344C155.788 684.843 155.922 684.261 155.922 683.6ZM164.216 683.584C164.216 682.688 164.397 681.904 164.76 681.232C165.122 680.549 165.618 680.021 166.248 679.648C166.888 679.275 167.597 679.088 168.376 679.088C169.144 679.088 169.81 679.253 170.376 679.584C170.941 679.915 171.362 680.331 171.64 680.832V679.232H173.112V688H171.64V686.368C171.352 686.88 170.92 687.307 170.344 687.648C169.778 687.979 169.117 688.144 168.36 688.144C167.581 688.144 166.877 687.952 166.248 687.568C165.618 687.184 165.122 686.645 164.76 685.952C164.397 685.259 164.216 684.469 164.216 683.584ZM171.64 683.6C171.64 682.939 171.506 682.363 171.24 681.872C170.973 681.381 170.61 681.008 170.152 680.752C169.704 680.485 169.208 680.352 168.664 680.352C168.12 680.352 167.624 680.48 167.176 680.736C166.728 680.992 166.37 681.365 166.104 681.856C165.837 682.347 165.704 682.923 165.704 683.584C165.704 684.256 165.837 684.843 166.104 685.344C166.37 685.835 166.728 686.213 167.176 686.48C167.624 686.736 168.12 686.864 168.664 686.864C169.208 686.864 169.704 686.736 170.152 686.48C170.61 686.213 170.973 685.835 171.24 685.344C171.506 684.843 171.64 684.261 171.64 683.6ZM182.254 680.432V685.6C182.254 686.027 182.345 686.331 182.526 686.512C182.707 686.683 183.022 686.768 183.47 686.768H184.542V688H183.23C182.419 688 181.811 687.813 181.406 687.44C181.001 687.067 180.798 686.453 180.798 685.6V680.432H179.662V679.232H180.798V677.024H182.254V679.232H184.542V680.432H182.254ZM190.45 688.144C189.629 688.144 188.882 687.957 188.21 687.584C187.549 687.211 187.026 686.683 186.642 686C186.269 685.307 186.082 684.507 186.082 683.6C186.082 682.704 186.274 681.915 186.658 681.232C187.053 680.539 187.586 680.011 188.258 679.648C188.93 679.275 189.682 679.088 190.514 679.088C191.346 679.088 192.098 679.275 192.77 679.648C193.442 680.011 193.97 680.533 194.354 681.216C194.749 681.899 194.946 682.693 194.946 683.6C194.946 684.507 194.743 685.307 194.338 686C193.943 686.683 193.405 687.211 192.722 687.584C192.039 687.957 191.282 688.144 190.45 688.144ZM190.45 686.864C190.973 686.864 191.463 686.741 191.922 686.496C192.381 686.251 192.749 685.883 193.026 685.392C193.314 684.901 193.458 684.304 193.458 683.6C193.458 682.896 193.319 682.299 193.042 681.808C192.765 681.317 192.402 680.955 191.954 680.72C191.506 680.475 191.021 680.352 190.498 680.352C189.965 680.352 189.474 680.475 189.026 680.72C188.589 680.955 188.237 681.317 187.97 681.808C187.703 682.299 187.57 682.896 187.57 683.6C187.57 684.315 187.698 684.917 187.954 685.408C188.221 685.899 188.573 686.267 189.01 686.512C189.447 686.747 189.927 686.864 190.45 686.864ZM207.724 679.072C208.407 679.072 209.015 679.216 209.548 679.504C210.082 679.781 210.503 680.203 210.812 680.768C211.122 681.333 211.276 682.021 211.276 682.832V688H209.836V683.04C209.836 682.165 209.618 681.499 209.18 681.04C208.754 680.571 208.172 680.336 207.436 680.336C206.679 680.336 206.076 680.581 205.628 681.072C205.18 681.552 204.956 682.251 204.956 683.168V688H203.516V683.04C203.516 682.165 203.298 681.499 202.86 681.04C202.434 680.571 201.852 680.336 201.116 680.336C200.359 680.336 199.756 680.581 199.308 681.072C198.86 681.552 198.636 682.251 198.636 683.168V688H197.18V679.232H198.636V680.496C198.924 680.037 199.308 679.685 199.788 679.44C200.279 679.195 200.818 679.072 201.404 679.072C202.14 679.072 202.791 679.237 203.356 679.568C203.922 679.899 204.343 680.384 204.62 681.024C204.866 680.405 205.271 679.925 205.836 679.584C206.402 679.243 207.031 679.072 207.724 679.072ZM213.441 683.584C213.441 682.688 213.622 681.904 213.985 681.232C214.347 680.549 214.843 680.021 215.473 679.648C216.113 679.275 216.822 679.088 217.601 679.088C218.369 679.088 219.035 679.253 219.601 679.584C220.166 679.915 220.587 680.331 220.865 680.832V679.232H222.337V688H220.865V686.368C220.577 686.88 220.145 687.307 219.569 687.648C219.003 687.979 218.342 688.144 217.585 688.144C216.806 688.144 216.102 687.952 215.473 687.568C214.843 687.184 214.347 686.645 213.985 685.952C213.622 685.259 213.441 684.469 213.441 683.584ZM220.865 683.6C220.865 682.939 220.731 682.363 220.465 681.872C220.198 681.381 219.835 681.008 219.377 680.752C218.929 680.485 218.433 680.352 217.889 680.352C217.345 680.352 216.849 680.48 216.401 680.736C215.953 680.992 215.595 681.365 215.329 681.856C215.062 682.347 214.929 682.923 214.929 683.584C214.929 684.256 215.062 684.843 215.329 685.344C215.595 685.835 215.953 686.213 216.401 686.48C216.849 686.736 217.345 686.864 217.889 686.864C218.433 686.864 218.929 686.736 219.377 686.48C219.835 686.213 220.198 685.835 220.465 685.344C220.731 684.843 220.865 684.261 220.865 683.6ZM226.573 680.656C226.829 680.155 227.192 679.765 227.661 679.488C228.141 679.211 228.723 679.072 229.405 679.072V680.576H229.021C227.389 680.576 226.573 681.461 226.573 683.232V688H225.117V679.232H226.573V680.656ZM235.448 683.584C235.448 682.688 235.629 681.904 235.992 681.232C236.354 680.549 236.85 680.021 237.48 679.648C238.12 679.275 238.829 679.088 239.608 679.088C240.376 679.088 241.042 679.253 241.608 679.584C242.173 679.915 242.594 680.331 242.872 680.832V679.232H244.344V688H242.872V686.368C242.584 686.88 242.152 687.307 241.576 687.648C241.01 687.979 240.349 688.144 239.592 688.144C238.813 688.144 238.109 687.952 237.48 687.568C236.85 687.184 236.354 686.645 235.992 685.952C235.629 685.259 235.448 684.469 235.448 683.584ZM242.872 683.6C242.872 682.939 242.738 682.363 242.472 681.872C242.205 681.381 241.842 681.008 241.384 680.752C240.936 680.485 240.44 680.352 239.896 680.352C239.352 680.352 238.856 680.48 238.408 680.736C237.96 680.992 237.602 681.365 237.336 681.856C237.069 682.347 236.936 682.923 236.936 683.584C236.936 684.256 237.069 684.843 237.336 685.344C237.602 685.835 237.96 686.213 238.408 686.48C238.856 686.736 239.352 686.864 239.896 686.864C240.44 686.864 240.936 686.736 241.384 686.48C241.842 686.213 242.205 685.835 242.472 685.344C242.738 684.843 242.872 684.261 242.872 683.6ZM246.58 683.6C246.58 682.693 246.762 681.904 247.124 681.232C247.487 680.549 247.988 680.021 248.628 679.648C249.279 679.275 250.02 679.088 250.852 679.088C251.93 679.088 252.815 679.349 253.508 679.872C254.212 680.395 254.676 681.12 254.9 682.048H253.332C253.183 681.515 252.89 681.093 252.452 680.784C252.026 680.475 251.492 680.32 250.852 680.32C250.02 680.32 249.348 680.608 248.836 681.184C248.324 681.749 248.068 682.555 248.068 683.6C248.068 684.656 248.324 685.472 248.836 686.048C249.348 686.624 250.02 686.912 250.852 686.912C251.492 686.912 252.026 686.763 252.452 686.464C252.879 686.165 253.172 685.739 253.332 685.184H254.9C254.666 686.08 254.196 686.8 253.492 687.344C252.788 687.877 251.908 688.144 250.852 688.144C250.02 688.144 249.279 687.957 248.628 687.584C247.988 687.211 247.487 686.683 247.124 686C246.762 685.317 246.58 684.517 246.58 683.6ZM256.619 683.6C256.619 682.693 256.8 681.904 257.163 681.232C257.526 680.549 258.027 680.021 258.667 679.648C259.318 679.275 260.059 679.088 260.891 679.088C261.968 679.088 262.854 679.349 263.547 679.872C264.251 680.395 264.715 681.12 264.939 682.048H263.371C263.222 681.515 262.928 681.093 262.491 680.784C262.064 680.475 261.531 680.32 260.891 680.32C260.059 680.32 259.387 680.608 258.875 681.184C258.363 681.749 258.107 682.555 258.107 683.6C258.107 684.656 258.363 685.472 258.875 686.048C259.387 686.624 260.059 686.912 260.891 686.912C261.531 686.912 262.064 686.763 262.491 686.464C262.918 686.165 263.211 685.739 263.371 685.184H264.939C264.704 686.08 264.235 686.8 263.531 687.344C262.827 687.877 261.947 688.144 260.891 688.144C260.059 688.144 259.318 687.957 258.667 687.584C258.027 687.211 257.526 686.683 257.163 686C256.8 685.317 256.619 684.517 256.619 683.6ZM267.954 677.808C267.676 677.808 267.442 677.712 267.25 677.52C267.058 677.328 266.962 677.093 266.962 676.816C266.962 676.539 267.058 676.304 267.25 676.112C267.442 675.92 267.676 675.824 267.954 675.824C268.22 675.824 268.444 675.92 268.626 676.112C268.818 676.304 268.914 676.539 268.914 676.816C268.914 677.093 268.818 677.328 268.626 677.52C268.444 677.712 268.22 677.808 267.954 677.808ZM268.658 679.232V688H267.202V679.232H268.658ZM275.283 688.144C274.462 688.144 273.715 687.957 273.043 687.584C272.382 687.211 271.859 686.683 271.475 686C271.102 685.307 270.915 684.507 270.915 683.6C270.915 682.704 271.107 681.915 271.491 681.232C271.886 680.539 272.419 680.011 273.091 679.648C273.763 679.275 274.515 679.088 275.347 679.088C276.179 679.088 276.931 679.275 277.603 679.648C278.275 680.011 278.803 680.533 279.187 681.216C279.582 681.899 279.779 682.693 279.779 683.6C279.779 684.507 279.577 685.307 279.171 686C278.777 686.683 278.238 687.211 277.555 687.584C276.873 687.957 276.115 688.144 275.283 688.144ZM275.283 686.864C275.806 686.864 276.297 686.741 276.755 686.496C277.214 686.251 277.582 685.883 277.859 685.392C278.147 684.901 278.291 684.304 278.291 683.6C278.291 682.896 278.153 682.299 277.875 681.808C277.598 681.317 277.235 680.955 276.787 680.72C276.339 680.475 275.854 680.352 275.331 680.352C274.798 680.352 274.307 680.475 273.859 680.72C273.422 680.955 273.07 681.317 272.803 681.808C272.537 682.299 272.403 682.896 272.403 683.6C272.403 684.315 272.531 684.917 272.787 685.408C273.054 685.899 273.406 686.267 273.843 686.512C274.281 686.747 274.761 686.864 275.283 686.864ZM276.915 676.64L273.507 678.464V677.376L276.915 675.376V676.64ZM286.286 679.072C287.352 679.072 288.216 679.397 288.878 680.048C289.539 680.688 289.87 681.616 289.87 682.832V688H288.43V683.04C288.43 682.165 288.211 681.499 287.774 681.04C287.336 680.571 286.739 680.336 285.982 680.336C285.214 680.336 284.6 680.576 284.142 681.056C283.694 681.536 283.47 682.235 283.47 683.152V688H282.014V679.232H283.47V680.48C283.758 680.032 284.147 679.685 284.638 679.44C285.139 679.195 285.688 679.072 286.286 679.072Z" fill="#776557"/>
</g>
<defs>
<clipPath id="clip0_352:8409">
<rect width="375" height="812" fill="white"/>
</clipPath>
</defs>
</svg>
