<svg width="74" height="43" viewBox="0 0 74 43" fill="none" xmlns="http://www.w3.org/2000/svg">
<path d="M44.3043 19.7826V25" stroke="#236348" stroke-width="2" stroke-miterlimit="10" stroke-linecap="round" stroke-linejoin="round"/>
<path d="M42.7391 18.2174L44.3044 19.7826L45.8696 18.2174" stroke="#236348" stroke-width="2" stroke-miterlimit="10" stroke-linecap="round" stroke-linejoin="round"/>
<path d="M35.9565 20.8261V25" stroke="#236348" stroke-width="2" stroke-miterlimit="10" stroke-linecap="round" stroke-linejoin="round"/>
<path d="M34.3914 19.2609L35.9566 20.8261L37.5218 19.2609" stroke="#236348" stroke-width="2" stroke-miterlimit="10" stroke-linecap="round" stroke-linejoin="round"/>
<path d="M35.9566 22.913C39.7025 22.913 42.7392 19.8764 42.7392 16.1304C42.7392 12.3845 39.7025 9.34783 35.9566 9.34783C32.2106 9.34783 29.174 12.3845 29.174 16.1304C29.174 19.8764 32.2106 22.913 35.9566 22.913Z" stroke="#236348" stroke-width="2" stroke-miterlimit="10" stroke-linecap="round" stroke-linejoin="round"/>
<path d="M39.6086 21.8174V21.8696H48.9999L44.3043 3.08696L41.8521 12.7913" stroke="#236348" stroke-width="2" stroke-miterlimit="10" stroke-linecap="round" stroke-linejoin="round"/>
<path d="M34.913 4.13043C34.7043 4.13043 34.5478 4.18261 34.3913 4.23478C34.3913 4.18261 34.3913 4.18261 34.3913 4.13043C34.3913 2.4087 32.9826 1 31.2609 1C29.8 1 28.5478 2.04348 28.2348 3.4C27.9217 3.19131 27.5043 3.08696 27.087 3.08696C25.9391 3.08696 25 4.02609 25 5.17391C25 6.32174 25.9391 7.26087 27.087 7.26087H34.913C35.8 7.26087 36.4783 6.58261 36.4783 5.69565C36.4783 4.8087 35.8 4.13043 34.913 4.13043Z" stroke="#236348" stroke-width="2" stroke-miterlimit="10" stroke-linecap="round" stroke-linejoin="round"/>
<path d="M0.860688 33.812C0.860688 32.996 1.04469 32.264 1.41269 31.616C1.78069 30.96 2.28069 30.448 2.91269 30.08C3.55269 29.712 4.26069 29.528 5.03669 29.528C5.94869 29.528 6.74469 29.748 7.42469 30.188C8.10469 30.628 8.60069 31.252 8.91269 32.06H7.60469C7.37269 31.556 7.03669 31.168 6.59669 30.896C6.16469 30.624 5.64469 30.488 5.03669 30.488C4.45269 30.488 3.92869 30.624 3.46469 30.896C3.00069 31.168 2.63669 31.556 2.37269 32.06C2.10869 32.556 1.97669 33.14 1.97669 33.812C1.97669 34.476 2.10869 35.06 2.37269 35.564C2.63669 36.06 3.00069 36.444 3.46469 36.716C3.92869 36.988 4.45269 37.124 5.03669 37.124C5.64469 37.124 6.16469 36.992 6.59669 36.728C7.03669 36.456 7.37269 36.068 7.60469 35.564H8.91269C8.60069 36.364 8.10469 36.984 7.42469 37.424C6.74469 37.856 5.94869 38.072 5.03669 38.072C4.26069 38.072 3.55269 37.892 2.91269 37.532C2.28069 37.164 1.78069 36.656 1.41269 36.008C1.04469 35.36 0.860688 34.628 0.860688 33.812ZM13.6462 38.108C13.0302 38.108 12.4702 37.968 11.9662 37.688C11.4702 37.408 11.0782 37.012 10.7902 36.5C10.5102 35.98 10.3702 35.38 10.3702 34.7C10.3702 34.028 10.5142 33.436 10.8022 32.924C11.0982 32.404 11.4982 32.008 12.0022 31.736C12.5062 31.456 13.0702 31.316 13.6942 31.316C14.3182 31.316 14.8822 31.456 15.3862 31.736C15.8902 32.008 16.2862 32.4 16.5742 32.912C16.8702 33.424 17.0182 34.02 17.0182 34.7C17.0182 35.38 16.8662 35.98 16.5622 36.5C16.2662 37.012 15.8622 37.408 15.3502 37.688C14.8382 37.968 14.2702 38.108 13.6462 38.108ZM13.6462 37.148C14.0382 37.148 14.4062 37.056 14.7502 36.872C15.0942 36.688 15.3702 36.412 15.5782 36.044C15.7942 35.676 15.9022 35.228 15.9022 34.7C15.9022 34.172 15.7982 33.724 15.5902 33.356C15.3822 32.988 15.1102 32.716 14.7742 32.54C14.4382 32.356 14.0742 32.264 13.6822 32.264C13.2822 32.264 12.9142 32.356 12.5782 32.54C12.2502 32.716 11.9862 32.988 11.7862 33.356C11.5862 33.724 11.4862 34.172 11.4862 34.7C11.4862 35.236 11.5822 35.688 11.7742 36.056C11.9742 36.424 12.2382 36.7 12.5662 36.884C12.8942 37.06 13.2542 37.148 13.6462 37.148ZM26.602 31.304C27.114 31.304 27.57 31.412 27.97 31.628C28.37 31.836 28.686 32.152 28.918 32.576C29.15 33 29.266 33.516 29.266 34.124V38H28.186V34.28C28.186 33.624 28.022 33.124 27.694 32.78C27.374 32.428 26.938 32.252 26.386 32.252C25.818 32.252 25.366 32.436 25.03 32.804C24.694 33.164 24.526 33.688 24.526 34.376V38H23.446V34.28C23.446 33.624 23.282 33.124 22.954 32.78C22.634 32.428 22.198 32.252 21.646 32.252C21.078 32.252 20.626 32.436 20.29 32.804C19.954 33.164 19.786 33.688 19.786 34.376V38H18.694V31.424H19.786V32.372C20.002 32.028 20.29 31.764 20.65 31.58C21.018 31.396 21.422 31.304 21.862 31.304C22.414 31.304 22.902 31.428 23.326 31.676C23.75 31.924 24.066 32.288 24.274 32.768C24.458 32.304 24.762 31.944 25.186 31.688C25.61 31.432 26.082 31.304 26.602 31.304ZM32.3893 32.636C32.6053 32.26 32.9253 31.948 33.3493 31.7C33.7813 31.444 34.2813 31.316 34.8493 31.316C35.4333 31.316 35.9613 31.456 36.4333 31.736C36.9133 32.016 37.2893 32.412 37.5613 32.924C37.8333 33.428 37.9693 34.016 37.9693 34.688C37.9693 35.352 37.8333 35.944 37.5613 36.464C37.2893 36.984 36.9133 37.388 36.4333 37.676C35.9613 37.964 35.4333 38.108 34.8493 38.108C34.2893 38.108 33.7933 37.984 33.3613 37.736C32.9373 37.48 32.6133 37.164 32.3893 36.788V41.12H31.2973V31.424H32.3893V32.636ZM36.8533 34.688C36.8533 34.192 36.7533 33.76 36.5533 33.392C36.3533 33.024 36.0813 32.744 35.7373 32.552C35.4013 32.36 35.0293 32.264 34.6213 32.264C34.2213 32.264 33.8493 32.364 33.5053 32.564C33.1693 32.756 32.8973 33.04 32.6893 33.416C32.4893 33.784 32.3893 34.212 32.3893 34.7C32.3893 35.196 32.4893 35.632 32.6893 36.008C32.8973 36.376 33.1693 36.66 33.5053 36.86C33.8493 37.052 34.2213 37.148 34.6213 37.148C35.0293 37.148 35.4013 37.052 35.7373 36.86C36.0813 36.66 36.3533 36.376 36.5533 36.008C36.7533 35.632 36.8533 35.192 36.8533 34.688ZM45.6467 34.46C45.6467 34.668 45.6347 34.888 45.6107 35.12H40.3547C40.3947 35.768 40.6147 36.276 41.0147 36.644C41.4227 37.004 41.9147 37.184 42.4907 37.184C42.9627 37.184 43.3547 37.076 43.6667 36.86C43.9867 36.636 44.2107 36.34 44.3387 35.972H45.5147C45.3387 36.604 44.9867 37.12 44.4587 37.52C43.9307 37.912 43.2747 38.108 42.4907 38.108C41.8667 38.108 41.3067 37.968 40.8107 37.688C40.3227 37.408 39.9387 37.012 39.6587 36.5C39.3787 35.98 39.2387 35.38 39.2387 34.7C39.2387 34.02 39.3747 33.424 39.6467 32.912C39.9187 32.4 40.2987 32.008 40.7867 31.736C41.2827 31.456 41.8507 31.316 42.4907 31.316C43.1147 31.316 43.6667 31.452 44.1467 31.724C44.6267 31.996 44.9947 32.372 45.2507 32.852C45.5147 33.324 45.6467 33.86 45.6467 34.46ZM44.5187 34.232C44.5187 33.816 44.4267 33.46 44.2427 33.164C44.0587 32.86 43.8067 32.632 43.4867 32.48C43.1747 32.32 42.8267 32.24 42.4427 32.24C41.8907 32.24 41.4187 32.416 41.0267 32.768C40.6427 33.12 40.4227 33.608 40.3667 34.232H44.5187ZM50.5321 31.304C51.3321 31.304 51.9801 31.548 52.4761 32.036C52.9721 32.516 53.2201 33.212 53.2201 34.124V38H52.1401V34.28C52.1401 33.624 51.9761 33.124 51.6481 32.78C51.3201 32.428 50.8721 32.252 50.3041 32.252C49.7281 32.252 49.2681 32.432 48.9241 32.792C48.5881 33.152 48.4201 33.676 48.4201 34.364V38H47.3281V31.424H48.4201V32.36C48.6361 32.024 48.9281 31.764 49.2961 31.58C49.6721 31.396 50.0841 31.304 50.5321 31.304ZM57.5718 38.108C57.0678 38.108 56.6158 38.024 56.2158 37.856C55.8158 37.68 55.4998 37.44 55.2678 37.136C55.0358 36.824 54.9078 36.468 54.8838 36.068H56.0118C56.0438 36.396 56.1958 36.664 56.4678 36.872C56.7478 37.08 57.1118 37.184 57.5598 37.184C57.9758 37.184 58.3038 37.092 58.5438 36.908C58.7838 36.724 58.9038 36.492 58.9038 36.212C58.9038 35.924 58.7758 35.712 58.5198 35.576C58.2638 35.432 57.8678 35.292 57.3318 35.156C56.8438 35.028 56.4438 34.9 56.1318 34.772C55.8278 34.636 55.5638 34.44 55.3398 34.184C55.1238 33.92 55.0158 33.576 55.0158 33.152C55.0158 32.816 55.1158 32.508 55.3158 32.228C55.5158 31.948 55.7998 31.728 56.1678 31.568C56.5358 31.4 56.9558 31.316 57.4278 31.316C58.1558 31.316 58.7438 31.5 59.1918 31.868C59.6398 32.236 59.8798 32.74 59.9118 33.38H58.8198C58.7958 33.036 58.6558 32.76 58.3998 32.552C58.1518 32.344 57.8158 32.24 57.3918 32.24C56.9998 32.24 56.6878 32.324 56.4558 32.492C56.2238 32.66 56.1078 32.88 56.1078 33.152C56.1078 33.368 56.1758 33.548 56.3118 33.692C56.4558 33.828 56.6318 33.94 56.8398 34.028C57.0558 34.108 57.3518 34.2 57.7278 34.304C58.1998 34.432 58.5838 34.56 58.8798 34.688C59.1758 34.808 59.4278 34.992 59.6358 35.24C59.8518 35.488 59.9638 35.812 59.9718 36.212C59.9718 36.572 59.8718 36.896 59.6718 37.184C59.4718 37.472 59.1878 37.7 58.8198 37.868C58.4598 38.028 58.0438 38.108 57.5718 38.108ZM61.3454 34.688C61.3454 34.016 61.4814 33.428 61.7534 32.924C62.0254 32.412 62.3974 32.016 62.8694 31.736C63.3494 31.456 63.8814 31.316 64.4654 31.316C65.0414 31.316 65.5414 31.44 65.9654 31.688C66.3894 31.936 66.7054 32.248 66.9134 32.624V31.424H68.0174V38H66.9134V36.776C66.6974 37.16 66.3734 37.48 65.9414 37.736C65.5174 37.984 65.0214 38.108 64.4534 38.108C63.8694 38.108 63.3414 37.964 62.8694 37.676C62.3974 37.388 62.0254 36.984 61.7534 36.464C61.4814 35.944 61.3454 35.352 61.3454 34.688ZM66.9134 34.7C66.9134 34.204 66.8134 33.772 66.6134 33.404C66.4134 33.036 66.1414 32.756 65.7974 32.564C65.4614 32.364 65.0894 32.264 64.6814 32.264C64.2734 32.264 63.9014 32.36 63.5654 32.552C63.2294 32.744 62.9614 33.024 62.7614 33.392C62.5614 33.76 62.4614 34.192 62.4614 34.688C62.4614 35.192 62.5614 35.632 62.7614 36.008C62.9614 36.376 63.2294 36.66 63.5654 36.86C63.9014 37.052 64.2734 37.148 64.6814 37.148C65.0894 37.148 65.4614 37.052 65.7974 36.86C66.1414 36.66 66.4134 36.376 66.6134 36.008C66.8134 35.632 66.9134 35.196 66.9134 34.7ZM71.1947 32.492C71.3867 32.116 71.6587 31.824 72.0107 31.616C72.3707 31.408 72.8067 31.304 73.3187 31.304V32.432H73.0307C71.8067 32.432 71.1947 33.096 71.1947 34.424V38H70.1027V31.424H71.1947V32.492Z" fill="#236348"/>
</svg>
