<svg width="312" height="150" viewBox="0 0 312 150" fill="none" xmlns="http://www.w3.org/2000/svg">
<path d="M229.884 147.101H279.205L285.058 88.8861H224.03L229.884 147.101Z" fill="#DBE5E5"/>
<path d="M228.121 92.6724H280.969C283.228 92.6724 285.059 90.8375 285.059 88.574V66.9344C285.059 64.671 283.228 62.8361 280.969 62.8361L228.121 62.8361C225.862 62.8361 224.031 64.671 224.031 66.9344V88.574C224.031 90.8375 225.862 92.6724 228.121 92.6724Z" fill="#DBE5E5"/>
<path d="M223.748 88.5741C223.748 90.8369 225.598 92.6686 227.875 92.6686H281.215C283.494 92.6686 285.342 90.8338 285.342 88.5741" stroke="white" stroke-width="6" stroke-linecap="round" stroke-linejoin="round"/>
<path d="M223.748 90.9689C223.748 93.2316 225.598 95.0633 227.875 95.0633H281.215C283.494 95.0633 285.342 93.2286 285.342 90.9689" stroke="white" stroke-width="6" stroke-linecap="round" stroke-linejoin="round"/>
<path d="M231.579 89.0406H277.51C279.769 89.0406 281.6 87.2058 281.6 84.9423V70.4696C281.6 68.2061 279.769 66.3712 277.51 66.3712H231.579C229.32 66.3712 227.489 68.2061 227.489 70.4696V84.9423C227.489 87.2058 229.32 89.0406 231.579 89.0406Z" fill="#423C52"/>
<path d="M260.271 107.199V119.763L259.15 119.181L258.036 119.756L256.922 119.181L255.809 119.756L254.695 119.181L253.581 119.756L252.467 119.181L251.354 119.756L250.24 119.181L249.119 119.763V104.332H257.411V107.199H260.271Z" stroke="white" stroke-width="7" stroke-linecap="round" stroke-linejoin="round"/>
<path d="M260.271 106.972V107.199H257.411V104.332H257.637L260.271 106.972Z" stroke="white" stroke-width="7" stroke-linecap="round" stroke-linejoin="round"/>
<path d="M260.271 107.199H257.411V104.332L260.271 107.199Z" fill="white"/>
<path d="M168.6 147.101H218.005L223.869 88.8861H162.737L168.6 147.101Z" fill="#FFDB00"/>
<path d="M166.879 92.6724H219.728C221.986 92.6724 223.817 90.8375 223.817 88.574V66.9344C223.817 64.671 221.986 62.8361 219.728 62.8361L166.879 62.8361C164.621 62.8361 162.79 64.671 162.79 66.9344V88.574C162.79 90.8375 164.621 92.6724 166.879 92.6724Z" fill="white" stroke="#FFDB00" stroke-width="5" stroke-miterlimit="10"/>
<path d="M162.789 90.9689C162.789 91.5069 162.895 92.0396 163.1 92.5366C163.306 93.0337 163.607 93.4852 163.987 93.8655C164.367 94.2457 164.818 94.5472 165.314 94.7528C165.81 94.9583 166.342 95.0638 166.879 95.0633H219.728C220.811 95.0633 221.851 94.6319 222.617 93.8641C223.383 93.0962 223.813 92.0548 223.813 90.9689" stroke="white" stroke-width="5" stroke-miterlimit="10"/>
<path d="M170.338 89.0406H216.269C218.527 89.0406 220.358 87.2058 220.358 84.9423V70.4696C220.358 68.2061 218.527 66.3712 216.269 66.3712H170.338C168.079 66.3712 166.248 68.2061 166.248 70.4696V84.9423C166.248 87.2058 168.079 89.0406 170.338 89.0406Z" fill="#423C52"/>
<path d="M197.752 106.386V105.544C197.752 104.925 197.507 104.331 197.07 103.894C196.633 103.456 196.041 103.21 195.423 103.21H194.506V101.251C194.506 101.233 194.506 101.216 194.506 101.198C194.506 100.637 193.868 100.182 193.08 100.182C192.292 100.182 191.654 100.637 191.654 101.198C191.654 101.216 191.654 101.233 191.654 101.251V103.21H190.737C190.119 103.21 189.527 103.456 189.09 103.894C188.653 104.331 188.408 104.925 188.408 105.544V106.386C188.408 106.74 188.548 107.08 188.798 107.33C189.048 107.581 189.387 107.721 189.74 107.721H189.33C189.085 107.721 188.85 107.819 188.676 107.993C188.503 108.167 188.405 108.403 188.405 108.649V110.143C188.405 110.389 188.503 110.625 188.676 110.799C188.85 110.973 189.085 111.07 189.33 111.07H196.824C197.069 111.07 197.305 110.973 197.478 110.799C197.652 110.625 197.749 110.389 197.749 110.143V108.649C197.749 108.403 197.652 108.167 197.478 107.993C197.305 107.819 197.069 107.721 196.824 107.721H196.423C196.775 107.721 197.114 107.58 197.363 107.329C197.612 107.079 197.752 106.739 197.752 106.386ZM193.08 102.04C192.526 102.04 192.078 101.713 192.078 101.31C192.078 100.907 192.527 100.581 193.08 100.581C193.633 100.581 194.082 100.908 194.082 101.31C194.082 101.713 193.635 102.04 193.08 102.04Z" fill="white"/>
<path d="M197.752 112.37V123.087C197.753 123.164 197.738 123.241 197.709 123.313C197.68 123.385 197.637 123.451 197.582 123.506C197.528 123.561 197.463 123.605 197.392 123.636C197.32 123.666 197.244 123.682 197.166 123.682H196.469C196.358 123.682 196.25 123.65 196.157 123.59C196.064 123.531 195.989 123.446 195.942 123.346C195.931 123.309 195.917 123.274 195.904 123.238C195.819 123.054 195.682 122.898 195.511 122.79C195.339 122.682 195.14 122.626 194.938 122.629C194.735 122.632 194.538 122.694 194.369 122.807C194.201 122.92 194.069 123.079 193.989 123.266V123.273C193.985 123.286 193.98 123.298 193.975 123.311C193.975 123.314 193.975 123.318 193.975 123.321C193.931 123.428 193.856 123.52 193.76 123.585C193.664 123.65 193.551 123.684 193.435 123.684H192.741C192.628 123.684 192.517 123.651 192.422 123.588C192.327 123.526 192.253 123.437 192.207 123.333C192.199 123.307 192.19 123.284 192.18 123.256C192.099 123.069 191.965 122.911 191.795 122.799C191.625 122.688 191.427 122.628 191.224 122.628C191.021 122.627 190.822 122.686 190.652 122.797C190.481 122.907 190.347 123.065 190.265 123.251C190.253 123.276 190.243 123.302 190.235 123.328C190.207 123.393 190.166 123.452 190.117 123.503C190.063 123.558 189.998 123.602 189.927 123.632C189.856 123.661 189.78 123.677 189.703 123.677H189.009C188.852 123.676 188.703 123.612 188.593 123.5C188.483 123.389 188.422 123.238 188.423 123.081V112.37C188.423 112.025 188.559 111.695 188.802 111.452C189.045 111.208 189.375 111.071 189.719 111.071H196.472C196.813 111.075 197.138 111.214 197.378 111.457C197.618 111.7 197.752 112.028 197.752 112.37Z" fill="white"/>
<path d="M193.08 104.803C192.203 104.803 191.461 104.417 191.279 103.857L191.269 103.828V103.122H191.654V103.761C191.801 104.135 192.406 104.414 193.08 104.414C193.755 104.414 194.36 104.135 194.506 103.761V102.981H194.892V103.826L194.883 103.855C194.699 104.413 193.956 104.803 193.08 104.803Z" fill="#FFDB00"/>
<path d="M197.194 107.912H188.97C188.919 107.912 188.87 107.891 188.834 107.855C188.798 107.819 188.777 107.77 188.777 107.718C188.777 107.667 188.798 107.618 188.834 107.582C188.87 107.546 188.919 107.525 188.97 107.525H197.194C197.245 107.525 197.294 107.546 197.33 107.582C197.366 107.618 197.387 107.667 197.387 107.718C197.387 107.77 197.366 107.819 197.33 107.855C197.294 107.891 197.245 107.912 197.194 107.912Z" fill="#FFDB00"/>
<path d="M197.194 111.388H188.97C188.919 111.388 188.87 111.368 188.834 111.331C188.798 111.295 188.777 111.246 188.777 111.195C188.777 111.144 188.798 111.094 188.834 111.058C188.87 111.022 188.919 111.002 188.97 111.002H197.194C197.245 111.002 197.294 111.022 197.33 111.058C197.366 111.094 197.387 111.144 197.387 111.195C197.387 111.246 197.366 111.295 197.33 111.331C197.294 111.368 197.245 111.388 197.194 111.388Z" fill="#FFDB00"/>
<path d="M106.876 147.101L101.022 88.8861H162.05L156.197 147.101" stroke="#DBE5E5" stroke-width="6" stroke-miterlimit="10"/>
<path d="M161.794 90.9689C161.794 93.2316 159.979 95.0633 157.739 95.0633H105.334C103.095 95.0633 101.279 93.2286 101.279 90.9689" stroke="#DBE5E5" stroke-width="6" stroke-miterlimit="10"/>
<path d="M157.96 62.8353H105.112C102.853 62.8353 101.022 64.6702 101.022 66.9337V88.5733C101.022 90.8367 102.853 92.6716 105.112 92.6716H157.96C160.219 92.6716 162.05 90.8367 162.05 88.5733V66.9337C162.05 64.6702 160.219 62.8353 157.96 62.8353Z" fill="white" stroke="#DBE5E5" stroke-width="6" stroke-miterlimit="10"/>
<path d="M154.502 66.3721H108.571C106.312 66.3721 104.481 68.207 104.481 70.4704V84.9432C104.481 87.2066 106.312 89.0415 108.571 89.0415H154.502C156.761 89.0415 158.592 87.2066 158.592 84.9432V70.4704C158.592 68.207 156.761 66.3721 154.502 66.3721Z" fill="#423C52"/>
<path d="M133.339 104.639V112.982C133.339 114.191 131.82 115.17 129.947 115.17C128.073 115.17 126.555 114.191 126.555 112.982V104.639C126.555 105.847 128.073 106.826 129.947 106.826C131.821 106.826 133.339 105.847 133.339 104.639Z" fill="#DBE5E5"/>
<path d="M133.085 104.624V104.639C133.085 105.847 131.68 106.826 129.947 106.826C128.214 106.826 126.81 105.847 126.81 104.639V104.624C126.821 103.423 128.221 102.452 129.947 102.452C131.673 102.452 133.073 103.423 133.085 104.624Z" stroke="#DBE5E5" stroke-width="6" stroke-miterlimit="10"/>
<path d="M129.946 115.17V121.644" stroke="#DBE5E5" stroke-width="6" stroke-miterlimit="10"/>
<path d="M132.299 121.644H127.593" stroke="#DBE5E5" stroke-width="6" stroke-miterlimit="10"/>
<path d="M95.2131 147.101H45.6827L39.8047 88.8861H101.09L95.2131 147.101Z" fill="#FE552F"/>
<path d="M96.8715 62.8353H44.0232C41.7646 62.8353 39.9336 64.6702 39.9336 66.9337V88.5733C39.9336 90.8367 41.7646 92.6716 44.0232 92.6716H96.8715C99.1301 92.6716 100.961 90.8367 100.961 88.5733V66.9337C100.961 64.6702 99.1301 62.8353 96.8715 62.8353Z" fill="white" stroke="#FE552F" stroke-width="5" stroke-miterlimit="10"/>
<path d="M101.206 90.9689C101.206 93.2316 99.36 95.0633 97.0836 95.0633H43.8151C41.5379 95.0633 39.6924 93.2286 39.6924 90.9689" stroke="white" stroke-width="6" stroke-linecap="round" stroke-linejoin="round"/>
<path d="M93.4123 66.3721H47.4812C45.2226 66.3721 43.3916 68.207 43.3916 70.4704V84.9432C43.3916 87.2066 45.2226 89.0415 47.4812 89.0415H93.4123C95.6709 89.0415 97.5019 87.2066 97.5019 84.9432V70.4704C97.5019 68.207 95.6709 66.3721 93.4123 66.3721Z" fill="#423C52"/>
<path d="M76.1636 110.709C76.1636 113.376 74.4122 115.538 72.2514 115.538C71.9937 115.538 71.737 115.507 71.4866 115.446C70.7586 115.268 69.9984 115.268 69.2703 115.446C69.0195 115.507 68.7622 115.538 68.5041 115.538C66.3456 115.538 64.5918 113.375 64.5918 110.709C64.5918 108.043 66.3425 105.879 68.5041 105.879C69.1734 105.882 69.8264 106.087 70.3781 106.467C70.9297 106.087 71.5823 105.883 72.2514 105.879C74.4099 105.879 76.1636 108.041 76.1636 110.709Z" fill="white"/>
<path d="M70.376 106.467V103.34" stroke="white" stroke-width="7" stroke-linecap="round" stroke-linejoin="round"/>
<path d="M73.901 102.759C73.8829 103.171 73.7706 103.574 73.5727 103.935C73.3749 104.296 73.0968 104.608 72.7598 104.844C72.4229 105.081 72.0363 105.237 71.6297 105.3C71.2231 105.363 70.8075 105.331 70.415 105.208C70.4339 104.796 70.5468 104.394 70.7449 104.033C70.943 103.673 71.2212 103.362 71.5579 103.126C71.8947 102.889 72.281 102.734 72.6872 102.671C73.0934 102.608 73.5087 102.639 73.901 102.762V102.759Z" fill="white"/>
<path d="M297.904 147.445H223.096C223.096 147.445 225.842 138.18 236.222 137.766C246.602 137.352 258.537 144.086 258.537 144.086C258.537 144.086 260.432 121.975 278.268 120.731C296.104 119.487 297.904 147.445 297.904 147.445Z" fill="#B59B00"/>
<path d="M311.598 141.876C309.2 145.31 305.56 147.445 305.56 147.445H267.864C263.639 138.802 263.817 127.295 264.719 122.433C264.992 120.96 266.833 120.424 267.837 121.537C273.898 128.24 279.762 142.676 279.762 142.676C281.149 127.161 289.38 112.743 293.834 105.945C295.005 104.155 297.752 104.639 298.238 106.723C301.458 120.534 295.283 133.691 295.052 134.178C297.707 129.007 302.168 125.179 305.196 123.004C306.597 122 308.538 123.066 308.444 124.791C308.059 131.907 305.177 137.738 302.498 141.701C304.693 140.156 307.162 139.169 309.204 138.548C311.175 137.949 312.779 140.185 311.598 141.876Z" fill="#907B00"/>
<path d="M296.224 105.102C296.224 105.102 292.664 130.486 285.068 147.177" stroke="#B59B00" stroke-width="5" stroke-miterlimit="10" stroke-linecap="round"/>
<path d="M307.263 123.24C307.263 123.24 297.242 143.692 290.193 147.177" stroke="#B59B00" stroke-width="5" stroke-miterlimit="10" stroke-linecap="round"/>
<path d="M266.315 121.548C266.315 121.548 270.158 141.033 274.734 147.177" stroke="#B59B00" stroke-width="5" stroke-miterlimit="10" stroke-linecap="round"/>
<path d="M304.884 115.366C305.872 115.366 306.673 114.563 306.673 113.573C306.673 112.582 305.872 111.78 304.884 111.78C303.896 111.78 303.095 112.582 303.095 113.573C303.095 114.563 303.896 115.366 304.884 115.366Z" stroke="#B59B00" stroke-width="5" stroke-miterlimit="10"/>
<path d="M256.071 136.666C256.914 136.666 257.598 135.981 257.598 135.137C257.598 134.292 256.914 133.607 256.071 133.607C255.228 133.607 254.545 134.292 254.545 135.137C254.545 135.981 255.228 136.666 256.071 136.666Z" stroke="#B59B00" stroke-width="5" stroke-miterlimit="10"/>
<path d="M291.236 110.582L293.891 117.51L298.772 111.78" stroke="#B59B00" stroke-width="5" stroke-miterlimit="10" stroke-linecap="round"/>
<path d="M289.146 114.39L292.538 123.24L298.773 115.92" stroke="#B59B00" stroke-width="5" stroke-miterlimit="10" stroke-linecap="round"/>
<path d="M297.17 131.366V140.397H302.869" stroke="#B59B00" stroke-width="5" stroke-miterlimit="10" stroke-linecap="round"/>
<path d="M275.072 133.681L272.951 144.087L265.145 135.881" stroke="#B59B00" stroke-width="5" stroke-miterlimit="10" stroke-linecap="round"/>
<path d="M82.0788 142.861C88.425 142.861 93.5697 137.706 93.5697 131.346C93.5697 124.986 88.425 119.83 82.0788 119.83C75.7325 119.83 70.5879 124.986 70.5879 131.346C70.5879 137.706 75.7325 142.861 82.0788 142.861Z" fill="#907B00"/>
<path d="M75.9141 134.865L89.1225 122.704" stroke="#B59B00" stroke-width="5" stroke-miterlimit="10" stroke-linecap="round"/>
<path d="M84.6278 120.499L83.6904 127.705" stroke="#B59B00" stroke-width="5" stroke-miterlimit="10" stroke-linecap="round"/>
<path d="M81.6123 129.618L92.535 127.232" stroke="#B59B00" stroke-width="5" stroke-miterlimit="10" stroke-linecap="round"/>
<path d="M90.7637 124.319L89.457 127.905" stroke="#B59B00" stroke-width="5" stroke-miterlimit="10" stroke-linecap="round"/>
<path d="M77.9861 120.883L77.4434 133.456" stroke="#B59B00" stroke-width="5" stroke-miterlimit="10" stroke-linecap="round"/>
<path d="M75.4482 122.186L77.7131 127.203" stroke="#B59B00" stroke-width="5" stroke-miterlimit="10" stroke-linecap="round"/>
<path d="M93.1594 131.842L80.6348 138.615" stroke="#B59B00" stroke-width="5" stroke-miterlimit="10" stroke-linecap="round"/>
<path d="M115.731 147.117H0C0.248997 145.314 2.02975 137.479 14.1959 138.106C14.1959 138.106 16.7931 113.317 42.2424 111.797C73.1967 109.943 81.0452 138.802 81.0452 138.802C81.0452 138.802 109.958 131.66 115.731 147.117Z" fill="#B59B00"/>
<path d="M31.9397 147.117C31.9397 147.117 21.1342 135.824 31.3045 130.662C38.7852 126.863 39.8321 145.303 39.8321 145.303C39.8321 145.303 39.7419 135.938 42.7353 136.302C45.7286 136.665 42.7353 146.398 42.7353 146.398C42.7353 146.398 48.9024 141.299 51.1726 143.939C53.4429 146.579 45.4573 147.121 45.4573 147.121L31.9397 147.117Z" fill="#907B00"/>
<path d="M261.948 43.1078C261.122 43.1078 260.322 43.3988 259.688 43.9299C259.054 44.461 258.626 45.1984 258.479 46.0133L253.7 72.5733C253.595 73.0745 253.603 73.593 253.723 74.0907C253.844 74.5885 254.073 75.0532 254.395 75.4508C254.717 75.8485 255.124 76.1691 255.585 76.3894C256.047 76.6096 256.551 76.724 257.062 76.7241H244.924C244.413 76.724 243.908 76.6096 243.447 76.3894C242.986 76.1691 242.579 75.8485 242.257 75.4508C241.935 75.0532 241.705 74.5885 241.585 74.0907C241.465 73.593 241.457 73.0745 241.561 72.5733L246.341 46.0133C246.488 45.1984 246.915 44.461 247.549 43.9299C248.184 43.3988 248.984 43.1078 249.81 43.1078H261.948Z" fill="#FFDB00"/>
<path d="M259.589 45.2972C259.869 43.8402 261.327 43.1078 262.78 43.1078H261.949C261.122 43.1078 260.322 43.3988 259.688 43.9299C259.054 44.461 258.626 45.1984 258.48 46.0133L253.7 72.5733C253.595 73.0745 253.603 73.593 253.723 74.0907C253.844 74.5885 254.073 75.0532 254.396 75.4508C254.718 75.8485 255.124 76.1691 255.586 76.3894C256.047 76.6096 256.552 76.724 257.063 76.7241H261.048C261.559 76.724 262.063 76.6096 262.525 76.3894C262.986 76.1691 263.393 75.8485 263.715 75.4508C264.037 75.0532 264.266 74.5885 264.387 74.0907C264.507 73.593 264.515 73.0745 264.41 72.5733L259.589 45.2972Z" fill="#EB7500"/>
<path d="M259.105 44.2202V72.1089L262.95 76.1485" stroke="#FFDB00" stroke-width="5" stroke-miterlimit="10"/>
<path d="M255.223 76.2605L259.106 72.1089" stroke="#FFDB00" stroke-width="5" stroke-miterlimit="10"/>
<path d="M276.21 50.382C275.495 50.4978 275.323 47.9098 275.323 47.9098C274.784 39.8963 278.248 34.3039 279.174 33.1798C279.75 32.4938 280.301 32.0534 280.785 32.14C281.967 32.3524 282.454 36.9212 281.159 41.9404C280.228 45.5489 277.502 50.1734 276.21 50.382Z" fill="#423C52"/>
<path d="M276.171 50.1587L297.228 64.7636C299.575 66.1542 304.256 58.6342 304.022 50.5674C303.787 42.5005 300.851 36.0737 296.621 35.2332L280.784 32.3501C280.784 32.3501 282.741 36.2089 280.756 42.3931C278.738 48.6901 276.171 50.1587 276.171 50.1587Z" stroke="#423C52" stroke-width="5" stroke-linejoin="round"/>
<path d="M284.233 53.8777C284.763 53.8777 285.194 53.4467 285.194 52.9151C285.194 52.3835 284.763 51.9525 284.233 51.9525C283.703 51.9525 283.272 52.3835 283.272 52.9151C283.272 53.4467 283.703 53.8777 284.233 53.8777Z" fill="#DBE5E5"/>
<path d="M288.72 53.8777C289.251 53.8777 289.681 53.4467 289.681 52.9151C289.681 52.3835 289.251 51.9525 288.72 51.9525C288.19 51.9525 287.76 52.3835 287.76 52.9151C287.76 53.4467 288.19 53.8777 288.72 53.8777Z" fill="#DBE5E5"/>
<path d="M294.138 45.6602C294.669 45.6602 295.099 45.2292 295.099 44.6976C295.099 44.1659 294.669 43.735 294.138 43.735C293.608 43.735 293.178 44.1659 293.178 44.6976C293.178 45.2292 293.608 45.6602 294.138 45.6602Z" fill="#DBE5E5"/>
<path d="M293.893 53.8777C294.424 53.8777 294.854 53.4467 294.854 52.9151C294.854 52.3835 294.424 51.9525 293.893 51.9525C293.363 51.9525 292.933 52.3835 292.933 52.9151C292.933 53.4467 293.363 53.8777 293.893 53.8777Z" fill="#DBE5E5"/>
<path d="M293.739 60.8314C294.269 60.8314 294.699 60.4005 294.699 59.8688C294.699 59.3372 294.269 58.9062 293.739 58.9062C293.208 58.9062 292.778 59.3372 292.778 59.8688C292.778 60.4005 293.208 60.8314 293.739 60.8314Z" fill="#DBE5E5"/>
<path d="M300.305 45.6602C300.836 45.6602 301.266 45.2292 301.266 44.6976C301.266 44.1659 300.836 43.735 300.305 43.735C299.775 43.735 299.345 44.1659 299.345 44.6976C299.345 45.2292 299.775 45.6602 300.305 45.6602Z" fill="#DBE5E5"/>
<path d="M300.06 53.8777C300.591 53.8777 301.021 53.4467 301.021 52.9151C301.021 52.3835 300.591 51.9525 300.06 51.9525C299.53 51.9525 299.1 52.3835 299.1 52.9151C299.1 53.4467 299.53 53.8777 300.06 53.8777Z" fill="#DBE5E5"/>
<path d="M299.907 60.8314C300.437 60.8314 300.867 60.4005 300.867 59.8688C300.867 59.3372 300.437 58.9062 299.907 58.9062C299.376 58.9062 298.946 59.3372 298.946 59.8688C298.946 60.4005 299.376 60.8314 299.907 60.8314Z" fill="#DBE5E5"/>
<path d="M287.437 56.383C287.437 56.575 287.38 56.7628 287.273 56.9219C287.166 57.0811 287.013 57.2045 286.836 57.2761L285.517 56.3714C285.525 56.1209 285.631 55.8835 285.811 55.7098C285.991 55.5361 286.232 55.4398 286.482 55.4413C286.733 55.4428 286.972 55.542 287.15 55.7179C287.329 55.8938 287.431 56.1324 287.437 56.383Z" fill="#DBE5E5"/>
<path d="M290.964 57.5743C291.495 57.5743 291.925 57.1434 291.925 56.6118C291.925 56.0801 291.495 55.6492 290.964 55.6492C290.434 55.6492 290.004 56.0801 290.004 56.6118C290.004 57.1434 290.434 57.5743 290.964 57.5743Z" fill="#DBE5E5"/>
<path d="M297.079 41.3425C297.609 41.3425 298.039 40.9116 298.039 40.3799C298.039 39.8483 297.609 39.4174 297.079 39.4174C296.548 39.4174 296.118 39.8483 296.118 40.3799C296.118 40.9116 296.548 41.3425 297.079 41.3425Z" fill="#DBE5E5"/>
<path d="M297.146 49.6945C297.677 49.6945 298.107 49.2635 298.107 48.7319C298.107 48.2003 297.677 47.7693 297.146 47.7693C296.616 47.7693 296.186 48.2003 296.186 48.7319C296.186 49.2635 296.616 49.6945 297.146 49.6945Z" fill="#DBE5E5"/>
<path d="M302.465 49.6945C302.996 49.6945 303.426 49.2635 303.426 48.7319C303.426 48.2003 302.996 47.7693 302.465 47.7693C301.935 47.7693 301.505 48.2003 301.505 48.7319C301.505 49.2635 301.935 49.6945 302.465 49.6945Z" fill="#DBE5E5"/>
<path d="M296.901 57.4971C297.431 57.4971 297.861 57.0661 297.861 56.5345C297.861 56.0029 297.431 55.5719 296.901 55.5719C296.37 55.5719 295.94 56.0029 295.94 56.5345C295.94 57.0661 296.37 57.4971 296.901 57.4971Z" fill="#DBE5E5"/>
<path d="M296.901 64.0637C297.431 64.0637 297.861 63.6328 297.861 63.1011C297.861 62.5695 297.431 62.1385 296.901 62.1385C296.37 62.1385 295.94 62.5695 295.94 63.1011C295.94 63.6328 296.37 64.0637 296.901 64.0637Z" fill="#DBE5E5"/>
<path d="M284.17 45.6602C284.701 45.6602 285.131 45.2292 285.131 44.6976C285.131 44.1659 284.701 43.735 284.17 43.735C283.64 43.735 283.21 44.1659 283.21 44.6976C283.21 45.2292 283.64 45.6602 284.17 45.6602Z" fill="#DBE5E5"/>
<path d="M288.965 45.6602C289.496 45.6602 289.926 45.2292 289.926 44.6976C289.926 44.1659 289.496 43.735 288.965 43.735C288.435 43.735 288.005 44.1659 288.005 44.6976C288.005 45.2292 288.435 45.6602 288.965 45.6602Z" fill="#DBE5E5"/>
<path d="M286.722 49.6945C287.253 49.6945 287.683 49.2635 287.683 48.7319C287.683 48.2003 287.253 47.7693 286.722 47.7693C286.192 47.7693 285.762 48.2003 285.762 48.7319C285.762 49.2635 286.192 49.6945 286.722 49.6945Z" fill="#DBE5E5"/>
<path d="M281.301 49.4487C281.832 49.4487 282.262 49.0178 282.262 48.4861C282.262 47.9545 281.832 47.5236 281.301 47.5236C280.771 47.5236 280.341 47.9545 280.341 48.4861C280.341 49.0178 280.771 49.4487 281.301 49.4487Z" fill="#DBE5E5"/>
<path d="M278.479 51.4751C278.645 51.2906 278.871 51.1723 279.117 51.1421C279.363 51.1118 279.611 51.1717 279.816 51.3106C280.252 51.6142 280.356 52.2137 280.058 52.5729L278.479 51.4751Z" fill="#DBE5E5"/>
<path d="M291.518 49.6945C292.049 49.6945 292.479 49.2635 292.479 48.7319C292.479 48.2003 292.049 47.7693 291.518 47.7693C290.988 47.7693 290.558 48.2003 290.558 48.7319C290.558 49.2635 290.988 49.6945 291.518 49.6945Z" fill="#DBE5E5"/>
<path d="M284.026 37.4435C284.556 37.4435 284.986 37.0125 284.986 36.4809C284.986 35.9493 284.556 35.5183 284.026 35.5183C283.495 35.5183 283.065 35.9493 283.065 36.4809C283.065 37.0125 283.495 37.4435 284.026 37.4435Z" fill="#DBE5E5"/>
<path d="M288.9 37.4435C289.43 37.4435 289.861 37.0125 289.861 36.4809C289.861 35.9493 289.43 35.5183 288.9 35.5183C288.37 35.5183 287.939 35.9493 287.939 36.4809C287.939 37.0125 288.37 37.4435 288.9 37.4435Z" fill="#DBE5E5"/>
<path d="M294.138 37.5107C294.669 37.5107 295.099 37.0798 295.099 36.5482C295.099 36.0165 294.669 35.5856 294.138 35.5856C293.608 35.5856 293.178 36.0165 293.178 36.5482C293.178 37.0798 293.608 37.5107 294.138 37.5107Z" fill="#DBE5E5"/>
<path d="M286.656 41.3425C287.186 41.3425 287.616 40.9116 287.616 40.3799C287.616 39.8483 287.186 39.4174 286.656 39.4174C286.125 39.4174 285.695 39.8483 285.695 40.3799C285.695 40.9116 286.125 41.3425 286.656 41.3425Z" fill="#DBE5E5"/>
<path d="M281.718 39.2389C281.845 39.2582 281.966 39.3028 282.075 39.3699C282.185 39.437 282.279 39.5253 282.354 39.6296C282.429 39.734 282.482 39.8522 282.51 39.9774C282.538 40.1026 282.541 40.2322 282.519 40.3586C282.497 40.4849 282.449 40.6056 282.38 40.7134C282.31 40.8211 282.22 40.9139 282.114 40.9861C282.008 41.0584 281.889 41.1087 281.763 41.1341C281.638 41.1594 281.508 41.1594 281.383 41.1339L281.718 39.2389Z" fill="#DBE5E5"/>
<path d="M291.143 41.3425C291.674 41.3425 292.104 40.9116 292.104 40.3799C292.104 39.8483 291.674 39.4174 291.143 39.4174C290.613 39.4174 290.183 39.8483 290.183 40.3799C290.183 40.9116 290.613 41.3425 291.143 41.3425Z" fill="#DBE5E5"/>
<path d="M287.619 33.8126C287.597 33.9393 287.55 34.0604 287.481 34.1687C287.411 34.2771 287.321 34.3706 287.216 34.4438C287.11 34.5171 286.991 34.5685 286.866 34.5953C286.74 34.622 286.61 34.6234 286.484 34.5995C286.358 34.5756 286.238 34.5269 286.131 34.456C286.024 34.3852 285.932 34.2937 285.86 34.1869C285.788 34.0802 285.739 33.9602 285.714 33.834C285.689 33.7078 285.689 33.5779 285.715 33.4518L287.619 33.8126Z" fill="#DBE5E5"/>
<path d="M280.851 41.5048C279.961 45.0932 278.573 48.025 277.338 49.1823L275.016 47.6758L267.507 42.8042L266.574 44.8329C266.31 45.2756 265.937 45.643 265.491 45.9C265.045 46.157 264.54 46.295 264.026 46.3007L261.04 46.3393C260.96 46.3404 260.881 46.3255 260.807 46.2957C260.733 46.2659 260.666 46.2216 260.609 46.1655C260.552 46.1094 260.507 46.0426 260.476 45.9689C260.445 45.8951 260.429 45.816 260.428 45.736C260.426 45.2326 260.571 44.7395 260.844 44.3169C261.117 43.8943 261.506 43.5604 261.965 43.3558L262.769 42.9981L262.702 42.0255C262.701 41.6275 262.543 41.2459 262.263 40.9646C261.982 40.6832 261.601 40.5252 261.204 40.5252H258.423C258.174 40.5251 257.93 40.5871 257.711 40.7057C257.492 40.8243 257.306 40.9956 257.17 41.2043L256.091 45.0415C256.318 45.3515 256.48 45.7043 256.567 46.0787C256.655 46.4531 256.666 46.8413 256.599 47.22L256.474 47.937C256.46 48.0194 256.425 48.097 256.373 48.1624C256.321 48.2278 256.253 48.2788 256.176 48.3106C256.099 48.3425 256.015 48.3541 255.932 48.3444C255.849 48.3347 255.77 48.304 255.703 48.2552L249.481 43.868C248.916 43.4483 248.506 42.8531 248.315 42.1753C248.123 41.4974 248.161 40.7752 248.422 40.1212L251.876 33.9238C252.217 33.1832 252.746 32.545 253.41 32.0729C254.074 31.6008 254.849 31.3112 255.659 31.2331L266.924 30.1438C267.666 30.1438 268.405 30.238 269.124 30.4242L278.866 32.9474L281.487 33.6256C281.848 35.353 281.649 38.2902 280.851 41.5048Z" fill="white"/>
<path d="M252.603 37.829L250.77 41.8022C250.509 42.4561 250.471 43.1784 250.662 43.8563C250.854 44.5341 251.264 45.1293 251.828 45.549" stroke="#423C52" stroke-width="5" stroke-linecap="round" stroke-linejoin="round"/>
<path d="M254.888 39.3772L253.058 43.3511C252.797 44.0051 252.759 44.7272 252.95 45.405C253.142 46.0827 253.551 46.678 254.116 47.098" stroke="#423C52" stroke-width="5" stroke-linecap="round" stroke-linejoin="round"/>
<path d="M267.371 42.7106L268.882 39.2427L273.989 46.9627L267.371 42.7106Z" fill="#423C52"/>
<g style="mix-blend-mode:multiply">
<path d="M280.851 41.5048C279.961 45.0932 278.573 48.025 277.337 49.1823L275.015 47.6758C274.763 45.9137 274.99 43.1881 275.724 40.227C276.526 36.9955 277.728 34.2954 278.866 32.9458L281.487 33.6241C281.848 35.353 281.649 38.2902 280.851 41.5048Z" fill="#DBE5E5"/>
</g>
<path d="M280.851 41.5048C279.961 45.0932 278.573 48.025 277.338 49.1823L275.016 47.6758L267.507 42.8042L266.574 44.8329C266.31 45.2756 265.937 45.643 265.491 45.9C265.045 46.157 264.54 46.295 264.026 46.3007L261.04 46.3393C260.96 46.3404 260.881 46.3255 260.807 46.2957C260.733 46.2659 260.666 46.2216 260.609 46.1655C260.552 46.1094 260.507 46.0426 260.476 45.9689C260.445 45.8951 260.429 45.816 260.428 45.736C260.426 45.2326 260.571 44.7395 260.844 44.3169C261.117 43.8943 261.506 43.5604 261.965 43.3558L262.769 42.9981L262.702 42.0255C262.701 41.6275 262.543 41.2459 262.263 40.9646C261.982 40.6832 261.601 40.5252 261.204 40.5252H258.423C258.174 40.5251 257.93 40.5871 257.711 40.7057C257.492 40.8243 257.306 40.9956 257.17 41.2043L256.091 45.0415C256.318 45.3515 256.48 45.7043 256.567 46.0787C256.655 46.4531 256.666 46.8413 256.599 47.22L256.474 47.937C256.46 48.0194 256.425 48.097 256.373 48.1624C256.321 48.2278 256.253 48.2788 256.176 48.3106C256.099 48.3425 256.015 48.3541 255.932 48.3444C255.849 48.3347 255.77 48.304 255.703 48.2552L249.481 43.868C248.916 43.4483 248.506 42.8531 248.315 42.1753C248.123 41.4974 248.161 40.7751 248.422 40.1212L251.876 33.9238C252.217 33.1832 252.746 32.545 253.41 32.0729C254.074 31.6008 254.849 31.3112 255.659 31.2331L266.924 30.1438C267.666 30.1438 268.405 30.238 269.124 30.4242L278.866 32.9474L281.487 33.6256C281.848 35.353 281.649 38.2902 280.851 41.5048Z" stroke="#423C52" stroke-width="5" stroke-linejoin="round"/>
<path d="M187.772 29.1294L197.744 43.8849L197.961 44.2055C198.518 45.3381 197.72 47.3026 196.008 48.8354C194.296 50.3681 192.258 50.9428 191.197 50.2599L190.904 50.0081L177.395 38.42L187.772 29.1294Z" fill="white" stroke="#FE552F" stroke-width="6" stroke-linejoin="round"/>
<path d="M187.773 29.1294C189.398 30.9533 187.79 33.8357 184.925 36.4013C182.059 38.9669 179.02 40.2431 177.395 38.4199C175.77 36.5967 176.172 32.3624 179.038 29.7968C181.903 27.2312 186.147 27.3054 187.773 29.1294Z" fill="white" stroke="#FE552F" stroke-width="6" stroke-linejoin="round"/>
<path d="M181.224 32.2527C181.947 31.6058 182.245 30.7579 181.889 30.3589C181.533 29.9598 180.659 30.1607 179.937 30.8076C179.214 31.4545 178.916 32.3024 179.272 32.7014C179.628 33.1005 180.502 32.8995 181.224 32.2527Z" fill="white" stroke="#FE552F" stroke-width="6" stroke-linejoin="round"/>
<path d="M190.726 42.7385L178.789 29.3442C178.248 28.7374 177.908 27.9774 177.816 27.1689C177.724 26.3605 177.885 25.5434 178.276 24.8302L180.294 21.1553" stroke="#FE552F" stroke-width="6" stroke-linecap="round" stroke-linejoin="round"/>
<path d="M234.505 6.68091L230.633 9.46206L198.019 32.9048V35.9826C198.019 36.5555 197.878 37.1195 197.61 37.625C197.341 38.1306 196.952 38.562 196.477 38.8812L192.168 41.7743L192.125 41.6971C191.806 41.1496 191.617 40.5362 191.571 39.9041C191.526 39.2719 191.625 38.6376 191.862 38.0499L192.951 36.4168L188.533 29.8656L187.916 28.9834C186.89 27.8338 184.538 27.3077 182.435 27.7736L199.604 9.41261L202.45 6.3688C206.507 4.48226 212.414 3.05383 219.217 3.05383C225.856 3.05615 231.864 4.82681 234.505 6.68091Z" fill="#A0505A"/>
<path d="M207.604 26.0146L204.609 28.1677C197.57 25.5063 194.059 19.9671 192.596 16.9171L193.225 16.2443C195.073 18.4754 199.933 23.5502 207.604 26.0146Z" fill="#423C52"/>
<path d="M180.271 45.4131C180.937 46.7905 182.941 47.7693 184.465 47.6705L186.777 47.5159C186.904 47.5075 187.027 47.4731 187.139 47.4148C187.251 47.3566 187.35 47.2757 187.43 47.1773C187.509 47.0789 187.568 46.965 187.601 46.8429C187.635 46.7208 187.643 46.593 187.625 46.4676L186.88 41.2275C186.824 40.8416 186.632 40.4886 186.338 40.2332C186.044 39.9779 185.668 39.8372 185.279 39.8369H180.622C179.774 39.8369 178.703 39.6824 177.924 39.249C177.896 39.2327 177.863 39.2257 177.831 39.2291C177.798 39.2325 177.768 39.246 177.744 39.2678C177.719 39.2896 177.703 39.3185 177.696 39.3503C177.689 39.3822 177.692 39.4154 177.706 39.4452L180.271 45.4131Z" fill="#A0505A"/>
<path d="M179.723 43.7906C180.457 45.3357 181.891 46.2041 183.57 46.092L186.333 45.9229C186.921 45.8835 187.313 45.2786 187.23 44.6822" stroke="#423C52" stroke-width="5" stroke-linecap="round" stroke-linejoin="round"/>
<path d="M178.896 41.8594C179.703 43.4045 181.226 44.2017 183.075 44.0897L185.881 43.9205C186.529 43.8811 187.005 43.2654 186.913 42.6698" stroke="#423C52" stroke-width="5" stroke-linecap="round" stroke-linejoin="round"/>
<path d="M177.875 39.4259C178.719 40.971 180.536 42.1259 182.47 42.0139L185.404 41.8447C186.081 41.8053 186.578 41.2638 186.484 40.6674" stroke="#423C52" stroke-width="5" stroke-linecap="round" stroke-linejoin="round"/>
<path opacity="0.5" d="M235.508 9.41258H235.574L210.583 26.8063C198.829 24.2415 192.668 15.2182 192.668 15.2182L197.878 9.41258C200.844 6.26447 209.025 3.05688 219.217 3.05688C229.319 3.05611 237.956 7.15367 235.508 9.41258Z" fill="#FFDB00"/>
<path d="M210.581 26.8063C198.827 24.2415 192.666 15.2182 192.666 15.2182L197.876 9.41258C200.843 6.26447 209.024 3.05688 219.216 3.05688C229.409 3.05688 238.109 7.2286 235.435 9.46897L210.581 26.8063Z" stroke="#FFDB00" stroke-width="5" stroke-miterlimit="10" stroke-linecap="round"/>
<path d="M194.353 13.3372V17.2771C194.211 17.1226 194.078 16.972 193.954 16.8298V13.7821L194.353 13.3372Z" fill="#FFDB00"/>
<path d="M197.289 10.0654V20.1131C197.153 19.9964 197.02 19.8813 196.89 19.7678V10.5104L197.289 10.0654Z" fill="#FFDB00"/>
<path d="M200.224 7.55847V22.3449C200.089 22.2545 199.956 22.1641 199.825 22.0722V7.81727C199.954 7.73152 200.087 7.64654 200.224 7.55847Z" fill="#FFDB00"/>
<path d="M203.16 6.05359V24.0955C203.025 24.0252 202.893 23.9541 202.761 23.8831V6.22818C202.892 6.16947 203.025 6.11127 203.16 6.05359Z" fill="#FFDB00"/>
<path d="M206.096 4.97058V25.4429C205.961 25.3896 205.827 25.3355 205.695 25.2814V5.0996L206.096 4.97058Z" fill="#FFDB00"/>
<path d="M209.03 4.17554V26.4247C208.896 26.3876 208.763 26.3474 208.631 26.3111V4.26979C208.763 4.23657 208.896 4.20644 209.03 4.17554Z" fill="#FFDB00"/>
<path d="M211.966 3.61169V25.8431L211.566 26.1212V3.67659L211.79 3.64028L211.966 3.61169Z" fill="#FFDB00"/>
<path d="M214.901 3.25085V23.8004L214.502 24.0778V3.28871C214.634 3.2748 214.769 3.26244 214.901 3.25085Z" fill="#FFDB00"/>
<path d="M217.836 3.07776V21.7617L217.438 22.0398V3.08935C217.569 3.08394 217.703 3.07776 217.836 3.07776Z" fill="#FFDB00"/>
<path d="M220.772 3.08857V19.7214L220.373 19.9987V3.07776C220.506 3.07776 220.64 3.08317 220.772 3.08857Z" fill="#FFDB00"/>
<path d="M223.713 3.32191V17.6788L223.312 17.9569V3.2771C223.442 3.29101 223.576 3.30955 223.713 3.32191Z" fill="#FFDB00"/>
<path d="M226.641 3.78543V15.6408L226.509 15.732L226.241 15.9182V3.71204C226.376 3.73289 226.509 3.75916 226.641 3.78543Z" fill="#FFDB00"/>
<path d="M229.579 4.50777V13.599L229.179 13.8779V4.39111C229.314 4.42923 229.447 4.46811 229.579 4.50777Z" fill="#FFDB00"/>
<path d="M232.514 5.5808V11.5587L232.114 11.8368V5.40698C232.251 5.46415 232.384 5.52209 232.514 5.5808Z" fill="#FFDB00"/>
<path d="M235.449 9.41187V9.4953L235.049 9.77419V9.41187H235.449Z" fill="#FFDB00"/>
<path d="M214.408 24.1418L213.832 24.5428H204.055C203.783 24.4122 203.515 24.2778 203.256 24.1418H214.408Z" fill="#FFDB00"/>
<path d="M218.634 21.2001L218.058 21.601H199.171C198.989 21.4671 198.809 21.3335 198.632 21.2001H218.634Z" fill="#FFDB00"/>
<path d="M222.859 18.259L222.283 18.66H195.692C195.551 18.524 195.416 18.3904 195.286 18.259H222.859Z" fill="#FFDB00"/>
<path d="M227.086 15.3171L226.642 15.6262L226.51 15.7181H193.036C192.897 15.5381 192.797 15.4013 192.736 15.3171H227.086Z" fill="#FFDB00"/>
<path d="M231.311 12.3761L230.736 12.7763H194.857L195.217 12.3761H231.311Z" fill="#FFDB00"/>
<path d="M235.536 9.4342L235.449 9.49523L235.048 9.77412L234.961 9.83438H197.496L197.855 9.4342H235.536Z" fill="#FFDB00"/>
<path d="M234.799 6.89883H201.384C201.641 6.7639 201.906 6.6305 202.179 6.49866H234.234C234.44 6.63153 234.628 6.76493 234.799 6.89883Z" fill="#FFDB00"/>
<path d="M136.869 52.3659V71.0413C136.869 72.625 134.087 73.909 130.656 73.909C127.225 73.909 124.443 72.625 124.443 71.0413V52.3659C124.444 49.0422 125.317 45.7772 126.974 42.8984L128.516 40.2254V35.0556C128.516 34.1038 129.475 33.332 130.658 33.332C131.84 33.332 132.798 34.1046 132.798 35.0556V40.2231L134.34 42.8961C135.998 45.7756 136.87 49.0416 136.869 52.3659Z" fill="white" stroke="#423C52" stroke-width="5" stroke-miterlimit="10"/>
<path d="M135.388 59.6161V62.5602" stroke="#423C52" stroke-width="5" stroke-miterlimit="10" stroke-linecap="round"/>
<path d="M132.855 42.8961C134.514 45.7753 135.387 49.0414 135.387 52.3659V56.9934" stroke="#423C52" stroke-width="5" stroke-miterlimit="10" stroke-linecap="round"/>
<path d="M130.656 36.3804C131.528 36.3804 132.236 35.8108 132.236 35.1081C132.236 34.4054 131.528 33.8357 130.656 33.8357C129.783 33.8357 129.075 34.4054 129.075 35.1081C129.075 35.8108 129.783 36.3804 130.656 36.3804Z" fill="#423C52"/>
<path d="M135.564 70.4433C135.564 71.6941 133.366 72.7084 130.655 72.7084C127.945 72.7084 125.747 71.6902 125.747 70.4433C125.747 69.1964 127.945 67.4706 130.655 67.4706C133.366 67.4706 135.564 69.1879 135.564 70.4433Z" fill="white" stroke="#423C52" stroke-width="5" stroke-miterlimit="10"/>
<path d="M141.36 28.6573V34.3231C141.36 35.0521 141.156 35.7666 140.773 36.386C140.389 37.0054 139.841 37.5052 139.189 37.8289L132.868 40.9716C132.082 41.3625 131.262 40.5081 131.681 39.7356L132.865 36.8988C133.041 36.4768 133.068 36.0072 132.942 35.5677L131.862 31.8595C131.718 31.6004 131.508 31.3846 131.252 31.2344C130.997 31.0842 130.706 31.005 130.41 31.0051H128.11C127.853 31.005 127.599 31.0556 127.361 31.154C127.124 31.2524 126.909 31.3967 126.727 31.5786C126.545 31.7606 126.401 31.9766 126.303 32.2143C126.205 32.4521 126.154 32.7069 126.154 32.9642V34.3409L127.239 34.9381C127.913 35.3452 128.249 36.0753 128.249 36.864V37.9162H125.242C121.893 37.9162 120.083 36.1996 118.286 33.366L114.349 27.154C115.538 24.9097 119.5 22.5674 124.519 21.3738C126.821 20.8261 129.033 20.5943 130.952 20.6453L139.633 25.6575C140.158 25.9618 140.594 26.3991 140.897 26.9257C141.2 27.4522 141.36 28.0494 141.36 28.6573Z" fill="#FFDB00"/>
<path d="M136.938 38.7754C138.267 38.1148 139.107 36.902 139.107 35.4156V31.4957" stroke="#423C52" stroke-width="5" stroke-linecap="round" stroke-linejoin="round"/>
<path d="M133.16 40.8133C134.489 40.1528 136.056 38.2848 136.056 36.7961V32.8785" stroke="#423C52" stroke-width="5" stroke-linecap="round" stroke-linejoin="round"/>
<path d="M128.199 15.4979C125.938 15.236 123.066 15.4577 120.047 16.2295C115.73 17.3319 112.217 19.2795 110.596 21.251L102.227 8.00891C100.389 4.81291 106.729 2.52387 112.845 3.08474C117.682 3.52586 123.246 5.68511 124.529 8.52574L128.199 15.4979Z" fill="white" stroke="#FE552F" stroke-width="6" stroke-linejoin="round"/>
<path d="M104.585 4.14392V11.7117" stroke="#FE552F" stroke-width="6" stroke-linecap="round" stroke-linejoin="round"/>
<path d="M107.272 3.44861V15.9336" stroke="#FE552F" stroke-width="6" stroke-linecap="round" stroke-linejoin="round"/>
<path d="M109.96 3.06226V20.1555" stroke="#FE552F" stroke-width="6" stroke-linecap="round" stroke-linejoin="round"/>
<path d="M112.647 3.13965V19.3931" stroke="#FE552F" stroke-width="6" stroke-linecap="round" stroke-linejoin="round"/>
<path d="M115.335 3.44861V17.9252" stroke="#FE552F" stroke-width="6" stroke-linecap="round" stroke-linejoin="round"/>
<path d="M118.022 4.22119V16.921" stroke="#FE552F" stroke-width="6" stroke-linecap="round" stroke-linejoin="round"/>
<path d="M120.711 5.22546V16.0712" stroke="#FE552F" stroke-width="6" stroke-linecap="round" stroke-linejoin="round"/>
<path d="M123.398 7.07947V15.6075" stroke="#FE552F" stroke-width="6" stroke-linecap="round" stroke-linejoin="round"/>
<path d="M126.085 11.5734V15.4237" stroke="#FE552F" stroke-width="6" stroke-linecap="round" stroke-linejoin="round"/>
<path d="M130.945 20.6422C129.027 20.592 126.814 20.8238 124.512 21.3715C119.494 22.5651 115.531 24.9074 114.341 27.1516L110.598 21.2471C112.217 19.2795 115.733 17.3319 120.05 16.2295C123.068 15.4569 125.939 15.2352 128.202 15.4979L130.898 20.6144L130.945 20.6422Z" fill="white" stroke="#FE552F" stroke-width="6" stroke-linejoin="round"/>
<path d="M126.614 18.8291C127.146 18.8291 127.578 18.3964 127.578 17.8627C127.578 17.3289 127.146 16.8962 126.614 16.8962C126.081 16.8962 125.649 17.3289 125.649 17.8627C125.649 18.3964 126.081 18.8291 126.614 18.8291Z" stroke="#FE552F" stroke-width="6" stroke-linecap="round" stroke-linejoin="round"/>
<path d="M72.8254 49.2826V70.4078C72.8256 70.9834 73.0539 71.5355 73.4601 71.9426C73.8663 72.3496 74.4172 72.5784 74.9916 72.5786H72.5294C71.4887 72.5786 70.4907 72.1643 69.7548 71.4269C69.019 70.6894 68.6056 69.6893 68.6056 68.6464V62.1879L68.1885 63.1922C67.8914 63.9035 67.3302 64.4712 66.6234 64.7758C65.9165 65.0803 65.1193 65.0977 64.3998 64.8244C63.6804 64.5511 63.095 64.0084 62.7672 63.3109C62.4394 62.6133 62.3947 61.8154 62.6427 61.0855L62.7198 60.8538C62.7198 61.248 62.8761 61.626 63.1543 61.9048C63.4324 62.1835 63.8097 62.3401 64.203 62.3401H64.3572C64.7508 62.3401 65.1282 62.1834 65.4065 61.9045C65.6848 61.6257 65.8412 61.2474 65.8412 60.853V43.7968C65.8412 42.7363 66.2616 41.7192 67.0098 40.9693C67.7581 40.2194 68.773 39.7982 69.8313 39.7982V35.6458H72.44V39.7974C72.8681 39.7969 73.2922 39.8809 73.6879 40.0448C74.0836 40.2086 74.4431 40.449 74.7461 40.7522C75.049 41.0555 75.2893 41.4155 75.4533 41.8119C75.6172 42.2082 75.7016 42.6331 75.7016 43.0621V50.813C75.7016 52.6077 75.9229 57.9057 78.5315 57.854C78.5315 57.854 78.2509 56.0825 80.0409 56.1158C82.6496 56.1637 82.4207 61.0515 77.8131 61.084C73.3119 61.1156 72.6951 55.3834 72.8254 49.2826Z" fill="#FFDB00"/>
<path d="M68.4551 63.115V43.5589C68.455 42.9497 68.5972 42.349 68.8701 41.8047C69.143 41.2603 69.5392 40.7875 70.0269 40.424" stroke="white" stroke-width="5" stroke-linecap="round" stroke-linejoin="round"/>
<path d="M78.2987 57.5419C78.2516 58.6883 80.2691 58.9788 80.2691 57.8509" stroke="white" stroke-width="5" stroke-linecap="round" stroke-linejoin="round"/>
<path d="M49.0128 30.5137C49.0128 35.869 47.3831 40.2153 45.3672 40.2593C43.3513 40.2153 41.7217 35.869 41.7217 30.5137C41.7217 25.1585 43.3513 20.8114 45.3672 20.7689C47.3831 20.8114 49.0128 25.1577 49.0128 30.5137Z" fill="#423C52"/>
<path d="M38.1086 40.0863C36.0773 40.0863 34.4307 35.8002 34.4307 30.5138C34.4307 25.2273 36.0781 20.9404 38.1086 20.9404H45.2964C43.2651 20.9404 41.6184 25.2265 41.6184 30.5138C41.6184 35.801 43.2651 40.0863 45.2964 40.0863H38.1086Z" fill="white" stroke="#423C52" stroke-width="5" stroke-miterlimit="10"/>
<path d="M38.1085 20.9404C38.1085 20.9404 37.1156 18.6328 27.2452 18.0048C27.2452 18.0048 19.9934 21.5994 16.4119 30.0857C12.8203 38.5968 15.6818 43.5589 15.6818 43.5589C27.8118 44.3438 38.1085 40.0871 38.1085 40.0871" stroke="#423C52" stroke-width="5" stroke-linecap="round" stroke-linejoin="round"/>
<path d="M35.5912 23.5339C35.5912 23.5339 33.741 22.5482 30.124 22.3566" stroke="#423C52" stroke-width="5" stroke-linecap="round" stroke-linejoin="round"/>
<path d="M35.2007 24.6494H31.9521" stroke="#423C52" stroke-width="5" stroke-linecap="round" stroke-linejoin="round"/>
<path d="M34.9097 35.3893C33.9765 35.9114 33.0028 36.3573 31.998 36.7227" stroke="#423C52" stroke-width="5" stroke-linecap="round" stroke-linejoin="round"/>
<path d="M29.1777 34.6971H34.7998" stroke="#423C52" stroke-width="5" stroke-linecap="round" stroke-linejoin="round"/>
<path d="M80.9701 30.0774H78.6574V33.6929C78.6576 33.8639 78.6198 34.0329 78.5467 34.1875C78.4736 34.3421 78.3672 34.4785 78.235 34.5867L74.1755 37.9758C74.0433 38.0958 73.8825 38.1794 73.7085 38.2187C73.5346 38.2579 73.3535 38.2514 73.1828 38.1998C73.0121 38.1481 72.8576 38.0532 72.7344 37.924C72.6112 37.7949 72.5234 37.636 72.4795 37.4629L71.6924 34.3124C71.4988 33.6162 71.0829 33.0027 70.5083 32.5659C69.9337 32.1291 69.2322 31.8929 68.511 31.8936H66.3779C65.9492 31.8935 65.5359 32.0538 65.2188 32.343C64.9017 32.6322 64.7038 33.0295 64.6637 33.4573C64.6236 33.8851 64.7442 34.3124 65.0019 34.6558C65.2597 34.9991 65.636 35.2337 66.0572 35.3137L67.3824 35.5655C68.1042 35.7029 68.7556 36.0885 69.2241 36.6558C69.6926 37.223 69.9488 37.9363 69.9487 38.6727H47.5158C45.9355 38.6727 43.6814 35.0046 43.3083 30.5154C42.8527 25.0234 43.9165 22.3582 45.4968 22.3582H64.507C65.2773 22.3579 66.0437 22.4687 66.7826 22.6873L73.2435 24.4C74.0791 24.6464 74.6673 24.9608 75.3811 25.4614L81.2438 29.0507C81.3485 29.1111 81.4304 29.2045 81.4767 29.3164C81.5231 29.4282 81.5313 29.5523 81.5001 29.6693C81.4689 29.7863 81.4001 29.8897 81.3042 29.9635C81.2084 30.0373 81.0909 30.0773 80.9701 30.0774Z" fill="#EB7500"/>
<path d="M74.292 25.0219L77.9275 29.0221C78.2685 29.3973 78.4576 29.8866 78.4579 30.3941V33.5615" stroke="#423C52" stroke-width="5" stroke-linecap="round" stroke-linejoin="round"/>
<path d="M73.1484 27.7219L76.1102 31.0438C76.4516 31.4192 76.6408 31.9088 76.6406 32.4167V35.5802" stroke="#423C52" stroke-width="5" stroke-linecap="round" stroke-linejoin="round"/>
<path d="M71.2637 29.3387L74.2262 32.6607C74.5672 33.0363 74.7563 33.5257 74.7566 34.0335V37.197" stroke="#423C52" stroke-width="5" stroke-linecap="round" stroke-linejoin="round"/>
</svg>
