<svg width="230" height="129" viewBox="0 0 230 129" fill="none" xmlns="http://www.w3.org/2000/svg">
<path fill-rule="evenodd" clip-rule="evenodd" d="M64.2103 4.5708C71.1268 14.6145 69.5061 24.0875 59.4167 33.0356C56.4036 22.6951 57.9786 13.2221 64.2103 4.5708Z" fill="#80AE09"/>
<path fill-rule="evenodd" clip-rule="evenodd" d="M22.2324 33.7658C30.7239 28.8809 40.4252 29.6113 51.4048 35.8886C41.2698 39.4496 31.5913 38.7648 22.2324 33.7658Z" fill="#80AE09"/>
<path fill-rule="evenodd" clip-rule="evenodd" d="M32.6185 72.708C14.4257 57.437 -1.48439 76.1092 12.8507 95.5346C26.1358 104.825 33.1664 114.504 32.3218 123.406C46.1547 114.914 63.7084 93.0693 62.6583 75.3559C61.6768 59.0805 45.2188 53.0543 32.6185 72.708Z" fill="#80AE09"/>
<path fill-rule="evenodd" clip-rule="evenodd" d="M39.1925 117.836C48.871 109.984 58.5723 100.397 64.7355 89.6684C69.4377 81.5193 72.2911 72.2288 70.4193 62.8243C69.5747 58.7611 67.954 54.9719 65.6714 51.4566C55.9016 36.4367 39.4892 28.7898 22.2323 33.766C29.3542 40.6825 39.9686 43.1477 49.1221 38.2628C50.0123 37.7607 51.108 38.1259 51.5873 38.9933C52.0895 39.8835 51.7243 40.9792 50.8569 41.4586C39.3295 47.6446 25.702 43.8325 17.5529 34.0399C17.1648 33.6062 17.0507 33.0127 17.2105 32.4192C17.3474 31.8257 17.7583 31.392 18.3518 31.1866C38.1653 23.9734 57.5451 32.2138 68.7758 49.4707C71.2867 53.3284 73.1357 57.5742 74.0259 62.1167C76.1031 72.3886 73.09 82.5693 67.954 91.4717C60.9462 103.615 49.7612 114.23 38.8501 122.835C38.3023 123.223 37.5718 123.338 36.9327 123.041C36.2935 122.744 35.9511 122.151 35.9055 121.42C35.8598 118.612 35.1065 116.079 33.5772 113.705C31.8423 111.08 29.2857 108.957 26.7063 107.222C23.6476 105.145 20.429 103.364 17.2561 101.447C11.3669 97.9316 5.63739 93.9369 2.48732 87.6596C0.044869 82.7519 -0.685582 77.2279 0.684014 71.9321C1.91665 67.1385 4.83846 62.7786 8.94724 60.0166C12.3028 57.6426 16.3202 56.547 20.4062 56.798C25.2911 57.0491 29.9021 59.2177 33.7598 62.1851C34.8554 63.0297 35.8826 63.9656 36.8642 64.9015C39.4436 61.2036 42.7078 57.985 46.7481 56.0448C59.5082 49.9272 71.7661 60.3362 68.0453 74.0778C68.9812 63.0525 58.8005 54.3099 48.3231 59.309C44.6252 61.0894 41.6578 64.1939 39.3751 67.7092C39.6262 68.0059 39.8088 68.3027 40.0599 68.5994C45.2415 75.4702 48.8481 85.5139 46.0405 94.0054C44.8991 97.612 42.0458 100.831 37.9827 100.876C34.6272 100.876 32.0478 98.5479 30.6782 95.6946C27.9618 90.0108 29.651 80.5149 31.7738 74.8311C32.6184 72.6169 33.6456 70.3342 34.8783 68.12C33.7826 67.0244 32.7097 65.9972 31.4771 65.0613C25.4509 60.359 17.6898 58.4416 11.0245 63.0297C7.6233 65.3124 5.29499 68.919 4.24496 72.8223C3.10363 77.2735 3.69713 81.9073 5.72869 86.0161C12.6908 99.9632 35.9283 101.721 39.1925 117.836ZM37.412 71.1788C36.5674 72.7995 35.837 74.4887 35.2435 76.1322C33.5087 80.7203 31.7738 89.4857 34.0109 94.0739C36.4305 99.1186 41.0186 97.6805 42.6165 92.8869C44.9676 85.7194 41.7034 77.0224 37.412 71.1788Z" fill="#776557"/>
<path fill-rule="evenodd" clip-rule="evenodd" d="M64.2105 4.5706C62.3844 5.96303 60.7409 7.53806 59.4169 9.36419C54.7146 15.7328 54.1211 23.608 56.7005 30.9125C57.0429 31.8484 56.5636 32.8984 55.5592 33.2408C54.6233 33.5832 53.5733 33.1039 53.2309 32.0995C50.2634 23.6536 51.0624 14.5458 56.4495 7.19566C58.5267 4.43364 61.1517 2.05968 64.1192 0.279203C64.5529 -0.0175431 65.0551 -0.0631963 65.6029 0.0737633C66.1508 0.210723 66.4932 0.575949 66.7443 1.05531C69.4606 7.33262 70.8987 14.2034 69.2552 20.9145C68.0225 26.2559 65.0551 30.7071 61.0604 34.3593C60.33 35.0441 59.143 34.9985 58.4354 34.268C57.7962 33.5376 57.8419 32.3962 58.5723 31.6886C62.042 28.5157 64.5985 24.6808 65.6942 20.0699C66.9269 14.8882 66.0366 9.50115 64.2105 4.5706Z" fill="#776557"/>
<path fill-rule="evenodd" clip-rule="evenodd" d="M42.2509 90.8093C42.9814 85.3766 41.9998 80.5374 39.1921 76.2688C40.5846 81.3591 40.6759 85.8103 39.5345 89.5539C38.69 92.7268 41.4748 92.8409 42.2509 90.8093Z" fill="white"/>
<path fill-rule="evenodd" clip-rule="evenodd" d="M37.5716 92.7271C38.5988 92.339 39.7401 92.6814 40.0825 93.5717C40.4249 94.4619 39.8771 95.4891 38.8499 95.9456C37.8227 96.3337 36.6813 95.9913 36.3389 95.101C35.9737 94.2108 36.5215 93.1836 37.5716 92.7271Z" fill="white"/>
<path d="M101.03 57.6649H118.743V64.3074H91.8989V58.2127L109.498 31.5969H91.8989V24.9543H118.743V31.049L101.03 57.6649Z" fill="#776557"/>
<path d="M133.352 31.346V41.2071H146.592V47.4616H133.352V57.8934H148.304V64.3305H125.477V24.9089H148.304V31.346H133.352Z" fill="#776557"/>
<path d="M199.709 62.1162C196.628 60.3813 194.185 57.9845 192.382 54.9258C190.579 51.867 189.666 48.3974 189.666 44.5169C189.666 40.682 190.579 37.2352 192.382 34.1764C194.185 31.1176 196.628 28.7208 199.709 26.986C202.791 25.2512 206.169 24.3838 209.867 24.3838C213.588 24.3838 216.989 25.2512 220.048 26.986C223.106 28.7208 225.526 31.1176 227.329 34.1764C229.11 37.2352 230 40.682 230 44.5169C230 48.3974 229.11 51.867 227.329 54.9258C225.549 57.9845 223.106 60.3813 220.025 62.1162C216.943 63.851 213.565 64.7184 209.867 64.7184C206.169 64.7184 202.791 63.851 199.709 62.1162ZM216.099 56.0671C217.902 54.9943 219.317 53.4649 220.322 51.479C221.326 49.4931 221.851 47.1647 221.851 44.5397C221.851 41.9146 221.349 39.6091 220.322 37.6232C219.317 35.6601 217.902 34.1307 216.099 33.0807C214.295 32.0307 212.218 31.5057 209.844 31.5057C207.47 31.5057 205.37 32.0307 203.567 33.0807C201.741 34.1307 200.326 35.6373 199.321 37.6232C198.317 39.5863 197.792 41.8918 197.792 44.5397C197.792 47.1647 198.294 49.4931 199.321 51.479C200.326 53.4649 201.764 54.9943 203.567 56.0671C205.393 57.14 207.493 57.665 209.844 57.665C212.195 57.665 214.295 57.14 216.099 56.0671Z" fill="#776557"/>
<path d="M94.6613 84.7833C96.7842 81.0626 99.6831 78.1636 103.358 76.0864C107.033 74.0091 111.142 72.9819 115.73 72.9819C121.072 72.9819 125.751 74.3515 129.769 77.0907C133.786 79.8299 136.594 83.6191 138.192 88.4584H127.166C126.071 86.1757 124.541 84.4637 122.555 83.3224C120.569 82.1811 118.264 81.6104 115.685 81.6104C112.9 81.6104 110.412 82.2495 108.243 83.5507C106.075 84.8518 104.385 86.7007 103.176 89.0747C101.966 91.4487 101.349 94.2335 101.349 97.4292C101.349 100.579 101.943 103.364 103.176 105.761C104.385 108.158 106.075 110.007 108.243 111.308C110.412 112.609 112.877 113.248 115.685 113.248C118.287 113.248 120.569 112.677 122.555 111.513C124.541 110.349 126.094 108.637 127.166 106.332H138.192C136.594 111.216 133.786 115.029 129.791 117.745C125.797 120.461 121.095 121.808 115.73 121.808C111.165 121.808 107.033 120.781 103.358 118.704C99.6831 116.626 96.7842 113.75 94.6613 110.03C92.5384 106.309 91.4656 102.132 91.4656 97.4292C91.4884 92.7269 92.5384 88.504 94.6613 84.7833Z" fill="#776557"/>
<path d="M156.27 118.726C152.527 116.626 149.559 113.727 147.368 110.007C145.177 106.286 144.081 102.086 144.081 97.3834C144.081 92.7268 145.177 88.5496 147.368 84.8288C149.559 81.1081 152.527 78.2091 156.27 76.1091C160.014 74.009 164.123 72.959 168.597 72.959C173.116 72.959 177.225 74.009 180.946 76.1091C184.667 78.2091 187.611 81.1309 189.78 84.8288C191.948 88.5496 193.021 92.7268 193.021 97.3834C193.021 102.086 191.926 106.309 189.78 110.007C187.611 113.727 184.644 116.649 180.923 118.726C177.18 120.826 173.071 121.876 168.597 121.876C164.123 121.876 160.014 120.826 156.27 118.726ZM176.198 111.353C178.389 110.052 180.101 108.203 181.334 105.784C182.567 103.364 183.183 100.556 183.183 97.3606C183.183 94.1649 182.567 91.38 181.334 88.9604C180.101 86.5636 178.389 84.7375 176.198 83.4364C174.007 82.1581 171.473 81.519 168.597 81.519C165.721 81.519 163.164 82.1581 160.95 83.4364C158.736 84.7147 157.024 86.5636 155.768 88.9604C154.536 91.3572 153.919 94.1649 153.919 97.3606C153.919 100.556 154.536 103.364 155.768 105.784C157.001 108.203 158.713 110.075 160.95 111.353C163.164 112.654 165.698 113.316 168.597 113.316C171.473 113.316 174.007 112.654 176.198 111.353Z" fill="#776557"/>
<path d="M200.347 122.306C202.949 120.16 205.003 118.38 206.51 116.987C208.017 115.595 209.295 114.157 210.322 112.627C211.349 111.121 211.874 109.637 211.874 108.199C211.874 107.103 211.623 106.259 211.121 105.643C210.619 105.026 209.865 104.729 208.838 104.729C207.834 104.729 207.035 105.118 206.464 105.871C205.894 106.624 205.597 107.697 205.597 109.089H199C199.046 106.83 199.548 104.935 200.461 103.428C201.374 101.922 202.584 100.803 204.09 100.073C205.597 99.3652 207.263 99 209.089 99C212.262 99 214.636 99.8218 216.257 101.442C217.878 103.063 218.677 105.186 218.677 107.788C218.677 110.642 217.695 113.267 215.755 115.709C213.814 118.152 211.326 120.525 208.336 122.831H219.11V128.378H199.114V123.31C200.004 122.58 200.415 122.26 200.347 122.306Z" fill="#776557"/>
<path d="M175.468 48.3748C178.435 47.5759 180.672 46.1378 182.179 44.0606C183.685 41.9834 184.439 39.6322 184.439 37.03C184.439 34.7702 183.914 32.7386 182.841 30.9125C181.768 29.0863 180.17 27.6483 178.024 26.5754C175.879 25.5026 173.299 24.9775 170.24 24.9775H155.449V31.5059H169.944C172.089 31.5059 173.687 32.0081 174.737 32.9897C175.787 33.994 176.312 35.3865 176.312 37.1898C176.312 39.0387 175.787 40.4768 174.737 41.504C173.687 42.5312 172.089 43.0562 169.944 43.0562H155.449V64.3306H163.347V48.9911H167.067L175.742 64.3306H184.872L175.468 48.3748Z" fill="#776557"/>
</svg>
