<svg width="375" height="281" viewBox="0 0 375 281" fill="none" xmlns="http://www.w3.org/2000/svg">
<path d="M268.103 49.1078C268.103 49.1857 268.103 49.2636 268.103 49.3428H412.51C412.492 46.9878 411.542 44.7358 409.868 43.0785C408.194 41.4211 405.932 40.4929 403.576 40.4964H389.402L389.741 40.4159C388.26 37.4591 385.985 34.9731 383.17 33.2367C380.355 31.5003 377.112 30.5822 373.804 30.5852C372.894 30.5851 371.986 30.6532 371.086 30.7891C371.238 29.8069 371.315 28.8146 371.315 27.8208C371.315 15.2894 359.313 5.12634 344.511 5.12634C330.971 5.12634 319.771 13.6339 317.965 24.6708C314.815 22.5608 311.106 21.4375 307.314 21.4441C297.104 21.4441 288.765 29.4231 288.231 39.468C286.048 38.1334 283.536 37.4329 280.977 37.445C273.872 37.4502 268.103 42.6687 268.103 49.1078Z" fill="#E5F1EF"/>
<path d="M48.6395 63.6245C66.2158 63.6245 80.4642 49.3817 80.4642 31.8123C80.4642 14.2428 66.2158 0 48.6395 0C31.0633 0 16.8149 14.2428 16.8149 31.8123C16.8149 49.3817 31.0633 63.6245 48.6395 63.6245Z" fill="#C8D9D2"/>
<path d="M-38 70.4766C-38 70.5337 -38 70.5908 -38 70.6479H67.2472C67.2332 68.9317 66.5406 67.2906 65.3207 66.0829C64.1008 64.8751 62.4525 64.1986 60.7355 64.2011H50.4049L50.6517 64.1427C49.5727 61.9875 47.9144 60.1756 45.8627 58.91C43.8111 57.6444 41.4472 56.9753 39.0363 56.9778C38.3736 56.9802 37.7119 57.0319 37.0567 57.1323C37.1673 56.4169 37.2229 55.6942 37.223 54.9703C37.223 45.8357 28.4745 38.4293 17.6879 38.4293C7.81575 38.4293 -0.34304 44.6268 -1.66019 52.6773C-3.95554 51.137 -6.65825 50.3161 -9.4228 50.3193C-16.8594 50.3193 -22.932 56.1351 -23.3217 63.4558C-24.9128 62.4831 -26.7435 61.9727 -28.6085 61.982C-33.7953 61.982 -38 65.7839 -38 70.4766Z" fill="#E5F1EF"/>
<path d="M365.692 144.298C365.692 167.231 359.631 188.751 349.021 207.341C327.077 245.793 285.678 271.717 238.219 271.717C167.815 271.717 110.749 214.669 110.749 144.298C110.749 115.342 120.412 88.6419 136.691 67.2433C143.253 58.6161 150.884 50.8556 159.399 44.1476C181.092 27.0651 208.465 16.8799 238.222 16.8799C256.515 16.8545 274.598 20.7801 291.233 28.3882C313.462 38.5292 332.302 54.8502 345.505 75.403C358.708 95.9559 365.716 119.872 365.692 144.298Z" fill="#BECDC8"/>
<path d="M282.165 79.1398L278.852 84.1077C278.736 84.2816 278.67 84.4836 278.66 84.6923C278.65 84.901 278.697 85.1085 278.795 85.2927C278.894 85.4769 279.041 85.6309 279.22 85.7382C279.399 85.8456 279.604 85.9022 279.814 85.9022H285.506C285.812 85.9022 286.105 86.0236 286.322 86.2398C286.538 86.456 286.66 86.7493 286.66 87.0552C286.66 87.3614 286.782 87.655 286.999 87.8715C287.215 88.0879 287.509 88.2095 287.815 88.2095H288.04C288.346 88.2095 288.64 88.0879 288.856 87.8715C289.073 87.655 289.195 87.3614 289.195 87.0552V84.9777C289.195 84.6826 289.082 84.3988 288.879 84.1843L283.959 78.9905C283.84 78.8654 283.694 78.7685 283.532 78.7071C283.371 78.6456 283.198 78.6212 283.026 78.6355C282.854 78.6498 282.687 78.7026 282.538 78.7899C282.389 78.8771 282.261 78.9967 282.165 79.1398Z" fill="#E4A094"/>
<path d="M275.066 78.462H270.779C269.38 78.4618 267.998 78.7624 266.725 79.3433C265.452 79.9243 264.32 80.7719 263.404 81.8289L260.255 85.4568V90.3247C260.256 90.5358 260.215 90.7449 260.135 90.9401C260.054 91.1353 259.936 91.3127 259.787 91.462C259.637 91.6113 259.46 91.7296 259.265 91.8101C259.07 91.8905 258.861 91.9316 258.649 91.9309H254.637L238.039 111.048L238.022 111.069C237.402 111.781 236.961 112.631 236.736 113.549C236.511 114.466 236.51 115.424 236.731 116.342L238.345 123.026C238.425 123.361 238.391 123.712 238.248 124.025C238.104 124.337 237.86 124.593 237.554 124.75C237.249 124.907 236.899 124.958 236.561 124.893C236.224 124.828 235.917 124.652 235.692 124.392L229.189 116.839C228.549 116.094 227.755 115.496 226.862 115.087C225.969 114.677 224.998 114.464 224.015 114.464H216.132C215.183 114.464 214.244 114.65 213.368 115.013C212.492 115.376 211.695 115.907 211.025 116.577C210.354 117.247 209.822 118.043 209.459 118.919C209.095 119.795 208.908 120.733 208.908 121.681V124.148C208.909 125.863 209.591 127.507 210.804 128.719C212.017 129.932 213.662 130.613 215.377 130.613H221.421C221.918 130.613 222.407 130.733 222.847 130.963C223.287 131.192 223.666 131.525 223.95 131.932C224.234 132.339 224.416 132.809 224.479 133.301C224.543 133.793 224.487 134.293 224.315 134.759C224.02 135.558 223.911 136.414 224 137.261C224.088 138.108 224.369 138.923 224.823 139.644H229.301C229.715 139.644 230.125 139.726 230.508 139.884C230.891 140.043 231.238 140.275 231.531 140.568C231.824 140.861 232.056 141.209 232.215 141.591C232.373 141.974 232.455 142.384 232.455 142.798V147.343L235.068 149.899C235.154 149.984 235.206 150.097 235.215 150.217C235.223 150.337 235.189 150.457 235.117 150.553C235.044 150.65 234.94 150.717 234.822 150.743C234.705 150.768 234.581 150.751 234.476 150.693L220.609 143.045C217.174 141.15 213.314 140.157 209.39 140.158H202.815C201.199 140.158 199.601 139.815 198.128 139.151C196.655 138.487 195.34 137.517 194.27 136.306L171.464 110.511C170.938 109.915 170.292 109.439 169.568 109.112C168.843 108.786 168.058 108.617 167.263 108.617H165.535C164.221 108.617 162.962 108.096 162.033 107.168C161.105 106.239 160.583 104.98 160.583 103.668V87.9927C160.583 86.4033 160.238 84.8327 159.573 83.389C158.908 81.9453 157.938 80.6627 156.73 79.6293L153.11 76.5325C148.29 72.4074 142.723 69.2456 136.711 67.2187C142.332 59.834 148.739 53.0814 155.818 47.0795H184.983L199.98 41.4663C200.392 40.8495 202.607 40.7755 203.116 41.3131L207.955 47.0795H231.23C231.526 47.0794 231.817 47.1599 232.071 47.3124C232.326 47.4649 232.534 47.6837 232.673 47.9454C232.812 48.207 232.878 48.5017 232.863 48.7977C232.847 49.0937 232.752 49.38 232.586 49.6258L229.805 53.7562C229.106 54.795 228.162 55.6462 227.057 56.2349C225.951 56.8236 224.718 57.1317 223.466 57.1322H220.912C220.306 57.1319 219.706 57.2508 219.146 57.4823C218.586 57.7138 218.077 58.0532 217.649 58.4812C217.22 58.9093 216.88 59.4175 216.648 59.977C216.415 60.5364 216.296 61.1361 216.295 61.7418V62.9013C216.296 63.9868 216.68 65.0374 217.378 65.8686C218.077 66.6997 219.046 67.2581 220.116 67.4459L238.126 70.5972C238.768 70.7102 239.426 70.6858 240.058 70.5258C240.69 70.3658 241.28 70.0737 241.791 69.6688C242.302 69.2639 242.721 68.7554 243.02 68.1769C243.32 67.5983 243.494 66.9628 243.53 66.3123H242.259C242.062 66.3127 241.867 66.2741 241.684 66.1989C241.502 66.1237 241.337 66.0132 241.197 65.8739C241.058 65.7346 240.947 65.5691 240.872 65.387C240.796 65.2049 240.757 65.0097 240.758 64.8126V62.9623C240.756 62.5682 240.6 62.1904 240.323 61.9102C240.046 61.6299 239.67 61.4697 239.275 61.4639C238.875 61.4656 238.491 61.309 238.206 61.0283C237.921 60.7475 237.758 60.3654 237.754 59.9655C237.754 59.7686 237.793 59.5736 237.869 59.3917C237.944 59.2099 238.055 59.0446 238.194 58.9055C238.333 58.7663 238.499 58.656 238.681 58.5807C238.863 58.5055 239.058 58.4669 239.255 58.467H259.839C260.766 58.467 261.683 58.6571 262.534 59.0256C263.384 59.3942 264.15 59.9332 264.783 60.6095L277.113 73.7408C278.8 75.5275 277.526 78.462 275.066 78.462Z" fill="#E4A094"/>
<path d="M176.367 32.8588L170.985 41.8559C170.902 42.5934 168.966 43.6737 168.268 43.4283L163.177 41.291C167.396 38.2124 171.801 35.3963 176.367 32.8588Z" fill="#E4A094"/>
<path d="M267.032 237.931V239.027C267.032 239.35 266.968 239.669 266.845 239.968C266.721 240.266 266.54 240.537 266.312 240.765C266.083 240.994 265.812 241.175 265.514 241.298C265.215 241.422 264.896 241.485 264.573 241.485H260.7L258.196 247.821C258.064 248.152 258.052 248.519 258.16 248.858C258.269 249.198 258.492 249.489 258.791 249.682C259.058 249.855 259.282 250.086 259.446 250.357C259.611 250.629 259.712 250.934 259.742 251.25C259.771 251.567 259.729 251.886 259.618 252.183C259.507 252.481 259.33 252.749 259.1 252.969L254.382 257.465C254.144 258.068 254.057 258.72 254.129 259.364C254.201 260.008 254.429 260.625 254.793 261.16C255.158 261.696 255.648 262.135 256.221 262.438C256.794 262.742 257.432 262.9 258.08 262.9H262.419C262.759 262.895 263.091 263.007 263.358 263.216C263.626 263.426 263.814 263.721 263.891 264.052C263.932 264.262 263.927 264.478 263.876 264.686C263.824 264.893 263.727 265.087 263.592 265.252C263.456 265.418 263.286 265.551 263.093 265.643C262.9 265.735 262.689 265.783 262.475 265.784H253.617C250.688 265.784 247.879 264.622 245.807 262.552C243.735 260.483 242.569 257.675 242.567 254.747V246.474C242.567 245.738 242.661 245.005 242.846 244.294L251.512 210.526C252.155 208.017 251.978 205.369 251.005 202.969C250.033 200.569 248.317 198.543 246.109 197.189L241.875 194.592L232.552 177.773C231.701 176.242 231.254 174.519 231.253 172.767V171.107C231.253 169.42 231.666 167.759 232.456 166.268C233.246 164.777 234.39 163.503 235.786 162.555L238.156 160.945C239.02 160.362 239.731 159.578 240.228 158.662C240.726 157.745 240.995 156.723 241.013 155.68L241.08 152.147C241.102 150.911 241.609 149.732 242.492 148.866C243.375 148 244.563 147.515 245.8 147.515H259.344C260.939 147.516 262.517 147.835 263.986 148.454C265.456 149.073 266.786 149.98 267.899 151.121L273.604 156.977C274.102 157.489 274.698 157.895 275.356 158.172C276.014 158.449 276.721 158.592 277.435 158.591H280.242C281.659 158.591 283.044 159.016 284.216 159.811C285.389 160.607 286.295 161.736 286.817 163.053L288.739 168.85L310.983 176.641C311.918 177.038 312.715 177.701 313.275 178.548C313.835 179.394 314.134 180.386 314.135 181.401V183.697C314.134 184.405 313.988 185.106 313.707 185.756C313.425 186.406 313.013 186.992 312.497 187.477L308.693 191.024C308.113 191.566 307.651 192.222 307.335 192.95C307.019 193.678 306.856 194.463 306.857 195.257V201.92C306.857 204.046 306.012 206.085 304.508 207.588C303.004 209.092 300.964 209.936 298.837 209.936H296.848C295.125 209.936 293.473 210.62 292.255 211.838C291.037 213.055 290.353 214.707 290.353 216.429V217.552L276.257 233.612C275.753 234.186 275.133 234.646 274.437 234.961C273.742 235.275 272.987 235.438 272.224 235.438L269.171 235.644C268.591 235.683 268.047 235.941 267.65 236.366C267.253 236.79 267.032 237.35 267.032 237.931Z" fill="#E4A094"/>
<path d="M314.029 41.8507H309.674C308.358 41.8508 307.086 42.3257 306.091 43.1881L303.87 45.1163C302.526 46.2869 300.804 46.9325 299.021 46.9341H290.756C289.6 46.9341 288.491 47.3927 287.673 48.2093C286.855 49.0258 286.394 50.1335 286.393 51.2892V53.5225C286.393 53.9493 286.309 54.372 286.145 54.7663C285.981 55.1605 285.742 55.5187 285.439 55.8202C285.137 56.1217 284.778 56.3607 284.384 56.5234C283.989 56.6862 283.566 56.7695 283.139 56.7687H281.745C281.161 56.7686 280.588 56.6116 280.085 56.3142L271.825 51.419C270.987 50.9228 270.293 50.2172 269.811 49.3717C269.329 48.5262 269.075 47.5698 269.075 46.5965V40.3146L265.165 34.0093C264.084 32.2673 262.577 30.8299 260.785 29.8331C258.994 28.8362 256.977 28.313 254.927 28.3129H238.001C237.387 28.313 236.793 28.0918 236.328 27.6899C235.864 27.2879 235.559 26.7321 235.471 26.1243C235.383 25.5164 235.517 24.8971 235.848 24.3798C236.179 23.8625 236.686 23.4818 237.275 23.3074L252.121 18.9017C253.328 18.5436 254.559 18.2694 255.805 18.0811C268.053 19.7674 279.988 23.2392 291.229 28.3856C299.277 32.0695 306.918 36.5823 314.029 41.8507Z" fill="#E4A094"/>
<path d="M360.639 108.659C360.064 108.776 359.547 109.088 359.175 109.542C358.804 109.997 358.601 110.565 358.601 111.152V111.385C358.601 111.69 358.529 111.99 358.389 112.262C358.25 112.533 358.048 112.767 357.8 112.945C357.553 113.123 357.266 113.239 356.964 113.283C356.662 113.328 356.354 113.3 356.065 113.202L345.792 109.704C345.412 109.575 345.083 109.33 344.85 109.004C344.617 108.678 344.492 108.287 344.493 107.886V104.09C344.493 103.724 344.414 103.362 344.261 103.029C344.108 102.696 343.886 102.4 343.608 102.161C343.331 101.922 343.005 101.745 342.653 101.643C342.301 101.542 341.931 101.517 341.569 101.571L322.891 104.347C322.084 104.467 321.286 104.641 320.502 104.866V102.759C320.502 102.599 320.533 102.441 320.594 102.293C320.656 102.145 320.745 102.011 320.858 101.898C320.971 101.785 321.105 101.695 321.253 101.634C321.401 101.572 321.559 101.541 321.719 101.541H323.656C324.216 101.542 324.769 101.421 325.278 101.188C325.787 100.955 326.24 100.615 326.605 100.191L332.198 93.6865C332.868 92.9093 333.697 92.2855 334.629 91.8577C335.562 91.43 336.576 91.2083 337.602 91.2078H342.678C343.781 91.2072 344.871 91.4415 345.875 91.8951C346.88 92.3487 347.777 93.0112 348.505 93.8385L350.843 96.4886C351.623 97.3768 353.089 96.6951 352.907 95.5226C352.881 95.3507 352.867 95.1771 352.866 95.0032C352.869 94.4194 353.028 93.847 353.326 93.3448C353.624 92.8427 354.05 92.4291 354.561 92.1466C353.782 90.4196 352.969 88.7139 352.123 87.0293C349.478 81.7845 346.473 76.7292 343.129 71.8997L335.368 76.6001C334.091 77.373 332.582 77.6695 331.108 77.4371C329.634 77.2046 328.29 76.4583 327.314 75.3302L324.456 72.0269L316.053 70.5817C316.028 70.5773 316.002 70.5782 315.977 70.5844C315.951 70.5906 315.928 70.6019 315.907 70.6177C315.887 70.6334 315.87 70.6532 315.857 70.6759C315.845 70.6985 315.837 70.7235 315.835 70.7492C315.785 71.2166 315.564 71.649 315.214 71.9631C314.864 72.2771 314.41 72.4506 313.94 72.4502H310.083C309.909 72.4502 309.737 72.4908 309.582 72.569C309.426 72.6471 309.291 72.7605 309.187 72.9001C309.083 73.0398 309.013 73.2018 308.983 73.3733C308.953 73.5447 308.963 73.7209 309.013 73.8876L309.922 76.9247C309.922 77.1112 309.959 77.2959 310.03 77.4681C310.102 77.6404 310.206 77.7969 310.338 77.9287C310.47 78.0605 310.627 78.165 310.799 78.2363C310.972 78.3075 311.157 78.3441 311.343 78.3439H313.609C314.838 78.3448 316.045 78.6808 317.097 79.316C318.15 79.9511 319.01 80.8613 319.584 81.9485L322.521 87.5318C322.722 87.914 322.822 88.3417 322.81 88.7735C322.797 89.2054 322.673 89.6267 322.45 89.9967C322.227 90.3666 321.912 90.6726 321.536 90.8851C321.159 91.0975 320.734 91.2091 320.302 91.2091H314.954C314.293 91.2101 313.659 91.4733 313.191 91.9409C312.724 92.4085 312.461 93.0423 312.46 93.7034V97.9455C312.461 98.8985 312.84 99.8123 313.514 100.486C314.188 101.16 315.102 101.539 316.056 101.54C316.288 101.539 316.517 101.585 316.731 101.673C316.946 101.762 317.14 101.892 317.304 102.056C317.468 102.22 317.598 102.415 317.686 102.629C317.774 102.843 317.819 103.073 317.819 103.304V105.883C315.734 106.867 313.855 108.238 312.281 109.922L302.431 120.487C300.621 122.429 299.614 124.984 299.615 127.639V133.274C299.615 135.968 300.652 138.56 302.512 140.51L312.445 150.924C312.939 151.443 313.533 151.856 314.191 152.139C314.85 152.421 315.559 152.566 316.275 152.566H336.46C337.016 152.566 337.562 152.712 338.044 152.988C338.527 153.264 338.928 153.662 339.209 154.141C339.49 154.621 339.641 155.165 339.646 155.721C339.651 156.277 339.51 156.824 339.238 157.308L337.68 160.076C337.379 160.612 337.24 161.224 337.279 161.837C337.319 162.451 337.536 163.04 337.903 163.533L340.132 166.533C340.543 167.081 340.764 167.748 340.763 168.434V183.756C340.763 184.949 341.083 186.121 341.692 187.147L345.133 192.969C345.875 194.226 346.265 195.659 346.265 197.118V202.787L348.701 207.887C348.807 207.706 348.911 207.524 349.014 207.342C359.624 188.752 365.685 167.233 365.685 144.299C365.698 132.24 363.999 120.241 360.639 108.659ZM339.298 67.6498H340.059C339.098 66.3747 338.114 65.1195 337.107 63.8843C336.669 63.3454 336.226 62.8131 335.779 62.282C335.525 62.8658 335.42 63.5037 335.474 64.1382C335.527 64.7727 335.738 65.3839 336.088 65.9165C336.437 66.4491 336.913 66.8864 337.474 67.1891C338.034 67.4917 338.661 67.65 339.298 67.6498Z" fill="#E4A094"/>
<path d="M303.144 254.05C300.157 254.795 284.225 270.243 227.75 273.646V253.31C227.75 248.973 229.472 244.813 232.538 241.743C235.603 238.674 239.762 236.945 244.101 236.938C244.621 236.938 245.146 236.963 245.677 237.013C278.066 240.943 300.276 247.577 303.144 254.05Z" fill="#E5F1EF"/>
<path d="M263.888 190.043C263.674 190.35 249.94 210.122 245.677 237.013C245.147 236.963 244.622 236.938 244.101 236.938C239.762 236.945 235.603 238.674 232.538 241.743C229.472 244.813 227.75 248.973 227.75 253.31V273.647C223.053 274.079 218.195 274.478 213.177 274.842C190.028 276.53 163.673 277.476 135.712 277.476C107.75 277.476 81.3942 276.524 58.2453 274.842C11.2307 271.425 -22.5567 264.995 -29.7244 257.405C-7.5043 274.868 224.313 257.769 227.52 240.89C228.03 238.205 226.63 236.233 223.981 234.788C221.597 233.766 216.162 230.575 188.886 230.723C170.097 230.825 172.374 228.682 172.671 228.28C176.655 222.895 241.439 209.752 263.888 190.043Z" fill="#C8D9D2"/>
<path d="M-29.9686 256.965C-11.0518 275.144 224.287 257.903 227.52 240.886C230.484 225.287 168.999 233.775 172.671 228.269C176.343 222.764 267.004 203.728 267.003 183.295C267.003 173.208 184.023 169.997 107.245 189.567C-26.5315 223.669 -35.4814 251.673 -29.9686 256.965Z" fill="#E5F1EF"/>
<path d="M92.921 192.969V178.458C95.228 177.108 97.6902 176.044 100.254 175.287L130.181 166.45C130.181 166.45 129.201 168.497 127.864 171.597L92.921 192.969Z" fill="#423C52"/>
<path d="M126.771 207.857H96.5191C96.0467 207.858 95.5788 207.765 95.1423 207.584C94.7058 207.404 94.3091 207.139 93.975 206.805C93.6408 206.471 93.3758 206.075 93.1949 205.638C93.0141 205.202 92.921 204.734 92.921 204.262V178.458C95.228 177.108 97.6902 176.044 100.254 175.287L130.181 166.45C130.181 166.45 126.404 174.351 123.556 182.61C121.644 188.138 120.146 193.828 120.467 197.413C121.067 204.18 126.771 207.857 126.771 207.857Z" fill="white" stroke="#423C52" stroke-width="5" stroke-miterlimit="10" stroke-linecap="round"/>
<path d="M100.254 175.292L130.18 166.455C130.18 166.455 126.404 174.356 123.556 182.615L101.528 189.121C98.4867 190.018 95.5903 191.348 92.9275 193.069V178.458C95.2326 177.11 97.6926 176.048 100.254 175.292Z" fill="#423C52"/>
<path d="M212.96 207.858H192.767C192.767 207.858 199.232 194.168 197.112 181.818C196.086 175.845 194.327 171.093 192.558 167.514C191.736 165.84 190.802 164.223 189.761 162.675C189.487 162.271 189.114 161.944 188.678 161.723C188.243 161.502 187.758 161.395 187.27 161.412C186.782 161.429 186.306 161.57 185.887 161.821C185.468 162.072 185.119 162.424 184.873 162.846C192.952 148.996 207.021 137.478 219.816 128.622C218.797 130.662 217.205 137.081 217.11 145.263C217.045 150.789 217.666 157.118 219.608 163.441C224.793 180.335 226.027 200.285 212.96 207.858Z" fill="white" stroke="#423C52" stroke-width="5" stroke-miterlimit="10" stroke-linecap="round"/>
<path d="M219.814 128.622C218.796 130.662 217.203 137.081 217.108 145.263C208.439 151.539 199.535 158.991 192.558 167.514C191.736 165.84 190.802 164.223 189.761 162.675C189.487 162.271 189.114 161.944 188.678 161.723C188.243 161.502 187.758 161.395 187.27 161.412C186.782 161.429 186.306 161.57 185.887 161.821C185.468 162.071 185.119 162.424 184.873 162.846C192.956 148.996 207.021 137.478 219.814 128.622Z" fill="#423C52"/>
<path d="M255.776 85.3528H107.623C72.526 85.3528 44.6438 114.841 46.6221 149.868L49.6526 203.559C49.7179 204.721 50.2253 205.813 51.0707 206.612C51.9161 207.411 53.0354 207.857 54.1989 207.857H81.3317L79.6976 205.997C78.6908 204.852 77.9984 203.465 77.6881 201.973C77.3778 200.48 77.4601 198.933 77.9271 197.481L78.3662 196.115C80.1017 191.158 82.9916 186.685 86.7972 183.065C90.6028 179.444 95.2152 176.78 100.254 175.292L145.855 161.826C146.744 161.563 147.682 161.512 148.595 161.675C149.508 161.838 150.37 162.212 151.112 162.767C151.855 163.321 152.458 164.041 152.874 164.87C153.29 165.698 153.507 166.612 153.507 167.539V203.879C153.508 204.935 153.929 205.947 154.676 206.693C155.424 207.439 156.437 207.858 157.494 207.857H184.85C184.85 207.857 180.434 201.962 178.867 193.633C172.018 157.228 215.933 130.737 237.018 117.446L255.776 85.3528Z" fill="white" stroke="#423C52" stroke-width="5" stroke-miterlimit="10" stroke-linecap="round"/>
<path d="M237.019 117.446C234.891 118.787 232.53 120.263 230.012 121.871C217.915 110.403 214.483 97.7195 213.553 90.3702L213.91 90.7819C215.758 97.1015 220.543 107.735 232.745 116.093L232.806 116.134C234.046 116.987 235.514 117.444 237.019 117.446Z" fill="#423C52"/>
<path d="M260.135 90.752C258.296 97.0677 253.511 107.722 241.29 116.093L241.229 116.134C239.991 116.988 238.522 117.445 237.018 117.445C235.514 117.445 234.046 116.988 232.808 116.134L232.747 116.093C220.523 107.722 215.741 97.0677 213.901 90.752C213.122 88.0642 215.05 85.353 217.733 85.353H220.145C220.898 85.3578 221.639 85.5426 222.305 85.8921C222.972 86.2415 223.545 86.7455 223.977 87.3617L223.994 87.3851C224.074 87.4974 224.179 87.5889 224.301 87.6522C224.423 87.7154 224.558 87.7484 224.696 87.7484C224.833 87.7484 224.969 87.7154 225.091 87.6522C225.213 87.5889 225.318 87.4974 225.397 87.3851C226.318 86.1593 228.035 85.3504 230.107 85.3504H243.674C245.693 85.3504 247.45 86.1645 248.386 87.3981C248.466 87.5093 248.571 87.5998 248.693 87.6619C248.815 87.724 248.95 87.756 249.087 87.7551C249.224 87.7542 249.359 87.7205 249.48 87.6568C249.601 87.5931 249.706 87.5012 249.784 87.389L249.806 87.3591C250.238 86.7429 250.811 86.2389 251.478 85.8895C252.144 85.54 252.885 85.3552 253.638 85.3504H256.303C258.987 85.353 260.919 88.0642 260.135 90.752Z" fill="white" stroke="#423C52" stroke-width="5" stroke-miterlimit="10" stroke-linecap="round"/>
<path d="M216.386 90.0819C216.386 89.7802 216.506 89.4909 216.72 89.2776C216.933 89.0643 217.222 88.9445 217.524 88.9445H217.831C218.214 88.9436 218.594 89.0184 218.949 89.1645C219.303 89.3106 219.626 89.5252 219.897 89.796C220.168 90.0667 220.384 90.3884 220.531 90.7425C220.678 91.0966 220.753 91.4761 220.753 91.8595" stroke="#423C52" stroke-width="5" stroke-miterlimit="10" stroke-linecap="round"/>
<path d="M257.752 90.082C257.752 89.9326 257.722 89.7847 257.665 89.6467C257.608 89.5087 257.524 89.3833 257.419 89.2777C257.313 89.172 257.187 89.0883 257.049 89.0311C256.911 88.9739 256.763 88.9445 256.614 88.9445H256.309C255.926 88.9443 255.546 89.0196 255.192 89.166C254.838 89.3125 254.517 89.5272 254.246 89.7979C253.975 90.0686 253.76 90.39 253.613 90.7437C253.467 91.0975 253.391 91.4766 253.391 91.8596" stroke="#423C52" stroke-width="5" stroke-miterlimit="10" stroke-linecap="round"/>
<path d="M238.396 104.242H235.462C234.392 104.242 233.525 105.108 233.525 106.178V106.205C233.525 107.274 234.392 108.141 235.462 108.141H238.396C239.466 108.141 240.333 107.274 240.333 106.205V106.178C240.333 105.108 239.466 104.242 238.396 104.242Z" fill="#423C52"/>
<path d="M229.964 103.965C230.359 103.965 230.679 103.645 230.679 103.251C230.679 102.857 230.359 102.537 229.964 102.537C229.57 102.537 229.25 102.857 229.25 103.251C229.25 103.645 229.57 103.965 229.964 103.965Z" fill="#423C52"/>
<path d="M244.823 103.965C245.218 103.965 245.538 103.645 245.538 103.251C245.538 102.857 245.218 102.537 244.823 102.537C244.429 102.537 244.109 102.857 244.109 103.251C244.109 103.645 244.429 103.965 244.823 103.965Z" fill="#423C52"/>
<path d="M84.9378 37.98C84.9378 37.98 82.9413 34.4741 76.5725 37.11C71.3311 39.2771 68.7098 43.6348 59.7171 42.3181C50.7244 41.0015 25.2946 32.9978 25.2946 32.9978V32.6589L74.4162 31.6201C75.2278 31.6221 76.0241 31.8412 76.7224 32.2547C77.4206 32.6682 77.9954 33.261 78.3871 33.9716H82.775C83.3583 33.9716 83.9176 34.2032 84.33 34.6155C84.7425 35.0277 84.9742 35.5869 84.9742 36.1699L84.9378 37.98Z" fill="white" stroke="#423C52" stroke-width="5" stroke-linecap="round" stroke-linejoin="round"/>
<path d="M105.177 26.9561H99.3888C98.2386 26.9563 97.1081 26.6584 96.1076 26.0913L92.7303 24.18C91.7299 23.6123 90.5993 23.3139 89.4491 23.3139H85.3405L90.2622 22.3673C92.4803 21.3817 94.9502 21.1107 97.3293 21.5919C99.7084 22.0731 101.879 23.2826 103.539 25.0525L105.177 26.9561Z" fill="#423C52"/>
<path d="M90.1608 22.6438C91.5953 22.0062 93.1477 21.6766 94.7176 21.6765H80.7823C75.1528 21.6769 69.572 22.7189 64.3218 24.7499L44.9673 32.2355L69.7424 31.7161C69.7424 31.7161 88.9359 23.1048 90.1608 22.6438Z" fill="white" stroke="#423C52" stroke-width="5" stroke-miterlimit="10" stroke-linecap="round"/>
<path d="M84.9779 36.1699L84.9376 37.98C84.9376 37.98 82.9411 34.604 76.5723 37.2386C71.331 39.4057 68.7097 43.6348 59.717 42.3182C50.7242 41.0015 25.2944 32.9978 25.2944 32.9978V32.6589L36.1966 32.4291C33.9793 26.9561 20.4025 24.6137 0.366027 24.6137C-7.4953 24.6137 -7.63818 21.5467 -7.63818 21.5467H35.8134C40.8947 21.5466 45.8767 22.9543 50.206 25.6135L60.3924 31.9188L74.4134 31.624C75.2251 31.6252 76.0217 31.8435 76.7204 32.2563C77.4191 32.6691 77.9946 33.2614 78.387 33.9717H82.7749C83.064 33.9711 83.3504 34.0276 83.6176 34.1379C83.8849 34.2481 84.1278 34.41 84.3324 34.6141C84.537 34.8183 84.6994 35.0608 84.8101 35.3278C84.9209 35.5948 84.9779 35.8809 84.9779 36.1699Z" fill="white" stroke="#423C52" stroke-width="5" stroke-miterlimit="10" stroke-linecap="round"/>
<path d="M75.141 34.717C75.4639 34.717 75.7256 34.4554 75.7256 34.1327C75.7256 33.81 75.4639 33.5484 75.141 33.5484C74.8182 33.5484 74.5565 33.81 74.5565 34.1327C74.5565 34.4554 74.8182 34.717 75.141 34.717Z" fill="#423C52"/>
<path d="M36.0643 32.4291L44.8427 32.2993" stroke="#423C52" stroke-width="5" stroke-miterlimit="10" stroke-linecap="round"/>
<path d="M376.426 257.235C376.426 260.834 375.482 264.371 373.689 267.492C371.896 270.613 369.316 273.209 366.206 275.023C363.096 276.837 359.565 277.805 355.965 277.83C352.364 277.855 348.82 276.937 345.685 275.167C342.55 273.396 339.934 270.836 338.098 267.74C336.261 264.644 335.268 261.122 335.217 257.523C335.167 253.924 336.061 250.375 337.809 247.229C339.558 244.083 342.101 241.45 345.185 239.592V54.3354C345.185 51.5153 346.306 48.8107 348.301 46.8166C350.295 44.8225 353.001 43.7023 355.822 43.7023C358.643 43.7023 361.349 44.8225 363.344 46.8166C365.339 48.8107 366.459 51.5153 366.459 54.3354V239.593C369.502 241.425 372.018 244.012 373.765 247.104C375.511 250.195 376.428 253.685 376.426 257.235Z" fill="white" stroke="#423C52" stroke-width="5" stroke-miterlimit="10" stroke-linecap="round"/>
<path d="M349.209 73.7693H362.621" stroke="#423C52" stroke-width="5" stroke-miterlimit="10" stroke-linecap="round"/>
<path d="M349.209 84.1116H362.621" stroke="#423C52" stroke-width="5" stroke-miterlimit="10" stroke-linecap="round"/>
<path d="M349.209 94.4526H362.621" stroke="#423C52" stroke-width="5" stroke-miterlimit="10" stroke-linecap="round"/>
<path d="M349.209 104.795H362.621" stroke="#423C52" stroke-width="5" stroke-miterlimit="10" stroke-linecap="round"/>
<path d="M349.209 115.137H362.621" stroke="#423C52" stroke-width="5" stroke-miterlimit="10" stroke-linecap="round"/>
<path d="M349.209 125.479H362.621" stroke="#423C52" stroke-width="5" stroke-miterlimit="10" stroke-linecap="round"/>
<path d="M349.209 135.821H362.621" stroke="#423C52" stroke-width="5" stroke-miterlimit="10" stroke-linecap="round"/>
<path d="M349.209 146.164H362.621" stroke="#423C52" stroke-width="5" stroke-miterlimit="10" stroke-linecap="round"/>
<path d="M349.209 156.506H362.621" stroke="#423C52" stroke-width="5" stroke-miterlimit="10" stroke-linecap="round"/>
<path d="M349.209 166.848H362.621" stroke="#423C52" stroke-width="5" stroke-miterlimit="10" stroke-linecap="round"/>
<path d="M349.209 177.19H362.621" stroke="#423C52" stroke-width="5" stroke-miterlimit="10" stroke-linecap="round"/>
<path d="M349.209 187.533H362.621" stroke="#423C52" stroke-width="5" stroke-miterlimit="10" stroke-linecap="round"/>
<path d="M349.209 197.875H362.621" stroke="#423C52" stroke-width="5" stroke-miterlimit="10" stroke-linecap="round"/>
<path d="M349.209 208.217H362.621" stroke="#423C52" stroke-width="5" stroke-miterlimit="10" stroke-linecap="round"/>
<path d="M349.209 218.559H362.621" stroke="#423C52" stroke-width="5" stroke-miterlimit="10" stroke-linecap="round"/>
<path d="M349.209 228.902H362.621" stroke="#423C52" stroke-width="5" stroke-miterlimit="10" stroke-linecap="round"/>
<path d="M349.209 239.244H362.621" stroke="#423C52" stroke-width="5" stroke-miterlimit="10" stroke-linecap="round"/>
<path d="M358.983 65.2073V94.1007H352.662V65.2073C352.662 63.4583 353.932 62.0417 355.499 62.0417H356.148C357.712 62.0417 358.983 63.4583 358.983 65.2073Z" fill="white" stroke="#80AE09" stroke-width="6" stroke-linejoin="round"/>
<path d="M359.35 94.1006H352.293V146.21H359.35V94.1006Z" fill="#80AE09"/>
<path d="M363.092 257.198C363.094 258.465 362.764 259.71 362.135 260.811C361.506 261.911 360.601 262.828 359.508 263.471C358.416 264.114 357.174 264.46 355.907 264.475C354.639 264.491 353.389 264.175 352.282 263.558C351.174 262.942 350.246 262.048 349.591 260.963C348.936 259.878 348.576 258.641 348.546 257.374C348.516 256.107 348.819 254.855 349.423 253.74C350.026 252.626 350.911 251.689 351.989 251.022H359.653C360.705 251.673 361.573 252.582 362.175 253.663C362.777 254.744 363.093 255.961 363.092 257.198Z" fill="#BECDC8"/>
<path d="M359.654 251.022H351.99C352.089 250.959 352.19 250.9 352.294 250.842V197.931H359.353V250.842C359.454 250.9 359.554 250.959 359.654 251.022Z" fill="#BECDC8"/>
<path d="M352.793 197.429V146.711H358.85V197.429H352.793Z" fill="#236348" stroke="#80AE09"/>
<path d="M357.703 104.734V252.859C358.739 253.434 359.602 254.275 360.202 255.295C360.803 256.316 361.12 257.478 361.119 258.662" stroke="#DBEEA9" stroke-width="5" stroke-miterlimit="10" stroke-linecap="round"/>
</svg>
