<svg width="16" height="16" viewBox="0 0 16 16" fill="none" xmlns="http://www.w3.org/2000/svg">
<path d="M14.1 14.6H14.6V14.1V13C14.6 12.7295 14.4457 12.5182 14.3307 12.3909C14.2013 12.2475 14.0306 12.1118 13.8421 11.986C13.4624 11.7325 12.9426 11.4745 12.3437 11.2435C11.1456 10.7814 9.55913 10.4 8 10.4C6.44087 10.4 4.8544 10.7814 3.65632 11.2435C3.05741 11.4745 2.53759 11.7325 2.15785 11.986C1.96945 12.1118 1.79872 12.2475 1.66925 12.3909C1.55427 12.5182 1.4 12.7295 1.4 13V14.1V14.6H1.9H14.1ZM10.6 4C10.6 2.56386 9.43614 1.4 8 1.4C6.56386 1.4 5.4 2.56386 5.4 4C5.4 5.43614 6.56386 6.6 8 6.6C9.43614 6.6 10.6 5.43614 10.6 4ZM4.5 4C4.5 2.06614 6.06614 0.5 8 0.5C9.93386 0.5 11.5 2.06614 11.5 4C11.5 5.93386 9.93386 7.5 8 7.5C6.06614 7.5 4.5 5.93386 4.5 4ZM0.5 13C0.5 12.5186 0.737162 12.06 1.21364 11.6202C1.69352 11.1773 2.38208 10.7882 3.18469 10.4666C4.79071 9.82327 6.7275 9.5 8 9.5C9.2725 9.5 11.2093 9.82327 12.8153 10.4666C13.6179 10.7882 14.3065 11.1773 14.7864 11.6202C15.2628 12.06 15.5 12.5186 15.5 13V15.5H0.5V13Z" fill="#FF7A63" stroke="#FF7A63"/>
</svg>
