<svg width="310" height="303" viewBox="0 0 310 303" fill="none" xmlns="http://www.w3.org/2000/svg">
<path d="M213.009 205.099H180.353V274.019H213.009V205.099Z" fill="#DBE5E5"/>
<path d="M164.035 217.417H115.774V274.019H164.035V217.417Z" fill="#DBE5E5"/>
<path d="M122.562 171.457V273.746H112.365V171.457C112.385 170.193 112.931 168.988 113.885 168.101C114.839 167.214 116.125 166.717 117.464 166.717C118.803 166.717 120.088 167.214 121.042 168.101C121.996 168.988 122.542 170.193 122.562 171.457V171.457Z" fill="white" stroke="#423C52" stroke-width="5" stroke-miterlimit="10" stroke-linecap="round"/>
<path d="M122.544 223.561V273.747H112.347V232.969L122.544 223.561Z" fill="#423C52"/>
<path d="M121.492 173.031C122.413 170.932 121.357 168.525 119.133 167.656C116.908 166.786 114.358 167.783 113.437 169.882C112.516 171.981 113.572 174.388 115.796 175.257C118.02 176.127 120.57 175.13 121.492 173.031Z" fill="#423C52"/>
<path d="M122.302 180.01V182.754C121.736 183.461 121.004 184.035 120.163 184.43C119.322 184.824 118.395 185.029 117.456 185.028C116.517 185.026 115.591 184.819 114.752 184.422C113.912 184.025 113.181 183.45 112.618 182.741V179.981C112.991 180.906 113.653 181.703 114.515 182.266C115.378 182.828 116.401 183.131 117.449 183.134C118.498 183.137 119.523 182.84 120.389 182.283C121.256 181.725 121.922 180.932 122.302 180.01V180.01Z" fill="#FE552F"/>
<path d="M122.302 176.13V178.874C121.736 179.581 121.003 180.155 120.163 180.549C119.322 180.944 118.395 181.148 117.456 181.147C116.517 181.146 115.591 180.939 114.752 180.542C113.912 180.145 113.182 179.57 112.618 178.861V176.102C112.991 177.026 113.653 177.823 114.515 178.386C115.378 178.948 116.401 179.251 117.449 179.254C118.498 179.258 119.523 178.961 120.389 178.403C121.256 177.845 121.922 177.053 122.302 176.13V176.13Z" fill="#FE552F"/>
<path d="M155.51 171.457V234.392H145.313V171.457C145.313 170.181 145.851 168.957 146.807 168.055C147.763 167.152 149.059 166.646 150.412 166.646C151.764 166.646 153.06 167.152 154.016 168.055C154.972 168.957 155.51 170.181 155.51 171.457V171.457Z" fill="white" stroke="#423C52" stroke-width="5" stroke-miterlimit="10" stroke-linecap="round"/>
<path d="M154.439 173.031C155.36 170.932 154.304 168.526 152.08 167.656C149.856 166.787 147.306 167.784 146.384 169.883C145.463 171.982 146.519 174.388 148.744 175.258C150.968 176.127 153.518 175.131 154.439 173.031Z" fill="#423C52"/>
<path d="M155.255 176.13V178.874C154.689 179.581 153.957 180.155 153.116 180.549C152.275 180.944 151.348 181.148 150.409 181.147C149.47 181.146 148.545 180.939 147.705 180.542C146.865 180.145 146.135 179.57 145.571 178.861V176.102C145.944 177.026 146.606 177.823 147.468 178.386C148.331 178.948 149.354 179.251 150.403 179.254C151.451 179.258 152.476 178.961 153.342 178.403C154.209 177.845 154.875 177.053 155.255 176.13V176.13Z" fill="#FE552F"/>
<path d="M155.255 180.01V182.754C154.689 183.461 153.957 184.035 153.116 184.43C152.275 184.824 151.348 185.029 150.409 185.028C149.47 185.026 148.544 184.819 147.705 184.422C146.865 184.025 146.135 183.45 145.571 182.741V179.981C145.944 180.906 146.606 181.703 147.468 182.266C148.331 182.828 149.354 183.131 150.403 183.134C151.451 183.137 152.476 182.84 153.342 182.283C154.209 181.725 154.875 180.932 155.255 180.01V180.01Z" fill="#FE552F"/>
<path d="M155.51 223.561V234.392H145.313V232.969L155.51 223.561Z" fill="#423C52"/>
<path d="M184.245 234.107H122.562V274.018H184.245V234.107Z" fill="#423C52"/>
<path d="M197.37 234.392H135.688V274.019H197.37V234.392Z" fill="white" stroke="#423C52" stroke-width="5" stroke-miterlimit="10" stroke-linecap="round"/>
<path d="M197.608 224.506H160.755V234.392H197.608V224.506Z" fill="#423C52"/>
<path d="M197.384 224.79H173.199V234.392H197.384V224.79Z" fill="white" stroke="#423C52" stroke-width="5" stroke-miterlimit="10" stroke-linecap="round"/>
<path d="M223 249.83H197.372V274.018H223V249.83Z" fill="white" stroke="#423C52" stroke-width="5" stroke-miterlimit="10" stroke-linecap="round"/>
<path d="M144.432 240.322H141.041V244.276H144.432V240.322Z" fill="#423C52"/>
<path d="M159.896 240.322H156.505V244.276H159.896V240.322Z" fill="#423C52"/>
<path d="M175.361 240.322H171.97V244.276H175.361V240.322Z" fill="#423C52"/>
<path d="M190.824 240.322H187.434V244.276H190.824V240.322Z" fill="#423C52"/>
<path d="M201.787 255.404V268.93" stroke="#FE552F" stroke-width="5" stroke-miterlimit="10" stroke-linecap="round"/>
<path d="M205.094 255.404V268.93" stroke="#FE552F" stroke-width="5" stroke-miterlimit="10" stroke-linecap="round"/>
<path d="M208.399 255.404V268.93" stroke="#FE552F" stroke-width="5" stroke-miterlimit="10" stroke-linecap="round"/>
<path d="M211.707 255.404V268.93" stroke="#FE552F" stroke-width="5" stroke-miterlimit="10" stroke-linecap="round"/>
<path d="M215.014 255.404V268.93" stroke="#FE552F" stroke-width="5" stroke-miterlimit="10" stroke-linecap="round"/>
<path d="M218.32 255.404V268.93" stroke="#FE552F" stroke-width="5" stroke-miterlimit="10" stroke-linecap="round"/>
<path d="M144.153 274.019H52.1885C69.1819 261.932 80.2783 242.006 80.2783 219.471C80.2783 214.974 88.2897 211.329 98.171 211.329C108.052 211.329 116.064 214.974 116.064 219.471C116.064 242.006 127.16 261.932 144.153 274.019Z" fill="white" stroke="#423C52" stroke-width="5" stroke-miterlimit="10" stroke-linecap="round"/>
<path d="M98.1709 227.235C107.256 227.235 114.62 223.883 114.62 219.749C114.62 215.614 107.256 212.263 98.1709 212.263C89.0863 212.263 81.7217 215.614 81.7217 219.749C81.7217 223.883 89.0863 227.235 98.1709 227.235Z" fill="#423C52"/>
<path d="M80.0671 227.408C80.112 231.528 88.075 234.895 98.1811 234.895C108.287 234.895 116.281 231.563 116.327 227.443L116.937 231.498C115.162 235.108 107.551 237.828 98.1811 237.828C88.784 237.828 81.2131 235.068 79.4688 231.442L80.0671 227.408Z" fill="#FE552F"/>
<path d="M99.965 274.019H8C24.9934 261.932 36.0898 242.006 36.0898 219.471C36.0898 214.974 44.1012 211.329 53.9825 211.329C63.8638 211.329 71.8751 214.974 71.8751 219.471C71.8751 242.006 82.9716 261.932 99.965 274.019Z" fill="white" stroke="#423C52" stroke-width="5" stroke-miterlimit="10" stroke-linecap="round"/>
<path d="M53.9825 227.235C63.0671 227.235 70.4317 223.883 70.4317 219.749C70.4317 215.614 63.0671 212.263 53.9825 212.263C44.8978 212.263 37.5332 215.614 37.5332 219.749C37.5332 223.883 44.8978 227.235 53.9825 227.235Z" fill="#423C52"/>
<path d="M35.871 227.472C35.9148 231.592 44.1118 234.926 54.2179 234.926C64.324 234.926 72.0402 231.586 72.0875 227.466L72.695 231.505C70.9196 235.114 63.5873 237.858 54.2213 237.858C44.8242 237.858 37.0273 235.137 35.2842 231.513L35.871 227.472Z" fill="#FE552F"/>
<path d="M144.824 108.109C144.824 115.758 141.586 122.65 136.012 128.617C133.865 130.915 131.371 132.813 128.583 134.731V156.742H121.522C121.522 156.742 112.845 152.093 116.4 144.504C117.183 142.834 118.72 141.265 120.702 139.691C122.888 137.952 125.616 136.59 128.471 134.692C127.027 117.449 111.783 103.503 93.1933 103.503C83.0375 103.503 73.8784 107.552 67.4265 114.037C74.5739 119.205 79.1202 126.974 79.1202 135.658C79.1202 138.248 78.7099 140.822 77.9028 143.297C79.9658 143.834 81.9076 144.722 83.6324 145.918C87.2284 148.429 89.5072 152.165 89.5072 156.335C89.5072 161.525 85.9786 166.041 80.7765 168.36C78.271 169.468 75.5364 170.036 72.7698 170.026C66.0721 170.026 60.293 166.809 57.6181 162.157C54.0264 163.279 50.2669 163.848 46.4837 163.843C28.4616 163.843 13.8521 151.223 13.8521 135.655C13.8521 123.423 22.87 113.013 35.4758 109.111V108.109C35.4758 99.0046 40.0635 89.8789 47.7172 83.3299C57.7456 74.748 73.0303 70.0305 90.1524 70.0305C95.9901 70.0203 101.808 70.6756 107.479 71.9821C107.479 71.9821 100.926 78.4875 104.07 87.8996C105.565 77.183 114.758 68.9336 125.875 68.9336C138.035 68.9336 147.893 78.8023 147.893 90.975L144.824 108.109Z" fill="#DBE5E5"/>
<path d="M79.6777 181.252C86.317 181.252 91.6992 179.571 91.6992 177.497C91.6992 175.423 86.317 173.742 79.6777 173.742C73.0385 173.742 67.6562 175.423 67.6562 177.497C67.6562 179.571 73.0385 181.252 79.6777 181.252Z" fill="#DBE5E5"/>
<path d="M237.858 76.1748C239.651 76.1748 241.105 74.803 241.105 73.1108C241.105 71.4187 239.651 70.0469 237.858 70.0469C236.066 70.0469 234.612 71.4187 234.612 73.1108C234.612 74.803 236.066 76.1748 237.858 76.1748Z" fill="#DBE5E5"/>
<path d="M50.7939 157.659C52.5235 157.659 53.9257 156.336 53.9257 154.703C53.9257 153.071 52.5235 151.748 50.7939 151.748C49.0643 151.748 47.6621 153.071 47.6621 154.703C47.6621 156.336 49.0643 157.659 50.7939 157.659Z" fill="white"/>
<path d="M24.3528 90.7354C30.6227 90.7354 35.7056 85.9382 35.7056 80.0205C35.7056 74.1029 30.6227 69.3057 24.3528 69.3057C18.0828 69.3057 13 74.1029 13 80.0205C13 85.9382 18.0828 90.7354 24.3528 90.7354Z" fill="#DBE5E5"/>
<path d="M237.858 90.719C237.858 97.6831 234.546 103.901 229.357 107.991C225.452 111.638 219.687 114.785 211.186 116.358C193.368 119.656 175.542 112.511 175.542 112.511L146.361 134.821C146.361 134.821 160.182 142.892 151.474 156.742H144.296V106.021C144.296 96.0202 152.887 87.9125 163.483 87.9125H165.712C166.658 85.7194 168.136 83.7665 170.027 82.2109C171.919 80.6553 174.17 79.5403 176.602 78.9557C179.033 78.3712 181.575 78.3333 184.025 78.8451C186.474 79.357 188.762 80.4043 190.705 81.9028C189.873 84.7822 189.672 87.7913 190.114 90.7464C190.556 93.7016 191.632 96.5406 193.276 99.0902C192.158 96.4255 191.586 93.5849 191.59 90.719C191.59 78.4046 201.947 68.4219 214.719 68.4219C227.492 68.4219 237.858 78.4046 237.858 90.719Z" fill="#DBE5E5"/>
<path d="M82.897 142.642C84.0176 142.642 84.9259 141.785 84.9259 140.727C84.9259 139.67 84.0176 138.812 82.897 138.812C81.7765 138.812 80.8682 139.67 80.8682 140.727C80.8682 141.785 81.7765 142.642 82.897 142.642Z" fill="#DBE5E5"/>
<path d="M150.67 102.338C151.342 102.338 151.887 101.823 151.887 101.189C151.887 100.554 151.342 100.04 150.67 100.04C149.998 100.04 149.453 100.554 149.453 101.189C149.453 101.823 149.998 102.338 150.67 102.338Z" fill="white"/>
<path d="M157.187 100.347C159.204 100.347 160.839 98.8035 160.839 96.8999C160.839 94.9963 159.204 93.4531 157.187 93.4531C155.17 93.4531 153.535 94.9963 153.535 96.8999C153.535 98.8035 155.17 100.347 157.187 100.347Z" fill="white"/>
<path d="M307.657 282.717C307.465 282.766 288.468 287.475 275.331 283.708C268.465 270.835 215.898 182.883 212.992 171.705C213.082 172.317 218.878 211.475 226.673 231.381C234.456 251.256 232.988 270.948 230.114 284.064C230.114 284.064 210.207 285.951 197.501 284.064C195.725 257.574 178.222 187.521 178.293 130.576C178.293 130.576 182.471 133.759 190.681 137.601C200.76 142.319 216.916 148.026 238.875 150.055C238.875 150.055 240.201 153.514 242.89 159.212C247.918 169.848 257.712 188.26 272.525 206.342C292.147 230.294 307.093 249.38 307.657 282.717Z" fill="#FE552F"/>
<path d="M212.993 171.705L209.109 163.808" stroke="#423C52" stroke-width="5" stroke-miterlimit="10" stroke-linecap="round"/>
<path d="M242.889 159.217C226.663 154.342 204.344 144.614 190.68 137.606C200.758 142.324 216.915 148.031 238.874 150.06C238.882 150.058 240.201 153.526 242.889 159.217Z" fill="#423C52"/>
<path d="M306.543 299.771H274.188C274.188 299.771 280.661 293.786 276.038 284.534C275.926 284.309 275.783 284.034 275.61 283.711C288.745 287.478 307.186 282.768 307.378 282.721C307.456 288.416 307.177 294.11 306.543 299.771V299.771Z" fill="white" stroke="#423C52" stroke-width="5" stroke-miterlimit="10" stroke-linecap="round"/>
<path d="M298.779 299.771C298.779 299.771 300.998 296.689 301.461 292.878Z" fill="white"/>
<path d="M298.779 299.771C298.779 299.771 300.998 296.689 301.461 292.878" stroke="#423C52" stroke-width="5" stroke-miterlimit="10" stroke-linecap="round"/>
<path d="M281.029 289.701H290.792" stroke="#423C52" stroke-width="5" stroke-miterlimit="10" stroke-linecap="round"/>
<path d="M280.89 291.75H290.653" stroke="#423C52" stroke-width="5" stroke-miterlimit="10" stroke-linecap="round"/>
<path d="M229.835 284.062C227.726 293.688 225.009 299.768 225.009 299.768H220.841C220.841 299.768 221.125 294.242 218.162 294.237L212.903 299.771H184.518C184.518 299.771 198.317 293.608 197.831 284.897C197.815 284.625 197.799 284.348 197.78 284.065C210.486 285.951 229.835 284.062 229.835 284.062Z" fill="white" stroke="#423C52" stroke-width="5" stroke-miterlimit="10" stroke-linecap="round"/>
<path d="M194.519 289.701H202.887" stroke="#423C52" stroke-width="5" stroke-miterlimit="10" stroke-linecap="round"/>
<path d="M192.986 291.751H201.355" stroke="#423C52" stroke-width="5" stroke-miterlimit="10" stroke-linecap="round"/>
<path d="M218.526 57.0051C215.738 56.0615 213.296 53.2025 214.618 51.4066C215.615 50.0557 232.719 49.889 237.849 53.6366C239.351 54.7601 240.563 56.2147 241.385 57.8826C241.721 58.5464 242.19 59.1362 242.765 59.616C243.34 60.0958 244.009 60.4556 244.731 60.6734C245.452 60.8912 246.212 60.9624 246.962 60.8828C247.713 60.8031 248.439 60.5742 249.097 60.2101C254.15 57.3888 261.881 54.8836 270.113 58.8734C285.543 66.348 279.531 84.0069 279.531 84.0069C279.531 84.0069 294.417 75.3276 302.601 87.4336C311.096 100.005 299.748 116.999 279.712 118.1C259.677 119.2 257.63 109.631 254.035 102.024C250.369 94.265 254.298 82.4248 254.298 82.4248C254.298 82.4248 242.099 88.0941 233.903 84.1641C224.145 79.4856 229.67 68.8752 229.67 68.8752L218.526 57.0051Z" fill="#A0505A"/>
<path d="M298.78 123.673C300.993 123.673 302.787 121.913 302.787 119.741C302.787 117.57 300.993 115.81 298.78 115.81C296.567 115.81 294.772 117.57 294.772 119.741C294.772 121.913 296.567 123.673 298.78 123.673Z" fill="#A0505A"/>
<path d="M252.698 151.83L247.069 151.109C247.034 150.841 242.871 118.409 238.093 117.689C231.393 116.679 238.878 150.06 238.878 150.06C199.035 146.378 178.291 130.581 178.291 130.581C178.302 121.838 178.734 113.407 179.71 105.487C179.71 105.487 158.751 121.473 141.808 114.737C138.743 113.52 136.321 110.692 133.954 107.259L150.496 85.8955L179.7 69.8171C183.466 67.7035 187.702 66.5275 192.038 66.3921C196.374 66.2567 200.678 67.1659 204.573 69.0402L241.222 86.6818C247.025 89.4764 251.771 94.0104 254.774 99.6275L268.736 125.766C275.223 137.902 266.662 152.26 252.698 151.83Z" fill="white" stroke="#423C52" stroke-width="5" stroke-miterlimit="10" stroke-linecap="round"/>
<path d="M179.711 105.487L181.375 90.8838" stroke="#423C52" stroke-width="5" stroke-miterlimit="10" stroke-linecap="round"/>
<path d="M243.806 170.746L107.184 28.9746" stroke="#423C52" stroke-width="5" stroke-miterlimit="10" stroke-linecap="round"/>
<path d="M127.719 3.00293L130.049 14.7771C130.223 15.659 130.151 16.5706 129.841 17.4156C129.531 18.2607 128.993 19.0079 128.286 19.5783L91.4659 49.2723C90.7591 49.8427 89.9083 50.2152 89.0034 50.3503C88.0986 50.4854 87.1734 50.3781 86.3256 50.0397L75 45.5248L127.719 3.00293Z" fill="white" stroke="#423C52" stroke-width="5" stroke-linecap="round" stroke-linejoin="round"/>
<path d="M128.988 18.8834C128.776 19.136 128.539 19.3682 128.282 19.5769L128.261 19.5942L127.45 20.2484L126.728 20.8302L122.688 24.0918L122.144 24.529L121.808 24.8011L121.423 25.1156L116.841 28.8097L116.235 29.2972L116.118 29.3915L115.355 30.0064L111.537 33.0856L110.814 33.669L109.782 34.5025L108.903 35.2102L106.231 37.3647L105.509 37.9481L103.329 39.7063L102.45 40.4139L100.928 41.6437L100.203 42.2272L96.8709 44.9069L95.9925 45.6146L95.6158 45.9196L94.893 46.5015L91.4597 49.2709C91.1106 49.5528 90.7246 49.7877 90.3121 49.9691C90.1935 50.021 90.0732 50.0698 89.953 50.1122C89.8328 50.1547 89.711 50.1909 89.5908 50.2239C88.579 50.5 87.5048 50.461 86.5166 50.1122L86.3194 50.0383L85.0067 49.5146L84.2854 49.2268L79.7029 47.3995L78.9801 47.1133L75.2326 45.6146L75.0034 45.5234L75.768 44.9069L78.9897 42.3074L79.7125 41.7255L81.341 40.4108L82.2194 39.7031L84.3031 38.0299L85.0243 37.4464L87.802 35.207L88.6804 34.4994L89.6084 33.7492L90.3297 33.1674L94.2534 30.0033L94.9106 29.4733L95.1334 29.294L95.6335 28.8899L100.214 25.1942L100.706 24.7979L100.939 24.6108L101.58 24.0887L105.513 20.9152L106.236 20.3333L107.153 19.5942L108.031 18.8834L110.815 16.6377L111.538 16.0542L113.603 14.3888L114.481 13.6796L116.119 12.357L116.842 11.7752L120.056 9.1835L120.933 8.47583L121.425 8.07953L122.146 7.49766L126.509 3.97973L126.73 3.80045L127.386 3.27048L127.451 3.21702L127.722 3L127.775 3.27048L127.915 3.97973L128.802 8.47583L128.942 9.1835L129.83 13.6796L129.969 14.3888L130.045 14.7757C130.187 15.4945 130.166 16.2352 129.984 16.9451C129.801 17.6551 129.461 18.3168 128.988 18.8834V18.8834Z" fill="white" stroke="#423C52" stroke-width="5" stroke-linecap="round" stroke-linejoin="round"/>
<path d="M79.7087 41.7256V47.3997L78.9858 47.1134V42.3075L79.7087 41.7256Z" fill="#423C52"/>
<path d="M85.0127 37.4463V49.5146L84.2915 49.2269V38.0297L85.0127 37.4463Z" fill="#423C52"/>
<path d="M90.3185 33.1675V49.9691C90.1999 50.021 90.0796 50.0698 89.9594 50.1122C89.8392 50.1547 89.7174 50.1909 89.5972 50.2239V33.7493L90.3185 33.1675Z" fill="#423C52"/>
<path d="M95.6218 28.8896V45.9196L94.8989 46.5015V29.4731L95.1217 29.2938L95.6218 28.8896Z" fill="#423C52"/>
<path d="M100.928 24.6108V41.6407L100.203 42.2241V25.1943L100.695 24.798L100.928 24.6108Z" fill="#423C52"/>
<path d="M106.231 20.333V37.3611L105.508 37.9446V20.9149L106.231 20.333Z" fill="#423C52"/>
<path d="M111.536 16.0527V33.0828L110.813 33.6663V16.6378L111.536 16.0527Z" fill="#423C52"/>
<path d="M116.84 11.7749V28.8063L116.235 29.2938L116.119 29.3882V12.3568L116.84 11.7749Z" fill="#423C52"/>
<path d="M122.144 7.49756V24.5255L121.808 24.7975L121.423 25.1089V8.07942L122.144 7.49756Z" fill="#423C52"/>
<path d="M127.449 3.21777V20.2492L126.728 20.8311V3.80121L127.384 3.27124L127.449 3.21777Z" fill="#423C52"/>
<path d="M89.9594 50.1123C89.8392 50.1548 89.7174 50.1909 89.5972 50.2239C88.5854 50.4999 87.5112 50.4609 86.5229 50.1123H89.9594Z" fill="#423C52"/>
<path d="M96.8771 44.9072L95.9987 45.6147H75.2292L75 45.5236L75.7645 44.9072H96.8771Z" fill="#423C52"/>
<path d="M103.329 39.7031L102.45 40.4106H81.3379L82.2162 39.7031H103.329Z" fill="#423C52"/>
<path d="M109.781 34.498L108.903 35.2073H87.79L88.6684 34.498H109.781Z" fill="#423C52"/>
<path d="M116.235 29.2939L116.119 29.3883L115.355 30.0034H94.2422L94.8993 29.4733L95.1221 29.2939H116.235Z" fill="#423C52"/>
<path d="M122.688 24.0889L122.145 24.526L121.808 24.7981H100.696L100.928 24.611L101.576 24.0889H122.688Z" fill="#423C52"/>
<path d="M128.988 18.8833C128.776 19.1361 128.539 19.3684 128.281 19.5772L128.26 19.5945H107.148L108.026 18.8833H128.988Z" fill="#423C52"/>
<path d="M129.968 14.3892H113.602L114.48 13.6797H129.829L129.968 14.3892Z" fill="#423C52"/>
<path d="M128.94 9.18335H120.054L120.931 8.47559H128.801L128.94 9.18335Z" fill="#423C52"/>
<path d="M127.912 3.97974H126.507L126.728 3.80046L127.384 3.27051H127.773L127.912 3.97974Z" fill="#423C52"/>
<path d="M267.816 144.385C266.467 146.861 264.276 148.794 261.624 149.85V149.85C261.446 149.921 261.265 149.985 261.081 150.048C262.706 148.894 264.03 147.38 264.946 145.629C265.863 143.879 266.345 141.94 266.354 139.972V139.935C266.355 136.979 265.226 134.131 263.191 131.953C261.156 129.774 258.363 128.423 255.362 128.165L247.072 127.87L251.289 126.549C259.329 124.004 266.606 128.061 268.712 134.014L268.723 134.052C269.313 135.741 269.537 137.533 269.381 139.312C269.224 141.092 268.692 142.819 267.816 144.385V144.385Z" fill="#423C52"/>
<path d="M266.351 139.975V139.935C266.351 136.98 265.223 134.133 263.188 131.955C261.153 129.776 258.359 128.426 255.359 128.169L213.416 126.667L212.911 125.757C212.243 124.553 211.31 123.51 210.18 122.704C209.05 121.897 207.751 121.348 206.378 121.095C204.89 120.821 203.356 120.904 201.908 121.336L198.17 122.852L194.044 118.509C194.005 118.47 193.957 118.441 193.903 118.426C193.85 118.411 193.794 118.41 193.74 118.423C193.686 118.436 193.636 118.462 193.596 118.499C193.555 118.537 193.525 118.584 193.509 118.636C192.783 121.21 189.808 132.418 191.927 135.919C197.184 144.606 232.363 150.206 253.04 152.225C260.166 152.925 266.351 147.009 266.351 139.975Z" fill="#FFDB00"/>
<path d="M192.453 124.396C192.435 125.139 192.328 126.468 192.754 127.175C193.688 128.717 195.564 130.149 198.135 131.472" stroke="#423C52" stroke-width="5" stroke-miterlimit="10" stroke-linecap="round"/>
<path d="M191.651 128.799C191.634 129.542 191.526 130.871 191.953 131.578C192.887 133.119 194.762 134.552 197.333 135.875" stroke="#423C52" stroke-width="5" stroke-miterlimit="10" stroke-linecap="round"/>
<path d="M193.692 118.729C193.676 119.471 193.442 122.094 193.87 122.8C194.803 124.343 196.68 125.776 199.249 127.098" stroke="#423C52" stroke-width="5" stroke-miterlimit="10" stroke-linecap="round"/>
<path d="M198.581 122.992L204.179 124.806" stroke="#423C52" stroke-width="5" stroke-miterlimit="10" stroke-linecap="round"/>
<path d="M213.416 126.667V130.581" stroke="#423C52" stroke-width="5" stroke-miterlimit="10" stroke-linecap="round"/>
<path d="M158.157 107.598C156.778 110.356 154.44 112.54 151.565 113.757C151.454 113.805 151.342 113.85 151.228 113.896C149.156 114.721 146.909 115.035 144.685 114.812C142.46 114.589 140.324 113.836 138.465 112.617C137.485 111.738 136.588 110.774 135.783 109.738C137.967 111.536 140.709 112.553 143.559 112.622C146.409 112.692 149.198 111.81 151.47 110.12C153.743 108.431 155.363 106.035 156.065 103.324C156.768 100.613 156.511 97.7483 155.338 95.1992L153.326 90.8242L154.41 91.6703C159.281 95.4885 160.912 102.122 158.157 107.598Z" fill="#423C52"/>
<path d="M148.581 111.727C145.976 112.764 143.093 112.914 140.391 112.154C137.688 111.393 135.324 109.766 133.675 107.533V107.533C133.444 107.196 133.215 106.85 132.989 106.498C132.989 106.493 132.989 106.489 132.989 106.484C122 89.2481 118.647 52.9678 120.006 47.8049C121.165 43.3812 134.058 41.2739 134.981 42.3637C135.682 43.1878 140.835 53.6865 143.295 58.7346C143.643 59.4485 143.691 60.2678 143.429 61.0161C143.167 61.7644 142.616 62.3818 141.894 62.7354L140.516 63.4069L151.055 85.8952L155.336 95.2035C156.032 96.719 156.41 98.3569 156.446 100.019C156.482 101.681 156.175 103.333 155.544 104.876C154.914 106.419 153.972 107.822 152.775 108.999C151.579 110.176 150.152 111.104 148.581 111.727Z" fill="#FFDB00"/>
<path d="M125.676 47.8894C129.911 46.0209 135.882 45.3195 136.5 46.0492" stroke="#423C52" stroke-width="5" stroke-miterlimit="10" stroke-linecap="round"/>
<path d="M127.905 52.1265C132.14 50.2598 138.112 49.5585 138.729 50.2866" stroke="#423C52" stroke-width="5" stroke-miterlimit="10" stroke-linecap="round"/>
<path d="M130.274 56.9097C134.509 55.043 140.481 54.3417 141.098 55.0698" stroke="#423C52" stroke-width="5" stroke-miterlimit="10" stroke-linecap="round"/>
<path d="M143.879 67.1389L139.142 60.2964C139.062 60.114 138.916 59.9667 138.733 59.8819C138.55 59.7971 138.341 59.7806 138.147 59.8356L137.693 59.9614C137.539 60.0047 137.401 60.0904 137.295 60.2084C137.19 60.3263 137.121 60.4716 137.096 60.6269C137.072 60.7822 137.094 60.9411 137.159 61.0846C137.224 61.2281 137.33 61.3503 137.464 61.4366L143.879 67.1389Z" fill="#423C52"/>
<path d="M229.694 67.521V80.8472C229.694 80.8472 226.97 85.0759 221.586 83.2249C216.832 81.591 217.556 74.7958 217.556 74.7958L217.748 68.5919L229.694 67.521Z" fill="#FFDB00"/>
<path d="M217.748 68.7296L229.694 67.6587V81.4238L217.695 70.0318L217.748 68.7296Z" fill="#423C52"/>
<path d="M234.365 66.4235C234.277 66.7867 234.118 67.1293 233.895 67.4318C233.672 67.7344 233.391 67.9909 233.067 68.1868C232.744 68.3826 232.384 68.514 232.008 68.5733C231.633 68.6326 231.249 68.6187 230.879 68.5324L228.704 68.0276L228.685 68.0858C228.685 68.0858 223.975 72.0173 218.665 69.8895C213.355 67.7618 218.665 57.0649 218.665 57.0649C223.347 59.5811 228.183 58.3498 229.813 58.2743C231.555 58.1941 230.775 61.6066 230.517 62.6084L232.214 63.0031C232.584 63.0891 232.933 63.2458 233.242 63.4642C233.55 63.6826 233.812 63.9585 234.012 64.2762C234.211 64.5938 234.345 64.9469 234.406 65.3154C234.467 65.6838 234.453 66.0604 234.365 66.4235V66.4235Z" fill="#FFDB00"/>
<path d="M230.278 65.937C230.392 65.4675 230.691 65.0615 231.109 64.8082C231.528 64.5549 232.032 64.4749 232.51 64.586" stroke="#423C52" stroke-width="5" stroke-miterlimit="10" stroke-linecap="round"/>
<path d="M218.304 58.6777C218.304 58.6777 220.681 60.2629 219.461 65.2229" stroke="#423C52" stroke-width="5" stroke-miterlimit="10" stroke-linecap="round"/>
<path d="M223.686 60.1406C223.686 60.1406 225.423 60.5039 226.309 61.8564" stroke="#423C52" stroke-width="5" stroke-miterlimit="10" stroke-linecap="round"/>
<path d="M224.133 63.0353C224.253 62.5366 224.131 62.0814 223.861 62.0186C223.59 61.9557 223.274 62.3089 223.153 62.8076C223.033 63.3062 223.154 63.7614 223.425 63.8243C223.695 63.8872 224.012 63.5339 224.133 63.0353Z" fill="#423C52"/>
<path d="M218.509 61.8451C218.615 61.4057 218.508 61.0045 218.269 60.949C218.03 60.8935 217.751 61.2048 217.645 61.6443C217.539 62.0837 217.646 62.4849 217.885 62.5404C218.123 62.5958 218.403 62.2846 218.509 61.8451Z" fill="#423C52"/>
<path d="M229.76 58.277C228.059 58.3855 221.586 60.3027 217.915 58.7237C218.279 57.8382 218.665 57.0645 218.665 57.0645C223.297 59.5478 228.079 58.3745 229.76 58.277Z" fill="#423C52"/>
</svg>
