<svg width="255" height="269" viewBox="0 0 255 269" fill="none" xmlns="http://www.w3.org/2000/svg">
<path d="M236.812 109.134V178.436H5.35364V80.3647C8.40328 -23.6885 100.543 -3.43206 164.837 19.1747C217.981 37.8602 236.828 61.42 236.812 109.134Z" fill="#DBE5E5"/>
<path d="M236.782 182.181L236.702 238.489C236.681 252.931 224.309 264.628 209.065 264.628H125.983C103.074 264.627 80.2974 261.348 58.4229 254.903C54.3303 253.697 50.8246 252.636 48.6197 251.913C22.7057 243.414 5.65607 242.697 5.65607 199.373H69.9225C82.9454 199.373 95.925 197.955 108.606 195.148L137.401 188.774L146.605 186.736C161.476 183.444 176.712 181.858 191.983 182.011L236.782 182.181Z" fill="#BECDC8"/>
<path d="M83.1564 246.568C83.8052 246.568 84.3312 246.07 84.3312 245.455C84.3312 244.841 83.8052 244.343 83.1564 244.343C82.5076 244.343 81.9816 244.841 81.9816 245.455C81.9816 246.07 82.5076 246.568 83.1564 246.568Z" stroke="white" stroke-width="5" stroke-linejoin="round"/>
<path d="M88.4514 242.481C89.8148 242.481 90.9201 241.434 90.9201 240.143C90.9201 238.851 89.8148 237.805 88.4514 237.805C87.088 237.805 85.9828 238.851 85.9828 240.143C85.9828 241.434 87.088 242.481 88.4514 242.481Z" stroke="white" stroke-width="5" stroke-linejoin="round"/>
<path d="M61.1465 215.372C61.7286 215.372 62.2004 214.925 62.2004 214.374C62.2004 213.823 61.7286 213.376 61.1465 213.376C60.5645 213.376 60.0927 213.823 60.0927 214.374C60.0927 214.925 60.5645 215.372 61.1465 215.372Z" stroke="white" stroke-width="5" stroke-linejoin="round"/>
<path d="M56.571 213.684C57.9174 213.684 59.0089 212.65 59.0089 211.375C59.0089 210.1 57.9174 209.066 56.571 209.066C55.2245 209.066 54.1331 210.1 54.1331 211.375C54.1331 212.65 55.2245 213.684 56.571 213.684Z" stroke="white" stroke-width="5" stroke-linejoin="round"/>
<path d="M36.8128 210.946C39.0748 210.946 40.9084 209.209 40.9084 207.067C40.9084 204.925 39.0748 203.188 36.8128 203.188C34.5509 203.188 32.7172 204.925 32.7172 207.067C32.7172 209.209 34.5509 210.946 36.8128 210.946Z" stroke="white" stroke-width="5" stroke-linejoin="round"/>
<path d="M214.725 212.707C215.27 212.707 215.711 212.289 215.711 211.773C215.711 211.257 215.27 210.838 214.725 210.838C214.18 210.838 213.738 211.257 213.738 211.773C213.738 212.289 214.18 212.707 214.725 212.707Z" stroke="white" stroke-width="5" stroke-linejoin="round"/>
<path d="M210.652 219.509C211.729 219.509 212.601 218.683 212.601 217.663C212.601 216.644 211.729 215.817 210.652 215.817C209.576 215.817 208.703 216.644 208.703 217.663C208.703 218.683 209.576 219.509 210.652 219.509Z" stroke="white" stroke-width="5" stroke-linejoin="round"/>
<path d="M198.728 178.436H135.997C136.403 161.065 150.29 147.116 167.363 147.116C184.435 147.116 198.322 161.067 198.728 178.436Z" fill="#BECDC8"/>
<path d="M236.812 109.108V178.436H165.793C174.559 156.276 201.114 152.976 205.299 152.59C204.834 149.645 204.602 146.672 204.605 143.695C204.605 123.289 215.268 106.747 228.421 106.747C230.505 106.752 232.565 107.162 234.475 107.952C235.283 108.282 236.064 108.668 236.812 109.108Z" fill="#B59B00"/>
<path d="M205.858 152.546C222.967 151.381 229.247 157.952 229.247 157.952" stroke="#907B00" stroke-width="5" stroke-miterlimit="10"/>
<path d="M44.7373 178.77C58.0723 178.77 68.8826 161.12 68.8826 139.347C68.8826 117.574 58.0723 99.9243 44.7373 99.9243C31.4022 99.9243 20.592 117.574 20.592 139.347C20.592 161.12 31.4022 178.77 44.7373 178.77Z" fill="#BECDC8"/>
<path d="M236.812 178.435V182.172L191.984 182.01C176.712 181.857 161.476 183.444 146.605 186.736L137.401 188.774L108.606 195.147C95.9251 197.954 82.9455 199.372 69.9226 199.373H5.65911C5.65911 199.373 5.56592 190.902 5.56592 178.434L236.812 178.435Z" fill="#907B00"/>
<path d="M68.135 178.435H5.3537V139.081C24.7411 139.193 30.2386 158.622 30.2386 158.622C30.2386 158.622 42.0842 152.049 54.5187 158.514C66.9532 164.979 68.135 178.435 68.135 178.435Z" fill="white"/>
<path d="M64.3433 184.085L61.896 181.767C60.9017 180.825 59.2897 180.825 58.2954 181.767L50.2145 189.42C49.2202 190.362 49.2202 191.889 50.2145 192.831L52.6618 195.148C53.6561 196.09 55.2681 196.09 56.2624 195.148L64.3433 187.495C65.3376 186.553 65.3376 185.027 64.3433 184.085Z" fill="#FE552F"/>
<path d="M38.7016 191.293H38.7077H38.7016Z" stroke="#FFDB00" stroke-width="5" stroke-miterlimit="10"/>
<path d="M53.6683 194.315C52.8177 195.652 51.5417 196.433 50.6703 196.203L50.4165 196.099L39.1617 191.484C40.5607 191.853 42.1559 190.488 43.4358 188.48C44.7157 186.471 45.2432 184.499 44.2508 183.498L53.8081 190.76L54.0243 190.924C54.6518 191.545 54.518 192.979 53.6683 194.315Z" stroke="#FFDB00" stroke-width="5" stroke-miterlimit="10"/>
<path d="M44.2537 183.496L43.8571 183.194C42.3571 182.338 39.4323 183.141 38.0077 185.377C36.583 187.614 37.2006 190.439 38.7017 191.293H38.7076L39.1647 191.481C40.5636 191.849 42.1588 190.485 43.4387 188.476C44.7187 186.468 45.2461 184.497 44.2537 183.496ZM38.8296 185.843C39.1885 185.28 39.7466 184.974 40.0748 185.161C40.403 185.347 40.3772 185.957 40.0183 186.522C39.6594 187.087 39.1022 187.391 38.774 187.204C38.4459 187.017 38.4677 186.407 38.8296 185.843V185.843Z" stroke="#FFDB00" stroke-width="5" stroke-miterlimit="10"/>
<path d="M38.7075 191.297L39.1646 191.486C39.0042 191.442 38.8506 191.379 38.7075 191.297V191.297Z" stroke="#FFDB00" stroke-width="5" stroke-miterlimit="10"/>
<path d="M40.0182 186.525C39.6593 187.088 39.1021 187.393 38.774 187.207C38.4458 187.02 38.4765 186.41 38.8295 185.846C39.1824 185.282 39.7466 184.976 40.0747 185.163C40.4029 185.35 40.3771 185.96 40.0182 186.525Z" stroke="#FFDB00" stroke-width="5" stroke-miterlimit="10"/>
<path d="M44.2536 183.495L43.8571 183.194C44.0033 183.276 44.1368 183.378 44.2536 183.495V183.495Z" stroke="#FFDB00" stroke-width="5" stroke-miterlimit="10"/>
<path d="M40.0182 186.525C39.6593 187.088 39.1021 187.393 38.774 187.207C38.4458 187.02 38.4765 186.41 38.8295 185.846C39.1824 185.282 39.7466 184.976 40.0747 185.163C40.4029 185.35 40.3771 185.96 40.0182 186.525Z" stroke="#FFDB00" stroke-width="5" stroke-miterlimit="10"/>
<path d="M85.8096 189.339H71.9296C70.7538 189.339 69.8 187.376 69.801 184.955C69.802 182.535 70.7568 180.574 71.9326 180.574L85.8126 180.579C88.2837 180.578 90.7115 181.193 92.8517 182.363L94.8346 183.45H98.6744C99.3823 183.45 99.9553 184.126 99.9553 184.961C99.9553 185.796 99.3813 186.471 98.6734 186.471H94.8326L92.8498 187.556C90.709 188.726 88.2809 189.34 85.8096 189.339Z" fill="#BECDC8"/>
<path d="M98.6335 186.075C99.1558 186.075 99.5793 185.576 99.5793 184.961C99.5793 184.345 99.1558 183.846 98.6335 183.846C98.1111 183.846 97.6876 184.345 97.6876 184.961C97.6876 185.576 98.1111 186.075 98.6335 186.075Z" fill="#423C52"/>
<path d="M79.3255 190.034C79.3255 191.98 78.0673 193.557 76.5148 193.557H60.1562C58.6036 193.557 57.3455 191.98 57.3455 190.034C57.3455 188.089 58.6036 186.511 60.1562 186.511H76.5148C78.0673 186.511 79.3255 188.089 79.3255 190.034Z" stroke="white" stroke-width="5" stroke-miterlimit="10"/>
<path d="M76.3204 192.686C77.4889 192.686 78.4361 191.498 78.4361 190.034C78.4361 188.57 77.4889 187.382 76.3204 187.382C75.1519 187.382 74.2047 188.57 74.2047 190.034C74.2047 191.498 75.1519 192.686 76.3204 192.686Z" fill="white"/>
<path d="M131.085 254.364L128.973 264.628H102.956L110.116 249.165C110.368 248.552 110.757 247.997 111.255 247.539C111.754 247.081 112.35 246.729 113.004 246.509C113.659 246.288 114.356 246.203 115.048 246.259C115.74 246.316 116.411 246.512 117.016 246.836L131.085 254.364Z" fill="#423C52"/>
<path d="M95.686 254.959C95.7147 254.97 95.7443 254.982 95.774 254.992L95.6851 254.961L95.686 254.959Z" stroke="#DBE5E5" stroke-width="5" stroke-linejoin="round"/>
<path d="M99.4145 245.207C99.3839 245.196 99.3522 245.187 99.3157 245.178L99.4145 245.207Z" stroke="#DBE5E5" stroke-width="5" stroke-linejoin="round"/>
<path d="M114.027 255.657C113.003 258.468 110.744 260.16 108.958 259.551L95.8071 255.065C97.5917 255.655 99.8373 253.965 100.855 251.165C101.874 248.365 101.137 245.782 99.3684 245.156L112.514 249.637C114.301 250.248 115.048 252.848 114.027 255.657Z" stroke="white" stroke-width="5" stroke-linejoin="round"/>
<path d="M100.851 251.185C99.8511 253.877 97.6005 255.583 95.8169 255.005L95.7981 254.999L95.7743 254.991C95.7446 254.981 95.7148 254.97 95.6861 254.959C93.9848 254.29 93.3979 251.672 94.3804 249.027C95.3629 246.382 97.5529 244.69 99.3207 245.177C99.3524 245.186 99.3841 245.195 99.4198 245.205L99.4406 245.212L99.4654 245.221C101.225 245.835 101.852 248.496 100.851 251.185Z" stroke="white" stroke-width="5" stroke-linejoin="round"/>
<path d="M158.282 264.628H122.428L122.349 263.929C122.194 262.82 122.271 261.692 122.577 260.61C122.882 259.529 123.41 258.515 124.129 257.627C124.848 256.739 125.745 255.993 126.768 255.434C127.792 254.874 128.922 254.51 130.094 254.364L147.45 252.196C148.621 252.049 149.812 252.123 150.954 252.412C152.096 252.702 153.166 253.201 154.104 253.883C155.042 254.564 155.829 255.413 156.421 256.383C157.012 257.352 157.396 258.422 157.55 259.532L158.282 264.628Z" fill="#907B00"/>
<path d="M144.776 264.296L151.205 254.958L171.408 264.392" stroke="#FFDB00" stroke-width="5" stroke-linecap="round" stroke-linejoin="round"/>
<path d="M151.166 218.604L147.786 239.766C146.64 246.944 138.5 251.034 131.583 247.908L125.355 245.091C118.459 241.976 116.679 233.448 121.802 228.083L136.705 212.473C136.844 212.325 137.03 212.222 137.235 212.18C137.44 212.138 137.654 212.159 137.846 212.239C138.038 212.32 138.198 212.456 138.303 212.628C138.408 212.8 138.453 212.999 138.431 213.196L137.538 221.846C137.304 224.105 140.104 225.477 141.917 223.992L149.535 217.749C149.688 217.623 149.879 217.544 150.081 217.523C150.284 217.503 150.488 217.542 150.666 217.635C150.844 217.729 150.988 217.872 151.077 218.045C151.167 218.218 151.197 218.413 151.166 218.604Z" stroke="white" stroke-width="4.5" stroke-linejoin="round"/>
<path d="M149.381 219.128L143.974 224.966C143.724 225.217 143.54 225.519 143.437 225.85C143.335 226.18 143.316 226.529 143.382 226.868C143.449 227.207 143.599 227.526 143.821 227.799C144.043 228.072 144.329 228.292 144.658 228.44V228.44C144.97 228.582 145.313 228.654 145.659 228.653C146.005 228.652 146.347 228.577 146.659 228.434C146.97 228.291 147.244 228.083 147.459 227.827C147.675 227.57 147.826 227.27 147.903 226.95L149.926 219.405C149.942 219.34 149.935 219.271 149.906 219.21C149.877 219.149 149.828 219.099 149.766 219.068C149.704 219.036 149.632 219.025 149.563 219.036C149.493 219.047 149.429 219.079 149.381 219.128V219.128Z" stroke="white" stroke-width="4.5" stroke-linejoin="round"/>
<path d="M137.731 212.303L134.577 218.464C134.095 219.561 134.077 220.791 134.525 221.9C134.974 223.009 135.854 223.912 136.986 224.424C137.846 224.812 138.806 224.954 139.75 224.833C140.694 224.711 141.58 224.332 142.299 223.74L149.537 217.751" stroke="white" stroke-width="4.5" stroke-linejoin="round"/>
<path d="M122.142 227.743L120.636 241.212" stroke="white" stroke-width="4.5" stroke-linejoin="round"/>
<path d="M126.286 223.361L123.96 244.296" stroke="white" stroke-width="4.5" stroke-linejoin="round"/>
<path d="M130.429 218.977L127.428 246.068" stroke="white" stroke-width="4.5" stroke-linejoin="round"/>
<path d="M133.707 222.464L130.928 247.538" stroke="white" stroke-width="4.5" stroke-linejoin="round"/>
<path d="M137.153 224.438L134.451 248.804" stroke="white" stroke-width="4.5" stroke-linejoin="round"/>
<path d="M140.798 224.594L138.106 248.86" stroke="white" stroke-width="4.5" stroke-linejoin="round"/>
<path d="M144.088 227.982L141.906 247.606" stroke="white" stroke-width="4.5" stroke-linejoin="round"/>
<path d="M145.939 244.231L147.821 227.332L149.742 227.521" stroke="white" stroke-width="4.5" stroke-linejoin="round"/>
<path d="M127.716 246.163L141.936 247.589" stroke="white" stroke-width="4.5" stroke-linejoin="round"/>
<path d="M121.382 242.073L145.726 244.495" stroke="white" stroke-width="4.5" stroke-linejoin="round"/>
<path d="M119.417 238.41L147.489 241.2" stroke="white" stroke-width="4.5" stroke-linejoin="round"/>
<path d="M118.837 234.885L148.082 237.79" stroke="white" stroke-width="4.5" stroke-linejoin="round"/>
<path d="M119.643 231.497L148.567 234.37" stroke="white" stroke-width="4.5" stroke-linejoin="round"/>
<path d="M121.727 228.234L149.16 230.961" stroke="white" stroke-width="4.5" stroke-linejoin="round"/>
<path d="M124.77 225.065L143.465 226.932" stroke="white" stroke-width="4.5" stroke-linejoin="round"/>
<path d="M127.812 221.897L134.894 222.62" stroke="white" stroke-width="4.5" stroke-linejoin="round"/>
<path d="M130.748 218.717L134.208 219.083" stroke="white" stroke-width="4.5" stroke-linejoin="round"/>
<path d="M133.685 215.539L135.972 215.791" stroke="white" stroke-width="4.5" stroke-linejoin="round"/>
<path d="M70.1498 239.886L80.4518 248.697C81.3242 249.448 80.6441 251.506 78.9319 253.298C77.2197 255.091 75.1228 255.944 74.2494 255.198L63.9474 246.39C62.114 244.823 60.7487 242.825 59.9886 240.6L59.2827 238.534L56.4334 236.092C55.9079 235.644 55.9605 234.778 56.5514 234.159C57.1422 233.54 58.0454 233.402 58.5709 233.851L61.4203 236.292L63.6639 236.747C66.0792 237.236 68.316 238.319 70.1498 239.886V239.886Z" stroke="#FFE700" stroke-width="5" stroke-linecap="round" stroke-linejoin="round"/>
<path d="M58.4671 235.776C59.0589 235.155 59.1121 234.287 58.5859 233.837C58.0596 233.387 57.1531 233.525 56.5612 234.146C55.9693 234.767 55.9161 235.635 56.4424 236.085C56.9687 236.535 57.8752 236.397 58.4671 235.776Z" stroke="#FFE700" stroke-width="5" stroke-linecap="round" stroke-linejoin="round"/>
<path d="M201.472 212.51C181.941 212.51 166.116 227.5 166.116 245.995C166.105 252.632 168.186 259.121 172.093 264.631H230.849C234.757 259.121 236.839 252.632 236.828 245.995C236.828 227.497 220.999 212.51 201.472 212.51ZM201.298 258.302C198.703 258.302 196.166 257.573 194.008 256.208C191.85 254.842 190.168 252.901 189.174 250.63C188.181 248.36 187.921 245.861 188.427 243.45C188.934 241.039 190.183 238.825 192.019 237.087C193.854 235.349 196.192 234.165 198.737 233.686C201.283 233.206 203.921 233.452 206.319 234.393C208.716 235.334 210.766 236.927 212.208 238.971C213.649 241.014 214.419 243.417 214.418 245.875C214.417 249.17 213.034 252.33 210.574 254.659C208.113 256.989 204.777 258.298 201.298 258.298V258.302Z" fill="#423C52"/>
<path d="M216.517 245.872C216.517 248.722 215.624 251.509 213.952 253.879C212.28 256.25 209.903 258.097 207.122 259.188C204.341 260.279 201.281 260.564 198.329 260.008C195.377 259.452 192.665 258.079 190.537 256.063C188.409 254.048 186.959 251.48 186.372 248.684C185.785 245.888 186.086 242.99 187.238 240.356C188.39 237.722 190.341 235.471 192.843 233.888C195.346 232.304 198.288 231.458 201.298 231.458C205.334 231.459 209.205 232.977 212.059 235.68C214.913 238.383 216.516 242.049 216.517 245.872Z" stroke="white" stroke-width="5" stroke-linejoin="round"/>
<path d="M203.12 198.775C197.814 198.775 192.828 197.425 189.439 195.07C189.408 195.048 189.383 195.019 189.366 194.987C189.349 194.954 189.34 194.918 189.34 194.882C189.34 194.845 189.349 194.81 189.366 194.777C189.383 194.744 189.408 194.716 189.439 194.694C192.826 192.31 197.813 190.943 203.12 190.943C207.401 190.943 211.535 191.842 214.759 193.478C215.259 193.741 215.733 194.045 216.176 194.387C216.314 194.488 216.455 194.592 216.604 194.696C216.634 194.718 216.659 194.746 216.676 194.779C216.693 194.811 216.702 194.847 216.702 194.884C216.702 194.92 216.693 194.956 216.676 194.989C216.659 195.021 216.634 195.05 216.604 195.072C216.447 195.179 216.298 195.288 216.156 195.393C215.745 195.709 215.306 195.99 214.843 196.233C211.603 197.871 207.44 198.775 203.12 198.775ZM190.011 194.879C193.308 197.059 198.061 198.305 203.12 198.305C207.361 198.305 211.44 197.422 214.608 195.818C215.046 195.586 215.462 195.319 215.851 195.019L216.045 194.879L215.873 194.754C215.452 194.428 215.001 194.138 214.525 193.887C211.372 192.291 207.322 191.41 203.123 191.41C198.06 191.41 193.307 192.671 190.011 194.879Z" fill="#FFE700"/>
<path d="M216.701 194.914C217.901 195.765 218.868 196.732 219.545 197.78C219.207 197.843 218.862 197.875 218.517 197.874C216.931 197.874 215.55 197.204 214.855 196.223L216.701 194.914Z" fill="#FFE700"/>
<path d="M214.759 193.473C215.416 192.411 216.85 191.676 218.517 191.676C218.908 191.675 219.299 191.717 219.68 191.8C218.999 192.918 217.984 193.947 216.701 194.847L214.759 193.473Z" fill="#FFE700"/>
<path d="M192.743 195.303C193.044 195.303 193.288 195.072 193.288 194.787C193.288 194.502 193.044 194.271 192.743 194.271C192.442 194.271 192.198 194.502 192.198 194.787C192.198 195.072 192.442 195.303 192.743 195.303Z" fill="#FFE700"/>
<path d="M199.762 193.114C199.981 193.114 200.159 192.946 200.159 192.738C200.159 192.531 199.981 192.363 199.762 192.363C199.543 192.363 199.366 192.531 199.366 192.738C199.366 192.946 199.543 193.114 199.762 193.114Z" fill="#FFE700"/>
<path d="M199.762 195.085C199.981 195.085 200.159 194.917 200.159 194.709C200.159 194.502 199.981 194.333 199.762 194.333C199.543 194.333 199.366 194.502 199.366 194.709C199.366 194.917 199.543 195.085 199.762 195.085Z" fill="#FFE700"/>
<path d="M199.762 197.057C199.981 197.057 200.159 196.889 200.159 196.682C200.159 196.474 199.981 196.306 199.762 196.306C199.543 196.306 199.366 196.474 199.366 196.682C199.366 196.889 199.543 197.057 199.762 197.057Z" fill="#FFE700"/>
<path d="M201.782 192.129C202.001 192.129 202.178 191.96 202.178 191.753C202.178 191.546 202.001 191.377 201.782 191.377C201.563 191.377 201.385 191.546 201.385 191.753C201.385 191.96 201.563 192.129 201.782 192.129Z" fill="#FFE700"/>
<path d="M201.782 194.099C202.001 194.099 202.178 193.931 202.178 193.724C202.178 193.516 202.001 193.348 201.782 193.348C201.563 193.348 201.385 193.516 201.385 193.724C201.385 193.931 201.563 194.099 201.782 194.099Z" fill="#FFE700"/>
<path d="M201.782 196.071C202.001 196.071 202.178 195.903 202.178 195.696C202.178 195.488 202.001 195.32 201.782 195.32C201.563 195.32 201.385 195.488 201.385 195.696C201.385 195.903 201.563 196.071 201.782 196.071Z" fill="#FFE700"/>
<path d="M201.782 198.044C202.001 198.044 202.178 197.876 202.178 197.668C202.178 197.461 202.001 197.292 201.782 197.292C201.563 197.292 201.385 197.461 201.385 197.668C201.385 197.876 201.563 198.044 201.782 198.044Z" fill="#FFE700"/>
<path d="M197.742 192.221C197.961 192.221 198.138 192.053 198.138 191.846C198.138 191.638 197.961 191.47 197.742 191.47C197.523 191.47 197.345 191.638 197.345 191.846C197.345 192.053 197.523 192.221 197.742 192.221Z" fill="#FFE700"/>
<path d="M197.742 194.099C197.961 194.099 198.138 193.931 198.138 193.724C198.138 193.516 197.961 193.348 197.742 193.348C197.523 193.348 197.345 193.516 197.345 193.724C197.345 193.931 197.523 194.099 197.742 194.099Z" fill="#FFE700"/>
<path d="M197.742 196.071C197.961 196.071 198.138 195.903 198.138 195.696C198.138 195.488 197.961 195.32 197.742 195.32C197.523 195.32 197.345 195.488 197.345 195.696C197.345 195.903 197.523 196.071 197.742 196.071Z" fill="#FFE700"/>
<path d="M197.742 198.044C197.961 198.044 198.138 197.876 198.138 197.668C198.138 197.461 197.961 197.292 197.742 197.292C197.523 197.292 197.345 197.461 197.345 197.668C197.345 197.876 197.523 198.044 197.742 198.044Z" fill="#FFE700"/>
<path d="M203.802 193.114C204.021 193.114 204.199 192.946 204.199 192.738C204.199 192.531 204.021 192.363 203.802 192.363C203.583 192.363 203.406 192.531 203.406 192.738C203.406 192.946 203.583 193.114 203.802 193.114Z" fill="#FFE700"/>
<path d="M203.802 195.085C204.021 195.085 204.199 194.917 204.199 194.709C204.199 194.502 204.021 194.333 203.802 194.333C203.583 194.333 203.406 194.502 203.406 194.709C203.406 194.917 203.583 195.085 203.802 195.085Z" fill="#FFE700"/>
<path d="M203.802 197.057C204.021 197.057 204.199 196.889 204.199 196.682C204.199 196.474 204.021 196.306 203.802 196.306C203.583 196.306 203.406 196.474 203.406 196.682C203.406 196.889 203.583 197.057 203.802 197.057Z" fill="#FFE700"/>
<path d="M205.822 192.129C206.041 192.129 206.219 191.96 206.219 191.753C206.219 191.546 206.041 191.377 205.822 191.377C205.603 191.377 205.425 191.546 205.425 191.753C205.425 191.96 205.603 192.129 205.822 192.129Z" fill="#FFE700"/>
<path d="M205.822 194.099C206.041 194.099 206.219 193.931 206.219 193.724C206.219 193.516 206.041 193.348 205.822 193.348C205.603 193.348 205.425 193.516 205.425 193.724C205.425 193.931 205.603 194.099 205.822 194.099Z" fill="#FFE700"/>
<path d="M205.822 196.071C206.041 196.071 206.219 195.903 206.219 195.696C206.219 195.488 206.041 195.32 205.822 195.32C205.603 195.32 205.425 195.488 205.425 195.696C205.425 195.903 205.603 196.071 205.822 196.071Z" fill="#FFE700"/>
<path d="M205.822 198.044C206.041 198.044 206.219 197.876 206.219 197.668C206.219 197.461 206.041 197.292 205.822 197.292C205.603 197.292 205.425 197.461 205.425 197.668C205.425 197.876 205.603 198.044 205.822 198.044Z" fill="#FFE700"/>
<path d="M207.843 193.114C208.062 193.114 208.239 192.946 208.239 192.738C208.239 192.531 208.062 192.363 207.843 192.363C207.624 192.363 207.446 192.531 207.446 192.738C207.446 192.946 207.624 193.114 207.843 193.114Z" fill="#FFE700"/>
<path d="M207.843 195.085C208.062 195.085 208.239 194.917 208.239 194.709C208.239 194.502 208.062 194.333 207.843 194.333C207.624 194.333 207.446 194.502 207.446 194.709C207.446 194.917 207.624 195.085 207.843 195.085Z" fill="#FFE700"/>
<path d="M207.843 197.057C208.062 197.057 208.239 196.889 208.239 196.682C208.239 196.474 208.062 196.306 207.843 196.306C207.624 196.306 207.446 196.474 207.446 196.682C207.446 196.889 207.624 197.057 207.843 197.057Z" fill="#FFE700"/>
<path d="M209.862 194.099C210.081 194.099 210.259 193.931 210.259 193.724C210.259 193.516 210.081 193.348 209.862 193.348C209.643 193.348 209.466 193.516 209.466 193.724C209.466 193.931 209.643 194.099 209.862 194.099Z" fill="#FFE700"/>
<path d="M209.862 196.071C210.081 196.071 210.259 195.903 210.259 195.696C210.259 195.488 210.081 195.32 209.862 195.32C209.643 195.32 209.466 195.488 209.466 195.696C209.466 195.903 209.643 196.071 209.862 196.071Z" fill="#FFE700"/>
<path d="M211.882 193.114C212.101 193.114 212.279 192.946 212.279 192.738C212.279 192.531 212.101 192.363 211.882 192.363C211.663 192.363 211.486 192.531 211.486 192.738C211.486 192.946 211.663 193.114 211.882 193.114Z" fill="#FFE700"/>
<path d="M211.882 195.085C212.101 195.085 212.279 194.917 212.279 194.709C212.279 194.502 212.101 194.333 211.882 194.333C211.663 194.333 211.486 194.502 211.486 194.709C211.486 194.917 211.663 195.085 211.882 195.085Z" fill="#FFE700"/>
<path d="M211.882 197.057C212.101 197.057 212.279 196.889 212.279 196.682C212.279 196.474 212.101 196.306 211.882 196.306C211.663 196.306 211.486 196.474 211.486 196.682C211.486 196.889 211.663 197.057 211.882 197.057Z" fill="#FFE700"/>
<path d="M213.902 194.099C214.121 194.099 214.299 193.931 214.299 193.724C214.299 193.516 214.121 193.348 213.902 193.348C213.683 193.348 213.506 193.516 213.506 193.724C213.506 193.931 213.683 194.099 213.902 194.099Z" fill="#FFE700"/>
<path d="M213.902 196.071C214.121 196.071 214.299 195.903 214.299 195.696C214.299 195.488 214.121 195.32 213.902 195.32C213.683 195.32 213.506 195.488 213.506 195.696C213.506 195.903 213.683 196.071 213.902 196.071Z" fill="#FFE700"/>
<path d="M220.511 203.388C221.216 202.864 221.808 202.217 222.255 201.481C222.019 201.429 221.777 201.403 221.535 201.404C220.563 201.404 219.718 201.808 219.282 202.404C217.283 201.407 214.735 200.858 212.1 200.858C208.792 200.858 205.684 201.712 203.573 203.2C203.543 203.222 203.518 203.251 203.501 203.283C203.484 203.316 203.475 203.352 203.475 203.388C203.475 203.424 203.484 203.46 203.501 203.493C203.518 203.525 203.543 203.554 203.573 203.576C205.688 205.045 208.796 205.888 212.1 205.888C214.767 205.888 217.338 205.334 219.349 204.328C219.8 204.876 220.61 205.242 221.535 205.242C221.749 205.242 221.962 205.222 222.172 205.181C221.733 204.496 221.171 203.889 220.511 203.388ZM219.167 203.889C217.219 204.876 214.706 205.42 212.1 205.42C209.042 205.42 206.168 204.682 204.146 203.387C206.167 202.072 209.041 201.328 212.1 201.328C214.685 201.328 217.177 201.869 219.117 202.852L220.094 203.388L219.167 203.889Z" fill="#FFE700"/>
<path d="M206.494 203.764C206.713 203.764 206.891 203.596 206.891 203.388C206.891 203.181 206.713 203.013 206.494 203.013C206.275 203.013 206.098 203.181 206.098 203.388C206.098 203.596 206.275 203.764 206.494 203.764Z" fill="#FFE700"/>
<path d="M211.686 201.968C211.882 201.968 212.041 201.817 212.041 201.632C212.041 201.446 211.882 201.295 211.686 201.295C211.49 201.295 211.331 201.446 211.331 201.632C211.331 201.817 211.49 201.968 211.686 201.968Z" fill="#FFE700"/>
<path d="M211.686 203.736C211.882 203.736 212.041 203.585 212.041 203.4C212.041 203.214 211.882 203.063 211.686 203.063C211.49 203.063 211.331 203.214 211.331 203.4C211.331 203.585 211.49 203.736 211.686 203.736Z" fill="#FFE700"/>
<path d="M211.686 205.502C211.882 205.502 212.041 205.352 212.041 205.166C212.041 204.981 211.882 204.83 211.686 204.83C211.49 204.83 211.331 204.981 211.331 205.166C211.331 205.352 211.49 205.502 211.686 205.502Z" fill="#FFE700"/>
<path d="M213.495 202.851C213.691 202.851 213.85 202.701 213.85 202.515C213.85 202.329 213.691 202.179 213.495 202.179C213.299 202.179 213.141 202.329 213.141 202.515C213.141 202.701 213.299 202.851 213.495 202.851Z" fill="#FFE700"/>
<path d="M213.495 204.619C213.691 204.619 213.85 204.469 213.85 204.283C213.85 204.097 213.691 203.947 213.495 203.947C213.299 203.947 213.141 204.097 213.141 204.283C213.141 204.469 213.299 204.619 213.495 204.619Z" fill="#FFE700"/>
<path d="M209.876 202.851C210.072 202.851 210.231 202.701 210.231 202.515C210.231 202.329 210.072 202.179 209.876 202.179C209.68 202.179 209.521 202.329 209.521 202.515C209.521 202.701 209.68 202.851 209.876 202.851Z" fill="#FFE700"/>
<path d="M209.876 204.619C210.072 204.619 210.231 204.469 210.231 204.283C210.231 204.097 210.072 203.947 209.876 203.947C209.68 203.947 209.521 204.097 209.521 204.283C209.521 204.469 209.68 204.619 209.876 204.619Z" fill="#FFE700"/>
<path d="M215.306 202.137C215.502 202.137 215.661 201.986 215.661 201.8C215.661 201.615 215.502 201.464 215.306 201.464C215.11 201.464 214.951 201.615 214.951 201.8C214.951 201.986 215.11 202.137 215.306 202.137Z" fill="#FFE700"/>
<path d="M215.306 203.736C215.502 203.736 215.661 203.585 215.661 203.4C215.661 203.214 215.502 203.063 215.306 203.063C215.11 203.063 214.951 203.214 214.951 203.4C214.951 203.585 215.11 203.736 215.306 203.736Z" fill="#FFE700"/>
<path d="M215.306 205.418C215.502 205.418 215.661 205.267 215.661 205.082C215.661 204.896 215.502 204.746 215.306 204.746C215.11 204.746 214.951 204.896 214.951 205.082C214.951 205.267 215.11 205.418 215.306 205.418Z" fill="#FFE700"/>
<path d="M217.116 202.851C217.312 202.851 217.471 202.701 217.471 202.515C217.471 202.329 217.312 202.179 217.116 202.179C216.92 202.179 216.761 202.329 216.761 202.515C216.761 202.701 216.92 202.851 217.116 202.851Z" fill="#FFE700"/>
<path d="M217.116 204.619C217.312 204.619 217.471 204.469 217.471 204.283C217.471 204.097 217.312 203.947 217.116 203.947C216.92 203.947 216.761 204.097 216.761 204.283C216.761 204.469 216.92 204.619 217.116 204.619Z" fill="#FFE700"/>
<path d="M218.926 203.736C219.122 203.736 219.281 203.585 219.281 203.4C219.281 203.214 219.122 203.063 218.926 203.063C218.73 203.063 218.571 203.214 218.571 203.4C218.571 203.585 218.73 203.736 218.926 203.736Z" fill="#FFE700"/>
<path d="M184.802 194.864C185.346 194.864 185.788 194.446 185.788 193.93C185.788 193.414 185.346 192.996 184.802 192.996C184.257 192.996 183.815 193.414 183.815 193.93C183.815 194.446 184.257 194.864 184.802 194.864Z" stroke="white" stroke-width="5" stroke-linejoin="round"/>
<path d="M183.58 190.903C184.745 190.903 185.69 190.008 185.69 188.904C185.69 187.801 184.745 186.906 183.58 186.906C182.415 186.906 181.47 187.801 181.47 188.904C181.47 190.008 182.415 190.903 183.58 190.903Z" stroke="white" stroke-width="5" stroke-linejoin="round"/>
<path d="M251.171 265.33C251.171 250.455 241.373 241.214 223.633 241.214C205.892 241.214 170.416 261.658 170.416 265.33H251.171Z" fill="#E5F1EF" stroke="white" stroke-width="7" stroke-miterlimit="10"/>
<path d="M6.66431 265.331C6.66431 250.455 22.2129 238.397 41.3911 238.397C60.5694 238.397 76.118 250.455 76.118 265.331H6.66431Z" fill="#E5F1EF" stroke="white" stroke-width="7" stroke-miterlimit="10"/>
<path d="M66.6725 265.33C66.6725 261.309 70.4974 252.382 82.351 252.382C91.0091 252.382 122.463 264.401 122.463 265.33H66.6725Z" fill="#E5F1EF" stroke="white" stroke-width="7" stroke-miterlimit="10"/>
<path d="M71.5564 215.627C71.5564 215.627 72.6896 208.92 68.1013 206.56C68.1013 206.56 65.8309 211.979 71.5564 215.627Z" fill="#907B00"/>
<path d="M68.5633 229.629C68.5633 229.629 70.2656 222.805 65.1081 220.562C65.1081 220.562 62.8417 225.98 68.5633 229.629Z" fill="#907B00"/>
<path d="M80.2999 234.167C80.2999 234.167 74.4505 237.292 77.0817 243.22C77.0817 243.22 82.4374 241.048 80.2999 234.167Z" fill="#907B00"/>
<path d="M73.2926 203.738C73.2926 203.738 70.2043 207.066 73.3729 210.392C73.3729 210.392 76.368 207.797 73.2926 203.738Z" fill="#907B00"/>
<path d="M79.9012 212.711C79.9012 212.711 74.5029 215.251 76.567 220.681C76.567 220.677 81.4756 218.973 79.9012 212.711Z" fill="#907B00"/>
<path d="M73.4224 253.765V208.405" stroke="#907B00" stroke-width="5" stroke-miterlimit="10" stroke-linecap="round"/>
<path d="M76.58 218.612C76.5801 220.573 76.0508 222.501 75.0423 224.214L74.9591 224.356C73.9514 226.068 73.4225 227.997 73.4224 229.957" stroke="#907B00" stroke-width="5" stroke-miterlimit="10" stroke-linecap="round"/>
<path d="M68.5007 226.969V228.565C68.4998 230.997 69.4164 233.349 71.0854 235.198L71.7536 235.939C72.8306 237.132 73.4223 238.65 73.4222 240.22" stroke="#907B00" stroke-width="5" stroke-miterlimit="10" stroke-linecap="round"/>
<path d="M71.3699 214.655V217.119C71.3702 218.396 71.6543 219.658 72.2037 220.823L73.4221 223.401" stroke="#907B00" stroke-width="5" stroke-miterlimit="10" stroke-linecap="round"/>
<path d="M77.1749 242.398C77.1748 243.262 76.9894 244.117 76.6297 244.91C76.2701 245.704 75.7439 246.42 75.083 247.016L73.4224 248.512" stroke="#907B00" stroke-width="5" stroke-miterlimit="10" stroke-linecap="round"/>
<path d="M6.46613 264.627V239.538" stroke="#907B00" stroke-width="5" stroke-miterlimit="10" stroke-linecap="round"/>
<path d="M9.42356 245.394V247.482C9.42356 247.854 9.26785 248.21 8.99066 248.473C8.71347 248.735 8.33748 248.883 7.94534 248.883C7.5532 248.883 7.1771 249.031 6.89973 249.293C6.62235 249.556 6.46639 249.912 6.46613 250.283" stroke="#907B00" stroke-width="5" stroke-miterlimit="10"/>
<path d="M3.46997 257.458C3.46999 258.049 3.60927 258.634 3.87766 259.168C4.14606 259.702 4.53683 260.173 5.02156 260.547L6.4631 261.657" stroke="#907B00" stroke-width="5" stroke-miterlimit="10"/>
<path d="M11.7038 239.188C11.7038 239.188 7.3722 241.5 9.32433 245.889C9.31937 245.889 13.2851 244.28 11.7038 239.188Z" fill="#907B00"/>
<path d="M0.128894 252.146C0.128894 252.146 -1.04199 256.723 3.67425 258.369C3.67425 258.369 5.13859 254.527 0.128894 252.146Z" fill="#907B00"/>
<path d="M6.66448 243.196L6.76363 238.909C6.76363 237.049 5.85151 235.273 4.41889 234.001L2.58276 232.372V236.537C2.58274 237.485 2.7868 238.423 3.18245 239.293C3.57811 240.163 4.15705 240.948 4.88387 241.599L6.66448 243.196Z" fill="#907B00"/>
<path d="M206.692 264.711V226.102" stroke="#907B00" stroke-width="5" stroke-miterlimit="10" stroke-linecap="round"/>
<path d="M209.65 234.775V236.864C209.65 237.235 209.494 237.592 209.216 237.854C208.939 238.117 208.563 238.265 208.17 238.265V238.265C207.778 238.265 207.402 238.412 207.125 238.675C206.848 238.937 206.692 239.293 206.692 239.665" stroke="#907B00" stroke-width="5" stroke-miterlimit="10"/>
<path d="M203.698 244.022C203.698 244.614 203.838 245.198 204.106 245.733C204.375 246.267 204.766 246.738 205.251 247.111L206.692 248.221" stroke="#907B00" stroke-width="5" stroke-miterlimit="10"/>
<path d="M211.929 228.569C211.929 228.569 207.599 230.882 209.55 235.271C209.547 235.271 213.512 233.662 211.929 228.569Z" fill="#907B00"/>
<path d="M200.355 238.71C200.355 238.71 199.183 243.287 203.899 244.933C203.899 244.933 205.365 241.091 200.355 238.71Z" fill="#907B00"/>
<path d="M208.276 257.261C208.276 257.853 208.136 258.437 207.868 258.972C207.599 259.506 207.208 259.977 206.723 260.35" stroke="#907B00" stroke-width="5" stroke-miterlimit="10"/>
<path d="M211.619 251.95C211.619 251.95 212.791 256.527 208.074 258.173C208.074 258.173 206.614 254.331 211.619 251.95Z" fill="#907B00"/>
<path d="M206.891 229.76L206.99 225.474C206.99 223.614 206.078 221.837 204.645 220.566L202.808 218.937V223.102C202.808 224.049 203.012 224.987 203.408 225.857C203.804 226.728 204.383 227.512 205.109 228.164L206.891 229.76Z" fill="#907B00"/>
<path d="M147.193 193.788C147.72 193.413 147.598 192.414 146.919 191.568C146.24 190.722 145.261 190.348 144.733 190.723L143.704 191.465C143.222 191.813 142.481 191.639 142.038 191.09C141.532 190.447 140.806 189.992 139.985 189.799C139.224 189.633 138.45 189.75 137.843 190.187L137.05 190.758C136.883 190.883 136.747 191.042 136.652 191.222C136.557 191.403 136.505 191.601 136.499 191.802C136.499 191.86 136.484 191.917 136.455 191.968C136.426 192.018 136.384 192.062 136.333 192.094C136.283 192.126 136.224 192.145 136.164 192.151C136.103 192.157 136.042 192.148 135.986 192.126C135.823 192.065 135.647 192.044 135.474 192.064C135.301 192.084 135.136 192.145 134.994 192.242L133.514 193.308C133.38 193.411 133.275 193.544 133.208 193.694C133.142 193.845 133.116 194.009 133.132 194.171C133.139 194.228 133.131 194.286 133.109 194.339C133.086 194.392 133.051 194.439 133.005 194.477C132.959 194.514 132.904 194.539 132.845 194.552C132.786 194.564 132.724 194.562 132.666 194.547C132.465 194.5 132.256 194.495 132.053 194.533C131.85 194.571 131.658 194.651 131.491 194.767L121.224 202.181C120.079 203.006 119.999 204.732 121.047 206.031L125.31 211.339C126.357 212.641 128.133 213.029 129.276 212.201L139.543 204.8C139.705 204.678 139.837 204.524 139.929 204.349C140.022 204.174 140.073 203.982 140.078 203.786C140.078 203.729 140.093 203.673 140.121 203.622C140.149 203.572 140.19 203.528 140.24 203.496C140.29 203.464 140.348 203.444 140.408 203.438C140.468 203.432 140.529 203.439 140.585 203.461C140.746 203.519 140.92 203.539 141.091 203.518C141.262 203.497 141.425 203.436 141.565 203.341L143.045 202.274C143.181 202.17 143.287 202.036 143.354 201.883C143.42 201.73 143.445 201.564 143.426 201.399C143.419 201.342 143.426 201.284 143.448 201.23C143.47 201.176 143.505 201.128 143.551 201.09C143.598 201.053 143.653 201.026 143.712 201.013C143.771 201 143.833 201.001 143.892 201.016C144.099 201.065 144.314 201.07 144.523 201.031C144.732 200.992 144.93 200.91 145.102 200.791L145.895 200.22C147.108 199.345 147.193 197.517 146.083 196.137C145.877 195.886 145.769 195.576 145.778 195.259C145.78 195.118 145.816 194.98 145.881 194.854C145.947 194.728 146.041 194.617 146.158 194.53L147.193 193.788Z" stroke="white" stroke-width="5" stroke-linejoin="round"/>
<path d="M146.484 193.253C146.814 193.016 146.744 192.404 146.328 191.887C145.913 191.37 145.309 191.144 144.979 191.381C144.65 191.619 144.72 192.23 145.136 192.747C145.551 193.264 146.155 193.491 146.484 193.253Z" fill="white"/>
<path d="M165.172 164.413C165.172 172.365 158.366 178.436 149.969 178.436H86.8958L88.8985 166.546C88.8985 166.546 82.8369 166.244 81.5302 165.181C70.3855 156.115 72.4883 145.381 79.3728 136.167L149.36 149.247L154.21 150.582C157.372 151.452 160.151 153.27 162.128 155.765C164.105 158.259 165.173 161.294 165.172 164.413Z" fill="#423C52"/>
<path d="M149.21 164.413C149.21 172.365 142.404 178.248 134.007 178.248H63.0023L72.9364 164.48C72.9364 164.48 66.9214 163.002 65.5681 161.993C55.1214 154.142 56.5263 141.442 63.4108 132.228L133.398 149.252L138.248 150.586C141.409 151.456 144.187 153.274 146.164 155.768C148.141 158.261 149.21 161.295 149.21 164.413Z" fill="white" stroke="#423C52" stroke-width="5" stroke-miterlimit="10" stroke-linecap="round"/>
<path d="M104.35 168.753C104.35 168.753 81.3815 166.169 72.9365 164.104" stroke="#423C52" stroke-width="5" stroke-miterlimit="10" stroke-linecap="round"/>
<path d="M63.6964 178.436H29.2561C27.9514 178.436 27.3783 176.878 28.3995 176.111C35.6369 170.676 53.5253 157.813 58.1702 157.81C61.7522 157.81 65.6505 162.335 73.6305 164.007L63.6964 178.436Z" fill="#423C52"/>
<path d="M229.246 178.435H196.754C196.754 178.435 203.781 171.597 213.456 171.046C215.43 172.173 220.956 173.01 224.378 173.508C227.799 174.007 229.246 178.435 229.246 178.435Z" fill="#A0505A"/>
<path d="M213.455 171.046C203.78 171.597 196.753 178.435 196.753 178.435L159.922 136.671C159.224 135.879 158.249 135.352 157.175 135.186C156.1 135.021 154.999 135.228 154.072 135.769L139.116 145.446C138.62 163.84 137.529 182.68 137.497 184.905C137.48 185.813 137.593 186.72 137.831 187.6C136.803 186.446 132.168 186.366 126.951 187.484C121.795 188.589 117.676 190.489 117.193 191.939C117.025 190.933 116.921 189.92 116.881 188.903C116.433 178.191 115.592 158.111 115.357 145.288L62.8171 132.508C70.585 122.113 86.7661 113.044 103.862 110.269C124.465 106.925 142.574 107.346 152.962 108.085C155.8 108.288 158.561 109.054 161.066 110.334C163.571 111.613 165.764 113.378 167.501 115.513C180.446 131.426 211.879 170.15 213.455 171.046Z" fill="#FFDB00"/>
<path d="M144.112 201.241C144.112 201.241 143.566 204.103 133.665 207.062C133.665 207.062 120.008 205.7 117.342 192.715C117.288 192.459 117.24 192.199 117.196 191.934C117.68 190.485 121.799 188.585 126.955 187.48C132.171 186.362 136.807 186.441 137.834 187.596C137.893 187.819 137.961 188.035 138.032 188.245C139.3 191.883 142.384 193.702 142.384 193.702C142.384 193.702 142.864 195.79 137.881 194.883C132.898 193.976 136.619 200.677 144.112 201.241Z" fill="#A0505A"/>
<path d="M136.639 205.748C136.639 205.748 131.73 205.377 127.001 201.562" stroke="#423C52" stroke-width="5" stroke-miterlimit="10" stroke-linecap="round"/>
<path d="M140.803 203.964C140.803 203.964 135.895 203.593 131.166 199.779" stroke="#423C52" stroke-width="5" stroke-miterlimit="10" stroke-linecap="round"/>
<path d="M129.912 113.906C134.671 116.799 139.389 122.705 139.35 134.469C139.278 155.917 137.642 182.093 137.6 184.905C137.584 185.814 137.696 186.721 137.933 187.601C136.906 186.446 132.27 186.366 127.054 187.485C121.898 188.59 117.779 190.489 117.295 191.939C117.128 190.934 117.024 189.92 116.984 188.903C116.459 176.36 115.398 150.969 115.398 139.431C115.397 137.852 114.734 136.338 113.556 135.222C112.377 134.106 110.778 133.479 109.111 133.48" stroke="white" stroke-width="5" stroke-miterlimit="10" stroke-linecap="round"/>
<path d="M152.957 108.085C155.796 108.287 158.558 109.053 161.064 110.333C163.57 111.612 165.763 113.378 167.5 115.513C180.446 131.43 211.879 170.153 213.456 171.05C203.781 171.6 196.755 178.438 196.755 178.438L159.924 136.674C159.226 135.882 158.251 135.356 157.177 135.19C156.102 135.024 155.001 135.231 154.074 135.772L139.35 145.299" stroke="white" stroke-width="5" stroke-miterlimit="10" stroke-linecap="round"/>
<path d="M149.462 119.24C149.462 119.24 148.57 119.218 146.712 119.948C145.709 120.343 144.423 120.957 142.845 121.911C140.069 123.588 137.817 109.309 144.868 107.675L152.96 107.95L149.462 119.24Z" fill="#A0505A"/>
<path d="M152.947 107.968L149.462 119.236C149.462 119.236 148.57 119.214 146.712 119.944C143.515 114.404 152.065 107.925 152.065 107.925L152.947 107.968Z" fill="#423C52"/>
<path d="M101.682 108.13C103.798 108.13 105.513 106.506 105.513 104.502C105.513 102.498 103.798 100.874 101.682 100.874C99.5662 100.874 97.8511 102.498 97.8511 104.502C97.8511 106.506 99.5662 108.13 101.682 108.13Z" fill="#FE552F"/>
<path d="M164.925 110.791C164.81 111.246 164.628 111.817 164.49 112.229C164.49 112.229 164.465 112.302 164.433 112.395C163.459 112.5 159.255 113.334 155.404 110.408C154.6 109.805 154.021 108.974 153.755 108.037C150.82 107.849 146.028 107.684 142.261 107.61C141.631 107.598 140.988 107.589 140.334 107.581C131.352 107.487 120.185 107.915 107.979 109.63C107.798 108.775 107.707 107.904 107.707 107.032C107.707 98.9502 115.445 92.3989 124.992 92.3989C133.054 92.3989 139.827 97.0731 141.737 103.396C142.334 102.765 143.065 102.262 143.883 101.919C144.7 101.576 145.586 101.402 146.48 101.407C149.225 101.407 151.552 102.831 152.36 104.982C157.673 99.3248 166.196 104.527 164.925 110.791Z" fill="#FE552F"/>
<path d="M153.671 107.689L153.681 107.681C153.688 107.745 153.871 109.239 155.404 110.404C159.238 113.321 163.421 112.504 164.419 112.394C161.364 119.547 150.626 121.043 149.746 119.823C146.042 114.672 149.881 110.661 150.103 110.433L148.633 109.066C148.416 108.865 148.243 108.625 148.125 108.36C148.006 108.095 147.943 107.811 147.94 107.523C147.938 107.236 147.995 106.95 148.108 106.684C148.222 106.417 148.39 106.174 148.603 105.969C148.815 105.764 149.069 105.6 149.348 105.488C149.628 105.375 149.928 105.316 150.231 105.313C150.535 105.31 150.836 105.364 151.118 105.472C151.4 105.58 151.656 105.739 151.873 105.94L153.671 107.689Z" fill="#A0505A"/>
<path d="M151.228 109.091C151.932 108.412 151.966 107.362 151.305 106.743" stroke="#423C52" stroke-width="5" stroke-miterlimit="10" stroke-linecap="round"/>
<path d="M161.566 116.247C161.566 116.247 158.66 113.392 154.598 117.394" stroke="#423C52" stroke-width="5" stroke-miterlimit="10" stroke-linecap="round"/>
<path d="M154.936 113.61C155.338 113.296 155.52 112.877 155.343 112.674C155.167 112.471 154.698 112.561 154.296 112.876C153.894 113.19 153.711 113.609 153.888 113.812C154.064 114.015 154.534 113.924 154.936 113.61Z" fill="#423C52"/>
<path d="M158.532 117.375C158.867 117.114 159.019 116.765 158.872 116.596C158.725 116.427 158.334 116.502 157.999 116.764C157.664 117.026 157.512 117.375 157.659 117.544C157.806 117.713 158.197 117.637 158.532 117.375Z" fill="#423C52"/>
<path d="M147.822 107.901C147.926 108.281 148.136 108.627 148.431 108.903L149.867 110.346" stroke="#423C52" stroke-width="5" stroke-miterlimit="10" stroke-linecap="round"/>
<path d="M57.2284 47.5793C65.4417 47.5793 72.0998 41.2735 72.0998 33.4948C72.0998 25.716 65.4417 19.4102 57.2284 19.4102C49.0151 19.4102 42.3569 25.716 42.3569 33.4948C42.3569 41.2735 49.0151 47.5793 57.2284 47.5793Z" fill="white"/>
<path d="M83.082 32.5876C83.0871 36.4676 82.1463 40.2964 80.3328 43.7755" stroke="white" stroke-width="10" stroke-miterlimit="10" stroke-linecap="round"/>
<path d="M42.5849 47.6508C41.9079 47.032 41.2753 46.371 40.6913 45.6724" stroke="white" stroke-width="10" stroke-miterlimit="10" stroke-linecap="round"/>
<path d="M77.1125 39.2197C74.4813 47.3165 66.525 53.201 57.1065 53.201C52.702 53.2083 48.4085 51.8934 44.8425 49.4451" stroke="white" stroke-width="10" stroke-miterlimit="10" stroke-linecap="round"/>
<path d="M77.1978 27.8132C77.7551 29.6218 78.0372 31.4964 78.0355 33.3804" stroke="white" stroke-width="10" stroke-miterlimit="10" stroke-linecap="round"/>
<path d="M229.245 67.3372H100.088C100.088 67.3372 97.6094 56.0911 116.05 59.3559C139.294 63.4686 171.507 68.1184 173.718 47.7709C175.754 29.0515 198.836 27.2074 215.351 35.2422C236.782 45.6723 229.245 67.3372 229.245 67.3372Z" fill="white"/>
</svg>
