<svg width="314" height="196" viewBox="0 0 314 196" fill="none" xmlns="http://www.w3.org/2000/svg">
<path d="M138.858 100.391C138.858 113.209 133.967 118.75 127.933 118.75C121.9 118.75 117.007 113.209 117.007 100.391C117.007 87.5734 124.171 72.333 127.933 72.333C132.046 72.333 138.858 87.5734 138.858 100.391Z" fill="#423C52"/>
<path d="M127.85 80.5758V127.653" stroke="#FFDB00" stroke-width="7" stroke-miterlimit="10"/>
<path d="M131.255 78.1126V86.195C131.246 87.5696 130.819 88.909 130.029 90.0351L127.85 93.1999" stroke="#FFDB00" stroke-width="7" stroke-miterlimit="10"/>
<path d="M148.871 132.843C148.872 134.544 148.496 136.224 147.772 137.763H124.573C123.848 136.224 123.472 134.544 123.473 132.843C123.473 126.171 129.159 120.762 136.172 120.762C143.186 120.762 148.871 126.173 148.871 132.843Z" fill="#423C52"/>
<path d="M44.9401 137.848C49.5963 137.848 53.371 134.075 53.371 129.421C53.371 124.767 49.5963 120.995 44.9401 120.995C40.2839 120.995 36.5093 124.767 36.5093 129.421C36.5093 134.075 40.2839 137.848 44.9401 137.848Z" fill="#423C52"/>
<path d="M88.3628 93.6625V137.389" stroke="#423C52" stroke-width="7" stroke-miterlimit="10" stroke-linecap="round"/>
<path d="M93.9049 95.329V98.1644C93.9048 99.5552 93.4446 100.907 92.5957 102.01L90.3783 104.892C89.0713 106.59 88.3628 108.671 88.3628 110.811" stroke="#423C52" stroke-width="7" stroke-miterlimit="10" stroke-linecap="round"/>
<path d="M80.8423 99.9896V102.963C80.8421 104.174 81.1234 105.369 81.6641 106.454C82.2048 107.539 82.9902 108.483 83.9585 109.214L86.207 110.911C86.8769 111.417 87.4203 112.07 87.7944 112.821C88.1686 113.571 88.3633 114.398 88.3632 115.236" stroke="#423C52" stroke-width="7" stroke-miterlimit="10" stroke-linecap="round"/>
<path d="M109.249 85.388C109.249 90.62 105.71 93.4419 100.299 94.8386C99.6513 97.0605 97.1913 98.7207 94.254 98.7207C91.8679 98.7207 89.8 97.6295 88.7596 96.0281H88.6546C88.1559 98.8977 85.4517 101.089 82.1899 101.089C78.5742 101.089 75.6425 98.3914 75.6425 95.0703C75.6425 94.9243 75.6481 94.779 75.66 94.6354C70.6683 93.1721 67.4463 90.3748 67.4463 85.388C67.4463 76.8809 76.8037 69.9848 88.3468 69.9848C99.8899 69.9848 109.249 76.877 109.249 85.388Z" fill="#B59B00"/>
<path d="M73.7109 100.36C73.7109 112.29 68.2523 117.448 61.5188 117.448C54.7852 117.448 49.3267 112.29 49.3267 100.359C49.3267 88.4274 57.3208 74.3217 61.5188 74.3217C66.108 74.3217 73.7109 88.4282 73.7109 100.36Z" fill="#423C52"/>
<path d="M61.4409 137.61V86.9989" stroke="#FFDB00" stroke-width="7" stroke-miterlimit="10"/>
<path d="M58.1006 92.3881V101.911C58.1006 103.5 58.5236 105.061 59.3262 106.434L61.5047 110.164" stroke="#FFDB00" stroke-width="7" stroke-miterlimit="10"/>
<path d="M61.772 86.9997C61.772 99.5849 56.3134 109.788 49.5799 109.788C49.3025 109.788 49.0254 109.77 48.7503 109.735C55.0917 108.951 60.1017 99.3397 60.1017 87.606C60.1017 75.3557 54.6432 65.4242 47.9096 65.4242C46.6959 65.4242 45.5235 65.7464 44.418 66.3479C45.9856 64.9766 47.7346 64.2108 49.5799 64.2108C56.311 64.2108 61.772 74.4137 61.772 86.9997Z" fill="#FFDB00"/>
<path d="M47.9104 109.788C54.6439 109.788 60.1025 99.8567 60.1025 87.606C60.1025 75.3553 54.6439 65.4242 47.9104 65.4242C41.1769 65.4242 35.7183 75.3553 35.7183 87.606C35.7183 99.8567 41.1769 109.788 47.9104 109.788Z" fill="#B59B00"/>
<path d="M47.9854 131.105V77.2285" stroke="#423C52" stroke-width="7" stroke-miterlimit="10" stroke-linecap="round"/>
<path d="M53.3952 109.347V113.745C53.395 114.814 52.9695 115.838 52.2122 116.594C51.455 117.349 50.428 117.773 49.3572 117.773V117.773C49.0007 117.774 48.6588 117.915 48.4067 118.166C48.1545 118.418 48.0126 118.759 48.0122 119.115" stroke="#423C52" stroke-width="7" stroke-miterlimit="10" stroke-linecap="round"/>
<path d="M45.7739 71.3768V87.0894C45.7733 88.8268 46.3002 90.5236 47.2851 91.9563L47.9095 92.8642" stroke="#423C52" stroke-width="7" stroke-miterlimit="10" stroke-linecap="round"/>
<path d="M52.7629 77.3777C52.7628 79.1497 52.3302 80.895 51.5025 82.4628C50.6747 84.0306 49.4768 85.3737 48.0122 86.376V86.376" stroke="#423C52" stroke-width="7" stroke-miterlimit="10" stroke-linecap="round"/>
<path d="M111.508 124.878C118.731 124.878 124.586 115.817 124.586 104.639C124.586 93.4613 118.731 84.4 111.508 84.4C104.285 84.4 98.4302 93.4613 98.4302 104.639C98.4302 115.817 104.285 124.878 111.508 124.878Z" fill="#B59B00"/>
<path d="M110.61 98.4136V133.876" stroke="#423C52" stroke-width="7" stroke-miterlimit="10" stroke-linecap="round"/>
<path d="M113.222 104.4V109.017C113.222 110.193 112.915 111.348 112.332 112.37L110.61 115.386" stroke="#423C52" stroke-width="7" stroke-miterlimit="10" stroke-linecap="round"/>
<path d="M296.089 139.827C295.611 150.281 286.281 158.347 275.256 157.841C271.657 157.686 268.162 156.597 265.115 154.681C262.589 157.925 258.499 159.944 253.98 159.736C246.705 159.404 241.07 153.437 241.393 146.404C241.404 146.184 241.42 145.965 241.441 145.748C242.103 139.041 248.103 133.958 255.149 134.281C255.663 134.305 256.175 134.358 256.683 134.44C262.589 135.378 267.114 140.074 267.687 145.807C267.708 145.59 267.724 145.371 267.735 145.151C268.023 138.878 263.565 133.451 257.432 132.12C260.401 124.687 268.152 119.577 276.998 119.979C288.02 120.491 296.569 129.375 296.089 139.827Z" fill="#DBE5E5"/>
<path d="M241.109 161.353C242.647 161.353 243.893 160.109 243.893 158.575C243.893 157.041 242.647 155.798 241.109 155.798C239.572 155.798 238.326 157.041 238.326 158.575C238.326 160.109 239.572 161.353 241.109 161.353Z" fill="#DBE5E5"/>
<path d="M161.96 67.1645C159.615 67.2327 157.297 66.6456 155.268 65.4694C154.772 66.5535 153.993 67.4853 153.014 68.1682C152.035 68.8511 150.891 69.2602 149.7 69.3532C148.509 69.4462 147.315 69.2196 146.241 68.6969C145.167 68.1743 144.253 67.3746 143.594 66.3808C142.934 65.3869 142.553 64.2352 142.49 63.0449C142.427 61.8546 142.684 60.6692 143.235 59.6114C143.785 58.5537 144.61 57.6622 145.622 57.0294C146.634 56.3966 147.798 56.0455 148.992 56.0125H149.045C149.984 55.993 150.915 56.171 151.78 56.5349C152.645 56.8987 153.423 57.4402 154.064 58.1241C153.516 57.2466 152.77 56.5081 151.887 55.9669C151.004 55.4257 150.006 55.0966 148.974 55.0054C148.974 54.9689 148.974 54.9332 148.974 54.8967C148.905 52.4013 149.579 49.9416 150.911 47.8285C152.243 45.7154 154.173 44.0438 156.457 43.0252C158.742 42.0066 161.277 41.6867 163.744 42.106C166.21 42.5252 168.497 43.6648 170.314 45.3806C172.131 47.0963 173.398 49.3113 173.954 51.7453C174.509 54.1792 174.329 56.723 173.436 59.0548C172.542 61.3866 170.976 63.4017 168.935 64.8454C166.894 66.289 164.469 67.0963 161.968 67.1653L161.96 67.1645Z" fill="#DBE5E5"/>
<path d="M140.683 71.7759C141.873 71.7759 142.838 70.8134 142.838 69.6261C142.838 68.4388 141.873 67.4763 140.683 67.4763C139.493 67.4763 138.529 68.4388 138.529 69.6261C138.529 70.8134 139.493 71.7759 140.683 71.7759Z" fill="#DBE5E5"/>
<path d="M19.5827 83.6047C20.7885 83.6047 21.766 82.6295 21.766 81.4264C21.766 80.2233 20.7885 79.248 19.5827 79.248C18.3769 79.248 17.3994 80.2233 17.3994 81.4264C17.3994 82.6295 18.3769 83.6047 19.5827 83.6047Z" fill="#DBE5E5"/>
<path d="M258.981 156.166C260.115 156.166 261.035 155.248 261.035 154.116C261.035 152.984 260.115 152.067 258.981 152.067C257.846 152.067 256.926 152.984 256.926 154.116C256.926 155.248 257.846 156.166 258.981 156.166Z" fill="white"/>
<path d="M77.6441 31.3063C83.2487 31.3063 87.7921 26.7732 87.7921 21.1812C87.7921 15.5893 83.2487 11.0561 77.6441 11.0561C72.0395 11.0561 67.4961 15.5893 67.4961 21.1812C67.4961 26.7732 72.0395 31.3063 77.6441 31.3063Z" fill="#DBE5E5"/>
<path d="M178.247 14.0931C180.737 16.3944 182.382 19.4854 182.705 22.9318C182.705 22.9318 184.658 13.2551 176.592 9.59993C180.403 4.23224 188.023 0.569138 196.794 0.569138C206.089 0.569138 214.085 4.68061 217.632 10.5776C217.806 10.4046 217.983 10.235 218.165 10.0689C222.011 6.52565 227.427 4.32033 233.426 4.32033C241.309 4.32033 248.184 8.12945 251.817 13.7749C253.43 16.281 254.403 19.1489 254.543 22.2065C257.228 16.5198 256.237 11.8838 256.237 11.8838C259.715 10.6875 263.369 10.0787 267.048 10.0824C285.58 10.0824 300.597 25.2768 300.597 44.0193C300.613 51.3373 298.27 58.4663 293.912 64.3529C290.193 69.3745 285.126 71.6918 279.824 71.6918C270.842 71.6918 263.631 65.248 263.651 56.287C263.653 54.2281 264.05 52.1885 264.822 50.279C262.842 51.7949 260.414 52.6124 257.918 52.6033C253.951 52.6033 249.678 50.6773 247.737 47.6689C247.383 47.142 243.653 42.2012 241.295 40.5268C232.846 34.5306 224.19 38.0064 221.809 39.019C218.496 40.43 215.857 43.0662 214.034 46.1572C211.016 51.9867 203.161 56.7402 196.136 56.7402C186.107 56.7402 177.977 48.6283 177.977 38.6222C177.979 37.0735 178.167 35.5306 178.538 34.0267C175.761 36.732 171.85 38.4167 167.517 38.4167C159.094 38.4167 152.266 32.0507 152.266 24.1984C152.266 24.177 152.266 24.1547 152.266 24.1333C152.303 16.3111 159.117 9.98005 167.516 9.98005C170.619 9.97608 174.999 11.0958 178.247 14.0931Z" fill="#DBE5E5"/>
<path d="M201.01 49.3933C202.216 49.3933 203.193 48.418 203.193 47.215C203.193 46.0119 202.216 45.0366 201.01 45.0366C199.804 45.0366 198.827 46.0119 198.827 47.215C198.827 48.418 199.804 49.3933 201.01 49.3933Z" fill="white"/>
<path d="M273.84 65.5948C275.046 65.5948 276.023 64.6195 276.023 63.4165C276.023 62.2134 275.046 61.2381 273.84 61.2381C272.634 61.2381 271.657 62.2134 271.657 63.4165C271.657 64.6195 272.634 65.5948 273.84 65.5948Z" fill="white"/>
<path d="M59.2354 73.0877C59.513 73.6432 59.6967 74.2598 59.9051 74.8772C59.9051 74.8772 61.2787 74.0836 62.4216 74.4883C63.7682 74.9692 65.2746 76.4262 66.7794 78.5085C66.9854 78.7926 68.1856 80.7377 68.3423 80.913C69.3641 82.0522 70.6156 82.9632 72.0147 83.5864C73.4138 84.2096 74.9291 84.5309 76.4613 84.5293C82.2914 84.5293 87.2075 80.0393 87.0182 74.5074C86.8042 68.2382 81.0395 65.4742 81.0395 65.4742C82.0282 64.158 82.5649 62.5585 82.5697 60.9136C82.5697 56.3268 78.3988 52.6089 73.2537 52.6089C69.622 52.6089 66.4756 54.4611 64.9389 57.1648C65.5752 53.7294 68.5817 51.0059 72.4098 50.3694C71.5229 34.51 58.3167 21.9225 42.1534 21.9225C25.4174 21.9225 11.8501 35.421 11.8501 52.0716C11.8501 62.2944 16.9635 71.3291 24.7851 76.7802C25.9289 75.7255 27.3791 75.0609 28.9262 74.8821C30.4733 74.7034 32.0374 75.0199 33.3925 75.7858C33.0367 75.7336 32.6776 75.7071 32.3179 75.7065C31.3534 75.7066 30.3983 75.8962 29.5071 76.2646C28.616 76.633 27.8064 77.1729 27.1244 77.8535C26.4424 78.5341 25.9014 79.3421 25.5324 80.2312C25.1634 81.1204 24.9735 82.0734 24.9736 83.0358C24.9736 87.083 28.2632 90.2613 32.3179 90.3636C38.0358 90.5081 39.8349 84.9555 39.7419 83.0358C39.5406 78.8434 37.0686 77.4475 37.0686 77.4475C38.5735 72.1418 41.2204 68.0835 44.4186 66.3471C46.8405 64.7886 52.8908 60.3113 59.2354 73.0877Z" fill="#DBE5E5"/>
<path d="M73.2536 58.9963C74.4594 58.9963 75.4369 58.021 75.4369 56.8179C75.4369 55.6149 74.4594 54.6396 73.2536 54.6396C72.0478 54.6396 71.0703 55.6149 71.0703 56.8179C71.0703 58.021 72.0478 58.9963 73.2536 58.9963Z" fill="white"/>
<path d="M132.475 75.2486C133.153 75.2184 133.702 74.7193 133.702 74.067C133.7 73.8347 133.629 73.6082 133.499 73.4158C133.369 73.2234 133.184 73.0736 132.969 72.9853C133.117 72.9446 133.271 72.9241 133.425 72.9242C134.3 72.9242 135.001 73.5686 135.001 74.3638C135 74.6867 134.884 74.9987 134.672 75.243C135.357 75.0272 135.936 74.628 136.122 74.0527C136.79 74.9629 137.113 76.2064 136.917 77.5118C136.903 77.611 136.885 77.7094 136.865 77.8055C136.575 79.2045 135.732 80.3322 134.659 80.9099C134.051 82.3137 132.591 83.3025 130.883 83.3025C128.63 83.3025 126.805 81.5797 126.805 79.4545C126.805 78.7128 127.03 77.9886 127.451 77.3769L126.693 76.8817C126.404 76.9955 126.095 77.0537 125.784 77.0532C124.346 77.0532 123.179 75.8255 123.179 74.3114C123.173 73.8248 123.297 73.3455 123.536 72.9216C123.775 72.4978 124.123 72.1444 124.543 71.8974C124.438 72.1444 124.384 72.4099 124.384 72.6782C124.384 73.3877 124.829 73.7892 125.372 73.963C125.38 73.8837 125.39 73.8043 125.402 73.7249C125.874 70.5316 128.737 68.1755 132.003 68.3287C130.854 68.7199 130.015 70.0936 130.036 71.7172C130.048 72.8036 130.442 73.7702 131.049 74.3987C131.253 74.6574 131.957 75.2716 132.475 75.2486Z" fill="#FFDB00"/>
<path d="M6.54345 136.864C6.54345 136.864 1.70287 136.371 0 130.422C0 130.422 5.31382 130.47 6.54345 136.864Z" fill="#FFDB00"/>
<path d="M20.1302 105.365C20.1302 105.365 16.9026 105.975 14.6533 102.453C14.6533 102.45 18.102 101.464 20.1302 105.365Z" fill="#FFDB00"/>
<path d="M72.2834 127.549C72.2834 127.549 71.9891 124.092 75.8761 122.207C75.8777 122.209 76.5394 125.944 72.2834 127.549Z" fill="#FFDB00"/>
<path d="M149.027 137.848H21.0366C21.0363 137.845 21.0363 137.841 21.0366 137.838C20.8372 137.844 20.6363 137.847 20.4337 137.847L15.7101 137.841C11.3356 137.267 7.5409 133.484 6.48387 128.364C6.43058 128.103 6.38047 127.837 6.3415 127.57C5.81815 124.032 6.69305 120.666 8.50409 118.196C8.94313 121.14 11.746 123.671 16.3869 122.878C15.4656 122.759 14.5966 122.383 13.88 121.794C13.1633 121.204 12.6282 120.424 12.3361 119.545C11.3666 116.608 13.6501 113.803 16.3814 113.071C16.864 112.941 17.3618 112.877 17.8615 112.879C16.6621 113.815 16.0704 115.371 16.4784 116.887C17.0288 118.932 19.1969 120.13 21.3214 119.561C21.6204 119.481 25.6569 117.497 24.9904 111.863C24.4734 107.493 22.7729 103.74 19.6614 102.68C28.5162 102.273 36.2734 108.658 37.5571 117.312L37.6613 117.947C39.1208 117.471 40.3162 116.384 40.3162 114.473C40.3176 113.746 40.1724 113.026 39.8891 112.356C42.0883 113.615 43.5796 116.068 43.5796 118.884C43.5796 122.546 41.063 125.589 37.7512 126.203C40.1372 127.949 41.7431 130.628 41.9865 133.677C43.376 133.095 45.0971 132.614 47.2136 132.377L47.3202 132.363C48.6198 132.17 49.5663 131.297 49.4342 130.415C49.3547 129.867 48.8719 129.444 48.2086 129.249C48.6943 128.867 49.2888 128.647 49.9071 128.623C50.5253 128.598 51.1356 128.769 51.6506 129.111C52.1655 129.453 52.5588 129.949 52.7742 130.528C52.9895 131.107 53.0159 131.738 52.8495 132.333C53.769 132.412 54.7377 132.523 55.7574 132.682C55.7574 132.682 57.4722 124.788 64.9406 124.788C71.2741 124.788 71.908 131.295 71.908 131.295C71.908 131.295 73.8081 127.472 78.2415 127.945C82.6748 128.419 82.5165 132.681 82.5165 132.681C82.5165 132.681 83.191 120.809 94.2617 119.97C93.4146 120.906 92.8984 122.94 92.8984 124.3C92.8986 125.701 93.4564 127.044 94.449 128.034C95.4417 129.025 96.7879 129.581 98.1916 129.581C98.725 129.586 99.2583 129.559 99.7886 129.502C100.137 129.434 100.461 129.276 100.73 129.045C100.838 128.953 100.937 128.851 101.026 128.74C101.705 127.891 101.641 126.716 100.885 126.115C100.266 125.622 99.3743 125.669 98.6966 126.169C99.08 125.252 100.208 124.589 101.536 124.589C102.178 124.582 102.81 124.748 103.365 125.069L103.373 125.075C103.432 125.112 103.492 125.149 103.55 125.188C108.63 128.466 108.481 134.897 108.481 134.897C108.481 134.897 110.385 132.685 113.868 134.738C113.868 134.738 113.365 131.095 118.302 130.27C122.26 129.609 123.685 132.681 123.685 132.681C123.685 132.681 126.169 124.937 136.043 125.102C149.027 125.329 149.027 137.848 149.027 137.848Z" fill="#FFDB00"/>
<path d="M50.6197 66.5415C50.6195 67.5864 50.3281 68.6105 49.7778 69.4995C49.2276 70.3884 48.4402 71.1071 47.504 71.575C46.5677 72.043 45.5194 72.2418 44.4763 72.1491C43.4332 72.0565 42.4366 71.6761 41.5979 71.0506C41.5309 71.4825 41.3413 71.8863 41.0514 72.2139C40.7614 72.5416 40.3834 72.7795 39.9621 72.8993C39.5409 73.0191 39.094 73.0159 38.6745 72.8901C38.255 72.7642 37.8804 72.521 37.5952 72.1892C37.3101 71.8574 37.1263 71.4509 37.0656 71.0181C37.0049 70.5852 37.0698 70.1441 37.2528 69.7469C37.4357 69.3498 37.729 69.0133 38.0978 68.7774C38.4665 68.5415 38.8954 68.4161 39.3335 68.4159C39.4437 68.4158 39.5537 68.4238 39.6627 68.4397C39.3892 67.676 39.284 66.8624 39.3543 66.0544C39.4246 65.2464 39.6687 64.463 40.07 63.7577C40.2453 64.1538 40.4983 64.5109 40.8139 64.808C41.1296 65.1052 41.5016 65.3364 41.908 65.4881C42.3145 65.6398 42.7472 65.7089 43.1808 65.6914C43.6145 65.6739 44.0402 65.5701 44.433 65.3861C44.8259 65.2022 45.1779 64.9417 45.4685 64.6201C45.759 64.2984 45.9822 63.9221 46.125 63.5132C46.2677 63.1043 46.3271 62.6711 46.2996 62.239C46.2722 61.8068 46.1585 61.3845 45.9652 60.9969C47.2698 61.2293 48.4509 61.9121 49.3018 62.9257C50.1527 63.9394 50.6192 65.2193 50.6197 66.5415Z" fill="#FFDB00"/>
<path d="M43.8098 63.603C43.8098 63.603 41.0928 62.5999 41.3688 59.8676C41.3688 59.8676 44.4612 60.766 43.8098 63.603Z" fill="#FFD100"/>
<path d="M51.2366 60.3112C51.2366 60.3112 50.2957 57.5766 52.5887 56.0609C52.5903 56.0632 53.8462 59.0185 51.2366 60.3112Z" fill="#FFD100"/>
<path d="M58.2336 73.175C58.2336 74.0577 57.9632 74.9193 57.4585 75.6444C56.9539 76.3695 56.2392 76.9233 55.4102 77.2317C54.5812 77.5401 53.6776 77.5883 52.8204 77.3699C51.9632 77.1514 51.1933 76.6768 50.6141 76.0096C50.5871 76.3656 50.4456 76.7034 50.2107 76.9726C49.9758 77.2419 49.66 77.4283 49.3103 77.504C48.9606 77.5797 48.5958 77.5407 48.2701 77.3928C47.9445 77.2449 47.6754 76.996 47.5029 76.6832C47.3305 76.3704 47.2639 76.0104 47.3131 75.6568C47.3624 75.3032 47.5247 74.9749 47.7761 74.7208C48.0274 74.4667 48.3543 74.3004 48.708 74.2466C49.0617 74.1929 49.4234 74.2546 49.7392 74.4225C49.4624 73.5027 49.4997 72.5173 49.8452 71.621C50.1907 70.7246 50.8249 69.9682 51.648 69.4706C51.4984 69.8596 51.4497 70.2799 51.5065 70.6927C51.6608 71.8775 52.5826 72.7345 53.5657 72.6068C54.5487 72.479 55.2216 71.4164 55.0673 70.2316C55.0072 69.7285 54.7908 69.2568 54.4485 68.8826C55.4945 69.017 56.4555 69.5268 57.1521 70.3168C57.8487 71.1068 58.2332 72.1228 58.2336 73.175Z" fill="#FFDB00"/>
<path d="M250.445 24.8237C250.445 29.7192 245.095 33.6879 238.495 33.6879C232.609 33.6879 227.717 30.5319 226.724 26.3767C226.837 26.5291 226.946 26.687 227.051 26.8481C227.281 27.2032 227.488 27.5727 227.671 27.9544C229.516 30.643 233.43 32.4975 237.961 32.4975C240.539 32.4975 242.92 31.896 244.831 30.881C246.853 29.8089 248.352 28.275 249.01 26.5021C249.157 26.1097 249.261 25.703 249.321 25.2888C249.557 24.6423 249.889 24.0354 250.308 23.489C250.398 23.9282 250.444 24.3753 250.445 24.8237Z" fill="#FFDB00"/>
<path d="M299.979 33.3982C299.807 33.8362 299.619 34.2671 299.414 34.6909C298.625 36.3156 297.626 37.8298 296.441 39.1944C296.441 39.1957 296.441 39.197 296.441 39.1983C292.615 43.2193 286.494 45.5072 279.874 44.8327C270.734 43.8986 263.673 37.6215 262.665 30.1334C262.965 30.1021 263.262 30.0418 263.55 29.9533C265.438 37.1644 273.029 42.5567 282.104 42.5567C288.758 42.5567 294.614 39.6586 298.012 35.2694V35.2654C298.471 34.6082 298.893 33.926 299.276 33.222C299.506 33.2871 299.74 33.3458 299.979 33.3982Z" fill="#FFDB00"/>
<path d="M301.377 10.257C303.244 10.257 304.757 8.74698 304.757 6.88432C304.757 5.02165 303.244 3.51166 301.377 3.51166C299.51 3.51166 297.997 5.02165 297.997 6.88432C297.997 8.74698 299.51 10.257 301.377 10.257Z" fill="#423C52"/>
<path d="M252.159 130.974C252.57 130.974 252.977 130.894 253.356 130.737C253.736 130.58 254.081 130.35 254.371 130.06C254.662 129.77 254.892 129.426 255.049 129.047C255.207 128.668 255.287 128.262 255.287 127.852V19.26" stroke="#FFDB00" stroke-width="7" stroke-miterlimit="10"/>
<path d="M252.956 20.6789H250.447V191.987H252.956V20.6789Z" fill="#423C52"/>
<path d="M260.236 46.9C260.236 49.0388 259.608 51.1307 258.43 52.9176L252.527 61.6674" stroke="#423C52" stroke-width="7" stroke-miterlimit="10" stroke-linecap="round"/>
<path d="M240.916 53.9556V60.3303C240.915 62.0983 241.304 63.8448 242.054 65.4467C242.804 67.0486 243.897 68.4669 245.256 69.6015L246.895 70.9704C248.007 71.9001 248.902 73.0618 249.515 74.3736C250.129 75.6855 250.447 77.1156 250.447 78.5633" stroke="#FFDB00" stroke-width="7" stroke-miterlimit="10"/>
<path d="M250.447 191.89V22.266" stroke="#FFDB00" stroke-width="7" stroke-miterlimit="10"/>
<path d="M251.242 175.801C250.412 175.801 249.616 175.473 249.03 174.887C248.443 174.302 248.113 173.508 248.113 172.68V140.138" stroke="#423C52" stroke-width="7" stroke-miterlimit="10" stroke-linecap="round"/>
<path d="M246.252 29.1971V42.083C246.252 42.7052 246.375 43.3213 246.613 43.8961C246.852 44.471 247.202 44.9933 247.642 45.4332C248.083 45.8732 248.607 46.2221 249.183 46.4602C249.759 46.6982 250.377 46.8207 251 46.8206" stroke="#423C52" stroke-width="7" stroke-miterlimit="10" stroke-linecap="round"/>
<path d="M260.067 24.9912V26.6085C260.068 27.2306 259.945 27.8467 259.706 28.4216C259.468 28.9964 259.118 29.5187 258.677 29.9587C258.236 30.3986 257.712 30.7476 257.136 30.9856C256.56 31.2237 255.943 31.3462 255.319 31.346H252.138" stroke="#423C52" stroke-width="7" stroke-miterlimit="10" stroke-linecap="round"/>
<path d="M246.51 96.747V106.227C246.51 109.029 247.447 111.752 249.173 113.963L255.287 121.701" stroke="#423C52" stroke-width="7" stroke-miterlimit="10" stroke-linecap="round"/>
<path d="M230.427 28.6114H222.463C222.022 28.6114 221.585 28.5247 221.178 28.3563C220.77 28.1879 220.4 27.941 220.088 27.6298C219.776 27.3187 219.529 26.9492 219.36 26.5426C219.191 26.136 219.104 25.7003 219.104 25.2602V19.26" stroke="#423C52" stroke-width="7" stroke-miterlimit="10" stroke-linecap="round"/>
<path d="M292.337 39.2928H300.299C301.19 39.2928 302.044 38.9398 302.674 38.3113C303.304 37.6828 303.658 36.8304 303.658 35.9416V32.0849" stroke="#423C52" stroke-width="7" stroke-miterlimit="10" stroke-linecap="round"/>
<path d="M245.95 7.70328C245.95 7.70328 256.996 -2.8091 276.873 0.727033C294.6 3.88146 299.095 14.8525 299.095 14.8525C299.095 14.8525 311.119 11.8298 313.46 22.1732C315.13 29.5533 306.528 35.5099 299.274 33.2164C299.274 33.2164 295.43 41.7433 283.033 42.5321C270.637 43.3209 263.969 34.0346 263.547 29.9477C263.547 29.9477 258.601 31.0857 257.563 26.637C256.693 22.9072 259.379 21.4851 259.676 21.3709C259.676 21.3709 256.261 19.8345 253.182 21.2376C250.409 22.5017 249.787 23.9357 248.881 26.8282C248.032 29.5359 244.119 32.3713 238.445 32.4872C232.77 32.603 228.423 30.3318 226.727 26.3767C225.03 22.4216 218.971 22.2501 216.303 24.7546C213.634 27.2591 204.207 28.1773 200.422 22.2557C196.637 16.3341 198.069 8.25322 214.813 4.64328C232.53 0.827023 245.224 7.36443 245.95 7.70328Z" fill="#423C52"/>
<path d="M261.123 46.5285L259.971 47.2174V42.0401C259.971 41.5163 260.074 40.9977 260.275 40.5138C260.476 40.0299 260.77 39.5902 261.142 39.2198C261.513 38.8495 261.953 38.5557 262.438 38.3553C262.923 38.1548 263.443 38.0517 263.968 38.0517V41.5283C263.968 42.5361 263.706 43.5267 263.207 44.4032C262.709 45.2796 261.991 46.012 261.123 46.5285Z" fill="#423C52"/>
<path d="M241.233 58.4328V54.0516C241.233 53.2044 241.57 52.392 242.171 51.793C242.771 51.194 243.585 50.8575 244.434 50.8575V52.0684C244.434 53.3048 244.145 54.524 243.589 55.629C243.033 56.734 242.227 57.6941 241.233 58.4328Z" fill="#423C52"/>
<path d="M241.202 54.4094C239.956 53.8442 238.899 52.9327 238.157 51.784C237.416 50.6352 237.022 49.2978 237.022 47.9315V44.8509C237.571 44.8509 238.115 44.9588 238.622 45.1684C239.129 45.378 239.59 45.6853 239.978 46.0726C240.366 46.4599 240.674 46.9197 240.884 47.4257C241.094 47.9318 241.202 48.4742 241.202 49.0219V54.4094Z" fill="#FFDB00"/>
<path d="M248.411 153.365V148.278C248.411 147.279 248.013 146.321 247.305 145.615C246.597 144.909 245.637 144.512 244.636 144.512V148.559C244.636 149.238 244.801 149.908 245.117 150.509C245.434 151.111 245.891 151.627 246.452 152.013L248.411 153.365Z" fill="#423C52"/>
<path d="M246.828 103.024V97.0534C246.828 95.8808 246.362 94.7563 245.531 93.9273C244.7 93.0982 243.573 92.6324 242.397 92.6324V97.3851C242.397 98.1825 242.591 98.9681 242.963 99.6742C243.334 100.38 243.871 100.986 244.529 101.439L246.828 103.024Z" fill="#423C52"/>
<path d="M229.78 172.552C229.78 172.552 225.593 170.079 226.548 163.965C226.548 163.965 231.351 166.233 229.78 172.552Z" fill="#FFDB00"/>
<path d="M261.868 188.302C261.868 188.302 262.537 183.953 267.893 182.782C267.893 182.782 267.596 187.589 261.868 188.302Z" fill="#FFDB00"/>
<path d="M273.844 194.611C273.844 195.379 260.839 196 244.797 196C228.754 196 215.75 195.379 215.75 194.611C215.75 194.141 220.64 193.726 228.122 193.474C225.566 191.827 223.807 188.969 224.065 185.566C224.352 181.757 226.645 178.641 229.688 177.41C228.046 184.039 233.304 185.278 233.304 185.278C232.58 183.489 232.209 181.578 232.21 179.649C232.21 171.872 238.201 165.252 246.041 164.463C243.441 165.798 241.928 169.366 242.542 173.229C242.955 175.815 244.236 177.979 245.904 179.264C246.88 180.166 248.322 180.808 249.974 180.964C253.166 181.267 255.932 179.643 256.151 177.337C256.236 176.446 255.929 175.584 255.336 174.844C258.649 176.412 260.983 180.199 260.983 184.619C260.983 184.858 260.976 185.101 260.962 185.338C260.883 186.75 260.555 188.138 259.993 189.436C260.44 189.493 260.866 189.658 261.235 189.915C261.603 190.173 261.904 190.516 262.111 190.916C262.318 191.315 262.424 191.758 262.421 192.208C262.419 192.657 262.307 193.099 262.095 193.496C269.224 193.749 273.844 194.154 273.844 194.611Z" fill="#FFDB00"/>
<path d="M136.975 186.456C142.166 186.456 146.373 185.94 146.373 185.304C146.373 184.667 142.166 184.151 136.975 184.151C131.785 184.151 127.577 184.667 127.577 185.304C127.577 185.94 131.785 186.456 136.975 186.456Z" fill="#B59B00"/>
<path d="M223.55 177.468C223.55 179.221 195.912 180.642 161.818 180.642C127.725 180.642 100.088 179.221 100.088 177.468C100.088 176.948 102.515 176.458 106.819 176.025L104.288 172.675L108.194 174.421L103.922 165.675L110.464 173.388L116.477 159.033L113.736 173.945L117.747 172.079L115.319 175.378C126.635 174.712 143.271 174.291 161.818 174.291C195.912 174.294 223.55 175.715 223.55 177.468Z" fill="#B59B00"/>
<path d="M245.456 76.404C244.586 78.7118 243.031 80.7001 240.999 82.1037C238.967 83.5073 236.554 84.2596 234.083 84.2603H212.767C211.642 84.2602 210.528 84.4812 209.489 84.9106C208.45 85.3401 207.506 85.9696 206.71 86.7631C205.915 87.5567 205.284 88.4989 204.853 89.5357C204.423 90.5726 204.202 91.684 204.202 92.8063" stroke="#423C52" stroke-width="7" stroke-miterlimit="10" stroke-linecap="round"/>
<path d="M214.815 84.2572C216.852 84.2572 218.844 83.66 220.543 82.5397C222.242 81.4194 223.573 79.8255 224.372 77.9562" stroke="#423C52" stroke-width="7" stroke-miterlimit="10" stroke-linecap="round"/>
<path d="M225.537 84.2572C227.574 84.2571 229.565 83.6598 231.264 82.5395C232.963 81.4192 234.294 79.8254 235.093 77.9562" stroke="#423C52" stroke-width="7" stroke-miterlimit="10" stroke-linecap="round"/>
<path d="M205.536 88.1171C205.536 86.9334 205.302 85.7613 204.847 84.6679C204.393 83.5745 203.727 82.5811 202.887 81.7448" stroke="#423C52" stroke-width="7" stroke-miterlimit="10" stroke-linecap="round"/>
<path d="M164.623 137.049H144.898V152.736L158.348 177.567H159.353L150.472 155.563C150.293 155.123 150.286 154.632 150.452 154.186C150.618 153.741 150.944 153.374 151.367 153.156C155.176 151.185 164.623 145.454 164.623 137.049Z" fill="#423C52"/>
<path d="M186.172 136.749L212.191 177.565H213.495L195.208 135.792L186.172 136.749Z" fill="#423C52"/>
<path d="M217.179 94.0649L215.906 94.9434C215.046 95.499 214.057 95.8244 213.035 95.8883C212.012 95.9523 210.99 95.7526 210.067 95.3084L207.49 94.0673V118.411C207.49 123.338 205.528 128.063 202.036 131.547C198.544 135.031 193.809 136.988 188.87 136.988L197.363 154.984C197.535 155.348 197.596 155.754 197.537 156.152C197.478 156.549 197.302 156.921 197.032 157.219L180.806 175.14L179.74 174.371L191.805 157.199C192.055 156.844 192.184 156.418 192.175 155.984C192.165 155.549 192.017 155.13 191.751 154.785L178.082 137.049H158.578L157.9 139.516C156.879 143.23 154.751 146.548 151.8 149.03C148.848 151.513 145.211 153.043 141.369 153.419L134.144 154.127C132.508 154.287 130.959 154.939 129.702 155.996C128.446 157.053 127.54 158.466 127.106 160.048L122.295 177.567H121.055L126.009 150.127C126.068 149.796 126.227 149.49 126.464 149.25C126.701 149.011 127.005 148.848 127.336 148.784L131.34 148.008C134.036 147.484 136.465 146.041 138.211 143.926C139.958 141.81 140.912 139.155 140.912 136.414V131.407C140.909 128.856 141.499 126.339 142.635 124.053C143.771 121.768 145.422 119.776 147.458 118.234H145.202C143.671 118.234 142.203 117.627 141.12 116.547C140.037 115.467 139.429 114.002 139.429 112.474V112.358H142.947C144.352 112.358 145.708 112.873 146.758 113.805C147.807 114.738 148.477 116.022 148.639 117.415C151.286 115.742 154.354 114.856 157.487 114.858C169.555 114.847 184.552 114.399 189.11 112.378C197.114 108.829 197.771 101.268 196.825 97.3193C196.376 95.4433 193.108 92.0238 191.36 89.997C190.775 89.3201 190.453 88.4561 190.453 87.5624V86.8728L217.179 94.0649Z" fill="#EB7500"/>
<path d="M195.566 95.5155C195.566 95.5155 197.351 98.5691 199.719 99.1095C202.088 99.6499 202.901 97.7255 202.901 97.7255" stroke="white" stroke-width="7" stroke-miterlimit="10" stroke-linecap="round"/>
<path d="M198.852 91.992C199.188 91.992 199.46 91.7202 199.46 91.3849C199.46 91.0496 199.188 90.7779 198.852 90.7779C198.516 90.7779 198.243 91.0496 198.243 91.3849C198.243 91.7202 198.516 91.992 198.852 91.992Z" fill="#423C52"/>
<path d="M207.655 93.7204C208.731 92.8856 210.133 92.5095 211.455 92.8404L216.43 94.1728" stroke="#423C52" stroke-width="7" stroke-miterlimit="10" stroke-linecap="round"/>
<path d="M160.753 123.673C162.034 123.673 163.072 122.637 163.072 121.36C163.072 120.082 162.034 119.046 160.753 119.046C159.473 119.046 158.435 120.082 158.435 121.36C158.435 122.637 159.473 123.673 160.753 123.673Z" fill="white"/>
<path d="M166.449 126.796C167.089 126.796 167.608 126.278 167.608 125.639C167.608 125.001 167.089 124.483 166.449 124.483C165.809 124.483 165.291 125.001 165.291 125.639C165.291 126.278 165.809 126.796 166.449 126.796Z" fill="white"/>
<path d="M176.898 121.12C178.108 121.12 179.089 120.141 179.089 118.934C179.089 117.727 178.108 116.749 176.898 116.749C175.689 116.749 174.708 117.727 174.708 118.934C174.708 120.141 175.689 121.12 176.898 121.12Z" fill="white"/>
<path d="M187.528 122.982C188.424 122.982 189.15 122.258 189.15 121.364C189.15 120.469 188.424 119.745 187.528 119.745C186.632 119.745 185.905 120.469 185.905 121.364C185.905 122.258 186.632 122.982 187.528 122.982Z" fill="white"/>
<path d="M183.684 126.07C184.279 126.07 184.761 125.589 184.761 124.996C184.761 124.402 184.279 123.921 183.684 123.921C183.09 123.921 182.607 124.402 182.607 124.996C182.607 125.589 183.09 126.07 183.684 126.07Z" fill="white"/>
<path d="M172.348 120.971C172.819 120.971 173.2 120.59 173.2 120.121C173.2 119.651 172.819 119.271 172.348 119.271C171.878 119.271 171.497 119.651 171.497 120.121C171.497 120.59 171.878 120.971 172.348 120.971Z" fill="white"/>
<path d="M191.904 117.732C192.375 117.732 192.756 117.352 192.756 116.882C192.756 116.413 192.375 116.032 191.904 116.032C191.434 116.032 191.052 116.413 191.052 116.882C191.052 117.352 191.434 117.732 191.904 117.732Z" fill="white"/>
<path d="M156.039 120.161C156.51 120.161 156.891 119.781 156.891 119.311C156.891 118.842 156.51 118.461 156.039 118.461C155.569 118.461 155.188 118.842 155.188 119.311C155.188 119.781 155.569 120.161 156.039 120.161Z" fill="white"/>
</svg>
