<svg width="48" height="44" viewBox="0 0 48 44" fill="none" xmlns="http://www.w3.org/2000/svg">
<path d="M18.8999 28C20.6999 29.2 21.9999 31.7 19.1999 33.6C17.6999 37.4 14.4999 36.8 12.8999 35C11.1999 33.2 10.6999 28.7 11.8999 26C14.5999 28 16.5999 26.5 18.8999 28Z" stroke="#FF7A63" stroke-width="2" stroke-miterlimit="10" stroke-linecap="round" stroke-linejoin="round"/>
<path d="M23.9001 23C21.9001 25.3 21.1001 28.6 25.8001 30.6C27.9001 35.4 31.7 33.5 33.9 31C36.1 28.5 36.8 21.6 34.9 18C31.4 21 26.4001 20.1 23.9001 23Z" stroke="#FF7A63" stroke-width="2" stroke-miterlimit="10" stroke-linecap="round" stroke-linejoin="round"/>
<path d="M15.8999 31C15.8999 31 19.4999 32.6 21.8999 39C21.8999 39 24.2999 30.8 31.8999 24" stroke="#FF7A63" stroke-width="2" stroke-miterlimit="10" stroke-linecap="round" stroke-linejoin="round"/>
<path d="M1 21L24 1L47 21" stroke="#FF7A63" stroke-width="2" stroke-miterlimit="10" stroke-linecap="round" stroke-linejoin="round"/>
<path d="M5 17.5V43" stroke="#FF7A63" stroke-width="2" stroke-miterlimit="10" stroke-linejoin="round"/>
<path d="M43 17.5V43" stroke="#FF7A63" stroke-width="2" stroke-miterlimit="10" stroke-linejoin="round"/>
<path d="M31 7.1V1H39V14" stroke="#FF7A63" stroke-width="2" stroke-miterlimit="10" stroke-linecap="round" stroke-linejoin="round"/>
<path d="M1 43H47" stroke="#FF7A63" stroke-width="2" stroke-miterlimit="10" stroke-linecap="round" stroke-linejoin="round"/>
</svg>
