<svg width="30" height="42" viewBox="0 0 30 42" fill="none" xmlns="http://www.w3.org/2000/svg">
<path d="M21.1 18.6H21.6V18.1V17C21.6 16.7295 21.4457 16.5182 21.3307 16.3909C21.2013 16.2475 21.0306 16.1118 20.8421 15.986C20.4624 15.7325 19.9426 15.4745 19.3437 15.2435C18.1456 14.7814 16.5591 14.4 15 14.4C13.4409 14.4 11.8544 14.7814 10.6563 15.2435C10.0574 15.4745 9.53759 15.7325 9.15785 15.986C8.96945 16.1118 8.79872 16.2475 8.66925 16.3909C8.55427 16.5182 8.4 16.7295 8.4 17V18.1V18.6H8.9H21.1ZM17.6 8C17.6 6.56386 16.4361 5.4 15 5.4C13.5639 5.4 12.4 6.56386 12.4 8C12.4 9.43614 13.5639 10.6 15 10.6C16.4361 10.6 17.6 9.43614 17.6 8ZM11.5 8C11.5 6.06614 13.0661 4.5 15 4.5C16.9339 4.5 18.5 6.06614 18.5 8C18.5 9.93386 16.9339 11.5 15 11.5C13.0661 11.5 11.5 9.93386 11.5 8ZM7.5 17C7.5 16.5186 7.73716 16.06 8.21364 15.6202C8.69352 15.1773 9.38208 14.7882 10.1847 14.4666C11.7907 13.8233 13.7275 13.5 15 13.5C16.2725 13.5 18.2093 13.8233 19.8153 14.4666C20.6179 14.7882 21.3065 15.1773 21.7864 15.6202C22.2628 16.06 22.5 16.5186 22.5 17V19.5H7.5V17Z" fill="#236348" stroke="#236348"/>
<path d="M6.55467 31.084C6.55467 31.78 6.31467 32.36 5.83467 32.824C5.36267 33.28 4.63867 33.508 3.66267 33.508H2.05467V37H0.962672V28.636H3.66267C4.60667 28.636 5.32267 28.864 5.81067 29.32C6.30667 29.776 6.55467 30.364 6.55467 31.084ZM3.66267 32.608C4.27067 32.608 4.71867 32.476 5.00667 32.212C5.29467 31.948 5.43867 31.572 5.43867 31.084C5.43867 30.052 4.84667 29.536 3.66267 29.536H2.05467V32.608H3.66267ZM14.1519 33.46C14.1519 33.668 14.1399 33.888 14.1159 34.12H8.85989C8.89989 34.768 9.11989 35.276 9.51989 35.644C9.92789 36.004 10.4199 36.184 10.9959 36.184C11.4679 36.184 11.8599 36.076 12.1719 35.86C12.4919 35.636 12.7159 35.34 12.8439 34.972H14.0199C13.8439 35.604 13.4919 36.12 12.9639 36.52C12.4359 36.912 11.7799 37.108 10.9959 37.108C10.3719 37.108 9.81189 36.968 9.31589 36.688C8.82789 36.408 8.44389 36.012 8.16389 35.5C7.88389 34.98 7.74389 34.38 7.74389 33.7C7.74389 33.02 7.87989 32.424 8.15189 31.912C8.42389 31.4 8.80389 31.008 9.29189 30.736C9.78789 30.456 10.3559 30.316 10.9959 30.316C11.6199 30.316 12.1719 30.452 12.6519 30.724C13.1319 30.996 13.4999 31.372 13.7559 31.852C14.0199 32.324 14.1519 32.86 14.1519 33.46ZM13.0239 33.232C13.0239 32.816 12.9319 32.46 12.7479 32.164C12.5639 31.86 12.3119 31.632 11.9919 31.48C11.6799 31.32 11.3319 31.24 10.9479 31.24C10.3959 31.24 9.92389 31.416 9.53189 31.768C9.14789 32.12 8.92789 32.608 8.87189 33.232H13.0239ZM16.9253 31.492C17.1173 31.116 17.3893 30.824 17.7413 30.616C18.1013 30.408 18.5373 30.304 19.0493 30.304V31.432H18.7613C17.5373 31.432 16.9253 32.096 16.9253 33.424V37H15.8333V30.424H16.9253V31.492ZM23.2259 31.324H21.8459V37H20.7539V31.324H19.9019V30.424H20.7539V29.956C20.7539 29.22 20.9419 28.684 21.3179 28.348C21.7019 28.004 22.3139 27.832 23.1539 27.832V28.744C22.6739 28.744 22.3339 28.84 22.1339 29.032C21.9419 29.216 21.8459 29.524 21.8459 29.956V30.424H23.2259V31.324ZM25.3031 29.356C25.0951 29.356 24.9191 29.284 24.7751 29.14C24.6311 28.996 24.5591 28.82 24.5591 28.612C24.5591 28.404 24.6311 28.228 24.7751 28.084C24.9191 27.94 25.0951 27.868 25.3031 27.868C25.5031 27.868 25.6711 27.94 25.8071 28.084C25.9511 28.228 26.0231 28.404 26.0231 28.612C26.0231 28.82 25.9511 28.996 25.8071 29.14C25.6711 29.284 25.5031 29.356 25.3031 29.356ZM25.8311 30.424V37H24.7391V30.424H25.8311ZM29.0242 28.12V37H27.9322V28.12H29.0242Z" fill="#236348"/>
</svg>
