<svg width="375" height="812" viewBox="0 0 375 812" fill="none" xmlns="http://www.w3.org/2000/svg">
<g clip-path="url(#clip0_399:2406)">
<rect width="375" height="812" fill="white"/>
<rect y="-4" width="375" height="816" fill="#F7FBEE"/>
<g clip-path="url(#clip1_399:2406)">
<path d="M-17.1745 95.799H155.763C155.429 94.1393 151.975 76.3645 109.397 92.5518C109.397 92.5518 111.5 83.7122 98.7262 87.6359C85.9524 91.5596 90.5013 74.0175 79.2805 71.2087C72.5905 69.5346 68.7901 72.2911 66.1134 75.3579C64.8238 57.8267 49.3931 43.9846 30.5462 43.9846C10.8551 43.9846 -5.10587 59.0949 -5.10587 77.7374C-5.10614 78.8823 -5.04593 80.0264 -4.9255 81.165C-6.94745 78.661 -11.399 76.4204 -17.4811 76.5648C-17.62 76.5648 -17.7589 76.5738 -17.8959 76.5828C-30.2152 77.3008 -29.5226 95.799 -17.1745 95.799Z" fill="#E5F1EF"/>
<path d="M120.331 315.858L126.527 105.669C126.527 105.4 126.633 105.143 126.823 104.953C127.013 104.763 127.27 104.657 127.539 104.657C127.807 104.657 128.064 104.763 128.254 104.953C128.444 105.143 128.551 105.4 128.551 105.669L134.577 315.856L120.331 315.858Z" fill="#E5F1EF"/>
<path d="M135.497 66.1503C134.414 81.7982 131.575 95.5554 129.043 103.87C128.972 104.101 128.825 104.3 128.626 104.437C128.427 104.574 128.188 104.639 127.948 104.623C127.707 104.606 127.479 104.509 127.301 104.346C127.122 104.184 127.004 103.966 126.965 103.728C125.598 95.1838 124.664 81.2678 125.742 65.6254C127.005 47.1831 130.735 31.3621 133.498 24C135.246 31.6724 136.768 47.7081 135.497 66.1503Z" fill="#C8D9D2"/>
<path d="M90.651 121.825C103.416 114.364 115.706 109.123 124.02 106.379C125.445 105.909 126.485 107.725 125.362 108.725C119.875 113.572 109.527 121.515 95.1423 129.923C79.1849 139.25 64.6146 145.32 56.9705 147.17C62.3365 141.409 74.6937 131.157 90.651 121.825Z" fill="#C8D9D2"/>
<path d="M162.251 118.132C177.041 125.832 189.126 135.146 194.11 140.293C187.032 139.16 173.526 133.89 158.725 126.191C146.744 119.958 136.555 113.505 130.459 108.544C129.377 107.671 130.244 105.952 131.588 106.277C139.153 108.102 150.274 111.901 162.251 118.132Z" fill="#C8D9D2"/>
<path d="M127.786 109.841C130.165 109.841 132.095 107.912 132.095 105.531C132.095 103.151 130.165 101.222 127.786 101.222C125.406 101.222 123.477 103.151 123.477 105.531C123.477 107.912 125.406 109.841 127.786 109.841Z" fill="#E5F1EF"/>
<path d="M221.899 330.362L227.311 147.031C227.311 146.797 227.403 146.572 227.569 146.407C227.734 146.241 227.959 146.148 228.193 146.148C228.426 146.148 228.651 146.241 228.816 146.407C228.982 146.572 229.075 146.797 229.075 147.031L234.332 330.362H221.899Z" fill="#E5F1EF"/>
<path d="M239.57 119.972C236.482 131.119 232.404 140.643 229.338 146.269C229.253 146.426 229.117 146.55 228.953 146.62C228.789 146.69 228.606 146.702 228.434 146.654C228.262 146.607 228.112 146.502 228.007 146.358C227.902 146.214 227.849 146.038 227.857 145.86C228.129 139.486 229.509 129.296 232.599 118.154C236.239 105.021 241.257 94.1411 244.352 89.2324C244.478 95.0305 243.212 106.841 239.57 119.972Z" fill="#C8D9D2"/>
<path d="M198.956 153.572C209.279 150.067 218.93 148.095 225.344 147.341C225.577 147.313 225.812 147.366 226.009 147.491C226.207 147.617 226.355 147.807 226.428 148.029C226.502 148.251 226.496 148.492 226.412 148.71C226.329 148.929 226.172 149.112 225.969 149.228C221.29 151.919 212.643 156.13 201.009 160.079C188.105 164.461 176.684 166.694 170.887 166.902C175.613 163.537 186.049 157.954 198.956 153.572Z" fill="#C8D9D2"/>
<path d="M251.224 161.475C260.784 169.222 268.121 177.733 270.967 182.187C266.022 180.323 257.043 174.524 247.489 166.777C239.752 160.505 233.346 154.33 229.673 149.856C229.536 149.687 229.46 149.477 229.458 149.26C229.455 149.043 229.527 148.831 229.661 148.66C229.795 148.489 229.983 148.368 230.194 148.318C230.405 148.268 230.628 148.291 230.824 148.384C236.012 150.821 243.493 155.206 251.224 161.475Z" fill="#C8D9D2"/>
<path d="M228.551 150.77C230.627 150.77 232.31 149.087 232.31 147.011C232.31 144.934 230.627 143.251 228.551 143.251C226.475 143.251 224.792 144.934 224.792 147.011C224.792 149.087 226.475 150.77 228.551 150.77Z" fill="#E5F1EF"/>
<path d="M-64.3394 390.972H533.843C533.843 390.972 476.034 315.845 373.38 332.184C238.568 353.64 188.511 307.195 123.776 290.711C62.0895 275.002 14.9876 295.808 -16.7757 321.7C-42.657 342.796 -64.3394 366.8 -64.3394 390.974V390.972Z" fill="#80AE09"/>
<path d="M147.536 390.972C147.536 390.972 177.97 351.34 255.037 361.587C362.166 375.838 400.459 297.22 491.836 292.822C659.296 284.762 722.002 390.972 722.002 390.972H147.536Z" fill="#FF7A63"/>
<path d="M344.961 478.387V303.874" stroke="#423C52" stroke-width="5" stroke-miterlimit="10" stroke-linecap="round"/>
<path d="M354.802 258.665C353.568 264.866 351.056 269.933 348.457 272.044C346.864 269.098 346.487 263.455 347.721 257.251C348.954 251.047 351.467 245.983 354.066 243.873C355.659 246.82 356.038 252.465 354.802 258.665Z" fill="#FFDB00"/>
<path d="M342.919 318.336C341.685 324.535 339.173 329.604 336.574 331.713C334.983 328.769 334.604 323.126 335.838 316.92C337.071 310.714 339.584 305.65 342.183 303.542C343.776 306.491 344.154 312.136 342.919 318.336Z" fill="#FFDB00"/>
<path d="M316.367 278.345C322.564 279.581 327.631 282.092 329.741 284.692C326.798 286.284 321.154 286.662 314.951 285.428C308.748 284.194 303.683 281.681 301.573 279.081C304.524 277.488 310.166 277.111 316.367 278.345Z" fill="#FFDB00"/>
<path d="M376.026 290.23C382.226 291.465 387.292 293.977 389.402 296.576C386.457 298.169 380.815 298.546 374.612 297.312C368.409 296.078 363.346 293.565 361.236 290.966C364.183 289.367 369.827 288.994 376.026 290.23Z" fill="#FFDB00"/>
<path d="M331.529 260.574C335.039 265.831 336.846 271.19 336.5 274.521C333.291 273.564 329.034 269.841 325.524 264.584C322.014 259.327 320.207 253.966 320.551 250.636C323.76 251.592 328.019 255.315 331.529 260.574Z" fill="#FFDB00"/>
<path d="M365.312 311.171C368.822 316.427 370.629 321.787 370.285 325.117C367.076 324.161 362.817 320.438 359.309 315.181C355.801 309.924 353.99 304.563 354.336 301.232C357.545 302.19 361.802 305.912 365.312 311.171Z" fill="#FFDB00"/>
<path d="M318.261 301.672C323.517 298.162 328.875 296.354 332.205 296.701C331.249 299.908 327.526 304.167 322.27 307.678C317.014 311.188 311.654 312.996 308.324 312.65C309.284 309.442 313.006 305.183 318.261 301.672Z" fill="#FFDB00"/>
<path d="M368.853 267.882C374.109 264.371 379.468 262.564 382.797 262.91C381.841 266.119 378.118 270.377 372.862 273.887C367.607 277.398 362.246 279.207 358.916 278.861C359.872 275.657 363.595 271.394 368.853 267.882Z" fill="#FFDB00"/>
<path d="M343.597 258.268C344.679 264.278 344.2 269.718 342.607 272.531C340.138 270.445 337.809 265.495 336.734 259.497C335.659 253.499 336.13 248.045 337.724 245.231C340.194 247.318 342.522 252.258 343.597 258.268Z" fill="#FFDB00"/>
<path d="M353.942 316.103C355.024 322.11 354.544 327.553 352.951 330.365C350.482 328.28 348.153 323.329 347.078 317.329C346.003 311.329 346.474 305.878 348.069 303.065C350.547 305.151 352.867 310.092 353.942 316.103Z" fill="#FFDB00"/>
<path d="M315.977 289.51C321.985 288.427 327.425 288.906 330.237 290.5C328.152 292.97 323.203 295.299 317.206 296.374C311.208 297.449 305.756 296.977 302.942 295.384C305.029 292.914 309.964 290.585 315.977 289.51Z" fill="#FFDB00"/>
<path d="M373.802 279.164C379.809 278.082 385.25 278.56 388.062 280.154C385.977 282.624 381.037 284.953 375.029 286.028C369.021 287.103 363.579 286.631 360.767 285.038C362.852 282.568 367.792 280.239 373.802 279.164Z" fill="#FFDB00"/>
<path d="M323.163 269.038C328.192 272.378 331.759 276.435 332.681 279.502C329.503 279.841 324.384 278.129 319.35 274.789C314.316 271.45 310.752 267.393 309.83 264.326C313.01 263.987 318.133 265.699 323.163 269.038Z" fill="#FFDB00"/>
<path d="M371.573 301.175C376.601 304.512 380.169 308.571 381.091 311.638C377.911 311.977 372.794 310.265 367.758 306.926C362.722 303.587 359.161 299.529 358.24 296.463C361.418 296.124 366.542 297.836 371.573 301.175Z" fill="#FFDB00"/>
<path d="M326.614 310.14C329.952 305.111 334.009 301.544 337.075 300.623C337.414 303.801 335.703 308.921 332.366 313.956C329.029 318.991 324.971 322.554 321.904 323.475C321.563 320.297 323.275 315.165 326.614 310.14Z" fill="#FFDB00"/>
<path d="M358.745 261.725C362.083 256.695 366.14 253.127 369.206 252.205C369.545 255.386 367.834 260.504 364.497 265.539C361.16 270.574 357.102 274.138 354.035 275.06C353.694 271.88 355.406 266.756 358.745 261.725Z" fill="#FFDB00"/>
<path d="M345.489 305.86C355.446 305.86 363.517 297.787 363.517 287.829C363.517 277.871 355.446 269.798 345.489 269.798C335.533 269.798 327.461 277.871 327.461 287.829C327.461 297.787 335.533 305.86 345.489 305.86Z" fill="#423C52"/>
<path d="M363.518 287.829C363.518 287.879 363.518 287.933 363.518 287.986C363.51 289.056 363.407 290.124 363.209 291.177C363.177 291.357 363.142 291.525 363.103 291.696C362.865 292.788 362.525 293.856 362.087 294.884C362.011 295.064 361.936 295.232 361.855 295.405C361.494 296.183 361.078 296.934 360.61 297.651C360.446 297.908 360.273 298.158 360.091 298.407C360.047 298.469 360 298.532 359.953 298.588C359.824 298.768 359.69 298.936 359.549 299.107C358.764 300.089 357.876 300.985 356.902 301.781C356.732 301.921 356.559 302.058 356.382 302.19L356.241 302.297C356.001 302.477 355.755 302.65 355.504 302.816C354.768 303.31 353.995 303.748 353.193 304.126C353.013 304.211 352.847 304.288 352.672 304.364C351.644 304.811 350.576 305.161 349.483 305.409C349.311 305.448 349.138 305.484 348.963 305.517C347.912 305.722 346.845 305.833 345.775 305.849C345.681 305.849 345.585 305.849 345.491 305.849C345.398 305.849 345.334 305.849 345.255 305.849C344.185 305.836 343.117 305.728 342.066 305.526C341.886 305.493 341.718 305.455 341.547 305.418C340.453 305.175 339.385 304.829 338.358 304.384C338.177 304.308 338.008 304.231 337.836 304.148C337.018 303.765 336.229 303.32 335.479 302.816C335.23 302.65 334.985 302.477 334.743 302.297L334.647 302.224C334.467 302.093 334.299 301.956 334.128 301.817C333.136 301.014 332.234 300.106 331.435 299.111C331.294 298.93 331.161 298.766 331.031 298.591C330.999 298.548 330.966 298.505 330.939 298.463C330.756 298.223 330.583 297.973 330.42 297.714C329.931 296.978 329.5 296.204 329.13 295.402C329.049 295.221 328.971 295.055 328.897 294.88C328.459 293.852 328.119 292.785 327.882 291.693C327.842 291.512 327.808 291.348 327.774 291.173C327.577 290.121 327.474 289.053 327.465 287.982C327.465 287.93 327.465 287.875 327.465 287.825C327.465 287.702 327.465 287.581 327.465 287.464C327.486 286.393 327.602 285.325 327.813 284.275C327.847 284.094 327.884 283.928 327.923 283.755C328.176 282.661 328.532 281.593 328.986 280.566C329.061 280.385 329.143 280.216 329.226 280.044C329.575 279.315 329.973 278.611 330.418 277.935C330.582 277.681 330.755 277.43 330.937 277.187C331.017 277.075 331.1 276.965 331.184 276.855C331.318 276.674 331.457 276.505 331.599 276.335C332.356 275.42 333.202 274.581 334.124 273.833C334.296 273.692 334.469 273.555 334.644 273.424C334.767 273.33 334.895 273.243 335.019 273.148C335.272 272.967 335.528 272.794 335.787 272.628C336.443 272.207 337.127 271.83 337.833 271.501C338.004 271.418 338.177 271.34 338.354 271.264C339.382 270.819 340.45 270.473 341.543 270.231C341.714 270.193 341.888 270.155 342.062 270.122C343.114 269.92 344.181 269.812 345.251 269.801C345.331 269.801 345.408 269.801 345.488 269.801C345.567 269.801 345.677 269.801 345.771 269.801C346.842 269.816 347.909 269.926 348.96 270.131C349.14 270.164 349.308 270.202 349.479 270.241C350.573 270.488 351.64 270.837 352.668 271.284C352.849 271.36 353.016 271.439 353.19 271.522C353.879 271.847 354.547 272.216 355.188 272.628C355.45 272.794 355.707 272.967 355.958 273.148C356.099 273.249 356.24 273.352 356.379 273.458C356.559 273.59 356.728 273.727 356.898 273.867C357.803 274.608 358.635 275.434 359.38 276.335C359.522 276.505 359.659 276.678 359.793 276.855C359.894 276.983 359.991 277.115 360.087 277.246C360.267 277.495 360.448 277.746 360.606 278.002C361.034 278.657 361.417 279.339 361.754 280.044C361.837 280.225 361.916 280.389 361.993 280.566C362.447 281.593 362.803 282.661 363.056 283.755C363.096 283.936 363.132 284.1 363.166 284.275C363.377 285.325 363.493 286.393 363.512 287.464C363.516 287.585 363.518 287.706 363.518 287.829Z" fill="#423C52"/>
<path d="M330.937 277.189V298.476C330.754 298.235 330.581 297.986 330.418 297.727V277.937C330.582 277.683 330.755 277.432 330.937 277.189Z" fill="#B59B00"/>
<path d="M334.646 273.426V302.232C334.465 302.1 334.298 301.963 334.126 301.824V273.835C334.298 273.694 334.471 273.557 334.646 273.426Z" fill="#B59B00"/>
<path d="M338.356 271.266V304.391C338.175 304.315 338.006 304.238 337.834 304.155V271.508C338.006 271.419 338.179 271.342 338.356 271.266Z" fill="#B59B00"/>
<path d="M342.07 270.124V305.533C341.889 305.501 341.722 305.463 341.55 305.425V270.233C341.709 270.195 341.889 270.157 342.07 270.124Z" fill="#B59B00"/>
<path d="M345.773 269.803V305.856C345.679 305.856 345.583 305.856 345.489 305.856C345.396 305.856 345.333 305.856 345.253 305.856V269.803C345.333 269.803 345.41 269.803 345.489 269.803C345.569 269.803 345.677 269.8 345.773 269.803Z" fill="#B59B00"/>
<path d="M349.481 270.245V305.423C349.309 305.463 349.136 305.499 348.961 305.531V270.133C349.136 270.166 349.31 270.204 349.481 270.245Z" fill="#B59B00"/>
<path d="M353.191 271.524V304.133C353.011 304.218 352.845 304.296 352.67 304.371V271.286C352.845 271.362 353.018 271.441 353.191 271.524Z" fill="#B59B00"/>
<path d="M356.9 273.869V301.788C356.73 301.929 356.557 302.066 356.38 302.197V273.46C356.557 273.591 356.73 273.729 356.9 273.869Z" fill="#B59B00"/>
<path d="M360.608 278.002V297.65C360.444 297.906 360.271 298.157 360.089 298.406V277.248C360.269 277.497 360.442 277.748 360.608 278.002Z" fill="#B59B00"/>
<path d="M356.239 302.304C355.999 302.484 355.753 302.658 355.502 302.824H335.481C335.232 302.658 334.986 302.484 334.745 302.304H356.239Z" fill="#B59B00"/>
<path d="M359.951 298.595C359.822 298.775 359.688 298.943 359.547 299.114H331.428C331.287 298.934 331.154 298.77 331.024 298.595H359.951Z" fill="#B59B00"/>
<path d="M362.091 294.884C362.015 295.064 361.939 295.232 361.858 295.405H329.128C329.047 295.225 328.969 295.059 328.895 294.884H362.091Z" fill="#B59B00"/>
<path d="M363.207 291.171C363.175 291.352 363.141 291.52 363.101 291.691H327.88C327.84 291.511 327.806 291.346 327.772 291.171H363.207Z" fill="#B59B00"/>
<path d="M363.517 287.829C363.517 287.879 363.517 287.933 363.517 287.986H327.459C327.459 287.933 327.459 287.879 327.459 287.829C327.459 287.706 327.459 287.585 327.459 287.468H363.508C363.516 287.585 363.517 287.706 363.517 287.829Z" fill="#B59B00"/>
<path d="M363.173 284.277H327.82C327.855 284.096 327.891 283.93 327.93 283.757H363.065C363.097 283.93 363.133 284.102 363.173 284.277Z" fill="#B59B00"/>
<path d="M361.995 280.568H328.988C329.063 280.387 329.144 280.218 329.227 280.046H361.757C361.838 280.218 361.91 280.391 361.995 280.568Z" fill="#B59B00"/>
<path d="M359.794 276.857H331.184C331.318 276.676 331.456 276.507 331.599 276.337H359.376C359.524 276.507 359.661 276.68 359.794 276.857Z" fill="#B59B00"/>
<path d="M355.958 273.15H335.021C335.273 272.969 335.529 272.796 335.789 272.63H355.19C355.452 272.796 355.708 272.969 355.958 273.15Z" fill="#B59B00"/>
<path d="M350.006 373.542V363.111C350.006 356.134 352.292 349.35 356.515 343.797C360.737 338.244 366.663 334.228 373.385 332.364L389.98 327.944L381.823 351.371C380.359 355.612 377.609 359.292 373.956 361.896C370.302 364.501 365.928 365.901 361.441 365.902V365.902C359.057 365.902 356.723 366.591 354.721 367.887C352.719 369.183 351.134 371.03 350.157 373.206L350.006 373.542Z" fill="#907B00"/>
<path d="M349.825 373.722V363.292C349.826 356.315 352.112 349.531 356.334 343.977C360.557 338.424 366.483 334.408 373.205 332.544L389.799 328.125" stroke="white" stroke-width="5" stroke-miterlimit="10" stroke-linecap="round"/>
<path d="M300.786 366.809C304.888 366.809 306.814 369.191 308.542 372.912L314.495 385.73C316.619 390.309 320.009 394.186 324.264 396.903C328.518 399.62 333.461 401.063 338.509 401.064V401.064V393.667C338.509 390.142 337.815 386.651 336.466 383.393C335.117 380.136 333.14 377.176 330.647 374.683C328.154 372.19 325.195 370.213 321.939 368.864C318.682 367.515 315.191 366.82 311.666 366.82L300.786 366.809Z" fill="#907B00"/>
<path d="M338.866 400.519V393.122C338.866 389.597 338.172 386.106 336.823 382.849C335.474 379.591 333.497 376.632 331.004 374.139C328.512 371.646 325.552 369.668 322.296 368.319C319.039 366.97 315.548 366.275 312.023 366.275H300.786" stroke="white" stroke-width="5" stroke-miterlimit="10" stroke-linecap="round"/>
<path d="M344.956 423.193C344.956 423.193 340.54 390.449 317.359 374.35" stroke="#423C52" stroke-width="5" stroke-miterlimit="10" stroke-linecap="round"/>
<path d="M344.956 403.618C344.956 403.618 343.646 363.326 370.568 346.567" stroke="#423C52" stroke-width="5" stroke-miterlimit="10" stroke-linecap="round"/>
<path d="M401.493 482.806H301.207C301.461 479.171 305.395 477.804 308.602 477.804C310.102 477.793 311.587 478.111 312.951 478.736C312.723 477.349 312.799 475.929 313.175 474.575C313.55 473.22 314.216 471.964 315.125 470.892C316.035 469.82 317.166 468.959 318.441 468.368C319.717 467.778 321.105 467.471 322.51 467.47C323.923 467.469 325.318 467.777 326.598 468.373C327.878 468.97 329.012 469.839 329.92 470.921C329.985 470.997 330.045 471.075 330.1 471.154C330.147 471.081 330.186 471.003 330.216 470.921C331.157 466.635 337.77 460.18 348.529 460.18C360.264 460.18 366.988 466.455 369.531 472.973C370.753 471.826 372.251 471.016 373.88 470.623C375.508 470.229 377.211 470.265 378.821 470.727C380.432 471.188 381.895 472.06 383.067 473.257C384.24 474.454 385.081 475.935 385.51 477.555C387.322 476.731 389.292 476.314 391.282 476.332C396.679 476.332 401.092 479.184 401.493 482.806Z" fill="#423C52"/>
<path d="M357.574 470.685C359.118 470.685 360.37 469.433 360.37 467.889C360.37 466.345 359.118 465.093 357.574 465.093C356.03 465.093 354.779 466.345 354.779 467.889C354.779 469.433 356.03 470.685 357.574 470.685Z" fill="white"/>
<path d="M320.429 475.964C321.318 475.964 322.039 475.242 322.039 474.353C322.039 473.463 321.318 472.742 320.429 472.742C319.539 472.742 318.818 473.463 318.818 474.353C318.818 475.242 319.539 475.964 320.429 475.964Z" fill="white"/>
<path d="M352.953 491.179C356.5 491.179 359.376 489.944 359.376 488.42C359.376 486.897 356.5 485.662 352.953 485.662C349.406 485.662 346.53 486.897 346.53 488.42C346.53 489.944 349.406 491.179 352.953 491.179Z" fill="#423C52"/>
<path d="M366.259 487.601C368.058 487.601 369.517 486.975 369.517 486.203C369.517 485.431 368.058 484.805 366.259 484.805C364.46 484.805 363.002 485.431 363.002 486.203C363.002 486.975 364.46 487.601 366.259 487.601Z" fill="#423C52"/>
<path d="M472.924 531C543.511 531 600.733 528.559 600.733 525.548C600.733 522.537 543.511 520.097 472.924 520.097C402.338 520.097 345.116 522.537 345.116 525.548C345.116 528.559 402.338 531 472.924 531Z" fill="#E5F1EF"/>
<path d="M448.939 470.425L444.186 525.539H432.056C431.752 522.579 428.305 520.248 424.1 520.248C419.896 520.248 416.449 522.579 416.144 525.539H374.43V525.523C374.431 524.529 374.708 523.555 375.23 522.71C375.753 521.864 376.5 521.181 377.388 520.735C381.913 518.459 390.248 513.669 392.31 508.385C396.089 498.703 394.595 471.475 394.503 469.895C394.739 472.278 406.891 474.199 421.846 474.199C435.682 474.199 447.108 472.558 448.939 470.425Z" fill="#FE552F"/>
<path d="M374.175 522.788H413.227C413.431 522.788 413.63 522.723 413.795 522.604C413.96 522.484 414.084 522.316 414.149 522.123C415.051 519.487 419.149 517.499 424.069 517.499C428.99 517.499 433.088 519.483 433.99 522.123C434.054 522.316 434.177 522.484 434.342 522.604C434.508 522.723 434.706 522.788 434.91 522.788H444.559" stroke="white" stroke-width="5" stroke-miterlimit="10"/>
<path d="M435.695 213.961L421.974 229.228C421.397 229.871 420.972 230.636 420.732 231.466C420.493 232.296 420.444 233.17 420.591 234.022C420.737 234.874 421.075 235.681 421.578 236.384C422.081 237.086 422.737 237.666 423.497 238.078L459.98 257.922L445.478 289.976L396.598 266.385C374.553 255.741 370.134 226.249 388.092 209.615L430.271 170.533C434.172 166.92 439.292 164.912 444.609 164.912L435.695 213.961Z" fill="white"/>
<path d="M445.469 289.972L396.588 266.381C374.544 255.738 370.125 226.246 388.082 209.611L430.271 170.533C434.172 166.92 439.292 164.912 444.609 164.912" stroke="#FE552F" stroke-width="5" stroke-miterlimit="10"/>
<path d="M122.973 484.625C207.804 484.625 276.573 481.845 276.573 478.417C276.573 474.989 207.804 472.209 122.973 472.209C38.1426 472.209 -30.6265 474.989 -30.6265 478.417C-30.6265 481.845 38.1426 484.625 122.973 484.625Z" fill="#E5F1EF"/>
<path d="M115.344 313.705H127.854C134.514 313.704 140.962 316.043 146.073 320.314C151.183 324.585 154.63 330.516 155.812 337.071L182.178 470.317C182.417 471.633 183.109 472.824 184.135 473.681C185.162 474.538 186.456 475.008 187.793 475.008V475.008C189.014 475.008 190.202 474.616 191.183 473.891C192.164 473.165 192.887 472.144 193.246 470.978L207.356 423.464" stroke="#423C52" stroke-width="5" stroke-miterlimit="10" stroke-linecap="round"/>
<path d="M107.79 366.398H187.207C188.585 366.399 189.951 366.65 191.238 367.14L284.201 402.498H207.587C203.723 402.498 199.892 401.787 196.285 400.402L107.79 366.398Z" fill="#423C52"/>
<path d="M226.176 362.15L225.48 361.724C225.528 361.63 227.626 357.725 229.742 355.771C232.576 353.159 235.764 352.289 238.962 353.263L238.732 354.119C231.62 351.966 226.219 362.069 226.176 362.15Z" fill="#423C52"/>
<path d="M229.48 356.404C229.48 356.404 232.487 356.056 231.858 357.726C231.459 358.78 227.695 358.268 227.695 358.268C227.695 358.268 227.756 353.707 229.412 353.671C230.725 353.648 229.48 356.404 229.48 356.404Z" fill="#423C52"/>
<path d="M231.726 354.544C231.726 354.544 234.482 354.757 233.499 355.773C232.999 356.29 229.892 356.025 229.892 356.025C229.892 356.025 231.237 351.91 232.57 351.725C233.903 351.539 231.726 354.544 231.726 354.544Z" fill="#423C52"/>
<path d="M235.29 353.318C235.29 353.318 237.455 354.039 236.713 354.846C236.353 355.241 233.427 353.857 233.427 353.857C233.427 353.857 234.704 351.183 235.988 351.548C236.831 351.786 235.29 353.318 235.29 353.318Z" fill="#423C52"/>
<path d="M236.244 353.247C236.244 353.247 240.95 351.624 240.732 353.803C240.568 355.45 236.244 353.247 236.244 353.247Z" fill="#423C52"/>
<path d="M226.346 364.526L225.545 364.483C225.604 362.778 225.4 361.074 224.94 359.431C223.945 355.991 221.921 353.861 218.923 353.098L219.122 352.233C222.368 353.06 224.648 355.457 225.714 359.17C226.204 360.911 226.417 362.718 226.346 364.526V364.526Z" fill="#423C52"/>
<path d="M224.666 357.071C224.666 357.071 222.201 355.827 222.511 357.205C222.67 357.905 225.471 359.29 225.471 359.29C225.471 359.29 226.461 355.076 225.417 354.227C224.372 353.377 224.666 357.071 224.666 357.071Z" fill="#423C52"/>
<path d="M222.264 354.183C222.264 354.183 220.049 353.675 220.253 354.752C220.35 355.273 223.577 355.607 223.577 355.607C223.577 355.607 223.876 352.661 222.588 352.309C221.735 352.076 222.264 354.183 222.264 354.183Z" fill="#423C52"/>
<path d="M221.479 353.624C221.479 353.624 218.303 349.798 217.352 351.777C216.636 353.271 221.479 353.624 221.479 353.624Z" fill="#423C52"/>
<path d="M225.801 359.988L225.079 359.601C225.807 357.907 226.293 356.12 226.522 354.292C226.977 350.436 226.008 347.454 223.636 345.429L224.14 344.723C226.708 346.924 227.803 350.272 227.309 354.409C227.075 356.331 226.567 358.21 225.801 359.988V359.988Z" fill="#423C52"/>
<path d="M226.914 351.425C226.914 351.425 225.442 349.399 225.157 350.799C225.013 351.51 226.948 354.021 226.948 354.021C226.948 354.021 229.5 351.1 228.571 349.253C227.965 348.017 226.914 351.425 226.914 351.425Z" fill="#423C52"/>
<path d="M226.172 347.911C226.172 347.911 224.399 346.468 224.141 347.539C224.015 348.061 226.762 349.798 226.762 349.798C226.762 349.798 228.234 347.233 227.226 346.338C226.56 345.746 226.172 347.911 226.172 347.911Z" fill="#423C52"/>
<path d="M225.698 347.05C225.698 347.05 224.423 342.136 222.765 343.529C221.515 344.579 225.698 347.05 225.698 347.05Z" fill="#423C52"/>
<path d="M212.551 406.382C212.146 406.287 211.792 406.041 211.564 405.693C211.335 405.345 211.249 404.923 211.323 404.513L219.488 364.739C219.995 362.375 222.515 360.911 224.975 361.547L226.218 361.87C228.678 362.507 230.049 364.98 229.201 367.253L214.622 405.365C214.46 405.758 214.16 406.078 213.779 406.265C213.397 406.453 212.961 406.494 212.551 406.382V406.382Z" fill="#FFDB00"/>
<path d="M247.658 369.602C247.361 370.618 245.705 369.759 244.543 369.001C244.482 368.989 244.421 368.976 244.363 368.967C244.76 369.328 245.059 369.795 244.617 370.133C244.32 370.36 242.922 369.451 242.135 368.902C241.658 368.961 241.186 369.06 240.725 369.2C241.36 369.494 241.988 369.947 241.315 370.421C240.922 370.699 239.435 370.392 238.506 370.165C238.377 370.237 238.243 370.315 238.11 370.398C238.919 370.594 239.944 371.045 239.349 372.021C238.943 372.696 237.062 372.288 235.972 371.987C235.34 372.54 234.753 373.143 234.219 373.791L233.615 373.221C234.113 372.613 234.655 372.042 235.238 371.514C235.451 370.596 236.32 367.299 237.713 367.546C238.606 367.703 238.05 368.94 237.628 369.685H237.642C237.774 369.604 237.906 369.523 238.039 369.449C238.662 368.413 240.124 366.182 241.151 366.243C242.15 366.303 240.902 367.742 240.211 368.46C240.782 368.268 241.37 368.13 241.968 368.049C242.547 367.389 243.672 366.303 244.518 366.737C245.041 367.01 244.415 367.639 243.941 368.024C244.101 368.04 244.258 368.06 244.415 368.087C245.811 368.022 248.097 368.119 247.658 369.602Z" fill="#423C52"/>
<path d="M232.707 376.623L231.935 376.401C232.31 374.724 232.428 373 232.283 371.287C231.948 367.701 230.37 365.204 227.594 363.865L227.929 363.052C230.952 364.506 232.736 367.324 233.09 371.202C233.246 373.018 233.117 374.847 232.707 376.623V376.623Z" fill="#423C52"/>
<path d="M232.449 368.924C232.449 368.924 230.272 367.212 230.321 368.633C230.346 369.355 232.823 371.273 232.823 371.273C232.823 371.273 234.57 367.304 233.708 366.263C232.846 365.222 232.449 368.924 232.449 368.924Z" fill="#423C52"/>
<path d="M230.638 365.599C230.638 365.599 228.571 364.665 228.57 365.767C228.57 366.308 231.656 367.262 231.656 367.262C231.656 367.262 232.494 364.412 231.295 363.811C230.514 363.415 230.638 365.599 230.638 365.599Z" fill="#423C52"/>
<path d="M229.975 364.894C229.975 364.894 227.583 360.494 226.29 362.262C225.316 363.597 229.975 364.894 229.975 364.894Z" fill="#423C52"/>
<path d="M233.017 372.032L232.39 371.491C233.415 369.957 234.219 368.287 234.778 366.528C235.934 362.812 235.542 359.673 233.611 357.22L234.224 356.628C236.325 359.309 236.776 362.832 235.528 366.82C234.945 368.669 234.1 370.424 233.017 372.032V372.032Z" fill="#423C52"/>
<path d="M235.689 363.777C235.689 363.777 234.626 361.49 234.091 362.816C233.817 363.49 235.241 366.35 235.241 366.35C235.241 366.35 238.274 363.965 237.714 361.959C237.345 360.626 235.689 363.777 235.689 363.777Z" fill="#423C52"/>
<path d="M235.613 360.173C235.613 360.173 234.152 358.396 233.699 359.408C233.481 359.898 235.84 362.152 235.84 362.152C235.84 362.152 237.751 359.906 236.933 358.825C236.394 358.111 235.613 360.173 235.613 360.173Z" fill="#423C52"/>
<path d="M235.31 359.231C235.31 359.231 234.974 354.128 233.1 355.177C231.683 355.969 235.31 359.231 235.31 359.231Z" fill="#423C52"/>
<path d="M211.793 412.849C211.426 412.69 211.137 412.392 210.988 412.02C210.839 411.649 210.843 411.234 210.998 410.865L226.573 374.514C227.52 372.36 230.195 371.402 232.399 372.429L233.514 372.948C235.718 373.975 236.529 376.556 235.278 378.568L213.954 412.241C213.727 412.585 213.384 412.836 212.987 412.947C212.59 413.059 212.166 413.024 211.793 412.849V412.849Z" fill="#FFDB00"/>
<path d="M219.322 367.755C218.631 367.7 217.936 367.732 217.253 367.85C217.63 367.995 217.91 368.211 217.688 368.552C217.527 368.797 216.193 368.61 215.343 368.464C214.961 368.646 214.596 368.859 214.25 369.102C214.842 369.128 215.417 369.283 215.044 369.793C214.818 370.107 213.557 370.347 212.699 370.475C212.612 370.571 212.518 370.668 212.443 370.769C213.173 370.672 214.102 370.708 213.945 371.57C213.835 372.175 212.19 372.472 211.178 372.595C210.831 373.196 210.539 373.827 210.307 374.48L209.551 374.202C209.766 373.594 210.032 373.005 210.345 372.442C210.204 371.65 209.847 369.101 211.066 368.848C211.833 368.689 211.822 369.678 211.728 370.353C211.813 370.248 211.9 370.147 211.99 370.044C212.17 369.072 212.628 367.095 213.482 366.824C214.295 366.566 213.828 367.858 213.496 368.617C213.91 368.296 214.352 368.013 214.816 367.771C215.089 367.105 215.642 366.081 216.45 366.129C216.932 366.158 216.714 366.707 216.472 367.127C217.031 366.978 217.603 366.888 218.18 366.856C219.326 366.409 220.9 366.003 221.028 367.089C221.106 367.695 220.258 367.807 219.322 367.755Z" fill="#423C52"/>
<path d="M209.584 376.986C209.535 376.685 208.35 369.573 201.743 369.341L201.788 368.455C209.042 368.709 210.363 376.735 210.375 376.816L209.584 376.986L209.979 376.901L209.584 376.986Z" fill="#423C52"/>
<path d="M207.513 371.377C207.513 371.377 205.122 370.822 205.645 371.834C205.91 372.348 208.617 372.958 208.617 372.958C208.617 372.958 208.729 369.544 207.659 369.061C206.59 368.578 207.513 371.377 207.513 371.377Z" fill="#423C52"/>
<path d="M204.887 369.543C204.887 369.543 202.85 369.514 203.222 370.311C203.402 370.697 206.288 370.426 206.288 370.426C206.288 370.426 206.02 368.105 204.824 368.043C204.045 368.004 204.887 369.543 204.887 369.543Z" fill="#423C52"/>
<path d="M204.097 369.241C204.097 369.241 200.618 366.81 200.141 368.493C199.782 369.761 204.097 369.241 204.097 369.241Z" fill="#423C52"/>
<path d="M209.077 373.466L208.307 373.233C208.633 371.83 208.734 370.384 208.606 368.949C208.312 365.942 206.934 363.824 204.512 362.658L204.849 361.843C211.283 364.942 209.099 373.381 209.077 373.466Z" fill="#423C52"/>
<path d="M208.471 366.647C208.471 366.647 206.813 365.325 206.817 366.451C206.817 367.024 208.97 368.644 208.97 368.644C208.97 368.644 210.684 365.972 209.54 364.699C208.776 363.853 208.471 366.647 208.471 366.647Z" fill="#423C52"/>
<path d="M207.188 364.066C207.188 364.066 205.372 363.238 205.338 364.111C205.321 364.535 208.043 365.424 208.043 365.424C208.043 365.424 208.873 363.203 207.827 362.678C207.14 362.332 207.188 364.066 207.188 364.066Z" fill="#423C52"/>
<path d="M206.611 363.479C206.611 363.479 204.607 359.897 203.402 361.243C202.499 362.258 206.611 363.479 206.611 363.479Z" fill="#423C52"/>
<path d="M208.298 412.011C207.459 412.011 206.766 411.469 206.707 410.766L203.929 377.298C203.783 375.314 205.691 373.622 208.078 373.632H209.286C211.678 373.643 213.55 375.341 213.364 377.332L209.914 410.777C209.842 411.478 209.136 412.014 208.298 412.011Z" fill="#FFDB00"/>
<path d="M242.615 379.329C243.394 377.229 248.595 375.476 251.333 376.185L253.935 377.256C251.23 377.512 248.227 378.481 247.749 381.456L242.615 379.329Z" fill="#423C52"/>
<path d="M261.323 412.355C266.243 401.408 264.583 389.994 257.617 386.863C250.65 383.732 241.015 390.068 236.096 401.016C231.176 411.964 232.836 423.377 239.802 426.509C246.769 429.64 256.404 423.303 261.323 412.355Z" fill="#FF7A63"/>
<path d="M235.044 400.545C239.963 389.598 238.303 378.184 231.337 375.053C224.371 371.922 214.735 378.258 209.816 389.206C204.897 400.154 206.556 411.567 213.522 414.699C220.489 417.83 230.124 411.493 235.044 400.545Z" fill="#FF7A63"/>
<path d="M247.876 406.192C253.161 394.429 251.929 382.414 245.124 379.355C238.318 376.296 228.516 383.352 223.231 395.115C217.945 406.878 219.177 418.893 225.983 421.952C232.788 425.011 242.59 417.955 247.876 406.192Z" fill="#FF7A63"/>
<path d="M219.546 411.278C219.131 406.488 220.157 400.689 222.737 394.95C225.96 387.774 230.853 382.351 235.741 379.905" stroke="white" stroke-width="5" stroke-miterlimit="10" stroke-linecap="round"/>
<path d="M250.938 386.803C252.319 392.069 251.351 399.251 248.144 406.395C244.958 413.486 240.13 418.869 235.307 421.353" stroke="white" stroke-width="5" stroke-miterlimit="10" stroke-linecap="round"/>
<path d="M140.818 409.035C143.882 407.971 145.13 403.553 143.607 399.166C142.083 394.78 138.365 392.088 135.302 393.152C132.238 394.216 130.99 398.634 132.513 403.021C134.037 407.407 137.755 410.1 140.818 409.035Z" fill="#FFDB00"/>
<path d="M148.467 418.983C151.516 417.932 153.042 414.336 151.876 410.951C150.709 407.565 147.292 405.673 144.244 406.723C141.195 407.774 139.669 411.37 140.835 414.755C142.001 418.141 145.418 420.034 148.467 418.983Z" fill="#FFDB00"/>
<path d="M150.736 382.563C150.816 378.561 146.541 375.23 141.187 375.123C135.834 375.017 131.43 378.175 131.35 382.178C131.27 386.18 135.546 389.511 140.899 389.617C146.252 389.724 150.657 386.566 150.736 382.563Z" fill="#FFDB00"/>
<path d="M175.598 415.248C175.677 411.246 171.402 407.915 166.049 407.808C160.696 407.702 156.291 410.86 156.212 414.862C156.132 418.865 160.407 422.196 165.761 422.302C171.114 422.409 175.518 419.251 175.598 415.248Z" fill="#FFDB00"/>
<path d="M159.559 370.204C160.982 366.376 159.385 362.25 155.991 360.987C152.597 359.725 148.692 361.805 147.269 365.632C145.845 369.46 147.443 373.587 150.837 374.849C154.231 376.111 158.136 374.032 159.559 370.204Z" fill="#FFDB00"/>
<path d="M190.938 373.932C192.333 370.179 190.127 365.896 186.011 364.365C181.894 362.834 177.426 364.634 176.031 368.387C174.635 372.139 176.842 376.422 180.958 377.953C185.075 379.484 189.543 377.684 190.938 373.932Z" fill="#FFDB00"/>
<path d="M167.556 386.753C172.34 383.444 174.412 378.15 172.185 374.928C169.957 371.707 164.273 371.779 159.49 375.088C154.706 378.397 152.634 383.691 154.861 386.912C157.089 390.134 162.773 390.062 167.556 386.753Z" fill="#FFDB00"/>
<path d="M171.22 369.659C174.923 368.383 176.388 362.89 174.493 357.39C172.599 351.89 168.061 348.465 164.359 349.741C160.657 351.017 159.191 356.51 161.086 362.01C162.981 367.51 167.518 370.935 171.22 369.659Z" fill="#FFDB00"/>
<path d="M192.413 403.688C196.235 402.835 198.307 397.541 197.041 391.863C195.775 386.185 191.651 382.273 187.829 383.126C184.007 383.978 181.934 389.272 183.2 394.95C184.466 400.628 188.591 404.54 192.413 403.688Z" fill="#FFDB00"/>
<path d="M150.424 405.251C154.34 405.251 157.514 402.076 157.514 398.159C157.514 394.243 154.34 391.068 150.424 391.068C146.508 391.068 143.334 394.243 143.334 398.159C143.334 402.076 146.508 405.251 150.424 405.251Z" fill="#FFDB00"/>
<path d="M177.869 388.432C180.418 388.432 182.485 386.365 182.485 383.816C182.485 381.266 180.418 379.199 177.869 379.199C175.32 379.199 173.253 381.266 173.253 383.816C173.253 386.365 175.32 388.432 177.869 388.432Z" fill="#FFDB00"/>
<path d="M139.319 372.682C141.553 372.682 143.364 370.87 143.364 368.635C143.364 366.4 141.553 364.589 139.319 364.589C137.084 364.589 135.273 366.4 135.273 368.635C135.273 370.87 137.084 372.682 139.319 372.682Z" fill="#FFDB00"/>
<path d="M152.878 358.963C156.134 357.59 158.095 354.866 157.257 352.877C156.419 350.888 153.1 350.389 149.844 351.761C146.588 353.133 144.627 355.858 145.465 357.847C146.303 359.835 149.622 360.335 152.878 358.963Z" fill="#FFDB00"/>
<path d="M171.269 405.4C175.812 404.581 178.958 400.935 178.295 397.255C177.633 393.575 173.413 391.255 168.869 392.073C164.326 392.892 161.181 396.538 161.843 400.218C162.506 403.898 166.726 406.218 171.269 405.4Z" fill="#FFDB00"/>
<path d="M183.945 416.929C186.821 416.411 188.592 412.875 187.9 409.032C187.208 405.188 184.315 402.492 181.438 403.01C178.562 403.528 176.791 407.064 177.483 410.908C178.175 414.752 181.068 417.448 183.945 416.929Z" fill="#FFDB00"/>
<path d="M200.874 393.435C200.354 419.613 183.47 426.069 162.815 425.66C142.161 425.25 125.542 418.124 126.061 391.948C126.581 365.772 146.928 344.947 164.405 345.292C180.436 345.614 201.393 367.259 200.874 393.435Z" stroke="white" stroke-width="4" stroke-miterlimit="10" stroke-linecap="round"/>
<path d="M167.216 345.712L165.629 425.535" stroke="white" stroke-width="4" stroke-miterlimit="10" stroke-linecap="round"/>
<path d="M172.922 347.269L171.376 425.108" stroke="white" stroke-width="4" stroke-miterlimit="10" stroke-linecap="round"/>
<path d="M178.596 350.449L177.128 424.319" stroke="white" stroke-width="4" stroke-miterlimit="10" stroke-linecap="round"/>
<path d="M184.242 355.073L182.9 422.631" stroke="white" stroke-width="4" stroke-miterlimit="10" stroke-linecap="round"/>
<path d="M189.858 361.138L188.691 419.858" stroke="white" stroke-width="4" stroke-miterlimit="10" stroke-linecap="round"/>
<path d="M195.423 369.909L194.534 414.643" stroke="white" stroke-width="4" stroke-miterlimit="10" stroke-linecap="round"/>
<path d="M132.346 368.114L131.454 412.947" stroke="white" stroke-width="4" stroke-miterlimit="10" stroke-linecap="round"/>
<path d="M138.253 359.57L137.078 418.653" stroke="white" stroke-width="4" stroke-miterlimit="10" stroke-linecap="round"/>
<path d="M144.111 353.552L142.753 421.831" stroke="white" stroke-width="4" stroke-miterlimit="10" stroke-linecap="round"/>
<path d="M149.928 349.518L148.453 423.749" stroke="white" stroke-width="4" stroke-miterlimit="10" stroke-linecap="round"/>
<path d="M155.716 346.926L154.167 424.947" stroke="white" stroke-width="4" stroke-miterlimit="10" stroke-linecap="round"/>
<path d="M161.481 345.598L159.895 425.421" stroke="white" stroke-width="4" stroke-miterlimit="10" stroke-linecap="round"/>
<path d="M134.678 364.221L197.954 408.805" stroke="white" stroke-width="4" stroke-miterlimit="10" stroke-linecap="round"/>
<path d="M138.072 359.828L199.736 403.274" stroke="white" stroke-width="4" stroke-miterlimit="10" stroke-linecap="round"/>
<path d="M141.891 355.792L200.441 397.05" stroke="white" stroke-width="4" stroke-miterlimit="10" stroke-linecap="round"/>
<path d="M146.117 351.925L200.782 390.44" stroke="white" stroke-width="4" stroke-miterlimit="10" stroke-linecap="round"/>
<path d="M151.283 348.779L199.966 383.08" stroke="white" stroke-width="4" stroke-miterlimit="10" stroke-linecap="round"/>
<path d="M157.321 346.246L197.402 374.551" stroke="white" stroke-width="4" stroke-miterlimit="10" stroke-linecap="round"/>
<path d="M165.705 345.367L191.99 363.889" stroke="white" stroke-width="4" stroke-miterlimit="10" stroke-linecap="round"/>
<path d="M128.433 407.322L154.004 424.916" stroke="white" stroke-width="4" stroke-miterlimit="10" stroke-linecap="round"/>
<path d="M126.382 399.092L164.125 425.685" stroke="white" stroke-width="4" stroke-miterlimit="10" stroke-linecap="round"/>
<path d="M125.995 392.033L173.062 425.198" stroke="white" stroke-width="4" stroke-miterlimit="10" stroke-linecap="round"/>
<path d="M126.566 385.65L180.544 423.682" stroke="white" stroke-width="4" stroke-miterlimit="10" stroke-linecap="round"/>
<path d="M127.773 379.713L186.657 421.204" stroke="white" stroke-width="4" stroke-miterlimit="10" stroke-linecap="round"/>
<path d="M129.564 374.19L191.518 417.843" stroke="white" stroke-width="4" stroke-miterlimit="10" stroke-linecap="round"/>
<path d="M131.876 369.034L195.246 413.685" stroke="white" stroke-width="4" stroke-miterlimit="10" stroke-linecap="round"/>
<path d="M155.803 346.401L150.37 338.272C150.217 338.043 150.14 337.772 150.15 337.496C150.16 337.221 150.257 336.956 150.427 336.739C150.597 336.522 150.831 336.364 151.095 336.288C151.36 336.212 151.642 336.221 151.901 336.315L155.976 337.785C156.708 338.049 157.499 338.103 158.26 337.941C159.021 337.778 159.721 337.405 160.281 336.865L161.825 335.377C162.223 334.993 162.693 334.692 163.208 334.492C163.723 334.292 164.273 334.196 164.825 334.21C165.378 334.225 165.922 334.349 166.426 334.575C166.93 334.802 167.384 335.126 167.761 335.53L168.811 336.652C169.377 337.257 170.11 337.68 170.917 337.866C171.724 338.052 172.568 337.994 173.342 337.699L176.264 336.582C176.613 336.448 176.996 336.429 177.357 336.528C177.718 336.626 178.038 336.837 178.27 337.13C178.503 337.423 178.636 337.782 178.651 338.156C178.665 338.53 178.56 338.898 178.351 339.208L172.922 347.269" stroke="white" stroke-width="4" stroke-miterlimit="10" stroke-linecap="round"/>
<path d="M247.256 412.195L246.25 411.462C255.596 398.138 276.508 380.291 276.718 380.112L277.515 381.072C277.306 381.249 256.513 398.997 247.256 412.195Z" fill="#907B00"/>
<path d="M248.511 414.036L247.429 413.43C250.1 408.444 255.831 400.389 267.954 390.326C272.253 386.747 276.753 383.415 281.431 380.347L282.091 381.407C277.451 384.449 272.988 387.754 268.726 391.306C262.124 396.788 253.257 405.184 248.511 414.036Z" fill="#907B00"/>
<path d="M246.457 411.733L245.62 410.809C245.665 410.766 250.263 406.461 255.652 399.263C260.618 392.625 267.292 382.095 270.888 369.629L272.07 369.99C268.417 382.647 261.651 393.319 256.617 400.045C251.163 407.325 246.502 411.689 246.457 411.733Z" fill="#907B00"/>
<path d="M248.497 412.241L247.53 411.458L278.269 372.191L279.236 372.972L248.497 412.241Z" fill="#907B00"/>
<path d="M251.837 421.404L250.771 420.771C262.335 406.395 287.217 386.276 287.468 386.076L288.28 386.96C288.032 387.16 263.289 407.168 251.837 421.404Z" fill="#907B00"/>
<path d="M253.091 423.132L251.929 422.632C255.333 417.338 262.411 408.637 276.821 397.261C285.412 390.473 292.661 385.874 292.733 385.829L293.384 386.829C293.314 386.874 286.131 391.429 277.605 398.167C269.752 404.365 259.133 413.728 253.091 423.132Z" fill="#907B00"/>
<path d="M250.983 421.021L250.122 420.177C250.176 420.13 255.678 415.324 262.306 407.515C268.414 400.32 276.754 389.033 281.812 376.107L283.101 376.353C277.968 389.475 269.512 400.918 263.322 408.206C256.616 416.102 251.037 420.973 250.983 421.021Z" fill="#907B00"/>
<path d="M253.223 421.324L252.206 420.635L293.597 373.373L294.616 374.06L253.223 421.324Z" fill="#907B00"/>
<path d="M253.335 414.868L252.171 411.648L293.46 366.449L294.477 367.138L253.335 414.868Z" fill="#907B00"/>
<path d="M255.017 404.715C255.017 404.715 251.951 407.731 249.668 412.963C249.621 413.143 249.57 413.338 249.518 413.531C248.953 415.579 247.087 416.971 245.009 416.562C244.009 416.365 243.129 415.779 242.561 414.934C241.993 414.088 241.783 413.052 241.978 412.052C242.254 410.648 243.681 409.629 245.557 408.87C245.557 408.87 245.557 408.87 245.568 408.87C245.791 408.767 249.41 407.055 252.761 402.947C252.754 402.935 254.707 402.824 255.017 404.715Z" fill="white"/>
<path d="M260.838 406.194C260.838 406.194 257.249 410.325 256.148 414.285C255.586 416.333 253.717 417.727 251.639 417.316C250.64 417.119 249.759 416.533 249.191 415.688C248.623 414.842 248.414 413.806 248.609 412.806C248.822 411.723 249.888 410.858 251.248 410.1H251.26C251.325 410.069 251.657 409.91 252.173 409.624C253.571 408.848 256.309 407.145 258.628 404.607C258.618 404.592 260.65 404.322 260.838 406.194Z" fill="white"/>
<path d="M252.162 409.609C251.646 409.896 251.314 410.055 251.25 410.086C251.54 409.921 251.848 409.765 252.162 409.609Z" fill="white"/>
<path d="M261.143 413.077C261.143 413.077 256.551 418.651 254.907 423.814C254.345 425.861 252.344 427.231 250.261 426.819C249.261 426.623 248.381 426.037 247.812 425.192C247.244 424.346 247.034 423.309 247.229 422.309C247.63 420.282 251.017 418.701 253.434 417.015C255.016 415.461 256.929 413.524 258.757 411.521C258.757 411.514 260.953 411.206 261.143 413.077Z" fill="white"/>
<path d="M281.451 402.501L269.97 425.773C267.629 430.518 264.008 434.513 259.516 437.307C255.023 440.1 249.839 441.581 244.549 441.581H163.88C156.974 441.581 150.229 439.499 144.523 435.608C138.818 431.717 134.417 426.197 131.895 419.768L111.65 367.877L196.285 400.405C199.892 401.791 203.723 402.501 207.587 402.501H281.451Z" fill="#C8D9D2"/>
<path d="M281.451 402.502L269.97 425.773C267.629 430.518 264.008 434.513 259.516 437.307C255.023 440.1 249.839 441.581 244.549 441.582H240.4C233.495 441.581 226.75 439.5 221.044 435.61C215.339 431.719 210.938 426.2 208.415 419.771L201.402 401.886C203.439 402.296 205.512 402.502 207.591 402.502H281.451Z" fill="#E5F1EF"/>
<path d="M114.202 366.759H106.21C105.997 366.756 105.79 366.828 105.626 366.963C105.461 367.098 105.35 367.287 105.311 367.496C105.272 367.705 105.308 367.921 105.413 368.106C105.518 368.291 105.686 368.433 105.885 368.507L196.456 403.315C200.333 404.805 204.451 405.568 208.604 405.568H287.183C287.345 405.568 287.501 405.511 287.626 405.407C287.75 405.304 287.834 405.16 287.863 405C287.893 404.841 287.865 404.676 287.785 404.535C287.706 404.394 287.579 404.285 287.428 404.228L278.26 400.699" stroke="#423C52" stroke-width="5" stroke-miterlimit="10"/>
<path d="M253.134 477.452C264.25 477.452 273.262 465.703 273.262 451.209C273.262 436.716 264.25 424.967 253.134 424.967C242.018 424.967 233.007 436.716 233.007 451.209C233.007 465.703 242.018 477.452 253.134 477.452Z" fill="#423C52"/>
<path d="M247.056 475.009C254.815 475.009 261.105 464.354 261.105 451.209C261.105 438.065 254.815 427.409 247.056 427.409C239.297 427.409 233.007 438.065 233.007 451.209C233.007 464.354 239.297 475.009 247.056 475.009Z" fill="white" stroke="#423C52" stroke-width="5" stroke-miterlimit="10" stroke-linecap="round"/>
<path d="M246.594 456.136C248.201 456.136 249.503 453.93 249.503 451.209C249.503 448.488 248.201 446.283 246.594 446.283C244.987 446.283 243.685 448.488 243.685 451.209C243.685 453.93 244.987 456.136 246.594 456.136Z" fill="white" stroke="#423C52" stroke-width="5" stroke-miterlimit="10" stroke-linecap="round"/>
<path d="M52.5875 313.705H65.0962C71.7558 313.704 78.2042 316.043 83.3145 320.314C88.4247 324.585 91.8719 330.516 93.0536 337.071L119.42 470.317C119.659 471.633 120.351 472.824 121.377 473.681C122.404 474.538 123.698 475.008 125.035 475.008V475.008C126.256 475.007 127.444 474.615 128.425 473.89C129.407 473.165 130.13 472.144 130.49 470.978L145.879 415.054C146.177 413.968 146.708 412.96 147.434 412.1C148.16 411.239 149.064 410.547 150.083 410.07C151.103 409.593 152.214 409.342 153.34 409.336C154.465 409.33 155.579 409.569 156.604 410.035L247.061 451.206" stroke="#423C52" stroke-width="5" stroke-miterlimit="10" stroke-linecap="round"/>
<path d="M98.4232 263.094C97.2977 262.979 90.9378 262.717 83.4831 270.182C76.299 277.378 75.1861 283.142 75.031 284.48C57.0841 254.747 57.1617 213.082 53.4532 201.271L59.6598 201.284C67.5961 201.3 75.4169 206.068 77.3054 213.769C82.1808 233.655 90.523 250.443 98.4232 263.094Z" fill="#E5F1EF"/>
<path d="M98.4232 263.094C97.2977 262.979 90.9378 262.717 83.4831 270.182C76.299 277.378 75.1861 283.142 75.031 284.481C72.9455 281.001 71.0862 277.391 69.4647 273.673C69.9535 271.508 71.7175 266.414 77.9854 260.323C83.4921 254.976 89.4696 253.71 92.6567 253.468C93.2319 253.425 93.8056 253.569 94.2929 253.878C94.7801 254.186 95.1551 254.644 95.3623 255.182L98.4232 263.094Z" fill="#C8D9D2"/>
<path d="M141.25 318.275L125.378 318.72C124.687 318.74 124.006 318.549 123.426 318.173C122.846 317.797 122.394 317.253 122.131 316.613L121.049 313.963L110.658 313.803C95.687 307.162 84.6844 298.86 75.0021 284.775C75.0021 284.775 75.2618 278.417 83.4795 270.182C91.6972 261.947 98.4088 263.116 98.4088 263.116C109.411 281.363 120.053 291.696 124.728 295.745L132.82 295.833C134.477 295.852 136.09 296.375 137.443 297.333C138.796 298.291 139.826 299.638 140.395 301.195L144.742 313.081C144.952 313.654 145.023 314.269 144.949 314.875C144.876 315.481 144.66 316.061 144.32 316.568C143.979 317.074 143.523 317.493 142.99 317.79C142.456 318.086 141.86 318.253 141.25 318.275V318.275Z" fill="#EB7500"/>
<path d="M136.528 318.432C137.139 318.41 137.736 318.245 138.27 317.948C138.805 317.652 139.261 317.233 139.602 316.726C139.944 316.219 140.16 315.639 140.234 315.032C140.308 314.426 140.237 313.81 140.028 313.236L137.623 306.662" stroke="#423C52" stroke-width="5" stroke-miterlimit="10" stroke-linecap="round"/>
<path d="M131.283 318.533C131.894 318.511 132.491 318.345 133.025 318.049C133.559 317.752 134.016 317.333 134.357 316.826C134.698 316.319 134.914 315.738 134.988 315.132C135.062 314.525 134.991 313.909 134.78 313.335L132.378 306.761" stroke="#423C52" stroke-width="5" stroke-miterlimit="10" stroke-linecap="round"/>
<path d="M126.234 318.695C126.845 318.673 127.442 318.507 127.976 318.211C128.511 317.914 128.967 317.495 129.309 316.988C129.65 316.481 129.866 315.901 129.94 315.294C130.014 314.687 129.943 314.072 129.734 313.498L127.329 306.924" stroke="#423C52" stroke-width="5" stroke-miterlimit="10" stroke-linecap="round"/>
<path d="M110.654 313.803H121.044V312.208C121.043 310.901 120.524 309.648 119.6 308.724C118.676 307.8 117.422 307.281 116.116 307.281H115.163L111.486 304.716" stroke="#423C52" stroke-width="5" stroke-miterlimit="10" stroke-linecap="round"/>
<path d="M85.8153 461.288C82.9952 460.948 80.1569 460.778 77.3163 460.781C63.1103 460.781 50.8776 464.896 45.3907 470.81C45.3709 470.655 45.3564 470.499 45.351 470.341L40.3836 345.457L20.1623 460.949C17.2375 460.586 14.293 460.405 11.3458 460.408C-3.32013 460.408 -15.8793 464.793 -21.0938 471.014C-21.268 470.306 -21.3089 469.572 -21.2147 468.849L6.02126 284.387L4.54763 221.898C5.76332 210.143 10.103 201.21 21.9209 201.21H61.0884C63.5304 201.21 65.8806 202.141 67.6611 203.812C69.4416 205.484 70.5187 207.771 70.6732 210.208L85.8153 461.288Z" fill="#236348"/>
<path d="M49.3282 470.813C49.3067 470.658 49.2935 470.501 49.2885 470.344L49.2524 469.282" stroke="#423C52" stroke-width="5" stroke-miterlimit="10" stroke-linecap="round"/>
<path d="M49.155 466.195L44.4312 325.788" stroke="#423C52" stroke-width="5" stroke-miterlimit="10" stroke-linecap="round" stroke-dasharray="17.12 17.12"/>
<path d="M44.3789 324.246L44.3267 322.713" stroke="#423C52" stroke-width="5" stroke-miterlimit="10" stroke-linecap="round"/>
<path d="M-16.0453 464.332L9.99299 286.194L7.38484 224.95" stroke="#423C52" stroke-width="5" stroke-miterlimit="10" stroke-linecap="round" stroke-dasharray="16.83 16.83"/>
<path d="M7.31982 223.435L7.25488 221.902" stroke="#423C52" stroke-width="5" stroke-miterlimit="10" stroke-linecap="round"/>
<path d="M20.1532 460.972L45.4862 315.168" stroke="#423C52" stroke-width="5" stroke-miterlimit="10" stroke-linecap="round"/>
<path d="M23.8743 297.329C23.8743 306.634 15.8875 314.176 6.03564 314.176" stroke="#423C52" stroke-width="5" stroke-miterlimit="10" stroke-linecap="round"/>
<path d="M36.1611 307.684C26.2317 300.127 12.5614 288.922 5.94361 278.448L5.41333 259.589L36.1611 307.684Z" fill="#423C52"/>
<path d="M58.5721 315.065H43.733" stroke="#423C52" stroke-width="5" stroke-miterlimit="10" stroke-linecap="round"/>
<path d="M62.0841 208.188V234.526H41.6193L37.2904 216.416C35.1602 207.506 29.0745 201.223 19.9153 201.223H55.1002C56.9494 201.221 58.7236 201.954 60.0331 203.26C61.3426 204.566 62.0803 206.338 62.0841 208.188V208.188Z" fill="#E5F1EF"/>
<path d="M93.272 475.511H50.7244C49.4168 475.511 48.1539 475.035 47.1717 474.172C46.1894 473.309 45.5551 472.117 45.3872 470.821C50.8777 464.907 63.1104 460.792 77.3128 460.792C80.1534 460.789 82.9917 460.959 85.8119 461.299V461.326L94.9765 471.05C96.7315 472.61 95.6222 475.511 93.272 475.511Z" fill="#423C52"/>
<path d="M27.765 475.511H-15.358C-16.6795 475.511 -17.9628 475.068 -19.0032 474.253C-20.0435 473.439 -20.7809 472.299 -21.0974 471.015C-15.8829 464.795 -3.3237 460.41 11.3422 460.41C14.2895 460.407 17.234 460.588 20.1587 460.951V460.971L29.6426 471.21C29.9805 471.576 30.2046 472.032 30.2875 472.523C30.3704 473.014 30.3084 473.518 30.1092 473.974C29.91 474.431 29.5822 474.819 29.1659 475.092C28.7496 475.365 28.2627 475.51 27.765 475.511V475.511Z" fill="#423C52"/>
<path d="M39.5431 260.715C39.5179 260.671 39.489 260.63 39.4601 260.588C37.5157 257.933 30.5769 259.764 23.9609 264.68C17.7093 269.323 13.981 275.056 15.2256 277.916C2.97662 263.058 0.170056 245.457 -2.29561 229.098C-4.46005 214.772 2.71327 205.071 13.5211 204.039C19.1685 203.497 28.4648 206.745 30.2504 219.055C32.6908 235.868 36.0169 249.626 39.5431 260.715Z" fill="#E5F1EF"/>
<path d="M39.4584 260.588C37.5159 257.933 30.577 259.764 23.9592 264.68C17.3414 269.596 13.5536 275.733 15.4962 278.39L10.1374 270.86C8.24891 267.911 11.5497 260.136 18.8998 255.346C26.2499 250.556 35.9629 248.873 37.1353 252.582L39.4584 260.588Z" fill="#C8D9D2"/>
<path d="M54.1261 315.621C47.6269 315.548 41.3969 313.014 36.6915 308.53C27.673 299.903 20.7179 289.276 15.3212 278.114C15.2924 278.051 15.2599 277.99 15.2292 277.934C13.9847 275.074 17.7129 269.341 23.9646 264.698C30.6744 259.712 37.7178 257.899 39.5432 260.729V260.738C39.6803 261.171 39.7975 261.604 39.9562 262.023C45.674 277.108 55.2462 292.797 58.6534 297.419L68.5414 297.549C70.199 297.568 71.8115 298.091 73.1647 299.048C74.5179 300.006 75.5476 301.353 76.1169 302.91L80.4638 314.797C80.6736 315.37 80.7445 315.986 80.6707 316.592C80.597 317.199 80.3806 317.779 80.0394 318.286C79.6982 318.792 79.2419 319.211 78.7077 319.507C78.1736 319.804 77.5769 319.969 76.9665 319.99L61.0939 320.436C60.4028 320.456 59.7221 320.265 59.1421 319.889C58.5622 319.512 58.1105 318.968 57.8472 318.329L56.765 315.677L54.1261 315.621Z" fill="#EB7500"/>
<path d="M72.2461 320.124C72.8568 320.102 73.4538 319.936 73.9881 319.64C74.5224 319.343 74.9789 318.924 75.3202 318.417C75.6615 317.91 75.878 317.33 75.9519 316.723C76.0258 316.116 75.955 315.501 75.7453 314.927L73.3409 308.353" stroke="#423C52" stroke-width="5" stroke-miterlimit="10" stroke-linecap="round"/>
<path d="M67.0045 320.225C67.6152 320.203 68.2122 320.037 68.7465 319.741C69.2808 319.444 69.7373 319.025 70.0786 318.518C70.4199 318.011 70.6364 317.431 70.7103 316.824C70.7842 316.217 70.7134 315.602 70.5037 315.028L68.0994 308.454" stroke="#423C52" stroke-width="5" stroke-miterlimit="10" stroke-linecap="round"/>
<path d="M61.9542 320.385C62.5649 320.364 63.1618 320.199 63.6961 319.902C64.2305 319.606 64.687 319.187 65.0284 318.68C65.3697 318.173 65.5862 317.593 65.6601 316.986C65.734 316.379 65.6631 315.764 65.4534 315.19L63.0491 308.616" stroke="#423C52" stroke-width="5" stroke-miterlimit="10" stroke-linecap="round"/>
<path d="M55.9442 312.502L58.3359 319" stroke="#423C52" stroke-width="5" stroke-miterlimit="10" stroke-linecap="round"/>
<path d="M53.4532 297.421H58.6533" stroke="#423C52" stroke-width="5" stroke-miterlimit="10" stroke-linecap="round"/>
<path d="M48.1723 186.238C61.0642 180.108 70.4311 172.857 69.0939 170.045C67.7567 167.232 56.2218 169.922 43.33 176.053C30.4381 182.183 21.0712 189.433 22.4083 192.246C23.7455 195.059 35.2804 192.369 48.1723 186.238Z" fill="#423C52"/>
<path d="M21.1688 192.06C22.6118 195.04 34.6587 192.371 48.0873 185.892C61.5159 179.414 71.2343 171.58 69.7967 168.599C68.3591 165.619 56.3086 168.455 42.88 174.933C29.4514 181.411 19.7312 189.08 21.1688 192.06Z" stroke="#423C52" stroke-width="3" stroke-miterlimit="10"/>
<path d="M37.4815 177.662L37.4022 175.304C37.3102 172.555 39.1824 170.073 42.0052 169.193L46.3684 167.843C47.4655 167.499 48.6297 167.427 49.7608 167.633C50.8919 167.839 51.9561 168.316 52.8618 169.025L54.2109 170.107" stroke="#423C52" stroke-width="3" stroke-miterlimit="10" stroke-linecap="round"/>
<path d="M52.0537 201.542V192.493L39.1915 185.782L31.5474 201.535C31.5474 201.535 42.081 209.746 52.0537 201.542Z" fill="#EB7500"/>
<path d="M52.0536 201.542V192.5L39.1914 185.79L37.8224 188.609L52.0536 201.542Z" fill="#423C52"/>
<path d="M52.8581 173.223C55.4788 172.207 61.9866 172.14 59.272 176.373C56.5142 180.67 49.4382 178.846 45.7442 177.74L44.5087 177.365C43.8463 177.828 43.3893 178.53 43.2335 179.324L42.7555 181.745H39.5088L39.4637 181.384C39.2491 179.629 40.4125 178.317 42.0719 177.704L52.8581 173.223Z" fill="#FFDB00"/>
<path d="M50.8974 193.873H48.3343C47.1742 193.874 46.0381 193.542 45.0602 192.918C44.0822 192.294 43.3032 191.403 42.815 190.35L41.6191 187.779H39.5322C38.7104 187.779 37.9222 187.453 37.3411 186.872C36.76 186.29 36.4335 185.502 36.4335 184.68C36.4335 183.858 36.76 183.07 37.3411 182.489C37.9222 181.907 38.7104 181.581 39.5322 181.581H42.7897L43.2334 179.324C43.3892 178.53 43.847 177.827 44.5105 177.363C46.6749 178.009 51.6189 179.676 55.4265 178.864C55.3058 182.079 55.4071 185.299 55.7295 188.501C55.8025 189.179 55.7318 189.864 55.5222 190.513C55.3125 191.162 54.9685 191.759 54.5126 192.266C54.0567 192.773 53.4991 193.178 52.8762 193.455C52.2533 193.732 51.5791 193.874 50.8974 193.873V193.873Z" fill="#EB7500"/>
<path d="M55.4608 181.554C55.4608 181.554 53.2784 180.987 52.1583 182.867C51.4188 184.108 51.9671 188.725 51.9671 188.725" stroke="#423C52" stroke-width="4" stroke-miterlimit="10" stroke-linecap="round"/>
<path d="M48.9675 181.566C48.9675 181.566 46.7201 181.233 44.8046 182.468" stroke="#423C52" stroke-width="4" stroke-miterlimit="10" stroke-linecap="round"/>
<path d="M54.1824 185.292C54.4338 185.275 54.6116 184.871 54.5794 184.389C54.5472 183.906 54.3173 183.529 54.0658 183.546C53.8143 183.563 53.6366 183.967 53.6688 184.449C53.7009 184.932 53.9309 185.309 54.1824 185.292Z" fill="#423C52"/>
<path d="M47.7046 185.471C47.972 185.453 48.1609 185.022 48.1266 184.508C48.0923 183.994 47.8477 183.592 47.5803 183.61C47.3129 183.628 47.124 184.059 47.1583 184.573C47.1926 185.087 47.4372 185.489 47.7046 185.471Z" fill="#423C52"/>
<path d="M41.491 185.335C41.4984 185.018 41.4426 184.704 41.3266 184.409C41.2107 184.115 41.037 183.846 40.8158 183.62C40.5947 183.393 40.3305 183.213 40.0388 183.091C39.7471 182.968 39.4338 182.905 39.1173 182.905" stroke="#423C52" stroke-width="4" stroke-miterlimit="10" stroke-linecap="round"/>
</g>
</g>
<defs>
<clipPath id="clip0_399:2406">
<rect width="375" height="812" fill="white"/>
</clipPath>
<clipPath id="clip1_399:2406">
<rect width="813" height="507" fill="white" transform="translate(-91 24)"/>
</clipPath>
</defs>
</svg>
