<svg width="375" height="812" viewBox="0 0 375 812" fill="none" xmlns="http://www.w3.org/2000/svg">
<g clip-path="url(#clip0_352:7779)">
<rect width="375" height="812" fill="white"/>
<rect y="-4" width="375" height="816" fill="#F7FBEE"/>
<path d="M543.575 487.155C539.565 493.483 534.021 498.691 527.461 502.295C520.9 505.899 513.536 507.78 506.055 507.765C327.146 507.407 162.955 503.347 162.955 497.757C162.955 491.918 355.471 487.181 543.575 487.155Z" fill="#DBE5E5"/>
<path d="M260.269 519.13C278.998 519.13 294.18 517.568 294.18 515.64C294.18 513.713 278.998 512.15 260.269 512.15C241.541 512.15 226.358 513.713 226.358 515.64C226.358 517.568 241.541 519.13 260.269 519.13Z" fill="#DBE5E5"/>
<path d="M118.534 100.04C118.534 120.092 110.537 138.16 96.7733 153.802C91.4705 159.826 85.3119 164.802 78.4259 169.83V227.533H60.9903C60.9903 227.533 39.5626 215.347 48.3425 195.452C50.2744 191.072 54.0702 186.96 58.9642 182.834C64.3632 178.275 71.1009 174.703 78.1493 169.727C74.584 124.526 36.9413 87.966 -8.96637 87.966C-34.0455 87.966 -56.6637 98.5803 -72.5961 115.582C-54.9462 129.13 -43.7193 149.495 -43.7193 172.262C-43.7191 179.05 -44.7324 185.799 -46.7254 192.287C-41.6309 193.694 -36.8359 196.022 -32.5765 199.157C-23.6964 205.741 -18.0689 215.534 -18.0689 226.465C-18.0689 240.071 -26.7827 251.911 -39.6289 257.991C-45.8163 260.893 -52.5692 262.385 -59.4012 262.358C-75.941 262.358 -90.2121 253.925 -96.8176 241.73C-105.687 244.67 -114.971 246.162 -124.314 246.148C-168.818 246.148 -204.896 213.064 -204.896 172.253C-204.896 140.188 -182.627 112.895 -151.497 102.667V100.04C-151.497 76.1731 -140.168 52.2499 -121.267 35.0815C-96.5029 12.584 -58.7579 0.216753 -16.4757 0.216753C-2.05971 0.190101 12.3067 1.90799 26.3116 5.33312C26.3116 5.33312 10.1286 22.387 17.8944 47.0612C21.586 18.9674 44.2862 -2.65869 71.7402 -2.65869C101.769 -2.65869 126.111 23.2123 126.111 55.1233L118.534 100.04Z" fill="#DBE5E5"/>
<path d="M348.278 16.3249C352.706 16.3249 356.295 12.7289 356.295 8.29295C356.295 3.85702 352.706 0.260986 348.278 0.260986C343.851 0.260986 340.262 3.85702 340.262 8.29295C340.262 12.7289 343.851 16.3249 348.278 16.3249Z" fill="#DBE5E5"/>
<path d="M348.276 54.4526C348.276 72.7093 340.098 89.0102 327.283 99.7309C317.642 109.293 303.405 117.542 282.412 121.666C238.41 130.313 194.39 111.58 194.39 111.58L122.329 170.067C122.329 170.067 156.461 191.225 134.955 227.534H117.231V94.5683C117.231 68.35 138.444 47.0954 164.612 47.0954H170.115C172.451 41.3462 176.101 36.2266 180.772 32.1484C185.443 28.0703 191.004 25.1474 197.007 23.6149C203.011 22.0824 209.29 21.9831 215.339 23.3249C221.388 24.6667 227.038 27.4123 231.835 31.3407C229.781 38.889 229.285 46.7777 230.377 54.5246C231.468 62.2716 234.125 69.7143 238.184 76.398C235.423 69.4126 234.011 61.9657 234.021 54.4526C234.021 22.1702 259.597 -4 291.138 -4C322.678 -4 348.276 22.1702 348.276 54.4526Z" fill="#DBE5E5"/>
<path d="M132.969 84.9119C134.63 84.9119 135.976 83.5634 135.976 81.8999C135.976 80.2365 134.63 78.8879 132.969 78.8879C131.309 78.8879 129.963 80.2365 129.963 81.8999C129.963 83.5634 131.309 84.9119 132.969 84.9119Z" fill="white"/>
<path d="M149.064 79.6911C154.045 79.6911 158.083 75.6455 158.083 70.6551C158.083 65.6647 154.045 61.6191 149.064 61.6191C144.084 61.6191 140.046 65.6647 140.046 70.6551C140.046 75.6455 144.084 79.6911 149.064 79.6911Z" fill="white"/>
<path d="M234.927 289.615H178.16V416.799H234.927V289.615Z" fill="#DBE5E5"/>
<path d="M149.794 312.347H65.9005V416.799H149.794V312.347Z" fill="#DBE5E5"/>
<path d="M77.7006 227.533V416.297H59.9745V227.533C60.0095 225.201 60.9587 222.977 62.617 221.34C64.2754 219.703 66.5097 218.786 68.8376 218.786C71.1654 218.786 73.3998 219.703 75.0581 221.34C76.7164 222.977 77.6656 225.201 77.7006 227.533Z" fill="white" stroke="#423C52" stroke-width="5" stroke-miterlimit="10" stroke-linecap="round"/>
<path d="M77.6684 323.684V416.297H59.9423V341.047L77.6684 323.684Z" fill="#423C52"/>
<path d="M75.8384 230.438C77.4399 226.564 75.6038 222.123 71.7375 220.519C67.8711 218.914 63.4385 220.754 61.837 224.628C60.2355 228.501 62.0716 232.943 65.9379 234.547C69.8043 236.152 74.2369 234.312 75.8384 230.438Z" fill="#423C52"/>
<path d="M77.2475 243.316V248.38C76.2638 249.686 74.9909 250.744 73.5292 251.472C72.0674 252.2 70.4568 252.578 68.8243 252.576C67.1919 252.574 65.5824 252.191 64.1227 251.459C62.663 250.727 61.3931 249.665 60.4132 248.356V243.264C61.0623 244.971 62.2124 246.44 63.7118 247.479C65.2113 248.518 66.9896 249.077 68.8125 249.082C70.6353 249.088 72.4171 248.54 73.9229 247.511C75.4287 246.481 76.5878 245.019 77.2475 243.316Z" fill="#FF7A63"/>
<path d="M77.2475 236.156V241.22C76.2636 242.525 74.9906 243.583 73.5289 244.311C72.0671 245.039 70.4566 245.417 68.8243 245.414C67.1921 245.412 65.5826 245.03 64.123 244.298C62.6633 243.566 61.3934 242.504 60.4132 241.196V236.104C61.0623 237.81 62.2124 239.28 63.7118 240.319C65.2113 241.357 66.9896 241.916 68.8125 241.922C70.6353 241.928 72.4171 241.38 73.9229 240.35C75.4287 239.321 76.5878 237.859 77.2475 236.156Z" fill="#FF7A63"/>
<path d="M134.974 227.533V343.672H117.249V227.533C117.249 225.178 118.183 222.92 119.845 221.255C121.507 219.59 123.761 218.654 126.112 218.654C128.462 218.654 130.716 219.59 132.378 221.255C134.04 222.92 134.974 225.178 134.974 227.533Z" fill="white" stroke="#423C52" stroke-width="5" stroke-miterlimit="10" stroke-linecap="round"/>
<path d="M133.112 230.439C134.714 226.565 132.877 222.124 129.011 220.519C125.145 218.915 120.712 220.754 119.111 224.628C117.509 228.502 119.345 232.943 123.212 234.548C127.078 236.153 131.511 234.313 133.112 230.439Z" fill="#423C52"/>
<path d="M134.531 236.156V241.22C133.547 242.525 132.274 243.583 130.812 244.311C129.35 245.039 127.74 245.417 126.107 245.414C124.475 245.412 122.866 245.03 121.406 244.298C119.946 243.566 118.676 242.504 117.696 241.196V236.104C118.345 237.81 119.495 239.28 120.995 240.319C122.494 241.357 124.273 241.916 126.096 241.922C127.918 241.928 129.7 241.38 131.206 240.35C132.712 239.321 133.871 237.859 134.531 236.156Z" fill="#FF7A63"/>
<path d="M134.531 243.316V248.38C133.547 249.686 132.274 250.744 130.812 251.472C129.351 252.2 127.74 252.578 126.107 252.576C124.475 252.574 122.865 252.191 121.406 251.459C119.946 250.727 118.676 249.665 117.696 248.356V243.264C118.345 244.971 119.495 246.44 120.995 247.479C122.494 248.518 124.273 249.077 126.096 249.082C127.918 249.088 129.7 248.54 131.206 247.511C132.712 246.481 133.871 245.019 134.531 243.316Z" fill="#FF7A63"/>
<path d="M134.974 323.684V343.672H117.249V341.047L134.974 323.684Z" fill="#423C52"/>
<path d="M184.925 343.147H77.7003V416.799H184.925V343.147Z" fill="#423C52"/>
<path d="M207.742 343.672H100.517V416.799H207.742V343.672Z" fill="white" stroke="#423C52" stroke-width="5" stroke-miterlimit="10" stroke-linecap="round"/>
<path d="M208.155 325.429H144.092V343.672H208.155V325.429Z" fill="#423C52"/>
<path d="M207.766 325.953H165.724V343.672H207.766V325.953Z" fill="white" stroke="#423C52" stroke-width="5" stroke-miterlimit="10" stroke-linecap="round"/>
<path d="M252.295 372.161H207.744V416.799H252.295V372.161Z" fill="white" stroke="#423C52" stroke-width="5" stroke-miterlimit="10" stroke-linecap="round"/>
<path d="M115.716 354.615H109.822V361.912H115.716V354.615Z" fill="#423C52"/>
<path d="M142.599 354.615H136.705V361.912H142.599V354.615Z" fill="#423C52"/>
<path d="M169.482 354.615H163.588V361.912H169.482V354.615Z" fill="#423C52"/>
<path d="M196.362 354.615H190.469V361.912H196.362V354.615Z" fill="#423C52"/>
<path d="M215.42 382.448V407.409" stroke="#FF7A63" stroke-width="5" stroke-miterlimit="10" stroke-linecap="round"/>
<path d="M221.167 382.448V407.409" stroke="#FF7A63" stroke-width="5" stroke-miterlimit="10" stroke-linecap="round"/>
<path d="M226.915 382.448V407.409" stroke="#FF7A63" stroke-width="5" stroke-miterlimit="10" stroke-linecap="round"/>
<path d="M232.662 382.448V407.409" stroke="#FF7A63" stroke-width="5" stroke-miterlimit="10" stroke-linecap="round"/>
<path d="M238.412 382.448V407.409" stroke="#FF7A63" stroke-width="5" stroke-miterlimit="10" stroke-linecap="round"/>
<path d="M244.16 382.448V407.409" stroke="#FF7A63" stroke-width="5" stroke-miterlimit="10" stroke-linecap="round"/>
<path d="M115.233 416.799H-44.6331C-15.0928 394.494 4.19654 357.724 4.19654 316.138C4.19654 307.839 18.123 301.112 35.3 301.112C52.477 301.112 66.4034 307.839 66.4034 316.138C66.4034 357.724 85.6928 394.494 115.233 416.799Z" fill="white" stroke="#423C52" stroke-width="5" stroke-miterlimit="10" stroke-linecap="round"/>
<path d="M35.3001 330.465C51.0923 330.465 63.8944 324.28 63.8944 316.65C63.8944 309.02 51.0923 302.835 35.3001 302.835C19.5079 302.835 6.70581 309.02 6.70581 316.65C6.70581 324.28 19.5079 330.465 35.3001 330.465Z" fill="#423C52"/>
<path d="M3.82991 330.784C3.90806 338.387 17.7503 344.601 35.3181 344.601C52.886 344.601 66.7823 338.451 66.8625 330.849L67.9227 338.332C64.8364 344.993 51.6054 350.013 35.3181 350.013C18.9828 350.013 5.82198 344.921 2.78979 338.228L3.82991 330.784Z" fill="#FF7A63"/>
<path d="M38.4184 416.799H-121.448C-91.9074 394.494 -72.6181 357.724 -72.6181 316.138C-72.6181 307.839 -58.6917 301.112 -41.5146 301.112C-24.3376 301.112 -10.4112 307.839 -10.4112 316.138C-10.4112 357.724 8.87813 394.494 38.4184 416.799Z" fill="white" stroke="#423C52" stroke-width="5" stroke-miterlimit="10" stroke-linecap="round"/>
<path d="M314.564 405.432C324.18 430.508 322.451 455.369 318.921 472.057C318.741 472.073 318.495 472.095 318.19 472.121C317.48 472.182 316.448 472.267 315.16 472.361C312.583 472.549 308.981 472.774 304.884 472.924C296.818 473.22 286.864 473.224 279.028 472.085C278.21 460.284 275.084 441.932 271.348 420.004C269.694 410.295 267.921 399.886 266.176 389.034C260.491 353.682 255.094 313.586 255.039 277.527C255.099 277.57 255.162 277.614 255.228 277.661C255.885 278.124 256.866 278.79 258.168 279.609C260.773 281.248 264.662 283.5 269.813 285.961C282.414 291.985 302.568 299.258 329.932 301.88C329.982 302.01 330.05 302.184 330.134 302.399C330.343 302.929 330.656 303.711 331.075 304.721C331.912 306.741 333.17 309.67 334.854 313.314L334.854 313.314C341.151 326.916 353.416 350.464 371.972 373.594C396.426 404.079 414.97 428.274 415.782 470.411C414.339 470.758 408.961 471.985 402.093 472.764C394.157 473.664 384.292 473.958 376.215 471.646C373.612 466.691 366.288 453.816 357.112 437.683C350.504 426.065 342.936 412.758 335.477 399.504C326.498 383.548 317.676 367.663 310.872 354.876C307.469 348.482 304.574 342.867 302.416 338.406C300.25 333.929 298.85 330.659 298.41 328.932L297.431 329.127C297.488 329.521 299.329 342.225 302.375 358.01C305.419 373.786 309.674 392.678 314.564 405.432Z" fill="#FF7A63" stroke="#FF7A63"/>
<path d="M297.926 329.056L293.07 318.971" stroke="#FF7A63" stroke-width="5" stroke-miterlimit="10" stroke-linecap="round"/>
<path d="M334.383 312.3C319.001 307.48 299.51 299.271 283.687 291.75C295.592 296.051 311.045 300.077 329.933 301.886C329.984 302.016 330.052 302.19 330.137 302.405C330.346 302.936 330.659 303.719 331.077 304.729C331.834 306.557 332.934 309.13 334.383 312.3Z" fill="#423C52" stroke="#FF7A63"/>
<path d="M414.896 492.577H374.442C374.442 492.577 382.534 484.934 376.754 473.121C376.614 472.834 376.436 472.483 376.219 472.071C392.643 476.88 415.7 470.866 415.94 470.806C416.038 478.077 415.689 485.348 414.896 492.577Z" fill="white" stroke="#423C52" stroke-width="5" stroke-miterlimit="10" stroke-linecap="round"/>
<path d="M318.985 472.519C316.347 484.81 312.95 492.573 312.95 492.573H307.74C307.74 492.573 308.094 485.517 304.389 485.51L297.813 492.577H262.323C262.323 492.577 279.576 484.707 278.969 473.585C278.949 473.238 278.929 472.884 278.905 472.523C294.791 474.93 318.985 472.519 318.985 472.519Z" fill="white" stroke="#423C52" stroke-width="5" stroke-miterlimit="10" stroke-linecap="round"/>
<path d="M274.828 479.719H285.292" stroke="#423C52" stroke-width="5" stroke-miterlimit="10" stroke-linecap="round"/>
<path d="M272.913 482.336H283.376" stroke="#423C52" stroke-width="5" stroke-miterlimit="10" stroke-linecap="round"/>
<path d="M304.844 182.601C301.359 181.396 298.305 177.745 299.958 175.452C301.205 173.727 322.59 173.515 329.005 178.3C330.883 179.734 332.398 181.591 333.426 183.721C333.845 184.569 334.432 185.322 335.152 185.934C335.871 186.547 336.707 187.006 337.609 187.285C338.512 187.563 339.461 187.654 340.399 187.552C341.338 187.45 342.246 187.158 343.068 186.693C349.387 183.091 359.053 179.892 369.346 184.986C388.639 194.53 381.122 217.078 381.122 217.078C381.122 217.078 399.734 205.996 409.966 221.453C420.588 237.505 406.399 259.204 381.348 260.609C356.297 262.015 353.738 249.796 349.243 240.083C344.659 230.176 349.571 215.058 349.571 215.058C349.571 215.058 334.318 222.297 324.071 217.279C311.87 211.305 318.778 197.757 318.778 197.757L304.844 182.601Z" fill="#A0505A"/>
<path d="M347.571 303.679L340.533 302.757C340.489 302.416 335.284 261.005 329.31 260.085C320.933 258.796 330.292 301.418 330.292 301.418C280.474 296.717 254.537 276.547 254.537 276.547C254.551 265.382 255.091 254.617 256.311 244.505C256.311 244.505 230.106 264.916 208.92 256.316C205.089 254.762 202.06 251.152 199.1 246.768L219.785 219.49L256.299 198.96C261.007 196.261 266.304 194.76 271.726 194.587C277.147 194.414 282.528 195.575 287.398 197.968L333.222 220.494C340.478 224.062 346.412 229.851 350.167 237.023L367.624 270.398C375.735 285.894 365.031 304.227 347.571 303.679Z" fill="white" stroke="#423C52" stroke-width="5" stroke-miterlimit="10" stroke-linecap="round"/>
<path d="M256.313 244.505L258.393 225.859" stroke="#423C52" stroke-width="5" stroke-miterlimit="10" stroke-linecap="round"/>
<path d="M336.453 327.831L165.628 146.81" stroke="#423C52" stroke-width="5" stroke-miterlimit="10" stroke-linecap="round"/>
<path d="M191.305 113.647L194.219 128.681C194.436 129.807 194.346 130.971 193.958 132.05C193.57 133.129 192.898 134.083 192.014 134.811L145.976 172.726C145.092 173.455 144.029 173.93 142.897 174.103C141.766 174.275 140.609 174.138 139.549 173.706L125.388 167.941L191.305 113.647Z" fill="white" stroke="#423C52" stroke-width="5" stroke-linecap="round" stroke-linejoin="round"/>
<path d="M192.892 133.925C192.627 134.248 192.331 134.544 192.009 134.811L191.983 134.833L190.968 135.668L190.067 136.411L185.014 140.575L184.335 141.134L183.914 141.481L183.433 141.883L177.703 146.599L176.946 147.222L176.8 147.342L175.846 148.128L171.072 152.059L170.168 152.804L168.877 153.868L167.779 154.772L164.438 157.523L163.535 158.268L160.809 160.513L159.711 161.416L157.807 162.987L156.901 163.732L152.735 167.153L151.636 168.057L151.165 168.446L150.262 169.189L145.969 172.725C145.532 173.085 145.05 173.385 144.534 173.617C144.386 173.683 144.235 173.746 144.085 173.8C143.935 173.854 143.782 173.9 143.632 173.942C142.367 174.295 141.024 174.245 139.788 173.8L139.542 173.705L137.9 173.037L136.998 172.669L131.269 170.336L130.365 169.97L125.679 168.057L125.393 167.94L126.349 167.153L130.377 163.834L131.281 163.091L133.317 161.412L134.415 160.509L137.021 158.372L137.922 157.627L141.395 154.768L142.494 153.864L143.654 152.907L144.556 152.164L149.462 148.124L150.284 147.447L150.562 147.218L151.187 146.702L156.915 141.983L157.53 141.477L157.821 141.238L158.623 140.571L163.541 136.519L164.444 135.776L165.591 134.833L166.689 133.925L170.17 131.058L171.074 130.313L173.655 128.186L174.753 127.281L176.802 125.592L177.705 124.849L181.724 121.54L182.82 120.636L183.435 120.13L184.337 119.387L189.792 114.895L190.069 114.666L190.888 113.99L190.971 113.921L191.309 113.644L191.375 113.99L191.55 114.895L192.66 120.636L192.834 121.54L193.945 127.281L194.119 128.186L194.213 128.68C194.391 129.598 194.365 130.544 194.137 131.45C193.908 132.357 193.484 133.202 192.892 133.925Z" fill="white" stroke="#423C52" stroke-width="5" stroke-linecap="round" stroke-linejoin="round"/>
<path d="M131.276 163.091V170.336L130.372 169.97V163.834L131.276 163.091Z" fill="#423C52"/>
<path d="M137.908 157.627V173.037L137.006 172.669V158.372L137.908 157.627Z" fill="#423C52"/>
<path d="M144.541 152.164V173.617C144.393 173.683 144.243 173.745 144.092 173.8C143.942 173.854 143.79 173.9 143.639 173.942V152.907L144.541 152.164Z" fill="#423C52"/>
<path d="M151.172 146.702V168.446L150.269 169.189V147.447L150.547 147.218L151.172 146.702Z" fill="#423C52"/>
<path d="M157.806 141.238V162.983L156.9 163.728V141.983L157.516 141.477L157.806 141.238Z" fill="#423C52"/>
<path d="M164.437 135.776V157.519L163.534 158.264V136.519L164.437 135.776Z" fill="#423C52"/>
<path d="M171.071 130.311V152.055L170.167 152.8V131.058L171.071 130.311Z" fill="#423C52"/>
<path d="M177.703 124.849V146.595L176.945 147.218L176.801 147.338V125.592L177.703 124.849Z" fill="#423C52"/>
<path d="M184.334 119.387V141.13L183.913 141.477L183.432 141.875V120.13L184.334 119.387Z" fill="#423C52"/>
<path d="M190.968 113.921V135.668L190.066 136.411V114.666L190.886 113.99L190.968 113.921Z" fill="#423C52"/>
<path d="M144.092 173.8C143.942 173.854 143.789 173.9 143.639 173.942C142.374 174.295 141.031 174.245 139.795 173.8H144.092Z" fill="#423C52"/>
<path d="M152.742 167.153L151.644 168.057H125.675L125.388 167.94L126.344 167.153H152.742Z" fill="#423C52"/>
<path d="M160.808 160.509L159.71 161.412H133.312L134.411 160.509H160.808Z" fill="#423C52"/>
<path d="M168.876 153.862L167.778 154.768H141.38L142.478 153.862H168.876Z" fill="#423C52"/>
<path d="M176.945 147.218L176.801 147.338L175.845 148.124H149.447L150.269 147.447L150.548 147.218H176.945Z" fill="#423C52"/>
<path d="M185.014 140.572L184.334 141.13L183.913 141.477H157.516L157.806 141.238L158.616 140.572H185.014Z" fill="#423C52"/>
<path d="M192.892 133.925C192.626 134.248 192.33 134.544 192.008 134.811L191.982 134.833H165.584L166.682 133.925H192.892Z" fill="#423C52"/>
<path d="M194.116 128.186H173.653L174.751 127.281H193.942L194.116 128.186Z" fill="#423C52"/>
<path d="M192.832 121.54H181.721L182.817 120.636H192.657L192.832 121.54Z" fill="#423C52"/>
<path d="M191.547 114.895H189.789L190.066 114.666L190.885 113.99H191.372L191.547 114.895Z" fill="#423C52"/>
<path d="M366.474 294.173C364.786 297.334 362.047 299.803 358.732 301.151C358.509 301.241 358.283 301.323 358.053 301.404C360.084 299.93 361.74 297.997 362.885 295.761C364.031 293.526 364.634 291.051 364.646 288.538V288.49C364.646 284.717 363.235 281.08 360.691 278.298C358.146 275.516 354.654 273.791 350.902 273.462L340.537 273.085L345.81 271.398C355.862 268.149 364.961 273.33 367.594 280.93L367.608 280.978C368.345 283.136 368.625 285.424 368.43 287.695C368.235 289.967 367.568 292.174 366.474 294.173Z" fill="#423C52"/>
<path d="M364.642 288.54V288.49C364.642 284.717 363.231 281.081 360.686 278.3C358.142 275.519 354.649 273.794 350.898 273.466L298.455 271.549L297.824 270.386C296.988 268.849 295.822 267.517 294.409 266.488C292.996 265.458 291.372 264.757 289.655 264.434C287.794 264.085 285.877 264.19 284.066 264.742L279.392 266.677L274.234 261.131C274.185 261.082 274.124 261.045 274.058 261.026C273.991 261.007 273.92 261.006 273.853 261.022C273.785 261.038 273.723 261.072 273.673 261.12C273.622 261.167 273.585 261.227 273.564 261.294C272.656 264.581 268.937 278.892 271.586 283.362C278.16 294.454 322.145 301.604 347.998 304.183C356.908 305.076 364.642 297.522 364.642 288.54Z" fill="#FFDB00"/>
<path d="M272.244 268.649C272.222 269.597 272.087 271.294 272.62 272.198C273.789 274.165 276.134 275.995 279.348 277.683" stroke="#423C52" stroke-width="5" stroke-miterlimit="10" stroke-linecap="round"/>
<path d="M271.242 274.272C271.22 275.219 271.085 276.916 271.618 277.82C272.787 279.788 275.132 281.617 278.346 283.306" stroke="#423C52" stroke-width="5" stroke-miterlimit="10" stroke-linecap="round"/>
<path d="M273.793 261.412C273.773 262.36 273.48 265.709 274.015 266.611C275.182 268.581 277.528 270.41 280.741 272.099" stroke="#423C52" stroke-width="5" stroke-miterlimit="10" stroke-linecap="round"/>
<path d="M279.905 266.856L286.905 269.173" stroke="#423C52" stroke-width="5" stroke-miterlimit="10" stroke-linecap="round"/>
<path d="M298.455 271.549V276.547" stroke="#423C52" stroke-width="5" stroke-miterlimit="10" stroke-linecap="round"/>
<path d="M229.362 247.2C227.637 250.722 224.714 253.511 221.119 255.065C220.981 255.125 220.841 255.183 220.698 255.242C218.107 256.295 215.298 256.696 212.517 256.412C209.735 256.127 207.065 255.165 204.74 253.609C203.515 252.487 202.393 251.256 201.387 249.933C204.118 252.228 207.545 253.527 211.109 253.616C214.672 253.705 218.16 252.578 221.001 250.421C223.843 248.264 225.868 245.204 226.747 241.743C227.625 238.281 227.304 234.624 225.837 231.369L223.322 225.782L224.677 226.863C230.767 231.738 232.807 240.208 229.362 247.2Z" fill="#423C52"/>
<path d="M217.39 252.473C214.133 253.797 210.527 253.988 207.149 253.018C203.77 252.047 200.814 249.969 198.752 247.117C198.463 246.688 198.177 246.246 197.894 245.796C197.895 245.79 197.895 245.784 197.894 245.778C184.154 223.77 179.962 177.446 181.661 170.854C183.11 165.205 199.231 162.515 200.385 163.906C201.261 164.958 207.704 178.364 210.78 184.809C211.215 185.721 211.275 186.767 210.947 187.723C210.62 188.678 209.931 189.466 209.029 189.918L207.305 190.775L220.482 219.489L225.835 231.375C226.706 233.31 227.178 235.401 227.223 237.523C227.268 239.646 226.885 241.755 226.096 243.725C225.307 245.696 224.13 247.486 222.634 248.989C221.138 250.492 219.354 251.677 217.39 252.473Z" fill="#FFDB00"/>
<path d="M188.751 170.962C194.046 168.577 201.511 167.681 202.285 168.613" stroke="#423C52" stroke-width="5" stroke-miterlimit="10" stroke-linecap="round"/>
<path d="M191.537 176.372C196.832 173.988 204.299 173.093 205.071 174.023" stroke="#423C52" stroke-width="5" stroke-miterlimit="10" stroke-linecap="round"/>
<path d="M194.499 182.48C199.794 180.097 207.261 179.201 208.033 180.131" stroke="#423C52" stroke-width="5" stroke-miterlimit="10" stroke-linecap="round"/>
<path d="M211.51 195.54L205.588 186.803C205.487 186.571 205.305 186.382 205.076 186.274C204.847 186.166 204.587 186.145 204.343 186.215L203.776 186.376C203.584 186.431 203.411 186.54 203.279 186.691C203.147 186.842 203.06 187.027 203.03 187.225C203 187.424 203.027 187.627 203.109 187.81C203.19 187.993 203.322 188.149 203.49 188.259L211.51 195.54Z" fill="#423C52"/>
<path d="M318.809 196.028V213.044C318.809 213.044 315.402 218.443 308.67 216.08C302.726 213.994 303.632 205.317 303.632 205.317L303.872 197.396L318.809 196.028Z" fill="#FFDB00"/>
<path d="M303.872 197.57L318.808 196.203V213.779L303.806 199.233L303.872 197.57Z" fill="#423C52"/>
<path d="M324.648 194.627C324.539 195.09 324.339 195.528 324.061 195.914C323.782 196.3 323.431 196.628 323.026 196.878C322.621 197.128 322.171 197.296 321.702 197.371C321.232 197.447 320.752 197.429 320.29 197.319L317.57 196.675L317.546 196.749C317.546 196.749 311.658 201.769 305.018 199.052C298.379 196.335 305.018 182.677 305.018 182.677C310.872 185.89 316.919 184.318 318.957 184.221C321.135 184.119 320.159 188.476 319.837 189.755L321.959 190.259C322.422 190.369 322.858 190.569 323.244 190.848C323.63 191.127 323.957 191.479 324.207 191.885C324.456 192.29 324.624 192.741 324.7 193.212C324.776 193.682 324.758 194.163 324.648 194.627Z" fill="#FFDB00"/>
<path d="M319.538 194.006C319.68 193.407 320.054 192.888 320.578 192.565C321.101 192.241 321.731 192.139 322.329 192.281" stroke="#423C52" stroke-width="5" stroke-miterlimit="10" stroke-linecap="round"/>
<path d="M304.568 184.737C304.568 184.737 307.54 186.761 306.015 193.095" stroke="#423C52" stroke-width="5" stroke-miterlimit="10" stroke-linecap="round"/>
<path d="M311.295 186.604C311.295 186.604 313.468 187.068 314.576 188.795" stroke="#423C52" stroke-width="5" stroke-miterlimit="10" stroke-linecap="round"/>
<path d="M311.855 190.3C312.005 189.664 311.853 189.082 311.515 189.002C311.177 188.922 310.781 189.373 310.63 190.01C310.479 190.646 310.632 191.227 310.97 191.308C311.308 191.388 311.704 190.937 311.855 190.3Z" fill="#423C52"/>
<path d="M304.824 188.781C304.957 188.22 304.822 187.707 304.524 187.636C304.226 187.566 303.876 187.963 303.743 188.524C303.611 189.085 303.745 189.598 304.043 189.669C304.342 189.739 304.691 189.342 304.824 188.781Z" fill="#423C52"/>
<path d="M318.891 184.225C316.764 184.364 308.67 186.811 304.081 184.795C304.535 183.665 305.019 182.677 305.019 182.677C310.81 185.848 316.789 184.35 318.891 184.225Z" fill="#423C52"/>
<path d="M100.148 532.94V554H95.0179V541.37L90.3079 554H86.1679L81.4279 541.34V554H76.2979V532.94H82.3579L88.2679 547.52L94.1179 532.94H100.148ZM107.017 535.52C106.117 535.52 105.377 535.26 104.797 534.74C104.237 534.2 103.957 533.54 103.957 532.76C103.957 531.96 104.237 531.3 104.797 530.78C105.377 530.24 106.117 529.97 107.017 529.97C107.897 529.97 108.617 530.24 109.177 530.78C109.757 531.3 110.047 531.96 110.047 532.76C110.047 533.54 109.757 534.2 109.177 534.74C108.617 535.26 107.897 535.52 107.017 535.52ZM109.567 537.26V554H104.437V537.26H109.567ZM112.865 545.6C112.865 543.88 113.185 542.37 113.825 541.07C114.485 539.77 115.375 538.77 116.495 538.07C117.615 537.37 118.865 537.02 120.245 537.02C121.345 537.02 122.345 537.25 123.245 537.71C124.165 538.17 124.885 538.79 125.405 539.57V531.8H130.535V554H125.405V551.6C124.925 552.4 124.235 553.04 123.335 553.52C122.455 554 121.425 554.24 120.245 554.24C118.865 554.24 117.615 553.89 116.495 553.19C115.375 552.47 114.485 551.46 113.825 550.16C113.185 548.84 112.865 547.32 112.865 545.6ZM125.405 545.63C125.405 544.35 125.045 543.34 124.325 542.6C123.625 541.86 122.765 541.49 121.745 541.49C120.725 541.49 119.855 541.86 119.135 542.6C118.435 543.32 118.085 544.32 118.085 545.6C118.085 546.88 118.435 547.9 119.135 548.66C119.855 549.4 120.725 549.77 121.745 549.77C122.765 549.77 123.625 549.4 124.325 548.66C125.045 547.92 125.405 546.91 125.405 545.63ZM150.626 545.36C150.626 545.84 150.596 546.34 150.536 546.86H138.926C139.006 547.9 139.336 548.7 139.916 549.26C140.516 549.8 141.246 550.07 142.106 550.07C143.386 550.07 144.276 549.53 144.776 548.45H150.236C149.956 549.55 149.446 550.54 148.706 551.42C147.986 552.3 147.076 552.99 145.976 553.49C144.876 553.99 143.646 554.24 142.286 554.24C140.646 554.24 139.186 553.89 137.906 553.19C136.626 552.49 135.626 551.49 134.906 550.19C134.186 548.89 133.826 547.37 133.826 545.63C133.826 543.89 134.176 542.37 134.876 541.07C135.596 539.77 136.596 538.77 137.876 538.07C139.156 537.37 140.626 537.02 142.286 537.02C143.906 537.02 145.346 537.36 146.606 538.04C147.866 538.72 148.846 539.69 149.546 540.95C150.266 542.21 150.626 543.68 150.626 545.36ZM145.376 544.01C145.376 543.13 145.076 542.43 144.476 541.91C143.876 541.39 143.126 541.13 142.226 541.13C141.366 541.13 140.636 541.38 140.036 541.88C139.456 542.38 139.096 543.09 138.956 544.01H145.376ZM170.22 549.65V554H167.61C165.75 554 164.3 553.55 163.26 552.65C162.22 551.73 161.7 550.24 161.7 548.18V541.52H159.66V537.26H161.7V533.18H166.83V537.26H170.19V541.52H166.83V548.24C166.83 548.74 166.95 549.1 167.19 549.32C167.43 549.54 167.83 549.65 168.39 549.65H170.22ZM190.207 537.26V554H185.077V551.72C184.557 552.46 183.847 553.06 182.947 553.52C182.067 553.96 181.087 554.18 180.007 554.18C178.727 554.18 177.597 553.9 176.617 553.34C175.637 552.76 174.877 551.93 174.337 550.85C173.797 549.77 173.527 548.5 173.527 547.04V537.26H178.627V546.35C178.627 547.47 178.917 548.34 179.497 548.96C180.077 549.58 180.857 549.89 181.837 549.89C182.837 549.89 183.627 549.58 184.207 548.96C184.787 548.34 185.077 547.47 185.077 546.35V537.26H190.207ZM211.739 537.08C213.659 537.08 215.199 537.72 216.359 539C217.519 540.26 218.099 542 218.099 544.22V554H212.999V544.91C212.999 543.79 212.709 542.92 212.129 542.3C211.549 541.68 210.769 541.37 209.789 541.37C208.809 541.37 208.029 541.68 207.449 542.3C206.869 542.92 206.579 543.79 206.579 544.91V554H201.449V531.8H206.579V539.51C207.099 538.77 207.809 538.18 208.709 537.74C209.609 537.3 210.619 537.08 211.739 537.08ZM238.794 537.26V554H233.664V551.72C233.144 552.46 232.434 553.06 231.534 553.52C230.654 553.96 229.674 554.18 228.594 554.18C227.314 554.18 226.184 553.9 225.204 553.34C224.224 552.76 223.464 551.93 222.924 550.85C222.384 549.77 222.114 548.5 222.114 547.04V537.26H227.214V546.35C227.214 547.47 227.504 548.34 228.084 548.96C228.664 549.58 229.444 549.89 230.424 549.89C231.424 549.89 232.214 549.58 232.794 548.96C233.374 548.34 233.664 547.47 233.664 546.35V537.26H238.794ZM258.859 545.36C258.859 545.84 258.829 546.34 258.769 546.86H247.159C247.239 547.9 247.569 548.7 248.149 549.26C248.749 549.8 249.479 550.07 250.339 550.07C251.619 550.07 252.509 549.53 253.009 548.45H258.469C258.189 549.55 257.679 550.54 256.939 551.42C256.219 552.3 255.309 552.99 254.209 553.49C253.109 553.99 251.879 554.24 250.519 554.24C248.879 554.24 247.419 553.89 246.139 553.19C244.859 552.49 243.859 551.49 243.139 550.19C242.419 548.89 242.059 547.37 242.059 545.63C242.059 543.89 242.409 542.37 243.109 541.07C243.829 539.77 244.829 538.77 246.109 538.07C247.389 537.37 248.859 537.02 250.519 537.02C252.139 537.02 253.579 537.36 254.839 538.04C256.099 538.72 257.079 539.69 257.779 540.95C258.499 542.21 258.859 543.68 258.859 545.36ZM253.609 544.01C253.609 543.13 253.309 542.43 252.709 541.91C252.109 541.39 251.359 541.13 250.459 541.13C249.599 541.13 248.869 541.38 248.269 541.88C247.689 542.38 247.329 543.09 247.189 544.01H253.609ZM267.295 531.8V554H262.165V531.8H267.295ZM276.743 531.8V554H271.613V531.8H276.743ZM280.041 545.6C280.041 543.88 280.361 542.37 281.001 541.07C281.661 539.77 282.551 538.77 283.671 538.07C284.791 537.37 286.041 537.02 287.421 537.02C288.601 537.02 289.631 537.26 290.511 537.74C291.411 538.22 292.101 538.85 292.581 539.63V537.26H297.711V554H292.581V551.63C292.081 552.41 291.381 553.04 290.481 553.52C289.601 554 288.571 554.24 287.391 554.24C286.031 554.24 284.791 553.89 283.671 553.19C282.551 552.47 281.661 551.46 281.001 550.16C280.361 548.84 280.041 547.32 280.041 545.6ZM292.581 545.63C292.581 544.35 292.221 543.34 291.501 542.6C290.801 541.86 289.941 541.49 288.921 541.49C287.901 541.49 287.031 541.86 286.311 542.6C285.611 543.32 285.261 544.32 285.261 545.6C285.261 546.88 285.611 547.9 286.311 548.66C287.031 549.4 287.901 549.77 288.921 549.77C289.941 549.77 290.801 549.4 291.501 548.66C292.221 547.92 292.581 546.91 292.581 545.63ZM97.4691 590.6C97.4691 588.88 97.7891 587.37 98.4291 586.07C99.0891 584.77 99.9791 583.77 101.099 583.07C102.219 582.37 103.469 582.02 104.849 582.02C105.949 582.02 106.949 582.25 107.849 582.71C108.769 583.17 109.489 583.79 110.009 584.57V576.8H115.139V599H110.009V596.6C109.529 597.4 108.839 598.04 107.939 598.52C107.059 599 106.029 599.24 104.849 599.24C103.469 599.24 102.219 598.89 101.099 598.19C99.9791 597.47 99.0891 596.46 98.4291 595.16C97.7891 593.84 97.4691 592.32 97.4691 590.6ZM110.009 590.63C110.009 589.35 109.649 588.34 108.929 587.6C108.229 586.86 107.369 586.49 106.349 586.49C105.329 586.49 104.459 586.86 103.739 587.6C103.039 588.32 102.689 589.32 102.689 590.6C102.689 591.88 103.039 592.9 103.739 593.66C104.459 594.4 105.329 594.77 106.349 594.77C107.369 594.77 108.229 594.4 108.929 593.66C109.649 592.92 110.009 591.91 110.009 590.63ZM135.23 590.36C135.23 590.84 135.2 591.34 135.14 591.86H123.53C123.61 592.9 123.94 593.7 124.52 594.26C125.12 594.8 125.85 595.07 126.71 595.07C127.99 595.07 128.88 594.53 129.38 593.45H134.84C134.56 594.55 134.05 595.54 133.31 596.42C132.59 597.3 131.68 597.99 130.58 598.49C129.48 598.99 128.25 599.24 126.89 599.24C125.25 599.24 123.79 598.89 122.51 598.19C121.23 597.49 120.23 596.49 119.51 595.19C118.79 593.89 118.43 592.37 118.43 590.63C118.43 588.89 118.78 587.37 119.48 586.07C120.2 584.77 121.2 583.77 122.48 583.07C123.76 582.37 125.23 582.02 126.89 582.02C128.51 582.02 129.95 582.36 131.21 583.04C132.47 583.72 133.45 584.69 134.15 585.95C134.87 587.21 135.23 588.68 135.23 590.36ZM129.98 589.01C129.98 588.13 129.68 587.43 129.08 586.91C128.48 586.39 127.73 586.13 126.83 586.13C125.97 586.13 125.24 586.38 124.64 586.88C124.06 587.38 123.7 588.09 123.56 589.01H129.98ZM144.474 590.63C144.474 588.89 144.824 587.37 145.524 586.07C146.244 584.77 147.234 583.77 148.494 583.07C149.774 582.37 151.234 582.02 152.874 582.02C154.974 582.02 156.724 582.57 158.124 583.67C159.544 584.77 160.474 586.32 160.914 588.32H155.454C154.994 587.04 154.104 586.4 152.784 586.4C151.844 586.4 151.094 586.77 150.534 587.51C149.974 588.23 149.694 589.27 149.694 590.63C149.694 591.99 149.974 593.04 150.534 593.78C151.094 594.5 151.844 594.86 152.784 594.86C154.104 594.86 154.994 594.22 155.454 592.94H160.914C160.474 594.9 159.544 596.44 158.124 597.56C156.704 598.68 154.954 599.24 152.874 599.24C151.234 599.24 149.774 598.89 148.494 598.19C147.234 597.49 146.244 596.49 145.524 595.19C144.824 593.89 144.474 592.37 144.474 590.63ZM163.238 590.6C163.238 588.88 163.558 587.37 164.198 586.07C164.858 584.77 165.748 583.77 166.868 583.07C167.988 582.37 169.238 582.02 170.618 582.02C171.798 582.02 172.828 582.26 173.708 582.74C174.608 583.22 175.298 583.85 175.778 584.63V582.26H180.908V599H175.778V596.63C175.278 597.41 174.578 598.04 173.678 598.52C172.798 599 171.768 599.24 170.588 599.24C169.228 599.24 167.988 598.89 166.868 598.19C165.748 597.47 164.858 596.46 164.198 595.16C163.558 593.84 163.238 592.32 163.238 590.6ZM175.778 590.63C175.778 589.35 175.418 588.34 174.698 587.6C173.998 586.86 173.138 586.49 172.118 586.49C171.098 586.49 170.228 586.86 169.508 587.6C168.808 588.32 168.458 589.32 168.458 590.6C168.458 591.88 168.808 592.9 169.508 593.66C170.228 594.4 171.098 594.77 172.118 594.77C173.138 594.77 173.998 594.4 174.698 593.66C175.418 592.92 175.778 591.91 175.778 590.63ZM190.35 585.05C190.95 584.13 191.7 583.41 192.6 582.89C193.5 582.35 194.5 582.08 195.6 582.08V587.51H194.19C192.91 587.51 191.95 587.79 191.31 588.35C190.67 588.89 190.35 589.85 190.35 591.23V599H185.22V582.26H190.35V585.05ZM203.782 584.63C204.262 583.85 204.952 583.22 205.852 582.74C206.752 582.26 207.782 582.02 208.942 582.02C210.322 582.02 211.572 582.37 212.692 583.07C213.812 583.77 214.692 584.77 215.332 586.07C215.992 587.37 216.322 588.88 216.322 590.6C216.322 592.32 215.992 593.84 215.332 595.16C214.692 596.46 213.812 597.47 212.692 598.19C211.572 598.89 210.322 599.24 208.942 599.24C207.762 599.24 206.732 599.01 205.852 598.55C204.972 598.07 204.282 597.44 203.782 596.66V599H198.652V576.8H203.782V584.63ZM211.102 590.6C211.102 589.32 210.742 588.32 210.022 587.6C209.322 586.86 208.452 586.49 207.412 586.49C206.392 586.49 205.522 586.86 204.802 587.6C204.102 588.34 203.752 589.35 203.752 590.63C203.752 591.91 204.102 592.92 204.802 593.66C205.522 594.4 206.392 594.77 207.412 594.77C208.432 594.77 209.302 594.4 210.022 593.66C210.742 592.9 211.102 591.88 211.102 590.6ZM227.233 599.24C225.593 599.24 224.113 598.89 222.793 598.19C221.493 597.49 220.463 596.49 219.703 595.19C218.963 593.89 218.593 592.37 218.593 590.63C218.593 588.91 218.973 587.4 219.733 586.1C220.493 584.78 221.533 583.77 222.853 583.07C224.173 582.37 225.653 582.02 227.293 582.02C228.933 582.02 230.413 582.37 231.733 583.07C233.053 583.77 234.093 584.78 234.853 586.1C235.613 587.4 235.993 588.91 235.993 590.63C235.993 592.35 235.603 593.87 234.823 595.19C234.063 596.49 233.013 597.49 231.673 598.19C230.353 598.89 228.873 599.24 227.233 599.24ZM227.233 594.8C228.213 594.8 229.043 594.44 229.723 593.72C230.423 593 230.773 591.97 230.773 590.63C230.773 589.29 230.433 588.26 229.753 587.54C229.093 586.82 228.273 586.46 227.293 586.46C226.293 586.46 225.463 586.82 224.803 587.54C224.143 588.24 223.813 589.27 223.813 590.63C223.813 591.97 224.133 593 224.773 593.72C225.433 594.44 226.253 594.8 227.233 594.8ZM249.514 582.08C251.474 582.08 253.034 582.72 254.194 584C255.374 585.26 255.964 587 255.964 589.22V599H250.864V589.91C250.864 588.79 250.574 587.92 249.994 587.3C249.414 586.68 248.634 586.37 247.654 586.37C246.674 586.37 245.894 586.68 245.314 587.3C244.734 587.92 244.444 588.79 244.444 589.91V599H239.314V582.26H244.444V584.48C244.964 583.74 245.664 583.16 246.544 582.74C247.424 582.3 248.414 582.08 249.514 582.08ZM267.749 599.24C266.109 599.24 264.629 598.89 263.309 598.19C262.009 597.49 260.979 596.49 260.219 595.19C259.479 593.89 259.109 592.37 259.109 590.63C259.109 588.91 259.489 587.4 260.249 586.1C261.009 584.78 262.049 583.77 263.369 583.07C264.689 582.37 266.169 582.02 267.809 582.02C269.449 582.02 270.929 582.37 272.249 583.07C273.569 583.77 274.609 584.78 275.369 586.1C276.129 587.4 276.509 588.91 276.509 590.63C276.509 592.35 276.119 593.87 275.339 595.19C274.579 596.49 273.529 597.49 272.189 598.19C270.869 598.89 269.389 599.24 267.749 599.24ZM267.749 594.8C268.729 594.8 269.559 594.44 270.239 593.72C270.939 593 271.289 591.97 271.289 590.63C271.289 589.29 270.949 588.26 270.269 587.54C269.609 586.82 268.789 586.46 267.809 586.46C266.809 586.46 265.979 586.82 265.319 587.54C264.659 588.24 264.329 589.27 264.329 590.63C264.329 591.97 264.649 593 265.289 593.72C265.949 594.44 266.769 594.8 267.749 594.8Z" fill="#776557"/>
<path d="M53.0993 639.416C53.0993 638.328 53.3446 637.352 53.8353 636.488C54.3259 635.613 54.9926 634.931 55.8353 634.44C56.6886 633.949 57.6326 633.704 58.6673 633.704C59.8833 633.704 60.9446 633.997 61.8513 634.584C62.7579 635.171 63.4193 636.003 63.8353 637.08H62.0913C61.7819 636.408 61.3339 635.891 60.7473 635.528C60.1713 635.165 59.4779 634.984 58.6673 634.984C57.8886 634.984 57.1899 635.165 56.5713 635.528C55.9526 635.891 55.4673 636.408 55.1153 637.08C54.7633 637.741 54.5873 638.52 54.5873 639.416C54.5873 640.301 54.7633 641.08 55.1153 641.752C55.4673 642.413 55.9526 642.925 56.5713 643.288C57.1899 643.651 57.8886 643.832 58.6673 643.832C59.4779 643.832 60.1713 643.656 60.7473 643.304C61.3339 642.941 61.7819 642.424 62.0913 641.752H63.8353C63.4193 642.819 62.7579 643.645 61.8513 644.232C60.9446 644.808 59.8833 645.096 58.6673 645.096C57.6326 645.096 56.6886 644.856 55.8353 644.376C54.9926 643.885 54.3259 643.208 53.8353 642.344C53.3446 641.48 53.0993 640.504 53.0993 639.416ZM65.7786 640.584C65.7786 639.688 65.96 638.904 66.3226 638.232C66.6853 637.549 67.1813 637.021 67.8106 636.648C68.4506 636.275 69.16 636.088 69.9386 636.088C70.7066 636.088 71.3733 636.253 71.9386 636.584C72.504 636.915 72.9253 637.331 73.2026 637.832V636.232H74.6746V645H73.2026V643.368C72.9146 643.88 72.4826 644.307 71.9066 644.648C71.3413 644.979 70.68 645.144 69.9226 645.144C69.144 645.144 68.44 644.952 67.8106 644.568C67.1813 644.184 66.6853 643.645 66.3226 642.952C65.96 642.259 65.7786 641.469 65.7786 640.584ZM73.2026 640.6C73.2026 639.939 73.0693 639.363 72.8026 638.872C72.536 638.381 72.1733 638.008 71.7146 637.752C71.2666 637.485 70.7706 637.352 70.2266 637.352C69.6826 637.352 69.1866 637.48 68.7386 637.736C68.2906 637.992 67.9333 638.365 67.6666 638.856C67.4 639.347 67.2666 639.923 67.2666 640.584C67.2666 641.256 67.4 641.843 67.6666 642.344C67.9333 642.835 68.2906 643.213 68.7386 643.48C69.1866 643.736 69.6826 643.864 70.2266 643.864C70.7706 643.864 71.2666 643.736 71.7146 643.48C72.1733 643.213 72.536 642.835 72.8026 642.344C73.0693 641.843 73.2026 641.261 73.2026 640.6ZM78.9111 633.16V645H77.4551V633.16H78.9111ZM81.1686 640.6C81.1686 639.693 81.35 638.904 81.7126 638.232C82.0753 637.549 82.5766 637.021 83.2166 636.648C83.8673 636.275 84.6086 636.088 85.4406 636.088C86.518 636.088 87.4033 636.349 88.0966 636.872C88.8006 637.395 89.2646 638.12 89.4886 639.048H87.9206C87.7713 638.515 87.478 638.093 87.0406 637.784C86.614 637.475 86.0806 637.32 85.4406 637.32C84.6086 637.32 83.9366 637.608 83.4246 638.184C82.9126 638.749 82.6566 639.555 82.6566 640.6C82.6566 641.656 82.9126 642.472 83.4246 643.048C83.9366 643.624 84.6086 643.912 85.4406 643.912C86.0806 643.912 86.614 643.763 87.0406 643.464C87.4673 643.165 87.7606 642.739 87.9206 642.184H89.4886C89.254 643.08 88.7846 643.8 88.0806 644.344C87.3766 644.877 86.4966 645.144 85.4406 645.144C84.6086 645.144 83.8673 644.957 83.2166 644.584C82.5766 644.211 82.0753 643.683 81.7126 643C81.35 642.317 81.1686 641.517 81.1686 640.6ZM99.5274 636.232V645H98.0714V643.704C97.794 644.152 97.4047 644.504 96.9034 644.76C96.4127 645.005 95.8687 645.128 95.2714 645.128C94.5887 645.128 93.9754 644.989 93.4314 644.712C92.8874 644.424 92.4554 643.997 92.1354 643.432C91.826 642.867 91.6714 642.179 91.6714 641.368V636.232H93.1114V641.176C93.1114 642.04 93.33 642.707 93.7674 643.176C94.2047 643.635 94.802 643.864 95.5594 643.864C96.338 643.864 96.9514 643.624 97.3994 643.144C97.8474 642.664 98.0714 641.965 98.0714 641.048V636.232H99.5274ZM103.762 633.16V645H102.306V633.16H103.762ZM106.019 640.584C106.019 639.688 106.201 638.904 106.563 638.232C106.926 637.549 107.422 637.021 108.051 636.648C108.691 636.275 109.401 636.088 110.179 636.088C110.947 636.088 111.614 636.253 112.179 636.584C112.745 636.915 113.166 637.331 113.443 637.832V636.232H114.915V645H113.443V643.368C113.155 643.88 112.723 644.307 112.147 644.648C111.582 644.979 110.921 645.144 110.163 645.144C109.385 645.144 108.681 644.952 108.051 644.568C107.422 644.184 106.926 643.645 106.563 642.952C106.201 642.259 106.019 641.469 106.019 640.584ZM113.443 640.6C113.443 639.939 113.31 639.363 113.043 638.872C112.777 638.381 112.414 638.008 111.955 637.752C111.507 637.485 111.011 637.352 110.467 637.352C109.923 637.352 109.427 637.48 108.979 637.736C108.531 637.992 108.174 638.365 107.907 638.856C107.641 639.347 107.507 639.923 107.507 640.584C107.507 641.256 107.641 641.843 107.907 642.344C108.174 642.835 108.531 643.213 108.979 643.48C109.427 643.736 109.923 643.864 110.467 643.864C111.011 643.864 111.507 643.736 111.955 643.48C112.414 643.213 112.777 642.835 113.043 642.344C113.31 641.843 113.443 641.261 113.443 640.6ZM129.833 636.232L124.553 649.128H123.049L124.777 644.904L121.241 636.232H122.857L125.609 643.336L128.329 636.232H129.833ZM137.659 637.656C137.915 637.155 138.277 636.765 138.747 636.488C139.227 636.211 139.808 636.072 140.491 636.072V637.576H140.107C138.475 637.576 137.659 638.461 137.659 640.232V645H136.203V636.232H137.659V637.656ZM150.491 640.28C150.491 640.557 150.475 640.851 150.443 641.16H143.435C143.489 642.024 143.782 642.701 144.315 643.192C144.859 643.672 145.515 643.912 146.283 643.912C146.913 643.912 147.435 643.768 147.851 643.48C148.278 643.181 148.577 642.787 148.747 642.296H150.315C150.081 643.139 149.611 643.827 148.907 644.36C148.203 644.883 147.329 645.144 146.283 645.144C145.451 645.144 144.705 644.957 144.043 644.584C143.393 644.211 142.881 643.683 142.507 643C142.134 642.307 141.947 641.507 141.947 640.6C141.947 639.693 142.129 638.899 142.491 638.216C142.854 637.533 143.361 637.011 144.011 636.648C144.673 636.275 145.43 636.088 146.283 636.088C147.115 636.088 147.851 636.269 148.491 636.632C149.131 636.995 149.622 637.496 149.963 638.136C150.315 638.765 150.491 639.48 150.491 640.28ZM148.987 639.976C148.987 639.421 148.865 638.947 148.619 638.552C148.374 638.147 148.038 637.843 147.611 637.64C147.195 637.427 146.731 637.32 146.219 637.32C145.483 637.32 144.854 637.555 144.331 638.024C143.819 638.493 143.526 639.144 143.451 639.976H148.987ZM152.189 640.584C152.189 639.688 152.371 638.904 152.733 638.232C153.096 637.549 153.592 637.021 154.221 636.648C154.861 636.275 155.571 636.088 156.349 636.088C157.117 636.088 157.784 636.253 158.349 636.584C158.915 636.915 159.336 637.331 159.613 637.832V636.232H161.085V645H159.613V643.368C159.325 643.88 158.893 644.307 158.317 644.648C157.752 644.979 157.091 645.144 156.333 645.144C155.555 645.144 154.851 644.952 154.221 644.568C153.592 644.184 153.096 643.645 152.733 642.952C152.371 642.259 152.189 641.469 152.189 640.584ZM159.613 640.6C159.613 639.939 159.48 639.363 159.213 638.872C158.947 638.381 158.584 638.008 158.125 637.752C157.677 637.485 157.181 637.352 156.637 637.352C156.093 637.352 155.597 637.48 155.149 637.736C154.701 637.992 154.344 638.365 154.077 638.856C153.811 639.347 153.677 639.923 153.677 640.584C153.677 641.256 153.811 641.843 154.077 642.344C154.344 642.835 154.701 643.213 155.149 643.48C155.597 643.736 156.093 643.864 156.637 643.864C157.181 643.864 157.677 643.736 158.125 643.48C158.584 643.213 158.947 642.835 159.213 642.344C159.48 641.843 159.613 641.261 159.613 640.6ZM165.322 633.16V645H163.866V633.16H165.322ZM168.875 634.808C168.598 634.808 168.363 634.712 168.171 634.52C167.979 634.328 167.883 634.093 167.883 633.816C167.883 633.539 167.979 633.304 168.171 633.112C168.363 632.92 168.598 632.824 168.875 632.824C169.142 632.824 169.366 632.92 169.547 633.112C169.739 633.304 169.835 633.539 169.835 633.816C169.835 634.093 169.739 634.328 169.547 634.52C169.366 634.712 169.142 634.808 168.875 634.808ZM169.579 636.232V645H168.123V636.232H169.579ZM173.469 643.8H177.773V645H171.805V643.8L176.061 637.416H171.837V636.232H177.741V637.416L173.469 643.8ZM179.438 640.584C179.438 639.688 179.619 638.904 179.982 638.232C180.345 637.549 180.841 637.021 181.47 636.648C182.11 636.275 182.819 636.088 183.598 636.088C184.366 636.088 185.033 636.253 185.598 636.584C186.163 636.915 186.585 637.331 186.862 637.832V636.232H188.334V645H186.862V643.368C186.574 643.88 186.142 644.307 185.566 644.648C185.001 644.979 184.339 645.144 183.582 645.144C182.803 645.144 182.099 644.952 181.47 644.568C180.841 644.184 180.345 643.645 179.982 642.952C179.619 642.259 179.438 641.469 179.438 640.584ZM186.862 640.6C186.862 639.939 186.729 639.363 186.462 638.872C186.195 638.381 185.833 638.008 185.374 637.752C184.926 637.485 184.43 637.352 183.886 637.352C183.342 637.352 182.846 637.48 182.398 637.736C181.95 637.992 181.593 638.365 181.326 638.856C181.059 639.347 180.926 639.923 180.926 640.584C180.926 641.256 181.059 641.843 181.326 642.344C181.593 642.835 181.95 643.213 182.398 643.48C182.846 643.736 183.342 643.864 183.886 643.864C184.43 643.864 184.926 643.736 185.374 643.48C185.833 643.213 186.195 642.835 186.462 642.344C186.729 641.843 186.862 641.261 186.862 640.6ZM203.476 636.232V645H202.02V643.704C201.743 644.152 201.353 644.504 200.852 644.76C200.361 645.005 199.817 645.128 199.22 645.128C198.537 645.128 197.924 644.989 197.38 644.712C196.836 644.424 196.404 643.997 196.084 643.432C195.775 642.867 195.62 642.179 195.62 641.368V636.232H197.06V641.176C197.06 642.04 197.279 642.707 197.716 643.176C198.153 643.635 198.751 643.864 199.508 643.864C200.287 643.864 200.9 643.624 201.348 643.144C201.796 642.664 202.02 641.965 202.02 641.048V636.232H203.476ZM210.527 636.072C211.593 636.072 212.457 636.397 213.119 637.048C213.78 637.688 214.111 638.616 214.111 639.832V645H212.671V640.04C212.671 639.165 212.452 638.499 212.015 638.04C211.577 637.571 210.98 637.336 210.223 637.336C209.455 637.336 208.841 637.576 208.383 638.056C207.935 638.536 207.711 639.235 207.711 640.152V645H206.255V636.232H207.711V637.48C207.999 637.032 208.388 636.685 208.879 636.44C209.38 636.195 209.929 636.072 210.527 636.072ZM224.499 645.144C223.827 645.144 223.224 645.032 222.691 644.808C222.157 644.573 221.736 644.253 221.427 643.848C221.117 643.432 220.947 642.957 220.915 642.424H222.419C222.461 642.861 222.664 643.219 223.027 643.496C223.4 643.773 223.885 643.912 224.483 643.912C225.037 643.912 225.475 643.789 225.795 643.544C226.115 643.299 226.275 642.989 226.275 642.616C226.275 642.232 226.104 641.949 225.763 641.768C225.421 641.576 224.893 641.389 224.179 641.208C223.528 641.037 222.995 640.867 222.579 640.696C222.173 640.515 221.821 640.253 221.523 639.912C221.235 639.56 221.091 639.101 221.091 638.536C221.091 638.088 221.224 637.677 221.491 637.304C221.757 636.931 222.136 636.637 222.627 636.424C223.117 636.2 223.677 636.088 224.307 636.088C225.277 636.088 226.061 636.333 226.659 636.824C227.256 637.315 227.576 637.987 227.619 638.84H226.163C226.131 638.381 225.944 638.013 225.603 637.736C225.272 637.459 224.824 637.32 224.259 637.32C223.736 637.32 223.32 637.432 223.011 637.656C222.701 637.88 222.547 638.173 222.547 638.536C222.547 638.824 222.637 639.064 222.819 639.256C223.011 639.437 223.245 639.587 223.523 639.704C223.811 639.811 224.205 639.933 224.707 640.072C225.336 640.243 225.848 640.413 226.243 640.584C226.637 640.744 226.973 640.989 227.251 641.32C227.539 641.651 227.688 642.083 227.699 642.616C227.699 643.096 227.565 643.528 227.299 643.912C227.032 644.296 226.653 644.6 226.163 644.824C225.683 645.037 225.128 645.144 224.499 645.144ZM238.074 640.28C238.074 640.557 238.058 640.851 238.026 641.16H231.018C231.071 642.024 231.365 642.701 231.898 643.192C232.442 643.672 233.098 643.912 233.866 643.912C234.495 643.912 235.018 643.768 235.434 643.48C235.861 643.181 236.159 642.787 236.33 642.296H237.898C237.663 643.139 237.194 643.827 236.49 644.36C235.786 644.883 234.911 645.144 233.866 645.144C233.034 645.144 232.287 644.957 231.626 644.584C230.975 644.211 230.463 643.683 230.09 643C229.717 642.307 229.53 641.507 229.53 640.6C229.53 639.693 229.711 638.899 230.074 638.216C230.437 637.533 230.943 637.011 231.594 636.648C232.255 636.275 233.013 636.088 233.866 636.088C234.698 636.088 235.434 636.269 236.074 636.632C236.714 636.995 237.205 637.496 237.546 638.136C237.898 638.765 238.074 639.48 238.074 640.28ZM236.57 639.976C236.57 639.421 236.447 638.947 236.202 638.552C235.957 638.147 235.621 637.843 235.194 637.64C234.778 637.427 234.314 637.32 233.802 637.32C233.066 637.32 232.437 637.555 231.914 638.024C231.402 638.493 231.109 639.144 231.034 639.976H236.57ZM243.932 636.088C244.689 636.088 245.35 636.253 245.916 636.584C246.492 636.915 246.918 637.331 247.196 637.832V636.232H248.668V645.192C248.668 645.992 248.497 646.701 248.156 647.32C247.814 647.949 247.324 648.44 246.684 648.792C246.054 649.144 245.318 649.32 244.476 649.32C243.324 649.32 242.364 649.048 241.596 648.504C240.828 647.96 240.374 647.219 240.236 646.28H241.676C241.836 646.813 242.166 647.24 242.668 647.56C243.169 647.891 243.772 648.056 244.476 648.056C245.276 648.056 245.926 647.805 246.428 647.304C246.94 646.803 247.196 646.099 247.196 645.192V643.352C246.908 643.864 246.481 644.291 245.916 644.632C245.35 644.973 244.689 645.144 243.932 645.144C243.153 645.144 242.444 644.952 241.804 644.568C241.174 644.184 240.678 643.645 240.316 642.952C239.953 642.259 239.772 641.469 239.772 640.584C239.772 639.688 239.953 638.904 240.316 638.232C240.678 637.549 241.174 637.021 241.804 636.648C242.444 636.275 243.153 636.088 243.932 636.088ZM247.196 640.6C247.196 639.939 247.062 639.363 246.796 638.872C246.529 638.381 246.166 638.008 245.708 637.752C245.26 637.485 244.764 637.352 244.22 637.352C243.676 637.352 243.18 637.48 242.732 637.736C242.284 637.992 241.926 638.365 241.66 638.856C241.393 639.347 241.26 639.923 241.26 640.584C241.26 641.256 241.393 641.843 241.66 642.344C241.926 642.835 242.284 643.213 242.732 643.48C243.18 643.736 243.676 643.864 244.22 643.864C244.764 643.864 245.26 643.736 245.708 643.48C246.166 643.213 246.529 642.835 246.796 642.344C247.062 641.843 247.196 641.261 247.196 640.6ZM259.224 636.232V645H257.768V643.704C257.491 644.152 257.102 644.504 256.6 644.76C256.11 645.005 255.566 645.128 254.968 645.128C254.286 645.128 253.672 644.989 253.128 644.712C252.584 644.424 252.152 643.997 251.832 643.432C251.523 642.867 251.368 642.179 251.368 641.368V636.232H252.808V641.176C252.808 642.04 253.027 642.707 253.464 643.176C253.902 643.635 254.499 643.864 255.256 643.864C256.035 643.864 256.648 643.624 257.096 643.144C257.544 642.664 257.768 641.965 257.768 641.048V636.232H259.224ZM262.755 634.808C262.477 634.808 262.243 634.712 262.051 634.52C261.859 634.328 261.763 634.093 261.763 633.816C261.763 633.539 261.859 633.304 262.051 633.112C262.243 632.92 262.477 632.824 262.755 632.824C263.021 632.824 263.245 632.92 263.427 633.112C263.619 633.304 263.715 633.539 263.715 633.816C263.715 634.093 263.619 634.328 263.427 634.52C263.245 634.712 263.021 634.808 262.755 634.808ZM263.459 636.232V645H262.003V636.232H263.459ZM276.804 636.072C277.487 636.072 278.095 636.216 278.628 636.504C279.161 636.781 279.583 637.203 279.892 637.768C280.201 638.333 280.356 639.021 280.356 639.832V645H278.916V640.04C278.916 639.165 278.697 638.499 278.26 638.04C277.833 637.571 277.252 637.336 276.516 637.336C275.759 637.336 275.156 637.581 274.708 638.072C274.26 638.552 274.036 639.251 274.036 640.168V645H272.596V640.04C272.596 639.165 272.377 638.499 271.94 638.04C271.513 637.571 270.932 637.336 270.196 637.336C269.439 637.336 268.836 637.581 268.388 638.072C267.94 638.552 267.716 639.251 267.716 640.168V645H266.26V636.232H267.716V637.496C268.004 637.037 268.388 636.685 268.868 636.44C269.359 636.195 269.897 636.072 270.484 636.072C271.22 636.072 271.871 636.237 272.436 636.568C273.001 636.899 273.423 637.384 273.7 638.024C273.945 637.405 274.351 636.925 274.916 636.584C275.481 636.243 276.111 636.072 276.804 636.072ZM283.817 634.808C283.539 634.808 283.305 634.712 283.113 634.52C282.921 634.328 282.825 634.093 282.825 633.816C282.825 633.539 282.921 633.304 283.113 633.112C283.305 632.92 283.539 632.824 283.817 632.824C284.083 632.824 284.307 632.92 284.489 633.112C284.681 633.304 284.777 633.539 284.777 633.816C284.777 634.093 284.681 634.328 284.489 634.52C284.307 634.712 284.083 634.808 283.817 634.808ZM284.521 636.232V645H283.065V636.232H284.521ZM295.322 640.28C295.322 640.557 295.306 640.851 295.274 641.16H288.266C288.319 642.024 288.613 642.701 289.146 643.192C289.69 643.672 290.346 643.912 291.114 643.912C291.743 643.912 292.266 643.768 292.682 643.48C293.109 643.181 293.407 642.787 293.578 642.296H295.146C294.911 643.139 294.442 643.827 293.738 644.36C293.034 644.883 292.159 645.144 291.114 645.144C290.282 645.144 289.535 644.957 288.874 644.584C288.223 644.211 287.711 643.683 287.338 643C286.965 642.307 286.778 641.507 286.778 640.6C286.778 639.693 286.959 638.899 287.322 638.216C287.685 637.533 288.191 637.011 288.842 636.648C289.503 636.275 290.261 636.088 291.114 636.088C291.946 636.088 292.682 636.269 293.322 636.632C293.962 636.995 294.453 637.496 294.794 638.136C295.146 638.765 295.322 639.48 295.322 640.28ZM293.818 639.976C293.818 639.421 293.695 638.947 293.45 638.552C293.205 638.147 292.869 637.843 292.442 637.64C292.026 637.427 291.562 637.32 291.05 637.32C290.314 637.32 289.685 637.555 289.162 638.024C288.65 638.493 288.357 639.144 288.282 639.976H293.818ZM301.836 636.072C302.903 636.072 303.767 636.397 304.428 637.048C305.089 637.688 305.42 638.616 305.42 639.832V645H303.98V640.04C303.98 639.165 303.761 638.499 303.324 638.04C302.887 637.571 302.289 637.336 301.532 637.336C300.764 637.336 300.151 637.576 299.692 638.056C299.244 638.536 299.02 639.235 299.02 640.152V645H297.564V636.232H299.02V637.48C299.308 637.032 299.697 636.685 300.188 636.44C300.689 636.195 301.239 636.072 301.836 636.072ZM309.894 637.432V642.6C309.894 643.027 309.985 643.331 310.166 643.512C310.348 643.683 310.662 643.768 311.11 643.768H312.182V645H310.87C310.06 645 309.452 644.813 309.046 644.44C308.641 644.067 308.438 643.453 308.438 642.6V637.432H307.302V636.232H308.438V634.024H309.894V636.232H312.182V637.432H309.894ZM318.09 645.144C317.269 645.144 316.522 644.957 315.85 644.584C315.189 644.211 314.666 643.683 314.282 643C313.909 642.307 313.722 641.507 313.722 640.6C313.722 639.704 313.914 638.915 314.298 638.232C314.693 637.539 315.226 637.011 315.898 636.648C316.57 636.275 317.322 636.088 318.154 636.088C318.986 636.088 319.738 636.275 320.41 636.648C321.082 637.011 321.61 637.533 321.994 638.216C322.389 638.899 322.586 639.693 322.586 640.6C322.586 641.507 322.384 642.307 321.978 643C321.584 643.683 321.045 644.211 320.362 644.584C319.68 644.957 318.922 645.144 318.09 645.144ZM318.09 643.864C318.613 643.864 319.104 643.741 319.562 643.496C320.021 643.251 320.389 642.883 320.666 642.392C320.954 641.901 321.098 641.304 321.098 640.6C321.098 639.896 320.96 639.299 320.682 638.808C320.405 638.317 320.042 637.955 319.594 637.72C319.146 637.475 318.661 637.352 318.138 637.352C317.605 637.352 317.114 637.475 316.666 637.72C316.229 637.955 315.877 638.317 315.61 638.808C315.344 639.299 315.21 639.896 315.21 640.6C315.21 641.315 315.338 641.917 315.594 642.408C315.861 642.899 316.213 643.267 316.65 643.512C317.088 643.747 317.568 643.864 318.09 643.864ZM76.9071 661.848C77.1951 661.347 77.6217 660.931 78.1871 660.6C78.7631 660.259 79.4297 660.088 80.1871 660.088C80.9657 660.088 81.6697 660.275 82.2991 660.648C82.9391 661.021 83.4404 661.549 83.8031 662.232C84.1657 662.904 84.3471 663.688 84.3471 664.584C84.3471 665.469 84.1657 666.259 83.8031 666.952C83.4404 667.645 82.9391 668.184 82.2991 668.568C81.6697 668.952 80.9657 669.144 80.1871 669.144C79.4404 669.144 78.7791 668.979 78.2031 668.648C77.6377 668.307 77.2057 667.885 76.9071 667.384V673.16H75.4511V660.232H76.9071V661.848ZM82.8591 664.584C82.8591 663.923 82.7257 663.347 82.4591 662.856C82.1924 662.365 81.8297 661.992 81.3711 661.736C80.9231 661.48 80.4271 661.352 79.8831 661.352C79.3497 661.352 78.8537 661.485 78.3951 661.752C77.9471 662.008 77.5844 662.387 77.3071 662.888C77.0404 663.379 76.9071 663.949 76.9071 664.6C76.9071 665.261 77.0404 665.843 77.3071 666.344C77.5844 666.835 77.9471 667.213 78.3951 667.48C78.8537 667.736 79.3497 667.864 79.8831 667.864C80.4271 667.864 80.9231 667.736 81.3711 667.48C81.8297 667.213 82.1924 666.835 82.4591 666.344C82.7257 665.843 82.8591 665.256 82.8591 664.584ZM88.0396 661.656C88.2956 661.155 88.6582 660.765 89.1276 660.488C89.6076 660.211 90.1889 660.072 90.8716 660.072V661.576H90.4876C88.8556 661.576 88.0396 662.461 88.0396 664.232V669H86.5836V660.232H88.0396V661.656ZM100.872 664.28C100.872 664.557 100.856 664.851 100.824 665.16H93.8163C93.8696 666.024 94.163 666.701 94.6963 667.192C95.2403 667.672 95.8963 667.912 96.6643 667.912C97.2936 667.912 97.8163 667.768 98.2323 667.48C98.659 667.181 98.9576 666.787 99.1283 666.296H100.696C100.462 667.139 99.9923 667.827 99.2883 668.36C98.5843 668.883 97.7096 669.144 96.6643 669.144C95.8323 669.144 95.0856 668.957 94.4243 668.584C93.7736 668.211 93.2616 667.683 92.8883 667C92.515 666.307 92.3283 665.507 92.3283 664.6C92.3283 663.693 92.5096 662.899 92.8723 662.216C93.235 661.533 93.7416 661.011 94.3923 660.648C95.0536 660.275 95.811 660.088 96.6643 660.088C97.4963 660.088 98.2323 660.269 98.8723 660.632C99.5123 660.995 100.003 661.496 100.344 662.136C100.696 662.765 100.872 663.48 100.872 664.28ZM99.3683 663.976C99.3683 663.421 99.2456 662.947 99.0003 662.552C98.755 662.147 98.419 661.843 97.9923 661.64C97.5763 661.427 97.1123 661.32 96.6003 661.32C95.8643 661.32 95.235 661.555 94.7123 662.024C94.2003 662.493 93.907 663.144 93.8323 663.976H99.3683ZM102.57 664.6C102.57 663.693 102.752 662.904 103.114 662.232C103.477 661.549 103.978 661.021 104.618 660.648C105.269 660.275 106.01 660.088 106.842 660.088C107.92 660.088 108.805 660.349 109.498 660.872C110.202 661.395 110.666 662.12 110.89 663.048H109.322C109.173 662.515 108.88 662.093 108.442 661.784C108.016 661.475 107.482 661.32 106.842 661.32C106.01 661.32 105.338 661.608 104.826 662.184C104.314 662.749 104.058 663.555 104.058 664.6C104.058 665.656 104.314 666.472 104.826 667.048C105.338 667.624 106.01 667.912 106.842 667.912C107.482 667.912 108.016 667.763 108.442 667.464C108.869 667.165 109.162 666.739 109.322 666.184H110.89C110.656 667.08 110.186 667.8 109.482 668.344C108.778 668.877 107.898 669.144 106.842 669.144C106.01 669.144 105.269 668.957 104.618 668.584C103.978 668.211 103.477 667.683 103.114 667C102.752 666.317 102.57 665.517 102.57 664.6ZM113.905 658.808C113.628 658.808 113.393 658.712 113.201 658.52C113.009 658.328 112.913 658.093 112.913 657.816C112.913 657.539 113.009 657.304 113.201 657.112C113.393 656.92 113.628 656.824 113.905 656.824C114.172 656.824 114.396 656.92 114.577 657.112C114.769 657.304 114.865 657.539 114.865 657.816C114.865 658.093 114.769 658.328 114.577 658.52C114.396 658.712 114.172 658.808 113.905 658.808ZM114.609 660.232V669H113.153V660.232H114.609ZM120.514 669.144C119.842 669.144 119.24 669.032 118.706 668.808C118.173 668.573 117.752 668.253 117.442 667.848C117.133 667.432 116.962 666.957 116.93 666.424H118.434C118.477 666.861 118.68 667.219 119.042 667.496C119.416 667.773 119.901 667.912 120.498 667.912C121.053 667.912 121.49 667.789 121.81 667.544C122.13 667.299 122.29 666.989 122.29 666.616C122.29 666.232 122.12 665.949 121.778 665.768C121.437 665.576 120.909 665.389 120.194 665.208C119.544 665.037 119.01 664.867 118.594 664.696C118.189 664.515 117.837 664.253 117.538 663.912C117.25 663.56 117.106 663.101 117.106 662.536C117.106 662.088 117.24 661.677 117.506 661.304C117.773 660.931 118.152 660.637 118.642 660.424C119.133 660.2 119.693 660.088 120.322 660.088C121.293 660.088 122.077 660.333 122.674 660.824C123.272 661.315 123.592 661.987 123.634 662.84H122.178C122.146 662.381 121.96 662.013 121.618 661.736C121.288 661.459 120.84 661.32 120.274 661.32C119.752 661.32 119.336 661.432 119.026 661.656C118.717 661.88 118.562 662.173 118.562 662.536C118.562 662.824 118.653 663.064 118.834 663.256C119.026 663.437 119.261 663.587 119.538 663.704C119.826 663.811 120.221 663.933 120.722 664.072C121.352 664.243 121.864 664.413 122.258 664.584C122.653 664.744 122.989 664.989 123.266 665.32C123.554 665.651 123.704 666.083 123.714 666.616C123.714 667.096 123.581 667.528 123.314 667.912C123.048 668.296 122.669 668.6 122.178 668.824C121.698 669.037 121.144 669.144 120.514 669.144ZM129.914 669.144C129.092 669.144 128.346 668.957 127.674 668.584C127.012 668.211 126.49 667.683 126.106 667C125.732 666.307 125.546 665.507 125.546 664.6C125.546 663.704 125.738 662.915 126.122 662.232C126.516 661.539 127.05 661.011 127.722 660.648C128.394 660.275 129.146 660.088 129.978 660.088C130.81 660.088 131.562 660.275 132.234 660.648C132.906 661.011 133.434 661.533 133.818 662.216C134.212 662.899 134.41 663.693 134.41 664.6C134.41 665.507 134.207 666.307 133.802 667C133.407 667.683 132.868 668.211 132.186 668.584C131.503 668.957 130.746 669.144 129.914 669.144ZM129.914 667.864C130.436 667.864 130.927 667.741 131.386 667.496C131.844 667.251 132.212 666.883 132.49 666.392C132.778 665.901 132.922 665.304 132.922 664.6C132.922 663.896 132.783 663.299 132.506 662.808C132.228 662.317 131.866 661.955 131.418 661.72C130.97 661.475 130.484 661.352 129.962 661.352C129.428 661.352 128.938 661.475 128.49 661.72C128.052 661.955 127.7 662.317 127.434 662.808C127.167 663.299 127.034 663.896 127.034 664.6C127.034 665.315 127.162 665.917 127.418 666.408C127.684 666.899 128.036 667.267 128.474 667.512C128.911 667.747 129.391 667.864 129.914 667.864ZM140.686 664.584C140.686 663.688 140.867 662.904 141.23 662.232C141.592 661.549 142.088 661.021 142.718 660.648C143.358 660.275 144.072 660.088 144.862 660.088C145.544 660.088 146.179 660.248 146.766 660.568C147.352 660.877 147.8 661.288 148.11 661.8V657.16H149.582V669H148.11V667.352C147.822 667.875 147.395 668.307 146.83 668.648C146.264 668.979 145.603 669.144 144.846 669.144C144.067 669.144 143.358 668.952 142.718 668.568C142.088 668.184 141.592 667.645 141.23 666.952C140.867 666.259 140.686 665.469 140.686 664.584ZM148.11 664.6C148.11 663.939 147.976 663.363 147.71 662.872C147.443 662.381 147.08 662.008 146.622 661.752C146.174 661.485 145.678 661.352 145.134 661.352C144.59 661.352 144.094 661.48 143.646 661.736C143.198 661.992 142.84 662.365 142.574 662.856C142.307 663.347 142.174 663.923 142.174 664.584C142.174 665.256 142.307 665.843 142.574 666.344C142.84 666.835 143.198 667.213 143.646 667.48C144.094 667.736 144.59 667.864 145.134 667.864C145.678 667.864 146.174 667.736 146.622 667.48C147.08 667.213 147.443 666.835 147.71 666.344C147.976 665.843 148.11 665.261 148.11 664.6ZM160.362 664.28C160.362 664.557 160.346 664.851 160.314 665.16H153.306C153.36 666.024 153.653 666.701 154.186 667.192C154.73 667.672 155.386 667.912 156.154 667.912C156.784 667.912 157.306 667.768 157.722 667.48C158.149 667.181 158.448 666.787 158.618 666.296H160.186C159.952 667.139 159.482 667.827 158.778 668.36C158.074 668.883 157.2 669.144 156.154 669.144C155.322 669.144 154.576 668.957 153.914 668.584C153.264 668.211 152.752 667.683 152.378 667C152.005 666.307 151.818 665.507 151.818 664.6C151.818 663.693 152 662.899 152.362 662.216C152.725 661.533 153.232 661.011 153.882 660.648C154.544 660.275 155.301 660.088 156.154 660.088C156.986 660.088 157.722 660.269 158.362 660.632C159.002 660.995 159.493 661.496 159.834 662.136C160.186 662.765 160.362 663.48 160.362 664.28ZM158.858 663.976C158.858 663.421 158.736 662.947 158.49 662.552C158.245 662.147 157.909 661.843 157.482 661.64C157.066 661.427 156.602 661.32 156.09 661.32C155.354 661.32 154.725 661.555 154.202 662.024C153.69 662.493 153.397 663.144 153.322 663.976H158.858ZM168.966 661.432V666.6C168.966 667.027 169.056 667.331 169.238 667.512C169.419 667.683 169.734 667.768 170.182 667.768H171.254V669H169.942C169.131 669 168.523 668.813 168.118 668.44C167.712 668.067 167.51 667.453 167.51 666.6V661.432H166.374V660.232H167.51V658.024H168.966V660.232H171.254V661.432H168.966ZM181.114 660.232V669H179.658V667.704C179.381 668.152 178.991 668.504 178.49 668.76C177.999 669.005 177.455 669.128 176.858 669.128C176.175 669.128 175.562 668.989 175.018 668.712C174.474 668.424 174.042 667.997 173.722 667.432C173.413 666.867 173.258 666.179 173.258 665.368V660.232H174.698V665.176C174.698 666.04 174.917 666.707 175.354 667.176C175.791 667.635 176.389 667.864 177.146 667.864C177.925 667.864 178.538 667.624 178.986 667.144C179.434 666.664 179.658 665.965 179.658 665.048V660.232H181.114ZM189.23 658.808C188.953 658.808 188.718 658.712 188.526 658.52C188.334 658.328 188.238 658.093 188.238 657.816C188.238 657.539 188.334 657.304 188.526 657.112C188.718 656.92 188.953 656.824 189.23 656.824C189.497 656.824 189.721 656.92 189.902 657.112C190.094 657.304 190.19 657.539 190.19 657.816C190.19 658.093 190.094 658.328 189.902 658.52C189.721 658.712 189.497 658.808 189.23 658.808ZM189.934 660.232V669H188.478V660.232H189.934ZM203.279 660.072C203.962 660.072 204.57 660.216 205.103 660.504C205.637 660.781 206.058 661.203 206.367 661.768C206.677 662.333 206.831 663.021 206.831 663.832V669H205.391V664.04C205.391 663.165 205.173 662.499 204.735 662.04C204.309 661.571 203.727 661.336 202.991 661.336C202.234 661.336 201.631 661.581 201.183 662.072C200.735 662.552 200.511 663.251 200.511 664.168V669H199.071V664.04C199.071 663.165 198.853 662.499 198.415 662.04C197.989 661.571 197.407 661.336 196.671 661.336C195.914 661.336 195.311 661.581 194.863 662.072C194.415 662.552 194.191 663.251 194.191 664.168V669H192.735V660.232H194.191V661.496C194.479 661.037 194.863 660.685 195.343 660.44C195.834 660.195 196.373 660.072 196.959 660.072C197.695 660.072 198.346 660.237 198.911 660.568C199.477 660.899 199.898 661.384 200.175 662.024C200.421 661.405 200.826 660.925 201.391 660.584C201.957 660.243 202.586 660.072 203.279 660.072ZM210.996 661.848C211.284 661.347 211.71 660.931 212.276 660.6C212.852 660.259 213.518 660.088 214.276 660.088C215.054 660.088 215.758 660.275 216.388 660.648C217.028 661.021 217.529 661.549 217.892 662.232C218.254 662.904 218.436 663.688 218.436 664.584C218.436 665.469 218.254 666.259 217.892 666.952C217.529 667.645 217.028 668.184 216.388 668.568C215.758 668.952 215.054 669.144 214.276 669.144C213.529 669.144 212.868 668.979 212.292 668.648C211.726 668.307 211.294 667.885 210.996 667.384V673.16H209.54V660.232H210.996V661.848ZM216.948 664.584C216.948 663.923 216.814 663.347 216.548 662.856C216.281 662.365 215.918 661.992 215.46 661.736C215.012 661.48 214.516 661.352 213.972 661.352C213.438 661.352 212.942 661.485 212.484 661.752C212.036 662.008 211.673 662.387 211.396 662.888C211.129 663.379 210.996 663.949 210.996 664.6C210.996 665.261 211.129 665.843 211.396 666.344C211.673 666.835 212.036 667.213 212.484 667.48C212.942 667.736 213.438 667.864 213.972 667.864C214.516 667.864 215.012 667.736 215.46 667.48C215.918 667.213 216.281 666.835 216.548 666.344C216.814 665.843 216.948 665.256 216.948 664.584ZM220.128 664.584C220.128 663.688 220.31 662.904 220.672 662.232C221.035 661.549 221.531 661.021 222.16 660.648C222.8 660.275 223.51 660.088 224.288 660.088C225.056 660.088 225.723 660.253 226.288 660.584C226.854 660.915 227.275 661.331 227.552 661.832V660.232H229.024V669H227.552V667.368C227.264 667.88 226.832 668.307 226.256 668.648C225.691 668.979 225.03 669.144 224.272 669.144C223.494 669.144 222.79 668.952 222.16 668.568C221.531 668.184 221.035 667.645 220.672 666.952C220.31 666.259 220.128 665.469 220.128 664.584ZM227.552 664.6C227.552 663.939 227.419 663.363 227.152 662.872C226.886 662.381 226.523 662.008 226.064 661.752C225.616 661.485 225.12 661.352 224.576 661.352C224.032 661.352 223.536 661.48 223.088 661.736C222.64 661.992 222.283 662.365 222.016 662.856C221.75 663.347 221.616 663.923 221.616 664.584C221.616 665.256 221.75 665.843 222.016 666.344C222.283 666.835 222.64 667.213 223.088 667.48C223.536 667.736 224.032 667.864 224.576 667.864C225.12 667.864 225.616 667.736 226.064 667.48C226.523 667.213 226.886 666.835 227.152 666.344C227.419 665.843 227.552 665.261 227.552 664.6ZM231.261 664.6C231.261 663.693 231.442 662.904 231.805 662.232C232.167 661.549 232.669 661.021 233.309 660.648C233.959 660.275 234.701 660.088 235.533 660.088C236.61 660.088 237.495 660.349 238.189 660.872C238.893 661.395 239.357 662.12 239.581 663.048H238.013C237.863 662.515 237.57 662.093 237.133 661.784C236.706 661.475 236.173 661.32 235.533 661.32C234.701 661.32 234.029 661.608 233.517 662.184C233.005 662.749 232.749 663.555 232.749 664.6C232.749 665.656 233.005 666.472 233.517 667.048C234.029 667.624 234.701 667.912 235.533 667.912C236.173 667.912 236.706 667.763 237.133 667.464C237.559 667.165 237.853 666.739 238.013 666.184H239.581C239.346 667.08 238.877 667.8 238.173 668.344C237.469 668.877 236.589 669.144 235.533 669.144C234.701 669.144 233.959 668.957 233.309 668.584C232.669 668.211 232.167 667.683 231.805 667C231.442 666.317 231.261 665.517 231.261 664.6ZM243.62 661.432V666.6C243.62 667.027 243.71 667.331 243.892 667.512C244.073 667.683 244.388 667.768 244.836 667.768H245.908V669H244.596C243.785 669 243.177 668.813 242.772 668.44C242.366 668.067 242.164 667.453 242.164 666.6V661.432H241.028V660.232H242.164V658.024H243.62V660.232H245.908V661.432H243.62ZM251.816 669.144C250.994 669.144 250.248 668.957 249.576 668.584C248.914 668.211 248.392 667.683 248.008 667C247.634 666.307 247.448 665.507 247.448 664.6C247.448 663.704 247.64 662.915 248.024 662.232C248.418 661.539 248.952 661.011 249.624 660.648C250.296 660.275 251.048 660.088 251.88 660.088C252.712 660.088 253.464 660.275 254.136 660.648C254.808 661.011 255.336 661.533 255.72 662.216C256.114 662.899 256.312 663.693 256.312 664.6C256.312 665.507 256.109 666.307 255.704 667C255.309 667.683 254.77 668.211 254.088 668.584C253.405 668.957 252.648 669.144 251.816 669.144ZM251.816 667.864C252.338 667.864 252.829 667.741 253.288 667.496C253.746 667.251 254.114 666.883 254.392 666.392C254.68 665.901 254.824 665.304 254.824 664.6C254.824 663.896 254.685 663.299 254.408 662.808C254.13 662.317 253.768 661.955 253.32 661.72C252.872 661.475 252.386 661.352 251.864 661.352C251.33 661.352 250.84 661.475 250.392 661.72C249.954 661.955 249.602 662.317 249.336 662.808C249.069 663.299 248.936 663.896 248.936 664.6C248.936 665.315 249.064 665.917 249.32 666.408C249.586 666.899 249.938 667.267 250.376 667.512C250.813 667.747 251.293 667.864 251.816 667.864ZM271.132 664.28C271.132 664.557 271.116 664.851 271.084 665.16H264.076C264.129 666.024 264.422 666.701 264.956 667.192C265.5 667.672 266.156 667.912 266.924 667.912C267.553 667.912 268.076 667.768 268.492 667.48C268.918 667.181 269.217 666.787 269.388 666.296H270.956C270.721 667.139 270.252 667.827 269.548 668.36C268.844 668.883 267.969 669.144 266.924 669.144C266.092 669.144 265.345 668.957 264.684 668.584C264.033 668.211 263.521 667.683 263.148 667C262.774 666.307 262.588 665.507 262.588 664.6C262.588 663.693 262.769 662.899 263.132 662.216C263.494 661.533 264.001 661.011 264.652 660.648C265.313 660.275 266.07 660.088 266.924 660.088C267.756 660.088 268.492 660.269 269.132 660.632C269.772 660.995 270.262 661.496 270.604 662.136C270.956 662.765 271.132 663.48 271.132 664.28ZM269.628 663.976C269.628 663.421 269.505 662.947 269.26 662.552C269.014 662.147 268.678 661.843 268.252 661.64C267.836 661.427 267.372 661.32 266.86 661.32C266.124 661.32 265.494 661.555 264.972 662.024C264.46 662.493 264.166 663.144 264.092 663.976H269.628ZM277.646 660.072C278.712 660.072 279.576 660.397 280.238 661.048C280.899 661.688 281.23 662.616 281.23 663.832V669H279.79V664.04C279.79 663.165 279.571 662.499 279.134 662.04C278.696 661.571 278.099 661.336 277.342 661.336C276.574 661.336 275.96 661.576 275.502 662.056C275.054 662.536 274.83 663.235 274.83 664.152V669H273.374V660.232H274.83V661.48C275.118 661.032 275.507 660.685 275.998 660.44C276.499 660.195 277.048 660.072 277.646 660.072ZM296.514 664.28C296.514 664.557 296.498 664.851 296.466 665.16H289.458C289.511 666.024 289.804 666.701 290.338 667.192C290.882 667.672 291.538 667.912 292.306 667.912C292.935 667.912 293.458 667.768 293.874 667.48C294.3 667.181 294.599 666.787 294.77 666.296H296.338C296.103 667.139 295.634 667.827 294.93 668.36C294.226 668.883 293.351 669.144 292.306 669.144C291.474 669.144 290.727 668.957 290.066 668.584C289.415 668.211 288.903 667.683 288.53 667C288.156 666.307 287.97 665.507 287.97 664.6C287.97 663.693 288.151 662.899 288.514 662.216C288.876 661.533 289.383 661.011 290.034 660.648C290.695 660.275 291.452 660.088 292.306 660.088C293.138 660.088 293.874 660.269 294.514 660.632C295.154 660.995 295.644 661.496 295.986 662.136C296.338 662.765 296.514 663.48 296.514 664.28ZM295.01 663.976C295.01 663.421 294.887 662.947 294.642 662.552C294.396 662.147 294.06 661.843 293.634 661.64C293.218 661.427 292.754 661.32 292.242 661.32C291.506 661.32 290.876 661.555 290.354 662.024C289.842 662.493 289.548 663.144 289.474 663.976H295.01ZM300.211 657.16V669H298.755V657.16H300.211ZM158.548 685.848C158.836 685.347 159.263 684.931 159.828 684.6C160.404 684.259 161.071 684.088 161.828 684.088C162.607 684.088 163.311 684.275 163.94 684.648C164.58 685.021 165.082 685.549 165.444 686.232C165.807 686.904 165.988 687.688 165.988 688.584C165.988 689.469 165.807 690.259 165.444 690.952C165.082 691.645 164.58 692.184 163.94 692.568C163.311 692.952 162.607 693.144 161.828 693.144C161.082 693.144 160.42 692.979 159.844 692.648C159.279 692.307 158.847 691.885 158.548 691.384V697.16H157.092V684.232H158.548V685.848ZM164.5 688.584C164.5 687.923 164.367 687.347 164.1 686.856C163.834 686.365 163.471 685.992 163.012 685.736C162.564 685.48 162.068 685.352 161.524 685.352C160.991 685.352 160.495 685.485 160.036 685.752C159.588 686.008 159.226 686.387 158.948 686.888C158.682 687.379 158.548 687.949 158.548 688.6C158.548 689.261 158.682 689.843 158.948 690.344C159.226 690.835 159.588 691.213 160.036 691.48C160.495 691.736 160.991 691.864 161.524 691.864C162.068 691.864 162.564 691.736 163.012 691.48C163.471 691.213 163.834 690.835 164.1 690.344C164.367 689.843 164.5 689.256 164.5 688.584ZM169.681 681.16V693H168.225V681.16H169.681ZM171.938 688.584C171.938 687.688 172.12 686.904 172.482 686.232C172.845 685.549 173.341 685.021 173.97 684.648C174.61 684.275 175.32 684.088 176.098 684.088C176.866 684.088 177.533 684.253 178.098 684.584C178.664 684.915 179.085 685.331 179.362 685.832V684.232H180.834V693H179.362V691.368C179.074 691.88 178.642 692.307 178.066 692.648C177.501 692.979 176.84 693.144 176.082 693.144C175.304 693.144 174.6 692.952 173.97 692.568C173.341 692.184 172.845 691.645 172.482 690.952C172.12 690.259 171.938 689.469 171.938 688.584ZM179.362 688.6C179.362 687.939 179.229 687.363 178.962 686.872C178.696 686.381 178.333 686.008 177.874 685.752C177.426 685.485 176.93 685.352 176.386 685.352C175.842 685.352 175.346 685.48 174.898 685.736C174.45 685.992 174.093 686.365 173.826 686.856C173.56 687.347 173.426 687.923 173.426 688.584C173.426 689.256 173.56 689.843 173.826 690.344C174.093 690.835 174.45 691.213 174.898 691.48C175.346 691.736 175.842 691.864 176.386 691.864C176.93 691.864 177.426 691.736 177.874 691.48C178.333 691.213 178.696 690.835 178.962 690.344C179.229 689.843 179.362 689.261 179.362 688.6ZM187.887 684.072C188.953 684.072 189.817 684.397 190.479 685.048C191.14 685.688 191.471 686.616 191.471 687.832V693H190.031V688.04C190.031 687.165 189.812 686.499 189.375 686.04C188.937 685.571 188.34 685.336 187.583 685.336C186.815 685.336 186.201 685.576 185.743 686.056C185.295 686.536 185.071 687.235 185.071 688.152V693H183.615V684.232H185.071V685.48C185.359 685.032 185.748 684.685 186.239 684.44C186.74 684.195 187.289 684.072 187.887 684.072ZM202.169 688.28C202.169 688.557 202.153 688.851 202.121 689.16H195.113C195.167 690.024 195.46 690.701 195.993 691.192C196.537 691.672 197.193 691.912 197.961 691.912C198.591 691.912 199.113 691.768 199.529 691.48C199.956 691.181 200.255 690.787 200.425 690.296H201.993C201.759 691.139 201.289 691.827 200.585 692.36C199.881 692.883 199.007 693.144 197.961 693.144C197.129 693.144 196.383 692.957 195.721 692.584C195.071 692.211 194.559 691.683 194.185 691C193.812 690.307 193.625 689.507 193.625 688.6C193.625 687.693 193.807 686.899 194.169 686.216C194.532 685.533 195.039 685.011 195.689 684.648C196.351 684.275 197.108 684.088 197.961 684.088C198.793 684.088 199.529 684.269 200.169 684.632C200.809 684.995 201.3 685.496 201.641 686.136C201.993 686.765 202.169 687.48 202.169 688.28ZM200.665 687.976C200.665 687.421 200.543 686.947 200.297 686.552C200.052 686.147 199.716 685.843 199.289 685.64C198.873 685.427 198.409 685.32 197.897 685.32C197.161 685.32 196.532 685.555 196.009 686.024C195.497 686.493 195.204 687.144 195.129 687.976H200.665ZM206.187 685.432V690.6C206.187 691.027 206.278 691.331 206.459 691.512C206.64 691.683 206.955 691.768 207.403 691.768H208.475V693H207.163C206.352 693 205.744 692.813 205.339 692.44C204.934 692.067 204.731 691.453 204.731 690.6V685.432H203.595V684.232H204.731V682.024H206.187V684.232H208.475V685.432H206.187ZM210.015 688.584C210.015 687.688 210.197 686.904 210.559 686.232C210.922 685.549 211.418 685.021 212.047 684.648C212.687 684.275 213.397 684.088 214.175 684.088C214.943 684.088 215.61 684.253 216.175 684.584C216.741 684.915 217.162 685.331 217.439 685.832V684.232H218.911V693H217.439V691.368C217.151 691.88 216.719 692.307 216.143 692.648C215.578 692.979 214.917 693.144 214.159 693.144C213.381 693.144 212.677 692.952 212.047 692.568C211.418 692.184 210.922 691.645 210.559 690.952C210.197 690.259 210.015 689.469 210.015 688.584ZM217.439 688.6C217.439 687.939 217.306 687.363 217.039 686.872C216.773 686.381 216.41 686.008 215.951 685.752C215.503 685.485 215.007 685.352 214.463 685.352C213.919 685.352 213.423 685.48 212.975 685.736C212.527 685.992 212.17 686.365 211.903 686.856C211.637 687.347 211.503 687.923 211.503 688.584C211.503 689.256 211.637 689.843 211.903 690.344C212.17 690.835 212.527 691.213 212.975 691.48C213.423 691.736 213.919 691.864 214.463 691.864C215.007 691.864 215.503 691.736 215.951 691.48C216.41 691.213 216.773 690.835 217.039 690.344C217.306 689.843 217.439 689.261 217.439 688.6Z" fill="#776557"/>
</g>
<defs>
<clipPath id="clip0_352:7779">
<rect width="375" height="812" fill="white"/>
</clipPath>
</defs>
</svg>
