<svg width="375" height="812" viewBox="0 0 375 812" fill="none" xmlns="http://www.w3.org/2000/svg">
<g clip-path="url(#clip0_399:2885)">
<rect width="375" height="812" fill="#F7FBEE"/>
<rect y="-4" width="375" height="816" fill="#F7FBEE"/>
<path d="M487.022 455.684C697.079 455.684 867.364 453.048 867.364 449.797C867.364 446.546 697.079 443.91 487.022 443.91C276.965 443.91 106.68 446.546 106.68 449.797C106.68 453.048 276.965 455.684 487.022 455.684Z" fill="#E5F1EF"/>
<path d="M68.0675 404.237C75.4084 388.157 80.4634 375.777 98.7342 375.347C131.649 374.57 127.301 404.109 139.258 402.136C151.215 400.162 135.663 341.456 194.122 336.177C247.544 331.345 246.881 385.64 262.962 385.292C271.692 385.102 276.176 356.718 303.697 363.596C327.525 369.55 317.862 406.749 344.99 398.423C372.118 390.097 367.649 408.843 367.649 408.843C420.476 393.062 422.206 416.319 422.206 416.319H3.50073C3.50073 416.319 41.4477 383.393 68.0675 404.237Z" fill="#C8D9D2"/>
<path d="M350.52 129.349H305.209C305.209 129.349 329.051 119.388 336.3 119.388C343.549 119.388 349.533 122.813 350.52 129.349Z" fill="#E5F1EF"/>
<path d="M143.924 109.36C143.355 104.512 141.244 99.9749 137.899 96.4153C134.555 92.8557 130.155 90.4619 125.346 89.586C130.717 74.1661 146.497 63 165.125 63C188.189 63 206.887 80.124 206.887 101.232C206.887 101.232 193.338 105.762 192.539 118.494C192.945 117.467 197.592 107.111 209.61 106.157C218.739 105.43 229.284 111.605 230.524 120.695C230.524 120.695 280.014 107.295 280.3 129.349H70.908C70.908 129.251 70.908 129.153 70.908 129.055C70.908 121.021 78.4769 114.512 87.8109 114.512C91.1493 114.494 94.4321 115.365 97.3207 117.037C98.0213 104.507 108.964 94.506 122.361 94.5499C137.593 94.6 143.924 109.36 143.924 109.36Z" fill="#E5F1EF"/>
<path d="M145.478 86.7019C148.236 86.7019 150.472 84.4693 150.472 81.7151C150.472 78.961 148.236 76.7283 145.478 76.7283C142.72 76.7283 140.484 78.961 140.484 81.7151C140.484 84.4693 142.72 86.7019 145.478 86.7019Z" fill="white"/>
<path d="M185.115 446.721C219.641 446.721 247.63 418.774 247.63 384.3C247.63 349.826 219.641 321.879 185.115 321.879C150.589 321.879 122.6 349.826 122.6 384.3C122.6 418.774 150.589 446.721 185.115 446.721Z" stroke="#423C52" stroke-width="5" stroke-miterlimit="10" stroke-linecap="round"/>
<path d="M148.059 443.601C128.838 432.5 115.907 411.751 115.907 387.986" stroke="#423C52" stroke-width="5" stroke-miterlimit="10" stroke-linecap="round"/>
<path d="M379.422 446.721C413.948 446.721 441.937 418.774 441.937 384.3C441.937 349.826 413.948 321.879 379.422 321.879C344.896 321.879 316.907 349.826 316.907 384.3C316.907 418.774 344.896 446.721 379.422 446.721Z" stroke="#423C52" stroke-width="5" stroke-miterlimit="10" stroke-linecap="round"/>
<path d="M379.421 384.3L342.963 274.335C342.732 273.636 342.67 272.892 342.782 272.164C342.894 271.436 343.178 270.746 343.61 270.149C344.042 269.552 344.609 269.066 345.266 268.731C345.923 268.395 346.649 268.221 347.387 268.22H381.452C383.654 268.22 385.835 268.654 387.869 269.495C389.903 270.337 391.752 271.57 393.309 273.125C394.866 274.68 396.101 276.525 396.943 278.557C397.786 280.588 398.219 282.766 398.219 284.964C398.219 289.405 396.452 293.663 393.307 296.803C390.162 299.942 385.897 301.706 381.45 301.706H375.454C374.491 301.707 373.544 301.471 372.694 301.02C371.844 300.569 371.118 299.916 370.581 299.119" stroke="#423C52" stroke-width="5" stroke-miterlimit="10" stroke-linecap="round"/>
<path d="M379.355 387.059C380.79 387.059 381.954 385.896 381.954 384.463C381.954 383.029 380.79 381.867 379.355 381.867C377.919 381.867 376.755 383.029 376.755 384.463C376.755 385.896 377.919 387.059 379.355 387.059Z" fill="white" stroke="#423C52" stroke-width="5" stroke-miterlimit="10" stroke-linecap="round"/>
<path d="M227.91 315.186L184.962 384.29H295.86L329.474 330.203C332.328 325.611 336.309 321.821 341.039 319.193C345.769 316.566 351.093 315.186 356.506 315.186H227.91Z" stroke="#423C52" stroke-width="5" stroke-miterlimit="10" stroke-linecap="round"/>
<path d="M346.103 283.248C348.957 278.655 352.938 274.866 357.668 272.238C362.398 269.61 367.722 268.231 373.135 268.231" stroke="#423C52" stroke-width="5" stroke-miterlimit="10" stroke-linecap="round"/>
<path d="M280.664 408.161H248.803V412.874H280.664V408.161Z" stroke="#423C52" stroke-width="5" stroke-miterlimit="10" stroke-linecap="round"/>
<path d="M245.131 296.479H210.449C208.709 296.479 207.299 297.887 207.299 299.624V300.226C207.299 301.963 208.709 303.371 210.449 303.371H245.131C246.87 303.371 248.28 301.963 248.28 300.226V299.624C248.28 297.887 246.87 296.479 245.131 296.479Z" stroke="#423C52" stroke-width="5" stroke-miterlimit="10" stroke-linecap="round"/>
<path d="M227.788 315.186V303.37" stroke="#423C52" stroke-width="5" stroke-miterlimit="10" stroke-linecap="round"/>
<path d="M184.962 386.885C186.398 386.885 187.562 385.723 187.562 384.29C187.562 382.856 186.398 381.694 184.962 381.694C183.526 381.694 182.363 382.856 182.363 384.29C182.363 385.723 183.526 386.885 184.962 386.885Z" fill="white" stroke="#423C52" stroke-width="5" stroke-miterlimit="10" stroke-linecap="round"/>
<path d="M279.745 384.289H244.138C242.806 384.29 241.495 383.953 240.328 383.312C239.161 382.67 238.175 381.744 237.462 380.62C236.75 379.496 236.334 378.21 236.252 376.882C236.171 375.554 236.428 374.227 236.998 373.025L273.303 296.471H223.81C220.361 296.473 216.982 295.505 214.059 293.677C211.137 291.849 208.79 289.235 207.287 286.136L247.619 255.478H305.077C325.55 255.478 338.539 277.39 328.678 295.307L279.745 384.289Z" fill="#423C52"/>
<path d="M279.746 384.29C278.596 387.096 275.034 398.889 281.355 401.564C287.336 404.095 286.761 407.534 286.761 407.534H247.54C246.638 407.534 245.749 407.318 244.947 406.906C244.145 406.493 243.454 405.895 242.93 405.161C242.407 404.427 242.066 403.579 241.937 402.688C241.808 401.796 241.894 400.887 242.188 400.035L247.626 384.3L279.746 384.29Z" fill="#907B00"/>
<path d="M271.889 388.685H278.937C279.326 388.685 279.698 388.839 279.973 389.113C280.247 389.388 280.401 389.759 280.401 390.147V390.147C280.401 390.535 280.247 390.907 279.973 391.181C279.698 391.455 279.326 391.609 278.937 391.609H277.877" stroke="white" stroke-width="4" stroke-miterlimit="10"/>
<path d="M271.889 391.609H278.937C279.326 391.609 279.698 391.763 279.973 392.037C280.247 392.311 280.401 392.683 280.401 393.071V393.071C280.401 393.458 280.247 393.83 279.973 394.104C279.698 394.378 279.326 394.532 278.937 394.532H277.877" stroke="white" stroke-width="4" stroke-miterlimit="10"/>
<path d="M286.76 407.536H247.539C246.636 407.536 245.747 407.321 244.944 406.908C244.142 406.496 243.45 405.897 242.926 405.163C242.402 404.429 242.062 403.581 241.933 402.689C241.804 401.797 241.89 400.887 242.185 400.035L242.559 398.951C242.759 400.293 243.435 401.519 244.465 402.405C245.494 403.291 246.807 403.778 248.166 403.777H284.957C287.061 405.732 286.76 407.536 286.76 407.536Z" fill="white"/>
<path d="M382.313 272.973C382.313 272.973 395.228 274.122 397.144 267.46C399.06 260.799 396.502 251.38 392.752 249.083C391.953 248.595 377.229 248.248 377.229 248.248L367.508 269.741C379.471 269.881 384.047 268.571 384.047 268.571C384.047 268.571 381.209 269.146 382.313 272.973Z" fill="#FFDB00"/>
<path d="M367.508 269.741L384.128 268.367C385.053 268.291 385.915 267.87 386.543 267.189C387.172 266.508 387.521 265.616 387.521 264.689V262.175" stroke="#423C52" stroke-width="5" stroke-linecap="round" stroke-linejoin="round"/>
<path d="M307.963 184.386L304.757 192.954L299.388 192.867L278.242 192.551L292.811 173.437L307.963 184.386Z" fill="#FFDB00"/>
<path d="M299.451 173.437L301.055 182.935C301.271 184.219 301.935 185.385 302.931 186.226C303.926 187.068 305.188 187.529 306.493 187.529H314.557C315.004 187.528 315.447 187.434 315.856 187.253C316.265 187.073 316.631 186.809 316.932 186.478C317.233 186.148 317.462 185.759 317.604 185.335C317.746 184.912 317.798 184.463 317.757 184.018L317.389 180.021H318.619C318.8 180.021 318.979 179.979 319.142 179.899C319.304 179.818 319.446 179.701 319.555 179.557C319.665 179.412 319.74 179.244 319.773 179.066C319.807 178.888 319.799 178.705 319.75 178.53L317.165 169.294L299.451 173.437Z" fill="#FFDB00"/>
<path d="M296.41 173.437H300.869V181.63H296.41C295.918 181.63 295.43 181.534 294.975 181.346C294.52 181.158 294.107 180.883 293.759 180.536C293.41 180.188 293.134 179.776 292.945 179.322C292.757 178.868 292.66 178.381 292.66 177.889V177.177C292.66 176.185 293.055 175.234 293.757 174.533C294.459 173.831 295.412 173.437 296.406 173.437H296.41Z" fill="#FFDB00"/>
<path d="M292.944 177.879C292.944 180.143 295.475 182.15 297.74 182.15H302.31" stroke="#423C52" stroke-width="5" stroke-miterlimit="10" stroke-linecap="round"/>
<path d="M298.855 178.163C298.855 177.498 298.59 176.861 298.12 176.391C297.649 175.921 297.011 175.657 296.345 175.657" stroke="#423C52" stroke-width="5" stroke-miterlimit="10" stroke-linecap="round"/>
<path d="M311.874 177.359C312.255 177.359 312.564 176.944 312.564 176.432C312.564 175.92 312.255 175.504 311.874 175.504C311.493 175.504 311.184 175.92 311.184 176.432C311.184 176.944 311.493 177.359 311.874 177.359Z" fill="#423C52"/>
<path d="M308.653 173.437C308.653 173.437 310.954 172.441 312.564 172.366" stroke="#423C52" stroke-width="5" stroke-miterlimit="10" stroke-linecap="round"/>
<path d="M291.251 174.882L291.56 173.629C292.423 170.107 294.383 166.95 297.158 164.612C299.933 162.273 303.379 160.875 307.001 160.617L310.843 160.346C312.199 160.223 313.55 160.624 314.618 161.466C315.686 162.308 316.391 163.526 316.586 164.871L317.166 168.851L291.251 174.882Z" fill="white" stroke="#423C52" stroke-width="5" stroke-linecap="round" stroke-linejoin="round"/>
<path d="M291.25 174.882L327.441 166.585" stroke="#423C52" stroke-width="5" stroke-miterlimit="10" stroke-linecap="round"/>
<path d="M304.757 172.157C302.561 177.152 305.07 180.285 305.827 180.853C307.986 182.467 315.609 180.512 317.395 180.017C317.395 180.017 318.924 190.413 317.186 190.682C313.98 191.179 302.615 187.658 301.082 184.749C300.572 183.789 301.237 180.397 301.136 178.042C301.063 176.252 300.869 173.433 299.451 173.433L304.757 172.157Z" fill="#423C52"/>
<path d="M304.757 192.954L268.608 176.135C266.992 175.384 265.153 175.264 263.453 175.801C261.753 176.338 260.316 177.491 259.427 179.034L249.681 195.949C247.706 199.86 251.145 204.315 255.436 203.406L304.757 192.954Z" fill="#FF7A63"/>
<path d="M278.647 192.551H300.446C304.735 192.557 308.94 193.741 312.599 195.974C316.259 198.208 319.232 201.404 321.193 205.213C328.463 219.279 344.826 240.661 378.434 245.498L367.508 269.931C367.508 269.931 331.521 284.672 291.263 255.501H271.971C256.18 255.501 240.825 260.673 228.26 270.223L207.298 286.159C207.298 286.159 193.476 257.288 223.778 225.231C234.382 214.013 243.168 206.605 249.992 201.733C258.351 195.763 268.37 192.552 278.647 192.551V192.551Z" fill="#FF7A63"/>
<path d="M293.45 201.623C302.971 220.041 328.377 252.22 372.362 258.552" stroke="white" stroke-width="5" stroke-miterlimit="10" stroke-linecap="round"/>
<path d="M290.338 202.634C299.501 221.489 326.51 254.889 370.992 261.289" stroke="white" stroke-width="5" stroke-miterlimit="10" stroke-linecap="round"/>
<path d="M249.995 201.502C258.354 195.537 268.373 192.333 278.647 192.336H304.349" stroke="#423C52" stroke-width="5" stroke-miterlimit="10" stroke-linecap="round"/>
<path d="M291.614 256.179C285.34 251.863 275.493 237.738 275.493 237.738" stroke="#423C52" stroke-width="5" stroke-miterlimit="10" stroke-linecap="round"/>
<path d="M378.001 245.92L367.29 270.131C367.29 270.131 331.303 284.875 291.045 255.703" stroke="#423C52" stroke-width="5" stroke-miterlimit="10" stroke-linecap="round"/>
<path d="M6.38914 488C61.2802 488 105.778 486.542 105.778 484.742C105.778 482.943 61.2802 481.485 6.38914 481.485C-48.502 481.485 -93 482.943 -93 484.742C-93 486.542 -48.502 488 6.38914 488Z" fill="#E5F1EF"/>
<path d="M16.0396 200.303L63.0215 192.146C68.4403 191.205 74.0156 192.33 78.6425 195.299C83.2695 198.269 86.6106 202.865 88.0037 208.178C91.4232 221.219 96.9258 238.458 106.86 238.458C121.768 238.458 141.452 206.298 141.452 206.298L164.636 221.434C164.636 221.434 139.286 276.532 108.151 277.768C81.4889 278.829 75.3987 257.929 75.3987 257.929V270.041L0.696798 284.741C0.696798 284.741 -7.39287 315.975 -17.7078 325.899L-45.1182 315.056C-35.462 299.783 -17.6263 250.19 -9.17686 222.545C-7.44499 216.872 -4.1712 211.789 0.280522 207.863C4.73224 203.936 10.1874 201.319 16.0396 200.303V200.303Z" fill="white" stroke="#236348" stroke-width="5" stroke-miterlimit="10"/>
<path d="M75.4007 269.92V281.372C67.7251 283.843 57.0526 286.311 45.0122 287.514C32.9383 288.717 21.8663 289.112 13.762 288.663C5.65766 288.214 0.504369 286.917 0.322414 284.739C0.0839904 281.874 5.76014 278.474 14.9311 275.598C22.4268 273.249 32.2628 271.242 43.1299 270.169C55.6408 268.905 67.1814 268.905 75.4007 269.92Z" fill="#236348"/>
<path d="M0.692627 284.555L12.7853 249.11" stroke="#236348" stroke-width="5" stroke-miterlimit="10"/>
<path d="M75.3982 257.915V230.337" stroke="#236348" stroke-width="5" stroke-miterlimit="10"/>
<path d="M139.942 207.144C141.125 204.87 154.272 189.026 158.974 189.137C163.675 189.247 155.255 195.932 160.091 196.053C164.56 196.164 178.913 179.948 181.214 186.46C185.125 197.615 171.271 218.809 163.081 223.172C156.259 226.793 135.33 216.003 139.942 207.144Z" fill="#EB7500"/>
<path d="M179.233 185.436C179.233 185.436 178.662 190.83 166.176 198.242" stroke="#423C52" stroke-width="5" stroke-miterlimit="10" stroke-linecap="round"/>
<path d="M180.977 187.514C180.977 187.514 180.753 194.639 168.268 202.051" stroke="#423C52" stroke-width="5" stroke-miterlimit="10" stroke-linecap="round"/>
<path d="M180.978 187.514C180.978 187.514 184.972 197.707 170.696 206.033" stroke="#423C52" stroke-width="5" stroke-miterlimit="10" stroke-linecap="round"/>
<path d="M154.554 204.795C154.554 204.795 155.6 211.137 152.804 216.071" stroke="#423C52" stroke-width="5" stroke-miterlimit="10" stroke-linecap="round"/>
<path d="M75.3995 269.92V442.204H39.1445V361.728C32.1194 396.393 -31.4728 427.949 -31.4728 427.949L-49.25 396.395C-49.25 396.395 -1.04243 376.364 8.77267 325.897C10.9415 314.741 12.6356 300.042 13.7524 288.663C14.2711 283.352 14.6642 278.764 14.9215 275.598C22.4172 273.249 32.2532 271.242 43.1203 270.169C55.6396 268.905 67.1802 268.905 75.3995 269.92Z" fill="#FF7A63"/>
<path d="M23.8455 387.01C20.0809 383.976 19.5434 377.786 22.737 372.662C26.144 367.195 32.5207 365.008 36.9776 367.777" stroke="#423C52" stroke-width="5" stroke-miterlimit="10" stroke-linecap="round"/>
<path d="M74.7803 388.163C69.97 387.76 66.0297 382.943 65.7871 376.918C65.5257 370.486 69.5685 365.098 74.8138 364.887" stroke="#423C52" stroke-width="5" stroke-miterlimit="10" stroke-linecap="round"/>
<path d="M75.3997 269.92V329.081C31.7285 335.943 8.78125 325.897 8.78125 325.897C10.9501 314.741 12.6441 300.042 13.761 288.663C14.2796 283.352 14.6728 278.764 14.9301 275.598C22.4258 273.249 32.2618 271.242 43.1289 270.169C55.6398 268.905 67.1804 268.905 75.3997 269.92Z" fill="#236348"/>
<path d="M39.1445 363.573C50.0012 333.256 51.484 302.938 51.484 302.938" stroke="white" stroke-width="5" stroke-miterlimit="10" stroke-linecap="round"/>
<path d="M18.2383 328.025C21.0931 313.344 23.3205 293.998 24.7907 279.023" stroke="#423C52" stroke-width="6" stroke-miterlimit="10" stroke-linecap="round"/>
<path d="M15.4172 327.471C18.272 312.789 20.4994 293.445 21.9697 278.47" stroke="#423C52" stroke-width="6" stroke-miterlimit="10" stroke-linecap="round"/>
<path d="M75.3992 269.92V281.372C67.7237 283.843 57.0511 286.311 45.0107 287.514C32.9369 288.717 21.8648 289.112 13.7605 288.663C14.2792 283.352 14.6724 278.764 14.9296 275.598C22.4253 273.249 32.2613 271.242 43.1284 270.169C55.6394 268.905 67.1799 268.905 75.3992 269.92Z" fill="#423C52"/>
<path d="M43.0071 482.445C45.1416 482.445 46.872 480.717 46.872 478.586C46.872 476.454 45.1416 474.727 43.0071 474.727C40.8725 474.727 39.1421 476.454 39.1421 478.586C39.1421 480.717 40.8725 482.445 43.0071 482.445Z" fill="white" stroke="#423C52" stroke-width="5" stroke-miterlimit="10" stroke-linecap="round"/>
<path d="M56.9922 482.445C59.1267 482.445 60.8571 480.717 60.8571 478.586C60.8571 476.454 59.1267 474.727 56.9922 474.727C54.8576 474.727 53.1272 476.454 53.1272 478.586C53.1272 480.717 54.8576 482.445 56.9922 482.445Z" fill="white" stroke="#423C52" stroke-width="5" stroke-miterlimit="10" stroke-linecap="round"/>
<path d="M70.978 482.445C73.1126 482.445 74.843 480.717 74.843 478.586C74.843 476.454 73.1126 474.727 70.978 474.727C68.8434 474.727 67.113 476.454 67.113 478.586C67.113 480.717 68.8434 482.445 70.978 482.445Z" fill="white" stroke="#423C52" stroke-width="5" stroke-miterlimit="10" stroke-linecap="round"/>
<path d="M84.9636 482.445C87.0982 482.445 88.8286 480.717 88.8286 478.586C88.8286 476.454 87.0982 474.727 84.9636 474.727C82.829 474.727 81.0986 476.454 81.0986 478.586C81.0986 480.717 82.829 482.445 84.9636 482.445Z" fill="white" stroke="#423C52" stroke-width="5" stroke-miterlimit="10" stroke-linecap="round"/>
<path d="M88.8284 470.007V472.705H46.9391C44.8716 472.704 42.8889 471.884 41.4272 470.424C39.9654 468.964 39.1443 466.984 39.1443 464.92V442.203H75.3993C75.3993 447.006 75.2341 458.995 86.2622 465.507C87.045 465.969 87.6935 466.627 88.1435 467.417C88.5936 468.206 88.8296 469.099 88.8284 470.007V470.007Z" fill="#80AE09"/>
<path d="M75.9721 446.794C77.7581 447.036 78.76 447.42 78.76 448.076C78.76 448.955 75.6228 449.3 70.1265 449.3" stroke="#423C52" stroke-width="5" stroke-miterlimit="10" stroke-linecap="round"/>
<path d="M76.8421 452.119C78.6993 452.342 79.6843 452.927 79.6843 453.614C79.6843 454.493 75.6311 454.658 70.1265 454.658" stroke="#423C52" stroke-width="5" stroke-miterlimit="10" stroke-linecap="round"/>
<path d="M70.1309 460.104C70.1309 460.104 81.8429 460.921 81.8429 458.642C81.8429 457.671 80.1405 457.325 78.7622 457.204" stroke="#423C52" stroke-width="5" stroke-miterlimit="10" stroke-linecap="round"/>
<path d="M75.4 435.131H39.145V442.204H75.4V435.131Z" fill="white"/>
<path d="M53.2163 172.621C53.2163 179.341 46.8353 184.05 40.0758 184.05C37.3814 184.054 34.761 183.17 32.6216 181.534C30.4822 179.899 28.9435 177.604 28.2446 175.005C27.5268 176.876 26.3232 178.521 24.7574 179.773C23.1915 181.025 21.32 181.838 19.3353 182.128C17.3506 182.418 15.3243 182.176 13.4646 181.425C11.605 180.674 9.97926 179.442 8.75448 177.856C8.24137 182.593 6.02782 186.984 2.52316 190.218C-0.981512 193.451 -5.54022 195.308 -10.31 195.445C-15.0798 195.582 -19.7379 193.99 -23.4231 190.963C-27.1083 187.937 -29.5712 183.68 -30.3565 178.98C-31.1417 174.281 -30.1961 169.456 -27.6946 165.399C-25.193 161.342 -21.3047 158.326 -16.7487 156.909C-12.1927 155.493 -7.2771 155.772 -2.91098 157.694C1.45514 159.617 4.97647 163.052 7.00186 167.366C7.77173 165.093 9.24771 163.125 11.2152 161.747C13.1826 160.369 15.539 159.654 17.9416 159.705C20.3442 159.756 22.6678 160.571 24.5745 162.032C26.4812 163.492 27.8717 165.522 28.5437 167.826C29.3926 165.448 30.958 163.392 33.0249 161.939C35.0917 160.486 37.5585 159.707 40.0863 159.711C46.8353 159.715 53.2163 165.9 53.2163 172.621Z" fill="#FFDB00"/>
<path d="M28.303 176.434C28.1366 176.434 27.977 176.368 27.8593 176.25C27.7416 176.133 27.6755 175.973 27.6755 175.807V167.036C27.6755 166.87 27.7416 166.711 27.8593 166.593C27.977 166.476 28.1366 166.41 28.303 166.41C28.4694 166.41 28.629 166.476 28.7466 166.593C28.8643 166.711 28.9304 166.87 28.9304 167.036V175.807C28.9304 175.973 28.8643 176.133 28.7466 176.25C28.629 176.368 28.4694 176.434 28.303 176.434Z" fill="#423C52"/>
<path d="M34.435 182.896L29.0642 197.932C29.0642 197.932 30.9465 204.384 41.9851 203.812C53.0237 203.24 51.8002 194.093 51.8002 194.093V188.455L38.3418 182.725L34.435 182.896Z" fill="#EB7500"/>
<path d="M51.8002 190.417L29.6017 199.052C29.3786 198.702 29.1982 198.326 29.0642 197.933L34.4371 182.897L38.3418 182.722L51.7876 188.391V188.462L51.8002 190.417Z" fill="#423C52"/>
<path d="M47.7198 190.503C43.6269 190.682 39.6511 187.489 38.0721 182.899H34.2635C33.7494 182.899 33.2403 182.798 32.7653 182.602C32.2903 182.405 31.8587 182.117 31.4951 181.754C31.1315 181.391 30.8432 180.96 30.6464 180.486C30.4496 180.012 30.3484 179.503 30.3484 178.99C30.3484 178.477 30.4496 177.968 30.6464 177.494C30.8432 177.02 31.1315 176.589 31.4951 176.226C31.8587 175.863 32.2903 175.575 32.7653 175.378C33.2403 175.182 33.7494 175.081 34.2635 175.081H37.819C37.819 175.081 37.819 175.081 37.819 175.068C37.9319 175.077 38.0511 175.081 38.1766 175.081C43.125 175.081 48.592 169.785 48.5982 167.354C52.664 168.436 54.3769 172.809 54.6237 178.393C54.9123 184.852 52.8418 190.277 47.7198 190.503Z" fill="#EB7500"/>
<path d="M36.6983 179.481C36.6983 178.804 36.4291 178.154 35.9499 177.676C35.4707 177.197 34.8206 176.927 34.1426 176.927" stroke="#423C52" stroke-width="5" stroke-miterlimit="10" stroke-linecap="round"/>
<path d="M44.6037 181.235C45.0126 181.235 45.344 180.74 45.344 180.128C45.344 179.517 45.0126 179.021 44.6037 179.021C44.1948 179.021 43.8633 179.517 43.8633 180.128C43.8633 180.74 44.1948 181.235 44.6037 181.235Z" fill="#423C52"/>
<path d="M52.5531 181.143C52.9274 181.143 53.2307 180.689 53.2307 180.128C53.2307 179.568 52.9274 179.113 52.5531 179.113C52.1789 179.113 51.8755 179.568 51.8755 180.128C51.8755 180.689 52.1789 181.143 52.5531 181.143Z" fill="#423C52"/>
<path d="M41.4961 177.088C41.4961 177.088 43.1295 175.4 46.5155 175.82" stroke="#423C52" stroke-width="5" stroke-miterlimit="10" stroke-linecap="round"/>
<path d="M54.5505 175.4C54.5505 175.4 49.6524 175.4 49.8155 183.682" stroke="#423C52" stroke-width="5" stroke-miterlimit="10" stroke-linecap="round"/>
</g>
<defs>
<clipPath id="clip0_399:2885">
<rect width="375" height="812" fill="white"/>
</clipPath>
</defs>
</svg>
