<svg width="375" height="812" viewBox="0 0 375 812" fill="none" xmlns="http://www.w3.org/2000/svg">
<g clip-path="url(#clip0_399:2255)">
<rect width="375" height="812" fill="white"/>
<rect y="-4" width="375" height="816" fill="#F7FBEE"/>
<path d="M543.575 487.155C539.565 493.483 534.021 498.691 527.461 502.295C520.9 505.899 513.536 507.78 506.055 507.765C327.146 507.407 162.955 503.347 162.955 497.757C162.955 491.918 355.471 487.181 543.575 487.155Z" fill="#DBE5E5"/>
<path d="M260.269 519.13C278.998 519.13 294.18 517.568 294.18 515.64C294.18 513.713 278.998 512.15 260.269 512.15C241.541 512.15 226.358 513.713 226.358 515.64C226.358 517.568 241.541 519.13 260.269 519.13Z" fill="#DBE5E5"/>
<path d="M118.534 100.04C118.534 120.092 110.537 138.16 96.7733 153.802C91.4705 159.826 85.3119 164.802 78.4259 169.83V227.533H60.9903C60.9903 227.533 39.5626 215.347 48.3425 195.452C50.2745 191.072 54.0702 186.96 58.9642 182.834C64.3632 178.275 71.1009 174.703 78.1493 169.727C74.584 124.526 36.9413 87.966 -8.96637 87.966C-34.0455 87.966 -56.6637 98.5803 -72.5962 115.582C-54.9462 129.13 -43.7193 149.495 -43.7193 172.262C-43.7192 179.05 -44.7324 185.799 -46.7254 192.287C-41.6309 193.694 -36.8359 196.022 -32.5765 199.157C-23.6964 205.741 -18.0689 215.534 -18.0689 226.465C-18.0689 240.071 -26.7827 251.911 -39.6289 257.991C-45.8163 260.893 -52.5692 262.385 -59.4012 262.358C-75.941 262.358 -90.2121 253.925 -96.8176 241.73C-105.687 244.67 -114.971 246.162 -124.314 246.148C-168.818 246.148 -204.896 213.064 -204.896 172.253C-204.896 140.188 -182.627 112.895 -151.497 102.667V100.04C-151.497 76.1731 -140.168 52.2499 -121.267 35.0815C-96.5029 12.584 -58.7579 0.216753 -16.4757 0.216753C-2.05971 0.190101 12.3067 1.90799 26.3116 5.33312C26.3116 5.33312 10.1286 22.387 17.8944 47.0612C21.586 18.9674 44.2862 -2.65869 71.7402 -2.65869C101.769 -2.65869 126.111 23.2123 126.111 55.1233L118.534 100.04Z" fill="#DBE5E5"/>
<path d="M348.278 16.3249C352.706 16.3249 356.295 12.7289 356.295 8.29295C356.295 3.85702 352.706 0.260986 348.278 0.260986C343.851 0.260986 340.262 3.85702 340.262 8.29295C340.262 12.7289 343.851 16.3249 348.278 16.3249Z" fill="#DBE5E5"/>
<path d="M348.276 54.4526C348.276 72.7093 340.098 89.0102 327.283 99.7309C317.642 109.293 303.405 117.542 282.412 121.666C238.41 130.313 194.39 111.58 194.39 111.58L122.329 170.067C122.329 170.067 156.461 191.225 134.955 227.534H117.231V94.5683C117.231 68.35 138.444 47.0954 164.612 47.0954H170.115C172.451 41.3462 176.101 36.2266 180.772 32.1484C185.443 28.0703 191.004 25.1474 197.007 23.6149C203.011 22.0824 209.29 21.9831 215.339 23.3249C221.388 24.6667 227.038 27.4123 231.835 31.3407C229.781 38.889 229.285 46.7777 230.377 54.5246C231.468 62.2716 234.125 69.7143 238.184 76.398C235.423 69.4126 234.011 61.9657 234.021 54.4526C234.021 22.1702 259.597 -4 291.138 -4C322.678 -4 348.276 22.1702 348.276 54.4526Z" fill="#DBE5E5"/>
<path d="M132.969 84.9119C134.63 84.9119 135.976 83.5634 135.976 81.8999C135.976 80.2365 134.63 78.8879 132.969 78.8879C131.309 78.8879 129.963 80.2365 129.963 81.8999C129.963 83.5634 131.309 84.9119 132.969 84.9119Z" fill="white"/>
<path d="M149.064 79.6911C154.045 79.6911 158.083 75.6455 158.083 70.6551C158.083 65.6647 154.045 61.6191 149.064 61.6191C144.084 61.6191 140.046 65.6647 140.046 70.6551C140.046 75.6455 144.084 79.6911 149.064 79.6911Z" fill="white"/>
<path d="M234.927 289.615H178.16V416.799H234.927V289.615Z" fill="#DBE5E5"/>
<path d="M149.794 312.347H65.9005V416.799H149.794V312.347Z" fill="#DBE5E5"/>
<path d="M77.7006 227.533V416.297H59.9745V227.533C60.0095 225.201 60.9587 222.977 62.617 221.34C64.2754 219.703 66.5097 218.786 68.8376 218.786C71.1654 218.786 73.3998 219.703 75.0581 221.34C76.7164 222.977 77.6656 225.201 77.7006 227.533V227.533Z" fill="white" stroke="#423C52" stroke-width="5" stroke-miterlimit="10" stroke-linecap="round"/>
<path d="M77.6684 323.684V416.297H59.9423V341.047L77.6684 323.684Z" fill="#423C52"/>
<path d="M75.8384 230.438C77.4399 226.564 75.6038 222.123 71.7375 220.519C67.8711 218.914 63.4385 220.754 61.837 224.628C60.2355 228.501 62.0716 232.943 65.9379 234.547C69.8043 236.152 74.2369 234.312 75.8384 230.438Z" fill="#423C52"/>
<path d="M77.2475 243.316V248.38C76.2638 249.686 74.9909 250.744 73.5292 251.472C72.0674 252.2 70.4568 252.578 68.8243 252.576C67.1919 252.574 65.5824 252.191 64.1227 251.459C62.663 250.727 61.3931 249.665 60.4132 248.356V243.264C61.0623 244.971 62.2124 246.44 63.7118 247.479C65.2113 248.518 66.9896 249.077 68.8125 249.082C70.6353 249.088 72.4171 248.54 73.9229 247.511C75.4287 246.481 76.5878 245.019 77.2475 243.316V243.316Z" fill="#FF7A63"/>
<path d="M77.2475 236.156V241.22C76.2636 242.525 74.9906 243.583 73.5289 244.311C72.0671 245.039 70.4566 245.417 68.8243 245.414C67.1921 245.412 65.5826 245.03 64.123 244.298C62.6633 243.566 61.3934 242.504 60.4132 241.196V236.104C61.0623 237.81 62.2124 239.28 63.7118 240.319C65.2113 241.357 66.9896 241.916 68.8125 241.922C70.6353 241.928 72.4171 241.38 73.9229 240.35C75.4287 239.321 76.5878 237.859 77.2475 236.156V236.156Z" fill="#FF7A63"/>
<path d="M134.974 227.533V343.672H117.249V227.533C117.249 225.178 118.183 222.92 119.845 221.255C121.507 219.59 123.761 218.654 126.112 218.654C128.462 218.654 130.716 219.59 132.378 221.255C134.04 222.92 134.974 225.178 134.974 227.533V227.533Z" fill="white" stroke="#423C52" stroke-width="5" stroke-miterlimit="10" stroke-linecap="round"/>
<path d="M133.112 230.439C134.714 226.565 132.877 222.124 129.011 220.519C125.145 218.915 120.712 220.754 119.111 224.628C117.509 228.502 119.345 232.943 123.212 234.548C127.078 236.153 131.511 234.313 133.112 230.439Z" fill="#423C52"/>
<path d="M134.531 236.156V241.22C133.547 242.525 132.274 243.583 130.812 244.311C129.35 245.039 127.74 245.417 126.107 245.414C124.475 245.412 122.866 245.03 121.406 244.298C119.946 243.566 118.676 242.504 117.696 241.196V236.104C118.345 237.81 119.495 239.28 120.995 240.319C122.494 241.357 124.273 241.916 126.096 241.922C127.918 241.928 129.7 241.38 131.206 240.35C132.712 239.321 133.871 237.859 134.531 236.156V236.156Z" fill="#FF7A63"/>
<path d="M134.531 243.316V248.38C133.547 249.686 132.274 250.744 130.812 251.472C129.351 252.2 127.74 252.578 126.107 252.576C124.475 252.574 122.865 252.191 121.406 251.459C119.946 250.727 118.676 249.665 117.696 248.356V243.264C118.345 244.971 119.495 246.44 120.995 247.479C122.494 248.518 124.273 249.077 126.096 249.082C127.918 249.088 129.7 248.54 131.206 247.511C132.712 246.481 133.871 245.019 134.531 243.316V243.316Z" fill="#FF7A63"/>
<path d="M134.974 323.684V343.672H117.249V341.047L134.974 323.684Z" fill="#423C52"/>
<path d="M184.925 343.147H77.7003V416.799H184.925V343.147Z" fill="#423C52"/>
<path d="M207.742 343.672H100.517V416.799H207.742V343.672Z" fill="white" stroke="#423C52" stroke-width="5" stroke-miterlimit="10" stroke-linecap="round"/>
<path d="M208.155 325.429H144.092V343.672H208.155V325.429Z" fill="#423C52"/>
<path d="M207.766 325.953H165.724V343.672H207.766V325.953Z" fill="white" stroke="#423C52" stroke-width="5" stroke-miterlimit="10" stroke-linecap="round"/>
<path d="M252.295 372.161H207.744V416.799H252.295V372.161Z" fill="white" stroke="#423C52" stroke-width="5" stroke-miterlimit="10" stroke-linecap="round"/>
<path d="M115.716 354.615H109.822V361.912H115.716V354.615Z" fill="#423C52"/>
<path d="M142.599 354.615H136.705V361.912H142.599V354.615Z" fill="#423C52"/>
<path d="M169.482 354.615H163.588V361.912H169.482V354.615Z" fill="#423C52"/>
<path d="M196.362 354.615H190.469V361.912H196.362V354.615Z" fill="#423C52"/>
<path d="M215.42 382.448V407.409" stroke="#FF7A63" stroke-width="5" stroke-miterlimit="10" stroke-linecap="round"/>
<path d="M221.167 382.448V407.409" stroke="#FF7A63" stroke-width="5" stroke-miterlimit="10" stroke-linecap="round"/>
<path d="M226.915 382.448V407.409" stroke="#FF7A63" stroke-width="5" stroke-miterlimit="10" stroke-linecap="round"/>
<path d="M232.662 382.448V407.409" stroke="#FF7A63" stroke-width="5" stroke-miterlimit="10" stroke-linecap="round"/>
<path d="M238.412 382.448V407.409" stroke="#FF7A63" stroke-width="5" stroke-miterlimit="10" stroke-linecap="round"/>
<path d="M244.16 382.448V407.409" stroke="#FF7A63" stroke-width="5" stroke-miterlimit="10" stroke-linecap="round"/>
<path d="M115.233 416.799H-44.6331C-15.0928 394.494 4.19654 357.724 4.19654 316.138C4.19654 307.839 18.123 301.112 35.3 301.112C52.477 301.112 66.4034 307.839 66.4034 316.138C66.4034 357.724 85.6928 394.494 115.233 416.799Z" fill="white" stroke="#423C52" stroke-width="5" stroke-miterlimit="10" stroke-linecap="round"/>
<path d="M35.3001 330.465C51.0923 330.465 63.8944 324.28 63.8944 316.65C63.8944 309.02 51.0923 302.835 35.3001 302.835C19.5079 302.835 6.70581 309.02 6.70581 316.65C6.70581 324.28 19.5079 330.465 35.3001 330.465Z" fill="#423C52"/>
<path d="M3.82991 330.784C3.90806 338.387 17.7503 344.601 35.3181 344.601C52.886 344.601 66.7823 338.451 66.8625 330.849L67.9227 338.332C64.8364 344.993 51.6054 350.013 35.3181 350.013C18.9828 350.013 5.82198 344.921 2.78979 338.228L3.82991 330.784Z" fill="#FF7A63"/>
<path d="M38.4184 416.799H-121.448C-91.9074 394.494 -72.6181 357.724 -72.6181 316.138C-72.6181 307.839 -58.6917 301.112 -41.5146 301.112C-24.3376 301.112 -10.4112 307.839 -10.4112 316.138C-10.4112 357.724 8.87814 394.494 38.4184 416.799Z" fill="white" stroke="#423C52" stroke-width="5" stroke-miterlimit="10" stroke-linecap="round"/>
<path d="M314.564 405.432C324.18 430.508 322.451 455.369 318.921 472.057C318.741 472.073 318.495 472.095 318.19 472.121C317.48 472.182 316.448 472.267 315.16 472.361C312.583 472.549 308.981 472.774 304.884 472.924C296.818 473.22 286.864 473.224 279.028 472.085C278.21 460.284 275.084 441.932 271.348 420.004C269.694 410.295 267.921 399.886 266.176 389.034C260.491 353.682 255.094 313.586 255.039 277.527C255.099 277.57 255.162 277.614 255.228 277.661C255.885 278.124 256.866 278.79 258.168 279.609C260.773 281.248 264.662 283.5 269.813 285.961C282.414 291.985 302.568 299.258 329.932 301.88C329.982 302.01 330.05 302.184 330.134 302.399C330.343 302.929 330.656 303.711 331.075 304.721C331.912 306.741 333.17 309.67 334.854 313.314L334.854 313.314C341.151 326.916 353.416 350.464 371.972 373.594C396.426 404.079 414.97 428.274 415.782 470.411C414.339 470.758 408.961 471.985 402.093 472.764C394.157 473.664 384.292 473.958 376.215 471.646C373.612 466.692 366.289 453.816 357.113 437.684C350.505 426.066 342.936 412.759 335.477 399.504C326.498 383.548 317.676 367.663 310.872 354.876C307.469 348.482 304.574 342.867 302.416 338.406C300.25 333.929 298.85 330.659 298.41 328.932L297.431 329.127C297.488 329.521 299.329 342.225 302.375 358.01C305.419 373.786 309.674 392.678 314.564 405.432Z" fill="#FF7A63" stroke="#FF7A63"/>
<path d="M297.926 329.056L293.07 318.971" stroke="#FF7A63" stroke-width="5" stroke-miterlimit="10" stroke-linecap="round"/>
<path d="M334.383 312.3C319.001 307.48 299.51 299.271 283.687 291.75C295.592 296.051 311.045 300.077 329.933 301.886C329.984 302.016 330.052 302.19 330.137 302.405C330.346 302.936 330.659 303.719 331.077 304.729C331.834 306.557 332.934 309.13 334.383 312.3Z" fill="#423C52" stroke="#FF7A63"/>
<path d="M414.896 492.577H374.442C374.442 492.577 382.534 484.934 376.754 473.121C376.614 472.834 376.436 472.483 376.219 472.071C392.643 476.88 415.7 470.866 415.94 470.806C416.038 478.077 415.689 485.348 414.896 492.577V492.577Z" fill="white" stroke="#423C52" stroke-width="5" stroke-miterlimit="10" stroke-linecap="round"/>
<path d="M318.985 472.519C316.347 484.81 312.95 492.573 312.95 492.573H307.74C307.74 492.573 308.094 485.517 304.389 485.51L297.813 492.577H262.323C262.323 492.577 279.576 484.707 278.969 473.585C278.949 473.238 278.929 472.884 278.905 472.523C294.791 474.93 318.985 472.519 318.985 472.519Z" fill="white" stroke="#423C52" stroke-width="5" stroke-miterlimit="10" stroke-linecap="round"/>
<path d="M274.828 479.719H285.292" stroke="#423C52" stroke-width="5" stroke-miterlimit="10" stroke-linecap="round"/>
<path d="M272.913 482.336H283.376" stroke="#423C52" stroke-width="5" stroke-miterlimit="10" stroke-linecap="round"/>
<path d="M304.844 182.601C301.359 181.396 298.305 177.745 299.958 175.452C301.205 173.727 322.59 173.515 329.005 178.3C330.883 179.734 332.398 181.591 333.426 183.721C333.845 184.569 334.432 185.322 335.152 185.934C335.871 186.547 336.707 187.006 337.609 187.285C338.512 187.563 339.461 187.654 340.399 187.552C341.338 187.45 342.246 187.158 343.068 186.693C349.387 183.091 359.053 179.892 369.346 184.986C388.639 194.53 381.122 217.078 381.122 217.078C381.122 217.078 399.734 205.996 409.966 221.453C420.588 237.505 406.399 259.204 381.348 260.609C356.297 262.015 353.738 249.796 349.243 240.083C344.659 230.176 349.571 215.058 349.571 215.058C349.571 215.058 334.318 222.297 324.071 217.279C311.87 211.305 318.778 197.757 318.778 197.757L304.844 182.601Z" fill="#A0505A"/>
<path d="M347.571 303.679L340.533 302.757C340.489 302.416 335.284 261.005 329.31 260.085C320.933 258.796 330.292 301.418 330.292 301.418C280.474 296.717 254.537 276.547 254.537 276.547C254.551 265.382 255.091 254.617 256.311 244.505C256.311 244.505 230.106 264.916 208.92 256.316C205.089 254.762 202.06 251.152 199.1 246.768L219.785 219.49L256.299 198.96C261.007 196.261 266.304 194.76 271.726 194.587C277.147 194.414 282.528 195.575 287.398 197.968L333.222 220.494C340.478 224.062 346.412 229.851 350.166 237.023L367.624 270.398C375.735 285.894 365.031 304.227 347.571 303.679Z" fill="white" stroke="#423C52" stroke-width="5" stroke-miterlimit="10" stroke-linecap="round"/>
<path d="M256.313 244.505L258.393 225.859" stroke="#423C52" stroke-width="5" stroke-miterlimit="10" stroke-linecap="round"/>
<path d="M336.453 327.831L165.628 146.81" stroke="#423C52" stroke-width="5" stroke-miterlimit="10" stroke-linecap="round"/>
<path d="M191.305 113.647L194.219 128.681C194.436 129.807 194.346 130.971 193.958 132.05C193.57 133.129 192.898 134.083 192.014 134.811L145.976 172.726C145.092 173.455 144.029 173.93 142.897 174.103C141.766 174.275 140.609 174.138 139.549 173.706L125.388 167.941L191.305 113.647Z" fill="white" stroke="#423C52" stroke-width="5" stroke-linecap="round" stroke-linejoin="round"/>
<path d="M192.892 133.925C192.627 134.248 192.331 134.544 192.009 134.811L191.983 134.833L190.969 135.668L190.067 136.411L185.014 140.575L184.335 141.134L183.914 141.481L183.433 141.883L177.703 146.599L176.946 147.222L176.8 147.342L175.846 148.128L171.072 152.059L170.168 152.804L168.877 153.868L167.779 154.772L164.438 157.523L163.535 158.268L160.809 160.513L159.711 161.416L157.807 162.987L156.901 163.732L152.735 167.153L151.636 168.057L151.165 168.446L150.262 169.189L145.969 172.725C145.532 173.085 145.05 173.385 144.534 173.617C144.386 173.683 144.235 173.746 144.085 173.8C143.935 173.854 143.782 173.9 143.632 173.942C142.367 174.295 141.024 174.245 139.788 173.8L139.542 173.705L137.9 173.037L136.998 172.669L131.269 170.336L130.365 169.97L125.679 168.057L125.393 167.94L126.349 167.153L130.377 163.834L131.281 163.091L133.317 161.412L134.415 160.509L137.021 158.372L137.922 157.627L141.395 154.768L142.494 153.864L143.654 152.907L144.556 152.164L149.462 148.124L150.284 147.447L150.562 147.218L151.187 146.702L156.915 141.983L157.53 141.477L157.821 141.238L158.623 140.571L163.541 136.519L164.444 135.776L165.591 134.833L166.689 133.925L170.17 131.058L171.074 130.313L173.655 128.186L174.753 127.281L176.802 125.592L177.705 124.849L181.724 121.54L182.82 120.636L183.435 120.13L184.337 119.387L189.792 114.895L190.069 114.666L190.888 113.99L190.971 113.921L191.309 113.644L191.375 113.99L191.55 114.895L192.66 120.636L192.834 121.54L193.945 127.281L194.119 128.186L194.213 128.68C194.391 129.598 194.365 130.544 194.137 131.45C193.908 132.357 193.484 133.202 192.892 133.925V133.925Z" fill="white" stroke="#423C52" stroke-width="5" stroke-linecap="round" stroke-linejoin="round"/>
<path d="M131.276 163.091V170.336L130.372 169.97V163.834L131.276 163.091Z" fill="#423C52"/>
<path d="M137.908 157.627V173.037L137.006 172.669V158.372L137.908 157.627Z" fill="#423C52"/>
<path d="M144.541 152.164V173.617C144.393 173.683 144.243 173.745 144.092 173.8C143.942 173.854 143.79 173.9 143.639 173.942V152.907L144.541 152.164Z" fill="#423C52"/>
<path d="M151.172 146.702V168.446L150.269 169.189V147.447L150.547 147.218L151.172 146.702Z" fill="#423C52"/>
<path d="M157.806 141.238V162.983L156.9 163.728V141.983L157.516 141.477L157.806 141.238Z" fill="#423C52"/>
<path d="M164.437 135.776V157.519L163.534 158.264V136.519L164.437 135.776Z" fill="#423C52"/>
<path d="M171.071 130.311V152.055L170.167 152.8V131.058L171.071 130.311Z" fill="#423C52"/>
<path d="M177.703 124.849V146.595L176.945 147.218L176.801 147.338V125.592L177.703 124.849Z" fill="#423C52"/>
<path d="M184.334 119.387V141.13L183.913 141.477L183.432 141.875V120.13L184.334 119.387Z" fill="#423C52"/>
<path d="M190.968 113.921V135.668L190.066 136.411V114.666L190.886 113.99L190.968 113.921Z" fill="#423C52"/>
<path d="M144.092 173.8C143.942 173.854 143.789 173.9 143.639 173.942C142.374 174.295 141.031 174.245 139.795 173.8H144.092Z" fill="#423C52"/>
<path d="M152.742 167.153L151.644 168.057H125.675L125.388 167.94L126.344 167.153H152.742Z" fill="#423C52"/>
<path d="M160.808 160.509L159.71 161.412H133.312L134.411 160.509H160.808Z" fill="#423C52"/>
<path d="M168.876 153.862L167.778 154.768H141.38L142.478 153.862H168.876Z" fill="#423C52"/>
<path d="M176.945 147.218L176.801 147.338L175.845 148.124H149.447L150.269 147.447L150.548 147.218H176.945Z" fill="#423C52"/>
<path d="M185.014 140.572L184.334 141.13L183.913 141.477H157.516L157.806 141.238L158.616 140.572H185.014Z" fill="#423C52"/>
<path d="M192.892 133.925C192.626 134.248 192.33 134.544 192.008 134.811L191.982 134.833H165.584L166.682 133.925H192.892Z" fill="#423C52"/>
<path d="M194.116 128.186H173.653L174.751 127.281H193.942L194.116 128.186Z" fill="#423C52"/>
<path d="M192.832 121.54H181.721L182.817 120.636H192.657L192.832 121.54Z" fill="#423C52"/>
<path d="M191.547 114.895H189.789L190.066 114.666L190.885 113.99H191.372L191.547 114.895Z" fill="#423C52"/>
<path d="M366.474 294.173C364.786 297.334 362.047 299.803 358.732 301.151V301.151C358.509 301.241 358.283 301.323 358.053 301.404C360.084 299.93 361.74 297.997 362.885 295.761C364.031 293.526 364.634 291.051 364.646 288.538V288.49C364.646 284.717 363.235 281.08 360.691 278.298C358.146 275.516 354.654 273.791 350.902 273.462L340.537 273.085L345.81 271.398C355.862 268.149 364.961 273.33 367.594 280.93L367.608 280.978C368.345 283.136 368.625 285.424 368.43 287.695C368.235 289.967 367.568 292.174 366.474 294.173V294.173Z" fill="#423C52"/>
<path d="M364.642 288.54V288.49C364.642 284.717 363.231 281.081 360.686 278.3C358.142 275.519 354.649 273.794 350.898 273.466L298.455 271.549L297.824 270.386C296.988 268.849 295.822 267.517 294.409 266.488C292.996 265.458 291.372 264.757 289.655 264.434C287.794 264.085 285.877 264.19 284.066 264.742L279.392 266.677L274.234 261.131C274.185 261.082 274.124 261.045 274.058 261.026C273.991 261.007 273.92 261.006 273.853 261.022C273.785 261.038 273.723 261.072 273.673 261.12C273.622 261.167 273.585 261.227 273.564 261.294C272.656 264.581 268.937 278.892 271.586 283.362C278.16 294.454 322.145 301.604 347.998 304.183C356.908 305.076 364.642 297.522 364.642 288.54Z" fill="#FFDB00"/>
<path d="M272.244 268.649C272.222 269.597 272.087 271.294 272.62 272.198C273.789 274.165 276.134 275.995 279.348 277.683" stroke="#423C52" stroke-width="5" stroke-miterlimit="10" stroke-linecap="round"/>
<path d="M271.242 274.272C271.22 275.219 271.085 276.916 271.618 277.82C272.787 279.788 275.132 281.617 278.346 283.306" stroke="#423C52" stroke-width="5" stroke-miterlimit="10" stroke-linecap="round"/>
<path d="M273.793 261.412C273.773 262.36 273.48 265.709 274.015 266.611C275.182 268.581 277.528 270.41 280.741 272.099" stroke="#423C52" stroke-width="5" stroke-miterlimit="10" stroke-linecap="round"/>
<path d="M279.905 266.856L286.905 269.173" stroke="#423C52" stroke-width="5" stroke-miterlimit="10" stroke-linecap="round"/>
<path d="M298.455 271.549V276.547" stroke="#423C52" stroke-width="5" stroke-miterlimit="10" stroke-linecap="round"/>
<path d="M229.362 247.2C227.637 250.722 224.714 253.511 221.119 255.065C220.981 255.125 220.841 255.183 220.698 255.242C218.107 256.295 215.298 256.696 212.517 256.412C209.735 256.127 207.065 255.165 204.74 253.609C203.515 252.487 202.393 251.256 201.387 249.933C204.118 252.228 207.545 253.527 211.109 253.616C214.672 253.705 218.16 252.578 221.001 250.421C223.843 248.264 225.868 245.204 226.747 241.743C227.625 238.281 227.304 234.624 225.837 231.369L223.322 225.782L224.677 226.863C230.767 231.738 232.807 240.208 229.362 247.2Z" fill="#423C52"/>
<path d="M217.39 252.473C214.133 253.797 210.527 253.988 207.149 253.018C203.77 252.047 200.814 249.969 198.752 247.117V247.117C198.463 246.688 198.177 246.246 197.894 245.796C197.895 245.79 197.895 245.784 197.894 245.778C184.154 223.77 179.962 177.446 181.661 170.854C183.11 165.205 199.231 162.515 200.385 163.906C201.261 164.958 207.704 178.364 210.78 184.809C211.215 185.721 211.275 186.767 210.947 187.723C210.62 188.678 209.931 189.466 209.029 189.918L207.305 190.775L220.482 219.489L225.835 231.375C226.706 233.31 227.178 235.401 227.223 237.523C227.268 239.646 226.885 241.755 226.096 243.725C225.307 245.696 224.13 247.486 222.634 248.989C221.138 250.492 219.354 251.677 217.39 252.473Z" fill="#FFDB00"/>
<path d="M188.751 170.962C194.046 168.577 201.511 167.681 202.285 168.613" stroke="#423C52" stroke-width="5" stroke-miterlimit="10" stroke-linecap="round"/>
<path d="M191.537 176.372C196.832 173.988 204.299 173.093 205.071 174.023" stroke="#423C52" stroke-width="5" stroke-miterlimit="10" stroke-linecap="round"/>
<path d="M194.499 182.48C199.794 180.097 207.261 179.201 208.033 180.131" stroke="#423C52" stroke-width="5" stroke-miterlimit="10" stroke-linecap="round"/>
<path d="M211.51 195.54L205.588 186.803C205.487 186.571 205.305 186.382 205.076 186.274C204.847 186.166 204.587 186.145 204.343 186.215L203.776 186.376C203.584 186.431 203.411 186.54 203.279 186.691C203.147 186.842 203.06 187.027 203.03 187.225C203 187.424 203.027 187.627 203.109 187.81C203.19 187.993 203.322 188.149 203.49 188.259L211.51 195.54Z" fill="#423C52"/>
<path d="M318.809 196.028V213.044C318.809 213.044 315.402 218.443 308.67 216.08C302.726 213.994 303.632 205.317 303.632 205.317L303.872 197.396L318.809 196.028Z" fill="#FFDB00"/>
<path d="M303.872 197.57L318.808 196.203V213.779L303.806 199.233L303.872 197.57Z" fill="#423C52"/>
<path d="M324.648 194.627C324.539 195.09 324.339 195.528 324.061 195.914C323.782 196.3 323.431 196.628 323.026 196.878C322.621 197.128 322.171 197.296 321.702 197.371C321.232 197.447 320.752 197.429 320.29 197.319L317.57 196.675L317.546 196.749C317.546 196.749 311.658 201.769 305.018 199.052C298.379 196.335 305.018 182.677 305.018 182.677C310.872 185.89 316.919 184.318 318.957 184.221C321.135 184.119 320.159 188.476 319.837 189.755L321.959 190.259C322.422 190.369 322.858 190.569 323.244 190.848C323.63 191.127 323.957 191.479 324.207 191.885C324.456 192.29 324.624 192.741 324.7 193.212C324.776 193.682 324.758 194.163 324.648 194.627V194.627Z" fill="#FFDB00"/>
<path d="M319.538 194.006C319.68 193.407 320.054 192.888 320.578 192.565C321.101 192.241 321.731 192.139 322.329 192.281" stroke="#423C52" stroke-width="5" stroke-miterlimit="10" stroke-linecap="round"/>
<path d="M304.568 184.737C304.568 184.737 307.54 186.761 306.015 193.095" stroke="#423C52" stroke-width="5" stroke-miterlimit="10" stroke-linecap="round"/>
<path d="M311.295 186.604C311.295 186.604 313.468 187.068 314.576 188.795" stroke="#423C52" stroke-width="5" stroke-miterlimit="10" stroke-linecap="round"/>
<path d="M311.855 190.3C312.005 189.664 311.853 189.082 311.515 189.002C311.177 188.922 310.781 189.373 310.63 190.01C310.479 190.646 310.632 191.227 310.97 191.308C311.308 191.388 311.704 190.937 311.855 190.3Z" fill="#423C52"/>
<path d="M304.824 188.781C304.957 188.22 304.822 187.707 304.524 187.636C304.226 187.566 303.876 187.963 303.743 188.524C303.611 189.085 303.745 189.598 304.043 189.669C304.342 189.739 304.691 189.342 304.824 188.781Z" fill="#423C52"/>
<path d="M318.891 184.225C316.764 184.364 308.67 186.811 304.081 184.795C304.535 183.665 305.019 182.677 305.019 182.677C310.81 185.848 316.789 184.35 318.891 184.225Z" fill="#423C52"/>
</g>
<defs>
<clipPath id="clip0_399:2255">
<rect width="375" height="812" fill="white"/>
</clipPath>
</defs>
</svg>
