<svg width="48" height="48" viewBox="0 0 48 48" fill="none" xmlns="http://www.w3.org/2000/svg">
<path d="M7 17L2.7 16.3C1.7 16.1 1 15.3 1 14.3V10L5.60001 11.5C6.40001 11.8 7 12.5 7 13.4V17Z" stroke="#FF7A63" stroke-width="2" stroke-miterlimit="10" stroke-linecap="round" stroke-linejoin="round"/>
<path d="M7 26L2.7 25.3C1.7 25.1 1 24.3 1 23.3V19L5.60001 20.5C6.40001 20.8 7 21.5 7 22.4V26Z" stroke="#FF7A63" stroke-width="2" stroke-miterlimit="10" stroke-linecap="round" stroke-linejoin="round"/>
<path d="M7 35L2.7 34.3C1.7 34.1 1 33.3 1 32.3V28L5.60001 29.5C6.40001 29.8 7 30.5 7 31.4V35Z" stroke="#FF7A63" stroke-width="2" stroke-miterlimit="10" stroke-linecap="round" stroke-linejoin="round"/>
<path d="M15 17L19.3 16.3C20.3 16.1 21 15.3 21 14.3V10L16.4 11.5C15.6 11.8 15 12.5 15 13.4V17Z" stroke="#FF7A63" stroke-width="2" stroke-miterlimit="10" stroke-linecap="round" stroke-linejoin="round"/>
<path d="M15 26L19.3 25.3C20.3 25.1 21 24.3 21 23.3V19L16.4 20.5C15.6 20.8 15 21.5 15 22.4V26Z" stroke="#FF7A63" stroke-width="2" stroke-miterlimit="10" stroke-linecap="round" stroke-linejoin="round"/>
<path d="M15 35L19.3 34.3C20.3 34.1 21 33.3 21 32.3V28L16.4 29.5C15.6 29.8 15 30.5 15 31.4V35Z" stroke="#FF7A63" stroke-width="2" stroke-miterlimit="10" stroke-linecap="round" stroke-linejoin="round"/>
<path d="M11 13V47" stroke="#FF7A63" stroke-width="2" stroke-miterlimit="10" stroke-linecap="round" stroke-linejoin="round"/>
<path d="M14 6C14 7.7 12.7 9 11 9C9.3 9 8 7.7 8 6C8 4.3 11 1 11 1C11 1 14 4.3 14 6Z" stroke="#FF7A63" stroke-width="2" stroke-miterlimit="10" stroke-linecap="round" stroke-linejoin="round"/>
<path d="M33 29L28.7 28.3C27.7 28.1 27 27.3 27 26.3V22L31.6 23.5C32.4 23.8 33 24.5 33 25.4V29Z" stroke="#FF7A63" stroke-width="2" stroke-miterlimit="10" stroke-linecap="round" stroke-linejoin="round"/>
<path d="M33 38L28.7 37.3C27.7 37.1 27 36.3 27 35.3V31L31.6 32.5C32.4 32.8 33 33.5 33 34.4V38Z" stroke="#FF7A63" stroke-width="2" stroke-miterlimit="10" stroke-linecap="round" stroke-linejoin="round"/>
<path d="M41 29L45.3 28.3C46.3 28.1 47 27.3 47 26.3V22L42.4 23.5C41.6 23.8 41 24.5 41 25.4V29Z" stroke="#FF7A63" stroke-width="2" stroke-miterlimit="10" stroke-linecap="round" stroke-linejoin="round"/>
<path d="M41 38L45.3 37.3C46.3 37.1 47 36.3 47 35.3V31L42.4 32.5C41.6 32.8 41 33.5 41 34.4V38Z" stroke="#FF7A63" stroke-width="2" stroke-miterlimit="10" stroke-linecap="round" stroke-linejoin="round"/>
<path d="M37 25V47" stroke="#FF7A63" stroke-width="2" stroke-miterlimit="10" stroke-linecap="round" stroke-linejoin="round"/>
<path d="M40 18C40 19.7 38.7 21 37 21C35.3 21 34 19.7 34 18C34 16.3 37 13 37 13C37 13 40 16.3 40 18Z" stroke="#FF7A63" stroke-width="2" stroke-miterlimit="10" stroke-linecap="round" stroke-linejoin="round"/>
</svg>
