<svg width="325" height="78" viewBox="0 0 325 78" fill="none" xmlns="http://www.w3.org/2000/svg">
<g filter="url(#filter0_d_344:1559)">
<path d="M8.016 7.636C8.232 7.26 8.552 6.948 8.976 6.7C9.408 6.444 9.908 6.316 10.476 6.316C11.06 6.316 11.588 6.456 12.06 6.736C12.54 7.016 12.916 7.412 13.188 7.924C13.46 8.428 13.596 9.016 13.596 9.688C13.596 10.352 13.46 10.944 13.188 11.464C12.916 11.984 12.54 12.388 12.06 12.676C11.588 12.964 11.06 13.108 10.476 13.108C9.916 13.108 9.42 12.984 8.988 12.736C8.564 12.48 8.24 12.164 8.016 11.788V16.12H6.924V6.424H8.016V7.636ZM12.48 9.688C12.48 9.192 12.38 8.76 12.18 8.392C11.98 8.024 11.708 7.744 11.364 7.552C11.028 7.36 10.656 7.264 10.248 7.264C9.848 7.264 9.476 7.364 9.132 7.564C8.796 7.756 8.524 8.04 8.316 8.416C8.116 8.784 8.016 9.212 8.016 9.7C8.016 10.196 8.116 10.632 8.316 11.008C8.524 11.376 8.796 11.66 9.132 11.86C9.476 12.052 9.848 12.148 10.248 12.148C10.656 12.148 11.028 12.052 11.364 11.86C11.708 11.66 11.98 11.376 12.18 11.008C12.38 10.632 12.48 10.192 12.48 9.688ZM16.3654 4.12V13H15.2734V4.12H16.3654ZM18.0585 9.688C18.0585 9.016 18.1945 8.428 18.4665 7.924C18.7385 7.412 19.1105 7.016 19.5825 6.736C20.0625 6.456 20.5945 6.316 21.1785 6.316C21.7545 6.316 22.2545 6.44 22.6785 6.688C23.1025 6.936 23.4185 7.248 23.6265 7.624V6.424H24.7305V13H23.6265V11.776C23.4105 12.16 23.0865 12.48 22.6545 12.736C22.2305 12.984 21.7345 13.108 21.1665 13.108C20.5825 13.108 20.0545 12.964 19.5825 12.676C19.1105 12.388 18.7385 11.984 18.4665 11.464C18.1945 10.944 18.0585 10.352 18.0585 9.688ZM23.6265 9.7C23.6265 9.204 23.5265 8.772 23.3265 8.404C23.1265 8.036 22.8545 7.756 22.5105 7.564C22.1745 7.364 21.8025 7.264 21.3945 7.264C20.9865 7.264 20.6145 7.36 20.2785 7.552C19.9425 7.744 19.6745 8.024 19.4745 8.392C19.2745 8.76 19.1745 9.192 19.1745 9.688C19.1745 10.192 19.2745 10.632 19.4745 11.008C19.6745 11.376 19.9425 11.66 20.2785 11.86C20.6145 12.052 20.9865 12.148 21.3945 12.148C21.8025 12.148 22.1745 12.052 22.5105 11.86C22.8545 11.66 23.1265 11.376 23.3265 11.008C23.5265 10.632 23.6265 10.196 23.6265 9.7ZM30.0199 6.304C30.8199 6.304 31.4679 6.548 31.9639 7.036C32.4599 7.516 32.7079 8.212 32.7079 9.124V13H31.6279V9.28C31.6279 8.624 31.4639 8.124 31.1359 7.78C30.8079 7.428 30.3599 7.252 29.7919 7.252C29.2159 7.252 28.7559 7.432 28.4119 7.792C28.0759 8.152 27.9079 8.676 27.9079 9.364V13H26.8159V6.424H27.9079V7.36C28.1239 7.024 28.4159 6.764 28.7839 6.58C29.1599 6.396 29.5719 6.304 30.0199 6.304ZM37.7029 5.32V4.324H39.9589V13H38.8549V5.32H37.7029Z" fill="#776557"/>
<path d="M95.016 7.636C95.232 7.26 95.552 6.948 95.976 6.7C96.408 6.444 96.908 6.316 97.476 6.316C98.06 6.316 98.588 6.456 99.06 6.736C99.54 7.016 99.916 7.412 100.188 7.924C100.46 8.428 100.596 9.016 100.596 9.688C100.596 10.352 100.46 10.944 100.188 11.464C99.916 11.984 99.54 12.388 99.06 12.676C98.588 12.964 98.06 13.108 97.476 13.108C96.916 13.108 96.42 12.984 95.988 12.736C95.564 12.48 95.24 12.164 95.016 11.788V16.12H93.924V6.424H95.016V7.636ZM99.48 9.688C99.48 9.192 99.38 8.76 99.18 8.392C98.98 8.024 98.708 7.744 98.364 7.552C98.028 7.36 97.656 7.264 97.248 7.264C96.848 7.264 96.476 7.364 96.132 7.564C95.796 7.756 95.524 8.04 95.316 8.416C95.116 8.784 95.016 9.212 95.016 9.7C95.016 10.196 95.116 10.632 95.316 11.008C95.524 11.376 95.796 11.66 96.132 11.86C96.476 12.052 96.848 12.148 97.248 12.148C97.656 12.148 98.028 12.052 98.364 11.86C98.708 11.66 98.98 11.376 99.18 11.008C99.38 10.632 99.48 10.192 99.48 9.688ZM103.365 4.12V13H102.273V4.12H103.365ZM105.058 9.688C105.058 9.016 105.194 8.428 105.466 7.924C105.738 7.412 106.11 7.016 106.582 6.736C107.062 6.456 107.594 6.316 108.178 6.316C108.754 6.316 109.254 6.44 109.678 6.688C110.102 6.936 110.418 7.248 110.626 7.624V6.424H111.73V13H110.626V11.776C110.41 12.16 110.086 12.48 109.654 12.736C109.23 12.984 108.734 13.108 108.166 13.108C107.582 13.108 107.054 12.964 106.582 12.676C106.11 12.388 105.738 11.984 105.466 11.464C105.194 10.944 105.058 10.352 105.058 9.688ZM110.626 9.7C110.626 9.204 110.526 8.772 110.326 8.404C110.126 8.036 109.854 7.756 109.51 7.564C109.174 7.364 108.802 7.264 108.394 7.264C107.986 7.264 107.614 7.36 107.278 7.552C106.942 7.744 106.674 8.024 106.474 8.392C106.274 8.76 106.174 9.192 106.174 9.688C106.174 10.192 106.274 10.632 106.474 11.008C106.674 11.376 106.942 11.66 107.278 11.86C107.614 12.052 107.986 12.148 108.394 12.148C108.802 12.148 109.174 12.052 109.51 11.86C109.854 11.66 110.126 11.376 110.326 11.008C110.526 10.632 110.626 10.196 110.626 9.7ZM117.02 6.304C117.82 6.304 118.468 6.548 118.964 7.036C119.46 7.516 119.708 8.212 119.708 9.124V13H118.628V9.28C118.628 8.624 118.464 8.124 118.136 7.78C117.808 7.428 117.36 7.252 116.792 7.252C116.216 7.252 115.756 7.432 115.412 7.792C115.076 8.152 114.908 8.676 114.908 9.364V13H113.816V6.424H114.908V7.36C115.124 7.024 115.416 6.764 115.784 6.58C116.16 6.396 116.572 6.304 117.02 6.304ZM124.859 12.124C125.875 11.308 126.671 10.64 127.247 10.12C127.823 9.592 128.307 9.044 128.699 8.476C129.099 7.9 129.299 7.336 129.299 6.784C129.299 6.264 129.171 5.856 128.915 5.56C128.667 5.256 128.263 5.104 127.703 5.104C127.159 5.104 126.735 5.276 126.431 5.62C126.135 5.956 125.975 6.408 125.951 6.976H124.895C124.927 6.08 125.199 5.388 125.711 4.9C126.223 4.412 126.883 4.168 127.691 4.168C128.515 4.168 129.167 4.396 129.647 4.852C130.135 5.308 130.379 5.936 130.379 6.736C130.379 7.4 130.179 8.048 129.779 8.68C129.387 9.304 128.939 9.856 128.435 10.336C127.931 10.808 127.287 11.36 126.503 11.992H130.631V12.904H124.859V12.124Z" fill="#776557"/>
<path d="M185.016 7.636C185.232 7.26 185.552 6.948 185.976 6.7C186.408 6.444 186.908 6.316 187.476 6.316C188.06 6.316 188.588 6.456 189.06 6.736C189.54 7.016 189.916 7.412 190.188 7.924C190.46 8.428 190.596 9.016 190.596 9.688C190.596 10.352 190.46 10.944 190.188 11.464C189.916 11.984 189.54 12.388 189.06 12.676C188.588 12.964 188.06 13.108 187.476 13.108C186.916 13.108 186.42 12.984 185.988 12.736C185.564 12.48 185.24 12.164 185.016 11.788V16.12H183.924V6.424H185.016V7.636ZM189.48 9.688C189.48 9.192 189.38 8.76 189.18 8.392C188.98 8.024 188.708 7.744 188.364 7.552C188.028 7.36 187.656 7.264 187.248 7.264C186.848 7.264 186.476 7.364 186.132 7.564C185.796 7.756 185.524 8.04 185.316 8.416C185.116 8.784 185.016 9.212 185.016 9.7C185.016 10.196 185.116 10.632 185.316 11.008C185.524 11.376 185.796 11.66 186.132 11.86C186.476 12.052 186.848 12.148 187.248 12.148C187.656 12.148 188.028 12.052 188.364 11.86C188.708 11.66 188.98 11.376 189.18 11.008C189.38 10.632 189.48 10.192 189.48 9.688ZM193.365 4.12V13H192.273V4.12H193.365ZM195.058 9.688C195.058 9.016 195.194 8.428 195.466 7.924C195.738 7.412 196.11 7.016 196.582 6.736C197.062 6.456 197.594 6.316 198.178 6.316C198.754 6.316 199.254 6.44 199.678 6.688C200.102 6.936 200.418 7.248 200.626 7.624V6.424H201.73V13H200.626V11.776C200.41 12.16 200.086 12.48 199.654 12.736C199.23 12.984 198.734 13.108 198.166 13.108C197.582 13.108 197.054 12.964 196.582 12.676C196.11 12.388 195.738 11.984 195.466 11.464C195.194 10.944 195.058 10.352 195.058 9.688ZM200.626 9.7C200.626 9.204 200.526 8.772 200.326 8.404C200.126 8.036 199.854 7.756 199.51 7.564C199.174 7.364 198.802 7.264 198.394 7.264C197.986 7.264 197.614 7.36 197.278 7.552C196.942 7.744 196.674 8.024 196.474 8.392C196.274 8.76 196.174 9.192 196.174 9.688C196.174 10.192 196.274 10.632 196.474 11.008C196.674 11.376 196.942 11.66 197.278 11.86C197.614 12.052 197.986 12.148 198.394 12.148C198.802 12.148 199.174 12.052 199.51 11.86C199.854 11.66 200.126 11.376 200.326 11.008C200.526 10.632 200.626 10.196 200.626 9.7ZM207.02 6.304C207.82 6.304 208.468 6.548 208.964 7.036C209.46 7.516 209.708 8.212 209.708 9.124V13H208.628V9.28C208.628 8.624 208.464 8.124 208.136 7.78C207.808 7.428 207.36 7.252 206.792 7.252C206.216 7.252 205.756 7.432 205.412 7.792C205.076 8.152 204.908 8.676 204.908 9.364V13H203.816V6.424H204.908V7.36C205.124 7.024 205.416 6.764 205.784 6.58C206.16 6.396 206.572 6.304 207.02 6.304ZM214.967 6.508C215.023 5.772 215.307 5.196 215.819 4.78C216.331 4.364 216.995 4.156 217.811 4.156C218.355 4.156 218.823 4.256 219.215 4.456C219.615 4.648 219.915 4.912 220.115 5.248C220.323 5.584 220.427 5.964 220.427 6.388C220.427 6.884 220.283 7.312 219.995 7.672C219.715 8.032 219.347 8.264 218.891 8.368V8.428C219.411 8.556 219.823 8.808 220.127 9.184C220.431 9.56 220.583 10.052 220.583 10.66C220.583 11.116 220.479 11.528 220.271 11.896C220.063 12.256 219.751 12.54 219.335 12.748C218.919 12.956 218.419 13.06 217.835 13.06C216.987 13.06 216.291 12.84 215.747 12.4C215.203 11.952 214.899 11.32 214.835 10.504H215.891C215.947 10.984 216.143 11.376 216.479 11.68C216.815 11.984 217.263 12.136 217.823 12.136C218.383 12.136 218.807 11.992 219.095 11.704C219.391 11.408 219.539 11.028 219.539 10.564C219.539 9.964 219.339 9.532 218.939 9.268C218.539 9.004 217.935 8.872 217.127 8.872H216.851V7.96H217.139C217.875 7.952 218.431 7.832 218.807 7.6C219.183 7.36 219.371 6.992 219.371 6.496C219.371 6.072 219.231 5.732 218.951 5.476C218.679 5.22 218.287 5.092 217.775 5.092C217.279 5.092 216.879 5.22 216.575 5.476C216.271 5.732 216.091 6.076 216.035 6.508H214.967Z" fill="#776557"/>
<path d="M266.105 7.636C266.321 7.26 266.641 6.948 267.065 6.7C267.497 6.444 267.997 6.316 268.565 6.316C269.149 6.316 269.677 6.456 270.149 6.736C270.629 7.016 271.005 7.412 271.277 7.924C271.549 8.428 271.685 9.016 271.685 9.688C271.685 10.352 271.549 10.944 271.277 11.464C271.005 11.984 270.629 12.388 270.149 12.676C269.677 12.964 269.149 13.108 268.565 13.108C268.005 13.108 267.509 12.984 267.077 12.736C266.653 12.48 266.329 12.164 266.105 11.788V16.12H265.013V6.424H266.105V7.636ZM270.569 9.688C270.569 9.192 270.469 8.76 270.269 8.392C270.069 8.024 269.797 7.744 269.453 7.552C269.117 7.36 268.745 7.264 268.337 7.264C267.937 7.264 267.565 7.364 267.221 7.564C266.885 7.756 266.613 8.04 266.405 8.416C266.205 8.784 266.105 9.212 266.105 9.7C266.105 10.196 266.205 10.632 266.405 11.008C266.613 11.376 266.885 11.66 267.221 11.86C267.565 12.052 267.937 12.148 268.337 12.148C268.745 12.148 269.117 12.052 269.453 11.86C269.797 11.66 270.069 11.376 270.269 11.008C270.469 10.632 270.569 10.192 270.569 9.688ZM274.454 7.492C274.646 7.116 274.918 6.824 275.27 6.616C275.63 6.408 276.066 6.304 276.578 6.304V7.432H276.29C275.066 7.432 274.454 8.096 274.454 9.424V13H273.362V6.424H274.454V7.492ZM284.079 9.46C284.079 9.668 284.067 9.888 284.043 10.12H278.787C278.827 10.768 279.047 11.276 279.447 11.644C279.855 12.004 280.347 12.184 280.923 12.184C281.395 12.184 281.787 12.076 282.099 11.86C282.419 11.636 282.643 11.34 282.771 10.972H283.947C283.771 11.604 283.419 12.12 282.891 12.52C282.363 12.912 281.707 13.108 280.923 13.108C280.299 13.108 279.739 12.968 279.243 12.688C278.755 12.408 278.371 12.012 278.091 11.5C277.811 10.98 277.671 10.38 277.671 9.7C277.671 9.02 277.807 8.424 278.079 7.912C278.351 7.4 278.731 7.008 279.219 6.736C279.715 6.456 280.283 6.316 280.923 6.316C281.547 6.316 282.099 6.452 282.579 6.724C283.059 6.996 283.427 7.372 283.683 7.852C283.947 8.324 284.079 8.86 284.079 9.46ZM282.951 9.232C282.951 8.816 282.859 8.46 282.675 8.164C282.491 7.86 282.239 7.632 281.919 7.48C281.607 7.32 281.259 7.24 280.875 7.24C280.323 7.24 279.851 7.416 279.459 7.768C279.075 8.12 278.855 8.608 278.799 9.232H282.951ZM293.668 6.304C294.18 6.304 294.636 6.412 295.036 6.628C295.436 6.836 295.752 7.152 295.984 7.576C296.216 8 296.332 8.516 296.332 9.124V13H295.252V9.28C295.252 8.624 295.088 8.124 294.76 7.78C294.44 7.428 294.004 7.252 293.452 7.252C292.884 7.252 292.432 7.436 292.096 7.804C291.76 8.164 291.592 8.688 291.592 9.376V13H290.512V9.28C290.512 8.624 290.348 8.124 290.02 7.78C289.7 7.428 289.264 7.252 288.712 7.252C288.144 7.252 287.692 7.436 287.356 7.804C287.02 8.164 286.852 8.688 286.852 9.376V13H285.76V6.424H286.852V7.372C287.068 7.028 287.356 6.764 287.716 6.58C288.084 6.396 288.488 6.304 288.928 6.304C289.48 6.304 289.968 6.428 290.392 6.676C290.816 6.924 291.132 7.288 291.34 7.768C291.524 7.304 291.828 6.944 292.252 6.688C292.676 6.432 293.148 6.304 293.668 6.304ZM298.927 5.356C298.719 5.356 298.543 5.284 298.399 5.14C298.255 4.996 298.183 4.82 298.183 4.612C298.183 4.404 298.255 4.228 298.399 4.084C298.543 3.94 298.719 3.868 298.927 3.868C299.127 3.868 299.295 3.94 299.431 4.084C299.575 4.228 299.647 4.404 299.647 4.612C299.647 4.82 299.575 4.996 299.431 5.14C299.295 5.284 299.127 5.356 298.927 5.356ZM299.455 6.424V13H298.363V6.424H299.455ZM307.388 6.424V13H306.296V12.028C306.088 12.364 305.796 12.628 305.42 12.82C305.052 13.004 304.644 13.096 304.196 13.096C303.684 13.096 303.224 12.992 302.816 12.784C302.408 12.568 302.084 12.248 301.844 11.824C301.612 11.4 301.496 10.884 301.496 10.276V6.424H302.576V10.132C302.576 10.78 302.74 11.28 303.068 11.632C303.396 11.976 303.844 12.148 304.412 12.148C304.996 12.148 305.456 11.968 305.792 11.608C306.128 11.248 306.296 10.724 306.296 10.036V6.424H307.388ZM317.38 6.304C317.892 6.304 318.348 6.412 318.748 6.628C319.148 6.836 319.464 7.152 319.696 7.576C319.928 8 320.044 8.516 320.044 9.124V13H318.964V9.28C318.964 8.624 318.8 8.124 318.472 7.78C318.152 7.428 317.716 7.252 317.164 7.252C316.596 7.252 316.144 7.436 315.808 7.804C315.472 8.164 315.304 8.688 315.304 9.376V13H314.224V9.28C314.224 8.624 314.06 8.124 313.732 7.78C313.412 7.428 312.976 7.252 312.424 7.252C311.856 7.252 311.404 7.436 311.068 7.804C310.732 8.164 310.564 8.688 310.564 9.376V13H309.472V6.424H310.564V7.372C310.78 7.028 311.068 6.764 311.428 6.58C311.796 6.396 312.2 6.304 312.64 6.304C313.192 6.304 313.68 6.428 314.104 6.676C314.528 6.924 314.844 7.288 315.052 7.768C315.236 7.304 315.54 6.944 315.964 6.688C316.388 6.432 316.86 6.304 317.38 6.304Z" fill="#776557"/>
<path d="M203 27L222.972 41.5106L215.343 64.9894H190.657L183.028 41.5106L203 27Z" fill="#E5E5E5"/>
<path d="M209 44H208V42C208 39.24 205.76 37 203 37C200.24 37 198 39.24 198 42V44H197C195.9 44 195 44.9 195 46V56C195 57.1 195.9 58 197 58H209C210.1 58 211 57.1 211 56V46C211 44.9 210.1 44 209 44ZM203 53C201.9 53 201 52.1 201 51C201 49.9 201.9 49 203 49C204.1 49 205 49.9 205 51C205 52.1 204.1 53 203 53ZM206.1 44H199.9V42C199.9 40.29 201.29 38.9 203 38.9C204.71 38.9 206.1 40.29 206.1 42V44Z" fill="#C4C4C4"/>
<path d="M292 27L311.972 41.5106L304.343 64.9894H279.657L272.028 41.5106L292 27Z" fill="#E5E5E5"/>
<path d="M298 44H297V42C297 39.24 294.76 37 292 37C289.24 37 287 39.24 287 42V44H286C284.9 44 284 44.9 284 46V56C284 57.1 284.9 58 286 58H298C299.1 58 300 57.1 300 56V46C300 44.9 299.1 44 298 44ZM292 53C290.9 53 290 52.1 290 51C290 49.9 290.9 49 292 49C293.1 49 294 49.9 294 51C294 52.1 293.1 53 292 53ZM295.1 44H288.9V42C288.9 40.29 290.29 38.9 292 38.9C293.71 38.9 295.1 40.29 295.1 42V44Z" fill="#C4C4C4"/>
<path d="M41 48L91 48" stroke="#62AD00" stroke-width="2"/>
<path d="M4.6156 41.7016L24 27.618L43.3844 41.7016L35.9802 64.4894H12.0198L4.6156 41.7016Z" stroke="#62AD00"/>
<path d="M21 52.2L16.8 48L15.4 49.4L21 55L33 43L31.6 41.6L21 52.2Z" fill="#62AD00"/>
<path d="M134 48L185 48" stroke="#C4C4C4" stroke-width="2"/>
<path d="M222 48L273 48" stroke="#C4C4C4" stroke-width="2"/>
<path d="M113 22L137.727 39.9656L128.282 69.0344H97.7176L88.2725 39.9656L113 22Z" fill="#80AE09"/>
<path d="M108.753 54.9832C105.92 54.6781 100.155 51.2078 102.321 46.4007C100.794 42.8439 105.936 40.2812 108.873 41.2093C115.334 43.2513 115.081 48.3173 124.826 47.4762C121.258 51.929 116.156 55.8079 108.753 54.9832Z" stroke="white" stroke-width="2" stroke-miterlimit="10" stroke-linecap="round" stroke-linejoin="round"/>
<path d="M99.8149 50.4876C99.9601 44.7414 105.379 45.886 109.911 47.4409" stroke="white" stroke-width="2" stroke-miterlimit="10" stroke-linecap="round" stroke-linejoin="round"/>
</g>
<defs>
<filter id="filter0_d_344:1559" x="0.027832" y="3.86804" width="324.016" height="73.4844" filterUnits="userSpaceOnUse" color-interpolation-filters="sRGB">
<feFlood flood-opacity="0" result="BackgroundImageFix"/>
<feColorMatrix in="SourceAlpha" type="matrix" values="0 0 0 0 0 0 0 0 0 0 0 0 0 0 0 0 0 0 127 0" result="hardAlpha"/>
<feOffset dy="4"/>
<feGaussianBlur stdDeviation="2"/>
<feComposite in2="hardAlpha" operator="out"/>
<feColorMatrix type="matrix" values="0 0 0 0 0 0 0 0 0 0 0 0 0 0 0 0 0 0 0.25 0"/>
<feBlend mode="normal" in2="BackgroundImageFix" result="effect1_dropShadow_344:1559"/>
<feBlend mode="normal" in="SourceGraphic" in2="effect1_dropShadow_344:1559" result="shape"/>
</filter>
</defs>
</svg>
