<svg width="50" height="42" viewBox="0 0 50 42" fill="none" xmlns="http://www.w3.org/2000/svg">
<path d="M27.3497 8.81536L27.4673 9.0923L27.767 9.11815L33.7801 9.63666L29.2223 13.5924L28.9949 13.7897L29.0629 14.0829L30.4258 19.9608L25.2584 16.8419L25 16.686L24.7416 16.8419L19.5761 19.9596L20.9469 14.0836L21.0155 13.7897L20.7874 13.5921L16.2231 9.63803L22.2323 9.12821L22.5327 9.10272L22.6504 8.82511L25.0003 3.28048L27.3497 8.81536ZM20.7531 17.5562L20.4833 18.7109L21.4984 18.098L24.9998 15.9842L28.5113 18.1078L29.527 18.7221L29.2569 17.5662L28.3255 13.58L31.4176 10.8977L32.3096 10.1239L31.1332 10.0219L27.0531 9.66789L25.4605 5.90511L24.9992 4.81541L24.5393 5.90566L22.9565 9.65793L18.8768 10.0119L17.7004 10.1139L18.5924 10.8877L21.6845 13.57L20.7531 17.5562Z" fill="#236348" stroke="#236348"/>
<path d="M5.608 37L3.616 33.58H2.296V37H1.204V28.636H3.904C4.536 28.636 5.068 28.744 5.5 28.96C5.94 29.176 6.268 29.468 6.484 29.836C6.7 30.204 6.808 30.624 6.808 31.096C6.808 31.672 6.64 32.18 6.304 32.62C5.976 33.06 5.48 33.352 4.816 33.496L6.916 37H5.608ZM2.296 32.704H3.904C4.496 32.704 4.94 32.56 5.236 32.272C5.532 31.976 5.68 31.584 5.68 31.096C5.68 30.6 5.532 30.216 5.236 29.944C4.948 29.672 4.504 29.536 3.904 29.536H2.296V32.704ZM8.33678 33.688C8.33678 33.016 8.47278 32.428 8.74478 31.924C9.01678 31.412 9.38878 31.016 9.86078 30.736C10.3408 30.456 10.8728 30.316 11.4568 30.316C12.0328 30.316 12.5328 30.44 12.9568 30.688C13.3808 30.936 13.6968 31.248 13.9048 31.624V30.424H15.0088V37H13.9048V35.776C13.6888 36.16 13.3648 36.48 12.9328 36.736C12.5088 36.984 12.0128 37.108 11.4448 37.108C10.8608 37.108 10.3328 36.964 9.86078 36.676C9.38878 36.388 9.01678 35.984 8.74478 35.464C8.47278 34.944 8.33678 34.352 8.33678 33.688ZM13.9048 33.7C13.9048 33.204 13.8048 32.772 13.6048 32.404C13.4048 32.036 13.1328 31.756 12.7888 31.564C12.4528 31.364 12.0808 31.264 11.6728 31.264C11.2648 31.264 10.8928 31.36 10.5568 31.552C10.2208 31.744 9.95278 32.024 9.75278 32.392C9.55278 32.76 9.45278 33.192 9.45278 33.688C9.45278 34.192 9.55278 34.632 9.75278 35.008C9.95278 35.376 10.2208 35.66 10.5568 35.86C10.8928 36.052 11.2648 36.148 11.6728 36.148C12.0808 36.148 12.4528 36.052 12.7888 35.86C13.1328 35.66 13.4048 35.376 13.6048 35.008C13.8048 34.632 13.9048 34.196 13.9048 33.7ZM20.2982 30.304C21.0982 30.304 21.7462 30.548 22.2422 31.036C22.7382 31.516 22.9862 32.212 22.9862 33.124V37H21.9062V33.28C21.9062 32.624 21.7422 32.124 21.4142 31.78C21.0862 31.428 20.6382 31.252 20.0702 31.252C19.4942 31.252 19.0342 31.432 18.6902 31.792C18.3542 32.152 18.1862 32.676 18.1862 33.364V37H17.0942V30.424H18.1862V31.36C18.4022 31.024 18.6942 30.764 19.0622 30.58C19.4382 30.396 19.8502 30.304 20.2982 30.304ZM28.6819 37L26.1019 34.096V37H25.0099V28.12H26.1019V33.34L28.6339 30.424H30.1579L27.0619 33.7L30.1699 37H28.6819ZM31.9897 29.356C31.7817 29.356 31.6057 29.284 31.4617 29.14C31.3177 28.996 31.2457 28.82 31.2457 28.612C31.2457 28.404 31.3177 28.228 31.4617 28.084C31.6057 27.94 31.7817 27.868 31.9897 27.868C32.1897 27.868 32.3577 27.94 32.4937 28.084C32.6377 28.228 32.7097 28.404 32.7097 28.612C32.7097 28.82 32.6377 28.996 32.4937 29.14C32.3577 29.284 32.1897 29.356 31.9897 29.356ZM32.5177 30.424V37H31.4257V30.424H32.5177ZM37.8228 30.304C38.6228 30.304 39.2708 30.548 39.7668 31.036C40.2628 31.516 40.5108 32.212 40.5108 33.124V37H39.4308V33.28C39.4308 32.624 39.2668 32.124 38.9388 31.78C38.6108 31.428 38.1628 31.252 37.5948 31.252C37.0188 31.252 36.5588 31.432 36.2148 31.792C35.8788 32.152 35.7108 32.676 35.7108 33.364V37H34.6188V30.424H35.7108V31.36C35.9268 31.024 36.2188 30.764 36.5868 30.58C36.9628 30.396 37.3748 30.304 37.8228 30.304ZM45.2466 30.316C45.8146 30.316 46.3106 30.44 46.7346 30.688C47.1666 30.936 47.4866 31.248 47.6946 31.624V30.424H48.7986V37.144C48.7986 37.744 48.6706 38.276 48.4146 38.74C48.1586 39.212 47.7906 39.58 47.3106 39.844C46.8386 40.108 46.2866 40.24 45.6546 40.24C44.7906 40.24 44.0706 40.036 43.4946 39.628C42.9186 39.22 42.5786 38.664 42.4746 37.96H43.5546C43.6746 38.36 43.9226 38.68 44.2986 38.92C44.6746 39.168 45.1266 39.292 45.6546 39.292C46.2546 39.292 46.7426 39.104 47.1186 38.728C47.5026 38.352 47.6946 37.824 47.6946 37.144V35.764C47.4786 36.148 47.1586 36.468 46.7346 36.724C46.3106 36.98 45.8146 37.108 45.2466 37.108C44.6626 37.108 44.1306 36.964 43.6506 36.676C43.1786 36.388 42.8066 35.984 42.5346 35.464C42.2626 34.944 42.1266 34.352 42.1266 33.688C42.1266 33.016 42.2626 32.428 42.5346 31.924C42.8066 31.412 43.1786 31.016 43.6506 30.736C44.1306 30.456 44.6626 30.316 45.2466 30.316ZM47.6946 33.7C47.6946 33.204 47.5946 32.772 47.3946 32.404C47.1946 32.036 46.9226 31.756 46.5786 31.564C46.2426 31.364 45.8706 31.264 45.4626 31.264C45.0546 31.264 44.6826 31.36 44.3466 31.552C44.0106 31.744 43.7426 32.024 43.5426 32.392C43.3426 32.76 43.2426 33.192 43.2426 33.688C43.2426 34.192 43.3426 34.632 43.5426 35.008C43.7426 35.376 44.0106 35.66 44.3466 35.86C44.6826 36.052 45.0546 36.148 45.4626 36.148C45.8706 36.148 46.2426 36.052 46.5786 35.86C46.9226 35.66 47.1946 35.376 47.3946 35.008C47.5946 34.632 47.6946 34.196 47.6946 33.7Z" fill="#236348"/>
</svg>
