<svg width="322" height="222" viewBox="0 0 322 222" fill="none" xmlns="http://www.w3.org/2000/svg">
<path d="M202.317 221.937C246.772 221.937 282.81 219.47 282.81 216.426C282.81 213.383 246.772 210.916 202.317 210.916C157.863 210.916 121.825 213.383 121.825 216.426C121.825 219.47 157.863 221.937 202.317 221.937Z" fill="#B59B00"/>
<path d="M279.797 178.65C307.98 176.728 309.923 165.56 309.923 165.56C309.923 165.56 247.073 163.993 181.122 163.916C107.516 163.83 35.9159 167.896 31.9436 172.448C26.9418 178.173 123.626 182.233 126.344 179.443C128.463 177.27 121.401 175.777 114.341 173.94C109.907 172.786 118.839 164.401 200.703 171.4C234.502 174.291 257.908 180.143 279.797 178.65Z" fill="#907B00"/>
<path d="M134.485 174.529C140.676 174.529 145.694 173.767 145.694 172.827C145.694 171.886 140.676 171.124 134.485 171.124C128.294 171.124 123.276 171.886 123.276 172.827C123.276 173.767 128.294 174.529 134.485 174.529Z" fill="#907B00"/>
<path d="M285.988 151.534C285.994 156.058 285.583 160.573 284.759 165.025C269.651 164.739 248.888 164.399 225.706 164.171C224.986 159.996 224.626 155.769 224.632 151.534C224.632 125.03 238.366 103.545 255.311 103.545C272.255 103.545 285.988 125.03 285.988 151.534Z" fill="#C8D9D2"/>
<path d="M110.512 165.086C77.6287 166.239 50.876 168.143 38.7675 170.319C43.0049 163.749 57.6404 152.227 76.0646 149.522C96.3296 146.546 107.902 153.093 110.512 165.086Z" fill="#C8D9D2"/>
<path d="M311.095 158.36C311.097 160.806 310.689 163.237 309.888 165.555H309.639H309.626C304.898 165.439 244.439 163.992 181.122 163.92C153.658 163.889 126.474 164.44 102.977 165.37C104.536 162.891 108.01 161.165 112.046 161.165C114.017 161.165 115.859 161.577 117.4 162.29C116.972 159.775 117.404 157.194 118.627 154.942C119.85 152.69 121.798 150.893 124.17 149.827C126.542 148.76 129.208 148.484 131.757 149.04C134.306 149.596 136.597 150.953 138.278 152.904C138.357 152.995 138.434 153.088 138.51 153.182C138.557 153.089 138.604 152.996 138.653 152.904C143.283 144.079 154.613 137.838 167.858 137.838C182.302 137.838 194.471 145.258 198.151 155.366C200.29 153.409 203.093 152.29 206.025 152.223C208.956 152.156 211.81 153.146 214.04 155.003C219.414 149.647 227.576 146.23 236.715 146.23C246.784 146.23 255.668 150.383 260.943 156.698C261.859 144.54 272.721 134.943 285.987 134.943C299.853 134.936 311.095 145.421 311.095 158.36Z" fill="#B59B00"/>
<path d="M300.533 31.7608H200.959C200.959 28.712 204.255 23.8015 220.261 29.7796C220.261 29.7796 220.671 22.8628 228.803 25.1563C238.388 27.859 231.091 17.5076 239.362 15.9495C243.653 15.1414 246.012 17.4202 247.711 19.2976C248.527 8.60612 258.314 0.164062 270.268 0.164062C282.756 0.164062 292.878 9.37956 292.878 20.7484C292.878 21.4458 292.84 22.1426 292.764 22.836C294.042 21.3116 296.87 19.9481 300.728 20.0364C300.816 20.0364 300.905 20.0399 300.994 20.0468C308.809 20.4845 308.364 31.7608 300.533 31.7608Z" fill="#E5F1EF"/>
<path d="M34.1054 202.713L19.8636 189.408C19.5144 189.082 19.1027 188.826 18.6522 188.655C18.2016 188.485 17.7209 188.402 17.2376 188.413C16.7544 188.424 16.278 188.527 15.8358 188.718C15.3936 188.908 14.9943 189.182 14.6606 189.523L5.35049 199.04C2.40584 202.051 4.59327 207.038 8.85906 207.038H34.8076L34.1054 202.713Z" fill="white" stroke="#DBE5E5" stroke-width="6" stroke-miterlimit="10"/>
<path d="M69.7018 203.69L46.6864 206.068L40.2686 188.593L58.4455 182.69C59.2371 182.433 60.1002 182.486 60.8522 182.839C61.6043 183.191 62.1864 183.815 62.4754 184.579L69.7018 203.69Z" fill="#A0505A"/>
<path d="M75.8199 195.145L76.1746 194.753C76.0755 194.899 75.9561 195.031 75.8199 195.145V195.145Z" stroke="#FFE700" stroke-width="5" stroke-linecap="round" stroke-linejoin="round"/>
<path d="M91.468 197.016L100.579 208.609C101.352 209.592 100.086 211.81 97.7501 213.554C95.4146 215.297 92.8947 215.921 92.1224 214.938L83.0109 203.345C81.383 201.266 80.3806 198.785 80.1159 196.181L79.8596 193.737L77.3388 190.531C76.8751 189.94 77.1508 188.974 77.9595 188.368C78.7681 187.763 79.7931 187.757 80.2578 188.348L82.7777 191.553L85.13 192.432C87.6378 193.356 89.8324 194.944 91.468 197.016Z" fill="#423C52"/>
<path d="M38.3402 187.727L34.4495 196.582C33.9848 197.639 31.1954 197.486 28.2197 196.241C25.244 194.996 23.2073 193.127 23.671 192.073L27.5626 183.218C27.1335 184.277 29.1587 186.128 32.1184 187.365C35.0781 188.602 37.8481 188.76 38.3384 187.726L38.3402 187.727Z" stroke="#907B00" stroke-width="5" stroke-linecap="round" stroke-linejoin="round"/>
<path d="M38.3499 187.707L38.3393 187.727C37.849 188.761 35.0772 188.604 32.1193 187.366C29.1613 186.129 27.1344 184.279 27.5635 183.22C27.5658 183.212 27.5685 183.205 27.5715 183.198C28.0361 182.142 30.8247 182.294 33.8013 183.539C36.7778 184.784 38.8137 186.651 38.3499 187.707Z" stroke="#907B00" stroke-width="5" stroke-miterlimit="10" stroke-linecap="round"/>
<path d="M38.3555 187.574C39.0941 186.814 37.7869 184.435 35.436 182.262C33.085 180.089 30.5804 178.944 29.8419 179.705C29.1033 180.466 30.4105 182.844 32.7614 185.017C35.1124 187.19 37.617 188.335 38.3555 187.574Z" fill="white" stroke="#907B00" stroke-width="5" stroke-miterlimit="10" stroke-linecap="round"/>
<path d="M75.8199 195.144L76.1746 194.753C77.1925 193.258 76.4406 190.229 74.0288 188.665C71.6171 187.102 68.4641 187.6 67.447 189.098C67.447 189.098 67.447 189.098 67.447 189.104L67.2183 189.563C66.7475 190.976 68.183 192.673 70.35 194.078C72.5171 195.483 74.6672 196.112 75.8199 195.144ZM73.4685 189.485C74.0758 189.879 74.3879 190.463 74.1663 190.79C73.9446 191.117 73.2707 191.062 72.6589 190.668C72.0471 190.275 71.7394 189.69 71.9611 189.363C72.1828 189.036 72.8584 189.091 73.4667 189.485H73.4685Z" stroke="#FFE700" stroke-width="5" stroke-linecap="round" stroke-linejoin="round"/>
<path d="M72.6607 190.669C72.0533 190.274 71.7412 189.69 71.9629 189.363C72.1845 189.036 72.8584 189.092 73.4702 189.485C74.082 189.879 74.3897 190.464 74.168 190.791C73.9464 191.118 73.269 191.062 72.6607 190.669Z" stroke="#FFE700" stroke-width="5" stroke-linecap="round" stroke-linejoin="round"/>
<path d="M72.6607 190.669C72.0533 190.274 71.7412 189.69 71.9629 189.363C72.1845 189.036 72.8584 189.092 73.4702 189.485C74.082 189.879 74.3897 190.464 74.168 190.791C73.9464 191.118 73.269 191.062 72.6607 190.669Z" stroke="#FFE700" stroke-width="5" stroke-linecap="round" stroke-linejoin="round"/>
<path d="M66.18 201.131L75.5123 186.579C75.6619 186.347 75.8739 186.16 76.1252 186.038C76.3765 185.916 76.6574 185.863 76.9371 185.887L82.3627 186.347" stroke="#FE552F" stroke-width="5" stroke-miterlimit="10" stroke-linecap="round"/>
<path d="M63.4065 204.26C61.9674 203.325 61.1623 201.984 61.4558 201.104L61.5826 200.848L67.2085 189.563C66.7377 190.977 68.1732 192.674 70.3403 194.079C72.5073 195.484 74.6672 196.113 75.8199 195.145L67.3398 204.576L67.1482 204.789C66.4265 205.397 64.8455 205.193 63.4065 204.26Z" stroke="#FFE700" stroke-width="5" stroke-linecap="round" stroke-linejoin="round"/>
<path d="M8.90161 207.356C8.90161 207.322 8.90161 207.288 8.90161 207.254C8.90161 204.501 11.4207 202.271 14.5276 202.271C15.6456 202.266 16.7428 202.566 17.6957 203.136C17.7756 201.7 18.2439 200.31 19.053 199.107C19.8622 197.905 20.9832 196.933 22.3021 196.291C23.6211 195.648 25.0909 195.358 26.5622 195.449C28.0335 195.541 29.4536 196.01 30.6784 196.811C31.4666 192.088 36.3584 188.452 42.2725 188.452C48.7373 188.452 53.9767 192.798 53.9767 198.157C53.9765 198.581 53.943 199.005 53.8765 199.425C54.2695 199.367 54.6663 199.338 55.0637 199.338C56.5098 199.338 57.9274 199.731 59.1571 200.474C60.3867 201.216 61.3796 202.279 62.0241 203.542L61.8769 203.577H67.7192C68.0519 201.744 69.0025 200.072 70.4201 198.827C71.8377 197.581 73.641 196.834 75.5438 196.702C77.4467 196.571 79.3399 197.064 80.9229 198.103C82.5059 199.141 83.688 200.666 84.2815 202.435C85.3571 201.889 86.539 201.573 87.7492 201.507C88.9594 201.44 90.1703 201.625 91.3018 202.049C92.4332 202.474 93.4595 203.127 94.3128 203.967C95.1661 204.807 95.8269 205.814 96.2516 206.922V207.355L8.90161 207.356Z" fill="#C8D9D2"/>
<path d="M98.0463 206.327V205.735C98.0463 205.378 97.901 205.036 97.6424 204.784C97.3838 204.531 97.0331 204.39 96.6675 204.39H94.4446C94.0789 204.39 93.7282 204.531 93.4696 204.784C93.2111 205.036 93.0658 205.378 93.0658 205.735V216.636C93.0658 216.993 93.211 217.335 93.4696 217.587C93.7281 217.84 94.0788 217.982 94.4446 217.982H96.6675C97.0332 217.982 97.3839 217.84 97.6425 217.587C97.901 217.335 98.0463 216.993 98.0463 216.636V216.044C98.0463 216.298 98.0976 216.55 98.1974 216.785C98.2973 217.021 98.4436 217.234 98.628 217.414C98.8124 217.594 99.0314 217.737 99.2723 217.834C99.5133 217.932 99.7716 217.982 100.032 217.982H101.284C102.204 217.982 103.088 217.625 103.739 216.99C104.39 216.354 104.756 215.492 104.756 214.594V213.262H107.669H107.747C108.582 213.262 109.255 212.332 109.255 211.185C109.255 210.038 108.578 209.109 107.747 209.109H107.669H104.756V207.777C104.756 206.878 104.39 206.016 103.739 205.381C103.088 204.746 102.204 204.389 101.284 204.389H100.032C99.7715 204.389 99.5132 204.439 99.2721 204.536C99.0311 204.634 98.8121 204.777 98.6277 204.957C98.4432 205.137 98.2969 205.35 98.1972 205.586C98.0974 205.821 98.0461 206.073 98.0463 206.327ZM108.154 209.723C108.753 209.723 109.239 210.377 109.239 211.184C109.239 211.992 108.753 212.644 108.154 212.644C107.556 212.644 107.068 211.99 107.068 211.184C107.068 210.379 107.552 209.725 108.153 209.725L108.154 209.723ZM104.852 213.257C104 213.257 103.31 212.329 103.31 211.181C103.31 210.033 104 209.105 104.852 209.105" fill="white"/>
<path d="M104.852 213.257C104 213.257 103.31 212.329 103.31 211.181C103.31 210.033 104 209.105 104.852 209.105M98.0463 206.327V205.735C98.0463 205.378 97.901 205.036 97.6424 204.784C97.3838 204.531 97.0331 204.39 96.6675 204.39H94.4446C94.0789 204.39 93.7282 204.531 93.4696 204.784C93.2111 205.036 93.0658 205.378 93.0658 205.735V216.636C93.0658 216.993 93.211 217.335 93.4696 217.587C93.7281 217.84 94.0788 217.982 94.4446 217.982H96.6675C97.0332 217.982 97.3839 217.84 97.6425 217.587C97.901 217.335 98.0463 216.993 98.0463 216.636V216.044C98.0463 216.298 98.0976 216.55 98.1974 216.785C98.2973 217.021 98.4436 217.234 98.628 217.414C98.8124 217.594 99.0314 217.737 99.2723 217.834C99.5133 217.932 99.7716 217.982 100.032 217.982H101.284C102.204 217.982 103.088 217.625 103.739 216.99C104.39 216.354 104.756 215.492 104.756 214.594V213.262H107.669H107.747C108.582 213.262 109.255 212.332 109.255 211.185C109.255 210.038 108.578 209.109 107.747 209.109H107.669H104.756V207.777C104.756 206.878 104.39 206.016 103.739 205.381C103.088 204.746 102.204 204.389 101.284 204.389H100.032C99.7715 204.389 99.5132 204.439 99.2721 204.536C99.0311 204.634 98.8121 204.777 98.6277 204.957C98.4432 205.137 98.2969 205.35 98.1972 205.586C98.0974 205.821 98.0461 206.073 98.0463 206.327V206.327ZM108.154 209.723C108.753 209.723 109.239 210.377 109.239 211.184C109.239 211.992 108.753 212.644 108.154 212.644C107.556 212.644 107.068 211.99 107.068 211.184C107.068 210.379 107.552 209.725 108.153 209.725L108.154 209.723Z" stroke="#C8D9D2" stroke-width="6" stroke-miterlimit="10"/>
<path d="M91.1338 204.392H75.1993C75.0837 204.391 74.9691 204.412 74.862 204.454C74.7548 204.497 74.6573 204.559 74.5749 204.638C74.4926 204.718 74.427 204.812 74.382 204.916C74.337 205.02 74.3134 205.131 74.3126 205.244V206.259C74.3134 206.419 74.3608 206.576 74.4493 206.712C74.5378 206.847 74.6638 206.956 74.8127 207.024C74.8677 207.04 74.92 207.06 74.9732 207.08" stroke="#C8D9D2" stroke-width="6" stroke-miterlimit="10"/>
<path d="M98.0461 206.007V216.635" stroke="#C8D9D2" stroke-width="6" stroke-miterlimit="10"/>
<path d="M27.1752 212.601C27.2053 212.601 27.2346 212.601 27.2638 212.601H27.1752Z" stroke="#B59B00" stroke-width="6" stroke-miterlimit="10"/>
<path d="M27.0626 202.668C27.0315 202.668 27.0005 202.668 26.9739 202.673L27.0626 202.668Z" stroke="#B59B00" stroke-width="6" stroke-miterlimit="10"/>
<path d="M43.3817 207.388C43.4589 210.234 42.0748 212.471 40.3112 212.493L27.3187 212.657C29.0726 212.619 30.4478 210.389 30.3689 207.553C30.29 204.717 28.7596 202.635 27.0075 202.636L39.9982 202.471C41.7574 202.449 43.3028 204.543 43.3817 207.388Z" stroke="#B59B00" stroke-width="6" stroke-miterlimit="10"/>
<path d="M30.3725 207.573C30.4284 210.305 29.0567 212.551 27.3055 212.601H27.2638C27.2346 212.601 27.2053 212.601 27.1752 212.601C25.4639 212.544 24.0514 210.382 23.9955 207.698C23.9397 205.013 25.2635 202.798 26.9703 202.673C27.0005 202.673 27.0315 202.669 27.059 202.668H27.1042C28.8572 202.654 30.3167 204.842 30.3725 207.573Z" stroke="#B59B00" stroke-width="6" stroke-miterlimit="10"/>
<path d="M51.5986 213.689C51.4188 213.858 51.1995 213.98 50.9599 214.047C50.7203 214.114 50.4676 214.123 50.2237 214.072C49.9799 214.022 49.7524 213.914 49.561 213.758C49.3696 213.603 49.2202 213.404 49.1257 213.179C48.9767 212.831 48.8012 212.494 48.6008 212.172C48.3078 211.701 47.969 211.259 47.5891 210.851C45.5364 208.646 42.7123 207.836 41.0516 208.901L41.0427 208.894C41.2521 208.421 41.5657 207.998 41.9613 207.656C42.6113 207.08 43.3703 206.774 43.9883 206.781C44.1247 206.485 44.3224 206.22 44.569 206.002C44.9255 205.678 45.3792 205.473 45.8636 205.418C45.7882 204.765 46.1872 203.909 46.948 203.235C47.6431 202.618 48.4642 202.311 49.1035 202.37C49.221 201.861 49.5003 201.402 49.9015 201.058C50.1134 200.869 50.3546 200.714 50.6162 200.599C50.6162 200.599 49.186 207.611 56.7599 207.373C56.7644 207.464 56.767 207.558 56.767 207.65V207.655C56.7076 208.099 55.9903 209.581 55.5257 209.991L51.5986 213.689Z" fill="#FFE700"/>
<path d="M45.0043 203.932L42.1271 200.841" stroke="#907B00" stroke-width="5" stroke-linecap="round" stroke-linejoin="round"/>
<path d="M45.172 197.096C45.5316 197.52 45.7867 198.018 45.9176 198.553C46.0486 199.089 46.0519 199.646 45.9274 200.183C45.8029 200.719 45.5538 201.221 45.1993 201.649C44.8448 202.077 44.3944 202.419 43.8827 202.651C43.5235 202.227 43.2687 201.728 43.1379 201.193C43.0071 200.658 43.0039 200.101 43.1284 199.564C43.2529 199.028 43.5019 198.526 43.8562 198.098C44.2104 197.67 44.6606 197.327 45.172 197.096Z" fill="#907B00"/>
<path d="M50.617 200.6C50.3554 200.715 50.1143 200.87 49.9023 201.059C49.5011 201.403 49.2218 201.862 49.1043 202.371C48.465 202.314 47.644 202.622 46.9488 203.236C46.1881 203.91 45.789 204.766 45.8644 205.419C45.8644 205.419 45.9096 205.961 45.0664 206.538C44.9135 206.649 44.7387 206.727 44.5531 206.769C44.3676 206.81 44.1752 206.813 43.9882 206.779C43.3675 206.772 42.6112 207.078 41.9613 207.653C41.5714 207.991 41.2608 208.407 41.0507 208.873C40.9779 207.39 41.4754 205.996 42.558 205.035C43.2405 204.435 44.0919 204.05 45.0017 203.93C45.2123 203.058 45.6865 202.268 46.3627 201.663C47.4968 200.663 49.0423 200.327 50.617 200.6Z" fill="#FE552F"/>
<path d="M52.1456 213.494C52.9374 212.867 52.6688 212.666 53.5226 212.132C53.6743 212.037 53.8285 211.946 53.9873 211.862C54.349 211.669 54.686 211.435 54.991 211.165C56.0878 210.194 56.6703 208.847 56.7546 207.386C56.7546 207.377 56.7516 207.368 56.7459 207.362C56.7403 207.355 56.7324 207.35 56.7237 207.349C56.7149 207.347 56.7059 207.349 56.6981 207.353C56.6903 207.357 56.6842 207.364 56.681 207.372C56.4994 207.843 56.2056 208.265 55.8239 208.603C55.4422 208.942 54.9835 209.187 54.4856 209.318C54.4511 209.326 54.4189 209.342 54.391 209.363C54.3631 209.384 54.3402 209.411 54.3238 209.442C54.3074 209.472 54.2979 209.506 54.296 209.541C54.2941 209.575 54.2998 209.61 54.3127 209.642C54.5095 210.172 54.2737 210.894 53.6858 211.415C53.0979 211.935 52.3558 212.093 51.83 211.86C51.7979 211.846 51.763 211.839 51.7279 211.84C51.6927 211.84 51.6581 211.849 51.6266 211.864C51.5951 211.879 51.5674 211.901 51.5455 211.928C51.5237 211.955 51.5082 211.986 51.5001 212.019C51.4212 212.336 51.1862 212.701 50.8325 213.014C50.2579 213.523 49.5734 213.715 49.2365 213.477C49.24 213.477 50.1134 215.102 52.1456 213.494Z" fill="#FE552F"/>
<path d="M102.688 107.11C120.014 107.11 134.06 84.078 134.06 55.6671C134.06 27.2562 120.014 4.22461 102.688 4.22461C85.3621 4.22461 71.3166 27.2562 71.3166 55.6671C71.3166 84.078 85.3621 107.11 102.688 107.11Z" fill="#907B00"/>
<path d="M113.128 19.3179C113.704 21.6771 112.983 23.9231 111.5 24.7346C110.823 23.9444 110.348 23.0086 110.115 22.0042C109.539 19.6449 110.258 17.4007 111.744 16.5884C112.42 17.3787 112.894 18.3141 113.128 19.3179Z" fill="#B59B00"/>
<path d="M116.407 25.3201C115.399 26.6568 113.88 27.2832 112.79 26.8861C112.913 26.1922 113.204 25.5369 113.637 24.9741C114.645 23.6382 116.164 23.0119 117.254 23.409C117.131 24.1025 116.84 24.7575 116.407 25.3201Z" fill="#B59B00"/>
<path d="M123.766 40.2615C123.43 42.2946 122.115 43.8268 120.68 43.992C120.413 43.1573 120.352 42.2725 120.503 41.4104C120.839 39.3773 122.153 37.846 123.589 37.6816C123.856 38.5158 123.917 39.4 123.766 40.2615Z" fill="#B59B00"/>
<path d="M124.692 45.459C123.389 46.011 122.023 45.8397 121.411 45.106C121.799 44.6563 122.291 44.3026 122.847 44.0738C124.149 43.5227 125.515 43.694 126.127 44.4277C125.739 44.8773 125.247 45.2307 124.692 45.459Z" fill="#B59B00"/>
<path d="M97.5107 27.348C97.5107 29.285 96.7526 30.9427 95.677 31.6296C94.6015 30.9435 93.8434 29.285 93.8434 27.348C93.8434 25.4109 94.6015 23.7533 95.677 23.0664C96.7526 23.7542 97.5107 25.4127 97.5107 27.348Z" fill="#B59B00"/>
<path d="M92.9755 31.7969C93.9295 33.1397 94.2168 34.645 93.8134 35.6261C92.729 35.6546 91.3865 34.8596 90.4325 33.5169C89.4784 32.1741 89.1911 30.6679 89.5946 29.6877C90.679 29.66 92.0223 30.4542 92.9755 31.7969Z" fill="#B59B00"/>
<path d="M85.2675 75.918C86.7048 75.4967 88.0995 75.6714 88.8434 76.2822C88.5686 77.1906 87.5028 78.0878 86.0655 78.5091C84.6282 78.9305 83.2326 78.7557 82.4886 78.1449C82.7644 77.2356 83.8311 76.3393 85.2675 75.918Z" fill="#B59B00"/>
<path d="M91.827 67.96C91.7827 69.699 91.0636 70.3063 90.0812 70.9016C89.1315 70.2622 88.4851 69.6203 88.533 67.8813C88.5809 66.1423 89.7965 63.5927 90.2789 63.2095C90.732 63.6048 91.8687 66.2211 91.827 67.96Z" fill="#B59B00"/>
<path d="M97.3246 61.0386C97.2802 62.7775 96.5611 63.3849 95.5787 63.9801C94.6291 63.3408 93.9827 62.6988 94.0306 60.9599C94.0784 59.2209 95.2941 56.6713 95.7764 56.2881C96.2295 56.6835 97.3662 59.2997 97.3246 61.0386Z" fill="#B59B00"/>
<path d="M109.163 114.75C109.118 116.488 108.399 117.096 107.417 117.691C106.467 117.051 105.821 116.41 105.868 114.671C105.915 112.932 107.133 110.382 107.615 109.999C108.068 110.394 109.208 113.01 109.163 114.75Z" fill="#B59B00"/>
<path d="M98.197 135.444C99.1014 136.943 98.8176 137.83 98.3087 138.839C97.156 138.787 96.2622 138.574 95.3569 137.075C94.4517 135.576 94.105 132.783 94.3071 132.21C94.9065 132.313 97.2917 133.944 98.197 135.444Z" fill="#B59B00"/>
<path d="M71.4238 79.5475C72.3185 81.052 72.0303 81.9371 71.5125 82.9441C70.3598 82.8835 69.4678 82.6646 68.574 81.1601C67.6803 79.6556 67.3513 76.8595 67.5579 76.2876C68.1555 76.394 70.5292 78.0421 71.4238 79.5475Z" fill="#B59B00"/>
<path d="M110.764 119.872C109.926 120.625 109.32 120.573 108.605 120.396C108.483 119.687 108.499 119.113 109.338 118.36C110.177 117.608 111.916 117.02 112.311 117.063C112.326 117.445 111.602 119.121 110.764 119.872Z" fill="#B59B00"/>
<path d="M99.4943 130.914C99.6432 132.07 99.1786 133.106 98.4303 133.418C98.1492 133.006 97.9726 132.535 97.9151 132.044C97.7661 130.888 98.2299 129.852 98.9791 129.54C99.2597 129.952 99.4363 130.423 99.4943 130.914Z" fill="#B59B00"/>
<path d="M102.103 165.411V13.9966" stroke="#B59B00" stroke-width="6" stroke-miterlimit="10"/>
<path d="M95.7479 30.105V44.5018C95.7479 45.0798 95.8646 45.652 96.0913 46.1859C96.318 46.7198 96.6502 47.2049 97.0691 47.6135C97.4879 48.0221 97.9852 48.3462 98.5324 48.5673C99.0797 48.7884 99.6662 48.9021 100.258 48.902V48.902C100.748 48.9022 101.216 49.0919 101.562 49.4293C101.908 49.7667 102.103 50.2243 102.103 50.7015" stroke="#B59B00" stroke-width="6" stroke-miterlimit="10"/>
<path d="M95.7479 65.2729V83.9601C95.7479 84.8972 96.1294 85.7959 96.8085 86.4585C97.4877 87.1211 98.4087 87.4933 99.3691 87.4933C100.094 87.4933 100.789 87.7742 101.302 88.2743C101.814 88.7743 102.103 89.4525 102.103 90.1597" stroke="#B59B00" stroke-width="6" stroke-miterlimit="10"/>
<path d="M96.4539 110.864C96.4539 112.815 97.8947 114.397 99.6734 114.397C101.015 114.397 102.103 115.591 102.103 117.064" stroke="#B59B00" stroke-width="6" stroke-miterlimit="10"/>
<path d="M90.0955 69.5981V74.77C90.0955 75.5077 90.3958 76.2151 90.9304 76.7368C91.465 77.2584 92.1901 77.5514 92.9461 77.5514H93.8195C94.3306 77.5517 94.8208 77.7499 95.1823 78.1026C95.5437 78.4552 95.7469 78.9335 95.7471 79.4323" stroke="#B59B00" stroke-width="6" stroke-miterlimit="10"/>
<path d="M111.517 22.9209V31.414C111.517 32.9715 110.882 34.4652 109.754 35.5666C108.625 36.6679 107.094 37.2866 105.498 37.2866V37.2866C105.052 37.2866 104.61 37.3723 104.198 37.5388C103.786 37.7054 103.412 37.9495 103.097 38.2572C102.781 38.5649 102.531 38.9301 102.361 39.3321C102.19 39.7342 102.103 40.165 102.103 40.6001" stroke="#B59B00" stroke-width="6" stroke-miterlimit="10"/>
<path d="M93.8132 35.6265L94.8888 37.3429C95.4507 38.2381 95.748 39.2675 95.7479 40.3173" stroke="#B59B00" stroke-width="6" stroke-miterlimit="10"/>
<path d="M107.516 114.924V122.273C107.516 123.351 107.273 124.416 106.805 125.393C106.337 126.37 105.655 127.235 104.807 127.927L103.956 128.619C103.376 129.092 102.909 129.684 102.589 130.353C102.268 131.021 102.103 131.75 102.103 132.488" stroke="#B59B00" stroke-width="6" stroke-miterlimit="10"/>
<path d="M112.824 124.166C112.824 124.957 112.502 125.717 111.928 126.277C111.354 126.837 110.576 127.151 109.765 127.151H105.694" stroke="#B59B00" stroke-width="6" stroke-miterlimit="10" stroke-linecap="round"/>
<path d="M98.1642 137.833V158.416C98.1642 159.137 98.4578 159.829 98.9804 160.339C99.5031 160.848 100.212 161.135 100.951 161.135V161.135C101.257 161.135 101.55 161.253 101.766 161.464C101.982 161.675 102.104 161.961 102.104 162.26" stroke="#B59B00" stroke-width="6" stroke-miterlimit="10"/>
<path d="M75.2462 139.703C87.4642 139.703 97.3688 127.691 97.3688 112.875C97.3688 98.0578 87.4642 86.0464 75.2462 86.0464C63.0283 86.0464 53.1237 98.0578 53.1237 112.875C53.1237 127.691 63.0283 139.703 75.2462 139.703Z" fill="#B59B00"/>
<path d="M82.3858 102.382C82.8487 104.275 82.4745 106.096 81.5426 107.161C81.4553 107.258 81.3457 107.333 81.2229 107.381C81.1 107.428 80.9674 107.447 80.8358 107.435C80.7042 107.423 80.5773 107.381 80.4656 107.312C80.3539 107.243 80.2605 107.149 80.1931 107.038C79.8161 106.427 79.5394 105.762 79.3729 105.068C78.7975 102.709 79.5174 100.465 81.0017 99.6523C81.6781 100.442 82.1525 101.378 82.3858 102.382Z" fill="#907B00"/>
<path d="M61.9204 139.2C63.5253 140.643 64.1282 142.624 63.4544 143.924C62.5648 143.672 61.7492 143.218 61.0745 142.598C59.4705 141.154 58.8676 139.175 59.5414 137.874C60.4307 138.126 61.246 138.58 61.9204 139.2Z" fill="#907B00"/>
<path d="M59.5256 143.793C60.7181 143.855 61.6811 144.485 61.862 145.264C61.3965 145.46 60.89 145.546 60.3839 145.515C59.1922 145.452 58.2301 144.822 58.0493 144.044C58.5142 143.848 59.0201 143.762 59.5256 143.793Z" fill="#B59B00"/>
<path d="M86.4601 108.466C85.8394 110.009 84.5333 110.994 83.3753 110.883C83.3123 110.182 83.4211 109.476 83.6928 108.823C84.3134 107.28 85.6195 106.294 86.7775 106.406C86.8401 107.108 86.7313 107.813 86.4601 108.466Z" fill="#907B00"/>
<path d="M68.8843 99.5001C69.8154 100.985 69.5494 101.876 69.0555 102.894C67.9028 102.86 67.0046 102.663 66.0736 101.179C65.1426 99.6956 64.7436 96.9081 64.9386 96.3345C65.5398 96.4244 67.9533 98.0163 68.8843 99.5001Z" fill="#907B00"/>
<path d="M72.581 99.2634C72.1961 100.561 71.5347 100.874 70.6791 101.13C70.0965 100.469 69.7445 99.8639 70.1293 98.5696C70.5141 97.2753 71.9426 95.5996 72.3815 95.4058C72.6404 95.7899 72.9658 97.9692 72.581 99.2634Z" fill="#907B00"/>
<path d="M74.5707 110.504V166.709" stroke="#907B00" stroke-width="6" stroke-miterlimit="10" stroke-linecap="round"/>
<path d="M80.8368 108.773V115.107C80.837 117.356 79.9915 119.527 78.4605 121.209L76.3857 123.487C75.2164 124.772 74.5706 126.431 74.5707 128.149" stroke="#907B00" stroke-width="6" stroke-miterlimit="10" stroke-linecap="round"/>
<path d="M62.7175 142.85C63.539 144.026 64.6426 144.989 65.9323 145.654C67.222 146.32 68.6588 146.667 70.1177 146.667H71.4114C72.2487 146.667 73.0517 146.992 73.644 147.569C74.2364 148.146 74.5697 148.93 74.5706 149.747" stroke="#907B00" stroke-width="6" stroke-miterlimit="10" stroke-linecap="round"/>
<path d="M83.5677 111.885V113.356C83.5679 113.509 83.5371 113.661 83.4771 113.802C83.4171 113.944 83.3292 114.072 83.2182 114.181C83.1073 114.289 82.9756 114.375 82.8307 114.433C82.6857 114.492 82.5303 114.522 82.3734 114.522H81.774C81.5367 114.522 81.3092 114.614 81.1414 114.778C80.9736 114.942 80.8793 115.164 80.8793 115.395" stroke="#907B00" stroke-width="6" stroke-miterlimit="10" stroke-linecap="round"/>
<path d="M70.2117 102.846V114.988C70.2117 115.615 70.4667 116.216 70.9207 116.659C71.3746 117.102 71.9903 117.351 72.6324 117.351C73.1463 117.351 73.6391 117.55 74.0026 117.905C74.3661 118.259 74.5704 118.74 74.5706 119.242" stroke="#907B00" stroke-width="6" stroke-miterlimit="10" stroke-linecap="round"/>
<path d="M80.0964 139.212V140.088C80.0964 140.771 79.8183 141.426 79.3233 141.909C78.8283 142.392 78.1569 142.663 77.4568 142.663H76.086C75.6846 142.663 75.2996 142.819 75.0158 143.096C74.7319 143.373 74.5724 143.749 74.5724 144.14" stroke="#907B00" stroke-width="6" stroke-miterlimit="10" stroke-linecap="round"/>
<path d="M68.644 144.195C68.644 144.853 68.912 145.484 69.3889 145.95C69.8658 146.415 70.5126 146.677 71.187 146.677" stroke="#907B00" stroke-width="6" stroke-miterlimit="10" stroke-linecap="round"/>
<path d="M67.4976 105.25V107.909C67.4976 108.345 67.6751 108.763 67.991 109.071C68.307 109.38 68.7355 109.553 69.1823 109.553V109.553C69.3175 109.552 69.4515 109.578 69.5766 109.628C69.7016 109.679 69.8153 109.752 69.9109 109.846C70.0066 109.939 70.0824 110.05 70.1341 110.172C70.1857 110.294 70.2121 110.424 70.2117 110.556" stroke="#907B00" stroke-width="6" stroke-miterlimit="10" stroke-linecap="round"/>
<path d="M317.677 172.781C317.697 175.48 317.023 177.744 316.103 178.324C313.359 180.746 304.242 182.576 293.404 182.65C282.566 182.723 273.418 181.027 270.64 178.642C269.711 178.071 269.006 175.819 268.986 173.123C268.965 170.427 269.636 167.818 270.556 167.235C270.003 167.723 270.064 167.544 270.068 168.072C270.076 169.144 270.955 170.051 273.096 170.892C274.229 171.323 275.392 171.675 276.577 171.944C280.858 172.955 286.791 173.557 293.343 173.51C299.894 173.464 305.817 172.778 310.082 171.707C311.263 171.421 312.421 171.053 313.547 170.604C315.675 169.734 316.716 168.895 316.708 167.824C316.703 167.295 316.579 167.391 316.017 166.91C316.948 167.484 317.656 170.079 317.677 172.781Z" fill="#423C52" stroke="white" stroke-width="5" stroke-miterlimit="10" stroke-linecap="round"/>
<path d="M293.323 173.419C306.296 173.337 316.797 170.997 316.778 168.192C316.76 165.388 306.228 163.18 293.256 163.262C280.283 163.344 269.781 165.684 269.8 168.488C269.818 171.293 280.35 173.501 293.323 173.419Z" fill="#423C52" stroke="white" stroke-width="5" stroke-miterlimit="10" stroke-linecap="round"/>
<path d="M293.365 168.544C298.234 168.514 302.178 167.928 302.173 167.235C302.169 166.543 298.218 166.007 293.348 166.037C288.479 166.068 284.535 166.654 284.54 167.346C284.544 168.039 288.495 168.575 293.365 168.544Z" fill="#423C52" stroke="white" stroke-width="5" stroke-miterlimit="10" stroke-linecap="round"/>
<path d="M124.748 165.246L113.425 154.013L126.23 162.671L125.814 154.453L131.816 161.6L130.757 136.024L135.229 158.844L139.509 154.88L139.113 161.744L143.945 159.796L140.146 165.144L124.748 165.246Z" fill="#907B00"/>
<path d="M246.199 165.045L241.08 161.314L245.67 161.945L245.729 157.984L248.494 160.97L249.73 141.105L253.201 160.624L255.378 155.343L256.202 162.462L260.145 159.879L257.967 165.129L246.199 165.045Z" fill="#907B00"/>
<path d="M242.76 157.938C242.76 158.326 242.688 158.711 242.545 159.074C241.156 158.863 240.088 157.611 240.088 156.1C240.088 155.712 240.16 155.327 240.302 154.964C241.692 155.175 242.76 156.426 242.76 157.938Z" fill="#907B00"/>
<path d="M295.779 148.417C295.68 148.793 295.51 149.148 295.279 149.464C293.988 148.918 293.279 147.444 293.669 145.983C293.769 145.607 293.939 145.251 294.17 144.935C295.461 145.481 296.17 146.954 295.779 148.417Z" fill="#907B00"/>
<path d="M298.772 150.41C298.237 150.676 297.665 150.863 297.074 150.965C296.608 149.355 297.766 147.372 299.868 146.334C300.403 146.068 300.975 145.881 301.567 145.779C302.033 147.388 300.875 149.372 298.772 150.41Z" fill="#907B00"/>
<path d="M115.517 158.646C116.157 159.274 116.132 159.745 116.009 160.306C115.434 160.421 114.967 160.426 114.325 159.797C113.683 159.168 113.155 157.835 113.181 157.528C113.492 157.505 114.878 158.017 115.517 158.646Z" fill="#B59B00"/>
<path d="M319.759 171.97C319.447 172.125 319.113 172.234 318.768 172.294C318.497 171.354 319.172 170.196 320.399 169.59C320.712 169.435 321.046 169.326 321.391 169.266C321.664 170.205 320.986 171.364 319.759 171.97Z" fill="#907B00"/>
<path d="M310.808 182.181H299.528L293.604 178.965L304.51 181.375L300.077 176.573L304.357 178.554L303.949 172.776L307.046 177.958C307.076 178.013 307.124 178.056 307.182 178.08C307.24 178.105 307.305 178.11 307.367 178.095C307.428 178.079 307.482 178.044 307.521 177.995C307.559 177.945 307.579 177.885 307.578 177.823L305.773 152.245L310.498 171.483L314.806 159.438L313.52 177.371L322 173.503L315.557 179.891C315 180.603 314.281 181.181 313.457 181.578C312.634 181.975 311.727 182.181 310.808 182.181Z" fill="#907B00"/>
<path d="M143.682 157.001C142.845 157.755 142.239 157.702 141.523 157.527C141.402 156.816 141.418 156.243 142.256 155.491C143.094 154.738 144.835 154.151 145.23 154.193C145.247 154.575 144.52 156.249 143.682 157.001Z" fill="#907B00"/>
<path d="M228.624 64.4175L215.482 46.6474C213.605 44.1084 211.136 42.0409 208.28 40.615C205.423 39.1891 202.261 38.4456 199.052 38.4458H164.931C158.555 38.446 152.325 40.3147 147.05 43.8097L128.499 56.1025C118.289 62.8688 116.859 77.0079 125.516 85.591L142.377 102.31L156.856 90.6893L145.789 76.9768C145.244 76.303 144.997 75.446 145.1 74.5941C145.202 73.7421 145.648 72.9649 146.337 72.433L156.153 64.209C157.445 63.1275 159.442 64.0229 159.442 65.6797V85.7614H217.43C228.688 85.7614 235.21 73.3224 228.624 64.4175ZM207.225 67.8676H204.723V64.2193C204.724 64.0955 204.764 63.9748 204.838 63.8744C204.912 63.774 205.017 63.6989 205.138 63.6598C205.258 63.6207 205.388 63.6195 205.509 63.6564C205.631 63.6933 205.737 63.7665 205.813 63.8655L207.889 66.5769C207.981 66.6969 208.037 66.8395 208.05 66.9888C208.064 67.1382 208.035 67.2882 207.966 67.4222C207.897 67.5562 207.791 67.6689 207.661 67.7476C207.53 67.8262 207.379 67.8678 207.225 67.8676Z" fill="#FF7500"/>
<path d="M192.073 38.4453H179.207L186.197 45.0213L192.073 38.4453Z" stroke="white" stroke-width="5" stroke-miterlimit="10" stroke-linecap="round"/>
<path d="M170.251 38.4453H183.118L176.127 45.0213L170.251 38.4453Z" stroke="white" stroke-width="5" stroke-miterlimit="10" stroke-linecap="round"/>
<path d="M122.255 63.6748C124.655 64.8644 126.461 68.1052 126.617 71.9802C126.785 76.184 124.961 79.7916 122.338 80.8981" stroke="white" stroke-width="5" stroke-miterlimit="10" stroke-linecap="round"/>
<path d="M230.51 67.9326C228.326 68.8678 226.272 71.1501 225.174 74.1781C223.933 77.5954 224.258 81.0197 225.77 83.0545" stroke="white" stroke-width="5" stroke-miterlimit="10" stroke-linecap="round"/>
<path d="M151.124 98.0202C155.188 94.7448 157.623 91.5948 156.856 90.689C156.089 89.7832 152.41 91.4677 148.344 94.7387C144.278 98.0098 141.605 101.4 142.375 102.31C143.145 103.221 147.06 101.299 151.124 98.0202Z" fill="#C8D9D2"/>
<path d="M257.372 217.236C257.372 217.458 257.241 217.636 257.079 217.636H256.13C255.968 217.636 255.837 217.458 255.836 217.236C255.835 217.015 255.706 216.835 255.545 216.835H254.606C254.445 216.835 254.314 217.015 254.314 217.236C254.315 217.337 254.284 217.436 254.225 217.519C254.202 217.553 254.172 217.581 254.136 217.601C254.1 217.621 254.06 217.633 254.019 217.636H253.068C252.907 217.636 252.775 217.456 252.775 217.236C252.777 217.135 252.746 217.036 252.687 216.953C252.664 216.919 252.634 216.89 252.598 216.87C252.562 216.85 252.521 216.838 252.479 216.836H251.542C251.38 216.836 251.25 217.015 251.25 217.237C251.25 217.338 251.219 217.437 251.161 217.52C251.139 217.554 251.108 217.583 251.072 217.603C251.036 217.623 250.996 217.635 250.954 217.637H250.005C249.842 217.637 249.711 217.457 249.711 217.237C249.712 217.136 249.681 217.037 249.622 216.954C249.6 216.92 249.57 216.891 249.534 216.871C249.498 216.85 249.457 216.839 249.416 216.837H248.478C248.316 216.837 248.185 217.016 248.185 217.238C248.186 217.339 248.155 217.438 248.096 217.521C248.074 217.555 248.044 217.584 248.008 217.604C247.972 217.624 247.931 217.636 247.89 217.638H246.939C246.778 217.638 246.647 217.459 246.647 217.239C246.648 217.138 246.617 217.039 246.558 216.956C246.536 216.921 246.505 216.893 246.469 216.873C246.433 216.852 246.392 216.841 246.351 216.839H245.413C245.252 216.839 245.121 217.018 245.121 217.239C245.121 217.46 244.99 217.638 244.828 217.639H243.879C243.717 217.639 243.586 217.461 243.585 217.239C243.584 217.016 243.455 216.841 243.293 216.841H242.355C242.193 216.841 242.063 217.02 242.063 217.24C242.064 217.342 242.033 217.441 241.974 217.524C241.952 217.558 241.921 217.587 241.885 217.607C241.849 217.628 241.809 217.639 241.767 217.641H240.818C240.767 217.641 240.718 217.624 240.679 217.593C240.62 217.552 240.573 217.496 240.542 217.432C240.511 217.368 240.497 217.298 240.501 217.227C240.501 217.007 240.37 216.827 240.209 216.827H239.271C239.11 216.827 238.979 217.007 238.979 217.227C238.979 217.328 238.948 217.427 238.89 217.51C238.867 217.544 238.837 217.572 238.801 217.593C238.765 217.613 238.724 217.625 238.683 217.627H237.733C237.572 217.627 237.44 217.447 237.44 217.227C237.442 217.126 237.411 217.028 237.352 216.944C237.329 216.91 237.299 216.882 237.263 216.861C237.227 216.841 237.186 216.829 237.144 216.828H236.206C236.045 216.828 235.914 217.007 235.914 217.228C235.915 217.329 235.884 217.428 235.826 217.511C235.803 217.545 235.773 217.574 235.737 217.594C235.7 217.615 235.66 217.626 235.618 217.628H234.669C234.507 217.628 234.376 217.448 234.376 217.228C234.377 217.127 234.346 217.028 234.287 216.945C234.265 216.911 234.234 216.882 234.198 216.862C234.162 216.842 234.122 216.83 234.08 216.829H233.143C232.981 216.829 232.85 217.008 232.85 217.229C232.851 217.33 232.82 217.429 232.761 217.512C232.739 217.546 232.708 217.575 232.672 217.595C232.636 217.615 232.596 217.627 232.554 217.63H231.604C231.442 217.63 231.312 217.451 231.312 217.23C231.312 217.129 231.282 217.03 231.223 216.947C231.201 216.913 231.171 216.884 231.135 216.864C231.099 216.843 231.058 216.832 231.016 216.83H230.079C229.917 216.83 229.787 217.009 229.787 217.23C229.787 217.451 229.655 217.63 229.494 217.631H228.544C228.382 217.631 228.252 217.452 228.251 217.23C228.25 217.008 228.121 216.832 227.959 216.832H227.02C226.859 216.832 226.728 217.011 226.728 217.232C226.729 217.333 226.698 217.432 226.639 217.515C226.617 217.55 226.586 217.578 226.55 217.599C226.514 217.619 226.474 217.631 226.432 217.632H225.482C225.32 217.632 225.189 217.454 225.189 217.233L225.25 215.675H257.334L257.372 217.236Z" fill="white"/>
<path d="M257.352 215.73H227.218C225.343 215.73 224.905 214.599 224.24 212.887L216.686 193.428H242.628L246.871 205.836C247.641 208.087 249.125 210.04 251.109 211.412L257.352 215.73Z" fill="#423C52"/>
<path d="M184.157 193.428V213.544C184.157 214.124 183.921 214.68 183.501 215.09C183.081 215.5 182.511 215.73 181.917 215.73H152.148L155.362 213.108C156.646 212.06 157.679 210.75 158.388 209.27C159.097 207.79 159.465 206.177 159.465 204.543V193.428H184.157Z" fill="#423C52"/>
<path d="M152.055 217.285C152.055 217.506 152.186 217.686 152.346 217.686H153.292C153.454 217.686 153.583 217.507 153.584 217.286C153.585 217.064 153.714 216.886 153.875 216.886H154.808C154.969 216.886 155.1 217.065 155.1 217.286C155.098 217.386 155.128 217.485 155.184 217.569C155.207 217.603 155.237 217.631 155.273 217.652C155.308 217.672 155.349 217.684 155.39 217.686H156.336C156.498 217.686 156.628 217.507 156.628 217.287C156.627 217.186 156.658 217.087 156.717 217.004C156.739 216.969 156.769 216.941 156.805 216.921C156.841 216.9 156.882 216.889 156.923 216.887H157.856C158.017 216.887 158.147 217.066 158.147 217.288C158.146 217.389 158.177 217.487 158.235 217.57C158.258 217.605 158.288 217.633 158.324 217.653C158.359 217.674 158.4 217.685 158.441 217.687H159.386C159.548 217.687 159.679 217.508 159.679 217.288C159.678 217.187 159.709 217.088 159.768 217.005C159.79 216.97 159.82 216.942 159.856 216.922C159.892 216.901 159.932 216.89 159.973 216.888H160.908C161.068 216.888 161.199 217.067 161.199 217.288C161.198 217.389 161.229 217.488 161.287 217.571C161.309 217.606 161.34 217.634 161.375 217.655C161.411 217.675 161.452 217.687 161.493 217.689H162.439C162.6 217.689 162.731 217.51 162.731 217.289C162.73 217.188 162.761 217.09 162.82 217.006C162.842 216.972 162.872 216.944 162.908 216.923C162.944 216.903 162.985 216.891 163.026 216.89H163.959C164.12 216.89 164.251 217.07 164.251 217.29C164.251 217.511 164.381 217.689 164.541 217.69H165.488C165.648 217.69 165.778 217.512 165.779 217.29C165.78 217.069 165.91 216.891 166.07 216.891H167.004C167.165 216.891 167.295 217.07 167.295 217.291C167.295 217.392 167.326 217.491 167.384 217.575C167.406 217.609 167.436 217.638 167.472 217.658C167.508 217.678 167.548 217.69 167.59 217.692H168.535C168.586 217.691 168.635 217.674 168.674 217.643C168.733 217.601 168.779 217.546 168.81 217.482C168.841 217.418 168.855 217.348 168.852 217.277C168.852 217.057 168.982 216.878 169.142 216.878H170.076C170.237 216.878 170.367 217.057 170.367 217.277C170.366 217.378 170.397 217.477 170.456 217.56C170.478 217.594 170.508 217.623 170.544 217.643C170.58 217.664 170.621 217.676 170.662 217.678H171.607C171.768 217.678 171.899 217.499 171.899 217.278C171.898 217.177 171.929 217.078 171.988 216.995C172.01 216.961 172.04 216.932 172.076 216.912C172.112 216.892 172.153 216.88 172.194 216.878H173.129C173.289 216.878 173.42 217.057 173.419 217.279C173.418 217.38 173.449 217.478 173.508 217.562C173.53 217.596 173.56 217.625 173.596 217.645C173.632 217.665 173.673 217.677 173.714 217.679H174.659C174.82 217.679 174.95 217.5 174.95 217.279C174.949 217.178 174.98 217.079 175.039 216.996C175.061 216.962 175.091 216.933 175.127 216.913C175.163 216.892 175.204 216.881 175.245 216.879H176.178C176.339 216.879 176.47 217.058 176.47 217.28C176.47 217.381 176.501 217.479 176.559 217.563C176.581 217.597 176.612 217.625 176.648 217.645C176.683 217.666 176.724 217.678 176.765 217.68H177.711C177.873 217.68 178.002 217.501 178.002 217.281C178.001 217.18 178.032 217.081 178.091 216.998C178.113 216.963 178.143 216.935 178.179 216.914C178.215 216.894 178.255 216.883 178.296 216.881H179.229C179.391 216.881 179.521 217.061 179.521 217.282C179.521 217.502 179.651 217.68 179.812 217.681H180.757C180.919 217.681 181.049 217.503 181.05 217.282C181.05 217.06 181.179 216.883 181.34 216.883H182.275C182.435 216.883 182.566 217.062 182.566 217.282C182.565 217.384 182.596 217.483 182.654 217.566C182.676 217.6 182.707 217.629 182.743 217.649C182.778 217.67 182.819 217.681 182.86 217.683H183.806C183.967 217.683 184.098 217.504 184.098 217.282L184.051 216.089C184.047 215.992 184.005 215.901 183.934 215.834C183.862 215.767 183.767 215.729 183.668 215.729H152.056L152.055 217.285Z" fill="white"/>
<path d="M184.157 108.695V193.426H159.465V85.7607H205.807L242.626 193.426H216.686L186.087 108.374C185.716 107.345 184.157 107.605 184.157 108.695Z" fill="#C8D9D2"/>
<path d="M161.15 193.427V89.3945" stroke="white" stroke-width="5" stroke-miterlimit="10" stroke-linecap="round" stroke-dasharray="12 12"/>
<path d="M205.261 89.2598L240.678 193.426" stroke="white" stroke-width="5" stroke-miterlimit="10" stroke-linecap="round" stroke-dasharray="12 12"/>
<path d="M159.465 85.9331H206.164L207.361 89.2345H159.465V85.9331Z" stroke="white" stroke-width="5" stroke-miterlimit="10" stroke-linecap="round"/>
<path d="M181.157 89.2227V100.347C181.157 102.761 182.966 104.718 185.197 104.718" stroke="white" stroke-width="5" stroke-miterlimit="10" stroke-linecap="round"/>
<path d="M182.016 88.328C182.492 88.328 182.877 87.9519 182.877 87.488C182.877 87.024 182.492 86.6479 182.016 86.6479C181.541 86.6479 181.155 87.024 181.155 87.488C181.155 87.9519 181.541 88.328 182.016 88.328Z" stroke="white" stroke-width="5" stroke-miterlimit="10" stroke-linecap="round"/>
<path d="M208.339 99.5381C205.577 99.5381 202.928 98.4676 200.975 96.562C199.022 94.6565 197.924 92.0719 197.924 89.377" stroke="white" stroke-width="5" stroke-miterlimit="10" stroke-linecap="round"/>
<path d="M159.365 99.4511C162.127 99.4511 164.776 98.3806 166.729 96.475C168.682 94.5695 169.78 91.985 169.78 89.29" stroke="white" stroke-width="5" stroke-miterlimit="10" stroke-linecap="round"/>
<path d="M242.767 193.426H215.374C214.953 193.425 214.543 193.291 214.207 193.043C213.871 192.795 213.627 192.447 213.512 192.052L212.482 188.511C212.401 188.23 212.387 187.934 212.442 187.647C212.497 187.36 212.62 187.089 212.8 186.856C212.981 186.623 213.214 186.434 213.482 186.304C213.75 186.173 214.045 186.105 214.344 186.105H241.737C242.159 186.105 242.568 186.24 242.904 186.488C243.24 186.736 243.484 187.084 243.599 187.479L244.629 191.02C244.711 191.301 244.724 191.597 244.669 191.884C244.614 192.171 244.491 192.441 244.311 192.675C244.131 192.908 243.897 193.097 243.629 193.227C243.361 193.358 243.066 193.425 242.767 193.426Z" fill="#DBE5E5" stroke="white" stroke-width="6" stroke-miterlimit="10"/>
<path d="M184.116 186.105H159.397C158.302 186.105 157.414 186.971 157.414 188.039V191.491C157.414 192.56 158.302 193.426 159.397 193.426H184.116C185.211 193.426 186.098 192.56 186.098 191.491V188.039C186.098 186.971 185.211 186.105 184.116 186.105Z" fill="#DBE5E5" stroke="white" stroke-width="6" stroke-miterlimit="10"/>
<path d="M175.994 63.8205L181.486 74.6833C181.951 75.6038 180.667 77.1507 178.618 78.1369C176.569 79.1232 174.529 79.1751 174.064 78.2555L168.572 67.3918C167.595 65.4583 167.157 63.3079 167.301 61.1567L167.435 59.1591L165.916 56.1544C165.636 55.6007 165.981 54.8757 166.688 54.5357C167.395 54.1957 168.195 54.3696 168.474 54.9233L169.993 57.928L171.699 59.0405C173.536 60.238 175.017 61.8867 175.994 63.8205V63.8205Z" stroke="#FFE700" stroke-width="5" stroke-linecap="round" stroke-linejoin="round"/>
<path d="M167.703 56.5337C168.411 56.1927 168.758 55.4664 168.477 54.9115C168.197 54.3566 167.395 54.1832 166.687 54.5242C165.978 54.8652 165.631 55.5914 165.912 56.1464C166.193 56.7013 166.994 56.8747 167.703 56.5337Z" stroke="#FFE700" stroke-width="5" stroke-linecap="round" stroke-linejoin="round"/>
<path d="M200.258 80.0967L188.459 81.8634C186.339 82.1809 184.5 80.7949 184.664 79.0032L185.905 57.4412L187.223 58.2362L188.25 57.0804L189.58 57.8833L190.605 56.7274L191.935 57.5303L192.959 56.3744L194.289 57.1782L195.313 56.0215L196.643 56.8252L197.707 55.627L196.466 77.2357C196.298 79.0274 198.138 80.4143 200.258 80.0967Z" fill="#FFDB00"/>
<path d="M198.526 56.0961L199.128 55.417L206.871 75.6761C207.58 77.3372 206.25 79.1981 204.129 79.5156L200.254 80.0961C198.134 80.4136 196.294 79.0268 196.459 77.2351L197.701 55.6255L198.526 56.0961Z" fill="#907B00"/>
<path d="M187.652 53.2836C187.362 53.9334 186.383 54.1436 185.466 53.7543C184.549 53.365 184.039 52.5214 184.33 51.8717M179.789 56.1153L179.313 55.9128C179.028 55.7916 178.704 55.7861 178.414 55.8974C178.124 56.0086 177.892 56.2277 177.767 56.5063L177.011 58.2011C176.949 58.3391 176.916 58.4876 176.913 58.6381C176.91 58.7887 176.937 58.9383 176.994 59.0784C177.05 59.2185 177.134 59.3464 177.242 59.4548C177.349 59.5632 177.477 59.6499 177.618 59.71L186.345 63.4197C186.486 63.48 186.639 63.5125 186.793 63.5154C186.947 63.5182 187.101 63.4913 187.245 63.4363C187.388 63.3813 187.52 63.2992 187.631 63.1946C187.742 63.0901 187.831 62.9652 187.893 62.8271L188.649 61.1323C188.711 60.9941 188.744 60.8455 188.747 60.6948C188.75 60.5441 188.722 60.3944 188.665 60.2542C188.609 60.114 188.525 59.986 188.417 59.8776C188.31 59.7692 188.182 59.6826 188.04 59.6226L187.567 59.421C187.77 59.5077 187.99 59.5543 188.212 59.5583C188.434 59.5622 188.655 59.5234 188.862 59.444C189.069 59.3646 189.258 59.2463 189.418 59.0956C189.578 58.945 189.706 58.7651 189.795 58.5662L190.22 57.6146C190.376 57.2671 190.46 56.8931 190.468 56.5139C190.475 56.1348 190.406 55.7579 190.264 55.4048C190.123 55.0517 189.911 54.7293 189.641 54.456C189.372 54.1828 189.05 53.964 188.694 53.8122L187.63 53.3589L188.621 51.1372C188.631 51.1173 188.64 51.0991 188.649 51.0784C188.934 50.4425 188.42 49.6076 187.503 49.2209C186.586 48.8342 185.612 49.0306 185.328 49.6664C185.319 49.6872 185.312 49.7062 185.303 49.727L184.312 51.9487L183.248 51.4945C182.528 51.1887 181.713 51.1743 180.983 51.4545C180.252 51.7347 179.666 52.2865 179.352 52.9886L178.927 53.9403C178.747 54.3403 178.736 54.7938 178.898 55.2014C179.059 55.609 179.379 55.9376 179.789 56.1153ZM185.945 49.5635C186.149 49.1076 186.838 48.9579 187.484 49.2339C188.131 49.5099 188.488 50.099 188.282 50.5575C188.076 51.0161 187.389 51.1632 186.744 50.8889C186.098 50.6146 185.744 50.0238 185.945 49.5635Z" stroke="white" stroke-width="5" stroke-miterlimit="10" stroke-linecap="round"/>
<path d="M175.884 60.7236L170.458 72.8746C170.418 72.9623 170.396 73.0568 170.394 73.1528C170.391 73.2488 170.408 73.3443 170.443 73.4339C170.479 73.5235 170.532 73.6054 170.6 73.6749C170.668 73.7445 170.749 73.8003 170.839 73.8392L171.652 74.1853C171.781 74.2392 171.923 74.2564 172.061 74.2349C172.2 74.2135 172.329 74.1543 172.435 74.0642C172.466 74.0278 172.5 73.9941 172.534 73.9612C172.726 73.7935 172.964 73.684 173.219 73.6458C173.473 73.6076 173.734 73.6424 173.969 73.7461C174.204 73.8497 174.403 74.0177 174.541 74.2296C174.68 74.4415 174.753 74.6882 174.751 74.9397C174.75 74.9428 174.75 74.946 174.751 74.9492C174.75 74.9662 174.75 74.9832 174.751 75.0002C174.75 75.0042 174.75 75.0084 174.751 75.0124C174.748 75.1069 174.765 75.201 174.799 75.2892C174.835 75.3785 174.888 75.4601 174.956 75.5292C175.024 75.5982 175.105 75.6534 175.195 75.6915L176.006 76.0376C176.138 76.0929 176.284 76.1097 176.426 76.0859C176.567 76.0621 176.699 75.9987 176.804 75.9035V75.9035C176.826 75.8784 176.849 75.8559 176.873 75.8334C177.063 75.6627 177.299 75.5494 177.553 75.5072C177.807 75.4649 178.068 75.4956 178.304 75.5955C178.541 75.6954 178.743 75.8602 178.885 76.0698C179.027 76.2795 179.104 76.5249 179.106 76.7764C179.107 76.8117 179.105 76.847 179.1 76.8819C179.101 77.0216 179.144 77.158 179.222 77.2747C179.301 77.3915 179.412 77.4837 179.543 77.5403L180.354 77.8864C180.537 77.9625 180.744 77.9647 180.928 77.8923C181.113 77.8199 181.261 77.679 181.339 77.5005L186.764 65.3504C186.939 64.9598 186.947 64.5175 186.787 64.121C186.627 63.7245 186.312 63.4061 185.912 63.236L178.054 59.8939C177.855 59.8091 177.642 59.7633 177.425 59.7591C177.209 59.7549 176.994 59.7924 176.792 59.8695C176.591 59.9466 176.407 60.0617 176.251 60.2082C176.095 60.3548 175.97 60.5299 175.884 60.7236V60.7236Z" stroke="white" stroke-width="5" stroke-miterlimit="10" stroke-linecap="round"/>
<path d="M179.53 56.0049L188.04 59.6221" stroke="white" stroke-width="5" stroke-miterlimit="10" stroke-linecap="round"/>
<path d="M146.665 67.7778C129.21 68.3047 115.497 82.5381 116.038 99.5693C116.579 116.601 131.166 129.98 148.621 129.453C166.076 128.926 179.789 114.692 179.248 97.6608C178.707 80.6295 164.116 67.25 146.665 67.7778ZM147.847 109.954C145.528 110.024 143.239 109.421 141.27 108.222C139.301 107.023 137.741 105.281 136.787 103.217C135.833 101.152 135.528 98.8583 135.91 96.6247C136.292 94.3912 137.344 92.3183 138.934 90.6683C140.523 89.0183 142.579 87.8652 144.84 87.3549C147.101 86.8447 149.466 87.0001 151.637 87.8015C153.808 88.6029 155.686 90.0144 157.034 91.8575C158.383 93.7005 159.141 95.8923 159.213 98.1557C159.308 101.191 158.164 104.139 156.031 106.351C153.899 108.563 150.954 109.858 147.843 109.951L147.847 109.954Z" fill="#423C52"/>
<path d="M161.084 98.0987C161.167 100.724 160.45 103.314 159.024 105.542C157.599 107.77 155.528 109.535 153.074 110.615C150.62 111.695 147.893 112.04 145.238 111.607C142.583 111.175 140.119 109.983 138.157 108.184C136.196 106.385 134.825 104.059 134.219 101.5C133.613 98.9414 133.797 96.2644 134.75 93.8079C135.703 91.3514 137.381 89.2258 139.572 87.6998C141.763 86.1738 144.368 85.316 147.059 85.2348C150.667 85.1262 154.172 86.4205 156.802 88.8329C159.432 91.2453 160.972 94.5783 161.084 98.0987Z" stroke="white" stroke-width="5" stroke-linejoin="round"/>
<path d="M189.413 38.6547L183.864 28.5161L174.32 28.8354V38.6547C174.32 38.6547 178.887 44.414 189.413 38.6547Z" fill="#A0505A"/>
<path d="M183.959 30.4449L183.864 28.519L174.32 28.8383V38.6551C174.32 38.6551 175.338 39.9382 177.518 40.6874L182.806 34.011C183.613 32.9938 184.021 31.7295 183.959 30.4449Z" fill="#423C52"/>
<path d="M185.019 26.8298C185.019 27.2823 184.878 27.7241 184.613 28.0955C184.348 28.4669 183.972 28.7498 183.537 28.9062L182.901 29.1346L182.95 30.0231C182.986 30.6854 182.831 31.3444 182.503 31.9254C182.175 32.5065 181.687 32.9863 181.094 33.3106L176.04 36.0505C175.789 36.1873 175.508 36.2637 175.221 36.2733C174.933 36.2829 174.648 36.2255 174.387 36.1058C174.127 35.9861 173.9 35.8076 173.725 35.585C173.55 35.3625 173.432 35.1024 173.38 34.8264L173.018 32.8668L171.849 32.9282C171.759 32.9329 171.669 32.9203 171.585 32.8911C171.5 32.862 171.422 32.8168 171.355 32.7582C171.289 32.6997 171.234 32.6288 171.196 32.5498C171.157 32.4707 171.134 32.385 171.13 32.2975L170.799 26.2787L175.787 24.1479C176.457 23.8614 177.206 23.8014 177.916 23.9772C178.625 24.153 179.255 24.5546 179.704 25.1186L179.984 25.4707L181.973 24.7561C182.315 24.6333 182.683 24.593 183.045 24.6387C183.407 24.6845 183.752 24.8148 184.051 25.0187C184.35 25.2226 184.594 25.494 184.763 25.8098C184.931 26.1256 185.019 26.4764 185.019 26.8324V26.8298Z" fill="#A0505A"/>
<path d="M173.266 26.9833C173.266 26.9833 174.983 26.7239 176.33 27.1693" stroke="#423C52" stroke-width="5" stroke-miterlimit="10" stroke-linecap="round"/>
<path d="M174.795 29.7627C175.01 29.7515 175.165 29.4094 175.143 28.9986C175.12 28.5877 174.928 28.2638 174.713 28.2751C174.499 28.2863 174.343 28.6284 174.365 29.0392C174.388 29.45 174.58 29.7739 174.795 29.7627Z" fill="#423C52"/>
<path d="M181.992 27.511C181.926 27.3363 181.896 27.1505 181.904 26.9644C181.911 26.7782 181.956 26.5954 182.036 26.4263C182.116 26.2571 182.23 26.1051 182.37 25.9787C182.51 25.8524 182.675 25.7543 182.854 25.6899" stroke="#423C52" stroke-width="5" stroke-miterlimit="10" stroke-linecap="round"/>
<path d="M182.596 24.626C182.596 24.626 182.088 19.0233 178.251 19.2188C175.963 19.3356 176.073 21.2087 176.073 21.2087C176.073 21.2087 175.468 18.4895 172.634 19.3469C171.849 19.5839 171.427 20.0312 171.201 20.462C171.153 20.5577 171.084 20.6424 171 20.7108C170.916 20.7792 170.819 20.8299 170.714 20.8595C170.609 20.8891 170.498 20.8971 170.39 20.8829C170.282 20.8687 170.177 20.8326 170.084 20.777C169.401 20.3574 168.439 20.2795 166.945 20.9569C163.451 22.5418 166.346 28.1558 170.795 26.2775L175.203 24.3941H175.209C175.92 24.1192 176.712 24.1181 177.423 24.3912C178.135 24.6643 178.714 25.1911 179.042 25.8649L179.455 26.7092C179.503 26.8028 179.579 26.8799 179.673 26.9303C179.768 26.9807 179.875 27.0022 179.982 26.9918C180.089 26.9814 180.19 26.9396 180.272 26.8721C180.354 26.8045 180.414 26.7143 180.442 26.6132C180.472 26.3779 180.429 24.9331 182.596 24.626Z" fill="#423C52"/>
<path d="M171.404 98.2163C170.428 99.8255 166.094 106.74 163.246 107.387C159.912 108.145 153.67 105.257 146.831 101.022C145.834 100.404 144.827 99.76 143.809 99.0893C144.89 97.7864 146.469 96.2516 148.342 94.7402C151.327 92.3351 154.105 90.7899 155.672 90.501L156.891 91.6499L157.503 92.2278L158.22 92.0366C159.432 91.7154 160.712 91.7354 161.913 92.0944C163.113 92.4534 164.185 93.1368 165.004 94.0654C165.351 94.459 165.649 94.8914 165.891 95.3536L166.939 97.949L171.204 97.8902C171.244 97.8889 171.283 97.8981 171.318 97.9167C171.353 97.9353 171.382 97.9626 171.402 97.9959C171.423 98.0292 171.433 98.0672 171.434 98.106C171.434 98.1447 171.423 98.1828 171.404 98.2163Z" fill="#A0505A"/>
<path d="M167.398 104.241C167.023 104.608 166.389 105.307 165.814 105.438C164.56 105.723 162.459 105.313 160.516 104.678" stroke="#423C52" stroke-width="5" stroke-miterlimit="10" stroke-linecap="round"/>
<path d="M169.477 101.53C169.102 101.897 168.467 102.596 167.892 102.727C166.639 103.012 164.448 102.775 162.506 102.141" stroke="#423C52" stroke-width="5" stroke-miterlimit="10" stroke-linecap="round"/>
<path d="M171.355 98.1631C170.98 98.5316 169.65 99.9211 169.075 100.051C167.821 100.336 166.162 100.099 164.22 99.4651" stroke="#423C52" stroke-width="5" stroke-miterlimit="10" stroke-linecap="round"/>
<path d="M166.936 97.7187L162.992 95.9062" stroke="#423C52" stroke-width="5" stroke-miterlimit="10" stroke-linecap="round"/>
<path d="M156.895 91.6463C156.415 93.0539 154.251 95.4997 151.123 98.0215C149.771 99.1222 148.337 100.125 146.834 101.021C145.837 100.403 144.83 99.759 143.813 99.0883C144.893 97.7854 146.473 96.2506 148.345 94.7392C151.33 92.3341 154.109 90.789 155.675 90.5L156.895 91.6463Z" fill="#423C52"/>
<path d="M209.772 67.8691H186.858V85.6236H209.772V67.8691Z" fill="#FF7500"/>
<path d="M204.808 67.6963H187.245" stroke="white" stroke-width="5" stroke-miterlimit="10" stroke-linecap="round"/>
<path d="M189.916 76.73C189.916 71.7892 188.586 67.4375 187.156 67.4375C185.632 67.4375 184.397 71.7892 184.397 76.73C184.397 81.6708 185.632 85.6765 187.156 85.6765C188.68 85.6765 189.916 81.67 189.916 76.73Z" fill="white"/>
<path d="M189.916 76.73C189.916 78.6973 189.72 80.5167 189.384 81.9935H189.318H188.609C187.516 81.9935 186.227 81.9935 185.144 81.9875H184.923C183.859 81.9788 183.031 81.9624 182.867 81.933C179.448 81.3135 174.042 79.9604 167.998 73.8006C166.451 72.2251 166.657 66.6415 166.89 63.6723C166.902 63.5123 166.962 63.3594 167.063 63.2323C167.163 63.1051 167.299 63.0093 167.454 62.9566C167.61 62.9039 167.777 62.8966 167.937 62.9355C168.096 62.9744 168.241 63.0579 168.353 63.1757C170.487 65.4251 173.738 68.2204 175.548 67.9193C178.806 67.3786 173.452 64.046 175.487 62.3823C175.487 62.3823 183.576 67.382 184.995 67.4365H185.039C185.266 67.4365 186.059 67.4504 186.965 67.4582H187.348C188.706 67.831 189.916 72.0114 189.916 76.73Z" fill="#A0505A"/>
<path d="M173.184 75.3985C171.125 74.2357 169.427 72.6785 167.103 70.3105" stroke="#423C52" stroke-width="5" stroke-miterlimit="10" stroke-linecap="round"/>
<path d="M173.301 72.8917C171.242 71.7289 169.278 70.0852 166.954 67.7173" stroke="#423C52" stroke-width="5" stroke-miterlimit="10" stroke-linecap="round"/>
<path d="M173.418 70.3858C171.359 69.2231 169.395 67.5793 167.07 65.2114" stroke="#423C52" stroke-width="5" stroke-miterlimit="10" stroke-linecap="round"/>
<path d="M189.916 76.7302C189.916 78.6975 189.72 80.5169 189.384 81.9937H189.318H188.609C187.516 81.9937 186.227 81.9937 185.144 81.9877H184.923C184.591 80.5117 184.396 78.6949 184.396 76.7302C184.396 71.9979 185.529 67.8054 186.967 67.4619H187.351C188.706 67.8313 189.916 72.0117 189.916 76.7302Z" fill="#423C52"/>
</svg>
