<svg width="83" height="65" viewBox="0 0 83 65" fill="none" xmlns="http://www.w3.org/2000/svg">
<path d="M28.5 36C32.9183 36 36.5 32.4183 36.5 28C36.5 23.5817 32.9183 20 28.5 20C24.0817 20 20.5 23.5817 20.5 28C20.5 32.4183 24.0817 36 28.5 36Z" stroke="#FF7A63" stroke-width="2" stroke-miterlimit="10" stroke-linecap="round" stroke-linejoin="round"/>
<path d="M56.5 36C60.9183 36 64.5 32.4183 64.5 28C64.5 23.5817 60.9183 20 56.5 20C52.0817 20 48.5 23.5817 48.5 28C48.5 32.4183 52.0817 36 56.5 36Z" stroke="#FF7A63" stroke-width="2" stroke-miterlimit="10" stroke-linecap="round" stroke-linejoin="round"/>
<path d="M28.5 28C28.5 28 28.5 8 28.5 4C28.5 1 32.5 1 32.5 1" stroke="#FF7A63" stroke-width="2" stroke-miterlimit="10" stroke-linecap="round" stroke-linejoin="round"/>
<path d="M44.5 10V28H56.5L44.5 16H58.5" stroke="#FF7A63" stroke-width="2" stroke-miterlimit="10" stroke-linecap="round" stroke-linejoin="round"/>
<path d="M40.5 10H46.5" stroke="#FF7A63" stroke-width="2" stroke-miterlimit="10" stroke-linecap="round" stroke-linejoin="round"/>
<path d="M28.5 16C41.5 16 37.5 28 44.5 28" stroke="#FF7A63" stroke-width="2" stroke-miterlimit="10" stroke-linecap="round" stroke-linejoin="round"/>
<path d="M20.5 6V14H28.5V6H18.5" stroke="#FF7A63" stroke-width="2" stroke-miterlimit="10" stroke-linecap="round" stroke-linejoin="round"/>
<path d="M7.938 49.172V51.09H5.334V59H2.94V51.09H0.336V49.172H7.938ZM11.8135 52.49C12.0935 52.0607 12.4435 51.7247 12.8635 51.482C13.2835 51.23 13.7502 51.104 14.2635 51.104V53.638H13.6055C13.0082 53.638 12.5602 53.7687 12.2615 54.03C11.9628 54.282 11.8135 54.73 11.8135 55.374V59H9.41948V51.188H11.8135V52.49ZM15.2118 55.08C15.2118 54.2773 15.3611 53.5727 15.6598 52.966C15.9678 52.3593 16.3831 51.8927 16.9058 51.566C17.4284 51.2393 18.0118 51.076 18.6558 51.076C19.2064 51.076 19.6871 51.188 20.0978 51.412C20.5178 51.636 20.8398 51.93 21.0638 52.294V51.188H23.4578V59H21.0638V57.894C20.8304 58.258 20.5038 58.552 20.0838 58.776C19.6731 59 19.1924 59.112 18.6418 59.112C18.0071 59.112 17.4284 58.9487 16.9058 58.622C16.3831 58.286 15.9678 57.8147 15.6598 57.208C15.3611 56.592 15.2118 55.8827 15.2118 55.08ZM21.0638 55.094C21.0638 54.4967 20.8958 54.0253 20.5598 53.68C20.2331 53.3347 19.8318 53.162 19.3558 53.162C18.8798 53.162 18.4738 53.3347 18.1378 53.68C17.8111 54.016 17.6478 54.4827 17.6478 55.08C17.6478 55.6773 17.8111 56.1533 18.1378 56.508C18.4738 56.8533 18.8798 57.026 19.3558 57.026C19.8318 57.026 20.2331 56.8533 20.5598 56.508C20.8958 56.1627 21.0638 55.6913 21.0638 55.094ZM30.2297 51.104C31.1444 51.104 31.8724 51.4027 32.4137 52C32.9644 52.588 33.2397 53.4 33.2397 54.436V59H30.8597V54.758C30.8597 54.2353 30.7244 53.8293 30.4537 53.54C30.1831 53.2507 29.8191 53.106 29.3617 53.106C28.9044 53.106 28.5404 53.2507 28.2697 53.54C27.9991 53.8293 27.8637 54.2353 27.8637 54.758V59H25.4697V51.188H27.8637V52.224C28.1064 51.8787 28.4331 51.608 28.8437 51.412C29.2544 51.2067 29.7164 51.104 30.2297 51.104ZM38.3613 59.112C37.68 59.112 37.0733 58.9953 36.5413 58.762C36.0093 58.5287 35.5893 58.2113 35.2813 57.81C34.9733 57.3993 34.8006 56.942 34.7633 56.438H37.1293C37.1573 56.7087 37.2833 56.928 37.5073 57.096C37.7313 57.264 38.0066 57.348 38.3333 57.348C38.632 57.348 38.8606 57.292 39.0193 57.18C39.1873 57.0587 39.2713 56.9047 39.2713 56.718C39.2713 56.494 39.1546 56.3307 38.9213 56.228C38.688 56.116 38.31 55.9947 37.7873 55.864C37.2273 55.7333 36.7606 55.598 36.3873 55.458C36.014 55.3087 35.692 55.08 35.4213 54.772C35.1506 54.4547 35.0153 54.03 35.0153 53.498C35.0153 53.05 35.1366 52.644 35.3793 52.28C35.6313 51.9067 35.9953 51.6127 36.4713 51.398C36.9566 51.1833 37.5306 51.076 38.1933 51.076C39.1733 51.076 39.9433 51.3187 40.5033 51.804C41.0726 52.2893 41.3993 52.9333 41.4833 53.736H39.2713C39.234 53.4653 39.1126 53.2507 38.9073 53.092C38.7113 52.9333 38.45 52.854 38.1233 52.854C37.8433 52.854 37.6286 52.91 37.4793 53.022C37.33 53.1247 37.2553 53.2693 37.2553 53.456C37.2553 53.68 37.372 53.848 37.6053 53.96C37.848 54.072 38.2213 54.184 38.7253 54.296C39.304 54.4453 39.7753 54.5947 40.1393 54.744C40.5033 54.884 40.8206 55.1173 41.0913 55.444C41.3713 55.7613 41.516 56.1907 41.5253 56.732C41.5253 57.1893 41.3946 57.6 41.1333 57.964C40.8813 58.3187 40.5126 58.5987 40.0273 58.804C39.5513 59.0093 38.996 59.112 38.3613 59.112ZM45.664 52.294C45.8973 51.93 46.2193 51.636 46.63 51.412C47.0406 51.188 47.5213 51.076 48.072 51.076C48.716 51.076 49.2993 51.2393 49.822 51.566C50.3446 51.8927 50.7553 52.3593 51.054 52.966C51.362 53.5727 51.516 54.2773 51.516 55.08C51.516 55.8827 51.362 56.592 51.054 57.208C50.7553 57.8147 50.3446 58.286 49.822 58.622C49.2993 58.9487 48.716 59.112 48.072 59.112C47.5306 59.112 47.05 59 46.63 58.776C46.2193 58.552 45.8973 58.2627 45.664 57.908V62.724H43.27V51.188H45.664V52.294ZM49.08 55.08C49.08 54.4827 48.912 54.016 48.576 53.68C48.2493 53.3347 47.8433 53.162 47.358 53.162C46.882 53.162 46.476 53.3347 46.14 53.68C45.8133 54.0253 45.65 54.4967 45.65 55.094C45.65 55.6913 45.8133 56.1627 46.14 56.508C46.476 56.8533 46.882 57.026 47.358 57.026C47.834 57.026 48.24 56.8533 48.576 56.508C48.912 56.1533 49.08 55.6773 49.08 55.08ZM56.6079 59.112C55.8426 59.112 55.1519 58.9487 54.5359 58.622C53.9292 58.2953 53.4486 57.8287 53.0939 57.222C52.7486 56.6153 52.5759 55.906 52.5759 55.094C52.5759 54.2913 52.7532 53.5867 53.1079 52.98C53.4626 52.364 53.9479 51.8927 54.5639 51.566C55.1799 51.2393 55.8706 51.076 56.6359 51.076C57.4012 51.076 58.0919 51.2393 58.7079 51.566C59.3239 51.8927 59.8092 52.364 60.1639 52.98C60.5186 53.5867 60.6959 54.2913 60.6959 55.094C60.6959 55.8967 60.5139 56.606 60.1499 57.222C59.7952 57.8287 59.3052 58.2953 58.6799 58.622C58.0639 58.9487 57.3732 59.112 56.6079 59.112ZM56.6079 57.04C57.0652 57.04 57.4526 56.872 57.7699 56.536C58.0966 56.2 58.2599 55.7193 58.2599 55.094C58.2599 54.4687 58.1012 53.988 57.7839 53.652C57.4759 53.316 57.0932 53.148 56.6359 53.148C56.1692 53.148 55.7819 53.316 55.4739 53.652C55.1659 53.9787 55.0119 54.4593 55.0119 55.094C55.0119 55.7193 55.1612 56.2 55.4599 56.536C55.7679 56.872 56.1506 57.04 56.6079 57.04ZM64.64 52.49C64.92 52.0607 65.27 51.7247 65.69 51.482C66.11 51.23 66.5766 51.104 67.09 51.104V53.638H66.432C65.8346 53.638 65.3866 53.7687 65.088 54.03C64.7893 54.282 64.64 54.73 64.64 55.374V59H62.246V51.188H64.64V52.49ZM72.8682 56.97V59H71.6502C70.7822 59 70.1056 58.79 69.6202 58.37C69.1349 57.9407 68.8922 57.2453 68.8922 56.284V53.176H67.9402V51.188H68.8922V49.284H71.2862V51.188H72.8542V53.176H71.2862V56.312C71.2862 56.5453 71.3422 56.7133 71.4542 56.816C71.5662 56.9187 71.7529 56.97 72.0142 56.97H72.8682ZM81.8457 54.968C81.8457 55.192 81.8317 55.4253 81.8037 55.668H76.3857C76.4231 56.1533 76.5771 56.5267 76.8477 56.788C77.1277 57.04 77.4684 57.166 77.8697 57.166C78.4671 57.166 78.8824 56.914 79.1157 56.41H81.6637C81.5331 56.9233 81.2951 57.3853 80.9497 57.796C80.6137 58.2067 80.1891 58.5287 79.6757 58.762C79.1624 58.9953 78.5884 59.112 77.9537 59.112C77.1884 59.112 76.5071 58.9487 75.9097 58.622C75.3124 58.2953 74.8457 57.8287 74.5097 57.222C74.1737 56.6153 74.0057 55.906 74.0057 55.094C74.0057 54.282 74.1691 53.5727 74.4957 52.966C74.8317 52.3593 75.2984 51.8927 75.8957 51.566C76.4931 51.2393 77.1791 51.076 77.9537 51.076C78.7097 51.076 79.3817 51.2347 79.9697 51.552C80.5577 51.8693 81.0151 52.322 81.3417 52.91C81.6777 53.498 81.8457 54.184 81.8457 54.968ZM79.3957 54.338C79.3957 53.9273 79.2557 53.6007 78.9757 53.358C78.6957 53.1153 78.3457 52.994 77.9257 52.994C77.5244 52.994 77.1837 53.1107 76.9037 53.344C76.6331 53.5773 76.4651 53.9087 76.3997 54.338H79.3957Z" fill="#FF7A63"/>
</svg>
