<svg width="48" height="68" viewBox="0 0 48 68" fill="none" xmlns="http://www.w3.org/2000/svg">
<path d="M18.8999 28C20.6999 29.2 21.9999 31.7 19.1999 33.6C17.6999 37.4 14.4999 36.8 12.8999 35C11.1999 33.2 10.6999 28.7 11.8999 26C14.5999 28 16.5999 26.5 18.8999 28Z" stroke="#FF7A63" stroke-width="2" stroke-miterlimit="10" stroke-linecap="round" stroke-linejoin="round"/>
<path d="M23.9001 23C21.9001 25.3 21.1001 28.6 25.8001 30.6C27.9001 35.4 31.7 33.5 33.9 31C36.1 28.5 36.8 21.6 34.9 18C31.4 21 26.4001 20.1 23.9001 23Z" stroke="#FF7A63" stroke-width="2" stroke-miterlimit="10" stroke-linecap="round" stroke-linejoin="round"/>
<path d="M15.8999 31C15.8999 31 19.4999 32.6 21.8999 39C21.8999 39 24.2999 30.8 31.8999 24" stroke="#FF7A63" stroke-width="2" stroke-miterlimit="10" stroke-linecap="round" stroke-linejoin="round"/>
<path d="M1 21L24 1L47 21" stroke="#FF7A63" stroke-width="2" stroke-miterlimit="10" stroke-linecap="round" stroke-linejoin="round"/>
<path d="M5 17.5V43" stroke="#FF7A63" stroke-width="2" stroke-miterlimit="10" stroke-linejoin="round"/>
<path d="M43 17.5V43" stroke="#FF7A63" stroke-width="2" stroke-miterlimit="10" stroke-linejoin="round"/>
<path d="M31 7.1V1H39V14" stroke="#FF7A63" stroke-width="2" stroke-miterlimit="10" stroke-linecap="round" stroke-linejoin="round"/>
<path d="M1 43H47" stroke="#FF7A63" stroke-width="2" stroke-miterlimit="10" stroke-linecap="round" stroke-linejoin="round"/>
<path d="M10.38 52.172V62H7.986V57.954H4.262V62H1.868V52.172H4.262V56.022H7.986V52.172H10.38ZM15.9442 62.112C15.1789 62.112 14.4882 61.9487 13.8722 61.622C13.2656 61.2953 12.7849 60.8287 12.4302 60.222C12.0849 59.6153 11.9122 58.906 11.9122 58.094C11.9122 57.2913 12.0896 56.5867 12.4442 55.98C12.7989 55.364 13.2842 54.8927 13.9002 54.566C14.5162 54.2393 15.2069 54.076 15.9722 54.076C16.7376 54.076 17.4282 54.2393 18.0442 54.566C18.6602 54.8927 19.1456 55.364 19.5002 55.98C19.8549 56.5867 20.0322 57.2913 20.0322 58.094C20.0322 58.8967 19.8502 59.606 19.4862 60.222C19.1316 60.8287 18.6416 61.2953 18.0162 61.622C17.4002 61.9487 16.7096 62.112 15.9442 62.112ZM15.9442 60.04C16.4016 60.04 16.7889 59.872 17.1062 59.536C17.4329 59.2 17.5962 58.7193 17.5962 58.094C17.5962 57.4687 17.4376 56.988 17.1202 56.652C16.8122 56.316 16.4296 56.148 15.9722 56.148C15.5056 56.148 15.1182 56.316 14.8102 56.652C14.5022 56.9787 14.3482 57.4593 14.3482 58.094C14.3482 58.7193 14.4976 59.2 14.7962 59.536C15.1042 59.872 15.4869 60.04 15.9442 60.04ZM24.5503 54.076C25.101 54.076 25.5816 54.188 25.9923 54.412C26.4123 54.636 26.7343 54.93 26.9583 55.294V54.188H29.3523V61.986C29.3523 62.7047 29.2076 63.3533 28.9183 63.932C28.6383 64.52 28.2043 64.9867 27.6163 65.332C27.0376 65.6773 26.3143 65.85 25.4463 65.85C24.289 65.85 23.351 65.5747 22.6323 65.024C21.9136 64.4827 21.503 63.7453 21.4003 62.812H23.7663C23.841 63.1107 24.0183 63.344 24.2983 63.512C24.5783 63.6893 24.9236 63.778 25.3343 63.778C25.829 63.778 26.221 63.6333 26.5103 63.344C26.809 63.064 26.9583 62.6113 26.9583 61.986V60.88C26.725 61.244 26.403 61.5427 25.9923 61.776C25.5816 62 25.101 62.112 24.5503 62.112C23.9063 62.112 23.323 61.9487 22.8003 61.622C22.2776 61.286 21.8623 60.8147 21.5543 60.208C21.2556 59.592 21.1063 58.8827 21.1063 58.08C21.1063 57.2773 21.2556 56.5727 21.5543 55.966C21.8623 55.3593 22.2776 54.8927 22.8003 54.566C23.323 54.2393 23.9063 54.076 24.5503 54.076ZM26.9583 58.094C26.9583 57.4967 26.7903 57.0253 26.4543 56.68C26.1276 56.3347 25.7263 56.162 25.2503 56.162C24.7743 56.162 24.3683 56.3347 24.0323 56.68C23.7056 57.016 23.5423 57.4827 23.5423 58.08C23.5423 58.6773 23.7056 59.1533 24.0323 59.508C24.3683 59.8533 24.7743 60.026 25.2503 60.026C25.7263 60.026 26.1276 59.8533 26.4543 59.508C26.7903 59.1627 26.9583 58.6913 26.9583 58.094ZM30.8883 58.08C30.8883 57.2773 31.0376 56.5727 31.3363 55.966C31.6443 55.3593 32.0596 54.8927 32.5823 54.566C33.1049 54.2393 33.6883 54.076 34.3323 54.076C34.8829 54.076 35.3636 54.188 35.7743 54.412C36.1943 54.636 36.5163 54.93 36.7403 55.294V54.188H39.1343V62H36.7403V60.894C36.5069 61.258 36.1803 61.552 35.7603 61.776C35.3496 62 34.8689 62.112 34.3183 62.112C33.6836 62.112 33.1049 61.9487 32.5823 61.622C32.0596 61.286 31.6443 60.8147 31.3363 60.208C31.0376 59.592 30.8883 58.8827 30.8883 58.08ZM36.7403 58.094C36.7403 57.4967 36.5723 57.0253 36.2363 56.68C35.9096 56.3347 35.5083 56.162 35.0323 56.162C34.5563 56.162 34.1503 56.3347 33.8143 56.68C33.4876 57.016 33.3243 57.4827 33.3243 58.08C33.3243 58.6773 33.4876 59.1533 33.8143 59.508C34.1503 59.8533 34.5563 60.026 35.0323 60.026C35.5083 60.026 35.9096 59.8533 36.2363 59.508C36.5723 59.1627 36.7403 58.6913 36.7403 58.094ZM43.5402 55.49C43.8202 55.0607 44.1702 54.7247 44.5902 54.482C45.0102 54.23 45.4769 54.104 45.9902 54.104V56.638H45.3322C44.7349 56.638 44.2869 56.7687 43.9882 57.03C43.6895 57.282 43.5402 57.73 43.5402 58.374V62H41.1462V54.188H43.5402V55.49Z" fill="#FF7A63"/>
</svg>
