<svg width="87" height="69" viewBox="0 0 87 69" fill="none" xmlns="http://www.w3.org/2000/svg">
<path d="M26.5 17L22.2 16.3C21.2 16.1 20.5 15.3 20.5 14.3V10L25.1 11.5C25.9 11.8 26.5 12.5 26.5 13.4V17Z" stroke="#FF7A63" stroke-width="2" stroke-miterlimit="10" stroke-linecap="round" stroke-linejoin="round"/>
<path d="M26.5 26L22.2 25.3C21.2 25.1 20.5 24.3 20.5 23.3V19L25.1 20.5C25.9 20.8 26.5 21.5 26.5 22.4V26Z" stroke="#FF7A63" stroke-width="2" stroke-miterlimit="10" stroke-linecap="round" stroke-linejoin="round"/>
<path d="M26.5 35L22.2 34.3C21.2 34.1 20.5 33.3 20.5 32.3V28L25.1 29.5C25.9 29.8 26.5 30.5 26.5 31.4V35Z" stroke="#FF7A63" stroke-width="2" stroke-miterlimit="10" stroke-linecap="round" stroke-linejoin="round"/>
<path d="M34.5 17L38.8 16.3C39.8 16.1 40.5 15.3 40.5 14.3V10L35.9 11.5C35.1 11.8 34.5 12.5 34.5 13.4V17Z" stroke="#FF7A63" stroke-width="2" stroke-miterlimit="10" stroke-linecap="round" stroke-linejoin="round"/>
<path d="M34.5 26L38.8 25.3C39.8 25.1 40.5 24.3 40.5 23.3V19L35.9 20.5C35.1 20.8 34.5 21.5 34.5 22.4V26Z" stroke="#FF7A63" stroke-width="2" stroke-miterlimit="10" stroke-linecap="round" stroke-linejoin="round"/>
<path d="M34.5 35L38.8 34.3C39.8 34.1 40.5 33.3 40.5 32.3V28L35.9 29.5C35.1 29.8 34.5 30.5 34.5 31.4V35Z" stroke="#FF7A63" stroke-width="2" stroke-miterlimit="10" stroke-linecap="round" stroke-linejoin="round"/>
<path d="M30.5 13V47" stroke="#FF7A63" stroke-width="2" stroke-miterlimit="10" stroke-linecap="round" stroke-linejoin="round"/>
<path d="M33.5 6C33.5 7.7 32.2 9 30.5 9C28.8 9 27.5 7.7 27.5 6C27.5 4.3 30.5 1 30.5 1C30.5 1 33.5 4.3 33.5 6Z" stroke="#FF7A63" stroke-width="2" stroke-miterlimit="10" stroke-linecap="round" stroke-linejoin="round"/>
<path d="M52.5 29L48.2 28.3C47.2 28.1 46.5 27.3 46.5 26.3V22L51.1 23.5C51.9 23.8 52.5 24.5 52.5 25.4V29Z" stroke="#FF7A63" stroke-width="2" stroke-miterlimit="10" stroke-linecap="round" stroke-linejoin="round"/>
<path d="M52.5 38L48.2 37.3C47.2 37.1 46.5 36.3 46.5 35.3V31L51.1 32.5C51.9 32.8 52.5 33.5 52.5 34.4V38Z" stroke="#FF7A63" stroke-width="2" stroke-miterlimit="10" stroke-linecap="round" stroke-linejoin="round"/>
<path d="M60.5 29L64.8 28.3C65.8 28.1 66.5 27.3 66.5 26.3V22L61.9 23.5C61.1 23.8 60.5 24.5 60.5 25.4V29Z" stroke="#FF7A63" stroke-width="2" stroke-miterlimit="10" stroke-linecap="round" stroke-linejoin="round"/>
<path d="M60.5 38L64.8 37.3C65.8 37.1 66.5 36.3 66.5 35.3V31L61.9 32.5C61.1 32.8 60.5 33.5 60.5 34.4V38Z" stroke="#FF7A63" stroke-width="2" stroke-miterlimit="10" stroke-linecap="round" stroke-linejoin="round"/>
<path d="M56.5 25V47" stroke="#FF7A63" stroke-width="2" stroke-miterlimit="10" stroke-linecap="round" stroke-linejoin="round"/>
<path d="M59.5 18C59.5 19.7 58.2 21 56.5 21C54.8 21 53.5 19.7 53.5 18C53.5 16.3 56.5 13 56.5 13C56.5 13 59.5 16.3 59.5 18Z" stroke="#FF7A63" stroke-width="2" stroke-miterlimit="10" stroke-linecap="round" stroke-linejoin="round"/>
<path d="M5.988 62.512H2.844L2.34 64H0.192L3.24 55.576H5.616L8.664 64H6.492L5.988 62.512ZM5.46 60.928L4.416 57.844L3.384 60.928H5.46ZM11.8837 55.12V64H9.83166V55.12H11.8837ZM14.6427 56.608C14.2827 56.608 13.9867 56.504 13.7547 56.296C13.5307 56.08 13.4187 55.816 13.4187 55.504C13.4187 55.184 13.5307 54.92 13.7547 54.712C13.9867 54.496 14.2827 54.388 14.6427 54.388C14.9947 54.388 15.2827 54.496 15.5067 54.712C15.7387 54.92 15.8547 55.184 15.8547 55.504C15.8547 55.816 15.7387 56.08 15.5067 56.296C15.2827 56.504 14.9947 56.608 14.6427 56.608ZM15.6627 57.304V64H13.6107V57.304H15.6627ZM25.9338 57.232C26.7658 57.232 27.4258 57.484 27.9138 57.988C28.4098 58.492 28.6578 59.192 28.6578 60.088V64H26.6178V60.364C26.6178 59.932 26.5018 59.6 26.2698 59.368C26.0458 59.128 25.7338 59.008 25.3338 59.008C24.9338 59.008 24.6178 59.128 24.3858 59.368C24.1618 59.6 24.0498 59.932 24.0498 60.364V64H22.0098V60.364C22.0098 59.932 21.8938 59.6 21.6618 59.368C21.4378 59.128 21.1258 59.008 20.7258 59.008C20.3258 59.008 20.0098 59.128 19.7778 59.368C19.5538 59.6 19.4418 59.932 19.4418 60.364V64H17.3898V57.304H19.4418V58.144C19.6498 57.864 19.9218 57.644 20.2578 57.484C20.5938 57.316 20.9738 57.232 21.3978 57.232C21.9018 57.232 22.3498 57.34 22.7418 57.556C23.1418 57.772 23.4538 58.08 23.6778 58.48C23.9098 58.112 24.2258 57.812 24.6258 57.58C25.0258 57.348 25.4618 57.232 25.9338 57.232ZM36.6449 60.544C36.6449 60.736 36.6329 60.936 36.6089 61.144H31.9649C31.9969 61.56 32.1289 61.88 32.3609 62.104C32.6009 62.32 32.8929 62.428 33.2369 62.428C33.7489 62.428 34.1049 62.212 34.3049 61.78H36.4889C36.3769 62.22 36.1729 62.616 35.8769 62.968C35.5889 63.32 35.2249 63.596 34.7849 63.796C34.3449 63.996 33.8529 64.096 33.3089 64.096C32.6529 64.096 32.0689 63.956 31.5569 63.676C31.0449 63.396 30.6449 62.996 30.3569 62.476C30.0689 61.956 29.9249 61.348 29.9249 60.652C29.9249 59.956 30.0649 59.348 30.3449 58.828C30.6329 58.308 31.0329 57.908 31.5449 57.628C32.0569 57.348 32.6449 57.208 33.3089 57.208C33.9569 57.208 34.5329 57.344 35.0369 57.616C35.5409 57.888 35.9329 58.276 36.2129 58.78C36.5009 59.284 36.6449 59.872 36.6449 60.544ZM34.5449 60.004C34.5449 59.652 34.4249 59.372 34.1849 59.164C33.9449 58.956 33.6449 58.852 33.2849 58.852C32.9409 58.852 32.6489 58.952 32.4089 59.152C32.1769 59.352 32.0329 59.636 31.9769 60.004H34.5449ZM42.0474 57.232C42.8314 57.232 43.4554 57.488 43.9194 58C44.3914 58.504 44.6274 59.2 44.6274 60.088V64H42.5874V60.364C42.5874 59.916 42.4714 59.568 42.2394 59.32C42.0074 59.072 41.6954 58.948 41.3034 58.948C40.9114 58.948 40.5994 59.072 40.3674 59.32C40.1354 59.568 40.0194 59.916 40.0194 60.364V64H37.9674V57.304H40.0194V58.192C40.2274 57.896 40.5074 57.664 40.8594 57.496C41.2114 57.32 41.6074 57.232 42.0474 57.232ZM50.0254 62.26V64H48.9814C48.2374 64 47.6574 63.82 47.2414 63.46C46.8254 63.092 46.6174 62.496 46.6174 61.672V59.008H45.8014V57.304H46.6174V55.672H48.6694V57.304H50.0134V59.008H48.6694V61.696C48.6694 61.896 48.7174 62.04 48.8134 62.128C48.9094 62.216 49.0694 62.26 49.2934 62.26H50.0254ZM51.0004 60.64C51.0004 59.952 51.1284 59.348 51.3844 58.828C51.6484 58.308 52.0044 57.908 52.4524 57.628C52.9004 57.348 53.4004 57.208 53.9524 57.208C54.4244 57.208 54.8364 57.304 55.1884 57.496C55.5484 57.688 55.8244 57.94 56.0164 58.252V57.304H58.0684V64H56.0164V63.052C55.8164 63.364 55.5364 63.616 55.1764 63.808C54.8244 64 54.4124 64.096 53.9404 64.096C53.3964 64.096 52.9004 63.956 52.4524 63.676C52.0044 63.388 51.6484 62.984 51.3844 62.464C51.1284 61.936 51.0004 61.328 51.0004 60.64ZM56.0164 60.652C56.0164 60.14 55.8724 59.736 55.5844 59.44C55.3044 59.144 54.9604 58.996 54.5524 58.996C54.1444 58.996 53.7964 59.144 53.5084 59.44C53.2284 59.728 53.0884 60.128 53.0884 60.64C53.0884 61.152 53.2284 61.56 53.5084 61.864C53.7964 62.16 54.1444 62.308 54.5524 62.308C54.9604 62.308 55.3044 62.16 55.5844 61.864C55.8724 61.568 56.0164 61.164 56.0164 60.652ZM59.3849 60.652C59.3849 59.956 59.5249 59.348 59.8049 58.828C60.0929 58.308 60.4889 57.908 60.9929 57.628C61.5049 57.348 62.0889 57.208 62.7449 57.208C63.5849 57.208 64.2849 57.428 64.8449 57.868C65.4129 58.308 65.7849 58.928 65.9609 59.728H63.7769C63.5929 59.216 63.2369 58.96 62.7089 58.96C62.3329 58.96 62.0329 59.108 61.8089 59.404C61.5849 59.692 61.4729 60.108 61.4729 60.652C61.4729 61.196 61.5849 61.616 61.8089 61.912C62.0329 62.2 62.3329 62.344 62.7089 62.344C63.2369 62.344 63.5929 62.088 63.7769 61.576H65.9609C65.7849 62.36 65.4129 62.976 64.8449 63.424C64.2769 63.872 63.5769 64.096 62.7449 64.096C62.0889 64.096 61.5049 63.956 60.9929 63.676C60.4889 63.396 60.0929 62.996 59.8049 62.476C59.5249 61.956 59.3849 61.348 59.3849 60.652ZM68.3305 56.608C67.9705 56.608 67.6745 56.504 67.4425 56.296C67.2185 56.08 67.1065 55.816 67.1065 55.504C67.1065 55.184 67.2185 54.92 67.4425 54.712C67.6745 54.496 67.9705 54.388 68.3305 54.388C68.6825 54.388 68.9705 54.496 69.1945 54.712C69.4265 54.92 69.5425 55.184 69.5425 55.504C69.5425 55.816 69.4265 56.08 69.1945 56.296C68.9705 56.504 68.6825 56.608 68.3305 56.608ZM69.3505 57.304V64H67.2985V57.304H69.3505ZM74.1256 64.096C73.4696 64.096 72.8776 63.956 72.3496 63.676C71.8296 63.396 71.4176 62.996 71.1136 62.476C70.8176 61.956 70.6696 61.348 70.6696 60.652C70.6696 59.964 70.8216 59.36 71.1256 58.84C71.4296 58.312 71.8456 57.908 72.3736 57.628C72.9016 57.348 73.4936 57.208 74.1496 57.208C74.8056 57.208 75.3976 57.348 75.9256 57.628C76.4536 57.908 76.8696 58.312 77.1736 58.84C77.4776 59.36 77.6296 59.964 77.6296 60.652C77.6296 61.34 77.4736 61.948 77.1616 62.476C76.8576 62.996 76.4376 63.396 75.9016 63.676C75.3736 63.956 74.7816 64.096 74.1256 64.096ZM74.1256 62.32C74.5176 62.32 74.8496 62.176 75.1216 61.888C75.4016 61.6 75.5416 61.188 75.5416 60.652C75.5416 60.116 75.4056 59.704 75.1336 59.416C74.8696 59.128 74.5416 58.984 74.1496 58.984C73.7496 58.984 73.4176 59.128 73.1536 59.416C72.8896 59.696 72.7576 60.108 72.7576 60.652C72.7576 61.188 72.8856 61.6 73.1416 61.888C73.4056 62.176 73.7336 62.32 74.1256 62.32ZM75.7096 55.588L72.8176 56.8V55.384L75.7096 53.992V55.588ZM83.0382 57.232C83.8222 57.232 84.4462 57.488 84.9102 58C85.3822 58.504 85.6182 59.2 85.6182 60.088V64H83.5782V60.364C83.5782 59.916 83.4622 59.568 83.2302 59.32C82.9982 59.072 82.6862 58.948 82.2942 58.948C81.9022 58.948 81.5902 59.072 81.3582 59.32C81.1262 59.568 81.0102 59.916 81.0102 60.364V64H78.9582V57.304H81.0102V58.192C81.2182 57.896 81.4982 57.664 81.8502 57.496C82.2022 57.32 82.5982 57.232 83.0382 57.232Z" fill="#FF7A63"/>
</svg>
