<svg width="304" height="232" viewBox="0 0 304 232" fill="none" xmlns="http://www.w3.org/2000/svg">
<path d="M178.427 232C224.932 232 262.631 229.419 262.631 226.235C262.631 223.051 224.932 220.47 178.427 220.47C131.922 220.47 94.2227 223.051 94.2227 226.235C94.2227 229.419 131.922 232 178.427 232Z" fill="#B59B00"/>
<path d="M259.479 186.717C288.962 184.707 290.994 173.024 290.994 173.024C290.994 173.024 225.247 171.385 156.254 171.304C79.2534 171.214 4.35168 175.467 0.196187 180.229C-5.0362 186.218 96.1064 190.466 98.9503 187.547C101.166 185.273 93.7791 183.711 86.3929 181.79C81.7551 180.583 91.0984 171.811 176.738 179.133C212.096 182.157 236.581 188.279 259.479 186.717Z" fill="#907B00"/>
<path d="M107.467 182.406C113.943 182.406 119.193 181.609 119.193 180.625C119.193 179.642 113.943 178.844 107.467 178.844C100.99 178.844 95.7402 179.642 95.7402 180.625C95.7402 181.609 100.99 182.406 107.467 182.406Z" fill="#907B00"/>
<path d="M265.956 158.351C265.963 163.083 265.533 167.807 264.671 172.464C248.866 172.164 227.146 171.809 202.895 171.571C202.141 167.203 201.765 162.78 201.771 158.351C201.771 130.625 216.139 108.149 233.864 108.149C251.59 108.149 265.956 130.625 265.956 158.351Z" fill="#C8D9D2"/>
<path d="M82.3874 172.528C47.9878 173.734 20.0013 175.725 7.33447 178.002C11.7673 171.129 27.0777 159.075 46.3515 156.246C67.551 153.133 79.6567 159.981 82.3874 172.528Z" fill="#C8D9D2"/>
<path d="M292.22 165.491C292.222 168.05 291.796 170.593 290.958 173.018H290.697H290.683C285.737 172.896 222.49 171.383 156.254 171.308C127.524 171.275 99.0853 171.851 74.5049 172.824C76.1355 170.231 79.7697 168.425 83.992 168.425C86.054 168.425 87.9805 168.856 89.5926 169.602C89.1458 166.972 89.5969 164.271 90.8765 161.916C92.1562 159.56 94.1935 157.68 96.6751 156.564C99.1568 155.449 101.945 155.159 104.612 155.741C107.278 156.323 109.675 157.743 111.434 159.783C111.517 159.879 111.597 159.976 111.676 160.075C111.725 159.977 111.775 159.88 111.826 159.783C116.669 150.552 128.523 144.023 142.378 144.023C157.489 144.023 170.218 151.784 174.068 162.359C176.305 160.311 179.238 159.141 182.305 159.071C185.371 159.001 188.357 160.037 190.69 161.98C196.312 156.377 204.85 152.802 214.41 152.802C224.944 152.802 234.237 157.146 239.755 163.753C240.714 151.034 252.077 140.995 265.954 140.995C280.46 140.987 292.22 151.956 292.22 165.491Z" fill="#B59B00"/>
<path d="M281.172 33.0538H177.007C177.007 29.8645 180.455 24.7275 197.199 30.9813C197.199 30.9813 197.628 23.7455 206.135 26.1448C216.162 28.9721 208.528 18.1433 217.181 16.5133C221.67 15.668 224.137 18.0519 225.915 20.0158C226.769 8.83137 237.006 0 249.512 0C262.576 0 273.165 9.64047 273.165 21.5336C273.165 22.2631 273.125 22.9921 273.045 23.7174C274.382 22.1228 277.341 20.6964 281.376 20.7887C281.468 20.7887 281.561 20.7924 281.655 20.7996C289.83 21.2575 289.365 33.0538 281.172 33.0538Z" fill="#E5F1EF"/>
<path d="M74.2029 111.877C92.3279 111.877 107.021 87.7833 107.021 58.0623C107.021 28.3412 92.3279 4.24756 74.2029 4.24756C56.078 4.24756 41.3848 28.3412 41.3848 58.0623C41.3848 87.7833 56.078 111.877 74.2029 111.877Z" fill="#907B00"/>
<path d="M85.1242 20.0373C85.7272 22.5053 84.973 24.8548 83.4212 25.7037C82.713 24.8772 82.2164 23.8981 81.9724 22.8474C81.3704 20.3794 82.1226 18.0317 83.6763 17.1819C84.3835 18.0086 84.8797 18.9872 85.1242 20.0373Z" fill="#B59B00"/>
<path d="M88.5545 26.3156C87.5008 27.7139 85.911 28.3691 84.771 27.9537C84.9001 27.2279 85.204 26.5423 85.6578 25.9535C86.7115 24.5561 88.3004 23.9008 89.4413 24.3163C89.312 25.0418 89.008 25.7269 88.5545 26.3156Z" fill="#B59B00"/>
<path d="M96.2522 41.9461C95.9007 44.073 94.5251 45.6758 93.0243 45.8487C92.7442 44.9755 92.6806 44.0499 92.8388 43.148C93.1903 41.0212 94.565 39.4193 96.0667 39.2473C96.3463 40.12 96.4099 41.0449 96.2522 41.9461Z" fill="#B59B00"/>
<path d="M97.221 47.3833C95.8584 47.9607 94.4291 47.7815 93.7891 47.014C94.1953 46.5436 94.7099 46.1736 95.2908 45.9343C96.6534 45.3578 98.0818 45.537 98.7228 46.3045C98.3166 46.7748 97.8019 47.1445 97.221 47.3833Z" fill="#B59B00"/>
<path d="M68.7876 28.4368C68.7876 30.4632 67.9945 32.1972 66.8694 32.9158C65.7442 32.1981 64.9512 30.4632 64.9512 28.4368C64.9512 26.4104 65.7442 24.6764 66.8694 23.9578C67.9945 24.6773 68.7876 26.4122 68.7876 28.4368Z" fill="#B59B00"/>
<path d="M64.0431 33.091C65.0412 34.4956 65.3417 36.0704 64.9197 37.0967C63.7853 37.1266 62.3809 36.2949 61.3829 34.8902C60.3848 33.4856 60.0843 31.9099 60.5063 30.8845C61.6407 30.8556 63.046 31.6864 64.0431 33.091Z" fill="#B59B00"/>
<path d="M55.9792 79.2475C57.4828 78.8067 58.9419 78.9895 59.7201 79.6285C59.4326 80.5788 58.3176 81.5174 56.8141 81.9581C55.3105 82.3989 53.8505 82.2161 53.0723 81.5771C53.3607 80.6259 54.4766 79.6882 55.9792 79.2475Z" fill="#B59B00"/>
<path d="M62.8411 70.9225C62.7947 72.7417 62.0425 73.377 61.0147 73.9997C60.0213 73.3308 59.3451 72.6593 59.3952 70.8401C59.4453 69.021 60.717 66.3538 61.2216 65.9529C61.6956 66.3665 62.8847 69.1034 62.8411 70.9225Z" fill="#B59B00"/>
<path d="M68.5926 63.6815C68.5462 65.5006 67.7939 66.136 66.7662 66.7586C65.7728 66.0898 65.0966 65.4183 65.1467 63.5991C65.1967 61.78 66.4684 59.1128 66.973 58.7119C67.447 59.1255 68.6361 61.8624 68.5926 63.6815Z" fill="#B59B00"/>
<path d="M80.9767 119.869C80.9294 121.688 80.1771 122.323 79.1503 122.946C78.156 122.276 77.4807 121.606 77.5299 119.787C77.579 117.968 78.8526 115.3 79.3572 114.899C79.8311 115.312 81.0231 118.049 80.9767 119.869Z" fill="#B59B00"/>
<path d="M69.505 141.517C70.4511 143.086 70.1543 144.014 69.6219 145.07C68.4161 145.015 67.4811 144.793 66.534 143.224C65.587 141.656 65.2243 138.734 65.4358 138.135C66.0628 138.242 68.558 139.949 69.505 141.517Z" fill="#B59B00"/>
<path d="M41.4966 83.044C42.4325 84.6179 42.1311 85.5438 41.5894 86.5972C40.3835 86.5339 39.4504 86.3049 38.5154 84.731C37.5805 83.1571 37.2363 80.232 37.4524 79.6338C38.0776 79.7451 40.5607 81.4692 41.4966 83.044Z" fill="#B59B00"/>
<path d="M82.6515 125.228C81.7749 126.015 81.1414 125.961 80.3928 125.776C80.2658 125.034 80.2825 124.434 81.1599 123.646C82.0374 122.859 83.8573 122.245 84.2701 122.289C84.2858 122.689 83.528 124.442 82.6515 125.228Z" fill="#B59B00"/>
<path d="M70.8622 136.779C71.018 137.988 70.532 139.073 69.7491 139.398C69.4551 138.968 69.2704 138.475 69.2102 137.961C69.0544 136.752 69.5395 135.669 70.3233 135.342C70.6168 135.773 70.8015 136.265 70.8622 136.779Z" fill="#B59B00"/>
<path d="M73.5913 172.867V14.4705" stroke="#B59B00" stroke-width="6" stroke-miterlimit="10"/>
<path d="M66.9438 31.3213V46.3821C66.9438 46.9866 67.0659 47.5853 67.303 48.1438C67.5402 48.7023 67.8878 49.2098 68.3259 49.6372C68.7641 50.0647 69.2843 50.4037 69.8567 50.635C70.4292 50.8662 71.0428 50.9852 71.6624 50.9851V50.9851C72.174 50.9853 72.6646 51.1838 73.0264 51.5367C73.3881 51.8897 73.5915 52.3684 73.5917 52.8676" stroke="#B59B00" stroke-width="6" stroke-miterlimit="10"/>
<path d="M66.9438 68.1108V87.6597C66.9438 88.64 67.343 89.5802 68.0534 90.2733C68.7638 90.9665 69.7273 91.3559 70.732 91.3559C71.4903 91.3559 72.2175 91.6498 72.7538 92.1729C73.2901 92.6959 73.5915 93.4054 73.5917 94.1453" stroke="#B59B00" stroke-width="6" stroke-miterlimit="10"/>
<path d="M67.6816 115.804C67.6816 117.845 69.1889 119.501 71.0496 119.501C72.453 119.501 73.5912 120.75 73.5912 122.29" stroke="#B59B00" stroke-width="6" stroke-miterlimit="10"/>
<path d="M61.0293 72.636V78.0463C61.0293 78.818 61.3435 79.5581 61.9027 80.1038C62.462 80.6495 63.2205 80.956 64.0114 80.956H64.9251C65.4598 80.9563 65.9726 81.1636 66.3507 81.5326C66.7288 81.9015 66.9413 82.4018 66.9416 82.9236" stroke="#B59B00" stroke-width="6" stroke-miterlimit="10"/>
<path d="M83.4393 23.8059V32.6907C83.4393 34.32 82.7759 35.8826 81.5951 37.0347C80.4143 38.1868 78.8128 38.8341 77.143 38.8341V38.8341C76.6765 38.8341 76.2145 38.9237 75.7836 39.098C75.3526 39.2722 74.961 39.5275 74.6312 39.8494C74.3014 40.1713 74.0398 40.5534 73.8614 40.974C73.683 41.3945 73.5912 41.8452 73.5913 42.3004" stroke="#B59B00" stroke-width="6" stroke-miterlimit="10"/>
<path d="M64.9194 37.0974L66.0446 38.893C66.6324 39.8295 66.9434 40.9063 66.9434 42.0045" stroke="#B59B00" stroke-width="6" stroke-miterlimit="10"/>
<path d="M79.2541 120.052V127.74C79.254 128.868 79.0001 129.982 78.5105 131.004C78.0209 132.026 77.3074 132.931 76.4204 133.654L75.5299 134.378C74.9229 134.873 74.4347 135.493 74.0997 136.192C73.7648 136.892 73.5912 137.654 73.5913 138.426" stroke="#B59B00" stroke-width="6" stroke-miterlimit="10"/>
<path d="M84.8076 129.719C84.8076 130.548 84.4704 131.342 83.8701 131.928C83.2698 132.514 82.4556 132.843 81.6066 132.843H77.3481" stroke="#B59B00" stroke-width="6" stroke-miterlimit="10" stroke-linecap="round"/>
<path d="M69.4702 144.017V165.549C69.4702 166.303 69.7774 167.027 70.3241 167.56C70.8708 168.094 71.6124 168.394 72.3856 168.394V168.394C72.7054 168.394 73.0121 168.518 73.2382 168.738C73.4643 168.959 73.5914 169.258 73.5914 169.57" stroke="#B59B00" stroke-width="6" stroke-miterlimit="10"/>
<path d="M45.4958 145.973C58.2771 145.973 68.6385 133.408 68.6385 117.908C68.6385 102.408 58.2771 89.8423 45.4958 89.8423C32.7144 89.8423 22.353 102.408 22.353 117.908C22.353 133.408 32.7144 145.973 45.4958 145.973Z" fill="#B59B00"/>
<path d="M52.9644 106.931C53.4486 108.911 53.0572 110.816 52.0823 111.93C51.991 112.032 51.8763 112.111 51.7478 112.16C51.6193 112.21 51.4806 112.23 51.3429 112.217C51.2052 112.204 51.0725 112.16 50.9557 112.088C50.8388 112.016 50.7411 111.918 50.6706 111.802C50.2762 111.163 49.9867 110.468 49.8126 109.741C49.2106 107.273 49.9638 104.926 51.5165 104.076C52.2241 104.902 52.7203 105.881 52.9644 106.931Z" fill="#907B00"/>
<path d="M31.556 145.447C33.2349 146.956 33.8656 149.029 33.1607 150.389C32.23 150.125 31.3768 149.65 30.6711 149.002C28.9931 147.491 28.3623 145.42 29.0673 144.059C29.9976 144.323 30.8504 144.799 31.556 145.447Z" fill="#907B00"/>
<path d="M29.0503 150.252C30.2978 150.317 31.3052 150.976 31.4944 151.791C31.0075 151.996 30.4776 152.086 29.9481 152.053C28.7015 151.988 27.6951 151.329 27.5059 150.515C27.9922 150.309 28.5214 150.22 29.0503 150.252Z" fill="#B59B00"/>
<path d="M57.2267 113.296C56.5774 114.911 55.2111 115.941 53.9997 115.825C53.9337 115.091 54.0475 114.352 54.3317 113.67C54.981 112.055 56.3473 111.025 57.5587 111.141C57.6242 111.875 57.5104 112.614 57.2267 113.296Z" fill="#907B00"/>
<path d="M38.8413 103.917C39.8152 105.47 39.537 106.402 39.0203 107.467C37.8145 107.432 36.8749 107.226 35.9009 105.673C34.927 104.121 34.5096 101.205 34.7136 100.605C35.3425 100.699 37.8674 102.365 38.8413 103.917Z" fill="#907B00"/>
<path d="M42.7075 103.669C42.3049 105.026 41.613 105.354 40.7179 105.622C40.1085 104.93 39.7402 104.297 40.1428 102.943C40.5454 101.589 42.0397 99.836 42.4988 99.6333C42.7696 100.035 43.1101 102.315 42.7075 103.669Z" fill="#907B00"/>
<path d="M44.7896 115.427V174.225" stroke="#907B00" stroke-width="6" stroke-miterlimit="10" stroke-linecap="round"/>
<path d="M51.3447 113.617V120.243C51.3449 122.595 50.4604 124.867 48.8588 126.626L46.6883 129.01C45.465 130.354 44.7894 132.089 44.7896 133.886" stroke="#907B00" stroke-width="6" stroke-miterlimit="10" stroke-linecap="round"/>
<path d="M32.3901 149.265C33.2495 150.496 34.404 151.503 35.7532 152.199C37.1024 152.895 38.6054 153.259 40.1316 153.259H41.4849C42.3608 153.259 43.2008 153.598 43.8205 154.202C44.4402 154.806 44.7888 155.625 44.7898 156.48" stroke="#907B00" stroke-width="6" stroke-miterlimit="10" stroke-linecap="round"/>
<path d="M54.202 116.873V118.412C54.2022 118.572 54.1699 118.73 54.1072 118.878C54.0445 119.026 53.9524 119.161 53.8364 119.274C53.7204 119.388 53.5826 119.477 53.431 119.539C53.2793 119.6 53.1168 119.632 52.9526 119.632H52.3256C52.0773 119.632 51.8393 119.728 51.6638 119.899C51.4883 120.07 51.3896 120.303 51.3896 120.545" stroke="#907B00" stroke-width="6" stroke-miterlimit="10" stroke-linecap="round"/>
<path d="M40.229 107.417V120.119C40.229 120.775 40.4958 121.403 40.9706 121.867C41.4455 122.33 42.0896 122.591 42.7613 122.591C43.2989 122.591 43.8145 122.799 44.1947 123.17C44.5749 123.541 44.7887 124.044 44.7889 124.568" stroke="#907B00" stroke-width="6" stroke-miterlimit="10" stroke-linecap="round"/>
<path d="M50.5697 145.46V146.376C50.5697 147.09 50.2788 147.776 49.761 148.281C49.2431 148.786 48.5407 149.07 47.8084 149.07H46.3744C45.9544 149.07 45.5517 149.233 45.2548 149.523C44.9578 149.812 44.791 150.205 44.791 150.615" stroke="#907B00" stroke-width="6" stroke-miterlimit="10" stroke-linecap="round"/>
<path d="M38.5898 150.673C38.5898 151.361 38.8701 152.021 39.369 152.508C39.8679 152.995 40.5446 153.268 41.2501 153.268" stroke="#907B00" stroke-width="6" stroke-miterlimit="10" stroke-linecap="round"/>
<path d="M37.3901 109.932V112.714C37.3901 113.17 37.5758 113.607 37.9063 113.929C38.2368 114.252 38.6851 114.433 39.1525 114.433V114.433C39.294 114.433 39.4342 114.459 39.565 114.512C39.6958 114.565 39.8147 114.642 39.9148 114.739C40.0148 114.837 40.0942 114.953 40.1482 115.081C40.2022 115.208 40.2298 115.345 40.2294 115.483" stroke="#907B00" stroke-width="6" stroke-miterlimit="10" stroke-linecap="round"/>
<path d="M150.44 145.118C168.565 145.118 183.258 121.025 183.258 91.3037C183.258 61.5827 168.565 37.489 150.44 37.489C132.315 37.489 117.622 61.5827 117.622 91.3037C117.622 121.025 132.315 145.118 150.44 145.118Z" fill="#907B00"/>
<path d="M161.361 53.2787C161.964 55.7468 161.21 58.0963 159.658 58.9452C158.95 58.1186 158.453 57.1396 158.209 56.0889C157.607 53.6208 158.359 51.2732 159.913 50.4233C160.62 51.2501 161.117 52.2286 161.361 53.2787Z" fill="#B59B00"/>
<path d="M164.791 59.5577C163.738 60.9561 162.148 61.6113 161.008 61.1959C161.137 60.4701 161.441 59.7845 161.895 59.1957C162.948 57.7983 164.537 57.143 165.678 57.5585C165.549 58.2839 165.245 58.9691 164.791 59.5577Z" fill="#B59B00"/>
<path d="M172.491 75.1876C172.139 77.3144 170.763 78.9173 169.263 79.0901C168.982 78.217 168.919 77.2913 169.077 76.3895C169.429 74.2626 170.803 72.6607 172.305 72.4888C172.585 73.3614 172.648 74.2863 172.491 75.1876Z" fill="#B59B00"/>
<path d="M173.458 80.6248C172.095 81.2022 170.666 81.023 170.026 80.2555C170.432 79.785 170.947 79.415 171.528 79.1757C172.89 78.5992 174.319 78.7784 174.96 79.5459C174.553 80.0163 174.039 80.386 173.458 80.6248Z" fill="#B59B00"/>
<path d="M145.024 61.6792C145.024 63.7056 144.231 65.4397 143.106 66.1583C141.981 65.4406 141.188 63.7056 141.188 61.6792C141.188 59.6528 141.981 57.9188 143.106 57.2002C144.231 57.9197 145.024 59.6547 145.024 61.6792Z" fill="#B59B00"/>
<path d="M140.279 66.3332C141.278 67.7378 141.578 69.3126 141.156 70.3389C140.022 70.3688 138.617 69.5371 137.619 68.1324C136.621 66.7278 136.321 65.1521 136.743 64.1267C137.877 64.0977 139.282 64.9286 140.279 66.3332Z" fill="#B59B00"/>
<path d="M132.216 112.488C133.72 112.047 135.179 112.23 135.957 112.869C135.669 113.82 134.554 114.758 133.051 115.199C131.547 115.64 130.087 115.457 129.309 114.818C129.598 113.867 130.713 112.929 132.216 112.488Z" fill="#B59B00"/>
<path d="M139.078 104.164C139.032 105.983 138.279 106.618 137.252 107.241C136.258 106.572 135.582 105.901 135.632 104.082C135.682 102.262 136.954 99.5953 137.458 99.1943C137.932 99.6079 139.122 102.345 139.078 104.164Z" fill="#B59B00"/>
<path d="M144.83 96.923C144.783 98.7421 144.031 99.3774 143.003 100C142.01 99.3313 141.334 98.6597 141.384 96.8406C141.434 95.0215 142.706 92.3543 143.21 91.9534C143.684 92.367 144.873 95.1038 144.83 96.923Z" fill="#B59B00"/>
<path d="M157.214 153.111C157.167 154.93 156.414 155.566 155.388 156.188C154.393 155.519 153.718 154.848 153.767 153.029C153.816 151.21 155.09 148.543 155.594 148.142C156.068 148.554 157.26 151.291 157.214 153.111Z" fill="#B59B00"/>
<path d="M145.742 174.76C146.688 176.329 146.391 177.256 145.859 178.312C144.653 178.258 143.718 178.035 142.771 176.467C141.824 174.899 141.461 171.977 141.673 171.378C142.3 171.485 144.795 173.192 145.742 174.76Z" fill="#B59B00"/>
<path d="M117.734 116.285C118.67 117.859 118.368 118.785 117.827 119.838C116.621 119.775 115.688 119.546 114.753 117.972C113.818 116.398 113.474 113.473 113.69 112.875C114.315 112.986 116.798 114.71 117.734 116.285Z" fill="#B59B00"/>
<path d="M158.888 158.469C158.012 159.257 157.378 159.202 156.63 159.018C156.503 158.276 156.519 157.676 157.397 156.888C158.274 156.101 160.094 155.486 160.507 155.531C160.523 155.931 159.765 157.684 158.888 158.469Z" fill="#B59B00"/>
<path d="M147.099 170.021C147.255 171.23 146.769 172.314 145.986 172.64C145.692 172.209 145.507 171.717 145.447 171.203C145.291 169.994 145.776 168.91 146.56 168.583C146.854 169.014 147.038 169.507 147.099 170.021Z" fill="#B59B00"/>
<path d="M149.828 206.109V47.7119" stroke="#B59B00" stroke-width="6" stroke-miterlimit="10"/>
<path d="M143.18 64.5627V79.6235C143.18 80.2281 143.302 80.8267 143.539 81.3852C143.777 81.9438 144.124 82.4512 144.562 82.8787C145 83.3061 145.521 83.6452 146.093 83.8764C146.666 84.1077 147.279 84.2267 147.899 84.2266V84.2266C148.41 84.2268 148.901 84.4252 149.263 84.7782C149.624 85.1312 149.828 85.6099 149.828 86.109" stroke="#B59B00" stroke-width="6" stroke-miterlimit="10"/>
<path d="M143.18 101.352V120.901C143.18 121.881 143.579 122.822 144.29 123.515C145 124.208 145.964 124.597 146.968 124.597C147.727 124.597 148.454 124.891 148.99 125.414C149.526 125.937 149.828 126.647 149.828 127.387" stroke="#B59B00" stroke-width="6" stroke-miterlimit="10"/>
<path d="M143.918 149.047C143.918 151.088 145.425 152.743 147.286 152.743C148.689 152.743 149.827 153.992 149.827 155.532" stroke="#B59B00" stroke-width="6" stroke-miterlimit="10"/>
<path d="M137.267 105.877V111.287C137.267 112.059 137.581 112.799 138.14 113.345C138.699 113.89 139.458 114.197 140.249 114.197H141.162C141.697 114.197 142.21 114.405 142.588 114.774C142.966 115.142 143.179 115.643 143.179 116.165" stroke="#B59B00" stroke-width="6" stroke-miterlimit="10"/>
<path d="M159.676 57.0474V65.9321C159.676 67.5615 159.013 69.1241 157.832 70.2762C156.651 71.4283 155.05 72.0755 153.38 72.0755V72.0755C152.913 72.0755 152.451 72.1652 152.02 72.3394C151.589 72.5136 151.198 72.769 150.868 73.0908C150.538 73.4127 150.277 73.7949 150.098 74.2154C149.92 74.636 149.828 75.0867 149.828 75.5418" stroke="#B59B00" stroke-width="6" stroke-miterlimit="10"/>
<path d="M141.156 70.3386L142.281 72.1342C142.869 73.0707 143.18 74.1476 143.18 75.2457" stroke="#B59B00" stroke-width="6" stroke-miterlimit="10"/>
<path d="M155.49 153.294V160.981C155.49 162.109 155.236 163.224 154.747 164.246C154.257 165.268 153.544 166.172 152.657 166.896L151.766 167.62C151.159 168.115 150.671 168.734 150.336 169.434C150.001 170.133 149.828 170.896 149.828 171.668" stroke="#B59B00" stroke-width="6" stroke-miterlimit="10"/>
<path d="M161.044 162.96C161.044 163.789 160.707 164.583 160.107 165.169C159.507 165.755 158.692 166.084 157.843 166.084H153.585" stroke="#B59B00" stroke-width="6" stroke-miterlimit="10" stroke-linecap="round"/>
<path d="M145.708 177.259V198.791C145.708 199.545 146.015 200.269 146.561 200.802C147.108 201.336 147.85 201.635 148.623 201.635V201.635C148.943 201.635 149.249 201.759 149.476 201.98C149.702 202.201 149.829 202.5 149.829 202.812" stroke="#B59B00" stroke-width="6" stroke-miterlimit="10"/>
<path d="M121.733 179.214C134.514 179.214 144.876 166.649 144.876 151.149C144.876 135.649 134.514 123.084 121.733 123.084C108.952 123.084 98.5903 135.649 98.5903 151.149C98.5903 166.649 108.952 179.214 121.733 179.214Z" fill="#B59B00"/>
<path d="M129.202 140.173C129.686 142.153 129.295 144.058 128.32 145.172C128.229 145.273 128.114 145.352 127.986 145.402C127.857 145.452 127.718 145.471 127.581 145.459C127.443 145.446 127.31 145.402 127.193 145.33C127.077 145.258 126.979 145.16 126.908 145.044C126.514 144.405 126.225 143.709 126.05 142.983C125.448 140.515 126.202 138.167 127.754 137.317C128.462 138.144 128.958 139.123 129.202 140.173Z" fill="#907B00"/>
<path d="M107.793 178.688C109.472 180.198 110.103 182.27 109.398 183.631C108.467 183.367 107.614 182.891 106.908 182.243C105.23 180.733 104.6 178.662 105.305 177.301C106.235 177.565 107.088 178.04 107.793 178.688Z" fill="#907B00"/>
<path d="M105.288 183.493C106.535 183.558 107.542 184.217 107.732 185.031C107.245 185.237 106.715 185.327 106.185 185.294C104.939 185.229 103.932 184.57 103.743 183.755C104.23 183.55 104.759 183.46 105.288 183.493Z" fill="#B59B00"/>
<path d="M133.464 146.537C132.815 148.152 131.448 149.182 130.237 149.066C130.171 148.332 130.285 147.593 130.569 146.911C131.218 145.296 132.585 144.265 133.796 144.382C133.862 145.116 133.748 145.854 133.464 146.537Z" fill="#907B00"/>
<path d="M115.077 137.158C116.051 138.711 115.773 139.643 115.256 140.708C114.05 140.673 113.111 140.466 112.137 138.914C111.163 137.362 110.745 134.446 110.949 133.846C111.578 133.94 114.103 135.605 115.077 137.158Z" fill="#907B00"/>
<path d="M118.945 136.911C118.543 138.268 117.851 138.596 116.956 138.864C116.346 138.171 115.978 137.539 116.381 136.185C116.783 134.831 118.277 133.078 118.737 132.875C119.007 133.277 119.348 135.557 118.945 136.911Z" fill="#907B00"/>
<path d="M121.026 148.669V207.466" stroke="#907B00" stroke-width="6" stroke-miterlimit="10" stroke-linecap="round"/>
<path d="M127.581 146.858V153.484C127.582 155.837 126.697 158.108 125.096 159.867L122.925 162.251C121.702 163.595 121.026 165.33 121.026 167.127" stroke="#907B00" stroke-width="6" stroke-miterlimit="10" stroke-linecap="round"/>
<path d="M108.626 182.506C109.485 183.737 110.64 184.744 111.989 185.44C113.338 186.136 114.841 186.5 116.367 186.5H117.721C118.597 186.5 119.437 186.84 120.056 187.443C120.676 188.047 121.025 188.867 121.026 189.721" stroke="#907B00" stroke-width="6" stroke-miterlimit="10" stroke-linecap="round"/>
<path d="M130.438 150.114V151.652C130.438 151.813 130.406 151.971 130.343 152.119C130.28 152.267 130.188 152.402 130.072 152.515C129.956 152.628 129.818 152.718 129.667 152.779C129.515 152.841 129.353 152.872 129.188 152.872H128.561C128.313 152.872 128.075 152.969 127.9 153.14C127.724 153.311 127.625 153.543 127.625 153.786" stroke="#907B00" stroke-width="6" stroke-miterlimit="10" stroke-linecap="round"/>
<path d="M116.466 140.657V153.359C116.466 154.015 116.733 154.643 117.208 155.107C117.683 155.57 118.327 155.831 118.999 155.831C119.536 155.831 120.052 156.039 120.432 156.41C120.812 156.781 121.026 157.284 121.026 157.809" stroke="#907B00" stroke-width="6" stroke-miterlimit="10" stroke-linecap="round"/>
<path d="M126.807 178.702V179.618C126.807 180.332 126.516 181.017 125.998 181.523C125.48 182.028 124.778 182.312 124.045 182.312H122.611C122.191 182.312 121.789 182.475 121.492 182.764C121.195 183.054 121.028 183.447 121.028 183.857" stroke="#907B00" stroke-width="6" stroke-miterlimit="10" stroke-linecap="round"/>
<path d="M114.826 183.914C114.826 184.602 115.106 185.263 115.605 185.749C116.104 186.236 116.781 186.51 117.486 186.51" stroke="#907B00" stroke-width="6" stroke-miterlimit="10" stroke-linecap="round"/>
<path d="M113.627 143.172V145.954C113.627 146.41 113.813 146.847 114.144 147.169C114.474 147.492 114.922 147.673 115.39 147.673C115.531 147.673 115.671 147.699 115.802 147.752C115.933 147.805 116.052 147.882 116.152 147.979C116.252 148.077 116.331 148.193 116.385 148.321C116.439 148.448 116.467 148.585 116.467 148.723" stroke="#907B00" stroke-width="6" stroke-miterlimit="10" stroke-linecap="round"/>
<path d="M219.022 169.986C231.803 169.986 242.164 157.421 242.164 141.921C242.164 126.421 231.803 113.855 219.022 113.855C206.24 113.855 195.879 126.421 195.879 141.921C195.879 157.421 206.24 169.986 219.022 169.986Z" fill="#B59B00"/>
<path d="M226.491 130.944C226.975 132.924 226.584 134.829 225.609 135.943C225.517 136.045 225.403 136.123 225.274 136.173C225.146 136.223 225.007 136.242 224.869 136.23C224.732 136.217 224.599 136.173 224.482 136.101C224.365 136.029 224.268 135.931 224.197 135.815C223.803 135.176 223.513 134.48 223.339 133.754C222.737 131.286 223.49 128.938 225.043 128.089C225.75 128.915 226.247 129.894 226.491 130.944Z" fill="#907B00"/>
<path d="M205.081 169.46C206.76 170.969 207.391 173.042 206.686 174.402C205.755 174.138 204.902 173.663 204.196 173.015C202.518 171.504 201.888 169.433 202.593 168.072C203.523 168.336 204.376 168.812 205.081 169.46Z" fill="#907B00"/>
<path d="M202.577 174.264C203.824 174.329 204.832 174.988 205.021 175.803C204.534 176.009 204.004 176.099 203.475 176.065C202.228 176 201.221 175.341 201.032 174.527C201.519 174.322 202.048 174.232 202.577 174.264Z" fill="#B59B00"/>
<path d="M230.754 137.308C230.104 138.923 228.738 139.953 227.527 139.837C227.461 139.103 227.574 138.365 227.859 137.682C228.508 136.068 229.874 135.037 231.086 135.154C231.151 135.887 231.037 136.626 230.754 137.308Z" fill="#907B00"/>
<path d="M212.367 127.929C213.341 129.482 213.062 130.414 212.546 131.479C211.34 131.444 210.4 131.238 209.426 129.686C208.452 128.134 208.035 125.217 208.239 124.617C208.868 124.712 211.393 126.377 212.367 127.929Z" fill="#907B00"/>
<path d="M216.234 127.682C215.831 129.04 215.139 129.367 214.244 129.635C213.635 128.943 213.267 128.31 213.669 126.956C214.072 125.602 215.566 123.849 216.025 123.646C216.296 124.048 216.636 126.328 216.234 127.682Z" fill="#907B00"/>
<path d="M218.315 139.441V198.238" stroke="#907B00" stroke-width="6" stroke-miterlimit="10" stroke-linecap="round"/>
<path d="M224.87 137.63V144.256C224.87 146.609 223.986 148.88 222.384 150.639L220.214 153.023C218.99 154.367 218.315 156.102 218.315 157.899" stroke="#907B00" stroke-width="6" stroke-miterlimit="10" stroke-linecap="round"/>
<path d="M205.916 173.278C206.775 174.508 207.929 175.516 209.279 176.212C210.628 176.908 212.131 177.272 213.657 177.272H215.01C215.886 177.272 216.726 177.611 217.346 178.215C217.966 178.819 218.314 179.638 218.315 180.493" stroke="#907B00" stroke-width="6" stroke-miterlimit="10" stroke-linecap="round"/>
<path d="M227.728 140.886V142.425C227.728 142.585 227.696 142.744 227.633 142.892C227.57 143.04 227.478 143.174 227.362 143.287C227.246 143.401 227.108 143.491 226.957 143.552C226.805 143.613 226.643 143.645 226.478 143.645H225.851C225.603 143.645 225.365 143.741 225.19 143.912C225.014 144.084 224.916 144.316 224.916 144.558" stroke="#907B00" stroke-width="6" stroke-miterlimit="10" stroke-linecap="round"/>
<path d="M213.755 131.43V144.132C213.755 144.788 214.022 145.416 214.497 145.88C214.971 146.343 215.615 146.604 216.287 146.604C216.825 146.604 217.34 146.812 217.721 147.183C218.101 147.554 218.315 148.057 218.315 148.582" stroke="#907B00" stroke-width="6" stroke-miterlimit="10" stroke-linecap="round"/>
<path d="M224.096 169.473V170.389C224.096 171.104 223.805 171.789 223.287 172.294C222.769 172.8 222.067 173.083 221.334 173.083H219.9C219.48 173.083 219.078 173.246 218.781 173.536C218.484 173.826 218.317 174.219 218.317 174.628" stroke="#907B00" stroke-width="6" stroke-miterlimit="10" stroke-linecap="round"/>
<path d="M212.116 174.686C212.116 175.374 212.396 176.035 212.895 176.521C213.394 177.008 214.07 177.282 214.776 177.282" stroke="#907B00" stroke-width="6" stroke-miterlimit="10" stroke-linecap="round"/>
<path d="M210.916 133.945V136.726C210.916 137.183 211.102 137.62 211.432 137.942C211.763 138.265 212.211 138.446 212.678 138.446C212.82 138.446 212.96 138.472 213.091 138.525C213.222 138.578 213.341 138.655 213.441 138.752C213.541 138.85 213.62 138.966 213.674 139.094C213.728 139.221 213.756 139.358 213.755 139.496" stroke="#907B00" stroke-width="6" stroke-miterlimit="10" stroke-linecap="round"/>
<path d="M181.757 188.13C195.334 188.13 206.34 175.485 206.34 159.885C206.34 144.286 195.334 131.64 181.757 131.64C168.179 131.64 157.173 144.286 157.173 159.885C157.173 175.485 168.179 188.13 181.757 188.13Z" fill="#B59B00"/>
<path d="M189.877 156.051C190.361 158.031 189.969 159.936 188.994 161.05C188.903 161.151 188.788 161.23 188.66 161.28C188.531 161.33 188.393 161.349 188.255 161.337C188.117 161.324 187.985 161.28 187.868 161.208C187.751 161.136 187.653 161.038 187.583 160.922C187.188 160.283 186.899 159.587 186.725 158.861C186.123 156.393 186.876 154.045 188.429 153.195C189.136 154.022 189.632 155 189.877 156.051Z" fill="#907B00"/>
<path d="M168.468 194.568C170.147 196.077 170.778 198.15 170.073 199.51C169.142 199.246 168.289 198.771 167.583 198.123C165.905 196.612 165.274 194.541 165.979 193.18C166.91 193.444 167.763 193.92 168.468 194.568Z" fill="#907B00"/>
<path d="M165.963 199.372C167.21 199.437 168.218 200.096 168.407 200.911C167.92 201.116 167.39 201.206 166.861 201.173C165.614 201.108 164.608 200.449 164.418 199.635C164.905 199.43 165.434 199.34 165.963 199.372Z" fill="#B59B00"/>
<path d="M194.139 162.416C193.49 164.03 192.124 165.06 190.912 164.945C190.846 164.211 190.96 163.472 191.244 162.79C191.894 161.175 193.26 160.144 194.471 160.261C194.537 160.995 194.423 161.733 194.139 162.416Z" fill="#907B00"/>
<path d="M175.753 153.037C176.727 154.59 176.449 155.522 175.932 156.587C174.727 156.552 173.787 156.346 172.813 154.793C171.839 153.241 171.422 150.325 171.626 149.725C172.255 149.819 174.779 151.485 175.753 153.037Z" fill="#907B00"/>
<path d="M179.62 152.789C179.217 154.146 178.525 154.474 177.63 154.742C177.021 154.049 176.652 153.417 177.055 152.063C177.457 150.709 178.952 148.956 179.411 148.753C179.682 149.155 180.022 151.435 179.62 152.789Z" fill="#907B00"/>
<path d="M181.702 164.548V223.345" stroke="#907B00" stroke-width="6" stroke-miterlimit="10" stroke-linecap="round"/>
<path d="M188.257 162.738V169.364C188.257 171.717 187.373 173.988 185.771 175.747L183.601 178.131C182.378 179.475 181.702 181.21 181.702 183.007" stroke="#907B00" stroke-width="6" stroke-miterlimit="10" stroke-linecap="round"/>
<path d="M169.302 198.384C170.161 199.615 171.316 200.622 172.665 201.318C174.014 202.014 175.517 202.378 177.043 202.378H178.397C179.272 202.378 180.112 202.717 180.732 203.321C181.352 203.925 181.7 204.745 181.701 205.599" stroke="#907B00" stroke-width="6" stroke-miterlimit="10" stroke-linecap="round"/>
<path d="M191.114 165.993V167.532C191.114 167.692 191.082 167.851 191.019 167.999C190.957 168.147 190.865 168.281 190.749 168.394C190.632 168.508 190.495 168.598 190.343 168.659C190.191 168.72 190.029 168.752 189.865 168.752H189.238C188.989 168.752 188.751 168.848 188.576 169.019C188.4 169.19 188.302 169.423 188.302 169.665" stroke="#907B00" stroke-width="6" stroke-miterlimit="10" stroke-linecap="round"/>
<path d="M177.141 156.537V169.239C177.141 169.895 177.408 170.523 177.883 170.987C178.358 171.45 179.002 171.711 179.673 171.711C180.211 171.711 180.727 171.919 181.107 172.29C181.487 172.661 181.701 173.164 181.701 173.689" stroke="#907B00" stroke-width="6" stroke-miterlimit="10" stroke-linecap="round"/>
<path d="M187.482 194.58V195.496C187.482 196.211 187.191 196.896 186.673 197.401C186.155 197.906 185.453 198.19 184.72 198.19H183.286C182.867 198.19 182.464 198.353 182.167 198.643C181.87 198.933 181.703 199.326 181.703 199.735" stroke="#907B00" stroke-width="6" stroke-miterlimit="10" stroke-linecap="round"/>
<path d="M175.502 199.793C175.502 200.481 175.782 201.142 176.281 201.628C176.78 202.115 177.457 202.389 178.162 202.389" stroke="#907B00" stroke-width="6" stroke-miterlimit="10" stroke-linecap="round"/>
<path d="M174.302 159.052V161.833C174.302 162.289 174.488 162.727 174.818 163.049C175.149 163.372 175.597 163.553 176.065 163.553C176.206 163.553 176.346 163.579 176.477 163.632C176.608 163.684 176.727 163.762 176.827 163.859C176.927 163.957 177.006 164.073 177.06 164.2C177.114 164.328 177.142 164.465 177.142 164.603" stroke="#907B00" stroke-width="6" stroke-miterlimit="10" stroke-linecap="round"/>
<path d="M70.4738 191.955C83.2552 191.955 93.6165 179.39 93.6165 163.89C93.6165 148.39 83.2552 135.825 70.4738 135.825C57.6924 135.825 47.3311 148.39 47.3311 163.89C47.3311 179.39 57.6924 191.955 70.4738 191.955Z" fill="#907B00"/>
<path d="M77.9434 152.913C78.4276 154.894 78.0362 156.799 77.0613 157.913C76.97 158.014 76.8554 158.093 76.7268 158.143C76.5983 158.193 76.4596 158.212 76.3219 158.199C76.1842 158.187 76.0516 158.143 75.9347 158.071C75.8179 157.998 75.7201 157.9 75.6496 157.784C75.2552 157.145 74.9657 156.45 74.7916 155.724C74.1896 153.256 74.9428 150.908 76.4955 150.058C77.2031 150.885 77.6993 151.863 77.9434 152.913Z" fill="#B59B00"/>
<path d="M56.534 191.429C58.2129 192.939 58.8436 195.011 58.1387 196.371C57.2081 196.107 56.3549 195.632 55.6491 194.984C53.9711 193.473 53.3404 191.403 54.0453 190.042C54.9756 190.306 55.8285 190.781 56.534 191.429Z" fill="#B59B00"/>
<path d="M54.0288 196.234C55.2763 196.299 56.2837 196.958 56.4729 197.773C55.986 197.978 55.4561 198.068 54.9266 198.035C53.68 197.97 52.6736 197.311 52.4844 196.497C52.9707 196.291 53.5 196.201 54.0288 196.234Z" fill="#907B00"/>
<path d="M82.2047 159.279C81.5554 160.893 80.1891 161.923 78.9777 161.807C78.9117 161.074 79.0255 160.335 79.3098 159.652C79.959 158.038 81.3254 157.007 82.5367 157.124C82.6023 157.858 82.4885 158.596 82.2047 159.279Z" fill="#B59B00"/>
<path d="M63.8188 149.899C64.7928 151.453 64.5145 152.385 63.9979 153.45C62.792 153.415 61.8524 153.208 60.8785 151.656C59.9045 150.104 59.4871 147.188 59.6912 146.588C60.3201 146.682 62.8449 148.347 63.8188 149.899Z" fill="#B59B00"/>
<path d="M67.6865 149.651C67.2839 151.009 66.592 151.336 65.6969 151.604C65.0875 150.912 64.7192 150.279 65.1218 148.925C65.5244 147.572 67.0187 145.818 67.4778 145.616C67.7486 146.018 68.0891 148.297 67.6865 149.651Z" fill="#B59B00"/>
<path d="M69.7671 161.41V220.207" stroke="#B59B00" stroke-width="6" stroke-miterlimit="10" stroke-linecap="round"/>
<path d="M76.3222 159.6V166.225C76.3224 168.578 75.4379 170.85 73.8363 172.609L71.6658 174.993C70.4425 176.337 69.767 178.072 69.7671 179.869" stroke="#B59B00" stroke-width="6" stroke-miterlimit="10" stroke-linecap="round"/>
<path d="M57.3682 195.247C58.2275 196.478 59.382 197.485 60.7312 198.181C62.0804 198.877 63.5834 199.241 65.1096 199.241H66.4629C67.3388 199.241 68.1789 199.58 68.7986 200.184C69.4182 200.788 69.7669 201.607 69.7678 202.462" stroke="#B59B00" stroke-width="6" stroke-miterlimit="10" stroke-linecap="round"/>
<path d="M79.1801 162.856V164.395C79.1802 164.555 79.148 164.713 79.0852 164.861C79.0225 165.009 78.9305 165.144 78.8144 165.257C78.6984 165.37 78.5606 165.46 78.409 165.522C78.2573 165.583 78.0948 165.615 77.9306 165.615H77.3036C77.0554 165.615 76.8173 165.711 76.6418 165.882C76.4663 166.053 76.3677 166.286 76.3677 166.528" stroke="#B59B00" stroke-width="6" stroke-miterlimit="10" stroke-linecap="round"/>
<path d="M65.2075 153.399V166.102C65.2075 166.757 65.4743 167.386 65.9491 167.849C66.424 168.313 67.0681 168.573 67.7398 168.573C68.2774 168.573 68.793 168.782 69.1732 169.152C69.5534 169.523 69.7672 170.026 69.7674 170.551" stroke="#B59B00" stroke-width="6" stroke-miterlimit="10" stroke-linecap="round"/>
<path d="M75.5483 191.443V192.359C75.5483 193.074 75.2573 193.759 74.7395 194.264C74.2216 194.77 73.5193 195.054 72.7869 195.054H71.3529C70.933 195.054 70.5302 195.216 70.2333 195.506C69.9363 195.796 69.7695 196.189 69.7695 196.599" stroke="#B59B00" stroke-width="6" stroke-miterlimit="10" stroke-linecap="round"/>
<path d="M63.5679 196.655C63.5679 197.344 63.8481 198.004 64.347 198.491C64.8459 198.977 65.5226 199.251 66.2281 199.251" stroke="#B59B00" stroke-width="6" stroke-miterlimit="10" stroke-linecap="round"/>
<path d="M62.3682 155.915V158.696C62.3682 159.152 62.5538 159.589 62.8843 159.912C63.2149 160.234 63.6631 160.415 64.1305 160.415C64.272 160.415 64.4122 160.442 64.543 160.494C64.6738 160.547 64.7927 160.624 64.8928 160.722C64.9929 160.819 65.0722 160.935 65.1262 161.063C65.1802 161.19 65.2078 161.327 65.2074 161.465" stroke="#B59B00" stroke-width="6" stroke-miterlimit="10" stroke-linecap="round"/>
<path d="M265.446 173.747C284.8 173.747 300.491 154.72 300.491 131.248C300.491 107.777 284.8 88.749 265.446 88.749C246.091 88.749 230.401 107.777 230.401 131.248C230.401 154.72 246.091 173.747 265.446 173.747Z" fill="#907B00"/>
<path d="M276.756 114.626C277.49 117.625 276.897 120.51 275.421 122.197C275.282 122.35 275.109 122.469 274.914 122.545C274.719 122.62 274.509 122.65 274.301 122.631C274.092 122.612 273.892 122.545 273.715 122.436C273.538 122.326 273.39 122.178 273.283 122.002C272.686 121.034 272.247 119.981 271.984 118.881C271.072 115.144 272.212 111.589 274.564 110.302C275.635 111.554 276.387 113.036 276.756 114.626Z" fill="#B59B00"/>
<path d="M244.336 172.951C246.878 175.237 247.833 178.375 246.766 180.435C245.356 180.035 244.064 179.315 242.996 178.334C240.455 176.047 239.5 172.911 240.567 170.85C241.976 171.249 243.267 171.969 244.336 172.951Z" fill="#B59B00"/>
<path d="M240.542 180.226C242.431 180.325 243.957 181.323 244.243 182.556C243.506 182.867 242.704 183.004 241.902 182.954C240.014 182.855 238.49 181.857 238.204 180.624C238.94 180.313 239.742 180.177 240.542 180.226Z" fill="#907B00"/>
<path d="M283.21 124.264C282.227 126.709 280.158 128.269 278.323 128.093C278.224 126.982 278.396 125.864 278.826 124.83C279.81 122.385 281.879 120.824 283.713 121.001C283.812 122.112 283.64 123.23 283.21 124.264Z" fill="#B59B00"/>
<path d="M255.369 110.062C256.843 112.413 256.422 113.825 255.64 115.438C253.814 115.385 252.391 115.072 250.916 112.722C249.441 110.371 248.809 105.956 249.118 105.047C250.07 105.189 253.894 107.711 255.369 110.062Z" fill="#B59B00"/>
<path d="M261.224 109.687C260.614 111.742 259.566 112.239 258.211 112.644C257.288 111.596 256.73 110.638 257.34 108.588C257.949 106.537 260.212 103.883 260.908 103.576C261.318 104.184 261.833 107.636 261.224 109.687Z" fill="#B59B00"/>
<path d="M264.377 127.492V216.528" stroke="#B59B00" stroke-width="6" stroke-miterlimit="10" stroke-linecap="round"/>
<path d="M274.304 124.751V134.784C274.304 138.347 272.965 141.787 270.539 144.45L267.253 148.06C265.4 150.095 264.377 152.723 264.377 155.444" stroke="#B59B00" stroke-width="6" stroke-miterlimit="10" stroke-linecap="round"/>
<path d="M245.599 178.731C246.9 180.595 248.649 182.12 250.692 183.174C252.735 184.228 255.011 184.779 257.322 184.779H259.371C260.698 184.779 261.97 185.293 262.908 186.208C263.846 187.122 264.374 188.363 264.376 189.657" stroke="#B59B00" stroke-width="6" stroke-miterlimit="10" stroke-linecap="round"/>
<path d="M278.629 129.681V132.011C278.629 132.254 278.58 132.494 278.485 132.718C278.39 132.942 278.251 133.146 278.075 133.318C277.9 133.489 277.691 133.625 277.461 133.718C277.232 133.811 276.985 133.859 276.737 133.859H275.787C275.411 133.859 275.051 134.004 274.785 134.264C274.519 134.523 274.37 134.875 274.37 135.242" stroke="#B59B00" stroke-width="6" stroke-miterlimit="10" stroke-linecap="round"/>
<path d="M257.47 115.362V134.597C257.47 135.59 257.874 136.541 258.593 137.243C259.312 137.945 260.288 138.34 261.305 138.34C262.119 138.34 262.9 138.655 263.475 139.217C264.051 139.779 264.375 140.54 264.375 141.335" stroke="#B59B00" stroke-width="6" stroke-miterlimit="10" stroke-linecap="round"/>
<path d="M273.129 172.971V174.358C273.129 175.44 272.688 176.478 271.904 177.243C271.12 178.008 270.056 178.438 268.947 178.438H266.776C266.14 178.438 265.53 178.684 265.08 179.123C264.631 179.562 264.378 180.157 264.378 180.777" stroke="#B59B00" stroke-width="6" stroke-miterlimit="10" stroke-linecap="round"/>
<path d="M254.987 180.864C254.987 181.906 255.411 182.906 256.167 183.643C256.922 184.38 257.947 184.794 259.015 184.794" stroke="#B59B00" stroke-width="6" stroke-miterlimit="10" stroke-linecap="round"/>
<path d="M253.172 119.17V123.382C253.172 124.073 253.453 124.735 253.954 125.223C254.454 125.712 255.133 125.986 255.841 125.986C256.055 125.985 256.267 126.026 256.465 126.105C256.663 126.185 256.843 126.302 256.995 126.45C257.146 126.598 257.267 126.773 257.348 126.966C257.43 127.159 257.472 127.367 257.471 127.576" stroke="#B59B00" stroke-width="6" stroke-miterlimit="10" stroke-linecap="round"/>
<path d="M97.2786 172.694L85.4336 160.942L98.8295 170L98.3944 161.403L104.673 168.879L103.566 142.125L108.243 165.997L112.721 161.85L112.306 169.031L117.361 166.992L113.387 172.587L97.2786 172.694Z" fill="#907B00"/>
<path d="M224.332 172.484L218.978 168.58L223.779 169.241L223.841 165.097L226.733 168.22L228.026 147.439L231.657 167.859L233.935 162.334L234.797 169.781L238.921 167.079L236.643 172.572L224.332 172.484Z" fill="#907B00"/>
<path d="M220.733 165.049C220.734 165.455 220.658 165.858 220.509 166.237C219.055 166.016 217.938 164.707 217.938 163.126C217.938 162.72 218.014 162.317 218.162 161.938C219.616 162.158 220.733 163.467 220.733 165.049Z" fill="#907B00"/>
<path d="M276.198 155.089C276.094 155.482 275.917 155.854 275.675 156.184C274.325 155.613 273.583 154.071 273.991 152.542C274.095 152.149 274.273 151.777 274.515 151.446C275.865 152.017 276.607 153.559 276.198 155.089Z" fill="#907B00"/>
<path d="M279.329 157.173C278.769 157.452 278.171 157.647 277.552 157.754C277.065 156.07 278.277 153.995 280.475 152.91C281.035 152.631 281.634 152.435 282.252 152.329C282.74 154.012 281.529 156.087 279.329 157.173Z" fill="#907B00"/>
<path d="M87.6233 165.789C88.2921 166.446 88.2661 166.939 88.1381 167.526C87.5361 167.646 87.0473 167.651 86.3757 166.993C85.7042 166.335 85.1523 164.941 85.1792 164.619C85.5047 164.595 86.9545 165.131 87.6233 165.789Z" fill="#B59B00"/>
<path d="M301.285 179.728C300.958 179.89 300.609 180.004 300.248 180.066C299.964 179.083 300.671 177.871 301.954 177.238C302.281 177.076 302.631 176.961 302.992 176.898C303.277 177.881 302.568 179.093 301.285 179.728Z" fill="#907B00"/>
<path d="M291.921 190.41H280.12L273.923 187.045L285.332 189.567L280.695 184.543L285.172 186.616L284.745 180.571L287.985 185.992C288.017 186.049 288.067 186.094 288.127 186.12C288.188 186.146 288.256 186.151 288.32 186.135C288.385 186.119 288.441 186.082 288.481 186.03C288.522 185.979 288.543 185.916 288.542 185.851L286.653 159.093L291.596 179.218L296.102 166.618L294.757 185.378L303.629 181.332L296.889 188.014C296.305 188.759 295.554 189.363 294.692 189.779C293.83 190.194 292.882 190.41 291.921 190.41Z" fill="#907B00"/>
<path d="M117.088 164.068C116.211 164.857 115.578 164.802 114.829 164.618C114.702 163.875 114.719 163.276 115.596 162.488C116.472 161.701 118.294 161.086 118.707 161.131C118.724 161.531 117.965 163.281 117.088 164.068Z" fill="#907B00"/>
</svg>
