<svg width="312" height="312" viewBox="0 0 312 312" fill="none" xmlns="http://www.w3.org/2000/svg">
<path d="M217.364 29.4903C217.67 27.2938 214.563 25.4842 212.235 25.297C211.124 25.2096 209.97 25.3781 208.915 25.0099C206.631 24.2175 205.72 21.2659 203.493 20.3299C201.833 19.6248 199.917 20.2551 198.301 21.0663C196.685 21.8775 195.094 22.9008 193.309 23.0131C191.743 23.113 190.039 22.5327 188.667 23.3002C187.643 23.868 187.107 25.0474 186.171 25.7463C185.188 26.3488 184.053 26.6563 182.901 26.6323C181.753 26.6022 180.61 26.7884 179.531 27.1815C178.489 27.6557 177.628 28.7602 177.846 29.8834L217.364 29.4903Z" fill="#F5F5F5"/>
<path d="M49.3647 118.735C49.6642 116.538 46.5629 114.729 44.2292 114.541C43.1185 114.454 41.9641 114.622 40.9095 114.254C38.6319 113.462 37.7209 110.51 35.4932 109.574C33.8271 108.869 31.9114 109.493 30.2952 110.311C28.6791 111.128 27.0879 112.139 25.3033 112.258C23.737 112.357 22.0335 111.777 20.6607 112.545C19.6436 113.112 19.1069 114.292 18.1647 114.984C17.183 115.589 16.0475 115.897 14.8949 115.87C13.7468 115.842 12.6037 116.031 11.5253 116.426C10.4832 116.9 9.62213 117.998 9.84053 119.128L49.3647 118.735Z" fill="#F5F5F5"/>
<path d="M206.669 84.4333C206.968 82.2368 203.867 80.4272 201.54 80.24C200.423 80.1526 199.268 80.3211 198.22 79.953C195.936 79.1605 195.025 76.209 192.797 75.273C191.131 74.5678 189.216 75.1919 187.606 76.0031C185.996 76.8142 184.392 77.8376 182.614 77.9562C181.041 78.056 179.338 77.4757 177.965 78.2432C176.948 78.811 176.411 79.9904 175.469 80.683C174.487 81.2875 173.352 81.5952 172.199 81.5691C171.052 81.542 169.909 81.7282 168.829 82.1182C167.787 82.5987 166.957 83.697 167.145 84.8264L206.669 84.4333Z" fill="#F5F5F5"/>
<path d="M74.593 27.456C75.0174 24.3734 70.6618 21.84 67.3921 21.5716C65.8321 21.4406 64.2097 21.684 62.7308 21.166C59.5297 20.0491 58.2505 15.912 55.1242 14.5953C52.7842 13.6094 50.0948 14.483 47.8297 15.6249C45.5646 16.7668 43.3244 18.202 40.7972 18.3643C38.5945 18.5016 36.2046 17.6841 34.2764 18.7636C32.8412 19.5624 32.0924 21.216 30.7695 22.1956C29.4466 23.1753 27.7868 23.35 26.1769 23.4436C24.567 23.5372 22.9134 23.5497 21.447 24.2174C19.9806 24.8851 18.7762 26.4326 19.082 28.0113L74.593 27.456Z" fill="#F5F5F5"/>
<path d="M296.606 51.2866C296.347 51.6202 296.07 51.9389 295.776 52.2413C295.029 53.0945 294.355 54.0088 293.761 54.9745C291.781 58.1684 290.743 61.8561 290.765 65.6137C290.765 65.6573 290.765 65.701 290.765 65.7447H290.397C289.825 62.0607 288.114 58.6481 285.505 55.9853C284.403 54.9122 283.206 53.9411 281.929 53.0837C282.032 53.1179 282.131 53.164 282.223 53.221C282.404 53.3271 282.691 53.4581 283.021 53.6828C283.984 54.2891 284.877 54.9984 285.686 55.7981C286.897 56.9852 287.931 58.3407 288.756 59.8229C289.772 61.6419 290.453 63.6287 290.765 65.6885L290.397 65.7197V65.5825C290.362 61.7627 291.447 58.0163 293.517 54.806C294.141 53.8417 294.856 52.9391 295.651 52.1103C295.926 51.8108 296.169 51.6111 296.325 51.4863C296.407 51.4049 296.502 51.3374 296.606 51.2866Z" fill="#E0E0E0"/>
<path d="M276.282 75.4917H41.184C36.1628 75.4917 32.0923 79.5622 32.0923 84.5834V233.894C32.0923 238.915 36.1628 242.986 41.184 242.986H276.282C281.303 242.986 285.374 238.915 285.374 233.894V84.5834C285.374 79.5622 281.303 75.4917 276.282 75.4917Z" fill="#263238"/>
<path d="M22.1954 232.172H296.606V235.722C296.606 238.668 295.435 241.493 293.352 243.576C291.269 245.659 288.444 246.83 285.499 246.83H33.2964C30.3506 246.83 27.5254 245.659 25.4424 243.576C23.3594 241.493 22.1892 238.668 22.1892 235.722V232.172H22.1954Z" fill="#263238"/>
<path d="M277.867 82.1497H38.8875V223.598H277.867V82.1497Z" fill="#FAFAFA"/>
<path d="M133.767 232.172L137.168 237.588H185.085L188.248 232.172H133.767Z" fill="#455A64"/>
<path d="M283.196 232.334C283.196 232.428 226.98 232.503 157.654 232.503C88.3272 232.503 32.0923 232.428 32.0923 232.334C32.0923 232.24 88.296 232.172 157.654 232.172C227.011 232.172 283.196 232.247 283.196 232.334Z" fill="#455A64"/>
<path d="M213.77 111.815C207.754 103.266 194.357 99.8464 182.969 102.648C171.369 105.5 165.06 113.256 161.822 123.328H193.508L199.748 115.871L213.77 111.815Z" fill="#FF725E"/>
<path d="M165.216 110.049C163.293 109.127 161.418 108.107 159.6 106.991C157.726 105.973 155.906 104.859 154.146 103.653C156.069 104.577 157.943 105.597 159.762 106.71C162.82 108.476 165.26 109.974 165.216 110.049Z" fill="#FF725E"/>
<path d="M175.344 101.594C175.174 101.403 175.025 101.193 174.901 100.97C174.626 100.564 174.277 99.9774 173.784 99.2473C172.86 97.7872 171.606 95.7529 170.252 93.4878C167.556 88.9763 165.453 85.1824 165.772 85.0825C166.132 85.9347 166.571 86.7515 167.082 87.5224C168.006 89.0636 169.204 91.0854 170.533 93.3256L173.983 99.1288L175.007 100.901C175.146 101.118 175.259 101.35 175.344 101.594Z" fill="#FF725E"/>
<path d="M188.049 97.7746C187.884 95.6781 187.83 93.5744 187.886 91.4722C187.83 89.3679 187.884 87.2622 188.049 85.1636C188.209 87.2624 188.264 89.3679 188.211 91.4722C188.264 93.5744 188.209 95.6779 188.049 97.7746Z" fill="#FF725E"/>
<path d="M203.705 89.6003C203.352 91.0874 202.894 92.5471 202.332 93.9683C201.872 95.4271 201.309 96.8513 200.647 98.2303C201.005 96.744 201.465 95.2844 202.026 93.8623C202.485 92.404 203.046 90.9799 203.705 89.6003Z" fill="#FF725E"/>
<path d="M51.38 74.0065L49.3895 92.6516C49.3895 92.6516 49.1523 95.0602 47.9418 94.3614C46.569 93.5689 45.4083 89.931 45.4083 89.931L45.1275 89.307L43.8171 89.8561L47.0245 96.7201L48.7093 102.161L49.5642 115.54L46.9496 177.285H54.4376C54.4376 177.285 53.9946 118.71 54.188 116.002C54.3815 113.294 65.42 105.306 65.42 105.306V103.678L53.9821 111.266L57.3143 74.0002L51.38 74.0065Z" fill="#263238"/>
<path d="M45.3834 89.8749L42.5566 83.2854L46.8248 73.4387H46.1009L41.5333 82.6365L39.9608 74.9301L39.1745 74.9176L40.3601 83.2854L42.5566 87.5661L37.0717 86.705L36.6973 87.5661L43.0558 88.6518L44.0293 90.1994" fill="#263238"/>
<path d="M150.902 106.904C150.865 105.968 150.677 102.735 150.833 98.7168C151.395 83.9655 152.618 54.4128 152.618 54.4128H143.67V74.256C143.67 74.256 144.369 108.807 143.67 116.02C143.046 122.179 140.157 123.964 140.157 123.964L149.454 127.084L155.551 123.483C151.863 121.175 151.077 111.29 150.902 106.904Z" fill="#BA7F72"/>
<path d="M154.128 90.7174C153.984 90.9108 152.15 92.6955 151.725 94.6236C151.301 96.5518 150.477 99.3723 150.477 99.3723L150.29 93.8686L151.045 93.8249L152.193 91.566V89.9187H152.88V91.0481L154.053 89.875L154.128 90.7174Z" fill="#BA7F72"/>
<path d="M161.728 85.9623C161.655 85.4982 161.473 85.0581 161.196 84.6784C160.919 84.2987 160.556 83.9902 160.137 83.7783C159.711 83.5787 159.235 83.5085 158.77 83.5761C158.304 83.6438 157.868 83.8464 157.516 84.1589C157.201 82.9442 156.421 81.902 155.345 81.2573C154.807 80.9439 154.199 80.7695 153.577 80.7499C152.955 80.7303 152.338 80.8661 151.782 81.145C151.233 81.4453 150.788 81.9032 150.503 82.4595C150.219 83.0158 150.107 83.6448 150.184 84.265C149.536 84.2245 148.896 84.431 148.393 84.8432C147.891 85.2553 147.563 85.8425 147.476 86.4865C147.419 87.1351 147.537 87.7871 147.817 88.3751C148.097 88.9631 148.528 89.4658 149.067 89.8311C149.473 90.1083 149.917 90.3268 150.384 90.4801C150.989 90.6844 151.633 90.7496 152.267 90.6708C152.901 90.5919 153.51 90.371 154.047 90.0245C154.219 90.4774 154.525 90.8676 154.923 91.1442C155.32 91.4208 155.793 91.5709 156.277 91.575C156.762 91.579 157.236 91.4368 157.639 91.1669C158.041 90.8969 158.353 90.5119 158.533 90.062C159.563 90.2492 160.561 89.5253 161.11 88.6393C161.634 87.8514 161.854 86.9 161.728 85.9623Z" fill="#455A64"/>
<path d="M170.483 44.6787C170.062 42.517 168.919 40.5622 167.243 39.134C165.567 37.7058 163.455 36.8887 161.254 36.8163C161.298 33.1285 157.791 30.2456 154.197 29.4094C146.871 27.6997 138.671 33.116 137.349 40.5291C135.545 39.9354 133.583 40.049 131.86 40.847C130.137 41.6449 128.782 43.0677 128.068 44.8273C127.354 46.5868 127.336 48.5518 128.016 50.3245C128.697 52.0973 130.025 53.5453 131.732 54.3757C131.029 55.9581 130.764 57.7011 130.967 59.4211C131.171 61.1411 131.834 62.7746 132.887 64.1496C133.94 65.5246 135.344 66.5902 136.952 67.2345C138.559 67.8787 140.311 68.0777 142.022 67.8104C142.613 68.8064 143.452 69.6321 144.458 70.2068C145.463 70.7815 146.601 71.0856 147.759 71.0893C148.917 71.0931 150.056 70.7964 151.065 70.2283C152.074 69.6601 152.919 68.84 153.516 67.8478L153.803 68.2347C155.492 68.5171 157.226 68.3449 158.827 67.7357C160.427 67.1264 161.836 66.1021 162.91 64.768C163.984 63.4339 164.683 61.8381 164.936 60.1444C165.189 58.4507 164.986 56.7202 164.349 55.1307C166.404 54.3404 168.13 52.8761 169.244 50.9774C170.358 49.0787 170.795 46.858 170.483 44.6787Z" fill="#455A64"/>
<path d="M116.788 175.182L174.196 174.995C176.531 176.042 178.451 177.835 179.656 180.093C181.288 183.061 183.307 185.799 185.659 188.236C187.512 190.162 189.093 192.333 190.357 194.688L192.136 197.945L129.068 198.276L116.788 175.182Z" fill="white"/>
<path d="M145.13 123.583L134.915 119.521L115.945 117.081L105.737 105.55H92.82L60.4968 128.563L56.8838 154.241L39.4243 165.479L39.4306 195.169L123.34 186.738L133.91 127.34L145.13 123.583Z" fill="#EBEBEB"/>
<path d="M38.8876 194.626C38.8876 194.626 38.8876 194.451 38.8876 194.114C38.8876 193.777 38.8876 193.272 38.8876 192.616C38.8876 191.293 38.8876 189.359 38.8876 186.876C38.8876 181.884 38.8564 174.676 38.8376 165.816V165.753L38.8938 165.716L56.3658 154.484L56.2972 154.59C57.4016 146.721 58.6184 138.041 59.9039 128.906V128.837L59.96 128.8L69.4324 122.067L92.7325 105.456H92.77H105.799L105.843 105.506L116.064 117L115.983 116.963L134.952 119.459L142.528 122.51L144.481 123.302C144.918 123.483 145.136 123.589 145.136 123.589C145.136 123.589 144.905 123.515 144.462 123.346L142.497 122.585L134.896 119.602L115.914 117.212H115.87L115.839 117.175L105.631 105.643L105.737 105.693H92.8199L92.9072 105.662L69.526 122.304L60.0536 129.031L60.1223 128.918C58.8306 138.054 57.6263 146.734 56.4906 154.596V154.665L56.4344 154.702L38.9624 165.934L39.0186 165.828C39.0186 174.689 38.9812 181.89 38.9687 186.888C38.9687 189.384 38.9687 191.306 38.9687 192.629C38.9687 193.282 38.9687 193.781 38.9687 194.126C38.9 194.451 38.8876 194.626 38.8876 194.626Z" fill="#263238"/>
<path d="M132.194 171.956C132.168 170.816 131.787 169.713 131.106 168.799C130.424 167.885 129.474 167.206 128.389 166.856C127.304 166.507 126.137 166.503 125.05 166.847C123.963 167.19 123.01 167.864 122.323 168.773C121.925 167.756 121.288 166.85 120.464 166.133C119.641 165.416 118.656 164.909 117.594 164.655C116.532 164.401 115.425 164.408 114.366 164.676C113.307 164.943 112.329 165.462 111.515 166.19V175.032H136.656C137.03 173.06 133.823 170.889 132.194 171.956Z" fill="#455A64"/>
<path d="M58.0693 177.909L66.2125 160.487L86.7421 153.722L111.141 163.869L122.803 187.206L58.0693 177.909Z" fill="#E0E0E0"/>
<path d="M111.141 163.869L97.5561 167.17L86.7422 153.722L111.141 163.869Z" fill="#EBEBEB"/>
<path d="M122.803 187.075C122.775 187.044 122.751 187.008 122.735 186.969L122.56 186.651C122.41 186.351 122.192 185.939 121.936 185.403L119.515 180.673C117.449 176.586 114.523 170.801 111.035 163.931L111.109 164L92.04 156.087L86.7048 153.866H86.8171L66.2812 160.599L66.3561 160.53L60.3782 173.191L58.656 176.692L58.2129 177.603C58.1068 177.809 58.0444 177.909 58.0444 177.909C58.0444 177.909 58.0819 177.796 58.1755 177.59L58.5873 176.661L60.191 173.141C61.6075 170.084 63.623 165.728 66.0691 160.43V160.38H66.119L86.6424 153.591H86.6985H86.7547L92.0899 155.807L111.197 163.738H111.247V163.787C114.685 170.683 117.58 176.486 119.621 180.586L121.967 185.347C122.229 185.89 122.435 186.308 122.591 186.595L122.741 186.919C122.769 186.968 122.79 187.02 122.803 187.075Z" fill="#263238"/>
<path d="M115.945 223.767L127.271 195.668H211.23L230.967 223.767H115.945Z" fill="white"/>
<path d="M141.729 195.699C139.795 195.637 137.798 195.593 136.02 196.323C134.241 197.053 132.725 198.819 132.9 200.741C133.074 202.663 134.697 203.955 136.307 204.872C138.818 206.296 141.605 207.166 144.481 207.424C144.965 207.401 145.44 207.557 145.816 207.861C146.322 208.397 145.997 209.346 145.373 209.733C144.71 210.062 143.971 210.204 143.233 210.145C138.479 210.2 133.757 210.925 129.205 212.297C127.957 212.666 126.51 213.502 126.747 214.75C126.867 215.18 127.097 215.571 127.415 215.885" fill="white"/>
<path d="M38.8875 191.955L50.4689 180.399L59.9038 177.322L122.803 187.2C122.803 187.2 138.047 192.485 140.125 200.067C140.2 200.37 140.294 200.668 140.406 200.959C140.406 200.959 160.705 209.028 161.94 210.681C163.176 212.335 130.634 215.137 130.634 215.137C130.634 215.137 151.601 222.001 141.242 223.249C130.316 224.565 38.8625 223.548 38.8625 223.548V191.955H38.8875Z" fill="#455A64"/>
<path d="M122.547 55.7046C125.767 53.4145 126.454 48.566 124.688 45.0279C122.922 41.4899 119.234 39.2247 115.39 38.295C111.546 37.3652 107.534 37.6148 103.596 37.9767C104.039 29.5278 98.2487 21.1287 90.1866 18.5703C82.1246 16.0119 72.5462 19.4814 68.0159 26.6262C64.9868 25.3853 61.7293 24.7994 58.4576 24.9071C55.186 25.0149 51.9741 25.8137 49.0332 27.2512C46.0922 28.6887 43.4887 30.7322 41.3939 33.2476C39.299 35.7629 37.7601 38.6931 36.8783 41.8455C34.3368 41.1848 31.656 41.2969 29.1786 42.1675C26.7011 43.0381 24.5395 44.6277 22.9701 46.7331C21.4006 48.8384 20.4946 51.3639 20.3677 53.9868C20.2409 56.6097 20.899 59.2109 22.258 61.4579C23.6431 63.6799 25.6432 65.4522 28.0157 66.5598C30.3883 67.6675 33.0313 68.0628 35.6241 67.6979C34.0703 72.2281 37.8143 77.2076 42.3633 78.6803C46.9122 80.1529 51.873 79.0734 56.4782 77.7879C56.6149 79.6372 57.1976 81.4257 58.1766 83.0005C59.1556 84.5752 60.5016 85.8893 62.0994 86.8302C63.6972 87.7711 65.4992 88.3108 67.3512 88.4031C69.2032 88.4954 71.0499 88.1375 72.7334 87.3601L88.3833 85.719C96.1583 89.9996 100.988 88.4396 105.025 80.5335C109.693 80.6958 114.491 80.1529 118.691 78.1062C122.89 76.0595 126.429 72.3342 127.477 67.779C128.525 63.2238 126.672 57.9572 122.547 55.7046Z" fill="#455A64"/>
<path d="M73.1889 200.079L72.7022 102.43L59.1177 91.859L60.0162 89.856L73.1889 98.7729V71.5603L86.3678 73.1078C86.3678 73.1078 85.2071 186.339 88.3084 191.768C91.4097 197.196 97.2191 200.079 97.2191 200.079H73.1889Z" fill="#BA7F72"/>
<path d="M84.7891 89.6751C84.8702 89.4255 88.5331 83.5037 90.1991 80.4648H91.6343C90.4298 82.5468 89.3968 84.7235 88.5455 86.9732L94.1615 80.4648H95.0913C95.0913 80.4648 87.3537 89.5066 86.1494 92.8076L84.7891 89.6751Z" fill="#BA7F72"/>
<path d="M76.4149 195.081C76.4149 195.081 76.4149 194.975 76.365 194.769C76.3151 194.563 76.2964 194.245 76.2465 193.858C76.1529 193.034 76.0093 191.855 75.8284 190.339C75.4852 187.281 74.986 182.851 74.5804 177.372C74.0351 170.939 73.8705 164.48 74.0874 158.028C74.23 154.222 74.5799 150.427 75.1357 146.659C75.7597 142.74 76.5959 138.728 77.4321 134.622C78.2985 130.635 78.9464 126.605 79.3727 122.547C79.5412 120.582 79.6223 118.641 79.5973 116.744C79.5539 114.889 79.4164 113.038 79.1855 111.197C78.7487 107.59 78.0748 104.202 77.4757 101.026C76.8767 97.8495 76.3276 94.8793 76.0093 92.1399C75.6935 89.6819 75.5517 87.2047 75.585 84.7268C75.616 82.8539 75.7955 80.9865 76.1217 79.142C76.3302 77.9768 76.6137 76.8262 76.9703 75.6975C77.1013 75.3293 77.2012 75.0361 77.2761 74.8301C77.3509 74.6242 77.3884 74.5369 77.3884 74.5369C77.3672 74.6403 77.3401 74.7423 77.3073 74.8426C77.2449 75.0485 77.1513 75.3418 77.0327 75.7162C76.7012 76.8474 76.4387 77.9977 76.2465 79.1607C75.9426 81.0008 75.7819 82.8618 75.766 84.7268C75.7552 87.1972 75.9116 89.6656 76.234 92.1149C76.5709 94.8418 77.1263 97.7996 77.7378 100.976C78.3493 104.152 79.0357 107.54 79.485 111.159C79.718 113.011 79.8576 114.873 79.9031 116.738C79.9309 118.687 79.8601 120.637 79.6909 122.579C79.2662 126.646 78.6183 130.688 77.7503 134.684C76.9141 138.796 76.053 142.796 75.454 146.709C74.8951 150.464 74.5389 154.247 74.3869 158.041C74.1608 164.473 74.3024 170.912 74.8113 177.328C75.2169 182.813 75.6786 187.238 75.9906 190.301C76.1404 191.818 76.2589 193.003 76.3463 193.827C76.3463 194.214 76.4087 194.52 76.4274 194.744C76.4461 194.969 76.4149 195.081 76.4149 195.081Z" fill="#8B5D54"/>
<path d="M93.5623 200.005L93.294 200.042C93.113 200.042 92.8447 200.086 92.4953 200.092C91.4692 200.099 90.4469 199.967 89.4564 199.699C87.887 199.269 86.4076 198.561 85.0884 197.608C83.3302 196.356 81.8283 194.778 80.6642 192.96C79.2857 190.743 78.2526 188.33 77.6004 185.802C76.8579 182.911 76.322 179.971 75.9967 177.004C75.1007 170.224 74.9688 163.365 75.6036 156.556C75.6658 155.361 75.9493 154.189 76.4398 153.099C76.6991 152.545 77.0994 152.07 77.6004 151.72C78.1209 151.382 78.7481 151.251 79.3601 151.351C79.9514 151.471 80.4955 151.759 80.9263 152.181C81.3412 152.571 81.7003 153.016 81.9934 153.504C82.5353 154.479 82.9885 155.5 83.3474 156.556C84.7248 160.474 85.0729 164.681 84.3583 168.773C84.2584 169.727 83.9721 170.651 83.5159 171.494C83.3852 171.708 83.2019 171.885 82.9835 172.009C82.7651 172.132 82.5188 172.198 82.2679 172.199C82.0286 172.176 81.7969 172.102 81.5882 171.983C81.3795 171.864 81.1986 171.701 81.0574 171.507C80.7811 171.158 80.5563 170.771 80.3897 170.358C80.2098 169.974 80.0494 169.58 79.9092 169.179C79.3396 167.49 79.1092 165.704 79.2313 163.926C79.3534 162.147 79.8255 160.41 80.6206 158.814L80.6892 158.683L80.7703 158.808C81.8527 160.478 82.4112 162.434 82.374 164.424C82.3765 165.114 82.2841 165.8 82.0994 166.465C82.0967 166.421 82.0967 166.377 82.0994 166.334L82.1681 165.947C82.2372 165.442 82.2727 164.933 82.2742 164.424C82.2695 162.467 81.6925 160.554 80.6143 158.92H80.7578C79.5601 161.36 79.1418 164.11 79.5598 166.795C79.6816 167.587 79.8737 168.366 80.1338 169.123C80.272 169.516 80.4303 169.901 80.6081 170.277C80.7621 170.668 80.9723 171.033 81.2321 171.363C81.3498 171.528 81.5014 171.667 81.6768 171.769C81.8521 171.871 82.0473 171.935 82.2492 171.956C82.4546 171.953 82.6558 171.897 82.833 171.793C83.0102 171.689 83.1574 171.541 83.2601 171.363C83.6905 170.551 83.9596 169.663 84.0526 168.748C84.7421 164.706 84.3877 160.554 83.023 156.687C82.6691 155.651 82.2243 154.649 81.6938 153.691C81.4074 153.233 81.0635 152.814 80.6705 152.443C80.2836 152.065 79.7964 151.805 79.2665 151.695C78.7351 151.608 78.1904 151.721 77.7377 152.013C77.2902 152.334 76.9317 152.763 76.6956 153.261C76.218 154.317 75.9448 155.454 75.8906 156.612C75.2578 163.396 75.3812 170.229 76.2588 176.985C76.5751 179.93 77.0985 182.85 77.825 185.721C78.4574 188.229 79.4673 190.625 80.8202 192.829C81.967 194.635 83.4498 196.205 85.1882 197.452C86.4858 198.406 87.9411 199.125 89.4876 199.574C90.4669 199.851 91.4778 200 92.4953 200.017C92.8447 200.017 93.1193 200.017 93.2877 200.017L93.5623 200.005Z" fill="#8B5D54"/>
<path d="M79.3853 90.0994C79.3853 90.0994 79.3853 90.0994 79.4602 90.0121L79.7161 89.7625L80.7956 88.7453L80.8393 88.7079V88.7641C81.1759 89.6176 81.3759 90.5189 81.4321 91.4348C81.5141 92.7527 81.3009 94.0723 80.8081 95.2973C80.6762 95.6674 80.4912 96.0163 80.2589 96.3332C80.1304 96.5129 79.9542 96.6531 79.7502 96.738C79.5463 96.8229 79.3226 96.8491 79.1045 96.8137C78.8856 96.7485 78.6838 96.6358 78.5134 96.4838C78.343 96.3317 78.2082 96.1439 78.1186 95.9338C77.913 95.523 77.7799 95.0796 77.7255 94.6234C77.4319 92.6623 77.4025 90.6706 77.6381 88.7017C77.7678 87.6126 77.9763 86.5344 78.2621 85.4756C78.4084 84.911 78.6177 84.3647 78.8861 83.8469C79.1455 83.2893 79.5563 82.8158 80.0717 82.4804C80.355 82.3123 80.6784 82.2236 81.0077 82.2236C81.3371 82.2236 81.6605 82.3123 81.9437 82.4804C82.4823 82.8382 82.9017 83.3489 83.1481 83.9468C83.4078 84.5272 83.6045 85.1339 83.7346 85.7564C83.9093 86.3804 84.0154 87.0044 84.1465 87.6284C84.367 88.9297 84.517 90.242 84.5957 91.5596C84.6581 92.9012 84.6706 94.2677 84.6269 95.6468C84.5396 98.4111 84.2588 101.263 83.9655 104.108C83.2816 110.575 82.9649 117.075 83.017 123.577C83.0669 129.567 83.4351 134.959 83.8969 139.47C84.3586 143.982 84.9077 147.582 85.3258 150.11C85.5193 151.358 85.7127 152.331 85.8188 152.986L85.9373 153.735C85.9589 153.821 85.9694 153.909 85.9685 153.997C85.9685 153.997 85.9685 153.91 85.9061 153.741C85.8437 153.573 85.8188 153.317 85.7501 152.999C85.6253 152.343 85.4132 151.382 85.201 150.128C84.7393 147.632 84.1714 144.007 83.6722 139.52C83.173 135.034 82.7861 129.605 82.7175 123.602C82.6471 117.09 82.9554 110.579 83.641 104.102C84.265 98.3674 84.7517 92.7889 83.8469 87.7095C83.7159 87.0855 83.6098 86.4615 83.4413 85.8375C83.3184 85.2323 83.1301 84.6423 82.8797 84.0778C82.6583 83.5332 82.2805 83.0664 81.794 82.7362C81.5565 82.5969 81.2862 82.5234 81.0109 82.5234C80.7355 82.5234 80.4652 82.5969 80.2277 82.7362C79.7584 83.0432 79.3844 83.4755 79.1482 83.9842C78.8958 84.4854 78.6991 85.0127 78.5617 85.5567C77.7272 88.4944 77.5146 91.5739 77.9377 94.5985C77.9871 95.0319 78.1094 95.4538 78.2996 95.8465C78.3744 96.0292 78.4878 96.1935 78.6322 96.3281C78.7765 96.4628 78.9483 96.5646 79.1357 96.6265C79.3188 96.656 79.5064 96.6336 79.6773 96.5619C79.8483 96.4902 79.9957 96.3721 80.1029 96.2209C80.3276 95.9226 80.5064 95.5924 80.6333 95.2412C81.115 94.0392 81.328 92.7465 81.2573 91.4535C81.2108 90.5492 81.0278 89.6572 80.7145 88.8077H80.7831L79.6786 89.7874L79.4103 90.0183L79.3853 90.0994Z" fill="#8B5D54"/>
<path d="M90.4798 63.0741C87.1851 60.9712 82.9045 61.0024 79.1418 62.0694C78.1933 57.4893 73.2637 54.1384 68.6398 54.9122C64.016 55.6859 60.4842 60.5282 61.0832 65.1395C61.0146 69.077 62.3312 72.8646 65.1579 74.7616C66.5615 75.7047 68.1416 76.3535 69.8029 76.6688C71.4642 76.9842 73.1722 76.9594 74.8237 76.5962C75.1482 78.1811 76.6083 79.3542 78.1808 79.7162C79.7757 80.0263 81.4228 79.9341 82.9731 79.4478C85.2956 78.858 87.5285 77.9598 89.6125 76.7771C91.2482 75.9616 92.6374 74.7254 93.6373 73.1954C95.5842 69.832 93.7995 65.177 90.4798 63.0741Z" fill="#455A64"/>
<path d="M217.645 104.233L213.814 102.03L212.541 95.4282L211.467 95.7215L212.397 101.962L208.722 99.478L207.917 100.402L212.784 103.497L217.645 105.774V104.233Z" fill="#455A64"/>
<path d="M219.929 94.5984H217.115V131.059H219.929V94.5984Z" fill="#455A64"/>
<path d="M217.776 24.9602C217.776 25.3471 210.232 49.1277 210.232 49.1277L214.007 45.2964L208.572 61.9197L212.154 56.9277L207.929 77.7693L209.976 75.5978L206.394 90.3055L209.464 86.4679L206.394 97.4628L230.693 95.6719L224.939 74.9551L228.415 78.7927L223.916 63.7044L226.219 64.9524L220.952 45.5522L223.392 47.2058L217.776 24.9602Z" fill="#455A64"/>
<path d="M218.568 67.3921C218.54 67.5122 218.501 67.6292 218.45 67.7415L218.069 68.7087L216.709 72.0409L216.646 72.1844L216.572 72.0471C216.19 71.3371 215.858 70.601 215.579 69.8444C215.473 69.5449 215.373 69.2516 215.286 68.9708H215.436C214.768 70.6806 214.113 72.1657 213.614 73.2203C213.37 73.7507 213.165 74.175 212.99 74.4683L212.821 74.799C212.778 74.8676 212.759 74.9113 212.753 74.9051C212.8 74.7454 212.862 74.5907 212.94 74.4433C213.083 74.1251 213.264 73.7007 213.495 73.1953C213.963 72.1283 214.6 70.6307 215.267 68.9209L215.349 68.715L215.411 68.9271C215.498 69.2079 215.598 69.5012 215.704 69.7945C215.983 70.544 216.308 71.2755 216.678 71.9847H216.547C217.114 70.6556 217.601 69.4887 217.957 68.6713C218.132 68.2844 218.269 67.9662 218.375 67.7228C218.428 67.6062 218.493 67.4954 218.568 67.3921Z" fill="#263238"/>
<path d="M221.158 58.5313C221.103 58.4515 221.057 58.3656 221.021 58.2755L220.671 57.5516C220.372 56.9276 219.929 56.0665 219.355 55.1056H219.498L219.105 56.5969C219.024 56.9214 218.936 57.2209 218.855 57.5516L218.799 57.7638L218.712 57.5641C218.194 56.4097 217.745 55.3926 217.426 54.6625C217.283 54.3193 217.164 54.0385 217.064 53.8014C217.013 53.7009 216.975 53.5938 216.952 53.4832C217.018 53.576 217.073 53.6766 217.114 53.7827L217.52 54.6188C217.863 55.3427 218.331 56.3473 218.855 57.4955H218.706C218.787 57.1897 218.868 56.8715 218.955 56.547C219.092 56.0228 219.223 55.5174 219.348 55.0556L219.398 54.8747L219.486 55.0307C219.945 55.8403 220.361 56.6735 220.734 57.5267C220.871 57.8449 220.977 58.1008 221.046 58.2755C221.09 58.3575 221.128 58.4431 221.158 58.5313Z" fill="#263238"/>
<path d="M217.713 40.3105C217.594 40.6017 217.452 40.8833 217.289 41.1529C217.002 41.6709 216.597 42.4009 216.135 43.2059L216.029 43.3931L215.985 43.1809C215.948 42.9438 215.904 42.7005 215.854 42.4509C215.779 42.0203 215.71 41.6022 215.642 41.2029H215.779C215.342 41.8955 214.968 42.4509 214.693 42.8939C214.563 43.1165 214.41 43.3255 214.238 43.5179C214.345 43.2777 214.47 43.0461 214.612 42.8253C214.868 42.3947 215.236 41.8019 215.648 41.1093L215.754 40.9408L215.792 41.1342C215.86 41.5211 215.935 41.9329 216.01 42.3822C216.052 42.6318 216.095 42.8752 216.141 43.1123H215.997C216.472 42.3011 216.89 41.5897 217.196 41.0843C217.351 40.8154 217.524 40.5569 217.713 40.3105Z" fill="#263238"/>
<path d="M136.743 123.627L195.281 124.045C195.281 124.045 191.412 127.196 190.501 135.695C189.64 143.714 178.246 176.305 178.246 176.305H123.333C123.333 176.305 129.361 136.201 130.098 132.17C131.726 123.346 136.743 123.627 136.743 123.627Z" fill="white"/>
<path d="M145.492 169.223C145.404 169.223 146.952 162.146 148.943 153.473C150.933 144.799 152.624 137.773 152.687 137.798C152.749 137.823 151.233 144.868 149.236 153.548C147.239 162.228 145.579 169.241 145.492 169.223Z" fill="#E0E0E0"/>
<path d="M152.431 159.931C152.343 159.931 153.597 154.403 155.232 147.626C156.867 140.849 158.265 135.377 158.352 135.402C158.44 135.427 157.185 140.931 155.551 147.701C153.916 154.471 152.518 159.95 152.431 159.931Z" fill="#E0E0E0"/>
<path d="M161.061 136.275C160.922 137.368 160.678 138.444 160.331 139.489C160.085 140.561 159.734 141.606 159.282 142.609C159.421 141.518 159.668 140.444 160.019 139.402C160.263 138.328 160.612 137.281 161.061 136.275Z" fill="#E0E0E0"/>
<path d="M124.8 166.764C124.792 166.685 124.792 166.606 124.8 166.527C124.8 166.359 124.844 166.134 124.875 165.841C124.95 165.217 125.056 164.337 125.199 163.201C125.486 160.905 125.923 157.585 126.497 153.442C127.071 149.298 127.745 144.363 128.681 138.859C128.912 137.48 129.155 136.07 129.424 134.628C129.682 133.155 130.02 131.697 130.435 130.26C130.89 128.746 131.638 127.336 132.637 126.111C133.676 124.815 135.112 123.896 136.724 123.496L141.879 123.465L178.376 123.321H189.434H192.441H193.221H193.49C193.401 123.329 193.311 123.329 193.221 123.321H192.441L189.434 123.365L178.376 123.477L141.879 123.714H136.724C135.956 123.886 135.227 124.204 134.578 124.65C133.925 125.086 133.339 125.614 132.837 126.217C131.86 127.409 131.131 128.783 130.69 130.26C130.271 131.696 129.933 133.154 129.68 134.628C129.405 136.07 129.155 137.474 128.924 138.853C128.001 144.35 127.277 149.286 126.672 153.417C126.067 157.548 125.605 160.855 125.274 163.164C125.106 164.293 124.981 165.179 124.887 165.791C124.844 166.084 124.812 166.309 124.787 166.477C124.804 166.572 124.808 166.668 124.8 166.764Z" fill="#263238"/>
<path d="M277.867 179.051V197.19L191.63 195.599L175.881 175.051L160.031 175.032L163.257 170.658L166.196 170.402L173.091 156.999L183.556 155.464L190.326 127.128L199.761 115.871L235.385 105.55L253.643 123.165L277.867 164.075" fill="#EBEBEB"/>
<path d="M277.867 164.075C277.867 164.075 277.823 164.018 277.742 163.894L277.405 163.332C277.1 162.833 276.657 162.084 276.082 161.148L271.122 152.88L253.525 123.271V123.302L235.26 105.693L235.41 105.737L215.28 111.552L199.836 116.027L199.917 115.977L190.47 127.209L190.507 127.146L183.712 155.482V155.563H183.624L173.154 157.079L173.235 157.023L166.302 170.408V170.439H166.265L163.326 170.683H163.363L160.917 173.959L160.293 174.764L160.081 175.026C160.081 175.026 160.143 174.926 160.274 174.745C160.405 174.564 160.599 174.283 160.861 173.927L163.269 170.62L166.202 170.352H166.152L173.016 156.93V156.88H173.066L183.537 155.376L183.437 155.47C185.396 147.22 187.674 137.636 190.176 127.121V127.084L199.605 115.852L199.636 115.814H199.686L215.13 111.334L235.31 105.493H235.404L235.466 105.556L253.712 123.184L271.215 152.855L276.107 161.192L277.393 163.401L277.717 163.968C277.836 164.006 277.867 164.075 277.867 164.075Z" fill="#263238"/>
<path d="M250.081 217.04L250.436 145.71L260.364 137.991L259.709 136.512L250.081 143.021V123.159L240.72 116.033C240.72 116.033 241.295 207.006 239.029 210.968C236.764 214.93 232.515 217.04 232.515 217.04H250.081Z" fill="#BA7F72"/>
<path d="M241.188 119.484C241.107 119.24 237.588 113.518 235.953 110.579H234.568C235.729 112.592 236.727 114.696 237.55 116.869L232.128 110.579H231.229C231.229 110.579 238.717 119.315 239.872 122.51L241.188 119.484Z" fill="#BA7F72"/>
<path d="M247.728 213.408C247.718 213.331 247.718 213.254 247.728 213.177C247.728 213.009 247.759 212.79 247.784 212.503C247.846 211.879 247.928 211.037 248.04 209.932C248.258 207.698 248.589 204.46 248.882 200.46C249.253 195.773 249.353 191.069 249.182 186.37C249.07 183.6 248.81 180.838 248.402 178.096C247.965 175.244 247.335 172.324 246.723 169.316C246.087 166.395 245.614 163.441 245.307 160.468C245.182 159.02 245.13 157.597 245.151 156.2C245.182 154.802 245.3 153.442 245.463 152.119C245.793 149.473 246.293 146.996 246.742 144.674C247.191 142.353 247.597 140.194 247.846 138.21C248.311 135.074 248.311 131.886 247.846 128.75C247.708 127.908 247.52 127.074 247.285 126.254C247.197 125.986 247.135 125.773 247.085 125.63C247.057 125.558 247.038 125.482 247.029 125.405C247.065 125.473 247.094 125.544 247.116 125.617C247.172 125.78 247.247 125.986 247.347 126.241C247.61 127.059 247.819 127.893 247.971 128.737C248.488 131.882 248.522 135.086 248.071 138.241C247.84 140.244 247.447 142.409 247.004 144.731C246.561 147.052 246.08 149.529 245.756 152.162C245.585 153.506 245.485 154.858 245.456 156.212C245.44 157.624 245.494 159.036 245.619 160.443C245.933 163.405 246.406 166.348 247.035 169.26C247.659 172.261 248.283 175.188 248.714 178.052C249.119 180.807 249.373 183.581 249.475 186.364C249.63 191.072 249.507 195.785 249.107 200.479C248.782 204.485 248.414 207.717 248.158 209.951C248.021 211.049 247.921 211.91 247.846 212.522C247.809 212.803 247.778 213.021 247.753 213.19C247.752 213.263 247.744 213.336 247.728 213.408Z" fill="#8B5D54"/>
<path d="M245.076 15.6001C245.076 16.2241 233.039 54.1508 233.039 54.1508L239.061 48.0481L230.393 74.5619L236.103 66.6059L229.37 99.8401L232.633 96.3769L226.924 119.808L231.816 113.693L226.924 131.234L265.674 128.376L256.495 95.3036L262.043 101.425L254.867 77.3761L258.536 79.4166L250.174 48.41L254.049 51.062L245.076 15.6001Z" fill="#455A64"/>
<path d="M246.374 83.3042C246.326 83.4988 246.261 83.6888 246.18 83.872C246.031 84.2589 245.825 84.7768 245.556 85.4071L243.391 90.7173L243.291 90.9544L243.173 90.7298C242.561 89.5991 242.033 88.4249 241.594 87.2167C241.419 86.7424 241.263 86.2744 241.126 85.8252H241.363C240.29 88.552 239.248 90.9232 238.455 92.608C238.062 93.4504 237.738 94.1244 237.501 94.5861L237.226 95.1103C237.164 95.2288 237.126 95.2912 237.12 95.285C237.203 95.031 237.303 94.783 237.419 94.5424C237.644 94.037 237.937 93.3631 238.305 92.5394C239.048 90.8421 240.065 88.4584 241.126 85.7316L241.257 85.4008L241.363 85.744C241.5 86.1871 241.656 86.6551 241.831 87.1231C242.27 88.3195 242.789 89.4848 243.385 90.6112H243.166L245.419 85.3322C245.694 84.7082 245.918 84.2028 246.093 83.8221C246.171 83.6416 246.265 83.4683 246.374 83.3042Z" fill="#263238"/>
<path d="M250.505 69.1455C250.417 69.0188 250.344 68.8827 250.286 68.7399L249.731 67.5793C249.25 66.5934 248.545 65.2143 247.628 63.6793H247.853C247.659 64.4281 247.453 65.2331 247.229 66.063C247.091 66.5809 246.96 67.0926 246.829 67.5793L246.742 67.9225L246.592 67.598C245.769 65.7635 245.051 64.1411 244.552 62.9804C244.321 62.4251 244.127 61.9695 243.971 61.6076C243.89 61.4454 243.829 61.2735 243.791 61.0959C243.894 61.2447 243.982 61.4036 244.053 61.5702C244.221 61.9259 244.439 62.3751 244.677 62.9118C245.219 64.0537 245.962 65.6636 246.798 67.4982H246.561C246.692 67.0115 246.823 66.4998 246.96 65.9819C247.179 65.1457 247.391 64.347 247.584 63.5982L247.659 63.3174L247.809 63.567C248.558 64.8489 249.235 66.1718 249.837 67.5294C250.055 68.0286 250.224 68.4342 250.33 68.715C250.405 68.8512 250.464 68.9957 250.505 69.1455Z" fill="#263238"/>
<path d="M245.014 40.0857C244.819 40.5503 244.591 41.0007 244.333 41.4335C243.878 42.2572 243.235 43.4054 242.461 44.7095L242.293 45.0028L242.237 44.6659C242.168 44.2915 242.093 43.8983 242.025 43.499C241.906 42.8063 241.787 42.1449 241.681 41.5271L241.9 41.5708C241.207 42.6691 240.608 43.6051 240.171 44.2665C239.954 44.6236 239.712 44.9655 239.448 45.2899C239.624 44.9047 239.833 44.5352 240.072 44.1854C240.471 43.5052 241.045 42.5505 241.719 41.446L241.887 41.1777L241.944 41.4897C242.056 42.1137 242.174 42.7377 242.299 43.4553C242.368 43.8547 242.436 44.2478 242.505 44.6222L242.274 44.5847C243.029 43.2868 243.697 42.1511 244.19 41.3462C244.432 40.9055 244.707 40.484 245.014 40.0857Z" fill="#263238"/>
<path d="M235.204 216.99C236.206 217.038 237.208 216.927 238.175 216.659C240.797 215.83 243.029 214.079 244.458 211.73C245.443 210.123 246.179 208.377 246.642 206.55C247.168 204.447 247.547 202.31 247.778 200.154C248.415 195.221 248.503 190.231 248.04 185.278C248.001 184.44 247.804 183.616 247.46 182.851C247.294 182.489 247.036 182.177 246.711 181.946C246.389 181.739 246.002 181.659 245.625 181.721C245.25 181.832 244.902 182.019 244.603 182.27C244.303 182.521 244.059 182.832 243.884 183.182C243.5 183.876 243.176 184.603 242.917 185.353C241.921 188.174 241.661 191.202 242.162 194.152C242.232 194.806 242.425 195.441 242.73 196.024C242.803 196.148 242.907 196.252 243.031 196.325C243.156 196.398 243.297 196.438 243.441 196.442C243.584 196.427 243.721 196.382 243.845 196.31C243.969 196.238 244.076 196.14 244.159 196.024C244.348 195.784 244.504 195.52 244.621 195.237C244.752 194.964 244.866 194.682 244.964 194.395C245.155 193.845 245.295 193.279 245.382 192.704C245.69 190.747 245.39 188.743 244.521 186.963H244.664C243.874 188.147 243.45 189.539 243.447 190.963C243.447 191.336 243.47 191.709 243.516 192.08C243.548 192.204 243.565 192.332 243.566 192.46C243.425 191.976 243.353 191.474 243.354 190.969C243.324 189.517 243.73 188.088 244.521 186.869L244.602 186.745L244.67 186.876C245.581 188.683 245.91 190.727 245.613 192.729C245.462 193.956 245.035 195.134 244.365 196.173C244.26 196.322 244.124 196.445 243.967 196.536C243.81 196.626 243.634 196.682 243.454 196.697C243.265 196.696 243.081 196.647 242.917 196.554C242.753 196.461 242.615 196.328 242.518 196.167C242.18 195.547 241.967 194.866 241.894 194.164C241.364 191.17 241.618 188.089 242.63 185.222C242.889 184.446 243.221 183.696 243.622 182.982C243.839 182.616 244.106 182.282 244.415 181.99C244.736 181.674 245.141 181.458 245.581 181.366C246.039 181.291 246.508 181.389 246.898 181.64C247.267 181.903 247.564 182.255 247.759 182.664C248.127 183.465 248.338 184.329 248.383 185.21C248.851 190.186 248.754 195.2 248.096 200.154C247.854 202.322 247.46 204.469 246.917 206.582C246.441 208.432 245.683 210.197 244.67 211.817C243.201 214.196 240.906 215.949 238.225 216.74C237.498 216.935 236.749 217.029 235.997 217.021C235.741 217.021 235.548 216.99 235.417 216.977C235.347 216.991 235.275 216.995 235.204 216.99Z" fill="#8B5D54"/>
<path d="M245.556 136.7C245.459 136.637 245.369 136.564 245.288 136.481L244.477 135.77H244.546C243.992 137.291 244.023 138.963 244.633 140.462C244.725 140.715 244.853 140.952 245.014 141.167C245.089 141.274 245.193 141.357 245.313 141.408C245.433 141.459 245.565 141.475 245.694 141.455C245.827 141.41 245.949 141.337 246.051 141.242C246.153 141.146 246.234 141.029 246.287 140.899C246.426 140.617 246.515 140.313 246.549 140.001C246.863 137.795 246.712 135.548 246.106 133.405C246.01 133.01 245.87 132.626 245.688 132.263C245.513 131.9 245.244 131.592 244.908 131.371C244.741 131.271 244.55 131.219 244.355 131.219C244.161 131.219 243.97 131.271 243.803 131.371C243.457 131.61 243.186 131.944 243.023 132.332C242.848 132.734 242.712 133.152 242.617 133.58C242.493 134.023 242.424 134.478 242.324 134.94C241.663 138.64 242.043 142.715 242.48 146.902C242.98 151.636 243.203 156.395 243.148 161.154C243.098 165.522 242.805 169.485 242.443 172.779C242.081 176.074 241.65 178.726 241.313 180.548C241.151 181.465 240.995 182.171 240.901 182.645L240.783 183.188C240.774 183.25 240.757 183.31 240.733 183.369C240.725 183.306 240.725 183.244 240.733 183.181L240.82 182.632C240.895 182.152 241.032 181.447 241.17 180.529C241.469 178.701 241.856 176.049 242.199 172.754C242.543 169.46 242.792 165.528 242.823 161.148C242.86 156.4 242.629 151.655 242.131 146.933C241.694 142.752 241.32 138.647 242 134.884C242.1 134.422 242.174 133.954 242.299 133.505C242.396 133.048 242.541 132.603 242.73 132.176C242.917 131.734 243.229 131.356 243.628 131.09C243.84 130.966 244.082 130.901 244.327 130.901C244.573 130.901 244.814 130.966 245.026 131.09C245.408 131.34 245.713 131.693 245.906 132.107C246.097 132.486 246.244 132.886 246.343 133.299C246.559 134.074 246.716 134.865 246.811 135.664C246.98 137.106 246.957 138.564 246.742 140.001C246.703 140.336 246.603 140.661 246.449 140.962C246.381 141.118 246.28 141.258 246.153 141.372C246.026 141.486 245.875 141.572 245.712 141.623C245.549 141.649 245.381 141.628 245.228 141.564C245.075 141.501 244.942 141.396 244.845 141.261C244.672 141.027 244.535 140.769 244.44 140.494C243.829 138.957 243.829 137.244 244.44 135.707V135.651L244.483 135.695L245.269 136.438C245.376 136.512 245.472 136.6 245.556 136.7Z" fill="#8B5D54"/>
<path d="M225.688 137.505C221.289 140.269 218.1 144.668 215.941 149.398C213.782 154.128 212.559 159.22 211.355 164.274L212.054 189.777C216.646 180.224 220.047 169.185 220.334 158.577H216.746C219.105 158.016 220.965 156.119 222.069 153.96C223.174 151.801 223.635 149.38 224.078 146.996L219.785 148.007C223.031 145.397 225.146 141.635 225.688 137.505Z" fill="#455A64"/>
<g opacity="0.3">
<path opacity="0.3" d="M225.688 137.505C221.289 140.269 218.1 144.668 215.941 149.398C213.782 154.128 212.559 159.22 211.355 164.274L212.054 189.777C216.646 180.224 220.047 169.185 220.334 158.577H216.746C219.105 158.016 220.965 156.119 222.069 153.96C223.174 151.801 223.635 149.38 224.078 146.996L219.785 148.007C223.031 145.397 225.146 141.635 225.688 137.505Z" fill="black"/>
</g>
<path d="M211.754 195.786C211.754 195.786 198.975 182.851 198.026 169.578L202.725 169.185C202.725 169.185 197.346 166.259 197.589 164.343C197.833 162.427 197.377 155.314 197.377 155.314L201.745 156.031C201.745 156.031 198.394 154.69 197.783 152.175C197.171 149.66 197.521 137.748 197.521 137.748C197.521 137.748 203.212 142.809 205.29 148.306C207.367 153.804 212.154 160.025 212.334 177.297C212.515 194.57 211.754 195.786 211.754 195.786Z" fill="#455A64"/>
<path d="M217.776 196.61C217.776 196.61 229.632 187.175 231.566 176.236L227.71 175.525C227.71 175.525 232.409 173.541 232.359 171.937C232.309 170.333 233.282 164.449 233.282 164.449L229.595 164.68C229.595 164.68 232.484 163.85 233.201 161.816C233.919 159.781 234.605 149.872 234.605 149.872C234.605 149.872 229.47 153.616 227.292 157.984C225.114 162.352 220.628 167.151 219.024 181.453C217.42 195.755 217.776 196.61 217.776 196.61Z" fill="#455A64"/>
<path d="M201.696 149.598C201.718 149.641 201.734 149.687 201.745 149.735C201.783 149.841 201.827 149.978 201.883 150.159L202.388 151.775C202.607 152.481 202.869 153.342 203.156 154.353C203.443 155.363 203.78 156.499 204.129 157.772C204.841 160.305 205.621 163.344 206.45 166.733C207.28 170.121 208.098 173.859 208.89 177.802C209.683 181.746 210.35 185.515 210.912 188.953C211.474 192.392 211.91 195.499 212.235 198.12C212.41 199.424 212.541 200.616 212.659 201.645C212.778 202.675 212.878 203.586 212.946 204.316C213.015 205.046 213.065 205.608 213.109 206.007C213.109 206.188 213.109 206.338 213.14 206.444C213.149 206.493 213.149 206.544 213.14 206.594C213.137 206.546 213.137 206.498 213.14 206.45L213.084 206.007L212.884 204.322C212.809 203.592 212.703 202.7 212.566 201.658C212.428 200.616 212.297 199.437 212.116 198.132C211.773 195.524 211.305 192.423 210.75 188.985C210.194 185.546 209.502 181.777 208.716 177.84C207.929 173.902 207.087 170.165 206.288 166.776C205.489 163.388 204.672 160.368 203.992 157.809C203.661 156.561 203.33 155.388 203.05 154.384C202.769 153.379 202.525 152.512 202.313 151.8C202.101 151.089 201.958 150.552 201.845 150.172C201.795 149.991 201.758 149.847 201.727 149.741C201.71 149.695 201.699 149.647 201.696 149.598Z" fill="#263238"/>
<path d="M210.856 204.441C210.856 204.441 199.212 193.259 195.312 186.245L197.714 184.997C196.809 185.17 195.877 185.148 194.981 184.933C194.085 184.718 193.245 184.314 192.516 183.749C191.068 182.612 189.791 181.274 188.722 179.774L191.961 178.951C188.874 178.337 186.14 176.561 184.323 173.99C188.254 174.302 191.936 176.137 195.044 178.558C197.523 180.57 199.808 182.809 201.87 185.247C202.899 186.407 203.818 187.661 204.616 188.991C206.706 192.554 210.488 200.011 210.856 204.441Z" fill="#455A64"/>
<path d="M230.137 157.335C230.137 157.335 230.137 157.379 230.1 157.46C230.062 157.541 230.019 157.672 229.963 157.822C229.838 158.153 229.657 158.621 229.426 159.214C229.195 159.806 228.902 160.555 228.577 161.416C228.253 162.278 227.872 163.257 227.479 164.343C226.674 166.514 225.757 169.117 224.777 172.018C223.797 174.92 222.787 178.127 221.788 181.515C220.79 184.904 219.916 188.161 219.161 191.131C218.406 194.102 217.782 196.785 217.289 199.044C217.027 200.173 216.821 201.203 216.628 202.101C216.434 203 216.278 203.78 216.147 204.41C216.016 205.04 215.923 205.527 215.848 205.876C215.816 206.032 215.785 206.157 215.767 206.251C215.762 206.296 215.749 206.341 215.729 206.382C215.725 206.338 215.725 206.294 215.729 206.251C215.729 206.151 215.767 206.026 215.792 205.864L216.054 204.398C216.172 203.774 216.316 202.981 216.503 202.076C216.69 201.171 216.884 200.148 217.127 199.019C217.601 196.747 218.219 194.058 218.961 191.088C219.704 188.117 220.578 184.848 221.57 181.459C222.562 178.071 223.598 174.864 224.577 171.956C225.557 169.048 226.499 166.458 227.323 164.293C227.729 163.207 228.116 162.234 228.452 161.379C228.789 160.524 229.076 159.788 229.332 159.189L229.9 157.81L230.056 157.454L230.137 157.335Z" fill="#263238"/>
<path d="M177.035 223.592L192.835 204.766L216.372 187.206L262.155 181.84L277.867 194.825V223.592H177.035Z" fill="#E0E0E0"/>
<path d="M216.372 187.206L258.261 205.39L276.613 193.789L262.155 181.84L216.372 187.206Z" fill="#F5F5F5"/>
<path d="M256.115 202.9C256.352 203.611 259.671 216.278 259.671 216.278L260.258 202.9H256.115Z" fill="#F5F5F5"/>
<path d="M261.019 221.308C260.967 221.209 260.928 221.104 260.901 220.996C260.826 220.759 260.726 220.453 260.607 220.073C260.351 219.236 259.983 218.07 259.553 216.603C258.66 213.602 257.419 209.402 255.971 204.504L256.052 204.604L247.503 200.928L230.1 193.322L224.84 190.944L223.392 190.32C223.224 190.251 223.062 190.17 222.905 190.077C223.082 190.122 223.253 190.185 223.417 190.264L224.865 190.857L230.162 193.103L247.634 200.623L256.177 204.367L256.239 204.398V204.46L259.734 216.528C260.139 218.001 260.47 219.18 260.701 220.023C260.807 220.41 260.888 220.715 260.951 220.952C260.982 221.069 261.005 221.188 261.019 221.308Z" fill="#263238"/>
<path d="M38.8938 223.592L38.9437 197.066L56.8837 185.372L76.1716 187.288L88.6266 202.613L93.0133 213.084L105.737 216.678L117.505 223.954L38.8938 223.592Z" fill="#E0E0E0"/>
<path d="M56.8838 185.372L69.5947 202.825L88.6267 202.613L76.1716 187.288L56.8838 185.372Z" fill="#EBEBEB"/>
<path d="M93.0133 213.083L79.9031 213.957L105.737 216.678L93.0133 213.083Z" fill="#EBEBEB"/>
<path d="M69.5945 202.8C69.5945 202.8 72.5834 212.229 72.7519 211.966C72.9204 211.704 77.1636 201.702 77.1636 201.702L69.5945 202.8Z" fill="#EBEBEB"/>
<path d="M117.505 223.954C117.431 223.924 117.36 223.886 117.293 223.841L116.669 223.48L114.323 222.069L105.668 216.772L92.976 213.221H92.9074V213.159L88.5082 202.694V202.732L81.5194 194.127C79.6474 191.824 77.819 189.571 76.0531 187.387L76.1592 187.45L56.8714 185.509H56.9525L43.8859 193.939L40.2418 196.267L39.2808 196.891C39.172 196.961 39.0595 197.026 38.9438 197.084L39.2558 196.86L40.1981 196.236C41.0467 195.68 42.2573 194.869 43.8048 193.846L56.784 185.26H56.8214H56.8714L76.1654 187.132H76.2341L76.2715 187.181L81.7502 193.914L88.7203 202.507C90.2741 206.22 91.7467 209.758 93.0883 212.984L92.9947 212.903L105.712 216.528L114.323 221.907L116.632 223.373L117.256 223.754C117.347 223.81 117.431 223.877 117.505 223.954Z" fill="#263238"/>
<path d="M77.9065 212.46C77.9065 212.372 81.2761 212.46 85.4257 212.647C89.5753 212.834 92.9137 213.065 92.9137 213.159C92.9137 213.252 89.5441 213.159 85.3945 212.971C81.2449 212.784 77.9003 212.553 77.9065 212.46Z" fill="#263238"/>
<path d="M148.836 210.032C148.836 210.032 148.761 209.933 148.624 209.733C148.487 209.533 148.293 209.209 148.05 208.834C147.538 208.023 146.802 206.875 145.91 205.427L138.422 193.384L138.515 193.447L124.344 190.414L122.061 189.921L122.21 189.871L113.144 199.231L113.106 199.268H113.062L107.103 200.186L107.184 200.136L101.456 207.443L99.8773 209.433L99.453 209.945C99.4098 210.007 99.3596 210.063 99.3032 210.114C99.3368 210.048 99.3765 209.985 99.4218 209.926L99.8149 209.39L101.344 207.355L106.96 199.98L106.991 199.942H107.041L112.988 198.988L112.944 199.056L121.992 189.659L122.054 189.596H122.142L124.425 190.089L138.59 193.153H138.653V193.203L146.022 205.309L148.094 208.759L148.63 209.683C148.712 209.792 148.781 209.909 148.836 210.032Z" fill="#263238"/>
<path d="M52.6719 158.309C53.6911 165.543 54.7061 172.773 55.717 179.999H56.5095C56.004 172.655 55.4674 165.142 52.6719 158.309Z" fill="#455A64"/>
<path d="M61.152 157.292C59.0242 159.626 58.1693 162.833 57.6264 165.941C56.9255 170.6 56.7164 175.321 57.0024 180.024H58.1194C57.6862 172.323 58.7153 164.61 61.152 157.292Z" fill="#455A64"/>
<path d="M53.2334 171.138C53.0455 170.05 52.6606 169.006 52.0978 168.056C51.1848 166.869 49.9598 165.959 48.5597 165.429C47.1657 164.908 45.8226 164.261 44.5474 163.494C45.9139 165.741 49.0214 166.334 50.6064 168.436C51.3205 169.537 51.8044 170.77 52.0291 172.062C52.703 174.832 53.1149 177.235 53.7888 180.005H54.6874C54.3905 177.022 53.9049 174.06 53.2334 171.138Z" fill="#455A64"/>
<path d="M58.9304 180.024C58.9304 180.024 59.6917 171.407 60.2533 169.828C60.8149 168.249 66.1439 163.875 66.1439 164.112C66.1439 164.349 62.1315 169.104 61.5637 170.078C60.9959 171.051 60.0224 180.062 60.0224 180.062L58.9304 180.024Z" fill="#455A64"/>
<path d="M192.373 189.79C190.775 189.459 189.01 189.79 187.568 189.01C186.127 188.23 185.166 186.414 183.518 186.376C182.189 186.339 181.191 187.531 180.348 188.567C179.506 189.602 178.32 190.694 177.023 190.376C176.093 190.152 175.4 189.241 174.445 189.197C173.197 189.141 172.311 190.632 171.045 190.782C170.644 190.791 170.246 190.711 169.88 190.547C169.514 190.382 169.189 190.139 168.929 189.833C168.413 189.221 167.865 188.635 167.288 188.08C166.555 187.515 165.651 187.216 164.726 187.233C163.8 187.25 162.908 187.582 162.196 188.173C161.229 189.022 160.455 190.439 159.17 190.357C158.703 190.268 158.242 190.147 157.791 189.996C157.365 189.958 156.936 190.008 156.53 190.144C156.124 190.279 155.75 190.496 155.432 190.782C154.764 191.312 154.184 191.967 153.523 192.479C151.32 194.108 147.763 194.195 145.13 195.749H196.959C196.994 194.38 196.557 193.042 195.722 191.957C194.887 190.872 193.705 190.107 192.373 189.79Z" fill="#FAFAFA"/>
<path d="M192.373 189.79C192.373 189.79 192.554 189.821 192.897 189.908C193.401 190.065 193.879 190.292 194.32 190.582C195.035 191.061 195.644 191.681 196.111 192.404C196.753 193.401 197.077 194.57 197.04 195.755V195.83H196.965L148 195.911H144.531L145.049 195.612C146.733 194.638 148.599 194.251 150.34 193.74C151.207 193.502 152.045 193.167 152.836 192.741C153.585 192.271 154.271 191.707 154.877 191.063C155.513 190.39 156.357 189.95 157.273 189.815C157.727 189.807 158.178 189.896 158.596 190.077C158.965 190.229 159.376 190.247 159.756 190.127C160.491 189.747 161.13 189.207 161.628 188.548C162.177 187.893 162.913 187.423 163.737 187.2C164.532 186.992 165.369 187.023 166.146 187.288C166.923 187.554 167.604 188.042 168.105 188.691C168.548 189.291 169.078 189.821 169.678 190.264C169.967 190.46 170.298 190.584 170.645 190.626C170.985 190.662 171.328 190.596 171.631 190.439C172.255 190.139 172.773 189.627 173.416 189.297C173.74 189.12 174.107 189.036 174.477 189.053C174.831 189.096 175.172 189.215 175.475 189.403C175.994 189.814 176.584 190.125 177.216 190.32C177.816 190.386 178.418 190.221 178.901 189.858C179.905 189.191 180.504 188.155 181.309 187.362C181.69 186.965 182.152 186.655 182.663 186.451C183.153 186.263 183.693 186.248 184.192 186.408C185.028 186.78 185.775 187.327 186.382 188.011C186.903 188.564 187.544 188.991 188.254 189.259C188.827 189.439 189.421 189.542 190.02 189.565L191.337 189.659C191.702 189.682 192.063 189.741 192.417 189.833H192.142C191.961 189.833 191.693 189.777 191.331 189.752L190.014 189.69C189.405 189.675 188.801 189.58 188.217 189.409C187.492 189.144 186.837 188.717 186.301 188.161C185.701 187.506 184.973 186.981 184.161 186.62C183.697 186.474 183.197 186.492 182.745 186.67C182.274 186.876 181.849 187.175 181.497 187.55C180.717 188.298 180.124 189.359 179.069 190.046C178.535 190.452 177.863 190.633 177.197 190.551C176.554 190.369 175.951 190.069 175.419 189.665C175.145 189.497 174.839 189.391 174.52 189.353C174.197 189.339 173.877 189.417 173.597 189.578C172.973 189.883 172.486 190.395 171.812 190.732C171.462 190.905 171.071 190.979 170.683 190.944C170.293 190.897 169.919 190.76 169.591 190.545C168.971 190.087 168.42 189.543 167.956 188.929C167.486 188.316 166.845 187.857 166.114 187.61C165.383 187.362 164.595 187.337 163.85 187.537C163.074 187.736 162.38 188.172 161.865 188.785C161.298 189.365 160.78 190.114 159.9 190.445C159.455 190.587 158.975 190.572 158.54 190.401C158.16 190.235 157.749 190.152 157.335 190.158C156.493 190.288 155.719 190.694 155.133 191.312C154.511 191.975 153.806 192.553 153.036 193.034C152.224 193.476 151.363 193.822 150.471 194.064C148.712 194.594 146.871 194.988 145.255 195.936L145.173 195.63H148.038L197.003 195.711L196.916 195.793C196.962 194.637 196.657 193.495 196.042 192.517C195.595 191.798 195.007 191.178 194.313 190.694C193.721 190.287 193.065 189.982 192.373 189.79Z" fill="#E0E0E0"/>
<path d="M149.061 195.749C147.611 195.912 146.151 195.966 144.693 195.911C143.225 195.967 141.754 195.913 140.294 195.749C141.754 195.588 143.225 195.534 144.693 195.587C146.151 195.535 147.611 195.589 149.061 195.749Z" fill="#E0E0E0"/>
<path d="M196.816 197.808C196.816 197.895 188.96 197.97 179.263 197.97C169.566 197.97 161.703 197.895 161.703 197.808C161.703 197.721 169.566 197.646 179.263 197.646C188.96 197.646 196.816 197.721 196.816 197.808Z" fill="#263238"/>
<path d="M185.989 199.98C185.989 200.073 181.84 200.167 176.723 200.192C171.606 200.217 167.457 200.192 167.457 200.079C167.457 199.967 171.606 199.892 176.723 199.867C181.84 199.842 185.989 199.892 185.989 199.98Z" fill="#E0E0E0"/>
<path d="M174.82 202.207C174.82 202.301 174.327 202.37 173.722 202.37C173.116 202.37 172.617 202.301 172.617 202.207C172.617 202.114 173.11 202.045 173.722 202.045C174.333 202.045 174.82 202.12 174.82 202.207Z" fill="#E0E0E0"/>
<path d="M175.076 218.113C175.076 218.207 168.424 218.282 160.224 218.282C152.025 218.282 145.373 218.207 145.373 218.113C145.373 218.02 152.019 217.951 160.224 217.951C168.43 217.951 175.076 218.026 175.076 218.113Z" fill="#E0E0E0"/>
<path d="M170.926 216.422C170.926 216.516 167.744 216.584 163.819 216.584C159.894 216.584 156.711 216.516 156.711 216.422C156.711 216.328 159.894 216.26 163.819 216.26C167.744 216.26 170.926 216.335 170.926 216.422Z" fill="#E0E0E0"/>
<path d="M164.043 175.032C164.043 175.119 153.473 175.219 140.444 175.257C127.415 175.294 116.838 175.257 116.832 175.157C116.825 175.057 127.402 174.963 140.437 174.932C153.473 174.901 164.043 174.938 164.043 175.032Z" fill="#263238"/>
<path d="M146.459 186.738C145.706 185.231 145.054 183.676 144.506 182.083C143.858 180.53 143.307 178.938 142.858 177.316C143.611 178.823 144.264 180.378 144.812 181.971C145.46 183.524 146.01 185.116 146.459 186.738Z" fill="#E0E0E0"/>
<path d="M148.799 184.305C148.419 183.796 148.128 183.226 147.938 182.62C147.651 182.052 147.462 181.441 147.376 180.811C147.756 181.319 148.048 181.889 148.237 182.495C148.524 183.063 148.714 183.675 148.799 184.305Z" fill="#E0E0E0"/>
<path d="M153.579 190.57C153.278 190.083 153.03 189.567 152.836 189.028C152.424 188.055 151.894 186.695 151.37 185.172C150.846 183.65 150.421 182.252 150.122 181.228C149.941 180.685 149.817 180.125 149.754 179.556C149.996 180.075 150.192 180.613 150.34 181.166C150.715 182.264 151.158 183.593 151.651 185.066C152.144 186.539 152.637 187.849 153.03 188.947C153.262 189.47 153.446 190.013 153.579 190.57Z" fill="#E0E0E0"/>
<path d="M162.24 168.942C164.301 169.13 166.267 169.896 167.912 171.151C167.203 171.939 166.333 172.564 165.36 172.985" fill="#FF725E"/>
<path d="M157.753 173.791C157.825 174.902 158.182 175.977 158.789 176.911C158.894 177.111 159.06 177.273 159.263 177.372C159.391 177.412 159.526 177.42 159.658 177.396C159.789 177.372 159.913 177.317 160.018 177.235C160.225 177.056 160.402 176.846 160.542 176.611" fill="#FF725E"/>
<path d="M165.235 176.636L164.143 177.21C163.635 177.862 163.341 178.654 163.299 179.479C163.258 180.304 163.472 181.122 163.912 181.821C164.532 181.416 165.027 180.845 165.342 180.174C165.656 179.503 165.777 178.757 165.691 178.021C166.429 178.343 167.25 178.422 168.036 178.244C168.822 178.067 169.53 177.643 170.059 177.035C169.345 176.588 168.535 176.319 167.695 176.249C166.856 176.18 166.013 176.312 165.235 176.636Z" fill="#FF725E"/>
<path opacity="0.2" d="M165.235 176.636L164.143 177.21C163.635 177.862 163.341 178.654 163.299 179.479C163.258 180.304 163.472 181.122 163.912 181.821C164.532 181.416 165.027 180.845 165.342 180.174C165.656 179.503 165.777 178.757 165.691 178.021C166.429 178.343 167.25 178.422 168.036 178.244C168.822 178.067 169.53 177.643 170.059 177.035C169.345 176.588 168.535 176.319 167.695 176.249C166.856 176.18 166.013 176.312 165.235 176.636Z" fill="black"/>
<path d="M158.203 168.318C158.203 168.318 163.095 167.8 165.391 170.976C167.687 174.152 164.992 177.247 164.992 177.247C164.992 177.247 161.379 178.139 158.883 175.681C156.387 173.222 158.203 168.318 158.203 168.318Z" fill="#FF725E"/>
<path d="M160.574 169.516C160.549 169.46 160.512 169.41 160.465 169.37C160.418 169.33 160.363 169.302 160.303 169.286C160.243 169.271 160.181 169.27 160.121 169.282C160.06 169.294 160.004 169.32 159.955 169.358C159.906 169.395 159.867 169.444 159.839 169.499C159.812 169.554 159.797 169.614 159.797 169.676C159.796 169.737 159.81 169.798 159.836 169.854C159.863 169.909 159.902 169.958 159.95 169.997C159.995 170.039 160.048 170.07 160.107 170.088C160.166 170.106 160.228 170.111 160.289 170.102C160.349 170.092 160.407 170.069 160.458 170.034C160.508 169.999 160.55 169.953 160.581 169.9C160.611 169.846 160.628 169.787 160.632 169.725C160.636 169.664 160.626 169.602 160.602 169.546C160.579 169.489 160.542 169.438 160.497 169.397C160.451 169.357 160.396 169.327 160.337 169.31" fill="white"/>
<path d="M165.297 175.687C165.338 175.463 165.394 175.242 165.466 175.026C165.578 174.5 165.593 173.959 165.51 173.428C165.423 172.897 165.237 172.387 164.96 171.924C164.824 171.742 164.701 171.55 164.592 171.35C164.784 171.48 164.948 171.648 165.073 171.843C165.4 172.304 165.618 172.834 165.709 173.392C165.8 173.951 165.761 174.522 165.597 175.063C165.544 175.29 165.441 175.503 165.297 175.687Z" fill="white"/>
<path d="M163.569 170.446C163.525 170.477 163.45 170.446 163.407 170.383C163.363 170.321 163.363 170.233 163.407 170.209C163.45 170.184 163.525 170.209 163.569 170.271C163.613 170.333 163.613 170.414 163.569 170.446Z" fill="white"/>
<path d="M106.167 167.101L102.049 164.742L100.689 157.654L99.5404 157.972L100.533 164.661L96.5889 161.997L95.7278 162.989L100.944 166.309L106.167 168.755V167.101Z" fill="#455A64"/>
<path d="M108.607 156.768H105.593V195.867H108.607V156.768Z" fill="#455A64"/>
<path d="M106.28 82.075C106.28 82.4868 98.1676 107.996 98.1676 107.996L102.217 103.884L96.3829 121.711L100.227 116.364L95.7028 138.722L97.893 136.388L94.0554 152.163L97.3439 148.044L94.0554 159.838L120.114 157.922L113.942 135.702L117.686 139.814L112.863 123.633L115.328 125.006L109.712 104.158L112.32 105.943L106.28 82.075Z" fill="#455A64"/>
<path d="M107.153 127.608C107.12 127.738 107.076 127.866 107.022 127.989C106.922 128.251 106.785 128.613 106.617 129.025L105.156 132.594L105.094 132.75L105.013 132.6C104.602 131.839 104.247 131.048 103.952 130.235C103.836 129.915 103.73 129.603 103.634 129.299H103.796C103.072 131.134 102.373 132.731 101.843 133.861C101.575 134.428 101.356 134.884 101.219 135.19L101.032 135.545L100.963 135.664C101.016 135.492 101.082 135.325 101.163 135.165L101.756 133.817C102.261 132.675 102.941 131.071 103.628 129.237L103.721 129.012L103.79 129.243C103.883 129.543 103.99 129.867 104.102 130.173C104.398 130.978 104.748 131.761 105.15 132.519H105C105.624 131.096 106.136 129.867 106.517 128.968C106.704 128.557 106.854 128.213 106.966 127.951C107.078 127.689 107.147 127.608 107.153 127.608Z" fill="#263238"/>
<path d="M109.93 118.086C109.867 118.002 109.816 117.91 109.78 117.811L109.406 117.031C109.088 116.37 108.613 115.446 107.996 114.41H108.145C108.014 114.91 107.877 115.453 107.733 116.014C107.64 116.364 107.546 116.701 107.459 117.031L107.403 117.262L107.303 117.044C106.748 115.796 106.267 114.722 105.93 113.924C105.774 113.556 105.643 113.25 105.543 113C105.485 112.893 105.443 112.777 105.418 112.657C105.483 112.759 105.542 112.866 105.593 112.975L106.03 113.88C106.392 114.648 106.897 115.752 107.459 116.963H107.303C107.384 116.638 107.478 116.295 107.565 115.945C107.715 115.384 107.858 114.847 107.989 114.342L108.039 114.155L108.139 114.323C108.639 115.184 109.093 116.072 109.499 116.981C109.649 117.325 109.761 117.605 109.83 117.786C109.874 117.882 109.907 117.983 109.93 118.086Z" fill="#263238"/>
<path d="M106.236 98.5422C106.108 98.8573 105.956 99.162 105.78 99.4533C105.475 100.009 105.038 100.776 104.532 101.656L104.42 101.856L104.376 101.625C104.333 101.375 104.283 101.113 104.239 100.845C104.158 100.377 104.077 99.9338 104.008 99.5157L104.152 99.5469C103.69 100.283 103.284 100.913 102.991 101.356C102.847 101.598 102.685 101.827 102.504 102.043C102.616 101.784 102.75 101.536 102.904 101.3C103.172 100.845 103.559 100.202 104.014 99.4283L104.127 99.2474L104.164 99.4595C104.239 99.8714 104.32 100.314 104.408 100.782C104.451 101.051 104.501 101.313 104.545 101.569H104.389C104.894 100.701 105.35 99.94 105.674 99.3971C105.841 99.0993 106.029 98.8136 106.236 98.5422Z" fill="#263238"/>
<path d="M259.971 155.913C258.386 155.913 257.263 157.504 256.664 158.977C256.388 159.725 256.287 160.526 256.367 161.32C256.447 162.113 256.706 162.878 257.125 163.557C257.677 164.46 258.459 165.199 259.391 165.699C260.323 166.199 261.372 166.442 262.429 166.402C263.485 166.334 264.5 165.973 265.361 165.359C266.222 164.745 266.895 163.902 267.303 162.926C267.679 161.937 267.756 160.859 267.524 159.826C267.292 158.793 266.762 157.851 265.999 157.117C264.033 155.307 261.993 154.995 259.409 155.981" fill="#FF725E"/>
<g opacity="0.7">
<path opacity="0.7" d="M259.971 155.913C258.386 155.913 257.263 157.504 256.664 158.977C256.388 159.725 256.287 160.526 256.367 161.32C256.447 162.113 256.706 162.878 257.125 163.557C257.677 164.46 258.459 165.199 259.391 165.699C260.323 166.199 261.372 166.442 262.429 166.402C263.485 166.334 264.5 165.973 265.361 165.359C266.222 164.745 266.895 163.902 267.303 162.926C267.679 161.937 267.756 160.859 267.524 159.826C267.292 158.793 266.762 157.851 265.999 157.117C264.033 155.307 261.993 154.995 259.409 155.981" fill="white"/>
</g>
<path d="M261.231 159.856C261.048 157.381 260.355 154.969 259.197 152.774C258.839 151.996 258.297 151.317 257.618 150.796C257.298 150.522 256.899 150.357 256.478 150.324C256.058 150.291 255.638 150.393 255.279 150.615C254.92 150.836 254.641 151.166 254.482 151.556C254.322 151.946 254.291 152.377 254.392 152.786C254.544 153.579 254.864 154.33 255.328 154.989C256.726 157.198 258.585 158.59 261.231 159.856Z" fill="white"/>
<path d="M261.231 159.856C261.146 159.84 261.064 159.81 260.988 159.769C260.832 159.707 260.607 159.607 260.32 159.463C259.511 159.067 258.738 158.599 258.011 158.066C256.926 157.268 255.995 156.278 255.266 155.145C254.795 154.489 254.456 153.747 254.267 152.961C254.167 152.521 254.192 152.061 254.34 151.634C254.488 151.207 254.752 150.83 255.104 150.546C255.493 150.286 255.961 150.169 256.427 150.216C256.871 150.257 257.299 150.405 257.675 150.646C258.334 151.134 258.864 151.777 259.216 152.518C259.857 153.704 260.357 154.961 260.707 156.262C260.946 157.131 261.113 158.018 261.206 158.914C261.238 159.232 261.256 159.482 261.256 159.651C261.256 159.819 261.256 159.906 261.256 159.906C261.185 159.585 261.132 159.26 261.1 158.933C260.959 158.052 260.761 157.181 260.507 156.325C260.134 155.055 259.621 153.831 258.979 152.674C258.641 151.989 258.142 151.396 257.525 150.946C257.203 150.718 256.823 150.587 256.43 150.568C256.036 150.549 255.645 150.644 255.303 150.84C255 151.093 254.773 151.425 254.646 151.799C254.519 152.174 254.498 152.576 254.586 152.961C254.762 153.709 255.079 154.417 255.522 155.045C256.228 156.16 257.123 157.142 258.167 157.947C258.875 158.49 259.622 158.98 260.401 159.413C260.689 159.54 260.966 159.688 261.231 159.856Z" fill="#263238"/>
<path d="M263.035 159.856C265.47 159.384 267.782 158.413 269.824 157.005C270.557 156.561 271.17 155.944 271.608 155.208C271.844 154.857 271.961 154.441 271.944 154.019C271.927 153.597 271.777 153.191 271.514 152.861C271.252 152.53 270.891 152.292 270.484 152.18C270.077 152.067 269.645 152.088 269.25 152.237C268.479 152.481 267.771 152.887 267.172 153.429C265.144 155.07 263.983 157.08 263.035 159.856Z" fill="white"/>
<path d="M263.035 159.856C263.035 159.856 263.035 159.763 263.091 159.607C263.147 159.451 263.209 159.207 263.315 158.908C263.612 158.056 263.986 157.233 264.432 156.449C265.102 155.279 265.977 154.239 267.016 153.379C267.611 152.835 268.306 152.411 269.062 152.131C269.488 151.98 269.947 151.951 270.388 152.047C270.829 152.142 271.234 152.36 271.558 152.674C271.856 153.023 272.026 153.463 272.039 153.922C272.049 154.365 271.951 154.805 271.752 155.201C271.355 155.908 270.789 156.506 270.104 156.942C269.007 157.715 267.824 158.357 266.579 158.858C265.743 159.197 264.881 159.468 264.002 159.669C263.69 159.731 263.446 159.781 263.284 159.8C263.199 159.81 263.113 159.81 263.028 159.8C263.338 159.687 263.655 159.596 263.977 159.525C264.827 159.285 265.661 158.989 266.473 158.639C267.688 158.116 268.843 157.464 269.917 156.692C270.557 156.275 271.088 155.71 271.465 155.045C271.655 154.699 271.741 154.305 271.713 153.911C271.685 153.518 271.545 153.14 271.309 152.824C271.022 152.553 270.665 152.366 270.279 152.285C269.892 152.203 269.491 152.23 269.119 152.362C268.397 152.626 267.733 153.024 267.159 153.535C266.136 154.367 265.264 155.37 264.582 156.499C264.128 157.268 263.729 158.069 263.39 158.895C263.178 159.532 263.053 159.862 263.035 159.856Z" fill="#263238"/>
<path d="M261.231 159.401C260.607 159.401 260.208 160.025 259.983 160.562C259.88 160.843 259.842 161.144 259.872 161.443C259.903 161.741 260 162.029 260.158 162.284C260.366 162.624 260.66 162.902 261.011 163.091C261.362 163.279 261.757 163.371 262.155 163.357C262.553 163.331 262.936 163.194 263.261 162.963C263.586 162.731 263.841 162.414 263.996 162.047C264.137 161.673 264.165 161.267 264.078 160.878C263.99 160.488 263.79 160.133 263.503 159.856C263.184 159.533 262.771 159.318 262.324 159.241C261.876 159.164 261.416 159.228 261.007 159.426" fill="#FF725E"/>
<path d="M259.322 165.03C259.017 164.895 258.739 164.705 258.504 164.468C257.912 163.915 257.45 163.237 257.15 162.484C256.823 161.729 256.738 160.892 256.907 160.088C256.949 159.752 257.095 159.438 257.325 159.189C257.375 159.189 257.194 159.545 257.113 160.125C257.021 160.889 257.131 161.663 257.431 162.371C258.093 164.112 259.403 164.942 259.322 165.03Z" fill="white"/>
<path d="M261.119 165.628C261.119 165.709 260.901 165.822 260.607 165.759C260.314 165.697 260.146 165.51 260.189 165.441C260.233 165.373 260.439 165.441 260.67 165.441C260.901 165.441 261.106 165.547 261.119 165.628Z" fill="white"/>
<path d="M267.003 160.237C267.041 160.237 267.128 160.493 267.147 160.936C267.16 161.518 267.045 162.095 266.81 162.627C266.581 163.159 266.24 163.636 265.812 164.025C265.475 164.312 265.225 164.424 265.188 164.393C265.718 163.836 266.165 163.205 266.517 162.521C266.788 161.787 266.952 161.018 267.003 160.237Z" fill="white"/>
<path d="M263.447 156.543C263.372 156.58 263.259 156.512 263.128 156.462C262.997 156.412 262.866 156.374 262.841 156.293C262.816 156.212 263.004 156.081 263.241 156.181C263.478 156.281 263.528 156.512 263.447 156.543Z" fill="white"/>
<path d="M260.95 162.546C260.95 162.583 260.757 162.546 260.551 162.34C260.28 162.083 260.11 161.738 260.071 161.366C260.035 160.994 260.132 160.62 260.345 160.312C260.507 160.081 260.67 160 260.695 160.031C260.486 160.434 260.375 160.881 260.37 161.335C260.445 162.078 261.007 162.483 260.95 162.546Z" fill="white"/>
<path d="M261.887 162.958C261.887 163.039 261.774 163.101 261.662 163.089C261.55 163.076 261.456 163.001 261.462 162.92C261.468 162.839 261.568 162.777 261.687 162.789C261.805 162.802 261.893 162.864 261.887 162.958Z" fill="white"/>
<g opacity="0.1">
<path opacity="0.1" d="M168.224 210.338C167.987 210.444 168.068 210.831 168.293 210.962C168.534 211.052 168.792 211.086 169.048 211.062C169.304 211.062 169.597 211.199 169.641 211.449C169.722 211.904 168.954 212.073 168.917 212.566C168.879 213.059 169.379 213.146 169.765 213.19C170.152 213.234 170.639 213.352 170.701 213.739C170.698 213.889 170.686 214.039 170.664 214.188C170.664 214.638 171.182 214.918 171.631 214.918C172.08 214.918 172.505 214.737 172.954 214.706C173.177 214.671 173.405 214.713 173.599 214.827C173.794 214.941 173.943 215.119 174.021 215.33C174.028 215.486 174.051 215.641 174.09 215.792C174.208 216.085 174.589 216.148 174.901 216.154C176.167 216.183 177.43 216.016 178.645 215.661C178.774 215.643 178.897 215.596 179.005 215.523C179.113 215.451 179.203 215.355 179.269 215.243C179.301 215.097 179.28 214.944 179.209 214.812C179.138 214.68 179.022 214.579 178.882 214.525C178.596 214.43 178.29 214.413 177.996 214.475L179.968 213.82C180.609 213.661 181.205 213.355 181.709 212.928C182.028 212.613 182.239 212.205 182.311 211.762C182.383 211.319 182.313 210.865 182.11 210.466C181.907 210.066 181.582 209.74 181.183 209.537C180.783 209.333 180.329 209.262 179.887 209.334" fill="black"/>
</g>
<path d="M179.624 207.998C176.086 206.959 172.312 207.053 168.829 208.266C168.374 208.391 167.959 208.632 167.625 208.965C167.464 209.137 167.367 209.359 167.35 209.594C167.333 209.829 167.397 210.063 167.531 210.257C167.813 210.507 168.178 210.643 168.555 210.637C169.543 210.722 170.537 210.722 171.525 210.637C171.062 210.775 170.624 210.986 170.227 211.261C170.03 211.396 169.868 211.575 169.754 211.784C169.64 211.994 169.578 212.227 169.572 212.466C169.592 212.703 169.671 212.932 169.8 213.132C169.93 213.332 170.106 213.498 170.314 213.614C170.733 213.841 171.194 213.977 171.668 214.013C174.371 214.38 177.123 214.015 179.637 212.959C180.515 212.538 181.278 211.913 181.865 211.137C182.283 210.419 181.908 208.828 179.624 207.998Z" fill="#455A64"/>
<g opacity="0.1">
<path opacity="0.1" d="M177.216 217.246C177.216 217.427 176.592 217.607 175.762 217.632C174.932 217.657 174.289 217.539 174.277 217.358C174.264 217.177 174.901 216.996 175.737 216.965C176.573 216.934 177.216 217.058 177.216 217.246Z" fill="black"/>
</g>
<path d="M52.3099 192.099C51.9727 191.961 51.604 191.919 51.2444 191.977C50.8848 192.036 50.5484 192.192 50.2722 192.43C49.996 192.667 49.7907 192.976 49.679 193.323C49.5673 193.67 49.5535 194.041 49.6392 194.395C48.3912 193.827 46.7626 194.582 46.0637 195.805C45.7548 196.438 45.5748 197.125 45.5341 197.828C45.4934 198.531 45.5928 199.235 45.8266 199.899C45.3694 199.912 44.9275 200.065 44.5606 200.338C44.1938 200.611 43.9198 200.991 43.776 201.425C43.6322 201.859 43.6255 202.327 43.7568 202.765C43.8881 203.203 44.1511 203.59 44.5099 203.873C43.9769 203.841 43.45 204.002 43.0258 204.326C42.6016 204.651 42.3084 205.117 42.2 205.64C42.0917 206.163 42.1753 206.707 42.4356 207.174C42.696 207.64 43.1156 207.997 43.6176 208.179C43.0701 208.58 42.6783 209.158 42.5087 209.816C42.3392 210.473 42.4024 211.169 42.6876 211.785C42.9728 212.401 43.4624 212.899 44.0733 213.195C44.6841 213.491 45.3786 213.566 46.0387 213.408C46.0551 213.944 46.2093 214.467 46.4864 214.925C46.7635 215.384 47.1542 215.764 47.6207 216.028C48.0873 216.292 48.614 216.431 49.1501 216.433C49.6862 216.434 50.2135 216.297 50.6813 216.035C51.085 216.6 51.6072 217.069 52.2115 217.411C52.8157 217.753 53.4874 217.958 54.1794 218.013C54.8713 218.067 55.5669 217.97 56.2173 217.728C56.8677 217.485 57.4573 217.103 57.9446 216.609C58.8513 217.275 59.9401 217.647 61.0646 217.676C62.1691 217.62 63.2986 216.709 63.1987 215.611C64.1971 215.948 65.3016 216.235 66.2813 215.848C67.261 215.461 67.885 214.095 67.1861 213.308C67.6308 213.365 68.0823 213.326 68.5111 213.196C68.9399 213.065 69.3361 212.845 69.6739 212.55C70.0116 212.256 70.2831 211.893 70.4706 211.486C70.6581 211.079 70.7572 210.636 70.7616 210.188C71.2269 210.374 71.7373 210.415 72.2263 210.307C72.7153 210.198 73.1604 209.945 73.5037 209.58C73.847 209.215 74.0726 208.756 74.1511 208.261C74.2296 207.766 74.1574 207.259 73.944 206.806C75.1546 206.344 75.5414 204.71 75.0547 203.511C74.568 202.313 73.4698 201.49 72.3778 200.797C72.7544 200.252 72.9679 199.611 72.9931 198.95C73.0184 198.288 72.8543 197.632 72.5202 197.061C72.1861 196.489 71.6959 196.024 71.107 195.721C70.518 195.418 69.8549 195.289 69.1954 195.35C69.3419 194.8 69.3043 194.217 69.0882 193.691C68.8721 193.165 68.4894 192.724 67.9989 192.435C67.5083 192.147 66.9368 192.028 66.3719 192.096C65.807 192.163 65.2798 192.414 64.871 192.81C64.8577 192.374 64.7464 191.947 64.5456 191.56C64.3447 191.172 64.0593 190.835 63.7106 190.574C63.3618 190.312 62.9586 190.132 62.5309 190.047C62.1031 189.962 61.6617 189.974 61.2394 190.083C60.7531 190.332 60.2274 190.494 59.6856 190.563C58.9368 190.563 58.369 189.896 57.6701 189.646C57.3948 189.564 57.1053 189.542 56.8206 189.58C56.5359 189.617 56.2624 189.715 56.0179 189.866C55.7735 190.016 55.5636 190.217 55.4021 190.455C55.2406 190.692 55.131 190.961 55.0805 191.244C55.0664 191.115 55.0258 190.99 54.9612 190.877C54.8966 190.765 54.8094 190.666 54.7051 190.589C54.6008 190.512 54.4816 190.457 54.3551 190.428C54.2286 190.399 54.0974 190.396 53.9698 190.42C53.7135 190.484 53.4783 190.613 53.2878 190.796C53.0973 190.979 52.9581 191.209 52.884 191.462C52.7383 191.968 52.6855 192.497 52.728 193.022" fill="#FF725E"/>
<path d="M51.9418 207.355C52.0042 207.355 52.5658 211.929 53.1898 217.577C53.8138 223.224 54.2631 227.816 54.2007 227.823C54.1383 227.829 53.5767 223.255 52.9527 217.602C52.3287 211.948 51.8856 207.362 51.9418 207.355Z" fill="#263238"/>
<path d="M52.7593 214.032C52.1129 213.367 51.5184 212.654 50.9809 211.898C50.3865 211.187 49.8502 210.43 49.3772 209.633C50.0271 210.291 50.6258 210.998 51.1681 211.748C51.7606 212.464 52.2928 213.228 52.7593 214.032Z" fill="#263238"/>
<path d="M56.0475 201.134C56.1099 201.134 56.372 207.099 56.634 214.456C56.8961 221.813 57.0584 227.785 57.0022 227.785C56.946 227.785 56.6777 221.826 56.4156 214.463C56.1536 207.099 55.9913 201.14 56.0475 201.134Z" fill="#263238"/>
<path d="M59.3174 201.415C59.3308 201.504 59.3308 201.594 59.3174 201.683C59.3174 201.877 59.3174 202.133 59.3174 202.445C59.3174 203.137 59.2737 204.092 59.2363 205.265C59.1739 207.643 59.1053 210.925 59.0865 214.556C59.0678 218.188 59.0865 221.47 59.1677 223.848C59.1677 225.015 59.2113 225.969 59.2301 226.662C59.2301 226.974 59.2301 227.23 59.2301 227.43C59.2435 227.519 59.2435 227.609 59.2301 227.698C59.2106 227.61 59.2002 227.52 59.1989 227.43C59.1989 227.23 59.1989 226.98 59.1489 226.668C59.1115 226.001 59.0678 225.04 59.0241 223.848C58.9368 221.47 58.8681 218.188 58.8806 214.55C58.8931 210.912 58.9867 207.636 59.0928 205.259C59.1427 204.067 59.1989 203.106 59.2425 202.445L59.28 201.677C59.2831 201.589 59.2957 201.501 59.3174 201.415Z" fill="#263238"/>
<path d="M60.6963 210.176C60.5878 210.757 60.3605 211.309 60.0287 211.798C59.7562 212.322 59.3805 212.784 58.9242 213.159C58.8805 213.115 59.3547 212.503 59.8415 211.686C60.3282 210.869 60.6402 210.151 60.6963 210.176Z" fill="#263238"/>
<path d="M65.3578 205.24C65.3649 205.314 65.3649 205.39 65.3578 205.464L65.2205 206.12L64.6963 208.497C64.2533 210.513 63.6667 213.296 63.0864 216.378C62.5061 219.461 62.0381 222.275 61.7136 224.309C61.5576 225.301 61.4328 226.119 61.333 226.718C61.2893 226.986 61.2518 227.198 61.2269 227.373C61.2019 227.548 61.1832 227.598 61.1707 227.598C61.1638 227.521 61.1638 227.444 61.1707 227.367L61.2394 226.705C61.3018 226.138 61.4078 225.308 61.5514 224.284C61.8384 222.244 62.2752 219.43 62.8618 216.341C63.4483 213.252 64.0536 210.469 64.5341 208.466C64.7712 207.461 64.9771 206.656 65.1581 206.095C65.2267 205.839 65.2829 205.627 65.3328 205.471C65.3307 205.393 65.3391 205.315 65.3578 205.24Z" fill="#263238"/>
<path d="M67.2236 209.901C66.6934 210.532 66.1064 211.113 65.4701 211.636C64.8923 212.215 64.266 212.743 63.5981 213.215C64.1311 212.585 64.7178 212.002 65.3516 211.474C65.9304 210.898 66.5566 210.372 67.2236 209.901Z" fill="#263238"/>
<path d="M64.4654 209.04C64.1257 208.616 63.8406 208.15 63.6168 207.655C63.3296 207.192 63.1071 206.693 62.9553 206.17C63.2951 206.594 63.5802 207.06 63.804 207.555C64.09 208.018 64.3124 208.518 64.4654 209.04Z" fill="#263238"/>
<path d="M73.9126 197.041C73.8454 196.36 74.0227 195.679 74.4126 195.117C74.8025 194.556 75.3796 194.151 76.0404 193.977C76.121 194.659 75.949 195.348 75.5571 195.912C75.1651 196.476 74.5802 196.878 73.9126 197.041Z" fill="#FF725E"/>
<path d="M74.5867 198.432C75.2107 199.449 77.2262 199.68 78.418 199.056C77.9807 198.481 77.3396 198.096 76.6268 197.98C75.914 197.864 75.1838 198.026 74.5867 198.432Z" fill="#FF725E"/>
<path d="M99.116 210.394L107.103 200.08L113.056 199.144L122.117 189.759L138.565 193.303L149.061 210.394H99.116Z" fill="#E0E0E0"/>
<path d="M107.103 200.079L116.925 200.547L113.056 199.143L107.103 200.079Z" fill="#EBEBEB"/>
<path d="M122.117 189.759L130.815 195.749L138.565 193.303L122.117 189.759Z" fill="#EBEBEB"/>
<path d="M130.815 195.749L132.076 210.151L149.061 210.394L138.566 193.303L130.815 195.749Z" fill="#F5F5F5"/>
<path d="M107.103 200.079L118.441 207.405L116.925 200.547L107.103 200.079Z" fill="#F5F5F5"/>
<path d="M154.209 210.425C154.209 210.513 141.28 210.588 125.336 210.588C109.393 210.588 96.4578 210.513 96.4578 210.425C96.4578 210.338 109.381 210.263 125.336 210.263C141.292 210.263 154.209 210.332 154.209 210.425Z" fill="#263238"/>
<path d="M277.867 194.825L277.58 194.613L276.75 193.952L273.599 191.387L262.08 181.934H262.167L222.618 186.614L216.378 187.344H216.453L192.897 204.878L181.384 218.525L178.177 222.269L177.334 223.249C177.141 223.467 177.035 223.573 177.035 223.573L177.303 223.224L178.121 222.219L181.272 218.413L192.735 204.685L216.253 187.107H216.291H216.334L222.574 186.376L262.136 181.778H262.186L262.223 181.809L273.68 191.344L276.8 193.958L277.605 194.644C277.78 194.738 277.867 194.825 277.867 194.825Z" fill="#263238"/>
<path d="M300.431 246.243C300.431 246.33 235.76 246.405 156.006 246.405C76.2527 246.405 11.5688 246.33 11.5688 246.243C11.5688 246.155 76.2215 246.081 156.006 246.081C235.791 246.081 300.431 246.149 300.431 246.243Z" fill="#263238"/>
<path d="M253.207 296.4C253.207 296.487 209.683 296.562 156.006 296.562C102.33 296.562 58.7932 296.462 58.7932 296.4C58.7932 296.338 102.336 296.213 156 296.213C209.664 296.213 253.207 296.288 253.207 296.4Z" fill="#263238"/>
<path d="M291.495 28.6041C291.495 28.6415 290.871 28.3857 289.661 28.1236C287.982 27.7554 286.252 27.6878 284.55 27.9239C282.031 28.2639 279.654 29.2916 277.68 30.8941C275.262 32.8716 273.556 35.5839 272.819 38.6193C272.819 38.6193 272.819 38.6754 272.819 38.7066L272.682 39.2557L272.47 38.7316C271.284 35.8514 269.251 33.3991 266.641 31.6991C264.499 30.3072 262.034 29.4906 259.484 29.3279C257.775 29.2061 256.057 29.3642 254.399 29.7959C253.225 30.1017 252.608 30.3762 252.595 30.3388C252.737 30.2565 252.885 30.1856 253.038 30.1266C253.468 29.9406 253.91 29.7842 254.361 29.6586C256.436 29.0475 258.618 28.8878 260.76 29.1902C262.902 29.4927 264.954 30.2503 266.779 31.4121C269.461 33.1381 271.549 35.6448 272.763 38.5943H272.407V38.5007C273.156 35.3895 274.911 32.6124 277.399 30.6009C279.454 28.9629 281.932 27.9435 284.544 27.6618C286.277 27.4467 288.035 27.5546 289.729 27.9801C290.187 28.0929 290.637 28.2346 291.077 28.4044C291.221 28.4624 291.36 28.5291 291.495 28.6041Z" fill="#263238"/>
<path d="M193.328 50.3882C193.07 50.7186 192.795 51.0352 192.504 51.3367C191.761 52.195 191.087 53.111 190.489 54.076C188.515 57.261 187.477 60.937 187.493 64.684V64.8213H187.119C186.531 61.155 184.814 57.7633 182.208 55.1181C181.108 54.0426 179.911 53.0713 178.633 52.2165C178.737 52.2471 178.836 52.2934 178.926 52.3538C179.2 52.4929 179.467 52.6471 179.725 52.8155C180.692 53.4149 181.592 54.1179 182.408 54.9122C183.626 56.0934 184.661 57.45 185.478 58.937C186.495 60.7555 187.175 62.7425 187.487 64.8026L187.119 64.8338V64.6965C187.087 60.8752 188.172 57.1277 190.239 53.9138C190.863 52.9495 191.578 52.0469 192.373 51.2181C192.648 50.9248 192.891 50.7189 193.047 50.5941C193.129 50.5105 193.223 50.4409 193.328 50.3882Z" fill="#263238"/>
<path d="M138.297 18.3581C138.297 18.3581 137.935 18.2582 137.28 18.1209C136.36 17.9339 135.414 17.9064 134.484 18.0398C133.11 18.2294 131.814 18.7952 130.74 19.6747C129.426 20.752 128.5 22.2286 128.101 23.8805V23.9304L127.957 24.4795L127.745 23.9553C127.099 22.3877 125.994 21.0521 124.575 20.124C123.419 19.3643 122.087 18.9132 120.707 18.8136C119.773 18.7408 118.833 18.8188 117.924 19.0445C117.3 19.2005 116.931 19.344 116.919 19.3128C116.906 19.2816 116.994 19.2566 117.156 19.1817C117.392 19.0688 117.636 18.9749 117.886 18.9009C119.03 18.5541 120.236 18.4582 121.42 18.6197C122.605 18.7813 123.741 19.1964 124.75 19.8369C126.242 20.7896 127.404 22.18 128.076 23.8181H127.727V23.7681C128.144 22.0422 129.126 20.505 130.516 19.4001C131.459 18.6486 132.564 18.1279 133.744 17.8798C134.924 17.6317 136.146 17.663 137.311 17.9712C137.563 18.0347 137.809 18.1182 138.048 18.2208C138.216 18.3019 138.303 18.3456 138.297 18.3581Z" fill="#263238"/>
<path d="M151.707 186.108L152.031 186.027C152.55 185.154 153.279 184.425 154.15 183.904C155.022 183.383 156.009 183.088 157.023 183.044C159.074 182.987 161.067 183.727 162.583 185.11C163.638 186.046 164.455 187.206 165.529 188.136C166.602 189.066 168.025 189.758 169.379 189.471C169.547 189.983 168.586 190.289 168.649 190.825C168.679 190.951 168.747 191.064 168.845 191.149C168.942 191.234 169.063 191.286 169.191 191.3C169.567 191.331 169.945 191.331 170.321 191.3C170.51 191.286 170.698 191.332 170.86 191.431C171.022 191.529 171.15 191.675 171.226 191.849C171.256 192.033 171.239 192.222 171.176 192.398C170.814 194.02 170.046 195.523 168.942 196.766C168.382 197.381 167.682 197.852 166.9 198.136C166.119 198.421 165.28 198.512 164.455 198.401C163.157 198.157 162.065 197.302 161.029 196.473L155.145 191.761C154.213 191.071 153.374 190.264 152.649 189.359C151.92 188.441 151.582 187.273 151.707 186.108Z" fill="#263238"/>
<path d="M152.936 186.439C152.142 185.773 151.201 185.306 150.191 185.078C149.687 184.97 149.167 184.963 148.661 185.06C148.155 185.156 147.674 185.354 147.245 185.64C146.524 186.274 145.914 187.025 145.442 187.861C145.204 188.278 144.885 188.642 144.503 188.933C144.122 189.223 143.685 189.434 143.221 189.552C143.053 189.555 142.89 189.607 142.753 189.702C142.534 189.908 142.69 190.326 142.958 190.432C143.244 190.525 143.552 190.525 143.838 190.432C143.357 190.99 142.694 191.359 141.966 191.474C142.06 191.821 142.287 192.116 142.599 192.295C142.91 192.474 143.279 192.522 143.626 192.429C143.307 193.53 143.124 194.666 143.083 195.811C143.046 196.967 143.437 198.096 144.182 198.981C145.043 199.911 146.434 200.429 146.809 201.633" fill="#263238"/>
<path d="M161.198 226.83L145.873 226.63L147.582 213.583C147.582 213.583 146.534 213.358 146.465 207.686C146.397 202.014 146.135 192.36 146.135 192.36C149.362 190.975 152.901 190.477 156.386 190.915C159.871 191.354 163.175 192.715 165.959 194.856L166.802 195.48L161.198 226.83Z" fill="#FFBE9D"/>
<path d="M165.023 202.482C165.117 202.444 168.923 201.327 168.798 205.209C168.673 209.09 164.805 208.166 164.798 208.054C164.792 207.942 165.023 202.482 165.023 202.482Z" fill="#FFBE9D"/>
<path d="M146.796 201.67C146.696 201.633 143.239 200.697 143.364 204.578C143.489 208.46 147.358 207.536 147.358 207.424C147.358 207.311 146.796 201.67 146.796 201.67Z" fill="#FFBE9D"/>
<path d="M166.277 202.051C165.703 205.302 165.815 207.012 165.279 209.184C164.43 212.622 162.72 215.255 159.625 216.971C156.53 218.687 152.343 218.656 149.679 216.347C147.807 214.725 146.528 212.89 146.253 210.45C145.979 208.01 145.261 203.424 145.242 200.928C145.242 196.498 145.361 192.523 145.361 192.523L158.015 190.233L165.223 194.513L166.277 202.051Z" fill="#263238"/>
<path d="M153.223 218.931C153.929 219.202 154.696 219.271 155.438 219.13C156.194 219.103 156.927 218.87 157.56 218.456C157.529 218.357 156.593 218.65 155.401 218.775C154.209 218.899 153.236 218.831 153.223 218.931Z" fill="#263238"/>
<path d="M165.666 207.58C166.04 204.248 166.29 200.435 166.802 196.922C166.995 195.605 167.463 193.702 167.351 192.373C167.238 191.044 166.87 191.449 166.277 190.245C165.541 188.735 162.733 187.749 161.086 187.4C159.438 187.05 159.214 185.646 157.966 186.776C157.503 186.08 156.84 185.543 156.064 185.234C155.289 184.926 154.437 184.861 153.624 185.049C152.81 185.237 152.073 185.668 151.511 186.285C150.949 186.903 150.589 187.677 150.478 188.504C150.023 188.073 149.438 187.804 148.815 187.738C148.192 187.672 147.565 187.812 147.029 188.138C146.494 188.464 146.08 188.956 145.852 189.54C145.624 190.123 145.594 190.766 145.767 191.368C145.311 191.446 144.882 191.635 144.518 191.92C144.153 192.204 143.866 192.574 143.68 192.998C143.494 193.421 143.417 193.883 143.454 194.344C143.492 194.805 143.643 195.249 143.895 195.636C144.481 196.541 145.542 197.034 146.185 197.895C146.552 198.399 146.766 198.997 146.801 199.619C146.837 200.241 146.692 200.86 146.384 201.402" fill="#263238"/>
<path d="M149.361 206.887C149.239 208.04 149.39 209.205 149.801 210.289C150.212 211.372 150.871 212.345 151.726 213.127C151.115 212.181 150.581 211.188 150.128 210.157C149.461 208.416 149.473 206.881 149.361 206.887Z" fill="#455A64"/>
<path d="M147.657 204.048C147.31 205.033 147.227 206.092 147.414 207.119C147.601 208.147 148.052 209.108 148.724 209.907C148.319 208.987 147.997 208.033 147.763 207.056C147.451 205.427 147.769 204.048 147.657 204.048Z" fill="#455A64"/>
<path d="M163.6 190.638C162.685 189.077 161.304 187.842 159.651 187.107C158.824 186.749 157.917 186.618 157.023 186.727C156.129 186.837 155.28 187.183 154.565 187.731" fill="#263238"/>
<path d="M163.282 199.231C163.253 198.843 163.295 198.454 163.407 198.082C163.586 197.197 163.684 196.296 163.7 195.393C163.697 194.504 163.499 193.626 163.12 192.822C162.814 192.198 162.496 191.892 162.558 191.842C162.621 191.792 162.989 192.042 163.394 192.66C163.891 193.482 164.152 194.426 164.149 195.387C164.14 196.327 163.993 197.26 163.713 198.157C163.64 198.539 163.494 198.904 163.282 199.231Z" fill="#455A64"/>
<path d="M160.661 200.51C160.549 200.448 160.867 199.68 161.167 198.719C161.466 197.758 161.666 196.947 161.791 196.959C161.916 196.972 161.922 197.845 161.597 198.831C161.273 199.817 160.767 200.572 160.661 200.51Z" fill="#455A64"/>
<path d="M148.512 199.518C148.112 199.133 147.814 198.655 147.645 198.126C147.132 196.88 147 195.51 147.264 194.189C147.529 192.868 148.178 191.654 149.13 190.701C149.486 190.275 149.946 189.949 150.465 189.752C150.509 189.815 149.997 190.17 149.361 190.913C148.533 191.876 147.964 193.033 147.707 194.276C147.468 195.524 147.547 196.811 147.938 198.02C148.237 198.95 148.568 199.474 148.512 199.518Z" fill="#455A64"/>
<path d="M162.346 185.078C161.91 184.953 161.491 184.775 161.098 184.548C160.147 184.082 159.106 183.826 158.047 183.799C157.531 183.792 157.018 183.893 156.543 184.094C156.067 184.294 155.638 184.591 155.283 184.966C155.017 185.317 154.779 185.689 154.571 186.077C154.557 185.839 154.59 185.6 154.669 185.375C154.749 185.15 154.872 184.943 155.033 184.766C155.347 184.353 155.75 184.016 156.212 183.78C156.782 183.501 157.407 183.354 158.041 183.35C159.17 183.367 160.275 183.684 161.242 184.267C161.66 184.461 162.036 184.737 162.346 185.078Z" fill="#455A64"/>
<path d="M145.036 188.672C144.986 188.672 145.08 188.223 145.486 187.643C146.032 186.89 146.813 186.342 147.705 186.083C148.598 185.824 149.552 185.87 150.415 186.214C151.039 186.482 151.382 186.8 151.351 186.838C151.32 186.875 150.946 186.688 150.315 186.513C149.499 186.287 148.636 186.287 147.819 186.513C147.012 186.759 146.287 187.221 145.723 187.849C145.292 188.329 145.099 188.704 145.036 188.672Z" fill="#455A64"/>
<path d="M149.211 202.937C149.211 202.881 149.835 202.713 150.858 202.257C152.243 201.635 153.51 200.778 154.602 199.724L155.339 199.012L154.933 199.955C154.684 200.547 154.5 201.164 154.384 201.795C154.322 202.114 154.272 202.519 154.384 202.575C154.496 202.632 154.821 202.501 155.108 202.295C156.087 201.661 156.966 200.885 157.716 199.992L158.39 199.187L158.078 200.186C157.772 201.184 157.454 202.12 157.223 202.962L156.936 202.788C157.886 201.847 158.723 200.8 159.432 199.668C159.35 200.029 159.202 200.372 158.995 200.679C158.513 201.551 157.908 202.35 157.198 203.05L156.724 203.518L156.905 202.894C157.142 202.045 157.41 201.103 157.691 200.098L158.059 200.292C157.296 201.231 156.388 202.044 155.37 202.7C155.212 202.812 155.045 202.91 154.871 202.994C154.757 203.054 154.63 203.083 154.501 203.078C154.373 203.072 154.248 203.032 154.141 202.962C154.046 202.881 153.973 202.777 153.929 202.661C153.884 202.544 153.869 202.418 153.885 202.295C153.885 202.089 153.935 201.927 153.966 201.752C154.096 201.084 154.306 200.435 154.59 199.817L154.921 200.055C153.78 201.124 152.443 201.961 150.983 202.519C150.42 202.758 149.821 202.9 149.211 202.937Z" fill="#455A64"/>
<path d="M156.624 187.974C156.49 187.74 156.311 187.535 156.097 187.372C155.882 187.209 155.637 187.091 155.376 187.025C154.861 186.894 154.324 186.881 153.804 186.988C152.516 187.224 151.349 187.898 150.503 188.897C150.309 189.128 150.141 189.477 150.347 189.696C150.467 189.796 150.621 189.847 150.777 189.839C152.686 190.001 154.607 189.934 156.499 189.64" fill="#263238"/>
<path d="M124.307 260.619C124.307 260.619 112.676 253.968 108.807 254.18C105.281 254.373 101.537 255.428 99.8961 258.398C98.255 261.368 98.6481 265.811 100.52 268.501C102.392 271.19 121.443 286.416 121.68 287.04C121.917 287.664 129.199 296.294 143.988 296.362C158.677 296.431 166.889 296.537 168.149 294.64C169.41 292.743 170.227 272.295 170.227 272.295L124.307 260.619Z" fill="#455A64"/>
<path d="M192.816 247.023C190.32 244.733 186.445 244.876 183.032 245.775C179.288 246.767 170.308 256.714 170.308 256.714L166.439 295.576C174.083 293.08 178.377 282.884 180.093 280.182C180.454 279.614 194.395 259.958 195.356 256.813C196.317 253.668 195.256 249.319 192.816 247.023Z" fill="#455A64"/>
<path d="M122.853 244.907C122.853 244.907 122.947 232.246 125.518 228.059C128.089 223.872 129.886 222.824 133.711 222.35C137.536 221.875 146.852 221.395 146.852 221.395L163.513 222.537C163.513 222.537 177.422 222.331 177.422 225.963C177.422 226.63 172.287 243.154 172.287 274.148C172.287 274.454 174.851 275.277 173.31 278.778C171.145 283.683 163.831 293.448 150.921 293.448C140.313 293.448 128.663 288.344 127.708 280.912C126.753 273.48 130.285 251.871 130.285 251.871V244.608L122.853 244.907Z" fill="#FF725E"/>
<path d="M175.968 224.203C177.465 224.715 178.81 225.595 179.88 226.761C180.949 227.928 181.709 229.344 182.09 230.88C183.338 236.14 186.008 247.603 186.008 247.603L172.28 248.751C172.28 248.751 171.519 240.065 171.706 236.477C171.893 232.889 174.907 224.883 175.968 224.203Z" fill="#FF725E"/>
<path d="M134.478 258.336C134.428 258.247 134.394 258.15 134.378 258.049C134.316 257.825 134.241 257.55 134.154 257.219C133.967 256.489 133.705 255.441 133.399 254.137C132.775 251.528 131.982 247.897 131.184 243.916C130.385 239.935 129.755 236.259 129.393 233.607C129.212 232.278 129.093 231.198 129.031 230.45C129.031 230.113 128.987 229.826 128.968 229.589C128.954 229.489 128.954 229.388 128.968 229.289C128.999 229.384 129.02 229.483 129.031 229.582C129.062 229.819 129.099 230.1 129.149 230.437C129.249 231.18 129.405 232.253 129.611 233.557C130.029 236.197 130.703 239.835 131.483 243.841C132.263 247.847 133.049 251.46 133.605 254.074C133.873 255.322 134.091 256.396 134.229 257.194C134.297 257.531 134.354 257.818 134.397 258.043C134.433 258.138 134.46 258.236 134.478 258.336Z" fill="#263238"/>
<path d="M175.581 233.126C175.598 233.23 175.598 233.335 175.581 233.438C175.55 233.676 175.513 233.969 175.463 234.318C175.35 235.136 175.201 236.228 175.013 237.557C174.645 240.29 174.215 244.078 173.865 248.271C173.516 252.464 173.241 256.271 173.054 259.022C172.954 260.364 172.867 261.462 172.804 262.286C172.767 262.635 172.742 262.91 172.717 263.166C172.71 263.271 172.693 263.376 172.667 263.478C172.65 263.375 172.65 263.269 172.667 263.166C172.667 262.922 172.667 262.629 172.667 262.274C172.705 261.456 172.755 260.352 172.817 259.01C172.961 256.252 173.173 252.446 173.528 248.24C173.884 244.034 174.352 240.253 174.776 237.526C174.995 236.159 175.182 235.03 175.332 234.3L175.513 233.426C175.525 233.324 175.548 233.224 175.581 233.126Z" fill="#263238"/>
<path d="M149.71 282.453C149.397 282.486 149.081 282.486 148.768 282.453C148.4 282.45 148.034 282.423 147.67 282.372C147.185 282.331 146.704 282.26 146.228 282.16C145.644 282.059 145.067 281.921 144.5 281.748C143.848 281.561 143.207 281.34 142.578 281.087C139.68 279.911 137.092 278.083 135.015 275.745C134.553 275.19 134.104 274.678 133.767 274.148C133.414 273.674 133.091 273.178 132.8 272.663C132.549 272.245 132.322 271.814 132.12 271.371C131.949 271.046 131.803 270.708 131.683 270.36C131.556 270.074 131.453 269.778 131.377 269.474C131.446 269.443 131.876 270.722 132.999 272.544C133.299 273.046 133.629 273.529 133.985 273.992C134.374 274.531 134.791 275.05 135.233 275.546C137.305 277.821 139.848 279.618 142.684 280.812C143.345 281.062 143.963 281.324 144.556 281.492C145.111 281.672 145.675 281.82 146.247 281.935C148.368 282.403 149.716 282.379 149.71 282.453Z" fill="#263238"/>
<g opacity="0.3">
<path opacity="0.3" d="M135.72 273.362L132.762 266.741C132.997 267 133.287 267.202 133.612 267.332C133.936 267.462 134.286 267.516 134.634 267.49C135.364 261.98 135.614 257.812 133.224 252.795C134.31 262.417 130.46 272.139 126.267 280.351C127.558 280.407 129.237 277.78 129.805 276.607C130.373 275.434 131.483 274.154 132.688 274.61C133.667 274.978 134.223 276.401 135.246 276.214C135.514 276.134 135.75 275.969 135.916 275.744C136.083 275.519 136.172 275.246 136.169 274.966C136.14 274.404 135.987 273.857 135.72 273.362Z" fill="black"/>
</g>
<path d="M135.009 270.373C134.276 269.746 133.676 268.981 133.243 268.12C132.725 267.314 132.325 266.438 132.057 265.518C132.615 266.288 133.105 267.104 133.524 267.958C134.304 269.312 135.077 270.317 135.009 270.373Z" fill="#263238"/>
<path d="M172.287 275.041C172.256 275.167 172.21 275.288 172.149 275.402C172.043 275.64 171.918 275.995 171.688 276.426C171.08 277.655 170.36 278.825 169.535 279.92C168.316 281.552 166.892 283.02 165.298 284.288C161.382 287.462 156.539 289.276 151.501 289.455C149.461 289.545 147.418 289.371 145.423 288.937C144.082 288.655 142.77 288.248 141.505 287.72C141.049 287.545 140.718 287.358 140.487 287.252C140.365 287.205 140.25 287.142 140.144 287.065C140.27 287.098 140.394 287.142 140.512 287.196C140.756 287.283 141.093 287.446 141.548 287.602C144.722 288.787 148.104 289.315 151.489 289.155C156.455 288.941 161.224 287.156 165.111 284.057C166.694 282.806 168.119 281.367 169.354 279.77C170.189 278.695 170.932 277.551 171.575 276.351C171.819 275.933 171.968 275.59 172.093 275.365C172.145 275.25 172.21 275.141 172.287 275.041Z" fill="#263238"/>
<path d="M172.967 250.037C172.967 250.068 172.418 249.756 171.376 249.413C169.885 248.971 168.327 248.804 166.777 248.92C164.481 249.11 162.224 249.627 160.075 250.455C157.61 251.304 154.964 252.47 152.007 253.163C150.577 253.51 149.11 253.681 147.639 253.675C146.251 253.659 144.876 253.401 143.576 252.914C141.08 251.934 139.24 250.418 137.636 249.288C136.397 248.354 135.087 247.52 133.717 246.792C132.731 246.299 132.145 246.118 132.157 246.087C132.302 246.112 132.444 246.152 132.582 246.205C132.985 246.343 133.381 246.501 133.767 246.68C135.171 247.371 136.51 248.187 137.767 249.12C139.389 250.237 141.261 251.715 143.682 252.651C146.104 253.587 149.061 253.556 151.963 252.864C154.865 252.171 157.529 251.029 160.006 250.193C162.184 249.368 164.472 248.868 166.795 248.708C168.371 248.617 169.949 248.829 171.444 249.332C171.847 249.472 172.239 249.641 172.617 249.837C172.74 249.892 172.857 249.959 172.967 250.037Z" fill="white"/>
<path d="M124.263 244.876V258.068C124.263 258.068 120.931 266.442 119.646 271.484C118.36 276.526 115.034 289.343 115.034 289.343L119.646 293.442C119.646 293.442 127.683 277.98 129.73 272.85C130.974 269.734 131.957 266.52 132.669 263.241C133.161 261.148 133.466 259.016 133.58 256.87C133.623 253.962 131.333 244.876 131.333 244.876H124.263Z" fill="#FFBE9D"/>
<path d="M96.7201 296.051C96.7201 296.051 101.275 291.339 101.531 291.395C101.787 291.452 108.882 290.098 108.882 290.098L113.874 289.686L115.19 289.187L119.721 293.305C119.721 293.305 119.153 295.483 117.849 295.845C116.545 296.207 111.016 296.469 111.016 296.469L109.256 296.007L107.291 296.163C107.291 296.163 104.239 297.71 103.615 297.71C103.164 297.681 102.724 297.558 102.324 297.348C102.324 297.348 102.217 296.781 103.253 296.163L105.063 295.071L100.508 297.093L96.6826 296.987L96.7201 296.051Z" fill="#FFBE9D"/>
<path d="M110.754 293.586C110.754 293.635 110.242 293.585 109.45 293.779C108.413 294.011 107.401 294.337 106.423 294.752C105.439 295.154 104.489 295.636 103.584 296.194C102.885 296.618 102.504 296.949 102.467 296.911C102.73 296.544 103.066 296.234 103.453 296C104.339 295.378 105.294 294.859 106.298 294.453C107.297 294.025 108.345 293.723 109.418 293.554C109.859 293.454 110.318 293.465 110.754 293.586Z" fill="#EB996E"/>
<path d="M108.227 291.751C107.674 291.94 107.103 292.071 106.523 292.144C105.475 292.362 104.065 292.88 102.486 293.342L102.274 293.405H102.317C101.069 294.372 99.9461 295.277 99.1349 295.901C98.7187 296.278 98.2673 296.614 97.7871 296.905C98.1507 296.477 98.5539 296.084 98.9914 295.732C99.7652 295.039 100.863 294.091 102.111 293.118L102.33 293.049C103.673 292.605 105.04 292.235 106.423 291.938C107.018 291.824 107.621 291.761 108.227 291.751Z" fill="#EB996E"/>
<path d="M173.927 248.464L178.595 269.456L194.994 294.959L198.794 290.453L188.192 264.72L185.49 247.584L173.927 248.464Z" fill="#FFBE9D"/>
<path d="M213.845 295.507L205.178 290.459L197.808 290.16L194.994 294.858C194.994 294.858 195.855 296.05 198.457 296.156C201.059 296.262 203.224 296.156 203.224 296.156C203.224 296.156 207.018 297.997 207.78 297.454C208.235 297.141 208.752 296.928 209.296 296.83C209.296 296.83 212.004 298.44 212.416 297.579C212.747 297.017 213.238 296.567 213.826 296.287L213.845 295.507Z" fill="#FFBE9D"/>
<path d="M201.733 293.904C202.102 293.773 202.49 293.705 202.881 293.704C203.308 293.668 203.737 293.682 204.16 293.748C204.695 293.832 205.2 294.047 205.633 294.372C206.686 295.173 207.666 296.067 208.559 297.043C207.459 296.321 206.416 295.516 205.439 294.634C204.679 294.146 203.784 293.91 202.881 293.96C202.497 293.984 202.112 293.965 201.733 293.904Z" fill="#EB996E"/>
<path d="M202.719 292.032C202.868 291.982 203.025 291.963 203.181 291.976C203.6 291.97 204.018 292.01 204.429 292.095C205.781 292.406 207.069 292.951 208.235 293.704C209.608 294.547 210.794 295.377 211.711 295.888C212.628 296.4 213.215 296.656 213.196 296.7C212.632 296.582 212.093 296.371 211.599 296.076C210.644 295.614 209.427 294.828 208.067 293.973C206.926 293.239 205.683 292.678 204.379 292.307C203.374 292.032 202.719 292.032 202.719 292.032Z" fill="#EB996E"/>
<g opacity="0.3">
<path opacity="0.3" d="M172.286 275.041C171.865 278.132 170.432 280.998 168.212 283.19C164.518 286.803 161.248 289.068 156.218 290.26C151.189 291.452 144.306 291.208 140.93 287.296C140.93 287.296 149.735 290.79 157.073 288.407C168.68 284.644 172.286 275.041 172.286 275.041Z" fill="black"/>
</g>
</svg>
