<svg width="226" height="173" viewBox="0 0 226 173" fill="none" xmlns="http://www.w3.org/2000/svg">
<path d="M132.809 172.685C167.424 172.685 195.485 170.764 195.485 168.394C195.485 166.024 167.424 164.103 132.809 164.103C98.1937 164.103 70.1328 166.024 70.1328 168.394C70.1328 170.764 98.1937 172.685 132.809 172.685Z" fill="#B59B00"/>
<path d="M193.138 138.979C215.083 137.483 216.596 128.787 216.596 128.787C216.596 128.787 167.658 127.567 116.305 127.507C58.9908 127.44 3.23909 130.606 0.146028 134.15C-3.7486 138.608 71.5349 141.769 73.6517 139.597C75.3011 137.905 69.8027 136.742 64.3049 135.312C60.8528 134.413 67.8074 127.884 131.551 133.334C157.869 135.585 176.095 140.142 193.138 138.979Z" fill="#907B00"/>
<path d="M79.9904 135.771C84.8109 135.771 88.7187 135.177 88.7187 134.445C88.7187 133.713 84.8109 133.119 79.9904 133.119C75.17 133.119 71.2622 133.713 71.2622 134.445C71.2622 135.177 75.17 135.771 79.9904 135.771Z" fill="#907B00"/>
<path d="M197.959 117.865C197.964 121.388 197.644 124.904 197.003 128.37C185.239 128.147 169.072 127.882 151.021 127.705C150.46 124.454 150.18 121.162 150.184 117.865C150.184 97.228 160.879 80.4985 174.072 80.4985C187.266 80.4985 197.959 97.228 197.959 117.865Z" fill="#C8D9D2"/>
<path d="M61.3237 128.418C35.719 129.316 14.8878 130.798 5.45947 132.493C8.75896 127.377 20.155 118.404 34.5011 116.299C50.2805 113.981 59.2911 119.079 61.3237 128.418Z" fill="#C8D9D2"/>
<path d="M217.509 123.18C217.51 125.085 217.193 126.978 216.569 128.782H216.375H216.365C212.683 128.692 165.607 127.566 116.305 127.51C94.92 127.486 73.7525 127.914 55.4565 128.638C56.6703 126.708 59.3753 125.364 62.5181 125.364C64.0529 125.364 65.4869 125.685 66.6868 126.24C66.3542 124.282 66.69 122.272 67.6425 120.519C68.5949 118.766 70.1114 117.366 71.9585 116.536C73.8057 115.705 75.8813 115.49 77.8661 115.923C79.8509 116.356 81.635 117.413 82.944 118.932C83.0055 119.003 83.0655 119.075 83.1242 119.149C83.1608 119.076 83.1981 119.004 83.2361 118.932C86.8407 112.06 95.6635 107.201 105.976 107.201C117.224 107.201 126.699 112.978 129.564 120.849C131.23 119.325 133.412 118.454 135.695 118.401C137.978 118.349 140.2 119.12 141.937 120.567C146.121 116.396 152.476 113.735 159.592 113.735C167.433 113.735 174.35 116.969 178.457 121.886C179.171 112.42 187.629 104.947 197.958 104.947C208.756 104.941 217.509 113.105 217.509 123.18Z" fill="#B59B00"/>
<path d="M209.285 24.603H131.751C131.751 22.229 134.318 18.4054 146.781 23.0603C146.781 23.0603 147.1 17.6745 153.433 19.4603C160.896 21.5648 155.214 13.5046 161.654 12.2914C164.996 11.6622 166.832 13.4366 168.155 14.8984C168.791 6.57346 176.411 0 185.719 0C195.443 0 203.325 7.1757 203.325 16.0281C203.325 16.5711 203.295 17.1137 203.236 17.6536C204.231 16.4667 206.433 15.405 209.437 15.4737C209.505 15.4737 209.575 15.4764 209.644 15.4818C215.729 15.8226 215.383 24.603 209.285 24.603Z" fill="#E5F1EF"/>
<path d="M55.2318 83.2736C68.7227 83.2736 79.6593 65.3399 79.6593 43.2176C79.6593 21.0953 68.7227 3.16162 55.2318 3.16162C41.7408 3.16162 30.8042 21.0953 30.8042 43.2176C30.8042 65.3399 41.7408 83.2736 55.2318 83.2736Z" fill="#907B00"/>
<path d="M63.3606 14.9144C63.8094 16.7515 63.2481 18.5002 62.093 19.1321C61.5659 18.5169 61.1962 17.7882 61.0146 17.0061C60.5665 15.1691 61.1264 13.4216 62.2829 12.7891C62.8093 13.4044 63.1786 14.1328 63.3606 14.9144Z" fill="#B59B00"/>
<path d="M65.9139 19.5873C65.1296 20.6281 63.9462 21.1158 63.0977 20.8066C63.1938 20.2664 63.42 19.7561 63.7577 19.3178C64.542 18.2777 65.7247 17.79 66.5739 18.0992C66.4776 18.6392 66.2514 19.1492 65.9139 19.5873Z" fill="#B59B00"/>
<path d="M71.644 31.2217C71.3823 32.8048 70.3584 33.9978 69.2413 34.1265C69.0328 33.4766 68.9855 32.7876 69.1032 32.1163C69.3649 30.5332 70.3881 29.3409 71.5059 29.2129C71.714 29.8624 71.7613 30.5509 71.644 31.2217Z" fill="#B59B00"/>
<path d="M72.3651 35.269C71.3509 35.6988 70.2869 35.5654 69.8105 34.9941C70.113 34.6439 70.496 34.3685 70.9283 34.1904C71.9425 33.7613 73.0058 33.8947 73.4828 34.466C73.1805 34.8161 72.7975 35.0912 72.3651 35.269Z" fill="#B59B00"/>
<path d="M51.2008 21.1664C51.2008 22.6747 50.6105 23.9654 49.773 24.5003C48.9355 23.9661 48.3452 22.6747 48.3452 21.1664C48.3452 19.6581 48.9355 18.3674 49.773 17.8325C50.6105 18.3681 51.2008 19.6595 51.2008 21.1664Z" fill="#B59B00"/>
<path d="M47.6696 24.6307C48.4125 25.6762 48.6362 26.8484 48.322 27.6123C47.4776 27.6345 46.4323 27.0154 45.6895 25.9699C44.9466 24.9244 44.7229 23.7516 45.037 22.9883C45.8814 22.9668 46.9274 23.5852 47.6696 24.6307Z" fill="#B59B00"/>
<path d="M41.6672 58.986C42.7863 58.6579 43.8724 58.794 44.4516 59.2696C44.2376 59.977 43.4077 60.6755 42.2885 61.0036C41.1694 61.3317 40.0827 61.1956 39.5034 60.72C39.7181 60.012 40.5487 59.3141 41.6672 58.986Z" fill="#B59B00"/>
<path d="M46.7749 52.7899C46.7403 54.1439 46.1804 54.6168 45.4154 55.0803C44.676 54.5825 44.1727 54.0826 44.2099 52.7286C44.2472 51.3745 45.1938 49.3892 45.5694 49.0908C45.9222 49.3987 46.8073 51.4358 46.7749 52.7899Z" fill="#B59B00"/>
<path d="M51.0556 47.4002C51.0211 48.7542 50.4611 49.2271 49.6962 49.6906C48.9567 49.1928 48.4534 48.6929 48.4907 47.3389C48.528 45.9848 49.4745 43.9996 49.8501 43.7012C50.2029 44.009 51.0881 46.0462 51.0556 47.4002Z" fill="#B59B00"/>
<path d="M60.2735 89.222C60.2383 90.576 59.6784 91.0489 58.9141 91.5124C58.174 91.0139 57.6713 90.5147 57.7079 89.1607C57.7445 87.8066 58.6925 85.8214 59.068 85.5229C59.4208 85.8301 60.308 87.8673 60.2735 89.222Z" fill="#B59B00"/>
<path d="M51.7349 105.336C52.4391 106.503 52.2182 107.194 51.8219 107.98C50.9243 107.939 50.2284 107.774 49.5235 106.606C48.8186 105.439 48.5486 103.264 48.706 102.818C49.1728 102.898 51.03 104.168 51.7349 105.336Z" fill="#B59B00"/>
<path d="M30.8872 61.8123C31.5838 62.9838 31.3594 63.6729 30.9562 64.457C30.0587 64.4099 29.3641 64.2394 28.6682 63.068C27.9722 61.8965 27.7161 59.7192 27.8769 59.2739C28.3423 59.3568 30.1905 60.6401 30.8872 61.8123Z" fill="#B59B00"/>
<path d="M61.5203 93.211C60.8678 93.7971 60.3963 93.7567 59.8391 93.6193C59.7445 93.0669 59.7569 92.6202 60.4101 92.0341C61.0632 91.4481 62.4178 90.9906 62.7251 91.0237C62.7368 91.3214 62.1727 92.6263 61.5203 93.211Z" fill="#B59B00"/>
<path d="M52.7454 101.809C52.8614 102.709 52.4996 103.516 51.9169 103.759C51.698 103.438 51.5605 103.071 51.5158 102.689C51.3998 101.789 51.7609 100.982 52.3443 100.739C52.5628 101.06 52.7002 101.427 52.7454 101.809Z" fill="#B59B00"/>
<path d="M54.7764 128.67V10.7705" stroke="#B59B00" stroke-width="6" stroke-miterlimit="10"/>
<path d="M49.8286 23.3135V34.5237C49.8286 34.9737 49.9195 35.4192 50.096 35.835C50.2725 36.2507 50.5312 36.6284 50.8573 36.9466C51.1835 37.2648 51.5707 37.5171 51.9968 37.6893C52.4229 37.8614 52.8796 37.9499 53.3408 37.9499V37.9499C53.7216 37.95 54.0867 38.0977 54.356 38.3605C54.6253 38.6232 54.7766 38.9795 54.7768 39.3511" stroke="#B59B00" stroke-width="6" stroke-miterlimit="10"/>
<path d="M49.8286 50.6973V65.2481C49.8286 65.9778 50.1257 66.6776 50.6545 67.1935C51.1833 67.7094 51.9004 67.9993 52.6483 67.9993C53.2127 67.9993 53.754 68.218 54.1531 68.6074C54.5523 68.9967 54.7766 69.5248 54.7768 70.0755" stroke="#B59B00" stroke-width="6" stroke-miterlimit="10"/>
<path d="M50.3779 86.1968C50.3779 87.7158 51.4999 88.9479 52.8848 88.9479C53.9294 88.9479 54.7766 89.8776 54.7766 91.0241" stroke="#B59B00" stroke-width="6" stroke-miterlimit="10"/>
<path d="M45.4263 54.0649V58.092C45.4263 58.6664 45.6601 59.2173 46.0764 59.6235C46.4927 60.0296 47.0573 60.2578 47.6459 60.2578H48.326C48.724 60.258 49.1057 60.4123 49.3871 60.687C49.6686 60.9616 49.8268 61.334 49.827 61.7223" stroke="#B59B00" stroke-width="6" stroke-miterlimit="10"/>
<path d="M62.1065 17.7197V24.3329C62.1065 25.5457 61.6128 26.7088 60.7339 27.5663C59.855 28.4239 58.6629 28.9057 57.42 28.9057V28.9057C57.0727 28.9057 56.7289 28.9724 56.4081 29.1021C56.0874 29.2317 55.7959 29.4218 55.5504 29.6614C55.3049 29.901 55.1102 30.1854 54.9774 30.4984C54.8446 30.8115 54.7763 31.1469 54.7764 31.4857" stroke="#B59B00" stroke-width="6" stroke-miterlimit="10"/>
<path d="M48.3218 27.6128L49.1592 28.9493C49.5968 29.6464 49.8283 30.4479 49.8282 31.2653" stroke="#B59B00" stroke-width="6" stroke-miterlimit="10"/>
<path d="M58.9913 89.3589V95.0808C58.9913 95.9205 58.8023 96.7499 58.4379 97.5106C58.0734 98.2712 57.5424 98.9446 56.8821 99.4831L56.2193 100.022C55.7675 100.391 55.4041 100.852 55.1548 101.372C54.9055 101.893 54.7763 102.461 54.7764 103.035" stroke="#B59B00" stroke-width="6" stroke-miterlimit="10"/>
<path d="M63.1251 96.5542C63.1251 97.1708 62.8741 97.7621 62.4272 98.198C61.9804 98.634 61.3744 98.8789 60.7424 98.8789H57.5728" stroke="#B59B00" stroke-width="6" stroke-miterlimit="10" stroke-linecap="round"/>
<path d="M51.709 107.196V123.223C51.709 123.785 51.9376 124.323 52.3446 124.72C52.7515 125.117 53.3034 125.34 53.879 125.34V125.34C54.117 125.34 54.3453 125.433 54.5136 125.597C54.6819 125.761 54.7765 125.984 54.7765 126.216" stroke="#B59B00" stroke-width="6" stroke-miterlimit="10"/>
<path d="M33.864 108.652C43.3776 108.652 51.0899 99.2996 51.0899 87.7625C51.0899 76.2253 43.3776 66.8726 33.864 66.8726C24.3505 66.8726 16.6382 76.2253 16.6382 87.7625C16.6382 99.2996 24.3505 108.652 33.864 108.652Z" fill="#B59B00"/>
<path d="M39.4235 79.5922C39.7839 81.0661 39.4926 82.4841 38.7669 83.3134C38.6989 83.3887 38.6136 83.4474 38.518 83.4844C38.4223 83.5215 38.319 83.5359 38.2166 83.5266C38.1141 83.5173 38.0153 83.4844 37.9284 83.4308C37.8414 83.3771 37.7687 83.3041 37.7161 83.2177C37.4226 82.742 37.2071 82.2245 37.0775 81.6838C36.6294 79.8468 37.19 78.0993 38.3458 77.4668C38.8724 78.082 39.2418 78.8104 39.4235 79.5922Z" fill="#907B00"/>
<path d="M23.488 108.26C24.7377 109.384 25.2072 110.927 24.6825 111.939C23.9898 111.743 23.3547 111.389 22.8294 110.906C21.5804 109.782 21.1109 108.241 21.6357 107.228C22.3281 107.424 22.9629 107.778 23.488 108.26Z" fill="#907B00"/>
<path d="M21.6232 111.837C22.5518 111.886 23.3016 112.376 23.4424 112.983C23.08 113.136 22.6856 113.203 22.2915 113.178C21.3636 113.129 20.6145 112.639 20.4736 112.033C20.8357 111.88 21.2296 111.813 21.6232 111.837Z" fill="#B59B00"/>
<path d="M42.5957 84.3299C42.1124 85.5317 41.0954 86.2984 40.1937 86.2121C40.1446 85.6659 40.2293 85.1161 40.4409 84.6081C40.9242 83.4063 41.9412 82.639 42.8429 82.7259C42.8916 83.2721 42.8069 83.8218 42.5957 84.3299Z" fill="#907B00"/>
<path d="M28.9108 77.3487C29.6357 78.5047 29.4286 79.1985 29.044 79.9914C28.1465 79.9652 27.4471 79.8116 26.7221 78.6562C25.9972 77.5009 25.6865 75.3304 25.8384 74.8838C26.3065 74.9538 28.1858 76.1934 28.9108 77.3487Z" fill="#907B00"/>
<path d="M31.7889 77.164C31.4893 78.1744 30.9742 78.4183 30.308 78.6177C29.8544 78.1024 29.5803 77.6315 29.8799 76.6237C30.1796 75.6159 31.2918 74.3111 31.6336 74.1602C31.8352 74.4593 32.0886 76.1562 31.7889 77.164Z" fill="#907B00"/>
<path d="M33.3384 85.916V129.681" stroke="#907B00" stroke-width="6" stroke-miterlimit="10" stroke-linecap="round"/>
<path d="M38.2175 84.5684V89.5002C38.2177 91.2515 37.5594 92.9421 36.3672 94.2514L34.7517 96.0258C33.8411 97.0262 33.3383 98.3176 33.3384 99.6555" stroke="#907B00" stroke-width="6" stroke-miterlimit="10" stroke-linecap="round"/>
<path d="M24.1089 111.103C24.7485 112.019 25.6078 112.768 26.6121 113.286C27.6163 113.804 28.7351 114.075 29.8711 114.075H30.8784C31.5303 114.075 32.1556 114.328 32.6169 114.777C33.0781 115.227 33.3376 115.837 33.3384 116.473" stroke="#907B00" stroke-width="6" stroke-miterlimit="10" stroke-linecap="round"/>
<path d="M40.3443 86.9922V88.1374C40.3444 88.2566 40.3204 88.3747 40.2737 88.4849C40.227 88.595 40.1585 88.6952 40.0722 88.7795C39.9858 88.8638 39.8833 88.9307 39.7704 88.9764C39.6575 89.022 39.5365 89.0455 39.4143 89.0455H38.9476C38.7629 89.0455 38.5857 89.1171 38.455 89.2446C38.3244 89.3721 38.251 89.545 38.251 89.7252" stroke="#907B00" stroke-width="6" stroke-miterlimit="10" stroke-linecap="round"/>
<path d="M29.9438 79.9541V89.4088C29.9438 89.8966 30.1424 90.3644 30.4959 90.7094C30.8493 91.0544 31.3287 91.2483 31.8287 91.2485C32.2288 91.2485 32.6126 91.4035 32.8956 91.6796C33.1787 91.9556 33.3377 92.33 33.3379 92.7204" stroke="#907B00" stroke-width="6" stroke-miterlimit="10" stroke-linecap="round"/>
<path d="M37.6406 108.271V108.952C37.6406 109.484 37.4241 109.994 37.0386 110.37C36.6532 110.746 36.1304 110.958 35.5853 110.958H34.5179C34.2053 110.958 33.9056 111.079 33.6845 111.295C33.4635 111.51 33.3394 111.803 33.3394 112.108" stroke="#907B00" stroke-width="6" stroke-miterlimit="10" stroke-linecap="round"/>
<path d="M28.7236 112.15C28.7236 112.663 28.9322 113.154 29.3036 113.517C29.6749 113.879 30.1786 114.082 30.7037 114.082" stroke="#907B00" stroke-width="6" stroke-miterlimit="10" stroke-linecap="round"/>
<path d="M27.8306 81.8262V83.8963C27.8306 84.2357 27.9688 84.5613 28.2148 84.8013C28.4608 85.0414 28.7944 85.1762 29.1424 85.1762V85.1762C29.2477 85.1759 29.352 85.1958 29.4494 85.235C29.5467 85.2741 29.6352 85.3316 29.7097 85.4043C29.7842 85.4769 29.8433 85.5632 29.8835 85.6581C29.9236 85.7531 29.9442 85.8549 29.9439 85.9576" stroke="#907B00" stroke-width="6" stroke-miterlimit="10" stroke-linecap="round"/>
<path d="M111.977 108.016C125.468 108.016 136.404 90.0821 136.404 67.9598C136.404 45.8375 125.468 27.9038 111.977 27.9038C98.4859 27.9038 87.5493 45.8375 87.5493 67.9598C87.5493 90.0821 98.4859 108.016 111.977 108.016Z" fill="#907B00"/>
<path d="M120.106 39.6566C120.555 41.4936 119.993 43.2424 118.838 43.8743C118.311 43.2591 117.941 42.5304 117.76 41.7483C117.312 39.9112 117.872 38.1638 119.028 37.5312C119.554 38.1466 119.924 38.875 120.106 39.6566Z" fill="#B59B00"/>
<path d="M122.659 44.3305C121.875 45.3713 120.691 45.859 119.843 45.5498C119.939 45.0095 120.165 44.4993 120.503 44.061C121.287 43.0209 122.47 42.5331 123.319 42.8423C123.223 43.3823 122.997 43.8923 122.659 44.3305Z" fill="#B59B00"/>
<path d="M128.39 55.9639C128.128 57.547 127.104 58.74 125.987 58.8687C125.778 58.2187 125.731 57.5298 125.849 56.8585C126.11 55.2754 127.134 54.0831 128.251 53.9551C128.46 54.6046 128.507 55.2931 128.39 55.9639Z" fill="#B59B00"/>
<path d="M129.11 60.0112C128.096 60.441 127.032 60.3076 126.556 59.7363C126.858 59.3861 127.241 59.1107 127.673 58.9326C128.688 58.5035 129.751 58.6369 130.228 59.2081C129.926 59.5582 129.543 59.8334 129.11 60.0112Z" fill="#B59B00"/>
<path d="M107.946 45.9091C107.946 47.4174 107.356 48.7081 106.518 49.243C105.681 48.7088 105.09 47.4174 105.09 45.9091C105.09 44.4008 105.681 43.1101 106.518 42.5752C107.356 43.1107 107.946 44.4021 107.946 45.9091Z" fill="#B59B00"/>
<path d="M104.414 49.3734C105.157 50.4189 105.381 51.591 105.067 52.355C104.222 52.3772 103.177 51.7581 102.434 50.7126C101.691 49.6671 101.467 48.4943 101.782 47.731C102.626 47.7095 103.672 48.3279 104.414 49.3734Z" fill="#B59B00"/>
<path d="M98.4123 83.7282C99.5315 83.4001 100.617 83.5362 101.197 84.0118C100.983 84.7191 100.153 85.4177 99.0337 85.7458C97.9145 86.0739 96.8278 85.9378 96.2485 85.4622C96.4633 84.7542 97.2938 84.0563 98.4123 83.7282Z" fill="#B59B00"/>
<path d="M103.52 77.5321C103.485 78.8861 102.926 79.359 102.161 79.8225C101.421 79.3247 100.918 78.8248 100.955 77.4708C100.992 76.1167 101.939 74.1314 102.314 73.833C102.667 74.1409 103.552 76.178 103.52 77.5321Z" fill="#B59B00"/>
<path d="M107.801 72.1424C107.767 73.4964 107.207 73.9693 106.442 74.4328C105.702 73.935 105.199 73.4351 105.236 72.0811C105.274 70.727 106.22 68.7418 106.596 68.4434C106.949 68.7512 107.834 70.7883 107.801 72.1424Z" fill="#B59B00"/>
<path d="M117.019 113.965C116.984 115.319 116.424 115.792 115.66 116.256C114.92 115.757 114.417 115.258 114.454 113.904C114.49 112.55 115.438 110.565 115.814 110.266C116.166 110.573 117.054 112.61 117.019 113.965Z" fill="#B59B00"/>
<path d="M108.48 130.078C109.184 131.246 108.963 131.936 108.567 132.723C107.669 132.682 106.974 132.516 106.269 131.349C105.564 130.182 105.294 128.007 105.451 127.561C105.918 127.641 107.775 128.911 108.48 130.078Z" fill="#B59B00"/>
<path d="M87.6328 86.5545C88.3294 87.7259 88.105 88.4151 87.7018 89.1992C86.8043 89.1521 86.1097 88.9816 85.4138 87.8101C84.7178 86.6387 84.4617 84.4614 84.6226 84.0161C85.0879 84.099 86.9361 85.3823 87.6328 86.5545Z" fill="#B59B00"/>
<path d="M118.265 117.953C117.613 118.539 117.141 118.498 116.584 118.361C116.49 117.809 116.502 117.362 117.155 116.776C117.808 116.19 119.163 115.732 119.47 115.765C119.482 116.063 118.918 117.368 118.265 117.953Z" fill="#B59B00"/>
<path d="M109.491 126.551C109.607 127.451 109.245 128.258 108.662 128.501C108.443 128.18 108.306 127.814 108.261 127.431C108.145 126.531 108.506 125.725 109.089 125.481C109.308 125.802 109.445 126.169 109.491 126.551Z" fill="#B59B00"/>
<path d="M111.521 153.412V35.5127" stroke="#B59B00" stroke-width="6" stroke-miterlimit="10"/>
<path d="M106.573 48.0557V59.2659C106.573 59.7159 106.664 60.1614 106.841 60.5772C107.017 60.9929 107.276 61.3706 107.602 61.6888C107.928 62.0069 108.315 62.2593 108.741 62.4314C109.168 62.6036 109.624 62.6921 110.085 62.692V62.692C110.466 62.6922 110.831 62.8399 111.101 63.1026C111.37 63.3654 111.521 63.7217 111.521 64.0932" stroke="#B59B00" stroke-width="6" stroke-miterlimit="10"/>
<path d="M106.573 75.4395V89.9903C106.573 90.72 106.87 91.4197 107.399 91.9357C107.928 92.4516 108.645 92.7415 109.393 92.7415C109.957 92.7415 110.499 92.9602 110.898 93.3496C111.297 93.7389 111.521 94.267 111.521 94.8177" stroke="#B59B00" stroke-width="6" stroke-miterlimit="10"/>
<path d="M107.123 110.94C107.123 112.459 108.244 113.691 109.629 113.691C110.674 113.691 111.521 114.621 111.521 115.767" stroke="#B59B00" stroke-width="6" stroke-miterlimit="10"/>
<path d="M102.172 78.8071V82.8342C102.172 83.4086 102.406 83.9595 102.822 84.3657C103.238 84.7718 103.803 85 104.392 85H105.072C105.47 85.0002 105.851 85.1545 106.133 85.4291C106.414 85.7037 106.572 86.0762 106.573 86.4645" stroke="#B59B00" stroke-width="6" stroke-miterlimit="10"/>
<path d="M118.852 42.4619V49.0751C118.852 50.2879 118.358 51.451 117.479 52.3085C116.6 53.1661 115.408 53.6478 114.165 53.6478V53.6478C113.818 53.6478 113.474 53.7146 113.153 53.8443C112.832 53.9739 112.541 54.164 112.296 54.4036C112.05 54.6432 111.855 54.9276 111.723 55.2406C111.59 55.5536 111.521 55.8891 111.521 56.2279" stroke="#B59B00" stroke-width="6" stroke-miterlimit="10"/>
<path d="M105.066 52.355L105.904 53.6915C106.341 54.3886 106.573 55.1901 106.573 56.0075" stroke="#B59B00" stroke-width="6" stroke-miterlimit="10"/>
<path d="M115.736 114.101V119.823C115.736 120.663 115.547 121.492 115.183 122.253C114.819 123.013 114.287 123.687 113.627 124.225L112.964 124.764C112.513 125.133 112.149 125.594 111.9 126.114C111.651 126.635 111.521 127.203 111.521 127.777" stroke="#B59B00" stroke-width="6" stroke-miterlimit="10"/>
<path d="M119.87 121.296C119.87 121.912 119.619 122.504 119.172 122.94C118.726 123.376 118.119 123.621 117.488 123.621H114.318" stroke="#B59B00" stroke-width="6" stroke-miterlimit="10" stroke-linecap="round"/>
<path d="M108.455 131.938V147.965C108.455 148.527 108.683 149.065 109.09 149.463C109.497 149.86 110.049 150.083 110.625 150.083V150.083C110.863 150.083 111.091 150.175 111.259 150.339C111.428 150.503 111.522 150.726 111.522 150.958" stroke="#B59B00" stroke-width="6" stroke-miterlimit="10"/>
<path d="M90.6096 133.395C100.123 133.395 107.835 124.042 107.835 112.505C107.835 100.967 100.123 91.6147 90.6096 91.6147C81.0961 91.6147 73.3838 100.967 73.3838 112.505C73.3838 124.042 81.0961 133.395 90.6096 133.395Z" fill="#B59B00"/>
<path d="M96.1691 104.334C96.5295 105.808 96.2382 107.226 95.5125 108.056C95.4445 108.131 95.3592 108.19 95.2636 108.227C95.1679 108.264 95.0646 108.278 94.9622 108.269C94.8597 108.259 94.7609 108.227 94.674 108.173C94.587 108.119 94.5143 108.046 94.4617 107.96C94.1682 107.484 93.9527 106.967 93.8231 106.426C93.375 104.589 93.9356 102.842 95.0914 102.209C95.618 102.824 95.9874 103.553 96.1691 104.334Z" fill="#907B00"/>
<path d="M80.2336 133.003C81.4833 134.127 81.9528 135.669 81.4281 136.682C80.7354 136.485 80.1003 136.131 79.575 135.649C78.326 134.525 77.8565 132.983 78.3813 131.97C79.0737 132.167 79.7085 132.521 80.2336 133.003Z" fill="#907B00"/>
<path d="M78.3688 136.579C79.2974 136.628 80.0472 137.118 80.188 137.724C79.8256 137.877 79.4312 137.944 79.0371 137.92C78.1092 137.871 77.3601 137.381 77.2192 136.774C77.5813 136.622 77.9752 136.555 78.3688 136.579Z" fill="#B59B00"/>
<path d="M99.3413 109.072C98.858 110.273 97.841 111.04 96.9393 110.954C96.8902 110.408 96.9749 109.858 97.1865 109.35C97.6698 108.148 98.6868 107.381 99.5885 107.468C99.6372 108.014 99.5525 108.564 99.3413 109.072Z" fill="#907B00"/>
<path d="M85.6554 102.09C86.3803 103.246 86.1732 103.94 85.7886 104.733C84.8911 104.707 84.1917 104.553 83.4668 103.398C82.7418 102.243 82.4311 100.072 82.583 99.6255C83.0511 99.6955 84.9304 100.935 85.6554 102.09Z" fill="#907B00"/>
<path d="M88.5345 101.906C88.2349 102.917 87.7199 103.16 87.0536 103.36C86.6 102.845 86.3259 102.374 86.6255 101.366C86.9252 100.358 88.0374 99.0532 88.3792 98.9023C88.5808 99.2014 88.8342 100.898 88.5345 101.906Z" fill="#907B00"/>
<path d="M90.0835 110.659V154.423" stroke="#907B00" stroke-width="6" stroke-miterlimit="10" stroke-linecap="round"/>
<path d="M94.9627 109.311V114.242C94.9628 115.994 94.3045 117.684 93.1124 118.994L91.4968 120.768C90.5863 121.768 90.0834 123.06 90.0835 124.398" stroke="#907B00" stroke-width="6" stroke-miterlimit="10" stroke-linecap="round"/>
<path d="M80.8535 135.845C81.4932 136.761 82.3525 137.51 83.3567 138.028C84.361 138.547 85.4797 138.817 86.6157 138.818H87.623C88.275 138.818 88.9003 139.07 89.3615 139.52C89.8228 139.969 90.0822 140.579 90.083 141.215" stroke="#907B00" stroke-width="6" stroke-miterlimit="10" stroke-linecap="round"/>
<path d="M97.0889 111.734V112.879C97.089 112.998 97.0651 113.116 97.0184 113.227C96.9717 113.337 96.9032 113.437 96.8168 113.521C96.7304 113.606 96.6279 113.672 96.515 113.718C96.4021 113.764 96.2811 113.787 96.159 113.787H95.6922C95.5075 113.787 95.3303 113.859 95.1996 113.986C95.069 114.114 94.9956 114.287 94.9956 114.467" stroke="#907B00" stroke-width="6" stroke-miterlimit="10" stroke-linecap="round"/>
<path d="M86.6895 104.695V114.15C86.6895 114.638 86.888 115.106 87.2415 115.451C87.5949 115.796 88.0743 115.99 88.5743 115.99C88.9744 115.99 89.3582 116.145 89.6412 116.421C89.9243 116.697 90.0833 117.071 90.0835 117.462" stroke="#907B00" stroke-width="6" stroke-miterlimit="10" stroke-linecap="round"/>
<path d="M94.3862 133.013V133.694C94.3862 134.226 94.1697 134.736 93.7842 135.113C93.3988 135.489 92.876 135.7 92.3309 135.7H91.2635C90.9509 135.7 90.6512 135.821 90.4301 136.037C90.2091 136.252 90.085 136.545 90.085 136.85" stroke="#907B00" stroke-width="6" stroke-miterlimit="10" stroke-linecap="round"/>
<path d="M85.4688 136.893C85.4688 137.405 85.6774 137.896 86.0487 138.259C86.4201 138.621 86.9237 138.825 87.4489 138.825" stroke="#907B00" stroke-width="6" stroke-miterlimit="10" stroke-linecap="round"/>
<path d="M84.5762 106.567V108.637C84.5762 108.977 84.7144 109.303 84.9604 109.543C85.2064 109.783 85.5401 109.917 85.888 109.917C85.9933 109.917 86.0976 109.937 86.195 109.976C86.2923 110.015 86.3808 110.073 86.4553 110.145C86.5298 110.218 86.5889 110.304 86.6291 110.399C86.6693 110.494 86.6898 110.596 86.6895 110.699" stroke="#907B00" stroke-width="6" stroke-miterlimit="10" stroke-linecap="round"/>
<path d="M163.024 126.526C172.538 126.526 180.25 117.173 180.25 105.636C180.25 94.0988 172.538 84.7461 163.024 84.7461C153.511 84.7461 145.798 94.0988 145.798 105.636C145.798 117.173 153.511 126.526 163.024 126.526Z" fill="#B59B00"/>
<path d="M168.584 97.4657C168.944 98.9396 168.653 100.358 167.927 101.187C167.859 101.262 167.774 101.321 167.678 101.358C167.582 101.395 167.479 101.409 167.377 101.4C167.274 101.391 167.175 101.358 167.089 101.304C167.002 101.251 166.929 101.178 166.876 101.091C166.583 100.616 166.367 100.098 166.238 99.5573C165.79 97.7203 166.35 95.9729 167.506 95.3403C168.033 95.9555 168.402 96.684 168.584 97.4657Z" fill="#907B00"/>
<path d="M152.648 126.134C153.898 127.258 154.367 128.801 153.843 129.813C153.15 129.617 152.515 129.263 151.99 128.78C150.741 127.656 150.271 126.115 150.796 125.102C151.488 125.298 152.123 125.652 152.648 126.134Z" fill="#907B00"/>
<path d="M150.784 129.71C151.712 129.759 152.462 130.249 152.603 130.856C152.241 131.009 151.846 131.076 151.452 131.051C150.524 131.003 149.775 130.512 149.634 129.906C149.996 129.753 150.39 129.686 150.784 129.71Z" fill="#B59B00"/>
<path d="M171.756 102.203C171.273 103.405 170.256 104.171 169.354 104.085C169.305 103.539 169.39 102.989 169.602 102.481C170.085 101.279 171.102 100.512 172.003 100.599C172.052 101.145 171.968 101.695 171.756 102.203Z" fill="#907B00"/>
<path d="M158.07 95.2217C158.795 96.3777 158.588 97.0716 158.204 97.8645C157.306 97.8382 156.607 97.6846 155.882 96.5293C155.157 95.374 154.846 93.2035 154.998 92.7568C155.466 92.8269 157.345 94.0664 158.07 95.2217Z" fill="#907B00"/>
<path d="M160.949 95.0375C160.649 96.048 160.134 96.2918 159.468 96.4912C159.015 95.9759 158.74 95.505 159.04 94.4972C159.34 93.4894 160.452 92.1846 160.794 92.0337C160.995 92.3328 161.249 94.0297 160.949 95.0375Z" fill="#907B00"/>
<path d="M162.498 103.79V147.555" stroke="#907B00" stroke-width="6" stroke-miterlimit="10" stroke-linecap="round"/>
<path d="M167.377 102.442V107.374C167.377 109.126 166.719 110.816 165.527 112.125L163.911 113.9C163.001 114.9 162.498 116.192 162.498 117.529" stroke="#907B00" stroke-width="6" stroke-miterlimit="10" stroke-linecap="round"/>
<path d="M153.269 128.976C153.909 129.892 154.768 130.642 155.772 131.16C156.776 131.678 157.895 131.949 159.031 131.949H160.039C160.691 131.949 161.316 132.201 161.777 132.651C162.238 133.1 162.498 133.71 162.499 134.346" stroke="#907B00" stroke-width="6" stroke-miterlimit="10" stroke-linecap="round"/>
<path d="M169.504 104.866V106.011C169.505 106.131 169.481 106.249 169.434 106.359C169.387 106.469 169.319 106.569 169.232 106.654C169.146 106.738 169.043 106.805 168.931 106.85C168.818 106.896 168.697 106.92 168.574 106.92H168.108C167.923 106.92 167.746 106.991 167.615 107.119C167.485 107.246 167.411 107.419 167.411 107.599" stroke="#907B00" stroke-width="6" stroke-miterlimit="10" stroke-linecap="round"/>
<path d="M159.104 97.8276V107.282C159.104 107.77 159.303 108.238 159.656 108.583C160.009 108.928 160.489 109.122 160.989 109.122C161.389 109.122 161.773 109.277 162.056 109.553C162.339 109.829 162.498 110.204 162.498 110.594" stroke="#907B00" stroke-width="6" stroke-miterlimit="10" stroke-linecap="round"/>
<path d="M166.801 126.144V126.826C166.801 127.358 166.584 127.868 166.199 128.244C165.813 128.62 165.291 128.831 164.745 128.831H163.678C163.365 128.831 163.066 128.952 162.845 129.168C162.624 129.384 162.5 129.676 162.5 129.981" stroke="#907B00" stroke-width="6" stroke-miterlimit="10" stroke-linecap="round"/>
<path d="M157.884 130.024C157.884 130.537 158.092 131.028 158.464 131.391C158.835 131.753 159.339 131.956 159.864 131.956" stroke="#907B00" stroke-width="6" stroke-miterlimit="10" stroke-linecap="round"/>
<path d="M156.991 99.6997V101.77C156.991 102.109 157.129 102.435 157.375 102.675C157.621 102.915 157.955 103.05 158.303 103.05C158.408 103.049 158.513 103.069 158.61 103.108C158.707 103.148 158.796 103.205 158.87 103.278C158.945 103.35 159.004 103.437 159.044 103.532C159.084 103.627 159.105 103.728 159.105 103.831" stroke="#907B00" stroke-width="6" stroke-miterlimit="10" stroke-linecap="round"/>
<path d="M135.287 140.03C145.393 140.03 153.585 130.618 153.585 119.007C153.585 107.396 145.393 97.9829 135.287 97.9829C125.181 97.9829 116.988 107.396 116.988 119.007C116.988 130.618 125.181 140.03 135.287 140.03Z" fill="#B59B00"/>
<path d="M141.331 116.153C141.691 117.627 141.4 119.045 140.674 119.874C140.606 119.95 140.521 120.008 140.425 120.045C140.33 120.083 140.226 120.097 140.124 120.088C140.021 120.078 139.923 120.045 139.836 119.992C139.749 119.938 139.676 119.865 139.623 119.779C139.33 119.303 139.114 118.786 138.985 118.245C138.537 116.408 139.097 114.66 140.253 114.028C140.78 114.643 141.149 115.371 141.331 116.153Z" fill="#907B00"/>
<path d="M125.395 144.822C126.645 145.946 127.114 147.489 126.59 148.501C125.897 148.305 125.262 147.951 124.737 147.468C123.488 146.344 123.018 144.803 123.543 143.79C124.235 143.986 124.87 144.34 125.395 144.822Z" fill="#907B00"/>
<path d="M123.531 148.398C124.459 148.447 125.209 148.937 125.35 149.544C124.988 149.697 124.593 149.764 124.199 149.739C123.271 149.691 122.522 149.2 122.381 148.594C122.743 148.441 123.137 148.374 123.531 148.398Z" fill="#B59B00"/>
<path d="M144.503 120.891C144.02 122.093 143.003 122.859 142.101 122.773C142.052 122.227 142.137 121.677 142.349 121.169C142.832 119.967 143.849 119.2 144.751 119.287C144.799 119.833 144.715 120.383 144.503 120.891Z" fill="#907B00"/>
<path d="M130.818 113.91C131.543 115.066 131.336 115.76 130.951 116.552C130.054 116.526 129.354 116.373 128.629 115.217C127.904 114.062 127.594 111.891 127.746 111.445C128.214 111.515 130.093 112.754 130.818 113.91Z" fill="#907B00"/>
<path d="M133.696 113.725C133.397 114.735 132.881 114.979 132.215 115.179C131.762 114.663 131.488 114.193 131.787 113.185C132.087 112.177 133.199 110.872 133.541 110.721C133.742 111.02 133.996 112.717 133.696 113.725Z" fill="#907B00"/>
<path d="M135.246 122.478V166.243" stroke="#907B00" stroke-width="6" stroke-miterlimit="10" stroke-linecap="round"/>
<path d="M140.125 121.13V126.062C140.125 127.813 139.467 129.504 138.275 130.813L136.659 132.587C135.749 133.588 135.246 134.879 135.246 136.217" stroke="#907B00" stroke-width="6" stroke-miterlimit="10" stroke-linecap="round"/>
<path d="M126.016 147.664C126.656 148.58 127.515 149.329 128.519 149.847C129.524 150.365 130.642 150.636 131.778 150.636H132.786C133.438 150.636 134.063 150.889 134.524 151.338C134.985 151.788 135.245 152.398 135.246 153.034" stroke="#907B00" stroke-width="6" stroke-miterlimit="10" stroke-linecap="round"/>
<path d="M142.252 123.553V124.698C142.252 124.818 142.228 124.936 142.181 125.046C142.134 125.156 142.066 125.256 141.979 125.341C141.893 125.425 141.79 125.492 141.678 125.537C141.565 125.583 141.444 125.607 141.322 125.607H140.855C140.67 125.607 140.493 125.678 140.362 125.806C140.232 125.933 140.158 126.106 140.158 126.286" stroke="#907B00" stroke-width="6" stroke-miterlimit="10" stroke-linecap="round"/>
<path d="M131.851 116.515V125.97C131.851 126.458 132.05 126.925 132.403 127.27C132.757 127.615 133.236 127.809 133.736 127.81C134.136 127.81 134.52 127.965 134.803 128.241C135.086 128.517 135.245 128.891 135.245 129.281" stroke="#907B00" stroke-width="6" stroke-miterlimit="10" stroke-linecap="round"/>
<path d="M139.548 144.832V145.513C139.548 146.045 139.331 146.555 138.946 146.931C138.56 147.307 138.038 147.519 137.493 147.519H136.425C136.113 147.519 135.813 147.64 135.592 147.856C135.371 148.071 135.247 148.364 135.247 148.669" stroke="#907B00" stroke-width="6" stroke-miterlimit="10" stroke-linecap="round"/>
<path d="M130.631 148.711C130.631 149.224 130.839 149.715 131.211 150.078C131.582 150.44 132.086 150.643 132.611 150.643" stroke="#907B00" stroke-width="6" stroke-miterlimit="10" stroke-linecap="round"/>
<path d="M129.738 118.387V120.457C129.738 120.797 129.876 121.122 130.122 121.362C130.368 121.602 130.702 121.737 131.05 121.737C131.155 121.737 131.26 121.757 131.357 121.796C131.454 121.835 131.543 121.893 131.617 121.965C131.692 122.038 131.751 122.124 131.791 122.219C131.831 122.314 131.852 122.416 131.852 122.519" stroke="#907B00" stroke-width="6" stroke-miterlimit="10" stroke-linecap="round"/>
<path d="M52.4553 142.877C61.9689 142.877 69.6812 133.525 69.6812 121.988C69.6812 110.45 61.9689 101.098 52.4553 101.098C42.9418 101.098 35.2295 110.45 35.2295 121.988C35.2295 133.525 42.9418 142.877 52.4553 142.877Z" fill="#907B00"/>
<path d="M58.0148 113.817C58.3752 115.291 58.0839 116.709 57.3582 117.538C57.2902 117.614 57.2049 117.672 57.1093 117.71C57.0136 117.747 56.9103 117.761 56.8079 117.752C56.7054 117.742 56.6066 117.71 56.5197 117.656C56.4327 117.602 56.36 117.529 56.3074 117.443C56.0139 116.967 55.7984 116.45 55.6688 115.909C55.2207 114.072 55.7813 112.324 56.9371 111.692C57.4637 112.307 57.8331 113.036 58.0148 113.817Z" fill="#B59B00"/>
<path d="M42.0793 142.486C43.329 143.609 43.7985 145.152 43.2738 146.165C42.5811 145.968 41.946 145.614 41.4207 145.132C40.1717 144.008 39.7022 142.466 40.227 141.453C40.9194 141.65 41.5542 142.004 42.0793 142.486Z" fill="#B59B00"/>
<path d="M40.2145 146.062C41.1431 146.111 41.8929 146.601 42.0337 147.208C41.6713 147.361 41.2769 147.428 40.8828 147.403C39.9549 147.355 39.2058 146.864 39.0649 146.258C39.427 146.105 39.8209 146.038 40.2145 146.062Z" fill="#907B00"/>
<path d="M61.187 118.555C60.7037 119.757 59.6867 120.523 58.785 120.437C58.7359 119.891 58.8207 119.341 59.0322 118.833C59.5155 117.631 60.5325 116.864 61.4342 116.951C61.4829 117.497 61.3982 118.047 61.187 118.555Z" fill="#B59B00"/>
<path d="M47.5016 111.574C48.2265 112.73 48.0194 113.424 47.6348 114.217C46.7373 114.19 46.0379 114.037 45.313 112.881C44.588 111.726 44.2773 109.556 44.4292 109.109C44.8973 109.179 46.7766 110.418 47.5016 111.574Z" fill="#B59B00"/>
<path d="M50.3802 111.389C50.0806 112.4 49.5656 112.643 48.8993 112.843C48.4457 112.327 48.1716 111.857 48.4713 110.849C48.7709 109.841 49.8831 108.536 50.2249 108.385C50.4265 108.684 50.6799 110.381 50.3802 111.389Z" fill="#B59B00"/>
<path d="M51.9292 120.142V163.906" stroke="#B59B00" stroke-width="6" stroke-miterlimit="10" stroke-linecap="round"/>
<path d="M56.8084 118.794V123.726C56.8085 125.477 56.1502 127.168 54.9581 128.477L53.3425 130.251C52.432 131.252 51.9291 132.543 51.9292 133.881" stroke="#B59B00" stroke-width="6" stroke-miterlimit="10" stroke-linecap="round"/>
<path d="M42.7002 145.328C43.3398 146.244 44.1992 146.993 45.2034 147.511C46.2076 148.029 47.3264 148.3 48.4624 148.3H49.4697C50.1217 148.3 50.7469 148.553 51.2082 149.002C51.6694 149.452 51.9289 150.062 51.9297 150.698" stroke="#B59B00" stroke-width="6" stroke-miterlimit="10" stroke-linecap="round"/>
<path d="M58.9356 121.218V122.363C58.9357 122.482 58.9117 122.6 58.865 122.71C58.8183 122.821 58.7499 122.921 58.6635 123.005C58.5771 123.089 58.4746 123.156 58.3617 123.202C58.2488 123.248 58.1278 123.271 58.0056 123.271H57.5389C57.3542 123.271 57.177 123.343 57.0463 123.47C56.9157 123.598 56.8423 123.771 56.8423 123.951" stroke="#B59B00" stroke-width="6" stroke-miterlimit="10" stroke-linecap="round"/>
<path d="M48.5352 114.179V123.634C48.5352 124.122 48.7337 124.59 49.0872 124.935C49.4406 125.28 49.92 125.473 50.42 125.474C50.8201 125.474 51.2039 125.629 51.4869 125.905C51.77 126.181 51.9291 126.555 51.9292 126.946" stroke="#B59B00" stroke-width="6" stroke-miterlimit="10" stroke-linecap="round"/>
<path d="M56.232 142.496V143.178C56.232 143.71 56.0154 144.22 55.63 144.596C55.2445 144.972 54.7217 145.183 54.1766 145.183H53.1092C52.7966 145.183 52.4969 145.304 52.2759 145.52C52.0548 145.736 51.9307 146.028 51.9307 146.333" stroke="#B59B00" stroke-width="6" stroke-miterlimit="10" stroke-linecap="round"/>
<path d="M47.3149 146.376C47.3149 146.888 47.5236 147.38 47.8949 147.742C48.2662 148.104 48.7699 148.308 49.295 148.308" stroke="#B59B00" stroke-width="6" stroke-miterlimit="10" stroke-linecap="round"/>
<path d="M46.4219 116.051V118.121C46.4219 118.461 46.5601 118.786 46.8061 119.026C47.0521 119.266 47.3858 119.401 47.7337 119.401C47.839 119.401 47.9433 119.421 48.0407 119.46C48.138 119.499 48.2265 119.557 48.301 119.629C48.3755 119.702 48.4346 119.788 48.4748 119.883C48.515 119.978 48.5355 120.08 48.5352 120.183" stroke="#B59B00" stroke-width="6" stroke-miterlimit="10" stroke-linecap="round"/>
<path d="M197.579 129.325C211.985 129.325 223.664 115.162 223.664 97.6915C223.664 80.2209 211.985 66.0581 197.579 66.0581C183.173 66.0581 171.494 80.2209 171.494 97.6915C171.494 115.162 183.173 129.325 197.579 129.325Z" fill="#907B00"/>
<path d="M205.998 85.3195C206.544 87.5514 206.102 89.6987 205.004 90.9545C204.901 91.0686 204.771 91.1574 204.627 91.2135C204.482 91.2696 204.325 91.2915 204.17 91.2774C204.015 91.2633 203.866 91.2135 203.734 91.1322C203.602 91.0509 203.492 90.9404 203.412 90.8096C202.968 90.0893 202.642 89.3056 202.445 88.4869C201.767 85.7051 202.616 83.0589 204.366 82.1011C205.163 83.0327 205.723 84.1357 205.998 85.3195Z" fill="#B59B00"/>
<path d="M181.867 128.732C183.759 130.433 184.47 132.769 183.675 134.303C182.626 134.005 181.665 133.469 180.869 132.739C178.978 131.036 178.267 128.702 179.061 127.168C180.11 127.466 181.071 128.002 181.867 128.732Z" fill="#B59B00"/>
<path d="M179.043 134.147C180.449 134.22 181.585 134.963 181.798 135.881C181.249 136.113 180.652 136.214 180.055 136.177C178.65 136.104 177.516 135.361 177.302 134.443C177.85 134.212 178.447 134.11 179.043 134.147Z" fill="#907B00"/>
<path d="M210.802 92.4932C210.07 94.3131 208.53 95.474 207.165 95.3435C207.09 94.5163 207.218 93.6838 207.539 92.9145C208.271 91.0946 209.811 89.9327 211.176 90.0643C211.25 90.8914 211.122 91.7239 210.802 92.4932Z" fill="#B59B00"/>
<path d="M190.078 81.9215C191.176 83.672 190.862 84.7228 190.28 85.9234C188.921 85.8836 187.862 85.6511 186.764 83.9016C185.666 82.1521 185.196 78.8653 185.426 78.189C186.134 78.2951 188.98 80.1721 190.078 81.9215Z" fill="#B59B00"/>
<path d="M194.436 81.6424C193.983 83.1725 193.203 83.5418 192.194 83.8438C191.507 83.0634 191.092 82.3503 191.546 80.8243C191.999 79.2982 193.684 77.3223 194.201 77.0938C194.506 77.5467 194.89 80.1163 194.436 81.6424Z" fill="#B59B00"/>
<path d="M196.784 94.896V161.168" stroke="#B59B00" stroke-width="6" stroke-miterlimit="10" stroke-linecap="round"/>
<path d="M204.172 92.8555V100.324C204.172 102.976 203.175 105.536 201.37 107.518L198.924 110.205C197.545 111.72 196.784 113.676 196.784 115.702" stroke="#B59B00" stroke-width="6" stroke-miterlimit="10" stroke-linecap="round"/>
<path d="M182.807 133.035C183.775 134.422 185.076 135.557 186.597 136.342C188.118 137.127 189.812 137.537 191.532 137.537H193.058C194.045 137.537 194.992 137.919 195.69 138.6C196.389 139.281 196.782 140.204 196.783 141.167" stroke="#B59B00" stroke-width="6" stroke-miterlimit="10" stroke-linecap="round"/>
<path d="M207.392 96.5249V98.2591C207.392 98.4396 207.355 98.6184 207.285 98.7853C207.214 98.9521 207.11 99.1037 206.98 99.2314C206.849 99.3591 206.693 99.4604 206.523 99.5295C206.352 99.5986 206.168 99.6342 205.983 99.6342H205.277C204.997 99.6342 204.728 99.7427 204.531 99.9357C204.333 100.129 204.222 100.391 204.222 100.664" stroke="#B59B00" stroke-width="6" stroke-miterlimit="10" stroke-linecap="round"/>
<path d="M191.643 85.8672V100.184C191.643 100.923 191.943 101.631 192.478 102.154C193.014 102.676 193.74 102.97 194.497 102.97C195.103 102.97 195.684 103.205 196.112 103.623C196.541 104.041 196.782 104.608 196.782 105.199" stroke="#B59B00" stroke-width="6" stroke-miterlimit="10" stroke-linecap="round"/>
<path d="M203.298 128.747V129.779C203.298 130.585 202.97 131.357 202.386 131.927C201.802 132.496 201.011 132.816 200.185 132.816H198.569C198.096 132.816 197.642 133 197.307 133.326C196.972 133.653 196.784 134.096 196.784 134.558" stroke="#B59B00" stroke-width="6" stroke-miterlimit="10" stroke-linecap="round"/>
<path d="M189.794 134.622C189.794 135.398 190.11 136.142 190.673 136.69C191.235 137.239 191.998 137.547 192.793 137.547" stroke="#B59B00" stroke-width="6" stroke-miterlimit="10" stroke-linecap="round"/>
<path d="M188.443 88.7017V91.8364C188.443 92.3505 188.653 92.8434 189.025 93.2069C189.398 93.5704 189.903 93.7746 190.43 93.7746C190.589 93.7741 190.747 93.8043 190.895 93.8636C191.042 93.9228 191.176 94.0099 191.289 94.1199C191.402 94.2299 191.491 94.3605 191.552 94.5044C191.613 94.6482 191.644 94.8023 191.644 94.9579" stroke="#B59B00" stroke-width="6" stroke-miterlimit="10" stroke-linecap="round"/>
<path d="M72.4074 128.542L63.5908 119.795L73.5618 126.537L73.238 120.138L77.9114 125.703L77.087 105.788L80.5688 123.557L83.9014 120.47L83.5928 125.815L87.3556 124.298L84.3972 128.462L72.4074 128.542Z" fill="#907B00"/>
<path d="M166.977 128.385L162.992 125.48L166.565 125.972L166.612 122.887L168.764 125.212L169.727 109.744L172.43 124.943L174.125 120.83L174.767 126.374L177.836 124.362L176.141 128.451L166.977 128.385Z" fill="#907B00"/>
<path d="M164.298 122.851C164.299 123.153 164.242 123.453 164.131 123.736C163.05 123.571 162.218 122.596 162.218 121.42C162.218 121.118 162.274 120.818 162.385 120.536C163.467 120.699 164.298 121.673 164.298 122.851Z" fill="#907B00"/>
<path d="M205.583 115.438C205.505 115.731 205.374 116.007 205.194 116.253C204.188 115.828 203.636 114.68 203.94 113.542C204.017 113.249 204.15 112.973 204.33 112.727C205.335 113.152 205.887 114.299 205.583 115.438Z" fill="#907B00"/>
<path d="M207.913 116.989C207.497 117.197 207.051 117.342 206.591 117.422C206.228 116.168 207.13 114.623 208.766 113.816C209.183 113.609 209.629 113.463 210.089 113.383C210.452 114.636 209.551 116.181 207.913 116.989Z" fill="#907B00"/>
<path d="M65.2208 123.402C65.7186 123.891 65.6993 124.258 65.604 124.695C65.1559 124.785 64.7921 124.789 64.2922 124.299C63.7924 123.809 63.3816 122.771 63.4016 122.532C63.6439 122.514 64.723 122.912 65.2208 123.402Z" fill="#B59B00"/>
<path d="M224.256 133.777C224.013 133.898 223.753 133.983 223.484 134.029C223.273 133.298 223.799 132.396 224.754 131.924C224.997 131.803 225.257 131.718 225.526 131.671C225.739 132.403 225.211 133.305 224.256 133.777Z" fill="#907B00"/>
<path d="M217.286 141.728H208.502L203.89 139.224L212.382 141.101L208.93 137.362L212.262 138.904L211.945 134.405L214.356 138.44C214.38 138.482 214.417 138.516 214.462 138.535C214.507 138.555 214.558 138.558 214.606 138.546C214.654 138.534 214.696 138.507 214.726 138.468C214.756 138.43 214.771 138.383 214.771 138.335L213.365 118.418L217.044 133.398L220.398 124.019L219.397 137.983L226 134.971L220.984 139.945C220.549 140.5 219.99 140.949 219.348 141.258C218.707 141.568 218.001 141.728 217.286 141.728Z" fill="#907B00"/>
<path d="M87.1521 122.121C86.4997 122.708 86.0281 122.667 85.471 122.53C85.3764 121.977 85.3888 121.531 86.0412 120.945C86.6937 120.359 88.0497 119.902 88.3569 119.935C88.37 120.233 87.8046 121.535 87.1521 122.121Z" fill="#907B00"/>
</svg>
