<svg width="259" height="198" viewBox="0 0 259 198" fill="none" xmlns="http://www.w3.org/2000/svg">
<path d="M151.757 197.323C191.31 197.323 223.375 195.127 223.375 192.419C223.375 189.711 191.31 187.516 151.757 187.516C112.203 187.516 80.1387 189.711 80.1387 192.419C80.1387 195.127 112.203 197.323 151.757 197.323Z" fill="#B59B00"/>
<path d="M220.694 158.807C245.77 157.098 247.498 147.161 247.498 147.161C247.498 147.161 191.578 145.767 132.898 145.698C67.4072 145.621 3.70122 149.239 0.166862 153.289C-4.28343 158.383 81.741 161.996 84.1598 159.513C86.0445 157.58 79.7616 156.251 73.4794 154.617C69.5349 153.59 77.4816 146.13 150.32 152.357C180.393 154.929 201.219 160.136 220.694 158.807Z" fill="#907B00"/>
<path d="M91.4027 155.141C96.9109 155.141 101.376 154.463 101.376 153.626C101.376 152.79 96.9109 152.111 91.4027 152.111C85.8945 152.111 81.4292 152.79 81.4292 153.626C81.4292 154.463 85.8945 155.141 91.4027 155.141Z" fill="#907B00"/>
<path d="M226.203 134.681C226.209 138.706 225.843 142.724 225.109 146.685C211.667 146.43 193.194 146.128 172.568 145.925C171.926 142.21 171.607 138.449 171.611 134.681C171.611 111.1 183.832 91.9834 198.908 91.9834C213.984 91.9834 226.203 111.1 226.203 134.681Z" fill="#C8D9D2"/>
<path d="M70.0733 146.739C40.8155 147.765 17.0122 149.459 6.23877 151.395C10.009 145.55 23.0309 135.297 39.4238 132.891C57.4545 130.243 67.7507 136.068 70.0733 146.739Z" fill="#C8D9D2"/>
<path d="M248.542 140.755C248.543 142.931 248.181 145.093 247.468 147.156H247.246H247.234C243.028 147.053 189.235 145.766 132.899 145.702C108.463 145.674 84.2755 146.164 63.3691 146.991C64.7561 144.786 67.847 143.25 71.4382 143.25C73.192 143.25 74.8305 143.616 76.2017 144.251C75.8216 142.014 76.2053 139.717 77.2937 137.713C78.382 135.71 80.1148 134.111 82.2255 133.162C84.3362 132.213 86.7079 131.967 88.9759 132.462C91.2439 132.956 93.2826 134.164 94.7783 135.9C94.8486 135.981 94.9172 136.064 94.9842 136.147C95.0261 136.064 95.0687 135.982 95.112 135.9C99.231 128.048 109.313 122.495 121.097 122.495C133.949 122.495 144.776 129.096 148.05 138.09C149.953 136.349 152.447 135.353 155.056 135.294C157.664 135.234 160.203 136.115 162.187 137.768C166.969 133.002 174.231 129.962 182.362 129.962C191.321 129.962 199.226 133.657 203.919 139.276C204.735 128.458 214.399 119.919 226.202 119.919C238.54 119.913 248.542 129.242 248.542 140.755Z" fill="#B59B00"/>
<path d="M239.144 28.1131H150.548C150.548 25.4005 153.481 21.0314 167.722 26.3504C167.722 26.3504 168.087 20.1962 175.323 22.2368C183.851 24.6415 177.358 15.4314 184.717 14.045C188.536 13.3261 190.634 15.3536 192.146 17.024C192.872 7.51131 201.579 0 212.216 0C223.327 0 232.333 8.19948 232.333 18.3149C232.333 18.9354 232.299 19.5554 232.231 20.1723C233.369 18.816 235.885 17.6029 239.317 17.6814C239.396 17.6814 239.475 17.6845 239.554 17.6906C246.508 18.0801 246.112 28.1131 239.144 28.1131Z" fill="#E5F1EF"/>
<path d="M63.1119 95.155C78.5277 95.155 91.0247 74.6627 91.0247 49.3841C91.0247 24.1056 78.5277 3.61328 63.1119 3.61328C47.6962 3.61328 35.1992 24.1056 35.1992 49.3841C35.1992 74.6627 47.6962 95.155 63.1119 95.155Z" fill="#907B00"/>
<path d="M72.4005 17.0424C72.9133 19.1415 72.2719 21.1398 70.952 21.8618C70.3496 21.1588 69.9273 20.3261 69.7197 19.4325C69.2077 17.3333 69.8475 15.3366 71.169 14.6138C71.7704 15.3169 72.1925 16.1492 72.4005 17.0424Z" fill="#B59B00"/>
<path d="M75.3181 22.383C74.4219 23.5723 73.0697 24.1297 72.1001 23.7763C72.2099 23.159 72.4684 22.5759 72.8543 22.0751C73.7505 20.8866 75.1019 20.3293 76.0723 20.6826C75.9623 21.2996 75.7038 21.8824 75.3181 22.383Z" fill="#B59B00"/>
<path d="M81.8661 35.6773C81.5671 37.4862 80.3971 38.8494 79.1206 38.9965C78.8823 38.2538 78.8283 37.4665 78.9628 36.6995C79.2618 34.8906 80.431 33.5281 81.7083 33.3818C81.9461 34.1241 82.0002 34.9107 81.8661 35.6773Z" fill="#B59B00"/>
<path d="M82.6895 40.3017C81.5306 40.7928 80.3149 40.6404 79.7705 39.9876C80.1161 39.5875 80.5537 39.2728 81.0478 39.0693C82.2067 38.5789 83.4216 38.7313 83.9667 39.3841C83.6213 39.7842 83.1836 40.0986 82.6895 40.3017Z" fill="#B59B00"/>
<path d="M58.5056 24.1875C58.5056 25.911 57.8311 27.3858 56.8742 27.997C55.9172 27.3866 55.2427 25.911 55.2427 24.1875C55.2427 22.464 55.9172 20.9891 56.8742 20.3779C57.8311 20.9899 58.5056 22.4655 58.5056 24.1875Z" fill="#B59B00"/>
<path d="M54.4701 28.1459C55.319 29.3405 55.5746 30.6799 55.2157 31.5528C54.2508 31.5782 53.0564 30.8708 52.2075 29.6762C51.3586 28.4815 51.103 27.1413 51.462 26.2692C52.4268 26.2445 53.622 26.9512 54.4701 28.1459Z" fill="#B59B00"/>
<path d="M47.6121 67.4023C48.8909 67.0274 50.1319 67.1829 50.7938 67.7264C50.5493 68.5346 49.601 69.3329 48.3221 69.7078C47.0433 70.0826 45.8016 69.9271 45.1396 69.3837C45.385 68.5747 46.3341 67.7772 47.6121 67.4023Z" fill="#B59B00"/>
<path d="M53.4482 60.3215C53.4088 61.8688 52.7689 62.4091 51.8948 62.9387C51.0499 62.3699 50.4748 61.7987 50.5174 60.2515C50.56 58.7042 51.6416 56.4357 52.0707 56.0947C52.4739 56.4465 53.4853 58.7743 53.4482 60.3215Z" fill="#B59B00"/>
<path d="M58.3398 54.1633C58.3003 55.7105 57.6605 56.2509 56.7864 56.7805C55.9415 56.2116 55.3664 55.6405 55.409 54.0932C55.4516 52.546 56.5332 50.2775 56.9623 49.9365C57.3655 50.2883 58.3769 52.6161 58.3398 54.1633Z" fill="#B59B00"/>
<path d="M68.8732 101.953C68.833 103.5 68.1932 104.04 67.3198 104.57C66.4741 104 65.8998 103.43 65.9416 101.883C65.9834 100.336 67.0666 98.0671 67.4958 97.7261C67.8989 98.0771 68.9127 100.405 68.8732 101.953Z" fill="#B59B00"/>
<path d="M59.1161 120.365C59.9208 121.699 59.6683 122.488 59.2155 123.386C58.1899 123.34 57.3947 123.151 56.5892 121.817C55.7837 120.483 55.4752 117.998 55.6551 117.488C56.1884 117.579 58.3106 119.031 59.1161 120.365Z" fill="#B59B00"/>
<path d="M35.2944 70.6319C36.0904 71.9706 35.8341 72.758 35.3733 73.6541C34.3477 73.6002 33.5541 73.4054 32.7589 72.0668C31.9636 70.7282 31.6709 68.2403 31.8548 67.7314C32.3865 67.8261 34.4984 69.2925 35.2944 70.6319Z" fill="#B59B00"/>
<path d="M70.2975 106.51C69.5519 107.18 69.0131 107.134 68.3765 106.977C68.2684 106.345 68.2826 105.835 69.0289 105.165C69.7752 104.496 71.3231 103.973 71.6741 104.011C71.6876 104.351 71.043 105.842 70.2975 106.51Z" fill="#B59B00"/>
<path d="M60.2706 116.335C60.4031 117.363 59.9897 118.285 59.3239 118.562C59.0738 118.196 58.9167 117.777 58.8655 117.34C58.733 116.312 59.1456 115.39 59.8122 115.112C60.0619 115.479 60.219 115.898 60.2706 116.335Z" fill="#B59B00"/>
<path d="M62.5913 147.029V12.3081" stroke="#B59B00" stroke-width="6" stroke-miterlimit="10"/>
<path d="M56.9375 26.6401V39.4497C56.9375 39.9639 57.0413 40.4731 57.243 40.9481C57.4447 41.4232 57.7403 41.8548 58.113 42.2183C58.4857 42.5819 58.9281 42.8702 59.415 43.0669C59.9019 43.2636 60.4237 43.3648 60.9507 43.3647V43.3647C61.3859 43.3649 61.8031 43.5337 62.1108 43.8339C62.4185 44.1341 62.5915 44.5413 62.5917 44.9658" stroke="#B59B00" stroke-width="6" stroke-miterlimit="10"/>
<path d="M56.9375 57.9312V74.558C56.9375 75.3918 57.277 76.1914 57.8812 76.7809C58.4854 77.3705 59.3049 77.7017 60.1594 77.7017C60.8044 77.7017 61.4229 77.9516 61.879 78.3965C62.3351 78.8414 62.5915 79.4449 62.5917 80.0741" stroke="#B59B00" stroke-width="6" stroke-miterlimit="10"/>
<path d="M57.5649 98.4956C57.5649 100.231 58.8469 101.639 60.4295 101.639C61.6231 101.639 62.5911 102.702 62.5911 104.012" stroke="#B59B00" stroke-width="6" stroke-miterlimit="10"/>
<path d="M51.9077 61.7793V66.3809C51.9077 67.0373 52.1749 67.6668 52.6506 68.1309C53.1263 68.595 53.7714 68.8557 54.4441 68.8557H55.2212C55.676 68.8559 56.1121 69.0323 56.4337 69.3461C56.7553 69.6599 56.9361 70.0854 56.9363 70.5292" stroke="#B59B00" stroke-width="6" stroke-miterlimit="10"/>
<path d="M70.9673 20.248V27.8048C70.9673 29.1906 70.4031 30.5196 69.3988 31.4995C68.3945 32.4794 67.0324 33.0299 65.6121 33.0299V33.0299C65.2153 33.0299 64.8224 33.1062 64.4559 33.2543C64.0893 33.4025 63.7563 33.6197 63.4758 33.8935C63.1953 34.1672 62.9728 34.4922 62.821 34.8499C62.6693 35.2076 62.5912 35.591 62.5913 35.9781" stroke="#B59B00" stroke-width="6" stroke-miterlimit="10"/>
<path d="M55.2158 31.5532L56.1728 33.0804C56.6727 33.8769 56.9373 34.7928 56.9372 35.7269" stroke="#B59B00" stroke-width="6" stroke-miterlimit="10"/>
<path d="M67.4076 102.108V108.647C67.4075 109.606 67.1917 110.554 66.7752 111.423C66.3588 112.292 65.7519 113.062 64.9975 113.677L64.2401 114.293C63.7239 114.714 63.3086 115.241 63.0237 115.836C62.7388 116.431 62.5912 117.079 62.5913 117.736" stroke="#B59B00" stroke-width="6" stroke-miterlimit="10"/>
<path d="M72.1311 110.331C72.1311 111.035 71.8443 111.711 71.3337 112.209C70.8231 112.707 70.1306 112.987 69.4085 112.987H65.7866" stroke="#B59B00" stroke-width="6" stroke-miterlimit="10" stroke-linecap="round"/>
<path d="M59.0869 122.491V140.805C59.0869 141.446 59.3482 142.062 59.8132 142.515C60.2782 142.969 60.9089 143.224 61.5665 143.224V143.224C61.8385 143.224 62.0994 143.33 62.2917 143.517C62.484 143.705 62.5921 143.959 62.5921 144.225" stroke="#B59B00" stroke-width="6" stroke-miterlimit="10"/>
<path d="M38.6957 124.155C49.5666 124.155 58.3792 113.468 58.3792 100.284C58.3792 87.1012 49.5666 76.4141 38.6957 76.4141C27.8248 76.4141 19.0122 87.1012 19.0122 100.284C19.0122 113.468 27.8248 124.155 38.6957 124.155Z" fill="#B59B00"/>
<path d="M45.0483 90.9486C45.4601 92.6328 45.1272 94.2532 44.298 95.2007C44.2203 95.2869 44.1228 95.3538 44.0136 95.3962C43.9043 95.4385 43.7862 95.4551 43.6691 95.4444C43.552 95.4338 43.4392 95.3962 43.3398 95.3349C43.2404 95.2735 43.1573 95.1901 43.0973 95.0914C42.7619 94.5479 42.5157 93.9565 42.3676 93.3387C41.8555 91.2396 42.4961 89.2428 43.8168 88.52C44.4186 89.223 44.8407 90.0554 45.0483 90.9486Z" fill="#907B00"/>
<path d="M26.8392 123.707C28.2671 124.991 28.8036 126.754 28.204 127.911C27.4125 127.687 26.6868 127.282 26.0866 126.731C24.6594 125.446 24.1229 123.685 24.7225 122.527C25.5137 122.752 26.2391 123.156 26.8392 123.707Z" fill="#907B00"/>
<path d="M24.7086 127.794C25.7697 127.85 26.6264 128.41 26.7874 129.103C26.3733 129.278 25.9225 129.354 25.4722 129.326C24.4119 129.271 23.556 128.71 23.395 128.017C23.8087 127.843 24.2588 127.766 24.7086 127.794Z" fill="#B59B00"/>
<path d="M48.6732 96.362C48.121 97.7352 46.9589 98.6112 45.9286 98.5127C45.8725 97.8886 45.9693 97.2603 46.211 96.6799C46.7633 95.3066 47.9253 94.4298 48.9557 94.5291C49.0114 95.1533 48.9146 95.7814 48.6732 96.362Z" fill="#907B00"/>
<path d="M33.0351 88.3844C33.8635 89.7054 33.6268 90.4982 33.1874 91.4042C32.1618 91.3742 31.3626 91.1987 30.5343 89.8786C29.7059 88.5584 29.3509 86.0782 29.5244 85.5679C30.0593 85.6479 32.2068 87.0643 33.0351 88.3844Z" fill="#907B00"/>
<path d="M36.3243 88.1741C35.9819 89.3287 35.3934 89.6074 34.6321 89.8352C34.1138 89.2463 33.8006 88.7083 34.143 87.5567C34.4854 86.4052 35.7563 84.9141 36.1468 84.7417C36.3772 85.0835 36.6667 87.0225 36.3243 88.1741Z" fill="#907B00"/>
<path d="M38.0947 98.1753V148.184" stroke="#907B00" stroke-width="6" stroke-miterlimit="10" stroke-linecap="round"/>
<path d="M43.67 96.6348V102.27C43.6702 104.271 42.9179 106.203 41.5557 107.699L39.7096 109.727C38.6692 110.87 38.0946 112.346 38.0947 113.874" stroke="#907B00" stroke-width="6" stroke-miterlimit="10" stroke-linecap="round"/>
<path d="M27.5483 126.955C28.2792 128.001 29.2612 128.858 30.4087 129.45C31.5562 130.042 32.8346 130.351 34.1327 130.352H35.2837C36.0286 130.352 36.7431 130.64 37.2702 131.154C37.7972 131.667 38.0938 132.364 38.0946 133.091" stroke="#907B00" stroke-width="6" stroke-miterlimit="10" stroke-linecap="round"/>
<path d="M46.1 99.4043V100.713C46.1001 100.849 46.0727 100.984 46.0194 101.11C45.966 101.236 45.8877 101.35 45.789 101.447C45.6904 101.543 45.5732 101.619 45.4442 101.672C45.3152 101.724 45.177 101.751 45.0373 101.751H44.504C44.2929 101.751 44.0904 101.832 43.9412 101.978C43.7919 102.124 43.708 102.321 43.708 102.527" stroke="#907B00" stroke-width="6" stroke-miterlimit="10" stroke-linecap="round"/>
<path d="M34.2163 91.3618V102.165C34.2163 102.723 34.4432 103.257 34.8471 103.652C35.251 104.046 35.7988 104.267 36.3701 104.268C36.8273 104.268 37.2658 104.445 37.5892 104.76C37.9126 105.076 38.0944 105.503 38.0946 105.95" stroke="#907B00" stroke-width="6" stroke-miterlimit="10" stroke-linecap="round"/>
<path d="M43.0112 123.718V124.497C43.0112 125.105 42.7637 125.688 42.3233 126.118C41.8828 126.547 41.2854 126.789 40.6625 126.789H39.4429C39.0857 126.789 38.7432 126.927 38.4906 127.174C38.2381 127.42 38.0962 127.754 38.0962 128.103" stroke="#907B00" stroke-width="6" stroke-miterlimit="10" stroke-linecap="round"/>
<path d="M32.8218 128.152C32.8218 128.737 33.0602 129.299 33.4845 129.713C33.9088 130.127 34.4843 130.36 35.0844 130.36" stroke="#907B00" stroke-width="6" stroke-miterlimit="10" stroke-linecap="round"/>
<path d="M31.8013 93.501V95.8664C31.8013 96.2543 31.9592 96.6263 32.2403 96.9006C32.5214 97.1749 32.9027 97.329 33.3002 97.329V97.329C33.4205 97.3286 33.5398 97.3514 33.651 97.3961C33.7623 97.4408 33.8634 97.5066 33.9485 97.5896C34.0336 97.6725 34.1011 97.7711 34.147 97.8797C34.193 97.9882 34.2165 98.1045 34.2161 98.2219" stroke="#907B00" stroke-width="6" stroke-miterlimit="10" stroke-linecap="round"/>
<path d="M127.953 123.426C143.369 123.426 155.866 102.934 155.866 77.6556C155.866 52.3771 143.369 31.8848 127.953 31.8848C112.537 31.8848 100.041 52.3771 100.041 77.6556C100.041 102.934 112.537 123.426 127.953 123.426Z" fill="#907B00"/>
<path d="M137.242 45.3138C137.755 47.413 137.113 49.4113 135.793 50.1333C135.191 49.4303 134.769 48.5976 134.561 47.7039C134.049 45.6048 134.689 43.6081 136.01 42.8853C136.612 43.5884 137.034 44.4207 137.242 45.3138Z" fill="#B59B00"/>
<path d="M140.159 50.6545C139.263 51.8438 137.911 52.4011 136.941 52.0478C137.051 51.4305 137.31 50.8474 137.696 50.3466C138.592 49.1581 139.943 48.6007 140.914 48.9541C140.804 49.5711 140.545 50.1539 140.159 50.6545Z" fill="#B59B00"/>
<path d="M146.707 63.9487C146.408 65.7577 145.238 67.1209 143.962 67.268C143.724 66.5253 143.67 65.738 143.804 64.971C144.103 63.1621 145.272 61.7996 146.55 61.6533C146.787 62.3955 146.841 63.1822 146.707 63.9487Z" fill="#B59B00"/>
<path d="M147.531 68.5732C146.372 69.0643 145.156 68.9119 144.612 68.2591C144.957 67.859 145.395 67.5443 145.889 67.3408C147.048 66.8504 148.263 67.0028 148.808 67.6556C148.463 68.0557 148.025 68.3701 147.531 68.5732Z" fill="#B59B00"/>
<path d="M123.347 52.4589C123.347 54.1824 122.672 55.6573 121.715 56.2685C120.759 55.6581 120.084 54.1824 120.084 52.4589C120.084 50.7355 120.759 49.2606 121.715 48.6494C122.672 49.2614 123.347 50.737 123.347 52.4589Z" fill="#B59B00"/>
<path d="M119.311 56.4173C120.16 57.612 120.416 58.9514 120.057 59.8243C119.092 59.8497 117.898 59.1423 117.049 57.9476C116.2 56.753 115.944 55.4128 116.303 54.5407C117.268 54.516 118.463 55.2227 119.311 56.4173Z" fill="#B59B00"/>
<path d="M112.453 95.6738C113.732 95.2989 114.973 95.4544 115.635 95.9978C115.391 96.8061 114.442 97.6044 113.163 97.9792C111.885 98.3541 110.643 98.1986 109.981 97.6552C110.226 96.8461 111.175 96.0487 112.453 95.6738Z" fill="#B59B00"/>
<path d="M118.29 88.593C118.25 90.1402 117.61 90.6806 116.736 91.2102C115.891 90.6414 115.316 90.0702 115.359 88.523C115.401 86.9757 116.483 84.7072 116.912 84.3662C117.315 84.718 118.327 87.0458 118.29 88.593Z" fill="#B59B00"/>
<path d="M123.181 82.4348C123.142 83.982 122.502 84.5224 121.628 85.052C120.783 84.4831 120.208 83.9119 120.25 82.3647C120.293 80.8175 121.374 78.549 121.804 78.208C122.207 78.5598 123.218 80.8876 123.181 82.4348Z" fill="#B59B00"/>
<path d="M133.715 130.224C133.674 131.772 133.034 132.312 132.161 132.842C131.315 132.272 130.741 131.702 130.783 130.154C130.825 128.607 131.908 126.339 132.337 125.998C132.74 126.349 133.754 128.676 133.715 130.224Z" fill="#B59B00"/>
<path d="M123.957 148.636C124.762 149.97 124.51 150.759 124.057 151.658C123.031 151.612 122.236 151.422 121.43 150.088C120.625 148.754 120.317 146.269 120.496 145.76C121.03 145.851 123.152 147.302 123.957 148.636Z" fill="#B59B00"/>
<path d="M100.136 98.9034C100.932 100.242 100.675 101.03 100.215 101.926C99.189 101.872 98.3954 101.677 97.6002 100.338C96.8049 98.9996 96.5122 96.5117 96.6961 96.0029C97.2278 96.0976 99.3397 97.564 100.136 98.9034Z" fill="#B59B00"/>
<path d="M135.139 134.782C134.393 135.451 133.854 135.405 133.218 135.248C133.11 134.617 133.124 134.107 133.87 133.437C134.617 132.767 136.164 132.244 136.515 132.282C136.529 132.622 135.884 134.113 135.139 134.782Z" fill="#B59B00"/>
<path d="M125.112 144.606C125.244 145.635 124.831 146.557 124.165 146.834C123.915 146.468 123.758 146.049 123.707 145.612C123.574 144.583 123.987 143.662 124.654 143.384C124.903 143.75 125.06 144.169 125.112 144.606Z" fill="#B59B00"/>
<path d="M127.433 175.3V40.5796" stroke="#B59B00" stroke-width="6" stroke-miterlimit="10"/>
<path d="M121.778 54.9116V67.7212C121.778 68.2354 121.882 68.7446 122.084 69.2196C122.286 69.6946 122.581 70.1263 122.954 70.4898C123.326 70.8534 123.769 71.1417 124.256 71.3384C124.743 71.5351 125.265 71.6363 125.792 71.6362V71.6362C126.227 71.6364 126.644 71.8052 126.952 72.1054C127.259 72.4056 127.432 72.8127 127.433 73.2373" stroke="#B59B00" stroke-width="6" stroke-miterlimit="10"/>
<path d="M121.778 86.2026V102.829C121.778 103.663 122.118 104.463 122.722 105.052C123.326 105.642 124.146 105.973 125 105.973C125.645 105.973 126.264 106.223 126.72 106.668C127.176 107.113 127.432 107.716 127.433 108.346" stroke="#B59B00" stroke-width="6" stroke-miterlimit="10"/>
<path d="M122.406 126.767C122.406 128.503 123.688 129.911 125.271 129.911C126.464 129.911 127.432 130.973 127.432 132.283" stroke="#B59B00" stroke-width="6" stroke-miterlimit="10"/>
<path d="M116.749 90.0508V94.6524C116.749 95.3088 117.016 95.9382 117.492 96.4024C117.968 96.8665 118.613 97.1272 119.285 97.1272H120.062C120.517 97.1274 120.953 97.3038 121.275 97.6176C121.597 97.9314 121.777 98.3569 121.778 98.8007" stroke="#B59B00" stroke-width="6" stroke-miterlimit="10"/>
<path d="M135.809 48.5195V56.0763C135.809 57.4621 135.244 58.7911 134.24 59.771C133.236 60.7509 131.874 61.3014 130.453 61.3014V61.3014C130.057 61.3014 129.664 61.3777 129.297 61.5258C128.931 61.674 128.598 61.8912 128.317 62.1649C128.037 62.4387 127.814 62.7637 127.662 63.1214C127.511 63.4791 127.433 63.8624 127.433 64.2496" stroke="#B59B00" stroke-width="6" stroke-miterlimit="10"/>
<path d="M120.057 59.8247L121.014 61.3519C121.514 62.1484 121.778 63.0643 121.778 63.9983" stroke="#B59B00" stroke-width="6" stroke-miterlimit="10"/>
<path d="M132.249 130.379V136.918C132.249 137.877 132.033 138.825 131.617 139.694C131.2 140.563 130.593 141.333 129.839 141.948L129.081 142.564C128.565 142.985 128.15 143.512 127.865 144.107C127.58 144.702 127.433 145.35 127.433 146.007" stroke="#B59B00" stroke-width="6" stroke-miterlimit="10"/>
<path d="M136.972 138.602C136.972 139.307 136.686 139.982 136.175 140.48C135.664 140.979 134.972 141.258 134.25 141.258H130.628" stroke="#B59B00" stroke-width="6" stroke-miterlimit="10" stroke-linecap="round"/>
<path d="M123.928 150.763V169.076C123.928 169.718 124.189 170.333 124.654 170.787C125.119 171.241 125.75 171.496 126.408 171.496V171.496C126.68 171.496 126.941 171.601 127.133 171.789C127.325 171.976 127.433 172.231 127.433 172.496" stroke="#B59B00" stroke-width="6" stroke-miterlimit="10"/>
<path d="M103.537 152.426C114.408 152.426 123.221 141.739 123.221 128.556C123.221 115.373 114.408 104.686 103.537 104.686C92.6661 104.686 83.8535 115.373 83.8535 128.556C83.8535 141.739 92.6661 152.426 103.537 152.426Z" fill="#B59B00"/>
<path d="M109.89 119.22C110.301 120.904 109.968 122.525 109.139 123.472C109.062 123.558 108.964 123.625 108.855 123.668C108.746 123.71 108.628 123.727 108.51 123.716C108.393 123.705 108.281 123.668 108.181 123.606C108.082 123.545 107.999 123.462 107.939 123.363C107.603 122.819 107.357 122.228 107.209 121.61C106.697 119.511 107.337 117.514 108.658 116.792C109.26 117.494 109.682 118.327 109.89 119.22Z" fill="#907B00"/>
<path d="M91.6805 151.978C93.1084 153.262 93.6449 155.025 93.0453 156.182C92.2538 155.958 91.5281 155.553 90.9279 155.002C89.5007 153.717 88.9642 151.956 89.5638 150.798C90.355 151.023 91.0804 151.427 91.6805 151.978Z" fill="#907B00"/>
<path d="M89.5499 156.065C90.611 156.121 91.4677 156.681 91.6287 157.374C91.2146 157.549 90.7638 157.625 90.3135 157.597C89.2532 157.542 88.3973 156.981 88.2363 156.288C88.65 156.114 89.1001 156.037 89.5499 156.065Z" fill="#B59B00"/>
<path d="M113.515 124.633C112.962 126.007 111.8 126.883 110.77 126.784C110.714 126.16 110.811 125.532 111.052 124.951C111.605 123.578 112.767 122.701 113.797 122.801C113.853 123.425 113.756 124.053 113.515 124.633Z" fill="#907B00"/>
<path d="M97.8764 116.656C98.7048 117.977 98.4681 118.77 98.0287 119.676C97.0031 119.646 96.2039 119.47 95.3756 118.15C94.5472 116.83 94.1922 114.35 94.3657 113.839C94.9006 113.919 97.0481 115.336 97.8764 116.656Z" fill="#907B00"/>
<path d="M101.166 116.445C100.823 117.6 100.235 117.878 99.4734 118.106C98.9551 117.517 98.6419 116.979 98.9843 115.828C99.3267 114.676 100.598 113.185 100.988 113.013C101.218 113.354 101.508 115.293 101.166 116.445Z" fill="#907B00"/>
<path d="M102.936 126.446V176.455" stroke="#907B00" stroke-width="6" stroke-miterlimit="10" stroke-linecap="round"/>
<path d="M108.511 124.906V130.542C108.512 132.543 107.759 134.475 106.397 135.971L104.551 137.998C103.511 139.141 102.936 140.617 102.936 142.146" stroke="#907B00" stroke-width="6" stroke-miterlimit="10" stroke-linecap="round"/>
<path d="M92.3896 155.226C93.1205 156.273 94.1025 157.129 95.25 157.721C96.3975 158.313 97.6759 158.623 98.974 158.623H100.125C100.87 158.623 101.584 158.912 102.111 159.425C102.639 159.939 102.935 160.636 102.936 161.363" stroke="#907B00" stroke-width="6" stroke-miterlimit="10" stroke-linecap="round"/>
<path d="M110.941 127.675V128.984C110.941 129.12 110.914 129.255 110.861 129.381C110.807 129.507 110.729 129.621 110.63 129.718C110.532 129.814 110.414 129.89 110.285 129.943C110.157 129.995 110.018 130.022 109.879 130.022H109.345C109.134 130.022 108.932 130.103 108.782 130.249C108.633 130.395 108.549 130.592 108.549 130.798" stroke="#907B00" stroke-width="6" stroke-miterlimit="10" stroke-linecap="round"/>
<path d="M99.0576 119.633V130.436C99.0576 130.994 99.2845 131.528 99.6884 131.923C100.092 132.317 100.64 132.538 101.211 132.539C101.669 132.539 102.107 132.716 102.431 133.031C102.754 133.347 102.936 133.774 102.936 134.221" stroke="#907B00" stroke-width="6" stroke-miterlimit="10" stroke-linecap="round"/>
<path d="M107.852 151.99V152.769C107.852 153.377 107.605 153.959 107.165 154.389C106.724 154.819 106.127 155.06 105.504 155.06H104.284C103.927 155.06 103.584 155.199 103.332 155.445C103.079 155.692 102.938 156.026 102.938 156.374" stroke="#907B00" stroke-width="6" stroke-miterlimit="10" stroke-linecap="round"/>
<path d="M97.6631 156.423C97.6631 157.009 97.9015 157.57 98.3258 157.984C98.7501 158.398 99.3256 158.631 99.9257 158.631" stroke="#907B00" stroke-width="6" stroke-miterlimit="10" stroke-linecap="round"/>
<path d="M96.6431 121.772V124.138C96.6431 124.526 96.801 124.898 97.0821 125.172C97.3632 125.446 97.7445 125.6 98.142 125.6C98.2623 125.6 98.3816 125.623 98.4928 125.668C98.6041 125.712 98.7052 125.778 98.7903 125.861C98.8754 125.944 98.9429 126.043 98.9888 126.151C99.0348 126.26 99.0583 126.376 99.0579 126.493" stroke="#907B00" stroke-width="6" stroke-miterlimit="10" stroke-linecap="round"/>
<path d="M186.284 144.577C197.155 144.577 205.967 133.89 205.967 120.707C205.967 107.524 197.155 96.8364 186.284 96.8364C175.413 96.8364 166.6 107.524 166.6 120.707C166.6 133.89 175.413 144.577 186.284 144.577Z" fill="#B59B00"/>
<path d="M192.636 111.371C193.048 113.055 192.715 114.676 191.886 115.623C191.808 115.709 191.711 115.776 191.601 115.819C191.492 115.861 191.374 115.877 191.257 115.867C191.14 115.856 191.027 115.819 190.928 115.757C190.828 115.696 190.745 115.612 190.685 115.514C190.35 114.97 190.104 114.379 189.955 113.761C189.443 111.662 190.084 109.665 191.405 108.942C192.006 109.645 192.429 110.478 192.636 111.371Z" fill="#907B00"/>
<path d="M174.427 144.129C175.855 145.413 176.391 147.176 175.792 148.333C175 148.108 174.275 147.704 173.674 147.153C172.247 145.868 171.711 144.107 172.31 142.949C173.102 143.174 173.827 143.578 174.427 144.129Z" fill="#907B00"/>
<path d="M172.296 148.216C173.358 148.271 174.214 148.832 174.375 149.525C173.961 149.7 173.51 149.776 173.06 149.748C172 149.692 171.144 149.132 170.983 148.439C171.397 148.265 171.847 148.188 172.296 148.216Z" fill="#B59B00"/>
<path d="M196.261 116.784C195.709 118.158 194.547 119.034 193.516 118.935C193.46 118.311 193.557 117.683 193.799 117.102C194.351 115.729 195.513 114.852 196.544 114.951C196.599 115.576 196.502 116.204 196.261 116.784Z" fill="#907B00"/>
<path d="M180.623 108.807C181.451 110.128 181.215 110.921 180.775 111.827C179.75 111.797 178.951 111.621 178.122 110.301C177.294 108.981 176.939 106.501 177.112 105.99C177.647 106.07 179.795 107.487 180.623 108.807Z" fill="#907B00"/>
<path d="M183.912 108.596C183.57 109.751 182.981 110.029 182.22 110.257C181.702 109.668 181.388 109.13 181.731 107.979C182.073 106.827 183.344 105.336 183.735 105.164C183.965 105.505 184.255 107.444 183.912 108.596Z" fill="#907B00"/>
<path d="M185.683 118.597V168.606" stroke="#907B00" stroke-width="6" stroke-miterlimit="10" stroke-linecap="round"/>
<path d="M191.258 117.057V122.693C191.258 124.694 190.506 126.626 189.144 128.122L187.298 130.149C186.257 131.292 185.683 132.768 185.683 134.297" stroke="#907B00" stroke-width="6" stroke-miterlimit="10" stroke-linecap="round"/>
<path d="M175.136 147.377C175.867 148.424 176.849 149.28 177.997 149.872C179.144 150.464 180.422 150.774 181.721 150.774H182.872C183.617 150.774 184.331 151.062 184.858 151.576C185.385 152.09 185.682 152.787 185.682 153.513" stroke="#907B00" stroke-width="6" stroke-miterlimit="10" stroke-linecap="round"/>
<path d="M193.688 119.826V121.135C193.688 121.271 193.661 121.406 193.607 121.532C193.554 121.658 193.476 121.772 193.377 121.868C193.278 121.965 193.161 122.041 193.032 122.093C192.903 122.146 192.765 122.172 192.625 122.172H192.092C191.881 122.172 191.678 122.254 191.529 122.4C191.38 122.546 191.296 122.743 191.296 122.949" stroke="#907B00" stroke-width="6" stroke-miterlimit="10" stroke-linecap="round"/>
<path d="M181.804 111.784V122.587C181.804 123.145 182.031 123.679 182.435 124.073C182.839 124.468 183.387 124.689 183.958 124.689C184.415 124.689 184.854 124.867 185.177 125.182C185.501 125.497 185.682 125.925 185.683 126.371" stroke="#907B00" stroke-width="6" stroke-miterlimit="10" stroke-linecap="round"/>
<path d="M190.599 144.141V144.92C190.599 145.527 190.352 146.11 189.911 146.54C189.471 146.97 188.873 147.211 188.25 147.211H187.031C186.674 147.211 186.331 147.35 186.079 147.596C185.826 147.843 185.684 148.177 185.684 148.525" stroke="#907B00" stroke-width="6" stroke-miterlimit="10" stroke-linecap="round"/>
<path d="M180.41 148.574C180.41 149.16 180.648 149.721 181.072 150.135C181.497 150.549 182.072 150.782 182.672 150.782" stroke="#907B00" stroke-width="6" stroke-miterlimit="10" stroke-linecap="round"/>
<path d="M179.39 113.923V116.288C179.39 116.676 179.548 117.048 179.829 117.322C180.11 117.597 180.491 117.751 180.889 117.751C181.009 117.75 181.128 117.773 181.239 117.818C181.351 117.863 181.452 117.928 181.537 118.011C181.622 118.094 181.689 118.193 181.735 118.302C181.781 118.41 181.805 118.526 181.805 118.644" stroke="#907B00" stroke-width="6" stroke-miterlimit="10" stroke-linecap="round"/>
<path d="M154.589 160.008C166.137 160.008 175.498 149.253 175.498 135.985C175.498 122.717 166.137 111.962 154.589 111.962C143.041 111.962 133.68 122.717 133.68 135.985C133.68 149.253 143.041 160.008 154.589 160.008Z" fill="#B59B00"/>
<path d="M161.495 132.725C161.907 134.409 161.574 136.03 160.745 136.977C160.667 137.063 160.57 137.13 160.46 137.173C160.351 137.215 160.233 137.231 160.116 137.221C159.999 137.21 159.886 137.173 159.787 137.111C159.687 137.05 159.604 136.966 159.544 136.868C159.209 136.324 158.962 135.733 158.814 135.115C158.302 133.016 158.943 131.019 160.264 130.296C160.865 130.999 161.287 131.832 161.495 132.725Z" fill="#907B00"/>
<path d="M143.286 165.484C144.714 166.768 145.25 168.53 144.651 169.687C143.859 169.463 143.134 169.059 142.533 168.507C141.106 167.223 140.57 165.461 141.169 164.304C141.961 164.528 142.686 164.933 143.286 165.484Z" fill="#907B00"/>
<path d="M141.155 169.57C142.216 169.625 143.073 170.186 143.234 170.879C142.82 171.054 142.369 171.13 141.919 171.102C140.859 171.046 140.003 170.486 139.842 169.793C140.255 169.619 140.706 169.542 141.155 169.57Z" fill="#B59B00"/>
<path d="M165.12 138.138C164.568 139.512 163.406 140.388 162.375 140.289C162.319 139.665 162.416 139.037 162.658 138.456C163.21 137.083 164.372 136.206 165.402 136.305C165.458 136.93 165.361 137.558 165.12 138.138Z" fill="#907B00"/>
<path d="M149.482 130.161C150.31 131.482 150.074 132.275 149.634 133.181C148.609 133.151 147.809 132.975 146.981 131.655C146.153 130.335 145.798 127.855 145.971 127.344C146.506 127.424 148.654 128.841 149.482 130.161Z" fill="#907B00"/>
<path d="M152.771 129.95C152.429 131.105 151.84 131.384 151.079 131.612C150.561 131.023 150.247 130.485 150.59 129.333C150.932 128.182 152.203 126.69 152.594 126.518C152.824 126.86 153.113 128.799 152.771 129.95Z" fill="#907B00"/>
<path d="M154.542 139.951V189.96" stroke="#907B00" stroke-width="6" stroke-miterlimit="10" stroke-linecap="round"/>
<path d="M160.117 138.411V144.047C160.117 146.048 159.365 147.98 158.002 149.476L156.156 151.503C155.116 152.646 154.541 154.122 154.542 155.651" stroke="#907B00" stroke-width="6" stroke-miterlimit="10" stroke-linecap="round"/>
<path d="M143.995 168.731C144.726 169.778 145.708 170.634 146.855 171.226C148.003 171.818 149.281 172.128 150.579 172.128H151.73C152.475 172.128 153.19 172.416 153.717 172.93C154.244 173.444 154.541 174.141 154.541 174.867" stroke="#907B00" stroke-width="6" stroke-miterlimit="10" stroke-linecap="round"/>
<path d="M162.547 141.181V142.489C162.547 142.626 162.519 142.76 162.466 142.886C162.413 143.012 162.335 143.127 162.236 143.223C162.137 143.319 162.02 143.396 161.891 143.448C161.762 143.5 161.624 143.527 161.484 143.527H160.951C160.74 143.527 160.537 143.609 160.388 143.754C160.239 143.9 160.155 144.098 160.155 144.304" stroke="#907B00" stroke-width="6" stroke-miterlimit="10" stroke-linecap="round"/>
<path d="M150.663 133.138V143.942C150.663 144.499 150.89 145.034 151.294 145.428C151.698 145.822 152.246 146.044 152.817 146.044C153.274 146.044 153.713 146.221 154.036 146.537C154.359 146.852 154.541 147.28 154.541 147.726" stroke="#907B00" stroke-width="6" stroke-miterlimit="10" stroke-linecap="round"/>
<path d="M159.458 165.495V166.274C159.458 166.881 159.21 167.464 158.77 167.894C158.33 168.324 157.732 168.565 157.109 168.565H155.89C155.532 168.565 155.19 168.704 154.937 168.95C154.685 169.197 154.543 169.531 154.543 169.879" stroke="#907B00" stroke-width="6" stroke-miterlimit="10" stroke-linecap="round"/>
<path d="M149.268 169.928C149.268 170.514 149.506 171.075 149.931 171.489C150.355 171.903 150.931 172.136 151.531 172.136" stroke="#907B00" stroke-width="6" stroke-miterlimit="10" stroke-linecap="round"/>
<path d="M148.248 135.277V137.643C148.248 138.031 148.406 138.403 148.687 138.677C148.968 138.951 149.349 139.105 149.747 139.105C149.867 139.105 149.987 139.128 150.098 139.172C150.209 139.217 150.31 139.283 150.395 139.366C150.48 139.449 150.548 139.547 150.594 139.656C150.64 139.765 150.663 139.881 150.663 139.998" stroke="#907B00" stroke-width="6" stroke-miterlimit="10" stroke-linecap="round"/>
<path d="M59.9394 163.262C70.8103 163.262 79.6229 152.575 79.6229 139.391C79.6229 126.208 70.8103 115.521 59.9394 115.521C49.0685 115.521 40.2559 126.208 40.2559 139.391C40.2559 152.575 49.0685 163.262 59.9394 163.262Z" fill="#907B00"/>
<path d="M66.2919 130.056C66.7038 131.74 66.3708 133.36 65.5417 134.308C65.464 134.394 65.3665 134.461 65.2572 134.503C65.1479 134.545 65.0299 134.562 64.9128 134.551C64.7957 134.541 64.6828 134.503 64.5835 134.442C64.4841 134.38 64.401 134.297 64.341 134.198C64.0056 133.655 63.7593 133.063 63.6112 132.446C63.0992 130.346 63.7398 128.35 65.0604 127.627C65.6622 128.33 66.0843 129.162 66.2919 130.056Z" fill="#B59B00"/>
<path d="M48.0828 162.814C49.5108 164.098 50.0473 165.861 49.4477 167.018C48.6562 166.794 47.9305 166.389 47.3302 165.838C45.9031 164.553 45.3666 162.792 45.9662 161.634C46.7574 161.859 47.4828 162.263 48.0828 162.814Z" fill="#B59B00"/>
<path d="M45.9522 166.901C47.0133 166.956 47.8701 167.517 48.031 168.21C47.6169 168.385 47.1662 168.461 46.7159 168.433C45.6556 168.377 44.7996 167.817 44.6387 167.124C45.0523 166.95 45.5025 166.873 45.9522 166.901Z" fill="#907B00"/>
<path d="M69.9169 135.469C69.3646 136.842 68.2026 137.718 67.1722 137.62C67.1161 136.995 67.2129 136.367 67.4547 135.787C68.0069 134.414 69.169 133.537 70.1993 133.636C70.255 134.26 70.1582 134.888 69.9169 135.469Z" fill="#B59B00"/>
<path d="M54.2788 127.491C55.1071 128.812 54.8705 129.605 54.431 130.511C53.4054 130.481 52.6063 130.306 51.7779 128.985C50.9495 127.665 50.5945 125.185 50.7681 124.675C51.303 124.755 53.4504 126.171 54.2788 127.491Z" fill="#B59B00"/>
<path d="M57.568 127.281C57.2256 128.436 56.6371 128.714 55.8758 128.942C55.3574 128.353 55.0442 127.815 55.3866 126.664C55.729 125.512 57 124.021 57.3905 123.849C57.6208 124.19 57.9104 126.129 57.568 127.281Z" fill="#B59B00"/>
<path d="M59.3384 137.282V187.291" stroke="#B59B00" stroke-width="6" stroke-miterlimit="10" stroke-linecap="round"/>
<path d="M64.9137 135.742V141.377C64.9139 143.378 64.1616 145.31 62.7994 146.806L60.9533 148.834C59.9129 149.977 59.3383 151.453 59.3384 152.981" stroke="#B59B00" stroke-width="6" stroke-miterlimit="10" stroke-linecap="round"/>
<path d="M48.792 166.062C49.5229 167.108 50.5048 167.965 51.6523 168.557C52.7999 169.149 54.0782 169.458 55.3763 169.458H56.5273C57.2723 169.458 57.9868 169.747 58.5138 170.261C59.0409 170.774 59.3374 171.471 59.3383 172.198" stroke="#B59B00" stroke-width="6" stroke-miterlimit="10" stroke-linecap="round"/>
<path d="M67.3437 138.511V139.82C67.3438 139.956 67.3164 140.091 67.263 140.217C67.2096 140.343 67.1314 140.457 67.0327 140.554C66.934 140.65 66.8168 140.726 66.6878 140.778C66.5589 140.831 66.4206 140.857 66.281 140.857H65.7477C65.5366 140.857 65.3341 140.939 65.1848 141.085C65.0355 141.231 64.9517 141.428 64.9517 141.634" stroke="#B59B00" stroke-width="6" stroke-miterlimit="10" stroke-linecap="round"/>
<path d="M55.46 130.469V141.272C55.46 141.83 55.6868 142.364 56.0907 142.759C56.4946 143.153 57.0424 143.374 57.6137 143.375C58.071 143.375 58.5095 143.552 58.8329 143.867C59.1563 144.183 59.3381 144.61 59.3383 145.056" stroke="#B59B00" stroke-width="6" stroke-miterlimit="10" stroke-linecap="round"/>
<path d="M64.2548 162.825V163.604C64.2548 164.212 64.0074 164.795 63.5669 165.225C63.1265 165.654 62.5291 165.896 61.9062 165.896H60.6865C60.3294 165.896 59.9868 166.034 59.7343 166.281C59.4817 166.527 59.3398 166.861 59.3398 167.21" stroke="#B59B00" stroke-width="6" stroke-miterlimit="10" stroke-linecap="round"/>
<path d="M54.0654 167.259C54.0654 167.844 54.3038 168.406 54.7281 168.82C55.1525 169.234 55.728 169.466 56.328 169.466" stroke="#B59B00" stroke-width="6" stroke-miterlimit="10" stroke-linecap="round"/>
<path d="M53.0449 132.608V134.973C53.0449 135.361 53.2028 135.733 53.4839 136.008C53.7651 136.282 54.1463 136.436 54.5439 136.436C54.6642 136.436 54.7834 136.458 54.8947 136.503C55.0059 136.548 55.107 136.614 55.1922 136.696C55.2773 136.779 55.3448 136.878 55.3907 136.987C55.4366 137.095 55.4601 137.211 55.4598 137.329" stroke="#B59B00" stroke-width="6" stroke-miterlimit="10" stroke-linecap="round"/>
<path d="M225.768 147.776C242.23 147.776 255.575 131.592 255.575 111.629C255.575 91.6658 242.23 75.4824 225.768 75.4824C209.307 75.4824 195.962 91.6658 195.962 111.629C195.962 131.592 209.307 147.776 225.768 147.776Z" fill="#907B00"/>
<path d="M235.388 97.492C236.011 100.042 235.507 102.496 234.252 103.931C234.134 104.061 233.986 104.163 233.821 104.227C233.655 104.291 233.477 104.316 233.299 104.3C233.122 104.284 232.951 104.227 232.801 104.134C232.65 104.041 232.524 103.915 232.433 103.765C231.925 102.942 231.553 102.047 231.328 101.111C230.553 97.9326 231.523 94.909 233.523 93.8145C234.434 94.8789 235.073 96.1394 235.388 97.492Z" fill="#B59B00"/>
<path d="M207.814 147.098C209.976 149.042 210.789 151.712 209.881 153.464C208.682 153.124 207.583 152.511 206.674 151.677C204.513 149.731 203.701 147.064 204.609 145.311C205.807 145.651 206.905 146.264 207.814 147.098Z" fill="#B59B00"/>
<path d="M204.588 153.286C206.195 153.37 207.492 154.219 207.736 155.268C207.109 155.533 206.426 155.649 205.744 155.606C204.139 155.522 202.842 154.673 202.599 153.624C203.225 153.36 203.907 153.244 204.588 153.286Z" fill="#907B00"/>
<path d="M240.877 105.689C240.041 107.768 238.281 109.095 236.721 108.946C236.636 108.001 236.783 107.049 237.149 106.17C237.985 104.091 239.745 102.763 241.305 102.913C241.389 103.859 241.243 104.81 240.877 105.689Z" fill="#B59B00"/>
<path d="M217.197 93.6089C218.451 95.6091 218.093 96.8097 217.427 98.1817C215.874 98.1363 214.664 97.8705 213.41 95.8714C212.155 93.8723 211.618 90.1166 211.881 89.3438C212.691 89.465 215.942 91.6098 217.197 93.6089Z" fill="#B59B00"/>
<path d="M222.177 93.2904C221.659 95.0388 220.767 95.4608 219.615 95.8058C218.83 94.9141 218.356 94.0993 218.874 92.3555C219.392 90.6117 221.317 88.3539 221.908 88.0928C222.257 88.6103 222.696 91.5466 222.177 93.2904Z" fill="#B59B00"/>
<path d="M224.859 108.435V184.162" stroke="#B59B00" stroke-width="6" stroke-miterlimit="10" stroke-linecap="round"/>
<path d="M233.302 106.103V114.636C233.302 117.667 232.163 120.592 230.1 122.858L227.304 125.928C225.729 127.659 224.859 129.893 224.859 132.208" stroke="#B59B00" stroke-width="6" stroke-miterlimit="10" stroke-linecap="round"/>
<path d="M208.888 152.016C209.995 153.601 211.482 154.898 213.22 155.794C214.957 156.691 216.893 157.159 218.859 157.16H220.602C221.73 157.16 222.812 157.597 223.61 158.374C224.408 159.152 224.857 160.207 224.858 161.308" stroke="#B59B00" stroke-width="6" stroke-miterlimit="10" stroke-linecap="round"/>
<path d="M236.981 110.296V112.278C236.981 112.484 236.939 112.688 236.858 112.879C236.778 113.069 236.659 113.243 236.51 113.389C236.36 113.534 236.183 113.65 235.987 113.729C235.792 113.808 235.583 113.849 235.371 113.849H234.564C234.244 113.849 233.938 113.973 233.711 114.193C233.485 114.414 233.358 114.713 233.358 115.025" stroke="#B59B00" stroke-width="6" stroke-miterlimit="10" stroke-linecap="round"/>
<path d="M218.985 98.1177V114.477C218.985 115.322 219.328 116.131 219.94 116.728C220.552 117.325 221.381 117.66 222.246 117.661C222.939 117.661 223.603 117.929 224.092 118.407C224.582 118.884 224.857 119.532 224.858 120.208" stroke="#B59B00" stroke-width="6" stroke-miterlimit="10" stroke-linecap="round"/>
<path d="M232.303 147.115V148.294C232.303 149.215 231.928 150.097 231.261 150.748C230.594 151.399 229.69 151.765 228.747 151.765H226.9C226.359 151.765 225.84 151.974 225.458 152.347C225.075 152.72 224.86 153.227 224.86 153.754" stroke="#B59B00" stroke-width="6" stroke-miterlimit="10" stroke-linecap="round"/>
<path d="M216.873 153.829C216.873 154.715 217.234 155.566 217.877 156.192C218.519 156.819 219.391 157.172 220.299 157.172" stroke="#B59B00" stroke-width="6" stroke-miterlimit="10" stroke-linecap="round"/>
<path d="M215.329 101.357V104.939C215.329 105.526 215.568 106.09 215.993 106.505C216.419 106.92 216.996 107.154 217.598 107.154C217.781 107.153 217.961 107.188 218.13 107.255C218.298 107.323 218.451 107.423 218.58 107.548C218.709 107.674 218.811 107.823 218.881 107.988C218.95 108.152 218.986 108.328 218.985 108.506" stroke="#B59B00" stroke-width="6" stroke-miterlimit="10" stroke-linecap="round"/>
<path d="M82.739 146.882L72.6646 136.886L84.0581 144.59L83.6881 137.278L89.0283 143.637L88.0863 120.881L92.0648 141.185L95.8729 137.658L95.5203 143.766L99.8199 142.032L96.4394 146.791L82.739 146.882Z" fill="#907B00"/>
<path d="M190.801 146.703L186.246 143.383L190.33 143.945L190.382 140.42L192.842 143.076L193.942 125.402L197.031 142.769L198.967 138.07L199.701 144.404L203.209 142.106L201.271 146.777L190.801 146.703Z" fill="#907B00"/>
<path d="M187.74 140.379C187.741 140.724 187.676 141.067 187.549 141.389C186.313 141.202 185.363 140.088 185.363 138.744C185.363 138.398 185.427 138.056 185.553 137.733C186.79 137.92 187.74 139.033 187.74 140.379Z" fill="#907B00"/>
<path d="M234.914 131.908C234.826 132.242 234.675 132.558 234.469 132.839C233.321 132.354 232.689 131.042 233.037 129.742C233.125 129.407 233.276 129.091 233.482 128.81C234.631 129.295 235.262 130.606 234.914 131.908Z" fill="#907B00"/>
<path d="M237.577 133.681C237.101 133.918 236.592 134.084 236.066 134.175C235.652 132.743 236.682 130.978 238.552 130.055C239.028 129.818 239.537 129.651 240.063 129.561C240.478 130.992 239.448 132.757 237.577 133.681Z" fill="#907B00"/>
<path d="M74.5264 141.009C75.0952 141.568 75.0731 141.987 74.9642 142.486C74.4522 142.588 74.0365 142.593 73.4653 142.033C72.8941 141.474 72.4247 140.288 72.4476 140.014C72.7245 139.994 73.9576 140.449 74.5264 141.009Z" fill="#B59B00"/>
<path d="M256.251 152.864C255.973 153.002 255.676 153.099 255.369 153.152C255.127 152.316 255.729 151.285 256.82 150.746C257.098 150.608 257.396 150.511 257.702 150.458C257.945 151.293 257.342 152.324 256.251 152.864Z" fill="#907B00"/>
<path d="M248.286 161.949H238.25L232.979 159.088L242.683 161.232L238.738 156.959L242.546 158.722L242.183 153.581L244.939 158.192C244.966 158.24 245.008 158.278 245.06 158.3C245.112 158.322 245.169 158.327 245.224 158.313C245.279 158.299 245.327 158.268 245.361 158.224C245.395 158.18 245.413 158.127 245.412 158.072L243.806 135.313L248.01 152.43L251.843 141.713L250.699 157.669L258.244 154.228L252.512 159.911C252.016 160.545 251.376 161.059 250.643 161.412C249.91 161.766 249.104 161.949 248.286 161.949Z" fill="#907B00"/>
<path d="M99.5865 139.546C98.841 140.216 98.3022 140.169 97.6655 140.013C97.5574 139.381 97.5716 138.871 98.3172 138.201C99.0627 137.532 100.612 137.009 100.963 137.047C100.978 137.387 100.332 138.876 99.5865 139.546Z" fill="#907B00"/>
</svg>
