<svg width="324" height="173" viewBox="0 0 324 173" fill="none" xmlns="http://www.w3.org/2000/svg">
<path d="M292.869 130.595C292.547 141.193 291.37 151.305 288.663 160.476L192.51 160.7C189.803 151.53 188.303 141.204 188.303 130.595C188.303 88.6698 211.711 54.686 240.586 54.686C269.46 54.686 294.196 86.8708 292.869 130.595Z" fill="#B59B00"/>
<path d="M0 160.932C4.87526 156.246 12.346 159.368 12.346 159.368C12.346 159.368 10.126 149.721 19.7629 146.82C30.8119 143.493 35.2311 151.737 35.2311 151.737C35.2311 151.737 37.9455 135.918 52.3486 137.397C75.3696 139.762 61.5447 162.547 86.844 155.29C98.9619 151.814 100.888 160.86 100.888 160.86L0 160.932Z" fill="#DBE5E5"/>
<path d="M323.059 160.626L198.514 160.701C203.447 156.014 211.006 159.137 211.006 159.137C211.006 159.137 208.759 149.489 218.511 146.587C222.157 145.502 225.09 145.648 227.387 146.337C229.112 146.852 230.959 146.824 232.667 146.258C234.375 145.693 235.858 144.617 236.904 143.184C239.234 140.019 243.537 137.164 251.483 137.164C258.265 137.164 263.505 140.806 269.302 144.389C270.923 142.367 273.679 141.042 276.801 141.042C281.792 141.042 285.832 144.428 285.832 148.604C285.832 149.416 285.678 150.222 285.377 150.98C289.943 151.612 295.232 151.269 301.629 149.271C319.46 143.7 323.059 160.626 323.059 160.626Z" fill="#DBE5E5"/>
<path d="M45.8723 170.47C45.8723 171.317 41.9039 172.004 37.0087 172.004C32.1135 172.004 28.1451 171.317 28.1451 170.47C28.1451 169.884 30.0456 169.374 32.8384 169.116L30.4787 165.067L34.4179 167.35V161.485L36.7046 166.001L40.6462 150.639L40.0065 166.727L44.0525 164.288L41.3065 169.131C44.0294 169.39 45.8723 169.893 45.8723 170.47Z" fill="#B59B00"/>
<path d="M289.975 151.428L269.692 151.6C269.297 151.582 268.898 151.546 268.495 151.49C258.235 150.044 252.434 146.848 249.595 141.542C248.862 142.03 248.017 142.337 247.134 142.434C246.252 142.531 245.358 142.416 244.531 142.1C243.705 141.783 242.97 141.273 242.392 140.616C241.813 139.959 241.409 139.173 241.213 138.328C241.018 137.483 241.037 136.605 241.27 135.769C241.503 134.933 241.942 134.166 242.549 133.533C243.156 132.901 243.913 132.423 244.753 132.142C245.593 131.86 246.491 131.783 247.368 131.918C247.321 130.27 247.36 128.621 247.483 126.977C248.462 113.1 255.699 103.075 266.825 102.714C277.951 102.352 287.309 111.764 287.788 125.665C287.825 126.75 287.806 127.832 287.734 128.904C288.221 128.833 288.711 128.79 289.203 128.774C295.925 128.555 302.349 133.449 302.564 139.704C302.778 145.959 296.697 151.209 289.975 151.428Z" fill="#FFDB00"/>
<path d="M267.548 115.166V160.554" stroke="#B59B00" stroke-width="5" stroke-miterlimit="10"/>
<path d="M262.917 112.907V120.357C262.917 120.804 263.007 121.247 263.183 121.66C263.359 122.074 263.616 122.449 263.94 122.766C264.265 123.082 264.65 123.333 265.074 123.504C265.498 123.676 265.952 123.764 266.411 123.764V123.764C266.713 123.764 267.002 123.881 267.215 124.088C267.429 124.296 267.548 124.578 267.548 124.872" stroke="#B59B00" stroke-width="5" stroke-miterlimit="10"/>
<path d="M267.548 120.535C267.548 119.778 267.704 119.028 268.007 118.33C268.309 117.633 268.752 117.001 269.309 116.473L271.275 114.612" stroke="#B59B00" stroke-width="5" stroke-miterlimit="10"/>
<path d="M274.859 132.5L271.564 135.045C270.312 136.011 269.301 137.241 268.605 138.642C267.91 140.044 267.548 141.58 267.548 143.137" stroke="#B59B00" stroke-width="5" stroke-miterlimit="10"/>
<path d="M267.548 159.037C267.548 157.885 268.018 156.781 268.853 155.966C269.688 155.152 270.821 154.695 272.002 154.695H278.437C280.398 154.695 282.279 153.935 283.666 152.583C285.053 151.231 285.832 149.397 285.832 147.485V140.183" stroke="#B59B00" stroke-width="5" stroke-miterlimit="10"/>
<path d="M290.474 142.154V143.391C290.474 143.898 290.268 144.384 289.9 144.743C289.532 145.101 289.034 145.303 288.514 145.303H287.793C287.273 145.303 286.775 145.504 286.407 145.863C286.04 146.221 285.833 146.707 285.833 147.214" stroke="#B59B00" stroke-width="5" stroke-miterlimit="10"/>
<path d="M285.833 141.038C285.833 141.038 282.933 138.884 284.237 135.198C284.237 135.199 287.135 137.353 285.833 141.038Z" fill="#B59B00"/>
<path d="M290.314 142.703C290.314 142.703 289.02 137.821 292.994 138.343L290.314 142.703Z" fill="#B59B00"/>
<path d="M291.317 143.4C291.317 143.4 293.207 141.497 295.603 143.4C295.603 143.4 294.165 144.776 291.317 143.4Z" fill="#B59B00"/>
<path d="M272.423 134.38C272.423 134.38 273.403 130.97 276.691 131.125C276.691 131.125 276.232 134.106 272.423 134.38Z" fill="#B59B00"/>
<path d="M265.232 143.383C265.232 143.383 261.639 142.051 262.198 138.651C262.198 138.651 264.887 138.98 265.232 143.383Z" fill="#B59B00"/>
<path d="M265.503 155.247C265.503 155.247 261.659 155.272 260.919 151.906C260.919 151.906 263.548 151.264 265.503 155.247Z" fill="#B59B00"/>
<path d="M269.309 116.474C269.309 116.474 269.491 113.427 273.005 112.908C273.005 112.907 273.306 115.368 269.309 116.474Z" fill="#B59B00"/>
<path d="M262.917 116.255C262.917 116.255 262.296 111.22 263.183 109.793C263.183 109.793 265.844 112.025 262.917 116.255Z" fill="#B59B00"/>
<path d="M261.027 116.474C261.027 116.474 257.913 116.438 257.86 112.908C257.86 112.907 260.095 113.448 261.027 116.474Z" fill="#B59B00"/>
<path d="M279.996 167.519C279.996 167.519 275.236 168.362 274.094 162.816C274.094 162.816 279.316 163.272 279.996 167.519Z" fill="#B59B00"/>
<path d="M285.275 162.971C285.275 162.971 282.93 165.47 279.427 162.725C279.427 162.725 282.705 160.788 285.275 162.971Z" fill="#423C52"/>
<path d="M41.1967 121.299C41.196 123.654 40.2932 125.925 38.6652 127.666C37.0372 129.407 34.8012 130.492 32.3953 130.71C29.9894 130.927 27.5868 130.261 25.6582 128.842C23.7296 127.423 22.414 125.353 21.969 123.037C20.2901 123.71 18.4927 124.056 16.6776 124.057C7.46302 124.057 0 115.174 0 104.217C0 93.2607 7.46609 84.3779 16.6776 84.3779C25.889 84.3779 33.3544 93.2607 33.3544 104.217C33.3609 106.816 32.9274 109.398 32.0712 111.859C34.5404 112 36.8606 113.057 38.5571 114.812C40.2535 116.566 41.1978 118.887 41.1967 121.299Z" fill="#B59B00"/>
<path d="M13.1983 143.022C17.0821 143.022 20.2305 140.137 20.2305 136.578C20.2305 133.02 17.0821 130.135 13.1983 130.135C9.31452 130.135 6.16608 133.02 6.16608 136.578C6.16608 140.137 9.31452 143.022 13.1983 143.022Z" fill="#FFDB00"/>
<path d="M37.2759 110.791C38.4977 110.791 39.4882 109.826 39.4882 108.634C39.4882 107.443 38.4977 106.478 37.2759 106.478C36.0541 106.478 35.0637 107.443 35.0637 108.634C35.0637 109.826 36.0541 110.791 37.2759 110.791Z" fill="#B59B00"/>
<path d="M16.6753 96.5898V160.75" stroke="#423C52" stroke-width="5" stroke-miterlimit="10" stroke-linecap="round"/>
<path d="M12.0434 94.4092V101.859C12.043 102.307 12.1331 102.75 12.3085 103.164C12.4839 103.578 12.7413 103.954 13.0658 104.27C13.3903 104.587 13.7757 104.839 14.1999 105.01C14.6241 105.182 15.0788 105.27 15.538 105.27C15.8395 105.27 16.1286 105.387 16.3419 105.594C16.5551 105.802 16.675 106.084 16.6752 106.378" stroke="#423C52" stroke-width="5" stroke-miterlimit="10" stroke-linecap="round"/>
<path d="M13.1668 136.097V143.547C13.1667 143.995 13.2571 144.438 13.4328 144.851C13.6084 145.265 13.866 145.641 14.1907 145.957C14.5154 146.273 14.9008 146.524 15.325 146.695C15.7493 146.866 16.2039 146.954 16.663 146.954" stroke="#423C52" stroke-width="5" stroke-miterlimit="10" stroke-linecap="round"/>
<path d="M16.6753 102.037C16.6752 101.279 16.8311 100.53 17.1335 99.8319C17.4359 99.1343 17.8789 98.5029 18.436 97.9752L20.401 96.1133" stroke="#423C52" stroke-width="5" stroke-miterlimit="10" stroke-linecap="round"/>
<path d="M23.9855 114.003L20.6913 116.544C19.4392 117.51 18.4275 118.74 17.732 120.141C17.0365 121.543 16.6753 123.079 16.6753 124.636" stroke="#423C52" stroke-width="5" stroke-miterlimit="10" stroke-linecap="round"/>
<path d="M16.6753 140.539C16.6753 139.387 17.1445 138.282 17.9798 137.468C18.815 136.654 19.9478 136.196 21.129 136.196H21.9483C22.9194 136.196 23.881 136.01 24.7783 135.648C25.6755 135.285 26.4907 134.754 27.1774 134.085C27.864 133.415 28.4087 132.621 28.7803 131.746C29.1519 130.871 29.3431 129.934 29.343 128.987V121.685" stroke="#423C52" stroke-width="5" stroke-miterlimit="10" stroke-linecap="round"/>
<path d="M33.9856 123.656V124.894C33.9856 125.401 33.779 125.887 33.4114 126.245C33.0437 126.604 32.5451 126.805 32.0252 126.805H31.3049C30.7848 126.805 30.2859 127.006 29.9182 127.365C29.5504 127.724 29.3438 128.21 29.3438 128.717" stroke="#423C52" stroke-width="5" stroke-miterlimit="10" stroke-linecap="round"/>
<path d="M29.3437 122.54C29.3437 122.54 26.4442 120.386 27.7481 116.701C27.7481 116.701 30.6468 118.855 29.3437 122.54Z" fill="#423C52"/>
<path d="M33.8251 124.201C33.8251 124.201 32.5304 119.319 36.505 119.841L33.8251 124.201Z" fill="#423C52"/>
<path d="M34.8287 124.901C34.8287 124.901 36.7185 122.998 39.1143 124.901C39.1143 124.901 37.6768 126.277 34.8287 124.901Z" fill="#423C52"/>
<path d="M21.549 115.882C21.549 115.882 22.5296 112.472 25.8169 112.627C25.8169 112.627 25.3592 115.608 21.549 115.882Z" fill="#423C52"/>
<path d="M15.8544 127.631C15.8544 127.631 12.0627 128.251 10.7864 125.041C10.7841 125.041 13.2751 124.001 15.8544 127.631Z" fill="#423C52"/>
<path d="M13.0217 140.016C13.0217 140.016 10.1521 139.654 9.9502 137.07C9.95173 137.07 11.9789 136.851 13.0217 140.016Z" fill="#423C52"/>
<path d="M34.5991 133.181C34.5991 133.181 31.8132 135.763 28.9114 133.802C28.9114 133.802 30.378 131.581 34.5991 133.181Z" fill="#423C52"/>
<path d="M15.1818 112.251C15.1818 112.251 11.3378 112.277 10.5975 108.91C10.5968 108.91 13.226 108.269 15.1818 112.251Z" fill="#423C52"/>
<path d="M18.436 97.9751C18.436 97.9751 18.618 94.928 22.1318 94.4092C22.1318 94.4092 22.4328 96.8693 18.436 97.9751Z" fill="#423C52"/>
<path d="M12.0434 97.7576C12.0434 97.7576 11.4222 92.723 12.3098 91.2954C12.3098 91.2954 14.9736 93.5271 12.0434 97.7576Z" fill="#423C52"/>
<path d="M10.1537 97.9751C10.1537 97.9751 7.03919 97.9384 6.98621 94.4092C6.98774 94.4092 9.22227 94.949 10.1537 97.9751Z" fill="#423C52"/>
<path d="M110.184 160.933C110.184 160.905 110.184 160.878 110.184 160.851C110.184 158.632 112.006 156.833 114.253 156.833C115.072 156.832 115.871 157.075 116.544 157.53C116.713 154.068 119.346 151.316 122.571 151.316C123.786 151.32 124.967 151.711 125.934 152.429C126.503 148.62 130.041 145.691 134.317 145.691C138.992 145.691 142.783 149.195 142.783 153.515C142.783 153.858 142.759 154.2 142.711 154.539C142.995 154.492 143.282 154.468 143.57 154.468C145.773 154.468 147.682 155.848 148.603 157.858L148.496 157.885H152.72C153.233 154.73 155.764 152.334 158.812 152.334C161.556 152.334 163.88 154.276 164.693 156.967C165.56 156.47 166.547 156.208 167.552 156.207C169.119 156.207 170.547 156.84 171.639 157.885C172.42 158.641 173.006 159.566 173.35 160.585V160.935L110.184 160.933Z" fill="#423C52"/>
<path d="M156.949 167.215C158.338 167.215 159.464 166.118 159.464 164.763C159.464 163.409 158.338 162.312 156.949 162.312C155.56 162.312 154.434 163.409 154.434 164.763C154.434 166.118 155.56 167.215 156.949 167.215Z" fill="#423C52"/>
<path d="M162.094 164.167C162.648 164.167 163.097 163.729 163.097 163.189C163.097 162.649 162.648 162.211 162.094 162.211C161.54 162.211 161.091 162.649 161.091 163.189C161.091 163.729 161.54 164.167 162.094 164.167Z" fill="#423C52"/>
<path d="M156.455 158.545C157.009 158.545 157.458 158.107 157.458 157.567C157.458 157.027 157.009 156.589 156.455 156.589C155.902 156.589 155.453 157.027 155.453 157.567C155.453 158.107 155.902 158.545 156.455 158.545Z" fill="white"/>
<path d="M114.058 159.851C114.426 159.851 114.724 159.56 114.724 159.202C114.724 158.843 114.426 158.552 114.058 158.552C113.69 158.552 113.391 158.843 113.391 159.202C113.391 159.56 113.69 159.851 114.058 159.851Z" fill="white"/>
<path d="M130.025 152.704C130.782 152.704 131.396 152.105 131.396 151.366C131.396 150.628 130.782 150.029 130.025 150.029C129.267 150.029 128.653 150.628 128.653 151.366C128.653 152.105 129.267 152.704 130.025 152.704Z" fill="white"/>
<path d="M59.7033 23.1464C59.7033 23.1868 59.7033 23.2273 59.7033 23.2684H140.478C140.46 20.7267 138.227 18.6754 135.48 18.6754H127.552L127.741 18.6342C126.109 15.6074 122.731 13.5291 118.827 13.5291C118.318 13.5292 117.811 13.5645 117.307 13.6347C117.392 13.1253 117.435 12.61 117.435 12.094C117.435 5.58588 110.721 0.308594 102.442 0.308594C94.8683 0.308594 88.604 4.72568 87.5934 10.4596C85.813 9.3595 83.7472 8.77843 81.6393 8.7849C75.9286 8.7849 71.2637 12.9272 70.9658 18.1431C69.7331 17.4478 68.3324 17.0859 66.9083 17.095C62.9299 17.0935 59.7033 19.8021 59.7033 23.1464Z" fill="#E5F1EF"/>
<path d="M144.243 160.682V36.8618" stroke="#423C52" stroke-width="5" stroke-miterlimit="10" stroke-linecap="round"/>
<path d="M152.14 45.8096L145.198 62.3242C144.567 63.8256 144.243 65.4325 144.243 67.0549V69.8025" stroke="#423C52" stroke-width="5" stroke-miterlimit="10" stroke-linecap="round"/>
<path d="M148.926 53.4542L153.822 51.1699" stroke="#423C52" stroke-width="5" stroke-miterlimit="10" stroke-linecap="round"/>
<path d="M141.204 44.2666L143.613 49.3275C144.028 50.1991 144.243 51.1485 144.243 52.1094V54.8046" stroke="#423C52" stroke-width="5" stroke-miterlimit="10" stroke-linecap="round"/>
<path d="M134.177 59.5264L142.803 77.1198C143.751 79.053 144.243 81.1684 144.243 83.3111V87.6024" stroke="#423C52" stroke-width="5" stroke-miterlimit="10" stroke-linecap="round"/>
<path d="M159.289 87.0083L146.212 106.848C144.926 108.785 144.243 111.043 144.243 113.35V117.237" stroke="#423C52" stroke-width="5" stroke-miterlimit="10" stroke-linecap="round"/>
<path d="M151.289 47.8329C151.289 47.8329 149.793 42.7788 155.436 40.7373C155.436 40.7351 156.902 45.724 151.289 47.8329Z" fill="#423C52"/>
<path d="M135.349 67.554C135.349 67.554 131.445 67.6925 130.345 63.6094C130.345 63.6094 134.499 63.125 135.349 67.554Z" fill="#423C52"/>
<path d="M156.891 92.6047C156.891 92.6047 158.985 89.2604 164.379 90.5347C164.379 90.5347 161.792 94.3694 156.891 92.6047Z" fill="#423C52"/>
<path d="M143.45 48.6107C143.45 48.6107 140.638 50.8567 137.813 47.6179C137.813 47.6179 141.415 46.0614 143.45 48.6107Z" fill="#423C52"/>
<path d="M135.719 62.4458C135.719 62.4458 132.829 59.3996 135.669 54.6816C135.669 54.6846 139.146 57.7616 135.719 62.4458Z" fill="#423C52"/>
<path d="M150.668 100.38C150.668 100.38 152.357 96.3124 158.991 96.7571C158.991 96.7571 156.635 101.269 150.668 100.38Z" fill="#423C52"/>
<path d="M146.26 38.1427C146.26 39.4416 145.36 40.4957 144.251 40.4957C143.142 40.4957 142.243 39.4416 142.243 38.1427C142.243 36.8439 144.251 31.6445 144.251 31.6445C144.251 31.6445 146.26 36.8424 146.26 38.1427Z" fill="#B59B00"/>
<path d="M142.414 46.8076C142.414 46.8076 137.762 45.5125 139.253 40.0459C139.253 40.0459 143.729 42.7051 142.414 46.8076Z" fill="#B59B00"/>
<path d="M135.349 62.3062C135.349 62.3062 131.325 60.5641 131.538 55.0967C131.538 55.0967 136.094 56.5955 135.349 62.3062Z" fill="#B59B00"/>
<path d="M140.46 67.9341C140.46 67.9341 137.798 64.9933 139.856 60.979C139.856 60.979 142.624 64.4049 140.46 67.9341Z" fill="#B59B00"/>
<path d="M150.922 95.6661C150.922 95.6661 148.054 90.3903 152.842 86.7227C152.846 86.7227 155.174 91.6339 150.922 95.6661Z" fill="#B59B00"/>
<path d="M157.227 90.2449C157.227 90.2449 156.643 84.4053 161.398 82.5337C161.398 82.5359 162.709 87.4696 157.227 90.2449Z" fill="#B59B00"/>
<path d="M150.668 100.38C150.668 100.38 153.848 97.399 160.396 99.568C160.396 99.568 156.417 102.799 150.668 100.38Z" fill="#B59B00"/>
<path d="M152.051 51.9958C152.051 51.9958 153.058 48.2456 157.849 49.3185C157.849 49.3185 156.367 52.9436 152.051 51.9958Z" fill="#B59B00"/>
<path d="M151.307 47.7252C151.307 47.7252 152.313 43.9751 157.105 45.048C157.108 45.048 155.623 48.6715 151.307 47.7252Z" fill="#B59B00"/>
<path d="M190.677 84.8535C192.007 89.7947 186.986 89.475 188.292 93.3134C189.597 97.1518 197.281 95.1768 197.281 95.1768L196.994 84.8573L190.677 84.8535Z" fill="#FFDB00"/>
<path d="M196.096 91.3819L196.119 94.9971H204.28L202.12 89.1128L196.096 91.3819Z" fill="#A0505A"/>
<path d="M202.179 89.2737L196.119 94.9978L196.099 91.3804L202.12 89.1128L202.179 89.2737Z" fill="#423C52"/>
<path d="M190.677 84.8533C190.237 84.2416 189.825 81.9118 193.339 80.3898C196.853 78.8677 198.84 78.313 202.424 80.943C206.009 83.5731 210.657 85.8565 210.729 90.8388C210.8 95.8212 206.122 97.2399 201.864 96.7211C197.606 96.2022 197.356 91.3082 200.078 89.9082L197.518 85.4799C197.518 85.4799 192.277 87.0678 190.677 84.8533Z" fill="#FFDB00"/>
<path d="M213.978 93.8319C214.864 93.8319 215.583 93.1317 215.583 92.268C215.583 91.4043 214.864 90.7041 213.978 90.7041C213.093 90.7041 212.374 91.4043 212.374 92.268C212.374 93.1317 213.093 93.8319 213.978 93.8319Z" fill="#FFDB00"/>
<path d="M190.705 84.8906C193.357 86.6732 196.639 85.7142 196.639 85.7142L198.507 85.2058C199.135 85.0336 199.807 85.1028 200.384 85.3992C200.96 85.6956 201.399 86.1965 201.608 86.7987C201.817 87.4009 201.781 88.0583 201.508 88.6355C201.234 89.2127 200.744 89.6655 200.138 89.9007L196.02 91.4564C195.608 91.6121 195.167 91.6808 194.725 91.658C194.284 91.6351 193.852 91.5213 193.459 91.324C193.066 91.1267 192.721 90.8503 192.445 90.5133C192.17 90.1762 191.971 89.786 191.861 89.3684L191.691 88.7201L191.077 88.8481C191.011 88.8617 190.944 88.8606 190.879 88.8446C190.814 88.8287 190.754 88.7985 190.703 88.7563C190.653 88.714 190.613 88.661 190.586 88.6012C190.56 88.5415 190.548 88.4766 190.551 88.4116L190.705 84.8906Z" fill="#A0505A"/>
<path d="M193.047 87.9665C193.221 87.9057 193.274 87.6162 193.165 87.3201C193.056 87.024 192.826 86.8333 192.652 86.8942C192.478 86.955 192.425 87.2445 192.534 87.5406C192.643 87.8367 192.873 88.0274 193.047 87.9665Z" fill="#423C52"/>
<path d="M199.697 85.9604C198.903 86.1491 198.426 86.9659 198.63 87.7864" stroke="#423C52" stroke-width="5" stroke-miterlimit="10" stroke-linecap="round"/>
<path d="M184.368 123.189C182.634 124.979 180.762 126.911 178.839 128.889C176.645 131.146 174.385 133.464 172.198 135.702C165.051 143.01 158.634 149.471 157.574 150.214C155.019 152.004 150.787 154.653 142.882 154.65C140.86 154.65 137.251 151.026 135.408 149.02C135.311 148.912 135.247 148.778 135.226 148.635C135.204 148.492 135.225 148.346 135.287 148.214C135.349 148.083 135.449 147.971 135.574 147.894C135.699 147.817 135.845 147.776 135.993 147.777C138.834 147.827 142.742 147.505 143.672 146.163C145.349 143.75 139.766 145.075 139.926 142.737C139.926 142.737 147.112 141.649 149.428 139.675C150.356 138.885 161.697 124.824 171.408 112.716C171.408 112.716 172.054 118.297 184.368 123.189Z" fill="#A0505A"/>
<path d="M147.427 152.348C145.36 152.931 143.093 153.322 140.056 153.322" stroke="#423C52" stroke-width="5" stroke-miterlimit="10" stroke-linecap="round"/>
<path d="M145.82 150.705C143.753 151.288 141.333 151.679 138.295 151.679" stroke="#423C52" stroke-width="5" stroke-miterlimit="10" stroke-linecap="round"/>
<path d="M144.218 149.066C142.151 149.65 139.654 150.04 136.616 150.04" stroke="#423C52" stroke-width="5" stroke-miterlimit="10" stroke-linecap="round"/>
<path d="M171.957 135.624C171.336 134.767 171.005 133.742 171.009 132.693C171.009 129.997 173.125 127.814 175.737 127.814C176.779 127.816 177.79 128.168 178.598 128.81" stroke="#423C52" stroke-width="5" stroke-miterlimit="10" stroke-linecap="round"/>
<path d="M238.615 127.495V127.507C238.615 136.684 201.971 126.431 201.971 126.431C201.971 126.431 238.369 120.383 238.614 127.431C238.614 127.452 238.615 127.474 238.615 127.495Z" fill="#423C52"/>
<path d="M238.383 127.264C238.137 120.562 202.051 126.313 202.051 126.313L195.212 115.558C195.049 115.303 194.828 115.087 194.566 114.928C194.304 114.769 194.008 114.671 193.701 114.641C193.394 114.612 193.084 114.651 192.795 114.757C192.506 114.862 192.246 115.031 192.034 115.251C190.345 117.003 187.597 119.852 184.366 123.187C172.054 118.296 171.411 112.714 171.411 112.714C174.823 108.459 178.034 104.445 180.521 101.334C182.055 99.4145 184.018 97.8616 186.261 96.7935C188.503 95.7254 190.966 95.1703 193.462 95.1704H210.936C213.3 95.1699 215.629 95.7234 217.727 96.7843C219.825 97.8451 221.631 99.3822 222.992 101.266C228.811 109.323 238.291 122.993 238.383 127.264Z" fill="white" stroke="#423C52" stroke-width="5" stroke-miterlimit="10"/>
<path d="M232.577 124.575C232.577 124.575 233.498 126.467 234.394 129.841C235.636 134.517 236.373 140.868 232.5 143.622C226.126 148.151 199.23 146.528 199.23 146.528V160.853H184.171C181.214 160.853 178.343 159.881 176.022 158.094C173.701 156.308 172.066 153.811 171.38 151.006C170.694 148.202 170.998 145.254 172.242 142.638C173.486 140.023 175.598 137.892 178.237 136.591C186.243 132.644 198.586 126.964 202.128 126.462L232.577 124.575Z" fill="#FE552F"/>
<path d="M226.294 126.794C228.625 134.265 228.812 142.881 224.4 146.002" stroke="#423C52" stroke-width="5" stroke-linecap="round" stroke-linejoin="round"/>
<path d="M233.887 128.079C226.699 125.961 205.321 125.93 202.132 126.469C222.12 123.089 232.601 124.481 232.601 124.481C232.601 124.481 233.619 126.138 233.887 128.079Z" fill="#423C52"/>
<path d="M187.245 146.15H198.467" stroke="#423C52" stroke-width="5" stroke-linecap="round" stroke-linejoin="round"/>
<path d="M221.779 138.715L217.034 141.844L212.29 138.715V131.854H221.779V138.715Z" stroke="#423C52" stroke-width="5" stroke-linecap="round" stroke-linejoin="round"/>
<path d="M234.491 140.935L231.516 138.715V131.854H234.651" stroke="#423C52" stroke-width="5" stroke-linecap="round" stroke-linejoin="round"/>
<path d="M242.419 164.01L236.276 160.965C235.503 160.717 234.694 160.591 233.88 160.59H209.056C209.042 160.591 209.028 160.591 209.013 160.59C207.435 160.535 206.163 157.347 206.163 153.422C206.163 149.463 207.458 146.252 209.056 146.252C209.108 146.252 209.159 146.256 209.21 146.263L234.884 145.654L246.805 164.129C246.805 164.129 244.386 165.008 242.419 164.01Z" fill="#423C52"/>
<path d="M244.352 152.524C247.693 157.209 249.03 162.651 247.567 163.655C245.739 164.908 240.631 161.891 237.186 156.972C233.741 152.053 231.521 146.527 235.366 145.654C237.542 145.16 240.594 147.253 244.352 152.524Z" fill="white" stroke="#907B00" stroke-width="5" stroke-miterlimit="10"/>
<path d="M233.566 149.696H242.148" stroke="#907B00" stroke-width="5" stroke-miterlimit="10"/>
<path d="M233.327 147.82H240.339" stroke="#907B00" stroke-width="5" stroke-miterlimit="10"/>
<path d="M234.046 151.365H243.499" stroke="#907B00" stroke-width="5" stroke-miterlimit="10"/>
<path d="M234.797 153.033H244.706" stroke="#907B00" stroke-width="5" stroke-miterlimit="10"/>
<path d="M235.751 154.702H245.738" stroke="#907B00" stroke-width="5" stroke-miterlimit="10"/>
<path d="M236.907 156.371H246.599" stroke="#907B00" stroke-width="5" stroke-miterlimit="10"/>
<path d="M238.032 158.04H247.051H247.299" stroke="#907B00" stroke-width="5" stroke-miterlimit="10"/>
<path d="M239.431 159.708H247.824" stroke="#907B00" stroke-width="5" stroke-miterlimit="10"/>
<path d="M241.276 161.376H248.047" stroke="#907B00" stroke-width="5" stroke-miterlimit="10"/>
<path d="M232.044 164.489L224.003 161.224C223.229 160.976 222.42 160.85 221.606 160.849H196.786C196.772 160.85 196.758 160.85 196.744 160.849C195.165 160.794 193.893 157.606 193.893 153.681C193.893 149.915 195.429 146.261 196.952 145.913H222.613L234.873 164.03C235.193 164.563 233.156 164.991 232.044 164.489Z" fill="#8C7200"/>
<path d="M198.523 160.853H197.775C196.529 159.799 195.625 156.851 195.625 153.423C195.625 150.041 196.624 146.992 197.929 145.915H198.69C197.399 146.289 196.012 149.434 196.012 153.423C196.01 157.511 197.291 160.479 198.523 160.853Z" fill="white"/>
<path d="M231.841 152.941C235.182 157.627 236.519 163.068 235.056 164.072C233.228 165.326 228.12 162.309 224.675 157.39C221.23 152.47 219.01 146.944 222.854 146.071C225.031 145.577 228.083 147.671 231.841 152.941Z" fill="white" stroke="#8C7200" stroke-width="5" stroke-miterlimit="10"/>
<path d="M230.622 163.913L228.419 163.02C226.344 161.611 224.546 159.85 223.112 157.82C220.255 153.739 218.952 149.485 219.872 147.235C220.081 146.692 220.464 146.23 220.963 145.915H221.917C221.105 146.133 220.539 146.624 220.232 147.373C219.358 149.513 220.644 153.626 223.432 157.609C225.462 160.513 228.283 162.761 230.622 163.913Z" fill="white"/>
<path d="M220.969 147.534H227.034" stroke="#8C7200" stroke-width="5" stroke-miterlimit="10"/>
<path d="M220.816 149.201H228.809" stroke="#8C7200" stroke-width="5" stroke-miterlimit="10"/>
<path d="M221.137 150.87H230.148" stroke="#8C7200" stroke-width="5" stroke-miterlimit="10"/>
<path d="M221.779 152.539H231.589" stroke="#8C7200" stroke-width="5" stroke-miterlimit="10"/>
<path d="M222.661 154.207H232.733" stroke="#8C7200" stroke-width="5" stroke-miterlimit="10"/>
<path d="M223.624 155.875H233.622" stroke="#8C7200" stroke-width="5" stroke-miterlimit="10"/>
<path d="M224.827 157.544H234.425" stroke="#8C7200" stroke-width="5" stroke-miterlimit="10"/>
<path d="M226.03 159.213H234.969" stroke="#8C7200" stroke-width="5" stroke-miterlimit="10"/>
<path d="M227.555 160.881H235.478" stroke="#8C7200" stroke-width="5" stroke-miterlimit="10"/>
<path d="M229.64 162.55H235.644" stroke="#8C7200" stroke-width="5" stroke-miterlimit="10"/>
<path d="M91.1649 164.713H73.9698C73.9698 164.713 69.5929 163.46 69.9768 157.107C70.1066 154.978 70.575 152.496 71.2653 149.396L71.2822 149.162C76.4193 149.373 81.935 149.202 87.0921 148.256C86.2282 152.606 85.8158 155.999 86.2136 157.655C87.0122 160.979 91.1649 164.713 91.1649 164.713Z" fill="white" stroke="#423C52" stroke-width="5" stroke-miterlimit="10"/>
<path d="M87.085 148.3L86.1006 154.905C86.1006 154.905 75.6298 154.122 70.9266 150.984L71.2652 149.161H71.3113C76.4515 149.371 81.9648 149.215 87.085 148.3Z" fill="#423C52"/>
<path d="M91.796 165.386C91.796 165.475 91.7781 165.562 91.7433 165.644C91.7085 165.725 91.6576 165.799 91.5934 165.861C91.5291 165.924 91.4529 165.973 91.3691 166.006C91.2853 166.04 91.1955 166.057 91.1049 166.056H74.0234C74.2057 166.056 74.3805 165.986 74.5094 165.86C74.6383 165.734 74.7107 165.564 74.7107 165.386C74.7107 165.209 74.6383 165.038 74.5094 164.913C74.3805 164.787 74.2057 164.716 74.0234 164.716H91.1087C91.2907 164.717 91.4649 164.788 91.5936 164.914C91.7223 165.039 91.795 165.209 91.796 165.386Z" fill="white" stroke="#423C52" stroke-width="5" stroke-miterlimit="10"/>
<path d="M73.9704 164.713H55.486C55.122 164.713 54.7628 164.632 54.4359 164.476C54.109 164.32 53.823 164.093 53.5998 163.812C53.3765 163.532 53.2219 163.206 53.1477 162.858C53.0735 162.511 53.0816 162.152 53.1716 161.808L56.6908 147.609C60.4419 148.238 65.6327 148.93 71.2805 149.162L71.2636 149.396C70.5725 152.496 70.1049 154.978 69.9751 157.107C69.5919 163.461 73.9704 164.713 73.9704 164.713Z" fill="white" stroke="#423C52" stroke-width="5" stroke-miterlimit="10"/>
<path d="M71.2653 149.161L70.1995 154.906C70.1995 154.906 61.9325 153.395 56.4084 148.749L56.6902 147.61C60.3914 148.23 65.56 148.912 71.1854 149.153L71.2653 149.161Z" fill="#423C52"/>
<path d="M74.7093 165.388C74.7093 165.475 74.6915 165.563 74.657 165.644C74.6224 165.725 74.5718 165.799 74.508 165.861C74.4442 165.923 74.3684 165.973 74.285 166.006C74.2016 166.04 74.1123 166.057 74.022 166.057H53.7876C53.6913 166.067 53.5939 166.057 53.5017 166.028C53.4095 165.999 53.3247 165.951 53.2527 165.888C53.1806 165.825 53.123 165.748 53.0836 165.662C53.0442 165.575 53.0238 165.482 53.0238 165.388C53.0238 165.293 53.0442 165.2 53.0836 165.113C53.123 165.027 53.1806 164.95 53.2527 164.887C53.3247 164.824 53.4095 164.776 53.5017 164.747C53.5939 164.718 53.6913 164.708 53.7876 164.718H74.0236C74.2052 164.719 74.3791 164.79 74.5074 164.915C74.6357 165.041 74.7083 165.21 74.7093 165.388Z" fill="white" stroke="#423C52" stroke-width="5" stroke-miterlimit="10"/>
<path d="M93.8264 77.5072L87.7325 58.6104C89.461 58.8866 94.9752 59.6308 100.8 73.99C101.906 76.7174 112.811 101.281 112.811 101.281C112.811 101.281 113.712 106.113 109.244 105.997C106.845 105.929 95.4858 85.7589 93.8264 77.5072Z" fill="#A0505A"/>
<path d="M97.3932 104.353C96.451 113.399 89.9348 135.158 87.334 148.258C76.5069 150.245 63.8538 148.81 56.6956 147.612C53.0935 147.008 50.819 146.465 50.7407 146.446C51.246 132.035 60.3446 121.712 63.6772 98.8005C65.5355 86.0239 65.3665 72.4582 65.3143 63.6779C65.3105 62.948 65.4546 62.2245 65.7384 61.5491C66.0223 60.8736 66.4402 60.2595 66.9683 59.7421C67.4963 59.2246 68.124 58.814 68.8153 58.5338C69.5066 58.2536 70.2479 58.1094 70.9966 58.1094H85.0565C86.5585 58.11 88.0232 58.565 89.2487 59.4117C90.4742 60.2584 91.4 61.455 91.8983 62.8364C94.4315 69.8596 99.4696 84.4232 97.3932 104.353Z" fill="#FFDB00"/>
<path d="M83.4416 101.94C82.332 112.152 73.5905 134.594 71.3928 149.779" stroke="#423C52" stroke-width="5" stroke-miterlimit="10" stroke-linecap="round"/>
<path d="M106.57 106.828L90.8632 102.411C90.1374 102.207 89.4655 101.852 88.8938 101.371C88.3221 100.89 87.8643 100.293 87.5518 99.6227C87.2393 98.9522 87.0795 98.2237 87.0836 97.4872C87.0876 96.7508 87.2553 96.0239 87.5751 95.3567L96.9348 75.8252L115.781 81.1661L113.205 102.559C113.112 103.29 112.857 103.992 112.459 104.618C112.06 105.244 111.527 105.778 110.897 106.184C110.266 106.59 109.553 106.858 108.806 106.969C108.059 107.08 107.296 107.032 106.57 106.828Z" fill="white" stroke="#423C52" stroke-width="5" stroke-miterlimit="10" stroke-linecap="round"/>
<path d="M115.781 81.17C115.182 83.1966 110.602 83.6406 105.354 82.1695C100.105 80.6984 96.3359 77.8557 96.9349 75.8291C97.5338 73.8025 102.275 73.3585 107.523 74.8304C112.772 76.3022 116.381 79.1434 115.781 81.17Z" fill="white" stroke="#423C52" stroke-width="5" stroke-miterlimit="10" stroke-linecap="round"/>
<path d="M114.833 80.8697C115.318 79.2321 111.897 76.8328 107.192 75.5108C102.488 74.1887 98.2824 74.4445 97.7982 76.0822C97.314 77.7198 100.735 80.1191 105.439 81.4411C110.143 82.7632 114.349 82.5073 114.833 80.8697Z" fill="#423C52"/>
<path d="M124.637 85.9814L124.003 88.1241L121.218 91.9595L113.093 103.153L114.367 93.4725L120.735 88.8264L124.637 85.9814Z" fill="white" stroke="#423C52" stroke-width="5" stroke-miterlimit="10" stroke-linecap="round"/>
<path d="M124.637 85.9814L124.003 88.1241L121.218 91.9596C120.764 91.0709 120.571 89.9734 120.735 88.8264L124.637 85.9814Z" fill="#423C52"/>
<path d="M129.365 88.1C129.745 85.5266 128.321 83.1974 126.184 82.8976C124.048 82.5978 122.008 84.4409 121.628 87.0143C121.248 89.5877 122.672 91.9169 124.809 92.2167C126.945 92.5165 128.985 90.6734 129.365 88.1Z" fill="white" stroke="#423C52" stroke-width="5" stroke-miterlimit="10" stroke-linecap="round"/>
<path d="M126.335 85.361C126.372 85.1093 126.233 84.8815 126.024 84.8522C125.815 84.8229 125.615 85.0031 125.578 85.2548C125.541 85.5064 125.68 85.7342 125.889 85.7636C126.098 85.7929 126.298 85.6126 126.335 85.361Z" fill="white" stroke="#423C52" stroke-width="5" stroke-miterlimit="10" stroke-linecap="round"/>
<path d="M125.613 89.8194C125.65 89.5677 125.511 89.3399 125.302 89.3106C125.093 89.2813 124.893 89.4615 124.856 89.7132C124.819 89.9649 124.958 90.1927 125.167 90.2221C125.376 90.2514 125.576 90.0711 125.613 89.8194Z" fill="white" stroke="#423C52" stroke-width="5" stroke-miterlimit="10" stroke-linecap="round"/>
<path d="M126.014 87.6295C126.051 87.3779 125.912 87.1501 125.703 87.1207C125.494 87.0914 125.294 87.2717 125.257 87.5233C125.22 87.775 125.359 88.0028 125.568 88.0321C125.778 88.0614 125.977 87.8812 126.014 87.6295Z" fill="white" stroke="#423C52" stroke-width="5" stroke-miterlimit="10" stroke-linecap="round"/>
<path d="M127.86 86.6915C127.897 86.4397 127.757 86.2119 127.548 86.1826C127.339 86.1532 127.14 86.3335 127.103 86.5852C127.065 86.837 127.205 87.0648 127.414 87.0941C127.623 87.1235 127.822 86.9432 127.86 86.6915Z" fill="white" stroke="#423C52" stroke-width="5" stroke-miterlimit="10" stroke-linecap="round"/>
<path d="M127.538 88.959C127.575 88.7073 127.436 88.4795 127.227 88.4501C127.018 88.4208 126.818 88.6011 126.781 88.8528C126.744 89.1045 126.883 89.3324 127.092 89.3617C127.302 89.391 127.501 89.2108 127.538 88.959Z" fill="white" stroke="#423C52" stroke-width="5" stroke-miterlimit="10" stroke-linecap="round"/>
<path d="M124.41 86.2218C124.447 85.9701 124.308 85.7423 124.099 85.7129C123.89 85.6836 123.69 85.8639 123.653 86.1156C123.616 86.3672 123.755 86.5951 123.964 86.6244C124.173 86.6537 124.373 86.4735 124.41 86.2218Z" fill="white" stroke="#423C52" stroke-width="5" stroke-miterlimit="10" stroke-linecap="round"/>
<path d="M124.089 88.4893C124.126 88.2376 123.986 88.0097 123.777 87.9804C123.568 87.9511 123.369 88.1314 123.332 88.3831C123.294 88.6348 123.434 88.8627 123.643 88.892C123.852 88.9213 124.051 88.741 124.089 88.4893Z" fill="white" stroke="#423C52" stroke-width="5" stroke-miterlimit="10" stroke-linecap="round"/>
<path d="M96.8551 75.9073L93.0625 74.7409C88.5727 73.4794 84.2818 77.2444 85.0973 81.7304L87.5752 95.3605L96.8551 75.9073Z" stroke="#423C52" stroke-width="5" stroke-miterlimit="10" stroke-linecap="round"/>
<path d="M127.477 86.6299C128.835 86.6299 130.138 87.1559 131.098 88.0922C132.059 89.0286 132.598 90.2985 132.598 91.6227V144.489" stroke="#DBE5E5" stroke-width="5" stroke-miterlimit="10" stroke-linecap="round" stroke-dasharray="15 15"/>
<path d="M126.099 85.3027H129.917C130.711 85.3026 131.498 85.4551 132.232 85.7515C132.966 86.0479 133.633 86.4824 134.195 87.0302C134.757 87.578 135.203 88.2283 135.507 88.944C135.811 89.6597 135.967 90.4268 135.967 91.2014V145.025" stroke="#DBE5E5" stroke-width="5" stroke-miterlimit="10" stroke-linecap="round" stroke-dasharray="15 15"/>
<path d="M127.238 88.8999C128.168 88.9897 128.829 90.5874 128.829 93.3447L128.905 146.289" stroke="#DBE5E5" stroke-width="5" stroke-miterlimit="10" stroke-linecap="round" stroke-dasharray="15 15"/>
<path d="M125.218 89.7476V150.849" stroke="#DBE5E5" stroke-width="5" stroke-miterlimit="10" stroke-linecap="round" stroke-dasharray="15 15"/>
<path d="M117.01 93.4014C117.01 93.4014 118.581 96.3076 118.316 98.4361C118.051 100.564 114.76 104.326 111.174 105.997C111.174 105.997 113.365 104.694 112.087 100.233C111.439 97.9651 117.01 93.4014 117.01 93.4014Z" fill="#A0505A"/>
<path d="M116.208 95.2783C116.208 95.2783 117.377 98.4975 117.111 100.626" stroke="#423C52" stroke-width="5" stroke-miterlimit="10" stroke-linecap="round"/>
<path d="M114.844 96.9214C114.844 96.9214 116.013 100.141 115.747 102.269" stroke="#423C52" stroke-width="5" stroke-miterlimit="10" stroke-linecap="round"/>
<path d="M113.32 98.4072C113.32 98.4072 114.489 101.626 114.223 103.755" stroke="#423C52" stroke-width="5" stroke-miterlimit="10" stroke-linecap="round"/>
<path d="M96.0548 111.174C93.2214 110.219 84.3585 104.306 76.6951 93.8978C74.8142 91.3456 73.096 88.6831 71.5503 85.9254C68.2922 80.1076 65.6115 73.4498 64.2347 66.1054C63.602 62.7312 64.8267 60.7204 66.48 59.5607C69.7888 57.2398 74.4659 58.7042 75.8827 62.428C79.4725 71.8611 88.7869 93.9465 99.3652 100.123C101.515 101.377 95.3108 101.079 94.8938 101.569C94.1121 102.484 96.9379 104.083 104.339 105.966C106.05 106.401 97.6397 111.709 96.0548 111.174Z" fill="#A0505A"/>
<path d="M96.5439 105.409C98.1097 106.072 99.9595 106.74 103.378 107.374" stroke="#423C52" stroke-width="5" stroke-miterlimit="10" stroke-linecap="round"/>
<path d="M95.0198 106.661C96.5855 107.324 98.3547 107.913 101.77 108.547" stroke="#423C52" stroke-width="5" stroke-miterlimit="10" stroke-linecap="round"/>
<path d="M93.2544 107.99C94.8209 108.654 95.8652 109.321 99.2838 109.955" stroke="#423C52" stroke-width="5" stroke-miterlimit="10" stroke-linecap="round"/>
<path d="M71.7883 85.8477C72.0305 85.701 72.2905 85.5843 72.5623 85.5003C74.707 84.8393 77.1097 86.3523 77.9298 88.8797C78.5441 90.7701 78.0972 92.6933 76.9315 93.8208" stroke="#423C52" stroke-width="5" stroke-miterlimit="10" stroke-linecap="round"/>
<path d="M84.5438 58.115C84.5468 58.206 84.5398 58.2972 84.523 58.3868C84.4186 59.0067 83.8212 60.4703 80.5247 60.4246C76.3459 60.3677 76.5701 58.115 76.5701 58.115L79.005 53.3984H85.542L84.5438 58.115Z" fill="#A0505A"/>
<path d="M84.5438 58.1151L85.542 53.3984H80.5508C80.5508 53.3984 80.5416 56.9996 84.5438 58.1151Z" fill="#423C52"/>
<path d="M87.8555 47.206C87.5061 46.2402 86.5501 46.0164 86.514 46.0037C86.5286 46.0336 86.8741 46.7673 85.3399 48.3896C83.7734 50.0463 80.556 49.3074 80.556 49.3074H78.8229C78.4122 49.308 78.0116 49.4314 77.6752 49.661C77.3388 49.8906 77.0827 50.2154 76.9416 50.5913C76.8603 50.8071 76.819 51.0353 76.8195 51.2651V51.3535C76.8195 51.358 76.8195 51.3632 76.8195 51.3677C76.3204 53.118 74.4099 54.7508 71.8421 55.4044C68.4634 56.2653 65.2291 55.1049 64.6164 52.8201C64.0036 50.5352 66.2427 47.9793 69.6206 47.1184C72.1769 46.4671 74.6525 46.9687 75.9702 48.2481C75.7974 45.1038 77.7901 42.5502 81.1918 42.6018C86.861 42.6872 88.0612 47.7742 87.8555 47.206Z" fill="#FE552F"/>
<path d="M61.2654 55.1793C62.2624 55.1793 63.0706 54.3913 63.0706 53.4192C63.0706 52.4472 62.2624 51.6592 61.2654 51.6592C60.2683 51.6592 59.4601 52.4472 59.4601 53.4192C59.4601 54.3913 60.2683 55.1793 61.2654 55.1793Z" fill="#FE552F"/>
<path d="M85.8975 55.8923C83.1016 56.4807 80.5561 53.3963 80.5561 53.3963H78.823C78.2914 53.3963 77.7815 53.1906 77.4053 52.8244C77.0291 52.4582 76.8173 51.9613 76.8165 51.443V51.2686C76.8164 51.0116 76.8683 50.7572 76.969 50.5198C77.0698 50.2823 77.2176 50.0666 77.4039 49.8849C77.5903 49.7031 77.8115 49.559 78.055 49.4606C78.2985 49.3622 78.5594 49.3116 78.823 49.3116H80.5561C80.5561 49.3116 83.7735 50.0505 85.34 48.3938C86.8757 46.7714 86.5287 46.0378 86.5141 46.0078C86.6535 46.0475 86.7895 46.0976 86.9211 46.1575C87.3349 46.347 87.6551 46.7348 87.8878 47.2513C89.0343 49.784 88.0829 55.4326 85.8975 55.8923Z" fill="#A0505A"/>
<path d="M80.0239 51.7347C80.0239 51.5436 79.9853 51.3544 79.9103 51.1778C79.8352 51.0012 79.7253 50.8407 79.5867 50.7056C79.448 50.5704 79.2835 50.4632 79.1024 50.3901C78.9213 50.3169 78.7272 50.2793 78.5311 50.2793" stroke="#423C52" stroke-width="5" stroke-miterlimit="10" stroke-linecap="round"/>
<path d="M88.3769 49.7086C88.3769 49.7086 86.1785 49.6337 86.1785 53.2806" stroke="#423C52" stroke-width="5" stroke-miterlimit="10" stroke-linecap="round"/>
<path d="M87.8008 51.5732C87.8657 51.3166 87.7962 51.0793 87.6456 51.043C87.4949 51.0067 87.32 51.1853 87.2551 51.4418C87.1901 51.6983 87.2596 51.9357 87.4103 51.9719C87.561 52.0082 87.7358 51.8297 87.8008 51.5732Z" fill="#423C52"/>
<path d="M84.3517 51.4712C84.4221 51.1934 84.3469 50.9364 84.1839 50.8972C84.0208 50.8579 83.8316 51.0513 83.7613 51.3291C83.6909 51.6069 83.7661 51.8638 83.9291 51.9031C84.0922 51.9424 84.2814 51.749 84.3517 51.4712Z" fill="#423C52"/>
</svg>
