<svg width="280" height="280" viewBox="0 0 280 280" fill="none" xmlns="http://www.w3.org/2000/svg">
<path d="M62.2441 207.015L70.185 208.32V221.127L62.2441 222.667V207.015Z" fill="#EBEBEB"/>
<path d="M71.176 206.786H70.6496C70.2382 206.786 69.9048 207.119 69.9048 207.53V221.693C69.9048 222.104 70.2382 222.438 70.6496 222.438H71.176C71.5873 222.438 71.9208 222.104 71.9208 221.693V207.53C71.9208 207.119 71.5873 206.786 71.176 206.786Z" fill="#EBEBEB"/>
<path d="M71.5117 210.985H72.6317C73.2258 210.985 73.7956 211.221 74.2156 211.641C74.6357 212.062 74.8717 212.631 74.8717 213.225V214.816C74.8717 215.41 74.6357 215.98 74.2156 216.4C73.7956 216.82 73.2258 217.056 72.6317 217.056H71.5117V211.008V210.985Z" fill="#EBEBEB"/>
<path d="M69.843 221.2C69.7366 221.2 69.647 218.327 69.647 214.788C69.647 211.249 69.7366 208.37 69.843 208.37C69.9494 208.37 70.0446 211.243 70.0446 214.788C70.0446 218.333 69.955 221.2 69.843 221.2Z" fill="#E0E0E0"/>
<path d="M71.8144 221.267C71.7024 221.267 71.6128 218.395 71.6128 214.85C71.6128 211.305 71.7024 208.432 71.8144 208.432C71.9264 208.432 72.0104 211.305 72.0104 214.85C72.0104 218.395 71.9208 221.267 71.8144 221.267Z" fill="#E0E0E0"/>
<path d="M33.7285 256.995V191.979C33.7285 188.198 35.2307 184.571 37.9045 181.898C40.5783 179.224 44.2048 177.722 47.9861 177.722C49.8584 177.722 51.7125 178.09 53.4423 178.807C55.1721 179.523 56.7438 180.574 58.0678 181.898C59.3917 183.222 60.4419 184.793 61.1584 186.523C61.8749 188.253 62.2437 190.107 62.2437 191.979V256.995H33.7285Z" fill="#EBEBEB"/>
<path d="M64.1146 193.53H32.1442C30.539 193.53 29.2378 194.832 29.2378 196.437V198.503C29.2378 200.108 30.539 201.41 32.1442 201.41H64.1146C65.7197 201.41 67.021 200.108 67.021 198.503V196.437C67.021 194.832 65.7197 193.53 64.1146 193.53Z" fill="#EBEBEB"/>
<path d="M43.585 178.752V178.192C43.5223 177.112 43.8911 176.05 44.6104 175.242C45.3297 174.433 46.3406 173.943 47.421 173.88L48.541 173.824C49.078 173.801 49.6141 173.885 50.1187 174.07C50.6233 174.255 51.0865 174.537 51.4818 174.901C51.8771 175.266 52.1968 175.704 52.4224 176.192C52.6481 176.679 52.7754 177.207 52.797 177.744L52.8474 178.713L43.585 178.752Z" fill="#EBEBEB"/>
<path d="M47.6279 172.233H48.748C48.9579 172.239 49.1573 172.327 49.3037 172.477C49.4502 172.628 49.532 172.83 49.5319 173.04V174.518H46.8271V173.04C46.8271 172.827 46.9113 172.623 47.0614 172.472C47.2114 172.32 47.4151 172.235 47.6279 172.233Z" fill="#EBEBEB"/>
<path d="M62.2439 193.407C62.2439 193.519 55.8711 193.609 48.0143 193.609C40.1575 193.609 33.7847 193.519 33.7847 193.407C33.7847 193.295 40.1575 193.2 48.0143 193.2C55.8711 193.2 62.2439 193.301 62.2439 193.407Z" fill="#E0E0E0"/>
<path d="M43.9824 179.284C43.9824 179.34 43.1648 179.681 41.8824 180.404C40.2136 181.272 38.7314 182.459 37.52 183.898C36.3684 185.398 35.5685 187.138 35.1792 188.989C34.8768 190.405 34.9384 191.324 34.8712 191.324C34.8047 191.118 34.7744 190.902 34.7816 190.685C34.7658 190.098 34.807 189.511 34.9048 188.933C35.2255 187.02 36.0121 185.216 37.1952 183.68C38.435 182.182 39.992 180.979 41.7536 180.157C42.2757 179.9 42.8123 179.674 43.3608 179.48C43.5536 179.375 43.7646 179.309 43.9824 179.284Z" fill="#FAFAFA"/>
<path d="M52.8082 178.455C52.769 178.595 50.7473 177.783 48.1489 177.738C45.5505 177.694 43.5289 178.556 43.4897 178.422C43.884 178.159 44.3222 177.969 44.7833 177.862C45.8692 177.514 47.0034 177.342 48.1433 177.352C49.2848 177.373 50.4169 177.561 51.5033 177.912C51.9668 178.015 52.4085 178.199 52.8082 178.455Z" fill="#E0E0E0"/>
<path d="M49.8397 174.065C49.7949 174.171 49.1341 173.981 48.3109 173.964C47.4877 173.947 46.8157 174.098 46.7765 173.992C46.7373 173.886 47.4037 173.544 48.3165 173.566C49.2293 173.589 49.8397 173.975 49.8397 174.065Z" fill="#E0E0E0"/>
<path d="M58.0944 216.552C58.0944 218.5 57.5166 220.404 56.4343 222.024C55.3519 223.644 53.8135 224.907 52.0135 225.652C50.2136 226.398 48.233 226.593 46.3222 226.213C44.4115 225.833 42.6563 224.894 41.2787 223.517C39.9011 222.139 38.9629 220.384 38.5828 218.473C38.2028 216.563 38.3978 214.582 39.1434 212.782C39.8889 210.982 41.1515 209.444 42.7714 208.361C44.3913 207.279 46.2957 206.701 48.244 206.701C50.8565 206.701 53.3619 207.739 55.2092 209.586C57.0566 211.434 58.0944 213.939 58.0944 216.552Z" fill="#E0E0E0"/>
<path d="M58.0944 214.844C58.0932 216.792 57.5146 218.696 56.4315 220.315C55.3485 221.934 53.8097 223.196 52.0097 223.94C50.2096 224.685 48.2292 224.879 46.3188 224.499C44.4084 224.118 42.6537 223.179 41.2767 221.802C39.8996 220.424 38.962 218.668 38.5824 216.758C38.2028 214.847 38.3982 212.867 39.1439 211.067C39.8896 209.268 41.1522 207.73 42.772 206.648C44.3917 205.565 46.296 204.988 48.244 204.988C49.538 204.988 50.8194 205.243 52.0148 205.738C53.2103 206.234 54.2965 206.96 55.2112 207.875C56.126 208.79 56.8514 209.877 57.3461 211.072C57.8408 212.268 58.0951 213.55 58.0944 214.844Z" fill="#F5F5F5"/>
<path d="M58.0943 214.844C58.0207 214.039 57.8934 213.241 57.7135 212.453C57.1468 210.323 55.8806 208.445 54.1183 207.122C52.8266 206.145 51.3103 205.509 49.7085 205.271C48.1067 205.033 46.4708 205.202 44.9511 205.761C43.1625 206.421 41.6054 207.588 40.4711 209.121C39.2527 210.775 38.5954 212.776 38.5954 214.83C38.5954 216.884 39.2527 218.885 40.4711 220.539C41.6054 222.072 43.1625 223.239 44.9511 223.899C46.2259 224.361 47.5828 224.552 48.9354 224.46C50.288 224.368 51.6066 223.996 52.8073 223.366C54.008 222.737 55.0643 221.864 55.909 220.803C56.7538 219.743 57.3683 218.518 57.7135 217.207C57.8927 216.421 58.0199 215.624 58.0943 214.822C58.1139 215.03 58.1139 215.24 58.0943 215.449C58.0955 215.704 58.0749 215.959 58.0327 216.21C57.9971 216.558 57.9353 216.902 57.8479 217.241C57.3455 219.44 56.0993 221.398 54.3199 222.785C52.9942 223.808 51.4318 224.479 49.7775 224.738C48.1232 224.996 46.4304 224.833 44.8559 224.263C43.9414 223.946 43.0818 223.489 42.3079 222.908C41.491 222.315 40.7728 221.597 40.1799 220.78C38.909 219.061 38.2231 216.979 38.2231 214.841C38.2231 212.703 38.909 210.622 40.1799 208.902C40.7708 208.086 41.4872 207.367 42.3023 206.774C43.0769 206.194 43.9364 205.737 44.8503 205.419C46.5363 204.812 48.3542 204.669 50.1143 205.005C51.9844 205.364 53.7115 206.254 55.0889 207.569C56.4664 208.884 57.4359 210.568 57.8815 212.419C57.9689 212.758 58.0307 213.102 58.0663 213.45C58.1085 213.701 58.1291 213.956 58.1279 214.211C58.1363 214.423 58.1251 214.635 58.0943 214.844Z" fill="#E0E0E0"/>
<path d="M52.2871 212.766C52.6991 213.566 52.8644 214.47 52.7623 215.364C52.6601 216.258 52.295 217.102 51.7132 217.788C51.1314 218.475 50.359 218.973 49.4938 219.22C48.6287 219.467 47.7096 219.452 46.853 219.177C45.9964 218.902 45.2407 218.378 44.6816 217.673C44.1225 216.968 43.7851 216.113 43.7122 215.216C43.6393 214.32 43.8341 213.421 44.272 212.635C44.7098 211.849 45.371 211.211 46.1719 210.801C46.7025 210.528 47.2816 210.363 47.8761 210.314C48.4705 210.265 49.0688 210.334 49.6367 210.517C50.2045 210.699 50.7309 210.992 51.1856 211.378C51.6404 211.764 52.0147 212.236 52.2871 212.766Z" fill="#E0E0E0"/>
<path d="M51.3464 214.844C51.3453 215.457 51.1624 216.056 50.8208 216.566C50.4793 217.075 49.9943 217.472 49.4274 217.706C48.8604 217.94 48.2368 218.001 47.6353 217.88C47.0339 217.76 46.4816 217.464 46.0483 217.03C45.615 216.596 45.3201 216.043 45.2008 215.441C45.0816 214.84 45.1433 214.216 45.3783 213.65C45.6133 213.083 46.0109 212.599 46.521 212.258C47.031 211.918 47.6306 211.736 48.244 211.736C48.6519 211.736 49.0558 211.816 49.4325 211.973C49.8093 212.129 50.1515 212.358 50.4397 212.646C50.7279 212.935 50.9563 213.278 51.1118 213.655C51.2674 214.032 51.3471 214.436 51.3464 214.844Z" fill="#F5F5F5"/>
<path d="M51.3464 214.844C51.3128 214.844 51.3128 214.564 51.1784 214.099C50.991 213.454 50.5977 212.887 50.0584 212.486C49.6219 212.162 49.1038 211.965 48.562 211.918C48.0201 211.871 47.4758 211.975 46.9898 212.219C46.5038 212.464 46.0953 212.838 45.8098 213.301C45.5243 213.764 45.3731 214.297 45.3731 214.841C45.3731 215.385 45.5243 215.918 45.8098 216.381C46.0953 216.844 46.5038 217.219 46.9898 217.463C47.4758 217.707 48.0201 217.812 48.562 217.765C49.1038 217.717 49.6219 217.521 50.0584 217.196C50.5965 216.794 50.9895 216.228 51.1784 215.583C51.3128 215.118 51.3128 214.838 51.3464 214.844C51.4104 215.098 51.4104 215.363 51.3464 215.617C51.1995 216.332 50.8024 216.971 50.2264 217.42C49.7968 217.758 49.2886 217.982 48.7491 218.071C48.2096 218.161 47.6564 218.112 47.1408 217.93C46.508 217.7 45.9612 217.282 45.5747 216.731C45.1883 216.179 44.981 215.523 44.981 214.85C44.981 214.177 45.1883 213.52 45.5747 212.969C45.9612 212.418 46.508 211.999 47.1408 211.77C47.6564 211.587 48.2096 211.539 48.7491 211.628C49.2886 211.717 49.7968 211.941 50.2264 212.279C50.8024 212.728 51.1995 213.367 51.3464 214.082C51.407 214.333 51.407 214.594 51.3464 214.844Z" fill="#E0E0E0"/>
<path d="M62.2441 201.516C62.2441 201.628 55.8041 201.717 47.8689 201.717C39.9337 201.717 33.4937 201.628 33.4937 201.516C33.4937 201.404 39.9281 201.32 47.8689 201.32C55.8097 201.32 62.2441 201.409 62.2441 201.516Z" fill="#E0E0E0"/>
<path d="M33.4934 194.426C33.1883 194.525 32.8779 194.608 32.5638 194.673C31.8441 194.892 31.2141 195.337 30.7673 195.942C30.3204 196.547 30.0805 197.28 30.083 198.033C30.1132 198.353 30.1244 198.674 30.1166 198.996C30.0774 198.996 29.8702 198.677 29.803 198.044C29.7249 197.213 29.9559 196.382 30.4518 195.71C30.9477 195.039 31.6737 194.574 32.491 194.404C33.1126 194.281 33.499 194.381 33.4934 194.426Z" fill="#FAFAFA"/>
<path d="M43.6798 207.385C43.7134 207.446 43.0246 207.782 42.1398 208.594C40.973 209.638 40.1197 210.986 39.6756 212.488C39.2315 213.989 39.2142 215.585 39.6254 217.095C39.9278 218.26 40.3198 218.915 40.2582 218.949C40.1966 218.982 40.1126 218.814 39.939 218.512C39.705 218.087 39.5172 217.639 39.379 217.174C38.8753 215.617 38.8539 213.945 39.3176 212.376C39.7813 210.807 40.7085 209.414 41.9774 208.382C42.3564 208.073 42.7654 207.803 43.1982 207.575C43.4894 207.424 43.6798 207.362 43.6798 207.385Z" fill="#FAFAFA"/>
<path d="M62.2441 228.334C62.1321 228.334 62.0425 222.292 62.0425 214.844C62.0425 207.396 62.1321 201.348 62.2441 201.348C62.3561 201.348 62.4401 207.39 62.4401 214.844C62.4401 222.297 62.3505 228.334 62.2441 228.334Z" fill="#E0E0E0"/>
<path d="M24.4775 264.964V261.811C24.4768 261.501 24.5374 261.193 24.6559 260.906C24.7744 260.619 24.9485 260.358 25.1681 260.138C25.3877 259.919 25.6485 259.745 25.9355 259.626C26.2226 259.508 26.5302 259.447 26.8407 259.448V258.44C26.8407 257.252 27.3127 256.112 28.1529 255.272C28.9931 254.432 30.1326 253.96 31.3207 253.96H63.2799C65.7663 253.96 67.7599 256.76 67.7599 259.252H68.8799C70.1847 259.252 71.2431 259.521 71.2431 260.826V264.986L24.4775 264.964Z" fill="#E0E0E0"/>
<path d="M68.8796 259.23C68.8796 259.342 59.438 259.431 47.7957 259.431C36.1533 259.431 26.7061 259.342 26.7061 259.23C26.7061 259.118 36.1421 259.034 47.7957 259.034C59.4492 259.034 68.8796 259.123 68.8796 259.23Z" fill="#F5F5F5"/>
<path d="M33.7846 222.32L25.8438 221.015V208.208L33.7846 206.668V222.32Z" fill="#EBEBEB"/>
<path d="M24.8582 222.55H25.3846C25.7959 222.55 26.1294 222.216 26.1294 221.805L26.1294 207.643C26.1294 207.231 25.7959 206.898 25.3846 206.898H24.8582C24.4468 206.898 24.1134 207.231 24.1134 207.643V221.805C24.1134 222.216 24.4468 222.55 24.8582 222.55Z" fill="#EBEBEB"/>
<path d="M24.5166 218.35H23.3966C22.8025 218.35 22.2328 218.114 21.8127 217.694C21.3926 217.273 21.1566 216.704 21.1566 216.11V214.519C21.1566 213.925 21.3926 213.355 21.8127 212.935C22.2328 212.515 22.8025 212.279 23.3966 212.279H24.5166V218.327V218.35Z" fill="#EBEBEB"/>
<path d="M26.1855 208.152C26.2919 208.152 26.3815 211.025 26.3815 214.569C26.3815 218.114 26.2919 220.987 26.1855 220.987C26.0791 220.987 25.9839 218.114 25.9839 214.569C25.9839 211.025 26.0735 208.152 26.1855 208.152Z" fill="#E0E0E0"/>
<path d="M24.2197 208.068C24.3261 208.068 24.4157 210.941 24.4157 214.485C24.4157 218.03 24.3261 220.897 24.2197 220.897C24.1133 220.897 24.0181 218.025 24.0181 214.485C24.0181 210.946 24.1077 208.068 24.2197 208.068Z" fill="#E0E0E0"/>
<path d="M33.7902 236.32C33.6782 236.32 33.5942 228.681 33.5942 219.268C33.5942 209.854 33.6782 202.216 33.7902 202.216C33.9022 202.216 33.9862 209.849 33.9862 219.268C33.9862 228.687 33.8966 236.32 33.7902 236.32Z" fill="#E0E0E0"/>
<path d="M176.719 69.395H149.475V76.6022H176.719V69.395Z" fill="#F5F5F5"/>
<path d="M165.2 83.9605C165.196 83.9158 165.196 83.8708 165.2 83.8261V83.4397C165.2 83.1037 165.2 82.6277 165.2 82.0229C165.2 80.7797 165.172 78.9877 165.155 76.7365L165.239 76.8205L137.995 76.8709L138.129 76.7365V83.9325L137.995 83.7981L157.41 83.8597L163.139 83.8933H164.69H165.093H165.239H165.11H164.724H163.206L157.505 83.9325L137.995 83.9941H137.855V76.7645L137.995 76.6245L165.239 76.6805H165.323V76.7645C165.323 79.0381 165.289 80.8469 165.278 82.1013C165.278 82.7005 165.278 83.1653 165.278 83.5013C165.278 83.6469 165.278 83.7645 165.278 83.8541C165.255 83.8914 165.228 83.9269 165.2 83.9605Z" fill="#E0E0E0"/>
<path d="M60.7826 118.244H33.5386V125.451H60.7826V118.244Z" fill="#F5F5F5"/>
<path d="M49.2797 132.809C49.2797 132.809 49.2797 132.759 49.2797 132.675V132.305C49.2797 131.969 49.2797 131.493 49.2797 130.889C49.2797 129.645 49.2797 127.853 49.2349 125.602L49.3189 125.686L22.0749 125.737L22.2149 125.602V129.253C22.2149 130.456 22.2149 131.637 22.2149 132.798L22.0805 132.664L41.4397 132.72L47.1685 132.753H48.7197H49.1285H49.2685H49.1453H48.7533H47.2357L41.5349 132.793L22.0245 132.854H21.8901V132.72C21.8901 131.561 21.8901 130.379 21.8901 129.175V125.524L22.0301 125.384L49.2741 125.44H49.3581V125.524C49.3581 127.797 49.3245 129.606 49.3133 130.861C49.3133 131.46 49.3133 131.925 49.3133 132.261C49.3133 132.406 49.3133 132.524 49.3133 132.613C49.3161 132.68 49.3046 132.747 49.2797 132.809Z" fill="#E0E0E0"/>
<path d="M242.189 37.7492C242.184 37.7064 242.184 37.6632 242.189 37.6204V37.2508C242.189 36.9092 242.189 36.4388 242.189 35.834C242.189 34.5852 242.161 32.7988 242.144 30.542L242.228 30.626L214.984 30.682C215.045 30.6204 214.844 30.822 215.118 30.542V37.7492L214.984 37.6148L234.399 37.6764L240.128 37.7156H241.679H242.082H242.228C242.185 37.7209 242.142 37.7209 242.099 37.7156H241.713H240.189L234.494 37.7548L214.984 37.8164H214.844V30.5476C215.118 30.2732 214.922 30.4748 214.984 30.4076L242.228 30.4636H242.312V30.5476C242.312 32.8268 242.278 34.63 242.267 35.89C242.267 36.4836 242.267 36.954 242.267 37.29V37.6428C242.244 37.6807 242.218 37.7164 242.189 37.7492Z" fill="#E0E0E0"/>
<path d="M245.885 30.5423C245.877 30.4978 245.877 30.4523 245.885 30.4079C245.885 30.3015 245.885 30.1783 245.885 30.0271C245.885 29.6687 245.885 29.1871 245.857 28.5767C245.857 27.3167 245.829 25.5303 245.807 23.3351L245.907 23.4359L229.539 23.4751C229.41 23.5983 229.701 23.3071 229.673 23.3351V27.0479C229.673 28.2519 229.673 29.4223 229.673 30.5423L229.539 30.4135L241.248 30.4751L244.664 30.5087H245.583H245.913C245.814 30.5163 245.715 30.5163 245.616 30.5087H244.72L241.36 30.5479L229.561 30.6095H229.432V30.4751C229.432 29.3551 229.432 28.1847 229.432 26.9807V23.3407L229.572 23.2007L245.941 23.2399H246.042V23.3407C246.042 25.5807 246.003 27.3671 245.991 28.6439C245.991 29.2431 245.991 29.7191 245.963 30.0663C245.945 30.2262 245.919 30.385 245.885 30.5423Z" fill="#E0E0E0"/>
<path d="M238.095 225.573C238.095 225.573 238.095 225.523 238.095 225.439V225.069C238.095 224.733 238.095 224.257 238.095 223.653C238.095 222.409 238.067 220.623 238.045 218.366L238.129 218.45L210.885 218.506L211.025 218.366V222.017C211.025 223.221 211.025 224.403 211.025 225.562L210.89 225.428L230.305 225.489L236.04 225.529H237.585H237.994H238.134H238H237.608H236.09L230.389 225.568L210.879 225.629H210.745V225.495C210.745 224.338 210.745 223.156 210.745 221.95V218.4L210.885 218.26L238.129 218.316H238.218V218.4C238.218 220.673 238.185 222.482 238.173 223.737C238.173 224.336 238.173 224.801 238.173 225.137V225.489C238.151 225.52 238.124 225.549 238.095 225.573Z" fill="#E0E0E0"/>
<path d="M241.791 218.366C241.787 218.319 241.787 218.273 241.791 218.226C241.791 218.125 241.791 217.996 241.791 217.845C241.791 217.492 241.791 217.011 241.791 216.4C241.791 215.135 241.757 213.354 241.735 211.159L241.836 211.254L225.467 211.293C225.344 211.422 225.635 211.125 225.607 211.159V213.024C225.607 213.645 225.607 214.256 225.607 214.86C225.607 216.064 225.607 217.235 225.607 218.355L225.478 218.22L237.188 218.282L240.598 218.321H241.517H241.847C241.748 218.329 241.649 218.329 241.55 218.321H240.66L237.3 218.355L225.501 218.416H225.366V218.288C225.366 217.168 225.366 215.997 225.366 214.793V211.092L225.506 210.952L241.875 210.991H241.92V211.092C241.92 213.332 241.881 215.118 241.864 216.395C241.864 216.994 241.864 217.47 241.864 217.817C241.864 218.164 241.797 218.4 241.791 218.366Z" fill="#E0E0E0"/>
<path d="M65.0272 46.4406C65.0272 46.4406 65.0272 46.3958 65.0272 46.3118V45.9422C65.0272 45.6006 65.0272 45.1302 65.0272 44.5198C65.0272 43.2766 65.0272 41.4902 64.9768 39.2334L65.0608 39.3174L37.8224 39.3734C37.8784 39.3118 37.6824 39.5078 37.9568 39.2334V42.8958C37.9568 44.1017 37.9568 45.2833 37.9568 46.4406L37.8224 46.3063L57.2376 46.3679L62.972 46.4071H64.5176H64.9264C64.9729 46.4024 65.0198 46.4024 65.0664 46.4071H64.9432H64.5568H63.0336L57.3328 46.4463L37.8224 46.5079H37.688V42.8958C37.688 42.291 37.688 41.6862 37.688 41.0758V39.2446C37.968 38.9646 37.7664 39.1662 37.8336 39.1046L65.072 39.1606H65.1616V39.2446C65.1616 41.5182 65.1224 43.327 65.1112 44.5814C65.1112 45.1806 65.1112 45.6454 65.1112 45.9814C65.1112 46.127 65.1112 46.2446 65.1112 46.3398C65.1112 46.435 65.0328 46.4406 65.0272 46.4406Z" fill="#E0E0E0"/>
<path d="M241.192 136.108C241.189 136.065 241.189 136.022 241.192 135.979V135.61C241.192 135.268 241.192 134.798 241.192 134.193C241.192 132.944 241.192 131.158 241.147 128.901L241.231 128.985L213.987 129.041L214.127 128.901V130.738C214.127 131.354 214.127 131.958 214.127 132.558V136.102L213.993 135.968L233.408 136.03L239.12 136.08H240.671H241.074H241.22C241.22 136.08 241.181 136.08 241.097 136.08H240.705H239.187L233.486 136.119L213.976 136.181H213.841V136.041C213.841 134.88 213.841 133.698 213.841 132.496V128.839L213.981 128.699L241.225 128.755H241.309V128.839C241.309 131.118 241.276 132.922 241.265 134.182C241.265 134.775 241.265 135.246 241.265 135.582C241.265 135.727 241.265 135.839 241.265 135.934C241.265 136.03 241.197 136.114 241.192 136.108Z" fill="#E0E0E0"/>
<path d="M269.069 265.44C269.069 265.468 211.277 265.496 140.006 265.496C68.7344 265.496 10.9312 265.44 10.9312 265.44C10.9312 265.44 68.712 265.378 140.006 265.378C211.299 265.378 269.069 265.401 269.069 265.44Z" fill="#263238"/>
<path d="M269.069 270.586C269.069 270.62 211.277 270.642 140.006 270.642C68.7344 270.642 10.9312 270.642 10.9312 270.586C10.9312 270.53 68.712 270.53 140.006 270.53C211.299 270.53 269.069 270.558 269.069 270.586Z" fill="#263238"/>
<path d="M123.25 270.726C123.217 270.726 123.194 269.506 123.194 268.005C123.194 266.504 123.194 265.283 123.25 265.283C123.306 265.283 123.306 266.504 123.306 268.005C123.306 269.506 123.284 270.726 123.25 270.726Z" fill="#263238"/>
<path d="M93.4415 270.726C93.4079 270.726 93.3799 269.506 93.3799 268.005C93.3799 266.504 93.4079 265.283 93.4415 265.283C93.4751 265.283 93.4975 266.504 93.4975 268.005C93.4975 269.506 93.4695 270.726 93.4415 270.726Z" fill="#263238"/>
<path d="M63.6273 270.726C63.5937 270.726 63.5713 269.506 63.5713 268.005C63.5713 266.504 63.5713 265.283 63.6273 265.283C63.6833 265.283 63.6833 266.504 63.6833 268.005C63.6833 269.506 63.6609 270.726 63.6273 270.726Z" fill="#263238"/>
<path d="M33.8184 270.726C33.7848 270.726 33.7568 269.506 33.7568 268.005C33.7568 266.504 33.7568 265.283 33.8184 265.283C33.88 265.283 33.8744 266.504 33.8744 268.005C33.8744 269.506 33.8464 270.726 33.8184 270.726Z" fill="#263238"/>
<path d="M153.255 270.726C153.221 270.726 153.193 269.506 153.193 268.005C153.193 266.504 153.221 265.283 153.255 265.283C153.289 265.283 153.311 266.504 153.311 268.005C153.311 269.506 153.283 270.726 153.255 270.726Z" fill="#263238"/>
<path d="M183.254 270.726C183.221 270.726 183.198 269.506 183.198 268.005C183.198 266.504 183.198 265.283 183.254 265.283C183.31 265.283 183.31 266.504 183.31 268.005C183.31 269.506 183.288 270.726 183.254 270.726Z" fill="#263238"/>
<path d="M213.259 270.726C213.226 270.726 213.198 269.506 213.198 268.005C213.198 266.504 213.226 265.283 213.259 265.283C213.293 265.283 213.315 266.504 213.315 268.005C213.315 269.506 213.287 270.726 213.259 270.726Z" fill="#263238"/>
<path d="M243.258 270.726C243.225 270.726 243.202 269.506 243.202 268.005C243.202 266.504 243.202 265.283 243.258 265.283C243.314 265.283 243.314 266.504 243.314 268.005C243.314 269.506 243.292 270.726 243.258 270.726Z" fill="#263238"/>
<path d="M233.99 235.228C234.677 235.555 235.29 236.017 235.793 236.587C236.296 237.157 236.679 237.822 236.919 238.543C237.388 239.988 237.522 241.52 237.311 243.023C236.981 245.935 235.323 248.881 233.537 251.211C231.084 249.071 230.518 245.331 230.35 243.415C230.082 240.391 231.47 234.758 233.99 235.211" fill="#FF725E"/>
<path d="M236.393 256.043C236.225 255.209 236.281 254.346 236.554 253.541C236.828 252.735 237.309 252.016 237.95 251.457C238.6 250.911 239.352 250.5 240.162 250.247C240.973 249.994 241.825 249.905 242.671 249.984C243.064 249.979 243.453 250.059 243.812 250.22C244.171 250.38 244.49 250.617 244.748 250.914C244.938 251.228 245.041 251.587 245.045 251.954C245.05 252.321 244.957 252.683 244.776 253.002C244.406 253.639 243.873 254.165 243.231 254.526C241.103 255.864 238.795 256.766 236.393 256.043Z" fill="#FF725E"/>
<path d="M233.24 264.986C233.256 264.785 233.285 264.585 233.329 264.387C233.408 263.967 233.509 263.418 233.626 262.769C233.904 260.965 234.472 259.218 235.306 257.594C236.17 255.971 237.452 254.608 239.019 253.646C239.495 253.364 240.002 253.139 240.531 252.974C240.674 252.93 240.82 252.894 240.968 252.868C241.02 252.859 241.073 252.859 241.125 252.868C239.91 253.26 238.785 253.891 237.818 254.723C236.85 255.556 236.059 256.574 235.491 257.718C234.671 259.324 234.094 261.043 233.777 262.819C233.632 263.497 233.509 264.046 233.419 264.426C233.378 264.619 233.318 264.806 233.24 264.986Z" fill="#263238"/>
<path d="M233.335 239.607C233.352 239.692 233.362 239.778 233.363 239.865C233.363 240.061 233.363 240.313 233.408 240.621C233.447 241.271 233.481 242.217 233.52 243.387C233.598 245.723 233.654 248.954 233.637 252.521C233.621 256.088 233.537 259.319 233.441 261.655C233.391 262.825 233.346 263.766 233.307 264.421C233.307 264.729 233.268 264.981 233.257 265.171C233.252 265.26 233.241 265.348 233.223 265.435C233.215 265.347 233.215 265.259 233.223 265.171C233.223 264.975 233.223 264.723 233.223 264.415C233.223 263.738 233.262 262.797 233.29 261.649C233.346 259.314 233.413 256.083 233.43 252.521C233.447 248.959 233.43 245.728 233.369 243.387C233.369 242.239 233.335 241.304 233.324 240.621V239.871C233.319 239.783 233.323 239.695 233.335 239.607Z" fill="#263238"/>
<path d="M232.142 257.818C231.846 256.05 231.133 254.379 230.061 252.941C228.99 251.504 227.592 250.342 225.982 249.553C225.165 249.161 224.089 248.903 223.417 249.514C222.746 250.124 222.891 251.222 223.221 252.073C223.943 253.834 225.17 255.343 226.748 256.408C228.325 257.473 230.183 258.048 232.086 258.059" fill="#FF725E"/>
<path d="M226.38 252.319C226.559 252.382 226.733 252.459 226.901 252.549C227.105 252.641 227.303 252.745 227.494 252.863C227.713 253.003 227.981 253.137 228.239 253.333C228.537 253.533 228.825 253.748 229.101 253.977C229.404 254.218 229.701 254.503 230.014 254.806C230.672 255.486 231.252 256.238 231.745 257.046C232.218 257.861 232.594 258.73 232.865 259.633C232.985 260.026 233.082 260.427 233.156 260.831C233.226 261.183 233.275 261.538 233.301 261.895C233.33 262.189 233.343 262.485 233.341 262.78C233.359 263.002 233.359 263.225 233.341 263.447C233.335 263.634 233.314 263.822 233.279 264.007C233.229 264.007 233.313 263.195 233.167 261.907C233.132 261.554 233.076 261.205 232.999 260.859C232.932 260.484 232.814 260.092 232.697 259.683C232.415 258.802 232.039 257.953 231.577 257.152C231.095 256.362 230.532 255.624 229.897 254.951C229.617 254.657 229.322 254.379 229.012 254.117C228.732 253.859 228.452 253.658 228.183 253.462C227.102 252.7 226.357 252.364 226.38 252.319Z" fill="#263238"/>
<path d="M161.484 118.624L155.038 117.274C154.218 117.102 153.413 117.628 153.242 118.448L149.696 135.374C149.525 136.194 150.05 136.998 150.871 137.17L157.316 138.52C158.137 138.692 158.941 138.166 159.113 137.346L162.658 120.421C162.83 119.6 162.304 118.796 161.484 118.624Z" fill="#E0E0E0"/>
<path d="M157.58 138.246L150.783 136.822L150.586 137.765L157.382 139.189L157.58 138.246Z" fill="#E0E0E0"/>
<path d="M161.804 118.075L155.008 116.651L154.81 117.594L161.607 119.018L161.804 118.075Z" fill="#E0E0E0"/>
<path d="M160.832 116.127C160.725 115.944 160.575 115.79 160.395 115.679C160.303 115.625 160.199 115.597 160.093 115.597C159.986 115.597 159.882 115.625 159.79 115.679C159.713 115.739 159.651 115.817 159.609 115.905C159.568 115.994 159.547 116.091 159.55 116.189C159.555 116.38 159.592 116.57 159.661 116.749C159.829 117.309 159.997 117.869 160.171 118.429L161.252 118.053C161.342 117.382 161.193 116.7 160.832 116.127ZM160.445 116.687C160.342 116.723 160.23 116.723 160.126 116.687C160.053 116.666 159.985 116.63 159.927 116.582C159.868 116.534 159.82 116.474 159.785 116.407C159.753 116.339 159.739 116.263 159.744 116.188C159.749 116.113 159.773 116.04 159.813 115.976C159.856 115.914 159.918 115.867 159.988 115.84C160.059 115.813 160.136 115.807 160.21 115.825C160.309 115.839 160.402 115.879 160.479 115.941C160.557 116.003 160.617 116.085 160.653 116.177C160.681 116.271 160.675 116.371 160.638 116.461C160.6 116.551 160.532 116.625 160.445 116.67V116.687Z" fill="#E0E0E0"/>
<path d="M152.001 124.426L162.187 122.701L160.205 132.165L149.828 134.808L152.001 124.426Z" fill="#FF725E"/>
<path d="M161.952 118.658C160.742 118.55 159.542 118.348 158.363 118.053C157.163 117.85 155.982 117.552 154.829 117.163C156.042 117.268 157.244 117.47 158.424 117.768C159.623 117.965 160.803 118.263 161.952 118.658Z" fill="#263238"/>
<path d="M157.254 138.449C156.111 138.357 154.977 138.169 153.866 137.889C152.733 137.702 151.618 137.419 150.534 137.043C151.677 137.135 152.81 137.322 153.922 137.603C155.054 137.791 156.169 138.074 157.254 138.449Z" fill="#263238"/>
<path d="M152.057 128.598C152.237 126.835 152.514 125.084 152.885 123.351C153.165 121.6 153.539 119.865 154.005 118.154C153.825 119.917 153.549 121.669 153.177 123.402C152.898 125.153 152.524 126.888 152.057 128.598Z" fill="white"/>
<path d="M128.638 116.984L149.761 128.637L147.084 135.917C147.084 135.917 128.459 130.877 117.572 123.665L128.638 116.984Z" fill="#FFD5BD"/>
<path d="M161.56 125.865C161.56 125.865 157.326 124.029 156.666 123.821C156.005 123.614 152.538 124.197 152.538 124.197L148.428 129.035L147.084 135.923C148.46 136.403 149.901 136.671 151.357 136.718C153.507 136.718 158.077 134.282 158.077 134.282C158.077 134.282 159.65 135.212 159.897 135.038C160.143 134.865 161.174 133.963 160.804 133.358C160.804 133.358 162.058 132.037 161.689 131.297L160.983 130.737C160.983 130.737 162.758 129.164 161.392 128.425C161.381 128.464 163.033 126.974 161.56 125.865Z" fill="#FFD5BD"/>
<path d="M161.364 128.24C161.314 128.318 160.244 127.646 158.805 127.002C157.366 126.358 156.167 125.972 156.19 125.882C158.098 126.179 159.888 126.995 161.364 128.24Z" fill="#FFB294"/>
<path d="M161.28 130.933C161.252 130.973 161.011 130.833 160.619 130.637L159.04 129.92C158.276 129.606 157.557 129.194 156.901 128.693C157.697 128.904 158.463 129.216 159.18 129.623C159.71 129.87 160.224 130.148 160.72 130.457C161.101 130.693 161.28 130.9 161.28 130.933Z" fill="#FFB294"/>
<path d="M157.27 130.984C158.008 130.99 158.723 131.244 159.298 131.706C159.936 132.076 160.428 132.653 160.692 133.342C160.614 133.398 160.065 132.619 159.113 131.975C158.161 131.331 157.248 131.079 157.27 130.984Z" fill="#FFB294"/>
<path d="M170.929 153.921C170.879 153.921 170.839 153.02 170.643 151.575C170.384 149.699 169.947 147.852 169.339 146.059C168.721 144.268 167.931 142.541 166.981 140.901C166.253 139.641 165.76 138.88 165.76 138.88C165.916 139.025 166.053 139.189 166.169 139.367C166.421 139.692 166.757 140.179 167.149 140.801C168.16 142.425 168.983 144.159 169.602 145.969C170.221 147.784 170.636 149.663 170.839 151.569C170.903 152.144 170.937 152.722 170.94 153.3C170.962 153.507 170.959 153.716 170.929 153.921Z" fill="#263238"/>
<path d="M172.144 145.04C171.837 144.575 171.562 144.091 171.321 143.59C170.828 142.688 170.128 141.456 169.277 140.14C168.426 138.824 167.597 137.67 166.975 136.847C166.617 136.421 166.29 135.97 165.995 135.498C166.411 135.866 166.786 136.277 167.115 136.724C167.977 137.758 168.773 138.845 169.501 139.978C170.23 141.11 170.892 142.284 171.483 143.494C171.759 143.984 171.98 144.502 172.144 145.04Z" fill="#263238"/>
<path d="M89.9585 236.706L82.1185 249.306C82.1185 249.306 92.2993 261.492 91.0785 263.962L66.1025 249.665L77.4929 229.533L89.9585 236.706Z" fill="#FF725E"/>
<path d="M75.0402 243.801C74.7578 243.737 74.4617 243.779 74.2086 243.92C73.9554 244.06 73.763 244.289 73.6682 244.563C73.5908 244.842 73.6245 245.14 73.7624 245.395C73.9002 245.65 74.1314 245.841 74.4074 245.929C74.7067 245.997 75.0205 245.951 75.2882 245.801C75.556 245.651 75.7589 245.408 75.8578 245.117C75.9071 244.817 75.8377 244.51 75.6642 244.26C75.4906 244.01 75.2267 243.837 74.9282 243.779" fill="#E0E0E0"/>
<path d="M66.1138 249.665L67.3402 247.682L90.8266 262.13C90.8266 262.13 91.661 263.25 91.0898 263.961L66.1138 249.665Z" fill="#263238"/>
<path d="M82.6113 249.413C82.5329 249.53 81.8944 249.239 81.0712 249.284C80.248 249.329 79.632 249.665 79.548 249.553C79.464 249.441 80.0464 248.836 81.0488 248.797C82.0512 248.758 82.7009 249.312 82.6113 249.413Z" fill="#263238"/>
<path d="M84.6103 252C84.5655 252.134 83.9215 252.039 83.2102 252.319C82.499 252.599 82.0902 253.075 81.9502 252.996C81.8102 252.918 82.1518 252.19 83.0422 251.876C83.9326 251.563 84.6719 251.876 84.6103 252Z" fill="#263238"/>
<path d="M84.3023 255.982C84.1736 255.942 84.3528 255.237 85.0471 254.75C85.7415 254.262 86.4695 254.318 86.4639 254.453C86.4583 254.587 85.9039 254.738 85.3439 255.147C84.7839 255.556 84.4311 256.038 84.3023 255.982Z" fill="#263238"/>
<path d="M84.0728 246.344C83.9608 246.422 83.5128 245.935 82.7792 245.588C82.0456 245.241 81.4016 245.151 81.396 245.028C81.3904 244.905 82.1632 244.748 82.9976 245.174C83.832 245.599 84.1904 246.282 84.0728 246.344Z" fill="#263238"/>
<path d="M88.8723 241.881L88.0267 256.693C88.0267 256.693 102.799 262.523 102.906 265.272L74.1387 264.667L74.5027 241.545L88.8723 241.881Z" fill="#FF725E"/>
<path d="M79.156 255.259C78.8775 255.336 78.6375 255.514 78.4824 255.758C78.3273 256.002 78.2681 256.295 78.316 256.58C78.3817 256.863 78.5544 257.109 78.7978 257.267C79.0411 257.424 79.3362 257.481 79.6208 257.426C79.9163 257.343 80.1705 257.153 80.334 256.894C80.4975 256.634 80.5587 256.323 80.5056 256.02C80.4049 255.734 80.1966 255.498 79.9249 255.362C79.6532 255.226 79.3393 255.201 79.0496 255.292" fill="#E0E0E0"/>
<path d="M74.1387 264.667L74.2675 262.337L101.803 263.793C101.803 263.793 103.074 264.353 102.923 265.272L74.1387 264.667Z" fill="#263238"/>
<path d="M88.4803 256.553C88.4803 256.693 87.7691 256.743 87.0691 257.18C86.3691 257.617 85.9883 258.199 85.8595 258.143C85.7307 258.087 85.9603 257.275 86.8171 256.766C87.6739 256.256 88.5307 256.424 88.4803 256.553Z" fill="#263238"/>
<path d="M91.4875 257.869C91.5211 258.003 90.9275 258.227 90.4179 258.815C89.9083 259.403 89.7739 260.025 89.6339 260.013C89.4939 260.002 89.4211 259.207 90.0483 258.496C90.6755 257.785 91.4875 257.734 91.4875 257.869Z" fill="#263238"/>
<path d="M93.1279 261.52C92.9991 261.548 92.8199 260.842 93.1951 260.081C93.5703 259.319 94.2367 259.022 94.3151 259.146C94.3935 259.269 93.9567 259.666 93.6543 260.294C93.3519 260.921 93.2679 261.52 93.1279 261.52Z" fill="#263238"/>
<path d="M88.3179 253.159C88.2563 253.288 87.6123 253.081 86.8171 253.114C86.0219 253.148 85.4003 253.389 85.3275 253.266C85.2547 253.142 85.8875 252.655 86.8003 252.627C87.7131 252.599 88.3851 253.047 88.3179 253.159Z" fill="#263238"/>
<path d="M76.16 150.64C76.16 150.64 74.3736 158.771 75.1688 159.958C75.964 161.146 77.3472 164.92 77.3472 164.92L76.16 201.6L72.5928 255.534H89.7288L97.0816 207.973C97.0816 207.973 99.6576 203.61 100.649 199.842C101.64 196.073 107.492 158.603 107.492 158.603V144.155L76.16 150.64Z" fill="#263238"/>
<path d="M115.226 145.135C115.226 145.135 111.647 194.275 110.46 198.638C109.273 203 84.9129 247.604 84.9129 247.604L70.2129 240.391L89.7065 193.295V147.84L115.226 145.135Z" fill="#263238"/>
<path d="M109.363 149.363C109.369 149.457 109.369 149.55 109.363 149.643L109.251 150.455C109.139 151.183 108.982 152.23 108.78 153.574C108.355 156.296 107.739 160.205 106.983 165.032L104.244 182C103.729 185.198 103.214 188.552 102.615 192.03C102.044 195.633 101.15 199.177 99.9434 202.619C98.6554 206.142 96.813 209.339 96.1914 212.817C95.4522 216.25 94.9426 219.615 94.4386 222.813C93.4698 229.208 92.6914 234.987 92.025 239.842C91.3586 244.698 90.8266 248.618 90.4178 251.328C90.2162 252.683 90.0482 253.73 89.9194 254.442C89.8596 254.785 89.8092 255.054 89.7682 255.248C89.7562 255.341 89.7356 255.433 89.7066 255.522C89.7059 255.428 89.7153 255.335 89.7346 255.242C89.7346 255.041 89.8018 254.772 89.8522 254.43L90.2834 251.306C90.6362 248.573 91.1458 244.647 91.773 239.809C92.4002 234.97 93.1618 229.169 94.1138 222.762C94.6066 219.559 95.1162 216.199 95.8498 212.738C96.4826 209.216 98.3362 205.979 99.613 202.496C100.81 199.073 101.701 195.549 102.273 191.968C102.872 188.502 103.393 185.142 103.953 181.95C105 175.566 105.941 169.814 106.753 164.976C107.565 160.138 108.203 156.251 108.657 153.535C108.892 152.197 109.071 151.155 109.217 150.427C109.28 150.088 109.331 149.819 109.368 149.621C109.359 149.535 109.357 149.449 109.363 149.363Z" fill="#455A64"/>
<path d="M74.4802 226.57C74.5121 226.943 74.5121 227.318 74.4802 227.69C74.4802 228.418 74.4074 229.471 74.3346 230.776C74.1834 233.38 73.9258 236.981 73.6234 240.946C73.321 244.91 73.0634 248.511 72.8954 251.115C72.8114 252.369 72.7442 253.411 72.6938 254.201C72.6853 254.577 72.646 254.951 72.5762 255.321C72.5456 254.948 72.5456 254.573 72.5762 254.201C72.5762 253.467 72.6154 252.414 72.6658 251.109C72.7722 248.5 72.9906 244.899 73.293 240.929C73.5954 236.958 73.8922 233.425 74.105 230.765C74.2114 229.51 74.2954 228.474 74.3626 227.685C74.3731 227.311 74.4124 226.938 74.4802 226.57Z" fill="#455A64"/>
<path d="M96.169 40.7455L92.1033 67.8159C91.4089 72.4191 91.3305 79.3239 98.661 80.0855C105.067 80.2647 107.565 74.5191 108.181 70.2239C108.483 68.1855 108.741 66.4887 108.786 66.3039C108.786 66.3039 115.775 66.6903 117.298 59.9423C118.037 56.6831 119.006 49.8623 119.807 43.6519C120.223 40.4446 119.417 37.1983 117.549 34.5578C115.682 31.9174 112.889 30.0761 109.727 29.3999L109.077 29.2599C101.965 28.1511 97.0594 33.5999 96.169 40.7455Z" fill="#FFD5BD"/>
<path d="M108.847 66.1861C105.713 65.5787 102.829 64.0524 100.565 61.8013C100.565 61.8013 101.612 67.1101 108.489 67.9613L108.847 66.1861Z" fill="#FFB294"/>
<path d="M118.11 46.7824C117.964 46.8944 117.057 46.48 115.775 46.5472C114.492 46.6144 113.568 47.1072 113.428 47.0008C113.288 46.8944 113.507 46.7544 113.91 46.5304C114.491 46.2229 115.134 46.0506 115.791 46.0264C116.426 45.9867 117.061 46.098 117.645 46.3512C118.043 46.5416 118.16 46.732 118.11 46.7824Z" fill="#263238"/>
<path d="M107.447 45.6848C107.268 45.724 106.641 44.9568 105.471 44.4528C104.3 43.9488 103.231 43.9656 103.175 43.8144C103.13 43.7472 103.348 43.6352 103.813 43.6128C104.465 43.6031 105.111 43.7369 105.706 44.0048C106.294 44.2518 106.814 44.6358 107.223 45.1248C107.52 45.444 107.52 45.6736 107.447 45.6848Z" fill="#263238"/>
<path d="M106.842 47.8631C106.803 48.058 106.689 48.2297 106.525 48.3417C106.361 48.4536 106.159 48.4969 105.963 48.4623C105.867 48.4492 105.774 48.4172 105.691 48.3681C105.607 48.319 105.534 48.2537 105.475 48.1761C105.417 48.0985 105.375 48.0101 105.351 47.916C105.327 47.8219 105.322 47.7239 105.336 47.6279C105.378 47.4351 105.493 47.266 105.657 47.1564C105.821 47.0467 106.021 47.0049 106.215 47.0399C106.311 47.0515 106.403 47.0823 106.487 47.1302C106.571 47.1782 106.644 47.2424 106.702 47.3192C106.761 47.3959 106.803 47.4836 106.827 47.577C106.852 47.6704 106.857 47.7677 106.842 47.8631Z" fill="#263238"/>
<path d="M116.867 49.6048C116.829 49.8004 116.715 49.9731 116.55 50.0853C116.386 50.1975 116.183 50.2402 115.987 50.204C115.89 50.1925 115.797 50.1614 115.712 50.1127C115.628 50.064 115.554 49.9988 115.496 49.9208C115.437 49.8428 115.395 49.7538 115.371 49.6591C115.348 49.5643 115.344 49.4659 115.36 49.3696C115.399 49.1748 115.513 49.003 115.678 48.8911C115.842 48.7791 116.044 48.7358 116.239 48.7704C116.336 48.7827 116.429 48.8143 116.513 48.8632C116.597 48.9121 116.671 48.9774 116.729 49.0552C116.788 49.133 116.83 49.2217 116.854 49.3161C116.877 49.4105 116.882 49.5087 116.867 49.6048Z" fill="#263238"/>
<path d="M109.553 53.1662C110.137 53.1142 110.726 53.133 111.306 53.2222C111.574 53.2222 111.866 53.2222 111.922 53.0822C112.003 52.8139 112.003 52.5273 111.922 52.259L111.569 50.0694C111.087 46.9614 110.807 44.4246 110.93 44.4078C111.054 44.391 111.546 46.8942 112.05 50.0078C112.162 50.775 112.269 51.503 112.37 52.203C112.466 52.5585 112.437 52.9366 112.286 53.2726C112.227 53.3584 112.15 53.4297 112.059 53.4812C111.969 53.5326 111.868 53.5628 111.765 53.5694C111.609 53.5795 111.453 53.5682 111.3 53.5358C110.704 53.4909 110.116 53.3666 109.553 53.1662Z" fill="#263238"/>
<path d="M107.89 40.4541C107.744 40.6893 106.854 40.3757 105.751 40.2805C104.648 40.1853 103.712 40.2805 103.617 40.0397C103.578 39.9165 103.78 39.7037 104.177 39.5301C104.71 39.3188 105.287 39.24 105.857 39.3005C106.424 39.3535 106.968 39.5459 107.442 39.8605C107.795 40.0901 107.952 40.3197 107.89 40.4541Z" fill="#263238"/>
<path d="M118.457 44.0662C118.306 44.2566 117.449 43.9038 116.368 43.719C115.288 43.5342 114.375 43.5566 114.291 43.3214C114.257 43.215 114.459 43.0526 114.851 42.9406C115.384 42.807 115.94 42.7917 116.48 42.8958C117.029 42.988 117.552 43.1961 118.015 43.5062C118.379 43.7526 118.524 43.9766 118.457 44.0662Z" fill="#263238"/>
<path d="M95.6594 45.8697C95.553 45.7969 91.3026 43.5065 90.4682 48.1657C89.6338 52.8249 94.4778 52.6961 94.5058 52.5673C94.5338 52.4385 95.6594 45.8697 95.6594 45.8697Z" fill="#FFD5BD"/>
<path d="M93.4024 50.5454C93.4024 50.5454 93.3128 50.5902 93.1616 50.6294C92.9545 50.6738 92.7383 50.6378 92.5568 50.5286C92.0976 50.2598 91.8232 49.4086 91.952 48.563C92.0108 48.1623 92.1581 47.7797 92.3832 47.443C92.4542 47.3061 92.5568 47.188 92.6824 47.0984C92.8079 47.0089 92.953 46.9504 93.1056 46.9278C93.2036 46.9202 93.3011 46.9467 93.3818 47.0029C93.4624 47.059 93.5211 47.1413 93.548 47.2358C93.5872 47.3814 93.548 47.4654 93.548 47.4822C93.548 47.499 93.6656 47.4206 93.66 47.219C93.6572 47.0989 93.6115 46.9837 93.5312 46.8942C93.4196 46.7769 93.2673 46.7067 93.1056 46.6982C92.9081 46.7003 92.7144 46.7529 92.5428 46.8509C92.3713 46.9489 92.2277 47.0891 92.1256 47.2582C91.8545 47.6262 91.6776 48.055 91.6104 48.507C91.476 49.4534 91.7952 50.4166 92.4336 50.747C92.5534 50.8042 92.6845 50.8339 92.8172 50.8339C92.9499 50.8339 93.081 50.8042 93.2008 50.747C93.3744 50.6574 93.4192 50.5566 93.4024 50.5454Z" fill="#FFB294"/>
<path d="M108.002 56.2576C108.069 56.1456 107.19 55.748 106.663 54.796C106.446 54.3821 106.284 53.9416 106.182 53.4856C106.092 53.1272 106.019 52.8976 105.963 52.9256C105.907 52.9536 105.896 53.1664 105.919 53.5416C105.949 54.0513 106.091 54.5481 106.333 54.9976C106.588 55.4456 106.957 55.8184 107.403 56.0784C107.744 56.252 107.985 56.2968 108.002 56.2576Z" fill="#263238"/>
<path d="M129.746 38.7463C129.701 38.4606 129.546 38.2037 129.315 38.0295C128.81 37.7136 128.231 37.5342 127.635 37.5087C125.818 37.2211 124.117 36.4361 122.718 35.2407C122.144 34.1137 121.479 33.035 120.73 32.0151C118.95 29.5959 117.449 27.9103 115.786 26.9751C113.635 25.7487 109.878 24.8527 107.386 25.1495C104.894 25.4463 102.53 27.0759 101.864 29.4615C100.688 28.1567 98.6832 27.8879 96.9752 28.3415H96.936C95.0376 28.7335 93.7496 30.5031 92.9656 32.2615C92.1816 34.0199 91.6776 35.9687 90.4736 37.4863C90.2216 37.7999 89.9136 38.1807 90.0536 38.5671C90.1167 38.7108 90.2226 38.8315 90.357 38.9127C90.4913 38.9939 90.6474 39.0316 90.804 39.0207C91.1159 38.9961 91.4192 38.9064 91.6944 38.7575L90.8936 40.1239C91.535 40.3212 92.2132 40.3691 92.876 40.2639C92.9786 41.9548 93.1843 43.638 93.492 45.3039C94.177 45.3141 94.8345 45.5751 95.34 46.0375C95.9 46.6927 96.0288 47.8015 97.1376 47.5383C97.6976 47.4095 98.3416 46.3511 98.5992 45.8303C100.288 42.3619 101.21 38.5708 101.304 34.7143C102.165 34.0179 103.152 33.4932 104.21 33.1687L104.121 33.2303C106.12 32.8327 108.366 32.4743 110.051 33.6223C111.362 34.5071 111.989 36.0807 112.851 37.3855C113.674 38.5914 114.733 39.6187 115.962 40.4058C117.192 41.1929 118.568 41.7237 120.008 41.9663C119.846 43.9039 119.308 46.5975 119.146 48.5351L121.184 45.6735C121.346 45.4663 121.486 45.2535 121.626 45.0407L121.671 44.9791C121.89 44.6375 122.102 44.2959 122.366 43.9599C122.551 44.2265 122.835 44.4084 123.155 44.4656C123.475 44.5229 123.804 44.4507 124.071 44.2651C124.337 44.0794 124.519 43.7955 124.577 43.4757C124.634 43.1559 124.562 42.8265 124.376 42.5599C124.248 42.3135 124.079 42.0901 123.878 41.8991C124.082 42.1589 124.351 42.3614 124.657 42.487C124.963 42.6126 125.297 42.657 125.625 42.6159C125.951 42.5634 126.25 42.4049 126.477 42.165C126.704 41.9251 126.845 41.6171 126.879 41.2887C126.882 41.0646 126.827 40.8436 126.719 40.6473C126.611 40.4509 126.454 40.286 126.263 40.1687C127.101 40.3552 127.975 40.285 128.772 39.9671C129.293 39.7599 129.825 39.3735 129.746 38.7463Z" fill="#263238"/>
<path d="M103.903 30.5254C103.633 30.6924 103.377 30.8796 103.136 31.0854C102.506 31.6631 102.037 32.3944 101.775 33.2078C101.578 33.7633 101.44 34.3375 101.36 34.9214C101.271 35.5486 101.226 36.2318 101.176 36.9486C101.138 37.6997 101.054 38.4478 100.924 39.1886C100.846 39.5823 100.739 39.9698 100.604 40.3478C100.487 40.7565 100.267 41.1285 99.9659 41.4286C99.8289 41.5451 99.6639 41.6239 99.4871 41.6573C99.3104 41.6907 99.128 41.6775 98.9579 41.619C98.6299 41.5114 98.3478 41.2963 98.1571 41.0086C97.858 40.448 97.7131 39.818 97.7371 39.183L97.8771 39.2166C97.6099 39.6942 97.274 40.13 96.8803 40.5102C96.4948 40.8746 95.9829 41.0754 95.4523 41.0702C95.2069 41.0628 94.9684 40.9872 94.7635 40.8518C94.5718 40.7115 94.4272 40.5162 94.3491 40.2918C94.2738 40.0918 94.2525 39.8754 94.2875 39.6646C94.3232 39.4681 94.4286 39.2912 94.5843 39.1662L94.6459 39.239C94.1757 39.6485 93.6242 39.9539 93.0275 40.135C92.8697 40.1846 92.7088 40.2239 92.5459 40.2526C92.4902 40.2601 92.4337 40.2601 92.3779 40.2526C92.4308 40.2335 92.4851 40.2185 92.5403 40.2078C92.6523 40.2078 92.8091 40.1406 93.0107 40.0734C93.5901 39.8738 94.1234 39.5595 94.5787 39.1494L94.6459 39.2222C94.5143 39.3503 94.4259 39.5161 94.3927 39.6967C94.3596 39.8773 94.3835 40.0638 94.4611 40.2302C94.5324 40.4247 94.6638 40.5914 94.8363 40.7062C95.0219 40.8267 95.2368 40.8944 95.4579 40.9022C95.951 40.9064 96.4266 40.7198 96.7851 40.3814C97.1758 40.002 97.5097 39.5682 97.7763 39.0934L97.9051 38.8862V39.127C97.8829 39.7348 98.022 40.3376 98.3083 40.8742C98.4739 41.1372 98.7251 41.335 99.0195 41.4342C99.1637 41.4847 99.3185 41.4968 99.4687 41.4694C99.619 41.4419 99.7594 41.3757 99.8763 41.2774C100.156 40.9946 100.36 40.646 100.47 40.2638C100.6 39.8982 100.705 39.5239 100.784 39.1438C100.916 38.403 101.004 37.655 101.047 36.9038C101.103 36.187 101.148 35.5038 101.243 34.871C101.33 34.2787 101.479 33.697 101.685 33.135C101.96 32.3111 102.451 31.5761 103.108 31.007C103.343 30.8027 103.612 30.6398 103.903 30.5254Z" fill="#455A64"/>
<path d="M124.113 40.0788C124.095 40.0948 124.074 40.108 124.052 40.118L123.867 40.2188C123.763 40.2735 123.657 40.3221 123.548 40.3644C123.404 40.4292 123.256 40.4835 123.105 40.5268C122.132 40.8161 121.103 40.8585 120.109 40.65C118.628 40.3462 117.267 39.6208 116.189 38.5612C114.895 37.2571 113.881 35.702 113.21 33.9916C112.824 33.0956 112.538 32.194 112.196 31.3484C111.895 30.5299 111.478 29.7586 110.959 29.058C110.488 28.4287 109.869 27.9264 109.156 27.5964C108.831 27.4567 108.488 27.368 108.136 27.3332C107.811 27.307 107.483 27.324 107.162 27.3836C106.606 27.4927 106.079 27.7179 105.616 28.0444C105.267 28.2916 104.961 28.5943 104.709 28.9404C104.507 29.2445 104.341 29.5716 104.216 29.9148C104.216 29.9148 104.216 29.9148 104.216 29.842L104.278 29.6404C104.37 29.3805 104.492 29.1323 104.642 28.9012C104.901 28.5504 105.217 28.2456 105.577 27.9996C106.046 27.6569 106.582 27.4183 107.151 27.2996C107.482 27.2334 107.821 27.2126 108.159 27.238C108.523 27.2675 108.881 27.3565 109.217 27.5012C109.957 27.8338 110.6 28.3482 111.088 28.9964C111.619 29.707 112.047 30.4895 112.359 31.3204C112.7 32.1716 112.986 33.0732 113.367 33.958C114.032 35.6474 115.03 37.186 116.301 38.4828C117.354 39.5275 118.683 40.2501 120.132 40.566C121.109 40.7802 122.123 40.7553 123.088 40.4932C123.437 40.3741 123.779 40.2357 124.113 40.0788Z" fill="#455A64"/>
<path d="M125.149 37.1614C125.068 37.2226 124.977 37.2699 124.88 37.3014C124.627 37.4079 124.367 37.4977 124.102 37.5702C123.709 37.6761 123.308 37.7492 122.903 37.7886C121.907 37.8868 120.9 37.7801 119.947 37.475C119.561 37.3548 119.186 37.2012 118.827 37.0158C118.582 36.893 118.348 36.7507 118.127 36.5902C117.97 36.4782 117.886 36.411 117.891 36.3998C117.897 36.3886 118.255 36.6182 118.877 36.9094C119.238 37.0814 119.613 37.2237 119.997 37.335C120.468 37.4699 120.949 37.5654 121.436 37.6206C121.924 37.6593 122.415 37.6593 122.903 37.6206C123.301 37.5873 123.696 37.5256 124.085 37.4358C124.74 37.3014 125.138 37.1334 125.149 37.1614Z" fill="#455A64"/>
<path d="M148.59 127.977C148.534 128.044 148.03 127.708 147.414 127.389C146.798 127.069 146.227 126.879 146.25 126.795C146.708 126.764 147.164 126.881 147.549 127.131C148.221 127.467 148.641 127.921 148.59 127.977Z" fill="#263238"/>
<path d="M114.514 112.308C114.514 111.446 108.354 73.0296 108.354 73.0296C107.083 71.7696 92.7081 60.8384 92.7081 60.8384L79.8281 75.6952C79.8281 75.6952 76.4233 87.4552 75.2753 96.012C74.5249 101.651 71.0697 128.542 70.0113 139.899C69.8695 141.404 70.1247 142.92 70.7516 144.296C71.3785 145.672 72.3551 146.859 73.5841 147.739L74.9113 147.902L75.1969 151.301C86.8281 151.794 115.007 147.174 115.354 147.381C115.808 147.672 114.431 115.422 114.514 112.308Z" fill="#FF725E"/>
<path d="M89.9305 89.0732C89.9305 89.0732 102.581 122.197 109.659 126.263C116.738 130.328 138.415 136.343 138.415 136.343L140.526 135.441L144.138 136.343L149.862 125.804L122.606 111.804C122.606 111.804 109.418 76.77 108.483 76.0644C107.548 75.3588 105.123 71.2988 99.1201 73.858C93.1169 76.4172 88.1273 84.5204 89.9305 89.0732Z" fill="#FF725E"/>
<path d="M115.461 143.186C115.33 143.234 115.195 143.267 115.058 143.287L113.898 143.522C112.885 143.729 111.418 143.987 109.598 144.278C105.963 144.872 100.912 145.527 95.3177 146.109C89.7233 146.692 84.6777 147.145 80.9929 147.493L76.6473 147.89L75.4657 147.991C75.3279 148.006 75.189 148.006 75.0513 147.991C75.185 147.954 75.3218 147.93 75.4601 147.918L76.6361 147.761C77.6553 147.633 79.1393 147.465 80.9705 147.269L95.2897 145.807C100.89 145.247 105.93 144.597 109.57 144.06C111.39 143.791 112.862 143.561 113.876 143.393L115.046 143.214C115.183 143.191 115.322 143.182 115.461 143.186Z" fill="#263238"/>
<path d="M92.7248 77.8398C92.5345 78.0456 92.3691 78.273 92.232 78.5174C91.8848 79.2468 91.6506 80.0248 91.5376 80.8246C91.3228 82.0856 91.2496 83.3666 91.3192 84.6438C91.5491 86.3245 92.003 87.9668 92.6688 89.527C95.2336 96.6334 99.0248 106.372 103.617 116.967C104.177 118.294 104.737 119.593 105.403 120.837C106.004 122.07 106.747 123.229 107.615 124.292C108.554 125.221 109.626 126.004 110.796 126.616C111.944 127.237 113.092 127.797 114.24 128.296C118.832 130.256 123.122 131.656 126.717 132.804C130.312 133.952 133.246 134.82 135.274 135.419L137.609 136.113L138.214 136.298L138.415 136.371C138.344 136.366 138.275 136.351 138.208 136.326L137.592 136.169L135.246 135.52C133.207 134.96 130.267 134.109 126.65 132.994C123.032 131.88 118.748 130.491 114.134 128.514C112.98 128.027 111.821 127.467 110.662 126.834C109.462 126.208 108.364 125.406 107.402 124.454C106.523 123.374 105.772 122.196 105.162 120.943C104.513 119.689 103.93 118.384 103.365 117.057C98.7728 106.473 95.0096 96.7118 92.4896 89.583C91.832 88.0049 91.3893 86.3455 91.1736 84.6494C91.117 83.3591 91.2072 82.0666 91.4424 80.7966C91.5667 79.9879 91.822 79.2048 92.1984 78.4782C92.3266 78.2305 92.506 78.0129 92.7248 77.8398Z" fill="#263238"/>
<path d="M122.607 111.81C122.651 111.882 121.487 112.521 120.311 113.669C119.135 114.817 118.435 115.937 118.362 115.909C118.758 114.98 119.354 114.15 120.109 113.478C120.796 112.73 121.652 112.157 122.607 111.81Z" fill="#263238"/>
<path d="M86.856 59.7856C84.8232 60.3456 83.1096 61.6672 81.4632 62.9776L74.3512 68.6336C72.9736 69.72 71.5512 70.8736 70.9072 72.5536C70 74.9 71.0808 77.7224 73.0688 79.2736C75.0568 80.8248 77.7448 81.2504 80.248 80.9536C82.7512 80.6568 85.1088 79.6544 87.4104 78.6128L93.2344 61.2528C92.0528 59.472 88.8832 59.2424 86.856 59.7856Z" fill="#FF725E"/>
<path d="M108.545 73.1751C108.287 73.0967 108.039 72.9896 107.805 72.8559C107.335 72.6319 106.685 72.2959 105.857 71.8367C103.745 70.6593 101.71 69.3501 99.7638 67.9167C97.479 66.2367 95.4855 64.6295 94.0351 63.4759L92.3551 62.0927C92.1359 61.928 91.935 61.7402 91.7559 61.5327C91.9934 61.6607 92.2183 61.8107 92.4279 61.9807C92.8479 62.2775 93.4527 62.7311 94.1919 63.2855C95.6703 64.4055 97.6862 65.9903 99.9654 67.6591C102.245 69.3279 104.389 70.7167 105.985 71.6575C106.781 72.1279 107.43 72.5031 107.884 72.7775C108.116 72.8888 108.338 73.0219 108.545 73.1751Z" fill="#263238"/>
<path d="M88.9505 67.3564C88.7432 67.5499 88.5203 67.726 88.2841 67.8828C88.0601 68.0396 87.7969 68.2412 87.4945 68.482C87.1921 68.7228 86.8449 68.9916 86.4809 69.3108C84.5325 70.9344 82.8342 72.8365 81.4409 74.9556C80.0616 77.0796 78.9924 79.3896 78.2657 81.8156C78.0025 82.7452 77.7897 83.4956 77.7057 84.0556C77.6562 84.3351 77.5793 84.6089 77.4761 84.8732C77.4916 84.5904 77.5309 84.3094 77.5937 84.0332C77.6721 83.4732 77.8513 82.7228 78.0977 81.7932C78.7626 79.3132 79.8093 76.9516 81.2001 74.7932C82.6006 72.6521 84.3342 70.7483 86.3353 69.154C86.7161 68.8404 87.0689 68.594 87.3881 68.3532C87.7073 68.1124 87.9761 67.9332 88.2057 67.7932C88.4396 67.6245 88.689 67.4782 88.9505 67.3564Z" fill="#263238"/>
<g opacity="0.3">
<path opacity="0.3" d="M88.6539 60.144C83.6139 60.648 78.1987 66.108 74.0659 69.3672C75.7459 69.748 78.3667 68.1016 79.9067 67.3568C83.7707 65.4864 86.6267 62.4007 91.7283 61.5327L93.2347 61.208C92.3611 60.396 89.7515 60.0768 88.6539 60.144Z" fill="black"/>
</g>
<path d="M91.5543 61.5158C91.5543 61.5158 91.2799 61.5606 90.7983 61.667C90.1171 61.8247 89.4572 62.0634 88.8327 62.3782C87.2423 63.1678 85.1983 64.5566 82.8799 65.9902C80.9216 67.2633 78.8319 68.3222 76.6471 69.1486C75.9803 69.3785 75.2994 69.5655 74.6087 69.7086C74.3564 69.7758 74.097 69.8134 73.8359 69.8206C74.0787 69.7287 74.3276 69.6539 74.5807 69.5966C75.0567 69.4566 75.7455 69.2494 76.5743 68.9302C78.7231 68.0524 80.7853 66.9763 82.7343 65.7158C84.6757 64.4279 86.6832 63.2428 88.7487 62.1654C89.3939 61.8605 90.0779 61.6457 90.7815 61.527C90.9667 61.4961 91.1539 61.4793 91.3415 61.4766C91.4871 61.499 91.5543 61.5046 91.5543 61.5158Z" fill="#263238"/>
<path d="M109.889 80.0407C109.839 80.0407 109.704 79.4359 109.273 78.5231C108.719 77.3355 107.902 76.29 106.883 75.4661C105.864 74.6422 104.67 74.0617 103.393 73.7687C102.413 73.5391 101.78 73.5335 101.78 73.4831C101.925 73.4467 102.074 73.4334 102.223 73.4439C102.629 73.4478 103.034 73.489 103.432 73.5671C104.763 73.8143 106.011 74.3892 107.064 75.2398C108.117 76.0904 108.942 77.1899 109.463 78.4391C109.62 78.8142 109.743 79.202 109.833 79.5983C109.879 79.741 109.898 79.891 109.889 80.0407Z" fill="#263238"/>
<path d="M145.55 133.688C145.073 133.59 144.613 133.418 144.189 133.179C143.726 133.024 143.288 132.801 142.89 132.518C143.386 132.534 143.872 132.668 144.306 132.91C144.778 133.065 145.204 133.332 145.55 133.688Z" fill="#263238"/>
<path d="M147.235 130.928C146.317 130.468 145.428 129.95 144.575 129.377C145.099 129.441 145.599 129.634 146.031 129.937C146.507 130.165 146.92 130.505 147.235 130.928Z" fill="#263238"/>
<g opacity="0.3">
<path opacity="0.3" d="M92.0308 87.7964C93.778 101.091 95.7548 114.99 103.606 125.876C105.678 128.744 108.646 131.56 112.174 131.297C113.585 131.191 115.215 129.97 114.655 128.671C114.655 128.8 113.137 128.032 112.068 127.304C109.721 125.72 107.644 125.064 106.143 122.634C104.642 120.204 103.416 116.928 102.324 114.312C98.8964 106.103 94.7972 96.1628 92.0308 87.8132" fill="black"/>
</g>
<path d="M84.5603 151.435C84.2043 150.815 83.999 150.121 83.9611 149.408C83.8323 148.705 83.8668 147.983 84.0619 147.296C84.1459 147.296 84.1123 148.237 84.2523 149.374C84.3923 150.511 84.6163 151.412 84.5603 151.435Z" fill="#263238"/>
<path d="M89.8466 150.494C89.5391 149.255 89.4202 147.977 89.4938 146.703C89.6943 147.311 89.8037 147.945 89.8186 148.585C89.9262 149.216 89.9357 149.86 89.8466 150.494Z" fill="#263238"/>
<path d="M96.0457 149.52C95.8042 148.922 95.6532 148.292 95.5977 147.649C95.4459 147.021 95.393 146.373 95.4409 145.729C95.6811 146.326 95.8303 146.957 95.8833 147.599C96.0318 148.228 96.0865 148.875 96.0457 149.52Z" fill="#263238"/>
<path d="M101.461 149.189C101.298 148.583 101.17 147.968 101.08 147.347C100.894 146.746 100.745 146.134 100.632 145.516C101.013 146.037 101.263 146.642 101.36 147.28C101.551 147.898 101.586 148.554 101.461 149.189Z" fill="#263238"/>
<path d="M106.96 148.238C106.725 147.741 106.579 147.206 106.529 146.658C106.387 146.131 106.343 145.583 106.4 145.04C106.634 145.536 106.78 146.068 106.831 146.614C106.97 147.143 107.014 147.693 106.96 148.238Z" fill="#263238"/>
<path d="M111.894 148.008C111.81 148.008 111.782 147.089 111.58 145.986C111.379 144.883 111.093 144.009 111.171 143.981C111.857 145.205 112.111 146.623 111.894 148.008Z" fill="#263238"/>
<path d="M104.283 124.018C104.339 124.231 104.365 124.452 104.362 124.673C104.38 124.932 104.38 125.192 104.362 125.451C104.368 125.795 104.353 126.139 104.317 126.482C104.244 127.377 104.091 128.263 103.858 129.13C103.562 130.192 103.162 131.222 102.665 132.205C102.151 133.177 101.546 134.098 100.856 134.954C100.284 135.648 99.6504 136.289 98.9633 136.87C98.6833 137.127 98.4033 137.323 98.1513 137.508C97.9464 137.666 97.7313 137.81 97.5073 137.939C97.3323 138.065 97.1446 138.172 96.9473 138.258C96.9137 138.208 97.7257 137.726 98.8513 136.718C99.506 136.123 100.113 135.477 100.666 134.786C102.015 133.091 103.012 131.143 103.6 129.058C103.841 128.209 104.013 127.341 104.115 126.465C104.306 124.964 104.227 124.018 104.283 124.018Z" fill="#263238"/>
<g opacity="0.3">
<path opacity="0.3" d="M99.1201 136.461L99.3049 136.315C101.819 134.106 103.509 131.109 104.099 127.814C101.623 129.92 99.8537 133.325 99.1201 136.461Z" fill="black"/>
</g>
<path d="M97.7258 145.645C96.5687 143.743 96.1896 141.469 96.6674 139.294C96.6728 140.373 96.7401 141.45 96.869 142.52C97.0967 143.577 97.3828 144.62 97.7258 145.645Z" fill="#263238"/>
<path d="M106.68 123.015C106.714 123.088 106.249 123.362 105.65 123.626C105.308 123.825 104.925 123.944 104.53 123.973C104.502 123.894 104.961 123.626 105.56 123.357C105.902 123.158 106.286 123.041 106.68 123.015Z" fill="#263238"/>
<path d="M79.632 151.457C79.2045 150.909 78.9562 150.242 78.9208 149.548C78.7961 148.864 78.8902 148.159 79.1896 147.532C79.2736 147.532 79.0832 148.433 79.1896 149.52C79.296 150.606 79.7104 151.418 79.632 151.457Z" fill="#263238"/>
<path d="M147 160.009L137.368 181.205L145.651 258.451C145.743 259.306 146.148 260.097 146.788 260.672C147.428 261.246 148.257 261.564 149.117 261.565H194.32C195.185 261.565 196.02 261.244 196.661 260.663C197.303 260.082 197.706 259.284 197.792 258.423L205.38 181.44L195.86 160.009H147Z" fill="#455A64"/>
<path d="M205.117 183.16H136.741C136.198 183.158 135.678 182.941 135.295 182.557C134.912 182.173 134.697 181.653 134.697 181.11C134.698 180.568 134.914 180.049 135.297 179.666C135.68 179.283 136.199 179.067 136.741 179.066H205.117C205.659 179.066 206.18 179.281 206.564 179.664C206.948 180.047 207.165 180.567 207.166 181.11C207.166 181.379 207.113 181.646 207.01 181.894C206.907 182.143 206.756 182.369 206.566 182.559C206.376 182.75 206.15 182.901 205.901 183.004C205.652 183.107 205.386 183.16 205.117 183.16Z" fill="#455A64"/>
<path d="M156.693 160.009L153.479 175.487H190.523L187.863 160.009H156.693Z" fill="#263238"/>
<path d="M156.044 261.565H149.396V265.272H156.044V261.565Z" fill="#455A64"/>
<path d="M193.849 261.565H187.202V265.272H193.849V261.565Z" fill="#455A64"/>
<path d="M190.523 202.44C190.523 202.44 190.523 202.535 190.523 202.714C190.523 202.894 190.523 203.185 190.523 203.543C190.523 204.282 190.523 205.363 190.523 206.763C190.523 209.597 190.523 213.724 190.557 218.932C190.557 229.387 190.596 244.177 190.624 261.565V261.699H190.49H152.69H152.544V261.554C152.544 239.182 152.544 218.579 152.572 202.429V202.317H152.69L180.286 202.379H187.858H189.829H190.49H189.801H187.813L180.219 202.406L152.69 202.468L152.802 202.35C152.802 218.501 152.802 239.103 152.835 261.475L152.69 261.33H190.49L190.355 261.464C190.355 244.104 190.406 229.354 190.422 218.904C190.422 213.685 190.422 209.552 190.456 206.713C190.456 205.296 190.456 204.204 190.456 203.459C190.456 203.095 190.456 202.815 190.456 202.619C190.456 202.423 190.523 202.44 190.523 202.44Z" fill="#263238"/>
<path d="M205.167 182.946C205.167 183.03 189.958 183.092 171.203 183.092C152.449 183.092 137.239 183.03 137.239 182.946C137.239 182.862 152.443 182.801 171.203 182.801C189.963 182.801 205.167 182.868 205.167 182.946Z" fill="#263238"/>
<path d="M205.167 179.066C205.167 179.144 189.958 179.211 171.203 179.211C152.449 179.211 137.239 179.144 137.239 179.066C137.239 178.987 152.443 178.92 171.203 178.92C189.963 178.92 205.167 178.987 205.167 179.066Z" fill="#263238"/>
<path d="M194.32 261.587C194.32 261.665 184.038 261.733 171.36 261.733C158.682 261.733 148.4 261.665 148.4 261.587C148.4 261.509 158.676 261.441 171.36 261.441C184.044 261.441 194.32 261.52 194.32 261.587Z" fill="#263238"/>
</svg>
